<?xml version="1.0" encoding="UTF-8" standalone="no"?>
<!-- Created with Inkscape (http://www.inkscape.org/) -->

<svg
   width="270.93338mm"
   height="270.93332mm"
   viewBox="0 0 270.93338 270.93332"
   version="1.1"
   id="svg1"
   xml:space="preserve"
   xmlns="http://www.w3.org/2000/svg"
   xmlns:svg="http://www.w3.org/2000/svg"><defs
     id="defs1" /><g
     id="layer1"
     transform="translate(921.62648,305.95956)"><g
       id="g92"><path
         style="fill:none"
         d="m -921.62646,-170.4929 v -135.46666 h 135.46665 135.46666 v 135.46666 135.466655 h -135.46666 -135.46665 z"
         id="path55" /><path
         id="path158"
         style="fill:#dadbdc"
         d="m -705.92714,-192.297 c -0.18407,0.12371 -0.54104,0.68937 -0.61443,0.82527 l -0.84595,1.57458 c -1.22765,2.28578 -4.27011,4.6334 -6.77116,5.85804 -2.97035,1.45443 -4.58869,1.84479 -8.37106,2.01332 -0.50996,0.0227 -2.60705,-0.0302 -4.48758,-0.0171 -2.94952,0.0132 -5.89903,0.0167 -8.84856,0.0326 -1.11107,0 -2.54351,0.007 -4.51342,-0.0212 -3.93984,-0.0573 -9.92828,-0.0976 -18.24436,-0.12144 -7.52834,-0.0216 -13.6512,-0.0634 -18.02526,-0.12299 -2.18702,-0.0298 -3.93675,-0.064 -5.2033,-0.10128 -1.26655,-0.0373 -2.12111,-0.0932 -2.24793,-0.11369 -3.62987,-0.5864 -6.8366,-3.06515 -9.56634,-5.54075 -0.78555,-0.71243 -1.28501,-1.69067 -1.85518,-2.58485 -0.29392,-0.46096 -0.55112,-1.40974 -0.80977,-1.64745 -6e-5,0.002 6e-5,0.003 0,0.005 -0.0177,0.53168 -0.0153,1.06802 -0.002,1.59835 0.0115,0.36666 0.0205,0.73333 0.0481,1.08211 0.0149,0.20734 0.0392,0.39731 0.06,0.59428 0.0626,0.55668 0.13483,1.09814 0.24288,1.52342 3e-5,1.5e-4 -4e-5,3.7e-4 0,5.1e-4 0.17468,0.6871 0.39504,1.35805 0.65732,2.0097 6e-5,1.5e-4 -6e-5,3.7e-4 0,5.2e-4 0.2623,0.65164 0.5668,1.28367 0.90951,1.89239 7e-5,1.3e-4 -8e-5,3.8e-4 0,5.1e-4 0.34272,0.60873 0.72404,1.19404 1.13998,1.75235 8e-5,1.2e-4 -9e-5,4.1e-4 0,5.2e-4 0.41595,0.55831 0.86679,1.08965 1.34875,1.59008 0.48206,0.50053 0.99545,0.96995 1.53634,1.40509 0.54089,0.43513 1.10971,0.8356 1.70222,1.19785 0.59252,0.36226 1.20894,0.68652 1.84589,0.96842 0.63694,0.2819 1.29419,0.52166 1.96835,0.71572 0.36038,0.10373 0.76052,0.18433 1.45521,0.24701 0.69469,0.0627 1.68419,0.10762 3.22358,0.14005 3.07878,0.0648 8.35708,0.0798 17.87694,0.0884 8.29422,0.007 15.36414,-0.0399 18.75906,-0.11265 10e-4,-3e-5 0.004,3e-5 0.006,0 1.32246,-0.0284 2.20348,-0.0597 2.20348,-0.0946 h 5.2e-4 c 0,-0.0329 0.95343,0.0326 2.34197,0.12764 l 11.12025,0.0806 c 5.30617,0.0386 10.19401,-0.003 14.30611,-2.34405 2.96118,-1.91082 5.3468,-4.76916 6.67814,-8.11216 0.008,-0.0197 0.0176,-0.0387 0.0253,-0.0584 0.11033,-0.28017 0.20758,-0.58687 0.30024,-0.90072 0.0336,-0.11601 0.0667,-0.2326 0.0977,-0.35243 0.0236,-0.0891 0.0429,-0.18388 0.0651,-0.27492 0.0884,-0.37291 0.15969,-0.76523 0.22375,-1.16375 0.0544,-0.32038 0.0872,-0.65172 0.12609,-0.98237 0.0938,-0.86557 0.14892,-1.74902 0.13798,-2.61586 -1.7e-4,-0.0139 2e-4,-0.0279 0,-0.0419 z m -1.71566,7.46466 c 10e-4,10e-4 0.007,0.003 0.008,0.004 -0.002,-0.002 -0.006,-1.7e-4 -0.008,-0.002 z" /><path
         id="path52"
         style="fill:#fad46e"
         d="m -735.15746,-230.76243 c -1.52184,0.0264 -3.05185,0.27471 -4.57337,0.74466 -0.48037,0.14837 -0.91675,0.29315 -1.23816,0.40825 -0.16071,0.0575 -0.29271,0.108 -0.39274,0.15037 -0.05,0.0212 -0.0893,0.0389 -0.13281,0.0625 -0.0217,0.0118 -0.045,0.0233 -0.0801,0.0506 -0.0175,0.0137 -0.0379,0.0302 -0.0682,0.0682 -0.0152,0.019 -0.0508,0.0813 -0.0512,0.0822 -3.8e-4,8.3e-4 -0.0351,0.15742 -0.0351,0.15813 0,3.6e-4 0.008,0.0761 0.008,0.0765 8e-5,4.1e-4 0.0108,0.0381 0.016,0.0527 0.0104,0.0291 0.0202,0.0488 0.0289,0.0641 0.0175,0.0306 0.0303,0.0475 0.0413,0.061 0.0221,0.0271 0.0381,0.0403 0.0548,0.0563 0.0333,0.032 0.0677,0.0639 0.11111,0.0997 0.0868,0.0718 0.20444,0.1616 0.34778,0.26976 0.28668,0.21631 0.67766,0.499 1.10743,0.80046 0.74071,0.51959 1.15221,0.81568 1.6092,0.95653 -0.0397,-0.0361 -0.0789,-0.0738 -0.11937,-0.108 0.0487,-0.03 0.14328,-0.066 0.28319,-0.0925 0.53465,-0.10123 0.84108,-0.13584 1.41955,-0.20774 0.53314,-0.0663 1.08579,-0.12252 1.65571,-0.13746 0.18997,-0.005 0.38199,-0.005 0.57568,0 l 5.1e-4,5.2e-4 c 3.35717,0.0929 7.18727,1.41762 10.08621,3.58169 2.09904,1.56694 5.04342,5.75125 5.1449,7.31118 0.0264,0.40626 0.0471,0.4111 0.14676,0.0357 0.0439,-0.16526 0.0262,-0.46481 -0.0367,-0.84801 0.004,0.006 0.0218,0.0115 0.0248,0.0165 0.036,0.0525 0.0563,0.0977 0.0765,0.14727 l 5.2e-4,5.2e-4 c 0.003,0.0154 0.006,0.0306 0.008,0.046 0.0237,0.13432 0.0511,0.26727 0.0703,0.40308 4.7e-4,0.003 5.6e-4,0.007 10e-4,0.0103 -0.007,0.12956 -0.0477,0.2658 -0.15761,0.39843 0,0.003 10e-4,0.006 0.002,0.008 10e-4,0.0156 -0.004,0.0214 -0.004,0.0367 0.029,0.002 0.0526,-0.0152 0.0801,-0.006 0.0676,0.0217 0.0984,0.0603 0.13384,0.0956 0.006,0.0597 0.0133,0.11926 0.0201,0.1788 0.008,-0.0113 0.0156,-0.0228 0.0212,-0.032 0.0323,-0.0536 0.0425,-0.085 0.0548,-0.11937 0.0245,-0.0687 0.0445,-0.14103 0.0703,-0.23823 0.0813,-0.30614 0.0385,-0.623 -0.0331,-1.0449 -0.0716,-0.4219 -0.19312,-0.92425 -0.34778,-1.46296 -0.30931,-1.07742 -0.75425,-2.29836 -1.22835,-3.27318 -1.27853,-2.62888 -4.51763,-5.82464 -7.23418,-7.15047 -1.93492,-0.94436 -3.93,-1.50172 -5.94951,-1.66398 -0.50487,-0.0406 -1.01097,-0.0564 -1.51825,-0.0476 z" /><path
         id="path172"
         style="fill:#54c5f5;stroke-width:1"
         d="m -746.53618,-155.75688 c -4.39914,0.0187 -6.47273,0.74536 -9.22922,3.23569 -2.33542,2.10989 -3.4151,4.13889 -3.77784,6.90446 0.0317,-0.0525 0.0606,-0.10765 0.0926,-0.16006 -0.26268,1.17415 -0.29261,1.98938 0.1632,1.30714 1.97406,-2.95471 2.97495,-4.0591 4.63305,-5.11087 2.34308,-1.48625 5.02475,-2.27291 7.77772,-2.35143 2.75297,-0.0785 5.5775,0.55038 8.20689,1.89479 2.24641,1.1486 6.05139,5.34344 6.64556,7.32659 0.62692,2.09232 0.89543,2.0393 0.54686,-0.10826 -0.0707,-0.4362 -0.17846,-0.87581 -0.30286,-1.31578 0.11038,0.19535 0.20763,0.38888 0.30521,0.58218 -1.19612,-4.84525 -4.35221,-8.99059 -8.94756,-11.14444 -1.99829,-0.9366 -2.7936,-1.07413 -6.11359,-1.05999 z" /><path
         id="path51"
         style="fill:#54c5f5;stroke-width:1"
         d="m -833.65638,-114.7067 a 4.6972103,6.1989204 0 0 0 -3.97634,5.8986 l 0.20633,-0.0439 c 0.40214,-0.59664 39.45239,-1.02232 51.8031,-0.56491 l 8.11432,0.3005 2.95636,1.46013 c 4.24928,2.10011 8.59211,6.7303 8.74905,9.327308 0.0276,0.456899 0.13756,0.581627 0.255,0.289523 0.22897,-0.569678 -0.0881,-1.985211 -0.65356,-3.514221 0.0694,0.11539 0.1586,0.23494 0.21811,0.34836 0.10249,0.19546 0.16976,0.38341 0.26283,0.57746 0.28245,0.966138 0.46742,1.953817 0.5657,2.949314 0.0351,-0.058 0.0565,-0.112809 0.0793,-0.169472 0.17076,-0.424848 0.13831,-0.881094 0.0557,-1.429546 -0.0826,-0.548437 -0.24473,-1.179116 -0.46526,-1.847726 -0.4411,-1.33724 -1.11486,-2.82284 -1.88932,-4.02107 -2.64366,-4.09029 -6.55159,-6.86463 -11.44885,-8.14021 -2.09926,-0.54675 -6.6516,-0.61356 -28.2016,-0.61356 -12.78021,0 -19.23043,-0.005 -22.59328,-0.10977 -1.68143,-0.0527 -2.59209,-0.13497 -3.09839,-0.24008 -0.50632,-0.10507 -0.57731,-0.18146 -0.83638,-0.38524 -0.0351,-0.0276 -0.0682,-0.0452 -0.10279,-0.0714 z" /><path
         id="path50"
         style="fill:#fbc127"
         d="m -735.16573,-227.14611 c -0.56992,0.0149 -1.12257,0.0712 -1.65571,0.13746 -0.57847,0.0719 -0.8849,0.10651 -1.41955,0.20774 -0.13991,0.0265 -0.23445,0.0625 -0.28319,0.0925 0.1694,0.14319 0.33017,0.30723 0.49713,0.45682 0.51721,0.46344 1.01978,0.9541 1.50895,1.47278 0.0646,0.0684 0.1282,0.13849 0.19223,0.20774 0.40421,0.43781 0.79593,0.88821 1.17564,1.35754 0.15208,0.18762 0.30241,0.37742 0.4501,0.56947 0.27663,0.36036 0.54359,0.7255 0.80357,1.09968 0.18596,0.26718 0.36901,0.53647 0.54571,0.80977 6.7e-4,0.001 0.001,0.002 0.002,0.003 0.19543,0.30275 0.38202,0.60765 0.56534,0.91674 0.19518,0.32872 0.38536,0.6595 0.56586,0.99425 0.14748,0.27366 0.28721,0.54752 0.42426,0.82424 0.18139,0.36609 0.35519,0.73405 0.51728,1.10433 0.019,0.0181 0.0212,0.037 0.0326,0.0548 l -0.0124,-0.0114 c 0.0167,0.0383 0.0373,0.0759 0.0537,0.11421 0.0238,0.031 0.0495,0.071 0.0729,0.0992 0.002,0.0141 -5.4e-4,0.0296 -0.004,0.047 0.002,0.004 0.003,0.008 0.005,0.0119 0.0252,0.0598 0.0467,0.11948 0.0713,0.17932 0.24855,0.60227 0.47533,1.20682 0.66663,1.81126 0.25239,0.79748 0.51163,1.61435 0.57567,1.81487 3e-4,9.3e-4 7.3e-4,0.002 10e-4,0.003 0.0213,0.0652 0.0551,0.11784 0.10542,0.15761 0.0508,0.0402 0.11825,0.0673 0.20515,0.0827 5.9e-4,1.1e-4 9.6e-4,4.1e-4 0.002,5.2e-4 0.17511,0.0306 0.42943,0.0124 0.79014,-0.0501 0.002,-2.8e-4 0.008,-0.001 0.009,-0.002 0.54516,-0.0942 1.9256,-0.29425 3.08353,-0.447 0.004,-5.6e-4 0.007,-9.9e-4 0.0114,-0.002 10e-4,-1.4e-4 0.002,-3.8e-4 0.003,-5.2e-4 0.48409,-0.0637 0.94835,-0.10797 1.40922,-0.13229 8.4e-4,-4e-5 0.002,5e-5 0.003,0 0.46238,-0.0243 0.92133,-0.0284 1.3932,-0.0119 1.7e-4,0 3.4e-4,-1e-5 5.1e-4,0 0.47205,0.0165 0.95678,0.0536 1.47123,0.11213 0.5143,0.0586 1.05841,0.13859 1.64796,0.2403 1.8e-4,3e-5 3.5e-4,-3e-5 5.2e-4,0 l 0.632,0.10904 c 0.11125,-0.0505 0.23828,-0.0792 0.2527,-0.20774 l -0.14108,-2.23036 c -0.0162,-0.25604 -0.0503,-0.50675 -0.0775,-0.75964 -0.0355,-0.0353 -0.0662,-0.0739 -0.13384,-0.0956 -0.0275,-0.009 -0.0511,0.008 -0.0801,0.006 -8.2e-4,-0.0153 0.005,-0.0211 0.004,-0.0367 -1.4e-4,-0.002 -0.002,-0.005 -0.002,-0.008 0.10993,-0.13263 0.15071,-0.26887 0.15761,-0.39843 -4.7e-4,-0.003 -5.6e-4,-0.007 -10e-4,-0.0103 -0.0192,-0.13581 -0.0466,-0.26876 -0.0703,-0.40308 -0.003,-0.0154 -0.006,-0.0306 -0.008,-0.046 -9e-5,-2.1e-4 -4.3e-4,-3.1e-4 -5.2e-4,-5.2e-4 -0.0202,-0.0495 -0.0404,-0.0948 -0.0765,-0.14727 -0.003,-0.005 -0.021,-0.0108 -0.0248,-0.0165 0.0629,0.3832 0.0806,0.68275 0.0367,0.84801 -0.0997,0.37544 -0.12034,0.3706 -0.14676,-0.0357 -0.10148,-1.55993 -3.04586,-5.74424 -5.1449,-7.31118 -2.89894,-2.16407 -6.72904,-3.4888 -10.08621,-3.58169 l -5.1e-4,-5.2e-4 c -0.19369,-0.005 -0.38571,-0.005 -0.57568,0 z m 4.21008,1.34927 c 0.003,5e-5 0.007,5e-5 0.01,0 0.0404,0.01 0.0822,0.012 0.1235,0.008 0.008,-0.007 -0.007,0.0136 -0.0512,0.015 h -0.002 c -0.0242,6e-4 -0.0558,-0.007 -0.0801,-0.0217 z" /><path
         id="path66"
         style="fill:#010101;stroke-width:1"
         d="m -747.49251,-162.134 c -5.25342,0.22305 -9.34503,1.72338 -13.28637,5.57378 -1.39238,1.36024 -2.61509,2.80123 -3.06856,3.53069 -1.71747,2.76275 -2.11057,4.16647 -2.33654,6.38818 -0.12708,1.24945 -0.13483,2.29669 -0.0247,3.58705 0.14591,1.71022 0.60844,3.73383 1.10589,4.85608 l 0.8458,1.90815 h -24.09815 -24.09892 l -0.98547,0.98544 c -1.33061,1.33062 -1.26113,2.81801 0.20007,4.27921 l 1.18631,1.1863 30.85041,-0.1122 30.8504,-0.1122 1.9662,-0.97526 c 4.08252,-2.02497 6.65914,-5.95748 6.66674,-10.17231 0.005,-2.80454 -0.84967,-3.91672 -3.00895,-3.91672 -1.86422,0 -3.01285,1.16331 -3.01285,3.05209 0,2.11749 -1.02448,3.92929 -2.78061,4.91629 -3.05933,1.71943 -6.60136,0.55771 -8.37167,-2.74609 -0.83218,-1.55315 -0.94455,-2.21198 -0.79636,-4.67777 0.20123,-3.34896 1.29639,-5.56341 3.92455,-7.93779 2.75649,-2.49033 4.83009,-3.21779 9.22923,-3.23646 3.31999,-0.0137 4.11451,0.12419 6.11281,1.06078 7.04343,3.30126 10.79678,11.25246 9.10605,19.29091 -1.57811,7.50299 -8.56082,13.95477 -16.424,15.17491 -1.62855,0.25271 -18.15025,0.40648 -43.90532,0.408 l -41.29497,0.003 -0.98546,0.98547 c -1.20502,1.20502 -1.25818,2.57769 -0.15379,3.98183 l 0.83246,1.05842 24.97768,0.003 c 15.41851,10e-4 25.97699,0.16378 27.58884,0.4229 12.80992,2.05931 19.72728,15.613369 13.02431,25.519837 -2.57374,3.803787 -6.41705,5.904253 -10.8149,5.908808 -7.48236,0.0087 -12.78742,-6.198451 -10.39906,-12.167548 0.8318,-2.078858 2.42561,-3.216853 4.50517,-3.216853 2.08183,0 4.08618,1.567034 4.08618,3.194884 0,0.613389 0.37455,1.591963 0.83247,2.174121 1.02418,1.30201 2.65357,1.391115 4.13482,0.225964 0.88928,-0.699506 1.05843,-1.151483 1.05843,-2.825337 0,-3.736403 -1.85317,-6.552446 -5.42315,-8.239846 l -2.00856,-0.94937 -25.8792,-0.005 c -23.5203,-0.003 -25.94589,0.0563 -26.61356,0.66063 -1.02047,0.92352 -0.98127,3.507482 0.0691,4.557729 0.78134,0.781418 1.33904,0.803433 20.28657,0.803433 10.91404,0 19.48314,0.154745 19.48314,0.352289 0,0.193962 -0.27116,1.001972 -0.60257,1.795157 -0.89243,2.135885 -0.77552,6.599228 0.24401,9.324164 1.67745,4.483389 5.70842,8.237709 10.54499,9.820815 v 7.85e-4 c 1.96614,0.643573 3.26495,0.778578 6.39448,0.664554 3.67019,-0.133777 4.15035,-0.254342 7.3517,-1.840667 7.41495,-3.674247 11.41825,-10.233623 11.41825,-18.710313 0,-5.730036 -1.72687,-10.343256 -5.62636,-15.028976 l -2.03602,-2.4456 h 9.2755 c 6.99865,0 9.98244,-0.16982 12.16678,-0.63944 14.27797,-3.0697 22.02307,-16.0767 19.8162,-29.90328 -0.58097,-3.63998 -2.74859,-7.87407 -5.0281,-10.48078 -2.11096,-2.41314 -5.59208,-4.78726 -8.75533,-5.97078 -1.99332,-0.74578 -4.03048,-1.18003 -6.0516,-1.31655 -0.75793,-0.0512 -1.51387,-0.0609 -2.26436,-0.029 z m -81.51346,25.85565 c -7.06223,-0.0121 -7.16063,-4.1e-4 -8.13472,0.97368 -1.60124,1.60123 -1.22924,3.85585 0.82147,4.9775 1.07164,0.58619 12.54191,0.60056 14.213,0.0181 1.5927,-0.55523 2.45981,-2.14606 2.0227,-3.71037 -0.58805,-2.10449 -1.14233,-2.24519 -8.92245,-2.25885 z" /><path
         id="path42"
         style="fill:#010101"
         d="m -734.24272,-246.8699 c -1.84382,0 -2.34456,0.98904 -2.34456,4.63021 0,2.76748 0.30128,3.90896 1.13843,4.31343 0.95834,0.46302 1.75846,0.35408 2.44533,-0.33279 0.61973,-0.61975 0.64957,-0.79955 0.64957,-3.9331 0,-2.92134 -0.0604,-3.36041 -0.54829,-3.98063 -0.3742,-0.47572 -0.80007,-0.69712 -1.34048,-0.69712 z m -21.11551,8.53385 c -0.97163,-0.1178 -1.79902,0.51595 -2.0283,1.70325 -0.14525,0.75217 -0.0115,1.00387 1.22421,2.31046 0.9315,0.98495 1.2666,1.5041 1.02165,1.5813 -0.20055,0.0632 -1.37635,0.1797 -2.61328,0.2589 -8.47398,0.54255 -16.63064,6.11205 -20.58479,14.05547 -0.99727,2.0034 -2.16938,5.3984 -2.16938,6.28385 0,0.50784 -0.55278,0.72761 -1.83141,0.72761 -0.5469,0 -1.92177,0.23724 -3.05511,0.5271 -7.33353,1.8756 -12.89375,7.46696 -14.72933,14.81201 -0.46937,1.87834 -0.53706,2.73722 -0.41652,5.29167 0.17591,3.7278 0.62114,5.48188 2.21796,8.73797 1.03951,2.11966 1.60935,2.8899 3.63647,4.91701 2.02268,2.02268 2.8025,2.59985 4.91753,3.6406 4.81087,2.36734 3.90758,2.2903 26.73015,2.2903 h 18.08623 l 19.99945,-10e-6 c 4.8834,0 9.4924,0 15.10849,-4.21368 2.15914,-1.61997 4.01323,-3.63834 5.23275,-5.66994 6.25387,-10.4183 2.15728,-24.09708 -8.87594,-29.63695 l -1.37408,-0.68988 0.14676,-1.78904 c 0.18845,-2.30348 -0.47303,-6.14624 -1.49861,-8.70748 -2.60294,-6.50054 -8.37337,-11.17042 -15.34687,-12.4194 -4.1863,-0.74979 -8.20672,-0.13819 -12.35428,1.87948 l -2.5244,1.22834 -1.68878,-0.45733 c -1.4839,-0.40167 -1.68879,-0.53472 -1.68879,-1.09709 0,-0.67946 -3.21518,-4.35509 -4.53874,-5.18883 -0.33923,-0.21369 -0.67916,-0.33642 -1.00304,-0.37569 z m 41.92767,0.73432 c -0.71095,0.0607 -1.55847,0.78126 -3.23184,2.45463 -2.07858,2.07858 -2.46238,2.59439 -2.46238,3.30729 0,0.49185 0.22101,1.06593 0.52916,1.37408 0.34441,0.34442 0.88177,0.52917 1.53944,0.52917 0.92234,0 1.21074,-0.20465 3.3073,-2.34715 2.01546,-2.05964 2.29701,-2.46253 2.29701,-3.28817 0,-0.70134 -0.17748,-1.08056 -0.69711,-1.48931 -0.47752,-0.37561 -0.85501,-0.57693 -1.28158,-0.54054 z m -21.40127,7.16339 c 1.42136,-0.0124 2.80865,0.11199 3.89485,0.39222 6.72329,1.73455 11.54871,7.72409 12.00185,14.89728 l 0.1571,2.48461 -0.90124,-0.15555 c -2.35902,-0.40702 -3.98405,-0.46395 -5.92781,-0.20774 -1.16416,0.15345 -2.56107,0.356 -3.1042,0.4501 -0.72188,0.12508 -1.01871,0.0727 -1.10381,-0.19378 -0.064,-0.20052 -0.32328,-1.01688 -0.57567,-1.81436 -1.63797,-5.17544 -5.45988,-10.41086 -9.76426,-13.37541 l -1.48363,-1.02216 0.65474,-0.34313 c 1.31955,-0.69139 3.78313,-1.09149 6.15208,-1.11208 z m -20.95325,1.89704 c 10.09802,-0.33068 19.53702,6.84487 21.87567,16.99328 0.73113,3.17268 0.89462,3.53348 1.7508,3.86798 0.58166,0.22725 1.13175,0.16879 2.69647,-0.28577 5.3042,-1.54089 9.5391,-1.24642 14.04152,0.97565 4.5883,2.26446 7.89395,6.39551 9.15758,11.44426 0.68451,2.73491 0.41247,6.97174 -0.61495,9.58081 -1.31883,3.34912 -3.5926,6.38566 -6.64817,8.14318 -4.12328,2.37166 -9.03177,2.41039 -14.36121,2.37166 l -15.6721,-0.11392 c -3.39492,0.0728 -10.46484,0.12013 -18.75906,0.11265 -19.03972,-0.0171 -21.11423,-0.0605 -22.55573,-0.47542 -5.39332,-1.5525 -9.71076,-6.03557 -11.10836,-11.53366 -0.5146,-2.02545 -0.51362,-5.93802 0.002,-7.95817 1.78047,-6.974 8.487,-12.00376 16.0321,-12.02356 2.27951,-0.006 3.04233,-0.54677 3.283,-2.32699 1.33128,-9.84758 8.85769,-17.27427 18.85415,-18.60455 0.67715,-0.0901 1.35303,-0.14538 2.02623,-0.16743 z m 48.84302,12.09849 c -3.36342,0 -3.76629,0.0502 -4.24522,0.52916 -0.65574,0.65573 -0.70594,2.27688 -0.0915,2.9559 0.38657,0.42715 0.89599,0.48369 4.3465,0.48369 3.90732,0 3.90891,-1.9e-4 4.4571,-0.69712 0.72744,-0.92478 0.69238,-1.8284 -0.10129,-2.62206 -0.62787,-0.62784 -0.77281,-0.64957 -4.36562,-0.64957 z" /><path
         id="path174"
         style="fill:#25abe9;stroke-width:1"
         d="m -807.35195,-109.62642 c -14.09891,0.0137 -28.68501,0.1678 -30.24233,0.17732 a 4.6972103,6.1989204 0 0 0 -0.0518,0.86855 4.6972103,6.1989204 0 0 0 3.18625,5.86251 c 0.0802,-0.13968 0.16926,-0.26852 0.28088,-0.36955 0.66767,-0.60423 3.09328,-0.66419 26.61358,-0.66062 l 25.87918,0.005 2.00857,0.94937 c 3.56985,1.68764 5.42314,4.503444 5.42314,8.239846 0,1.673854 -0.16914,2.125818 -1.05842,2.825325 -1.48124,1.165151 -3.11065,1.076058 -4.13483,-0.225952 -0.45792,-0.582158 -0.83247,-1.560742 -0.83247,-2.174131 0,-1.62785 -2.00434,-3.194872 -4.08617,-3.194872 -2.07956,0 -3.67337,1.137984 -4.50516,3.216842 -2.38836,5.969092 2.91669,12.176196 10.39906,12.167542 4.39784,-0.0046 8.24115,-2.105018 10.8149,-5.908806 0.81574,-1.205609 1.4223,-2.466351 1.84852,-3.752722 -0.0964,0.04069 -0.15265,0.05132 -0.0235,-0.03765 0.0122,0.0046 0.0304,-0.01215 0.0439,-0.01367 0.97049,-2.965524 0.91869,-6.063393 0.0674,-8.975022 -0.0931,-0.19405 -0.1604,-0.382 -0.26283,-0.57746 -0.0595,-0.11342 -0.14879,-0.23303 -0.21812,-0.34836 0.56546,1.52901 0.88254,2.944543 0.65357,3.51422 -0.11737,0.292104 -0.22738,0.167377 -0.255,-0.289522 -0.15695,-2.597008 -4.49977,-7.227198 -8.74905,-9.327308 l -2.95636,-1.46013 -8.11432,-0.3005 c -4.63151,-0.17154 -13.00693,-0.21801 -21.72866,-0.20949 z" /><path
         style="fill:#25abe9;stroke-width:1"
         d="m -746.87669,-151.93274 v 7.9e-4 c -2.75298,0.0785 -5.43464,0.86518 -7.77773,2.35143 -1.65809,1.05177 -2.65898,2.15616 -4.63305,5.11087 -0.4558,0.68224 -0.42588,-0.133 -0.1632,-1.30714 -0.032,0.0524 -0.0609,0.10749 -0.0926,0.16006 -0.0454,0.34667 -0.12435,0.66029 -0.14667,1.03332 -0.14819,2.46579 -0.0358,3.12462 0.79637,4.67777 1.77031,3.3038 5.31233,4.46554 8.37166,2.7461 1.75613,-0.98699 2.78061,-2.79802 2.78061,-4.91551 0,-1.88878 1.14865,-3.05287 3.01286,-3.05287 2.15929,0 3.0137,1.11218 3.00894,3.91672 -0.008,4.21483 -2.58433,8.14711 -6.66674,10.1723 l -1.9662,0.97526 -30.8504,0.1122 -30.85039,0.1122 -1.18632,-1.18631 c -0.80398,-0.80398 -1.14476,-1.61311 -1.10472,-2.40244 l -5.69304,-0.006 c 0.10294,1.35847 -0.67684,2.64053 -2.06897,3.12584 -0.98448,0.34318 -5.25872,0.45378 -8.9154,0.38759 -0.16331,0.12905 -0.3173,0.26459 -0.4535,0.40955 -1.0325,1.09955 -1.456,2.6924 -1.45856,4.29412 -0.003,1.60172 0.42324,3.25001 1.39658,4.48711 l 0.71712,0.91014 39.17342,-0.003 c 25.75507,-0.002 42.27677,-0.1553 43.90532,-0.408 7.86318,-1.22014 14.84588,-7.67192 16.424,-15.17491 0.58776,-2.79446 0.47985,-5.56642 -0.15771,-8.14805 -0.0975,-0.19309 -0.19496,-0.38625 -0.30521,-0.58139 0.12435,0.43997 0.23206,0.87957 0.30286,1.31578 0.34857,2.14757 0.08,2.20061 -0.54686,0.10825 -0.59417,-1.98314 -4.39915,-6.17797 -6.64556,-7.32657 -2.62939,-1.34441 -5.45392,-1.97335 -8.20689,-1.89481 z"
         id="path173" /><path
         style="fill:#fbfbfb;fill-opacity:1;stroke:none;stroke-width:0.529167;stroke-linecap:round;stroke-linejoin:round;stroke-dasharray:none;stroke-opacity:1;paint-order:markers stroke fill"
         d="m -665.54073,-179.94974 c 0.009,0.5969 -0.0119,1.20423 -0.0527,1.80868 0.0119,-0.0206 0.0183,-0.0335 0.0299,-0.0537 0.043,-0.59355 0.0313,-1.17053 0.0228,-1.75493 z"
         id="path196" /><path
         id="path195"
         style="fill:#fbfbfb;fill-opacity:1;stroke:none;stroke-width:0.529167;stroke-linecap:round;stroke-linejoin:round;stroke-dasharray:none;stroke-opacity:1;paint-order:markers stroke fill"
         d="m -755.78456,-228.54182 c -0.67321,0.022 -1.3496,0.0778 -2.02675,0.16795 -9.99646,1.33028 -17.52288,8.75697 -18.85415,18.60455 -0.24067,1.78022 -1.00348,2.32101 -3.283,2.32699 -7.54509,0.0198 -14.25161,5.04956 -16.0321,12.02356 -0.20888,0.81828 -0.31098,1.96616 -0.35088,3.15433 v 5.1e-4 c 0.12932,0.11886 0.25834,0.41548 0.39171,0.74001 0.13337,0.32453 0.2711,0.67696 0.41806,0.90744 0.57017,0.89418 1.06963,1.87242 1.85518,2.58485 0.68244,0.6189 1.39457,1.23812 2.13579,1.8278 0.37061,0.29484 0.74828,0.58192 1.13326,0.85834 1.92511,1.38233 4.02839,2.48807 6.29729,2.85461 0.12682,0.0205 0.98138,0.0764 2.24793,0.11369 1.26655,0.0373 3.01628,0.0715 5.2033,0.10128 4.37406,0.0596 10.49692,0.10139 18.02526,0.12299 8.31608,0.0238 14.30452,0.0641 18.24436,0.12144 0.58855,0.009 3.38349,0.0117 5.57175,0.0171 2.59675,-0.0117 5.19348,-0.0168 7.79023,-0.0284 1.88053,-0.0131 3.97762,0.0398 4.48758,0.0171 2.36398,-0.10533 3.8824,-0.29709 5.41414,-0.78135 0.3124,-0.0988 0.62593,-0.21107 0.94671,-0.3359 0.62313,-0.24245 1.27466,-0.5359 2.01021,-0.89607 0.62526,-0.30616 1.28433,-0.6825 1.94045,-1.11052 0.65593,-0.42789 1.30917,-0.90739 1.92237,-1.42007 1.8e-4,-1.6e-4 3.2e-4,-3.6e-4 5.1e-4,-5.2e-4 0.61325,-0.51277 1.18673,-1.05845 1.68362,-1.61902 9e-5,-1e-4 -9e-5,-4.1e-4 0,-5.2e-4 0.49695,-0.56066 0.9173,-1.13594 1.22421,-1.70739 l 0.84595,-1.57458 c 0.0367,-0.068 0.1445,-0.24345 0.26613,-0.41754 0.1214,-0.17382 0.25632,-0.34592 0.3483,-0.40773 1.3e-4,-8e-5 3.9e-4,-4.3e-4 5.2e-4,-5.2e-4 -0.0169,-1.17036 -0.10068,-2.30644 -0.33642,-3.24838 -1.26362,-5.04875 -4.56928,-9.1798 -9.15758,-11.44426 -4.50244,-2.22207 -8.73679,-2.51602 -14.041,-0.97513 -1.56472,0.45456 -2.11533,0.5125 -2.69699,0.28525 -0.85617,-0.3345 -1.01967,-0.6953 -1.7508,-3.86798 -2.33865,-10.14841 -11.77714,-17.32446 -21.87515,-16.9938 z" /><path
         style="fill:none"
         d="m -921.62647,-170.4929 v -135.46666 h 135.46666 135.46666 v 135.46666 135.46666 h -135.46666 -135.46666 z"
         id="path14" /><path
         style="fill:#1fabe9"
         d="m -824.12751,-156.99888 c -3.10981,-1.04273 -5.50046,-3.46917 -6.48108,-6.57808 -0.6712,-2.12797 -0.6712,-3.7694 0,-5.89738 0.69355,-2.19879 1.98391,-3.90634 3.97238,-5.25668 0.88573,-0.60149 1.72323,-1.39034 1.86112,-1.75301 0.1475,-0.38795 0.2507,-7.02405 0.2507,-16.1203 v -15.4609 h 3.43959 3.43958 l 0.009,15.54427 c 0.007,11.68783 0.0891,15.6864 0.33073,16.11716 0.17675,0.3151 1.05201,1.06008 1.94503,1.65553 2.479,1.65294 3.77981,3.67298 4.34941,6.75422 0.52473,2.83853 -0.61552,6.25552 -2.82466,8.46466 -2.67184,2.67184 -6.82518,3.69301 -10.29217,2.53051 z"
         id="path16" /><path
         id="path21"
         style="fill:#020303"
         d="m -825.8473,-142.0644 c -9.73178,-2.08814 -17.00415,-9.00654 -19.47335,-18.52551 -0.54291,-2.09297 -0.68364,-3.27232 -0.69236,-5.80195 -0.0202,-5.87315 1.59103,-10.68971 5.10696,-15.26625 l 1.565,-2.03709 v -33.63064 c 0,-24.07648 0.0849,-33.98338 0.29877,-34.87229 0.16432,-0.6829 0.74154,-2.19414 1.2827,-3.3583 3.69558,-7.95005 11.91648,-12.06329 20.58853,-10.30126 5.33393,1.08377 10.0108,4.7081 12.52304,9.70468 1.91299,3.80476 1.8112,1.62271 1.81554,38.91829 l 0.004,33.55922 1.67917,2.09871 c 1.95323,2.44123 3.59579,5.60316 4.4583,8.58221 0.53213,1.83793 0.60667,2.65834 0.58784,6.47043 -0.0195,3.94121 -0.0904,4.59168 -0.72939,6.69087 -1.38901,4.563 -3.52365,8.02961 -6.97287,11.32374 -3.64478,3.48091 -8.23598,5.79433 -13.04597,6.5736 -2.35989,0.38233 -6.9187,0.31723 -8.99583,-0.12846 z m 8.50953,-4.46038 c 7.89505,-1.51904 14.2032,-7.42524 16.27383,-15.23687 0.62285,-2.34976 0.63054,-7.21051 0.0151,-9.525 -0.76619,-2.88126 -2.64517,-6.36275 -4.56035,-8.44969 l -1.71725,-1.87125 v -17.31005 -17.31005 l -3.99229,-0.0852 -3.99229,-0.0852 -0.63792,-0.74236 c -0.3556,-0.41382 -0.63792,-1.08059 -0.63792,-1.5066 0,-0.42601 0.28232,-1.09279 0.63792,-1.5066 l 0.63792,-0.74236 3.99229,-0.0852 3.99229,-0.0852 v -3.15593 -3.15594 h -3.85681 -3.85681 l -0.7734,-0.7734 c -0.81925,-0.81925 -0.93766,-1.40594 -0.5105,-2.52947 0.43189,-1.13594 1.66254,-1.45963 5.54944,-1.45963 h 3.44808 v -3.15019 -3.15019 l -3.78269,-0.091 c -4.34946,-0.10458 -5.06673,-0.36435 -5.36274,-1.9422 -0.20694,-1.10312 0.356,-2.14018 1.37128,-2.52619 0.36567,-0.13902 2.26444,-0.25277 4.2195,-0.25277 h 3.55465 v -3.2517 c 0,-4.89089 -0.93804,-7.75569 -3.46948,-10.5959 -7.3925,-8.29421 -21.37584,-4.66499 -23.66662,6.1424 -0.30755,1.45095 -0.37217,7.55843 -0.37597,35.53573 l -0.005,33.78365 -1.3995,1.60469 c -5.69895,6.53452 -6.78245,14.88976 -2.93109,22.60276 4.02268,8.0561 13.0965,12.5884 21.83596,10.9069 z m -5.73141,-5.45109 c -6.51019,-0.88716 -11.54121,-5.96438 -12.58662,-12.7022 -0.70471,-4.54201 1.43237,-10.04747 4.97884,-12.82629 l 1.35071,-1.05833 0.0197,-23.57838 c 0.0196,-23.43816 0.0229,-23.58252 0.56805,-24.27552 0.75523,-0.96012 2.52279,-0.99112 3.39791,-0.0596 0.58866,0.62661 0.59893,0.74904 0.59889,7.14375 l -4e-5,6.50622 h 5.15612 5.15612 l 0.7734,0.7734 0.7734,0.7734 v 16.18496 16.18497 l 1.94699,1.81827 c 3.08818,2.88402 4.65463,6.46494 4.66368,10.66118 0.0187,8.65209 -8.10105,15.63922 -16.79713,14.45418 z m 6.36819,-5.54165 c 5.03785,-2.48013 7.12891,-8.07757 4.89997,-13.11646 -0.78976,-1.78539 -1.77357,-2.92226 -3.55907,-4.11279 -0.89302,-0.59545 -1.76828,-1.34043 -1.94503,-1.65553 -0.24162,-0.43076 -0.32368,-4.42933 -0.33073,-16.11716 l -0.009,-15.54427 h -3.43958 -3.43959 v 15.4609 c 0,9.09625 -0.1032,15.73235 -0.2507,16.1203 -0.13789,0.36267 -0.97539,1.15152 -1.86112,1.75301 -1.98847,1.35034 -3.27883,3.05789 -3.97238,5.25668 -0.6712,2.12798 -0.6712,3.76941 0,5.89738 1.84632,5.8535 8.46588,8.73688 13.9076,6.05794 z" /><path
         id="path38"
         style="fill:#fdfdfd;fill-opacity:1;stroke:none;stroke-width:0.140008;stroke-linecap:round;stroke-linejoin:round;stroke-dasharray:none;stroke-opacity:1;paint-order:markers stroke fill"
         d="m -820.92872,-261.65172 c -6.10283,-0.0118 -12.10231,3.93878 -13.53405,10.6934 -0.30755,1.45095 -0.3719,7.558 -0.37568,35.5353 l -0.005,33.78399 -1.39938,1.60455 c -5.69897,6.53452 -6.78247,14.88975 -2.93111,22.60275 4.0227,8.0561 13.09642,12.58833 21.83588,10.90683 v 0 c 7.89503,-1.51904 14.2033,-7.42517 16.27393,-15.2368 0.62286,-2.34976 0.63043,-7.21051 0.0151,-9.525 -0.76619,-2.88126 -2.64526,-6.36267 -4.56044,-8.44961 l -1.7172,-1.8712 v -17.31006 -17.31005 l -3.99254,-0.0853 -3.992,-0.0853 -0.63821,-0.74208 c -0.3556,-0.41382 -0.63767,-1.08087 -0.63767,-1.50688 0,-0.42601 0.28207,-1.09256 0.63767,-1.50637 l 0.63821,-0.74259 3.992,-0.0853 3.99254,-0.0853 v -3.15588 -3.15588 h -3.85662 -3.85712 l -0.77309,-0.77308 c -0.81926,-0.81925 -0.93771,-1.40603 -0.51057,-2.52956 0.43191,-1.13594 1.66265,-1.45986 5.54953,-1.45986 h 3.44787 v -3.1502 -3.15019 l -3.78272,-0.0909 c -4.34946,-0.10458 -5.06646,-0.36415 -5.36247,-1.942 -0.20693,-1.10312 0.3557,-2.14045 1.37099,-2.52647 0.36565,-0.13902 2.2643,-0.25269 4.21936,-0.25269 h 3.55484 v -3.25148 c 0,-4.89089 -0.93813,-7.75605 -3.46956,-10.59626 -2.7722,-3.11033 -6.47102,-4.54352 -10.13272,-4.55062 z m -6.15569,34.49608 c 0.64569,-0.0113 1.30651,0.21379 1.74408,0.67955 0.58864,0.62661 0.59846,0.74904 0.5984,7.14375 v 6.50606 h 5.15628 5.15628 l 0.77306,0.7736 0.77362,0.77308 v 16.18506 16.18505 l 1.94715,1.8185 c 3.08819,2.88402 4.65423,6.4646 4.66328,10.66085 0.0188,8.65208 -8.10083,15.63945 -16.79689,14.45441 -6.51021,-0.88716 -11.54142,-5.96476 -12.58684,-12.70258 -0.70472,-4.54201 1.43256,-10.04727 4.97904,-12.82609 l 1.3508,-1.05834 0.0196,-23.5784 c 0.0196,-23.43816 0.0227,-23.58252 0.5679,-24.27552 0.37761,-0.48006 1.00849,-0.72765 1.65418,-0.73898 z" /></g></g></svg>
