<?xml version="1.0" encoding="utf-8"?>
<!-- Generator: Adobe Illustrator 24.3.0, SVG Export Plug-In . SVG Version: 6.00 Build 0)  -->
<svg version="1.1" id="Layer_1" xmlns="http://www.w3.org/2000/svg" xmlns:xlink="http://www.w3.org/1999/xlink" x="0px" y="0px"
	 viewBox="0 0 100 100" style="enable-background:new 0 0 100 100;" xml:space="preserve">
<style type="text/css">
	.st0{fill:#FBFBFB;}
	.st1{fill:#DADBDC;}
	.st2{fill:#FAD46E;}
	.st3{fill:#54C5F5;}
	.st4{fill:#FBC127;}
	.st5{fill:#010101;}
	.st6{fill:#25ABE9;}
	.st7{fill:#1FABE9;}
	.st8{fill:#020303;}
	.st9{fill:#FDFDFD;}
</style>
<path id="path196" class="st0" d="M94.5,46.5c0,0.2,0,0.4,0,0.7c0,0,0,0,0,0C94.5,46.9,94.5,46.7,94.5,46.5L94.5,46.5z"/>
<g>
	<path id="path158" class="st1" d="M85.6,38.8c-0.1,0.1-0.3,0.4-0.3,0.4l-0.4,0.8c-0.6,1.2-2.2,2.4-3.6,3.1c-1.6,0.8-2.4,1-4.4,1.1
		c-0.3,0-1.4,0-2.4,0c-1.5,0-3.1,0-4.6,0c-0.6,0-1.3,0-2.4,0c-2.1,0-5.2-0.1-9.6-0.1c-4,0-7.2,0-9.5-0.1c-1.1,0-2.1,0-2.7-0.1
		c-0.7,0-1.1,0-1.2-0.1c-1.9-0.3-3.6-1.6-5-2.9c-0.4-0.4-0.7-0.9-1-1.4c-0.2-0.2-0.3-0.7-0.4-0.9c0,0,0,0,0,0c0,0.3,0,0.6,0,0.8
		c0,0.2,0,0.4,0,0.6c0,0.1,0,0.2,0,0.3c0,0.3,0.1,0.6,0.1,0.8c0,0,0,0,0,0c0.1,0.4,0.2,0.7,0.3,1.1c0,0,0,0,0,0
		c0.1,0.3,0.3,0.7,0.5,1c0,0,0,0,0,0c0.2,0.3,0.4,0.6,0.6,0.9c0,0,0,0,0,0c0.2,0.3,0.5,0.6,0.7,0.8c0.3,0.3,0.5,0.5,0.8,0.7
		c0.3,0.2,0.6,0.4,0.9,0.6c0.3,0.2,0.6,0.4,1,0.5c0.3,0.1,0.7,0.3,1,0.4c0.2,0.1,0.4,0.1,0.8,0.1c0.4,0,0.9,0.1,1.7,0.1
		c1.6,0,4.4,0,9.4,0c4.4,0,8.1,0,9.8-0.1c0,0,0,0,0,0c0.7,0,1.2,0,1.2,0h0c0,0,0.5,0,1.2,0.1l5.8,0c2.8,0,5.4,0,7.5-1.2
		c1.6-1,2.8-2.5,3.5-4.3c0,0,0,0,0,0c0.1-0.1,0.1-0.3,0.2-0.5c0-0.1,0-0.1,0.1-0.2c0,0,0-0.1,0-0.1c0-0.2,0.1-0.4,0.1-0.6
		c0-0.2,0-0.3,0.1-0.5C85.6,39.8,85.7,39.3,85.6,38.8C85.6,38.8,85.6,38.8,85.6,38.8L85.6,38.8z M84.7,42.7
		C84.7,42.7,84.7,42.7,84.7,42.7C84.7,42.7,84.7,42.7,84.7,42.7L84.7,42.7z"/>
	<path id="path52" class="st2" d="M70.3,18.6c-0.8,0-1.6,0.1-2.4,0.4c-0.3,0.1-0.5,0.2-0.6,0.2c-0.1,0-0.2,0.1-0.2,0.1
		c0,0,0,0-0.1,0c0,0,0,0,0,0c0,0,0,0,0,0c0,0,0,0,0,0c0,0,0,0.1,0,0.1c0,0,0,0,0,0c0,0,0,0,0,0c0,0,0,0,0,0c0,0,0,0,0,0c0,0,0,0,0,0
		c0,0,0,0,0.1,0.1c0,0,0.1,0.1,0.2,0.1c0.2,0.1,0.4,0.3,0.6,0.4c0.4,0.3,0.6,0.4,0.8,0.5c0,0,0,0-0.1-0.1c0,0,0.1,0,0.1,0
		c0.3-0.1,0.4-0.1,0.7-0.1c0.3,0,0.6-0.1,0.9-0.1c0.1,0,0.2,0,0.3,0l0,0c1.8,0,3.8,0.7,5.3,1.9c1.1,0.8,2.6,3,2.7,3.8
		c0,0.2,0,0.2,0.1,0c0-0.1,0-0.2,0-0.4c0,0,0,0,0,0c0,0,0,0.1,0,0.1l0,0c0,0,0,0,0,0c0,0.1,0,0.1,0,0.2c0,0,0,0,0,0
		c0,0.1,0,0.1-0.1,0.2c0,0,0,0,0,0c0,0,0,0,0,0c0,0,0,0,0,0c0,0,0.1,0,0.1,0.1c0,0,0,0.1,0,0.1c0,0,0,0,0,0c0,0,0,0,0-0.1
		c0,0,0-0.1,0-0.1c0-0.2,0-0.3,0-0.5c0-0.2-0.1-0.5-0.2-0.8c-0.2-0.6-0.4-1.2-0.6-1.7c-0.7-1.4-2.4-3.1-3.8-3.8
		c-1-0.5-2.1-0.8-3.1-0.9C70.8,18.6,70.6,18.6,70.3,18.6L70.3,18.6z"/>
	<path id="path172" class="st3" d="M64.3,58c-2.3,0-3.4,0.4-4.8,1.7c-1.2,1.1-1.8,2.2-2,3.6c0,0,0-0.1,0-0.1c-0.1,0.6-0.2,1,0.1,0.7
		c1-1.6,1.6-2.1,2.4-2.7c1.2-0.8,2.6-1.2,4.1-1.2c1.4,0,2.9,0.3,4.3,1c1.2,0.6,3.2,2.8,3.5,3.8c0.3,1.1,0.5,1.1,0.3-0.1
		c0-0.2-0.1-0.5-0.2-0.7c0.1,0.1,0.1,0.2,0.2,0.3c-0.6-2.5-2.3-4.7-4.7-5.8C66.5,58.1,66.1,58,64.3,58L64.3,58z"/>
	<path id="path51" class="st3" d="M18.6,79.5c-1.2,0.2-2,1.5-2.1,3.1l0.1,0c0.2-0.3,20.7-0.5,27.2-0.3l4.3,0.2l1.6,0.8
		c2.2,1.1,4.5,3.5,4.6,4.9c0,0.2,0.1,0.3,0.1,0.2c0.1-0.3,0-1-0.3-1.8c0,0.1,0.1,0.1,0.1,0.2c0.1,0.1,0.1,0.2,0.1,0.3
		c0.1,0.5,0.2,1,0.3,1.5c0,0,0-0.1,0-0.1c0.1-0.2,0.1-0.5,0-0.8c0-0.3-0.1-0.6-0.2-1c-0.2-0.7-0.6-1.5-1-2.1c-1.4-2.1-3.4-3.6-6-4.3
		C46.3,80,43.9,80,32.6,80c-6.7,0-10.1,0-11.9-0.1c-0.9,0-1.4-0.1-1.6-0.1C18.8,79.7,18.8,79.7,18.6,79.5
		C18.6,79.6,18.6,79.6,18.6,79.5L18.6,79.5z"/>
	<path id="path50" class="st4" d="M70.3,20.5c-0.3,0-0.6,0-0.9,0.1c-0.3,0-0.5,0.1-0.7,0.1c-0.1,0-0.1,0-0.1,0
		c0.1,0.1,0.2,0.2,0.3,0.2c0.3,0.2,0.5,0.5,0.8,0.8c0,0,0.1,0.1,0.1,0.1c0.2,0.2,0.4,0.5,0.6,0.7c0.1,0.1,0.2,0.2,0.2,0.3
		c0.1,0.2,0.3,0.4,0.4,0.6c0.1,0.1,0.2,0.3,0.3,0.4c0,0,0,0,0,0c0.1,0.2,0.2,0.3,0.3,0.5c0.1,0.2,0.2,0.3,0.3,0.5
		c0.1,0.1,0.2,0.3,0.2,0.4c0.1,0.2,0.2,0.4,0.3,0.6c0,0,0,0,0,0l0,0c0,0,0,0,0,0.1c0,0,0,0,0,0.1c0,0,0,0,0,0c0,0,0,0,0,0
		c0,0,0,0.1,0,0.1c0.1,0.3,0.2,0.6,0.3,1c0.1,0.4,0.3,0.8,0.3,1c0,0,0,0,0,0c0,0,0,0.1,0.1,0.1c0,0,0.1,0,0.1,0c0,0,0,0,0,0
		c0.1,0,0.2,0,0.4,0c0,0,0,0,0,0c0.3,0,1-0.2,1.6-0.2c0,0,0,0,0,0c0,0,0,0,0,0c0.3,0,0.5-0.1,0.7-0.1c0,0,0,0,0,0c0.2,0,0.5,0,0.7,0
		c0,0,0,0,0,0c0.2,0,0.5,0,0.8,0.1c0.3,0,0.6,0.1,0.9,0.1c0,0,0,0,0,0l0.3,0.1c0.1,0,0.1,0,0.1-0.1l-0.1-1.2c0-0.1,0-0.3,0-0.4
		c0,0,0,0-0.1-0.1c0,0,0,0,0,0c0,0,0,0,0,0c0,0,0,0,0,0c0.1-0.1,0.1-0.1,0.1-0.2c0,0,0,0,0,0c0-0.1,0-0.1,0-0.2c0,0,0,0,0,0
		c0,0,0,0,0,0c0,0,0,0,0-0.1c0,0,0,0,0,0c0,0.2,0,0.4,0,0.4c-0.1,0.2-0.1,0.2-0.1,0c-0.1-0.8-1.6-3-2.7-3.8
		c-1.5-1.1-3.5-1.8-5.3-1.9l0,0C70.5,20.5,70.4,20.5,70.3,20.5L70.3,20.5z M72.5,21.2C72.5,21.2,72.5,21.2,72.5,21.2
		C72.5,21.2,72.6,21.2,72.5,21.2C72.6,21.2,72.6,21.2,72.5,21.2L72.5,21.2C72.5,21.3,72.5,21.2,72.5,21.2L72.5,21.2z"/>
	<path id="path66" class="st5" d="M63.8,54.7c-2.8,0.1-4.9,0.9-7,2.9c-0.7,0.7-1.4,1.5-1.6,1.9c-0.9,1.5-1.1,2.2-1.2,3.4
		c-0.1,0.7-0.1,1.2,0,1.9c0.1,0.9,0.3,2,0.6,2.5l0.4,1H42.4H29.7l-0.5,0.5c-0.7,0.7-0.7,1.5,0.1,2.2l0.6,0.6l16.2-0.1l16.2-0.1
		l1-0.5c2.1-1.1,3.5-3.1,3.5-5.3c0-1.5-0.4-2.1-1.6-2.1c-1,0-1.6,0.6-1.6,1.6c0,1.1-0.5,2.1-1.5,2.6c-1.6,0.9-3.5,0.3-4.4-1.4
		c-0.4-0.8-0.5-1.2-0.4-2.5c0.1-1.8,0.7-2.9,2.1-4.2c1.4-1.3,2.5-1.7,4.8-1.7c1.7,0,2.2,0.1,3.2,0.6c3.7,1.7,5.7,5.9,4.8,10.1
		c-0.8,3.9-4.5,7.3-8.6,8c-0.9,0.1-9.5,0.2-23,0.2l-21.7,0l-0.5,0.5c-0.6,0.6-0.7,1.4-0.1,2.1l0.4,0.6l13.1,0
		c8.1,0,13.6,0.1,14.5,0.2c6.7,1.1,10.4,8.2,6.8,13.4c-1.4,2-3.4,3.1-5.7,3.1c-3.9,0-6.7-3.3-5.5-6.4c0.4-1.1,1.3-1.7,2.4-1.7
		c1.1,0,2.1,0.8,2.1,1.7c0,0.3,0.2,0.8,0.4,1.1c0.5,0.7,1.4,0.7,2.2,0.1c0.5-0.4,0.6-0.6,0.6-1.5c0-2-1-3.4-2.8-4.3l-1.1-0.5
		l-13.6,0c-12.3,0-13.6,0-14,0.3c-0.5,0.5-0.5,1.8,0,2.4c0.4,0.4,0.7,0.4,10.6,0.4c5.7,0,10.2,0.1,10.2,0.2c0,0.1-0.1,0.5-0.3,0.9
		c-0.5,1.1-0.4,3.5,0.1,4.9c0.9,2.4,3,4.3,5.5,5.2v0c1,0.3,1.7,0.4,3.4,0.3c1.9-0.1,2.2-0.1,3.9-1c3.9-1.9,6-5.4,6-9.8
		c0-3-0.9-5.4-3-7.9L53.8,80h4.9c3.7,0,5.2-0.1,6.4-0.3c7.5-1.6,11.6-8.4,10.4-15.7c-0.3-1.9-1.4-4.1-2.6-5.5
		c-1.1-1.3-2.9-2.5-4.6-3.1c-1-0.4-2.1-0.6-3.2-0.7C64.6,54.6,64.2,54.6,63.8,54.7L63.8,54.7z M21,68.2c-3.7,0-3.8,0-4.3,0.5
		c-0.8,0.8-0.6,2,0.4,2.6c0.6,0.3,6.6,0.3,7.5,0c0.8-0.3,1.3-1.1,1.1-1.9C25.4,68.3,25.1,68.2,21,68.2L21,68.2z"/>
	<path id="path42" class="st5" d="M70.8,10.2c-1,0-1.2,0.5-1.2,2.4c0,1.5,0.2,2.1,0.6,2.3c0.5,0.2,0.9,0.2,1.3-0.2
		c0.3-0.3,0.3-0.4,0.3-2.1c0-1.5,0-1.8-0.3-2.1C71.3,10.3,71.1,10.2,70.8,10.2L70.8,10.2z M59.7,14.7c-0.5-0.1-0.9,0.3-1.1,0.9
		c-0.1,0.4,0,0.5,0.6,1.2c0.5,0.5,0.7,0.8,0.5,0.8c-0.1,0-0.7,0.1-1.4,0.1c-4.4,0.3-8.7,3.2-10.8,7.4c-0.5,1.1-1.1,2.8-1.1,3.3
		c0,0.3-0.3,0.4-1,0.4c-0.3,0-1,0.1-1.6,0.3c-3.8,1-6.8,3.9-7.7,7.8c-0.2,1-0.3,1.4-0.2,2.8c0.1,2,0.3,2.9,1.2,4.6
		c0.5,1.1,0.8,1.5,1.9,2.6c1.1,1.1,1.5,1.4,2.6,1.9c2.5,1.2,2.1,1.2,14,1.2h9.5l10.5,0c2.6,0,5,0,7.9-2.2c1.1-0.9,2.1-1.9,2.7-3
		c3.3-5.5,1.1-12.6-4.7-15.6L81,28.8l0.1-0.9c0.1-1.2-0.2-3.2-0.8-4.6c-1.4-3.4-4.4-5.9-8.1-6.5c-2.2-0.4-4.3-0.1-6.5,1l-1.3,0.6
		l-0.9-0.2c-0.8-0.2-0.9-0.3-0.9-0.6c0-0.4-1.7-2.3-2.4-2.7C60.1,14.7,59.9,14.7,59.7,14.7L59.7,14.7z M81.7,15
		c-0.4,0-0.8,0.4-1.7,1.3c-1.1,1.1-1.3,1.4-1.3,1.7c0,0.3,0.1,0.6,0.3,0.7c0.2,0.2,0.5,0.3,0.8,0.3c0.5,0,0.6-0.1,1.7-1.2
		c1.1-1.1,1.2-1.3,1.2-1.7c0-0.4-0.1-0.6-0.4-0.8C82.1,15.1,81.9,15,81.7,15L81.7,15z M70.5,18.8c0.7,0,1.5,0.1,2,0.2
		c3.5,0.9,6.1,4.1,6.3,7.8l0.1,1.3L78.4,28c-1.2-0.2-2.1-0.2-3.1-0.1c-0.6,0.1-1.3,0.2-1.6,0.2c-0.4,0.1-0.5,0-0.6-0.1
		c0-0.1-0.2-0.5-0.3-1c-0.9-2.7-2.9-5.5-5.1-7l-0.8-0.5l0.3-0.2C67.9,19,69.2,18.8,70.5,18.8L70.5,18.8z M59.5,19.8
		c5.3-0.2,10.3,3.6,11.5,8.9c0.4,1.7,0.5,1.9,0.9,2c0.3,0.1,0.6,0.1,1.4-0.1c2.8-0.8,5-0.7,7.4,0.5c2.4,1.2,4.1,3.4,4.8,6
		c0.4,1.4,0.2,3.7-0.3,5c-0.7,1.8-1.9,3.4-3.5,4.3c-2.2,1.2-4.7,1.3-7.5,1.2l-8.2-0.1c-1.8,0-5.5,0.1-9.8,0.1c-10,0-11.1,0-11.8-0.2
		c-2.8-0.8-5.1-3.2-5.8-6.1c-0.3-1.1-0.3-3.1,0-4.2c0.9-3.7,4.5-6.3,8.4-6.3c1.2,0,1.6-0.3,1.7-1.2c0.7-5.2,4.6-9.1,9.9-9.8
		C58.8,19.8,59.1,19.8,59.5,19.8z M85.1,26.1c-1.8,0-2,0-2.2,0.3c-0.3,0.3-0.4,1.2,0,1.6c0.2,0.2,0.5,0.3,2.3,0.3
		c2.1,0,2.1,0,2.3-0.4c0.4-0.5,0.4-1-0.1-1.4C87.1,26.2,87,26.1,85.1,26.1L85.1,26.1z"/>
	<path id="path174" class="st6" d="M32.4,82.2c-7.4,0-15.1,0.1-15.9,0.1c0,0.2,0,0.3,0,0.5c0,1.4,0.7,2.6,1.7,3.1
		c0-0.1,0.1-0.1,0.1-0.2c0.4-0.3,1.6-0.3,14-0.3l13.6,0l1.1,0.5c1.9,0.9,2.8,2.4,2.8,4.3c0,0.9-0.1,1.1-0.6,1.5
		c-0.8,0.6-1.6,0.6-2.2-0.1c-0.2-0.3-0.4-0.8-0.4-1.1c0-0.9-1.1-1.7-2.1-1.7c-1.1,0-1.9,0.6-2.4,1.7c-1.3,3.1,1.5,6.4,5.5,6.4
		c2.3,0,4.3-1.1,5.7-3.1c0.4-0.6,0.7-1.3,1-2c-0.1,0-0.1,0,0,0c0,0,0,0,0,0c0.5-1.6,0.5-3.2,0-4.7c0-0.1-0.1-0.2-0.1-0.3
		c0-0.1-0.1-0.1-0.1-0.2c0.3,0.8,0.5,1.5,0.3,1.8c-0.1,0.2-0.1,0.1-0.1-0.2c-0.1-1.4-2.4-3.8-4.6-4.9l-1.6-0.8l-4.3-0.2
		C41.4,82.2,37,82.2,32.4,82.2L32.4,82.2z"/>
	<path id="path173" class="st6" d="M64.2,60L64.2,60c-1.4,0-2.9,0.5-4.1,1.2c-0.9,0.6-1.4,1.1-2.4,2.7c-0.2,0.4-0.2-0.1-0.1-0.7
		c0,0,0,0.1,0,0.1c0,0.2-0.1,0.3-0.1,0.5c-0.1,1.3,0,1.6,0.4,2.5c0.9,1.7,2.8,2.3,4.4,1.4c0.9-0.5,1.5-1.5,1.5-2.6
		c0-1,0.6-1.6,1.6-1.6c1.1,0,1.6,0.6,1.6,2.1c0,2.2-1.4,4.3-3.5,5.3l-1,0.5l-16.2,0.1l-16.2,0.1L29.3,71c-0.4-0.4-0.6-0.8-0.6-1.3
		l-3,0c0.1,0.7-0.4,1.4-1.1,1.6c-0.5,0.2-2.8,0.2-4.7,0.2c-0.1,0.1-0.2,0.1-0.2,0.2C19.2,72.4,19,73.2,19,74c0,0.8,0.2,1.7,0.7,2.4
		l0.4,0.5l20.6,0c13.5,0,22.2-0.1,23-0.2c4.1-0.6,7.8-4,8.6-8c0.3-1.5,0.3-2.9-0.1-4.3c-0.1-0.1-0.1-0.2-0.2-0.3
		c0.1,0.2,0.1,0.5,0.2,0.7c0.2,1.1,0,1.2-0.3,0.1c-0.3-1-2.3-3.2-3.5-3.8C67.1,60.3,65.6,60,64.2,60L64.2,60z"/>
	<path id="path195" class="st0" d="M59.5,19.8c-0.4,0-0.7,0-1.1,0.1c-5.2,0.7-9.2,4.6-9.9,9.8c-0.1,0.9-0.5,1.2-1.7,1.2
		c-4,0-7.5,2.7-8.4,6.3c-0.1,0.4-0.2,1-0.2,1.7v0c0.1,0.1,0.1,0.2,0.2,0.4c0.1,0.2,0.1,0.4,0.2,0.5c0.3,0.5,0.6,1,1,1.4
		c0.4,0.3,0.7,0.6,1.1,1c0.2,0.2,0.4,0.3,0.6,0.5c1,0.7,2.1,1.3,3.3,1.5c0.1,0,0.5,0,1.2,0.1c0.7,0,1.6,0,2.7,0.1
		c2.3,0,5.5,0.1,9.5,0.1c4.4,0,7.5,0,9.6,0.1c0.3,0,1.8,0,2.9,0c1.4,0,2.7,0,4.1,0c1,0,2.1,0,2.4,0c1.2-0.1,2-0.2,2.8-0.4
		c0.2-0.1,0.3-0.1,0.5-0.2c0.3-0.1,0.7-0.3,1.1-0.5c0.3-0.2,0.7-0.4,1-0.6c0.3-0.2,0.7-0.5,1-0.7c0,0,0,0,0,0
		c0.3-0.3,0.6-0.6,0.9-0.8c0,0,0,0,0,0c0.3-0.3,0.5-0.6,0.6-0.9l0.4-0.8c0,0,0.1-0.1,0.1-0.2c0.1-0.1,0.1-0.2,0.2-0.2c0,0,0,0,0,0
		c0-0.6-0.1-1.2-0.2-1.7c-0.7-2.6-2.4-4.8-4.8-6c-2.4-1.2-4.6-1.3-7.4-0.5c-0.8,0.2-1.1,0.3-1.4,0.1c-0.4-0.2-0.5-0.4-0.9-2
		C69.7,23.4,64.8,19.6,59.5,19.8L59.5,19.8z"/>
	<path id="path16" class="st7" d="M23.6,57.3c-1.6-0.5-2.9-1.8-3.4-3.5c-0.4-1.1-0.4-2,0-3.1c0.4-1.2,1-2.1,2.1-2.8
		c0.5-0.3,0.9-0.7,1-0.9c0.1-0.2,0.1-3.7,0.1-8.5v-8.1h1.8H27l0,8.2c0,6.1,0,8.2,0.2,8.5c0.1,0.2,0.6,0.6,1,0.9
		c1.3,0.9,2,1.9,2.3,3.5c0.3,1.5-0.3,3.3-1.5,4.4C27.6,57.4,25.4,58,23.6,57.3L23.6,57.3z"/>
	<path id="path21" class="st8" d="M22.7,65.2c-5.1-1.1-8.9-4.7-10.2-9.7c-0.3-1.1-0.4-1.7-0.4-3c0-3.1,0.8-5.6,2.7-8l0.8-1.1V25.7
		c0-12.6,0-17.8,0.2-18.3c0.1-0.4,0.4-1.2,0.7-1.8c1.9-4.2,6.3-6.3,10.8-5.4c2.8,0.6,5.3,2.5,6.6,5.1c1,2,1,0.9,1,20.4l0,17.6
		l0.9,1.1c1,1.3,1.9,2.9,2.3,4.5c0.3,1,0.3,1.4,0.3,3.4c0,2.1,0,2.4-0.4,3.5c-0.7,2.4-1.8,4.2-3.7,5.9c-1.9,1.8-4.3,3-6.8,3.5
		C26.2,65.5,23.8,65.4,22.7,65.2L22.7,65.2z M27.2,62.8c4.1-0.8,7.5-3.9,8.5-8c0.3-1.2,0.3-3.8,0-5c-0.4-1.5-1.4-3.3-2.4-4.4l-0.9-1
		v-9.1v-9.1l-2.1,0l-2.1,0l-0.3-0.4c-0.2-0.2-0.3-0.6-0.3-0.8c0-0.2,0.1-0.6,0.3-0.8l0.3-0.4l2.1,0l2.1,0v-1.7v-1.7h-2h-2L28,20
		c-0.4-0.4-0.5-0.7-0.3-1.3c0.2-0.6,0.9-0.8,2.9-0.8h1.8v-1.7v-1.7l-2,0c-2.3-0.1-2.7-0.2-2.8-1c-0.1-0.6,0.2-1.1,0.7-1.3
		c0.2-0.1,1.2-0.1,2.2-0.1h1.9v-1.7c0-2.6-0.5-4.1-1.8-5.6C26.7,0.5,19.4,2.4,18.2,8C18,8.8,18,12,18,26.7l0,17.7l-0.7,0.8
		c-3,3.4-3.6,7.8-1.5,11.9C17.8,61.3,22.6,63.7,27.2,62.8L27.2,62.8z M24.2,60c-3.4-0.5-6.1-3.1-6.6-6.7c-0.4-2.4,0.8-5.3,2.6-6.7
		l0.7-0.6l0-12.4c0-12.3,0-12.4,0.3-12.7c0.4-0.5,1.3-0.5,1.8,0c0.3,0.3,0.3,0.4,0.3,3.7l0,3.4H26h2.7l0.4,0.4l0.4,0.4v8.5v8.5l1,1
		c1.6,1.5,2.4,3.4,2.4,5.6C33,56.9,28.7,60.6,24.2,60L24.2,60z M27.5,57.1c2.6-1.3,3.7-4.2,2.6-6.9c-0.4-0.9-0.9-1.5-1.9-2.2
		c-0.5-0.3-0.9-0.7-1-0.9c-0.1-0.2-0.2-2.3-0.2-8.5l0-8.2h-1.8h-1.8v8.1c0,4.8-0.1,8.3-0.1,8.5c-0.1,0.2-0.5,0.6-1,0.9
		c-1,0.7-1.7,1.6-2.1,2.8c-0.4,1.1-0.4,2,0,3.1C21.2,57,24.7,58.5,27.5,57.1L27.5,57.1z"/>
	<path id="path38" class="st9" d="M25.3,2.4c-3.2,0-6.4,2.1-7.1,5.6C18,8.8,18,12,18,26.7l0,17.7l-0.7,0.8c-3,3.4-3.6,7.8-1.5,11.9
		c2.1,4.2,6.9,6.6,11.5,5.7l0,0c4.1-0.8,7.5-3.9,8.5-8c0.3-1.2,0.3-3.8,0-5c-0.4-1.5-1.4-3.3-2.4-4.4l-0.9-1v-9.1v-9.1l-2.1,0
		l-2.1,0l-0.3-0.4c-0.2-0.2-0.3-0.6-0.3-0.8c0-0.2,0.1-0.6,0.3-0.8l0.3-0.4l2.1,0l2.1,0v-1.7v-1.7h-2h-2L28,20
		c-0.4-0.4-0.5-0.7-0.3-1.3c0.2-0.6,0.9-0.8,2.9-0.8h1.8v-1.7v-1.7l-2,0c-2.3-0.1-2.7-0.2-2.8-1c-0.1-0.6,0.2-1.1,0.7-1.3
		c0.2-0.1,1.2-0.1,2.2-0.1h1.9v-1.7c0-2.6-0.5-4.1-1.8-5.6C29.2,3.2,27.2,2.4,25.3,2.4L25.3,2.4z M22.1,20.5c0.3,0,0.7,0.1,0.9,0.4
		c0.3,0.3,0.3,0.4,0.3,3.7V28H26h2.7l0.4,0.4l0.4,0.4v8.5v8.5l1,1c1.6,1.5,2.4,3.4,2.4,5.6c0,4.5-4.3,8.2-8.8,7.6
		c-3.4-0.5-6.1-3.1-6.6-6.7c-0.4-2.4,0.8-5.3,2.6-6.7l0.7-0.6l0-12.4c0-12.3,0-12.4,0.3-12.7C21.4,20.7,21.7,20.5,22.1,20.5
		L22.1,20.5z"/>
</g>
</svg>
