<?xml version="1.0" encoding="UTF-8" standalone="no"?>
<!-- Created with Inkscape (http://www.inkscape.org/) -->

<svg
   width="270.93326mm"
   height="270.93332mm"
   viewBox="0 0 270.93326 270.93332"
   version="1.1"
   id="svg1"
   xml:space="preserve"
   xmlns="http://www.w3.org/2000/svg"
   xmlns:svg="http://www.w3.org/2000/svg"><defs
     id="defs1" /><g
     id="layer1"
     transform="translate(921.62638,305.95957)"><g
       id="g198"><path
         style="fill:none"
         d="m -921.62646,-170.4929 v -135.46666 h 135.46665 135.46666 v 135.46666 135.466655 h -135.46666 -135.46665 z"
         id="path55" /><path
         style="fill:#dadbdc"
         d="m -846.09983,-207.2701 c 0,-5.74807 0.0349,-8.09955 0.0777,-5.22552 0.0427,2.87404 0.0427,7.57701 0,10.45105 -0.0427,2.87403 -0.0777,0.52255 -0.0777,-5.22553 z"
         id="path166" /><path
         style="fill:#dadbdc"
         d="m -824.98746,-196.88296 c 0.98227,-0.0509 2.58961,-0.0509 3.57188,0 0.98226,0.0509 0.17859,0.0926 -1.78594,0.0926 -1.96453,0 -2.7682,-0.0417 -1.78594,-0.0926 z"
         id="path165" /><path
         style="fill:#dadbdc"
         d="m -846.16869,-196.0253 c 0.005,-0.43657 0.0647,-0.58313 0.13177,-0.3257 0.0671,0.25743 0.0627,0.61462 -0.01,0.79375 -0.0725,0.17913 -0.12736,-0.0315 -0.12197,-0.46805 z"
         id="path164" /><path
         style="fill:#dadbdc"
         d="m -822.0734,-190.79121 c 0.40218,-0.0608 0.99749,-0.0592 1.32291,0.004 0.32542,0.0628 -0.004,0.11256 -0.73124,0.11057 -0.7276,-0.002 -0.99386,-0.0534 -0.59167,-0.11419 z"
         id="path163" /><path
         style="fill:#dadbdc"
         d="m -824.32291,-190.78821 c 0.32911,-0.0633 0.80536,-0.0609 1.05833,0.005 0.25296,0.0662 -0.0163,0.11801 -0.5984,0.11507 -0.58208,-0.003 -0.78905,-0.0571 -0.45993,-0.12041 z"
         id="path162" /><path
         id="path158"
         style="fill:#dadbdc"
         d="m -718.45744,-179.94974 c -0.18396,0.12319 -0.54151,0.6898 -0.61495,0.82579 l -0.84594,1.57458 c -1.22765,2.28578 -4.27011,4.6334 -6.77116,5.85804 -2.97035,1.45443 -4.5887,1.84478 -8.37107,2.01331 -0.90431,0.0403 -1.72485,0.10113 -2.33577,0.17002 -0.30546,0.0344 -0.55529,0.0701 -0.7581,0.11162 -0.1014,0.0208 -0.18672,0.0396 -0.29455,0.0801 -0.0539,0.0202 -0.11368,0.0412 -0.20929,0.10904 -0.0517,0.0367 -0.13703,0.1066 -0.20619,0.216 0.40354,0.11172 0.80884,0.20612 1.20819,0.35554 2.08343,0.77951 4.37623,2.34268 5.76658,3.93206 l 1.20612,1.37924 1.47072,-0.55035 c 0.56641,-0.21193 1.11918,-0.45909 1.65829,-0.73432 -0.002,-0.004 8e-5,-0.009 -0.002,-0.0124 0.002,0.005 0.002,0.007 0.004,0.0119 3.64399,-1.86082 6.61002,-5.1104 8.14473,-9.00772 0.67356,-1.71047 0.98333,-4.10467 0.95084,-6.33243 z m -90.40482,0.0331 c -0.0586,1.74516 0.0427,3.59934 0.34882,4.80436 1.3976,5.49809 5.71505,9.98065 11.10837,11.53315 1.4415,0.41494 3.51601,0.45882 22.55573,0.47594 11.53253,0.0104 20.96822,-0.0833 20.96822,-0.20774 h 5.2e-4 c 0,-0.12447 0.70844,-0.99987 1.57458,-1.9451 1.66587,-1.81801 3.75267,-3.0504 6.01255,-3.7114 -0.0648,-0.15387 -0.15062,-0.21316 -0.21652,-0.27906 -0.19344,-0.19345 -0.27121,-0.17394 -0.3359,-0.19327 -0.0647,-0.0193 -0.11257,-0.0285 -0.16381,-0.0372 -0.10246,-0.0175 -0.21139,-0.0289 -0.34778,-0.0408 -0.2728,-0.0239 -0.64552,-0.045 -1.13843,-0.0646 -0.98584,-0.0392 -2.44429,-0.0724 -4.41421,-0.10129 -3.93983,-0.0577 -9.92828,-0.0976 -18.24436,-0.12144 -7.52834,-0.0216 -13.6512,-0.0634 -18.02526,-0.12299 -2.18702,-0.0298 -3.93675,-0.064 -5.2033,-0.10128 -1.26655,-0.0373 -2.1211,-0.0932 -2.24792,-0.11369 -3.62987,-0.5864 -6.8366,-3.06515 -9.56634,-5.54075 -0.78555,-0.71243 -1.28502,-1.69068 -1.85519,-2.58486 -0.29401,-0.4611 -0.55104,-1.41062 -0.80977,-1.64796 z m 88.68865,7.43211 c 0.001,0.001 0.007,0.003 0.008,0.004 -0.002,-0.002 -0.006,-5e-5 -0.008,-0.002 z" /><path
         style="fill:#dadbdc"
         d="m -763.86871,-163.27885 c 0.69122,-0.0545 1.82232,-0.0545 2.51354,0 0.69122,0.0545 0.12568,0.0991 -1.25677,0.0991 -1.38245,0 -1.94799,-0.0446 -1.25677,-0.0991 z"
         id="path156" /><path
         style="fill:#dadbdc"
         d="m -774.18746,-163.28085 c 0.98227,-0.0509 2.58961,-0.0509 3.57187,0 0.98227,0.0509 0.1786,0.0926 -1.78593,0.0926 -1.96453,0 -2.76821,-0.0417 -1.78594,-0.0926 z"
         id="path155" /><path
         style="fill:#dadbdc"
         d="m -794.56038,-163.26705 c 0.25467,-0.0666 0.67138,-0.0666 0.92605,0 0.25466,0.0666 0.0463,0.121 -0.46302,0.121 -0.50933,0 -0.71769,-0.0544 -0.46303,-0.121 z"
         id="path154" /><path
         style="fill:#dadbdc"
         d="m -845.75791,-179.17449 c -0.0444,-2.13744 -0.0807,-0.31438 -0.0805,4.05125 1.2e-4,4.36562 0.0365,6.11444 0.0808,3.88625 0.0443,-2.22819 0.0442,-5.80006 -2.2e-4,-7.9375 z"
         id="path153" /><path
         style="fill:#dadbdc"
         d="m -845.76851,-163.67693 c -0.0633,-0.32912 -0.11747,-0.12215 -0.1204,0.45994 -0.003,0.58208 0.0488,0.85136 0.11506,0.59839 0.0662,-0.25296 0.0686,-0.72921 0.005,-1.05833 z"
         id="path152" /><path
         style="fill:#dadbdc"
         d="m -818.8192,-123.19877 0.7771,-0.85989 -0.85989,0.7771 c -0.80154,0.72438 -0.98151,0.94269 -0.77711,0.94269 0.0455,0 0.43249,-0.38695 0.8599,-0.8599 z"
         id="path151" /><path
         style="fill:#dadbdc"
         d="m -825.61647,-182.06855 c -0.32911,-0.41965 -0.31975,-0.42901 0.0999,-0.0999 0.44073,0.34564 0.58088,0.56292 0.36312,0.56292 -0.0549,0 -0.2633,-0.20836 -0.46302,-0.46302 z"
         id="path150" /><path
         style="fill:#dadbdc"
         d="m -847.52225,-136.78071 c 0.0127,-0.30822 0.0754,-0.37092 0.15986,-0.15985 0.0764,0.19099 0.067,0.4192 -0.0209,0.50712 -0.0879,0.0879 -0.15046,-0.0684 -0.13897,-0.34727 z"
         id="path149" /><path
         style="fill:#dadbdc"
         d="m -822.8046,-126.5722 c 0.26339,-0.29104 0.53843,-0.52917 0.61119,-0.52917 0.0728,0 -0.0832,0.23813 -0.3466,0.52917 -0.26339,0.29104 -0.53842,0.52916 -0.61118,0.52916 -0.0728,0 0.0832,-0.23812 0.34659,-0.52916 z"
         id="path148" /><path
         style="fill:#dadbdc"
         d="m -830.80357,-122.2895 c -0.19137,-0.12156 0.0819,-0.21046 0.66146,-0.2152 1.73038,-0.0142 2.46393,-0.19104 2.32236,-0.55995 -0.10076,-0.26257 -0.0126,-0.28074 0.36956,-0.0762 0.27602,0.14773 0.54124,0.17038 0.58936,0.0503 0.0481,-0.12004 0.74233,-0.63669 1.54269,-1.14811 2.08112,-1.32978 4.2907,-3.38996 4.11813,-3.83967 -0.0788,-0.20541 -0.0308,-0.30396 0.10661,-0.21901 0.34783,0.21497 1.15676,-1.09048 0.91656,-1.47914 -0.13296,-0.21514 -0.0833,-0.24746 0.15445,-0.10052 0.25657,0.15857 0.30377,0.095 0.17621,-0.23745 -0.0958,-0.24971 -0.0681,-0.38844 0.0616,-0.3083 0.29717,0.18367 0.86969,-1.4056 0.64015,-1.77701 -0.10591,-0.17136 -0.0391,-0.19418 0.17714,-0.0605 0.25859,0.15981 0.30908,0.069 0.19794,-0.356 -0.0821,-0.31379 -0.0274,-0.57054 0.12146,-0.57054 0.14886,0 0.21445,-0.29405 0.14574,-0.65345 -0.0687,-0.3594 -0.0394,-0.60059 0.0651,-0.53599 0.28077,0.17352 0.52582,-2.71595 0.34328,-4.04772 -0.11062,-0.80703 -0.2306,-1.04673 -0.40113,-0.8014 -0.16119,0.23189 -0.18273,0.13632 -0.0638,-0.28316 0.21586,-0.76158 -0.37828,-2.72457 -0.75432,-2.49217 -0.1463,0.0904 -0.18585,0.0347 -0.0879,-0.1238 0.2485,-0.40206 -0.91662,-2.71554 -1.26721,-2.51621 -0.1564,0.0889 -0.19924,0.0674 -0.0952,-0.0478 0.27965,-0.30978 -0.29912,-1.24327 -0.64016,-1.03249 -0.17087,0.1056 -0.21768,0.06 -0.11274,-0.10978 0.18367,-0.29718 -1.54347,-2.21989 -1.89024,-2.1043 -0.1055,0.0352 -0.23172,-0.0551 -0.28047,-0.20064 -0.0488,-0.14552 -0.21711,-0.41938 -0.37413,-0.60858 -0.19657,-0.23684 -0.29456,-5.30529 -0.3146,-16.27187 -0.0213,-11.63416 -0.11265,-16.0764 -0.33902,-16.47881 -0.67962,-1.20812 -0.91717,-1.25783 -5.70927,-1.19468 -2.50328,0.033 -4.75978,-0.02 -5.01444,-0.1177 -0.42237,-0.16208 -0.46302,-0.71102 -0.46302,-6.25219 0,-5.8452 -0.17579,-7.34767 -0.81358,-6.9535 -0.14182,0.0876 -0.22515,0.002 -0.18516,-0.19103 0.0402,-0.19379 -0.13296,-0.33418 -0.38747,-0.31412 -0.2531,0.0199 -0.40437,-0.054 -0.33617,-0.16438 0.0682,-0.11036 -0.34979,-0.18823 -0.92889,-0.17304 -0.57909,0.0152 -1.0529,0.12595 -1.0529,0.24614 0,0.12019 -0.10952,0.15084 -0.24339,0.0681 -0.13387,-0.0827 -0.49233,0.16604 -0.79657,0.55282 -0.55291,0.7029 -0.55315,0.7148 -0.48421,24.05437 0.0379,12.84312 -0.006,23.3049 -0.0972,23.24842 -0.25978,-0.1606 -2.6077,2.00364 -2.54006,2.34134 0.0332,0.16573 -0.0587,0.30856 -0.20423,0.3174 -0.52671,0.032 -0.95903,0.46643 -0.82131,0.82531 0.0774,0.20182 -0.004,0.3386 -0.1804,0.30397 -0.17666,-0.0346 -0.30488,0.1441 -0.28493,0.3972 0.0199,0.2531 -0.0658,0.39712 -0.19043,0.32006 -0.29673,-0.18339 -1.08441,1.70628 -0.86154,2.06688 0.0943,0.15255 0.0466,0.20025 -0.10583,0.10601 -0.32881,-0.20321 -0.69626,1.0399 -0.43319,1.46555 0.11684,0.18905 0.0591,0.21777 -0.16256,0.0808 -0.25873,-0.15991 -0.31105,-0.041 -0.21139,0.48028 0.0728,0.38103 0.0468,0.63985 -0.0579,0.57516 -0.29871,-0.18461 -0.53416,2.49334 -0.354,4.02628 0.0896,0.76238 0.24873,1.33312 0.35361,1.2683 0.10488,-0.0648 0.13109,0.19389 0.0583,0.57492 -0.0997,0.52132 -0.0473,0.64018 0.21139,0.48028 0.22162,-0.13697 0.2794,-0.10825 0.16256,0.0808 -0.26307,0.42565 0.10438,1.66876 0.43319,1.46555 0.16925,-0.1046 0.19763,-0.0425 0.0729,0.15935 -0.23885,0.38646 0.362,1.64995 0.68863,1.44808 0.12193,-0.0754 0.14328,0.0673 0.0475,0.31702 -0.10964,0.28571 -0.0705,0.38994 0.10545,0.28117 0.15904,-0.0983 0.26402,0.0256 0.2434,0.28733 -0.0223,0.28217 0.11724,0.42606 0.3606,0.37198 0.21828,-0.0485 0.31176,-0.003 0.20774,0.10093 -0.28592,0.28593 0.30458,1.21953 0.64016,1.01213 0.16071,-0.0993 0.2192,-0.0625 0.12998,0.0819 -0.32179,0.52067 3.53417,3.70948 4.07865,3.37297 0.21493,-0.13284 0.24721,-0.0831 0.10032,0.15457 -0.15857,0.25657 -0.095,0.30377 0.23744,0.17621 0.24972,-0.0958 0.38739,-0.0664 0.30594,0.0654 -0.18319,0.29641 2.3868,1.17958 2.76049,0.94863 0.14879,-0.092 0.27053,-0.0262 0.27053,0.14608 0,0.2081 0.27088,0.25909 0.8069,0.15189 0.50044,-0.10009 0.74573,-0.0624 0.64584,0.0992 -0.10086,0.16321 0.66056,0.25909 2.03737,0.25655 1.20914,-0.002 2.0517,-0.0973 1.87237,-0.21116 z"
         id="path147" /><path
         id="path146"
         style="fill:#dadbdc"
         d="m -832.72643,-226.48831 v 0.001 c -1.20733,0 -2.78532,0.17155 -3.79719,0.43511 -3.92234,1.02164 -7.72729,3.02015 -9.31416,6.2046 l -0.25114,0.50333 -0.0698,33.60156 -0.0687,32.84968 c -0.0246,0.004 -0.0402,0.003 -0.0579,0.008 -0.0805,0.0236 -0.15058,0.056 -0.20878,0.0899 -0.11647,0.0678 -0.18581,0.13874 -0.23461,0.19534 -0.0975,0.11317 -0.12166,0.17912 -0.14056,0.22272 -0.0137,0.0311 -0.006,0.0203 -0.0114,0.0351 0.1449,-0.2192 0.3662,-0.45654 0.65319,-0.54105 l -0.003,1.23507 -1.3839,1.53376 c -4.95815,5.49379 -6.45509,12.90392 -4.13359,19.67011 0.22388,0.038 0.44024,0.0651 0.5581,-0.008 -0.0721,0.0445 -0.25781,0.13872 -0.524,0.10594 0.2414,0.69186 0.50935,1.37882 0.83148,2.05414 1.57047,3.29236 4.04897,6.07203 7.06313,8.05067 0.0195,-0.0523 0.0339,-0.10386 0.0667,-0.15762 -0.0218,0.0355 -0.0311,0.11306 -0.0475,0.17157 1.85667,1.21568 3.91458,2.12977 6.09369,2.66495 2.5098,0.6164 6.76295,0.65571 9.29297,0.0858 1.03511,-0.23318 2.04004,-0.56253 3.01377,-0.96274 0.0148,-0.18118 0.0123,-0.34554 -0.0424,-0.43408 0.0589,0.23188 0.10562,0.31575 0.12816,0.39688 1.477,-0.61548 2.87069,-1.41255 4.15582,-2.36265 -0.009,-0.0366 -0.0106,-0.0879 -0.0258,-0.11265 0.0214,0.0508 0.0186,0.0656 0.0341,0.10697 3.93316,-2.91078 6.83454,-7.23864 7.84551,-12.13311 1.27673,-6.18104 -0.49063,-12.52057 -4.79712,-17.20619 l -1.3963,-1.51928 v -17.19999 -17.2005 h -3.31607 c -1.75439,0 -2.92152,-0.0841 -3.75119,-0.2775 0.0614,0.33196 0.071,0.70477 0,0.25218 -0.005,-0.0397 -0.0336,-0.15396 -0.0558,-0.26045 -0.91126,-0.22119 -1.386,-0.58515 -1.60972,-1.17357 -0.40605,-1.068 -0.3244,-1.43 0.51057,-2.26498 l 0.77308,-0.7736 h 3.72483 3.72432 v -3.175 -3.175 h -3.68969 c -3.50013,0 -3.72662,-0.0324 -4.41834,-0.62735 -0.55525,-0.4776 -0.72915,-0.86417 -0.72915,-1.6216 0,-0.75743 0.1739,-1.144 0.72915,-1.62161 0.69172,-0.595 0.91821,-0.62735 4.41834,-0.62735 h 3.59254 c 0.0348,-0.0308 0.0673,-0.0642 0.0972,-0.0997 v -3.07526 -3.175 h -3.68969 c -3.44922,0 -3.73318,-0.0388 -4.36563,-0.59531 -0.37208,-0.32743 -0.75011,-0.97725 -0.83974,-1.44436 -0.13626,-0.71013 -0.0308,-0.9811 0.64182,-1.65365 l 0.80409,-0.8046 h 3.72483 3.72432 v -2.9869 c 0,-1.77387 -0.13983,-3.27231 -0.45113,-4.60023 l -0.51987,-0.75551 c -3.00097,-4.36804 -7.16148,-5.84855 -12.25816,-5.84855 z m 6.30452,18.78729 c 0.0719,0.14594 -0.1636,0.56929 -0.0997,0.44132 0.0211,-0.0666 0.0876,-0.36074 0.0997,-0.44132 z m -12.39562,11.1001 c 0.51332,-0.0284 1.05363,0.16212 1.54512,0.57568 l 0.84181,0.70848 v 6.32675 6.32622 h 4.77542 c 4.9643,0 6.05399,0.20355 6.43733,1.20251 0.0904,0.23557 0.16433,7.62392 0.16433,16.41864 v 15.99076 l 2.07223,2.04742 c 3.07299,3.03605 4.40518,6.20756 4.36459,10.39316 -0.0634,6.53596 -4.79379,12.35384 -11.14609,13.70872 -1.89653,0.40451 -5.16559,0.34838 -6.90294,-0.11885 -6.74158,-1.81304 -11.32054,-8.71899 -10.36009,-15.62437 0.1463,-1.05184 0.46522,-2.42652 0.709,-3.05511 0.72641,-1.87308 2.67599,-4.61713 4.21318,-5.93039 l 1.43971,-1.2299 v -23.22184 c 0,-21.72724 0.0298,-23.25816 0.46302,-23.77994 0.38363,-0.46207 0.87006,-0.70949 1.38338,-0.73794 z m 2.38693,18.41955 v 15.83211 c 0,12.2703 -0.0744,15.92469 -0.33073,16.24293 -0.1819,0.22584 -0.87802,0.77749 -1.54667,1.22577 -1.61434,1.08228 -2.81337,2.4857 -3.65198,4.27364 -0.58156,1.2399 -0.68833,1.83611 -0.68833,3.84834 0,2.06441 0.10141,2.60038 0.76068,4.02766 2.2908,4.95942 8.15115,7.14264 13.03641,4.85655 7.06943,-3.30819 7.9553,-12.82237 1.5875,-17.04908 -0.77115,-0.51186 -1.53837,-1.09449 -1.7048,-1.29502 -0.21769,-0.26231 -0.32339,-4.77663 -0.37672,-16.08997 l -0.0739,-15.72514 -3.50573,-0.0739 z m 21.39353,49.06625 c 0.0634,0.0392 0.22907,0.0442 0.33021,0.0816 -0.005,-1.7e-4 -0.0127,0.0123 -0.0176,0.0119 -0.23998,-0.0195 -0.29089,-0.0801 -0.31264,-0.0935 z m -22.00589,10.93939 c -2e-5,0.003 -2e-5,0.007 0,0.01 -0.0502,0.0833 -0.0514,0.22246 -0.076,0.34571 0.0232,-0.13128 0.0328,-0.28569 0.076,-0.35553 z" /><path
         id="path167"
         style="fill:#25abe9"
         d="m -836.4306,-178.18137 v 15.83211 c 0,12.2703 -0.0744,15.92469 -0.33073,16.24293 -0.1819,0.22584 -0.87802,0.77749 -1.54667,1.22577 -1.61434,1.08228 -2.81337,2.4857 -3.65198,4.27364 -0.58156,1.2399 -0.68833,1.83611 -0.68833,3.84834 0,2.06441 0.10141,2.60038 0.76068,4.02766 2.2908,4.95942 8.15115,7.14264 13.03641,4.85655 7.06943,-3.30819 7.9553,-12.82237 1.5875,-17.04908 -0.77115,-0.51186 -1.53837,-1.09449 -1.7048,-1.29502 -0.21769,-0.26231 -0.32339,-4.77663 -0.37672,-16.08997 l -0.0739,-15.72514 -3.50573,-0.0739 z" /><path
         style="fill:#dadbdc"
         d="m -831.99887,-117.22244 c 0.18191,-0.0734 0.47956,-0.0734 0.66146,0 0.1819,0.0734 0.0331,0.13345 -0.33073,0.13345 -0.3638,0 -0.51263,-0.06 -0.33073,-0.13345 z"
         id="path145" /><path
         style="fill:#dadbdc"
         d="m -834.24279,-117.23044 c 0.25743,-0.0671 0.61462,-0.0627 0.79375,0.01 0.17913,0.0725 -0.0315,0.12736 -0.46805,0.12197 -0.43657,-0.005 -0.58313,-0.0647 -0.3257,-0.13178 z"
         id="path53" /><path
         id="path52"
         style="fill:#fad46e"
         d="m -747.68821,-218.41458 c -1.52184,0.0264 -3.05185,0.27471 -4.57337,0.74466 -0.48037,0.14837 -0.91675,0.29315 -1.23816,0.40825 -0.16071,0.0575 -0.29271,0.108 -0.39274,0.15037 -0.05,0.0212 -0.0893,0.0389 -0.13281,0.0625 -0.0217,0.0118 -0.045,0.0233 -0.0801,0.0506 -0.0175,0.0137 -0.0379,0.0302 -0.0682,0.0682 -0.0152,0.019 -0.0508,0.0813 -0.0512,0.0822 -3.8e-4,8.3e-4 -0.0351,0.15742 -0.0351,0.15813 0,3.6e-4 0.008,0.0761 0.008,0.0765 8e-5,4.1e-4 0.0108,0.0381 0.016,0.0527 0.0104,0.0291 0.0202,0.0488 0.0289,0.0641 0.0175,0.0306 0.0303,0.0475 0.0413,0.061 0.0221,0.0271 0.0381,0.0403 0.0548,0.0563 0.0333,0.032 0.0677,0.0639 0.11111,0.0997 0.0868,0.0718 0.20444,0.1616 0.34778,0.26976 0.28668,0.21631 0.67766,0.499 1.10743,0.80046 0.74071,0.51959 1.15221,0.81568 1.6092,0.95653 -0.0397,-0.0361 -0.0789,-0.0738 -0.11937,-0.108 0.0487,-0.03 0.14328,-0.066 0.28319,-0.0925 0.53465,-0.10123 0.84108,-0.13584 1.41955,-0.20774 0.53314,-0.0663 1.08579,-0.12252 1.65571,-0.13746 0.18997,-0.005 0.38199,-0.005 0.57568,0 l 5.1e-4,5.2e-4 c 3.35717,0.0929 7.18727,1.41762 10.08621,3.58169 2.09904,1.56694 5.04342,5.75125 5.1449,7.31118 0.0264,0.40626 0.0471,0.4111 0.14676,0.0357 0.0439,-0.16526 0.0262,-0.46481 -0.0367,-0.84801 0.004,0.006 0.0218,0.0115 0.0248,0.0165 0.036,0.0525 0.0563,0.0977 0.0765,0.14727 l 5.2e-4,5.2e-4 c 0.003,0.0154 0.006,0.0306 0.008,0.046 0.0237,0.13432 0.0511,0.26727 0.0703,0.40308 4.7e-4,0.003 5.6e-4,0.007 10e-4,0.0103 -0.007,0.12956 -0.0477,0.2658 -0.15761,0.39843 0,0.003 10e-4,0.006 0.002,0.008 10e-4,0.0156 -0.004,0.0214 -0.004,0.0367 0.029,0.002 0.0526,-0.0152 0.0801,-0.006 0.0676,0.0217 0.0984,0.0603 0.13384,0.0956 0.006,0.0597 0.0133,0.11926 0.0201,0.1788 0.008,-0.0113 0.0156,-0.0228 0.0212,-0.032 0.0323,-0.0536 0.0425,-0.085 0.0548,-0.11937 0.0245,-0.0687 0.0445,-0.14103 0.0703,-0.23823 0.0813,-0.30614 0.0385,-0.623 -0.0331,-1.0449 -0.0716,-0.4219 -0.19312,-0.92425 -0.34778,-1.46296 -0.30931,-1.07742 -0.75425,-2.29836 -1.22835,-3.27318 -1.27853,-2.62888 -4.51763,-5.82464 -7.23418,-7.15047 -1.93492,-0.94436 -3.93,-1.50172 -5.94951,-1.66398 -0.50487,-0.0406 -1.01097,-0.0564 -1.51825,-0.0476 z" /><path
         id="path172"
         style="fill:#54c5f5"
         d="m -742.50352,-165.32221 c -2.89743,0.0123 -4.26317,0.49092 -6.07869,2.13114 -1.53819,1.38965 -2.24931,2.72602 -2.48822,4.54752 0.0209,-0.0346 0.0399,-0.0709 0.061,-0.10542 -0.17301,0.77334 -0.19272,1.31028 0.10749,0.86093 1.30019,-1.94608 1.95941,-2.67347 3.05149,-3.3662 1.54324,-0.9789 3.30948,-1.49702 5.12269,-1.54874 1.8132,-0.0517 3.67354,0.3625 5.40535,1.24798 1.47956,0.75651 3.98566,3.51938 4.377,4.82555 0.41291,1.37808 0.58976,1.34316 0.36018,-0.0713 -0.0466,-0.2873 -0.11754,-0.57684 -0.19947,-0.86662 0.0727,0.12866 0.13675,0.25613 0.20102,0.38344 -0.78781,-3.19125 -2.86652,-5.92152 -5.89318,-7.34012 -1.31615,-0.61688 -1.83997,-0.70746 -4.02663,-0.69815 z" /><path
         id="path51"
         style="fill:#54c5f5"
         d="m -799.88399,-138.2851 a 3.0937502,4.08283 0 0 0 -2.61896,3.88503 l 0.1359,-0.0289 c 0.26486,-0.39297 25.98475,-0.67334 34.11937,-0.37207 l 5.34438,0.19792 1.94716,0.96169 c 2.79873,1.38321 5.65907,4.43282 5.76244,6.1433 0.0182,0.30093 0.0906,0.38308 0.16795,0.19069 0.15081,-0.37521 -0.058,-1.30753 -0.43046,-2.31459 0.0457,0.076 0.10446,0.15474 0.14366,0.22944 0.0675,0.12874 0.11181,0.25253 0.17311,0.38034 0.18603,0.63633 0.30786,1.28685 0.37259,1.94252 0.0231,-0.0382 0.0372,-0.0743 0.0522,-0.11162 0.11247,-0.27982 0.0911,-0.58032 0.0367,-0.94155 -0.0544,-0.36122 -0.16119,-0.77661 -0.30644,-1.21698 -0.29052,-0.88075 -0.73428,-1.85922 -1.24437,-2.64842 -1.74121,-2.69401 -4.31511,-4.52129 -7.54062,-5.36143 -1.38265,-0.36011 -4.38098,-0.40411 -18.57458,-0.40411 -8.4175,0 -12.66585,-0.003 -14.88074,-0.0723 -1.10745,-0.0347 -1.70724,-0.0889 -2.04071,-0.15813 -0.33348,-0.0692 -0.38024,-0.11951 -0.55087,-0.25373 -0.0231,-0.0182 -0.0449,-0.0298 -0.0677,-0.047 z" /><path
         id="path50"
         style="fill:#fbc127"
         d="m -747.69648,-214.79826 c -0.56992,0.0149 -1.12257,0.0712 -1.65571,0.13746 -0.57847,0.0719 -0.8849,0.10651 -1.41955,0.20774 -0.13991,0.0265 -0.23445,0.0625 -0.28319,0.0925 0.1694,0.14319 0.33017,0.30723 0.49713,0.45682 0.51721,0.46344 1.01978,0.9541 1.50895,1.47278 0.0646,0.0684 0.1282,0.13849 0.19223,0.20774 0.40421,0.43781 0.79593,0.88821 1.17564,1.35754 0.15208,0.18762 0.30241,0.37742 0.4501,0.56947 0.27663,0.36036 0.54359,0.7255 0.80357,1.09968 0.18596,0.26718 0.36901,0.53647 0.54571,0.80977 6.7e-4,0.001 0.001,0.002 0.002,0.003 0.19543,0.30275 0.38202,0.60765 0.56534,0.91674 0.19518,0.32872 0.38536,0.6595 0.56586,0.99425 0.14748,0.27366 0.28721,0.54752 0.42426,0.82424 0.18139,0.36609 0.35519,0.73405 0.51728,1.10433 0.019,0.0181 0.0212,0.037 0.0326,0.0548 l -0.0124,-0.0114 c 0.0167,0.0383 0.0373,0.0759 0.0537,0.11421 0.0238,0.031 0.0495,0.071 0.0729,0.0992 0.002,0.0141 -5.4e-4,0.0296 -0.004,0.047 0.002,0.004 0.003,0.008 0.005,0.0119 0.0252,0.0598 0.0467,0.11948 0.0713,0.17932 0.24855,0.60227 0.47533,1.20682 0.66663,1.81126 0.25239,0.79748 0.51163,1.61435 0.57567,1.81487 3e-4,9.3e-4 7.3e-4,0.002 10e-4,0.003 0.0213,0.0652 0.0551,0.11784 0.10542,0.15761 0.0508,0.0402 0.11825,0.0673 0.20515,0.0827 5.9e-4,1.1e-4 9.6e-4,4.1e-4 0.002,5.2e-4 0.17511,0.0306 0.42943,0.0124 0.79014,-0.0501 0.002,-2.8e-4 0.008,-0.001 0.009,-0.002 0.54516,-0.0942 1.9256,-0.29425 3.08353,-0.447 0.004,-5.6e-4 0.007,-9.9e-4 0.0114,-0.002 0.001,-1.4e-4 0.002,-3.8e-4 0.003,-5.2e-4 0.48409,-0.0637 0.94835,-0.10797 1.40922,-0.13229 8.4e-4,-4e-5 0.002,5e-5 0.003,0 0.46238,-0.0243 0.92133,-0.0284 1.3932,-0.0119 1.7e-4,0 3.4e-4,-1e-5 5.1e-4,0 0.47205,0.0165 0.95678,0.0536 1.47123,0.11213 0.5143,0.0586 1.05841,0.13859 1.64796,0.2403 1.8e-4,3e-5 3.5e-4,-3e-5 5.2e-4,0 l 0.632,0.10904 c 0.11125,-0.0505 0.23828,-0.0792 0.2527,-0.20774 l -0.14108,-2.23036 c -0.0162,-0.25604 -0.0503,-0.50675 -0.0775,-0.75964 -0.0355,-0.0353 -0.0662,-0.0739 -0.13384,-0.0956 -0.0275,-0.009 -0.0511,0.008 -0.0801,0.006 -8.2e-4,-0.0153 0.005,-0.0211 0.004,-0.0367 -1.4e-4,-0.002 -0.002,-0.005 -0.002,-0.008 0.10993,-0.13263 0.15071,-0.26887 0.15761,-0.39843 -4.7e-4,-0.003 -5.6e-4,-0.007 -10e-4,-0.0103 -0.0192,-0.13581 -0.0466,-0.26876 -0.0703,-0.40308 -0.003,-0.0154 -0.006,-0.0306 -0.008,-0.046 -9e-5,-2.1e-4 -4.3e-4,-3.1e-4 -5.2e-4,-5.2e-4 -0.0202,-0.0495 -0.0404,-0.0948 -0.0765,-0.14727 -0.003,-0.005 -0.021,-0.0108 -0.0248,-0.0165 0.0629,0.3832 0.0806,0.68275 0.0367,0.84801 -0.0997,0.37544 -0.12034,0.3706 -0.14676,-0.0357 -0.10148,-1.55993 -3.04586,-5.74424 -5.1449,-7.31118 -2.89894,-2.16407 -6.72904,-3.4888 -10.08621,-3.58169 l -5.1e-4,-5.2e-4 c -0.19369,-0.005 -0.38571,-0.005 -0.57568,0 z m 4.21008,1.34927 c 0.003,5e-5 0.007,5e-5 0.01,0 0.0404,0.01 0.0822,0.012 0.1235,0.008 0.008,-0.007 -0.007,0.0136 -0.0512,0.015 h -0.002 c -0.0242,6e-4 -0.0558,-0.007 -0.0801,-0.0217 z" /><path
         style="fill:#010101"
         d="m -835.24001,-112.73048 c -4.2203,-0.54249 -7.83935,-1.85102 -11.14802,-4.03074 -9.90807,-6.52735 -13.57003,-19.39006 -8.56858,-30.09733 1.07335,-2.29787 2.28954,-4.24145 3.41753,-5.46151 l 0.68865,-0.74487 0.14348,-33.25409 c 0.15804,-36.62677 0.03,-33.96531 1.81701,-37.78395 2.11315,-4.51571 6.51864,-8.18753 11.42213,-9.51994 2.09871,-0.57029 6.66732,-0.64117 8.71009,-0.13514 5.01092,1.24128 9.55549,4.87501 11.78429,9.42244 1.80544,3.68362 1.70946,1.55629 1.70946,37.89024 v 32.88427 l 0.88092,0.99295 c 2.32028,2.61536 4.07968,6.0692 5.08948,9.99104 0.61469,2.38732 0.66924,3.00265 0.56278,6.34775 -0.13401,4.21045 -0.54126,6.07272 -2.03199,9.29185 -3.52079,7.60291 -10.15676,12.66438 -18.34509,13.99243 -2.29621,0.37241 -4.34626,0.44416 -6.13214,0.2146 z m 6.82694,-4.74559 c 7.45989,-1.68047 13.54367,-7.92222 15.10922,-15.50154 1.27673,-6.18104 -0.49082,-12.52061 -4.79731,-17.20623 l -1.39614,-1.51905 v -17.20022 -17.20021 h -3.31579 c -3.74745,0 -4.98943,-0.33465 -5.41715,-1.45963 -0.40605,-1.068 -0.32447,-1.42991 0.5105,-2.26489 l 0.7734,-0.7734 h 3.72452 3.72452 v -3.175 -3.175 h -3.68942 c -3.50013,0 -3.72682,-0.0322 -4.41854,-0.62717 -0.55525,-0.4776 -0.72913,-0.86435 -0.72913,-1.62178 0,-0.75743 0.17388,-1.14418 0.72913,-1.62179 0.69172,-0.595 0.91841,-0.62717 4.41854,-0.62717 h 3.68942 v -3.175 -3.175 h -3.68942 c -3.44922,0 -3.73345,-0.0388 -4.3659,-0.59531 -0.37208,-0.32743 -0.74983,-0.9775 -0.83946,-1.44461 -0.13626,-0.71013 -0.0312,-0.9811 0.64139,-1.65365 l 0.80435,-0.80435 h 3.72452 3.72452 v -2.98712 c 0,-4.68184 -0.96148,-7.45612 -3.53262,-10.19314 -2.78664,-2.9664 -5.89138,-4.34058 -9.82884,-4.35031 -5.56009,-0.0137 -10.36221,3.24607 -12.62584,8.57077 l -0.60333,1.41918 -0.071,34.09502 -0.071,34.09502 -1.38418,1.53372 c -5.48962,6.08268 -6.7527,14.51729 -3.26795,21.82274 2.54054,5.32602 7.44873,9.32285 13.17597,10.72944 2.5098,0.6164 6.76304,0.65562 9.29306,0.0857 z m -8.25243,-5.54544 c -6.74158,-1.81304 -11.32078,-8.71884 -10.36033,-15.62422 0.1463,-1.05184 0.46545,-2.42674 0.70923,-3.05533 0.72641,-1.87308 2.67578,-4.61709 4.21297,-5.93035 l 1.43966,-1.22994 v -23.22188 c 0,-21.72724 0.0298,-23.25778 0.46302,-23.77956 0.76727,-0.92414 1.94543,-0.98944 2.92841,-0.16233 l 0.8419,0.70842 v 6.32648 6.32648 h 4.77564 c 4.9643,0 6.05375,0.20352 6.43709,1.20248 0.0904,0.23557 0.16436,7.62399 0.16436,16.41871 v 15.99041 l 2.0724,2.04748 c 3.07299,3.03605 4.40485,6.20784 4.36426,10.39344 -0.0634,6.53596 -4.79374,12.35397 -11.14604,13.70885 -1.89653,0.40451 -5.16522,0.34809 -6.90257,-0.11914 z m 7.81432,-4.85281 c 7.06943,-3.30819 7.95535,-12.82219 1.58755,-17.0489 -0.77115,-0.51186 -1.53826,-1.09473 -1.70469,-1.29526 -0.21769,-0.26231 -0.32339,-4.77648 -0.37672,-16.08982 l -0.0741,-15.72523 -3.50573,-0.0738 -3.50573,-0.0738 v 15.83211 c 0,12.2703 -0.0744,15.92449 -0.33073,16.24273 -0.1819,0.22584 -0.8778,0.77739 -1.54645,1.22567 -1.61434,1.08228 -2.8137,2.48567 -3.65231,4.27361 -0.58156,1.2399 -0.68821,1.8363 -0.68821,3.84853 0,2.06441 0.10118,2.60031 0.76045,4.02759 2.2908,4.95942 8.15145,7.14271 13.03671,4.85662 z m 61.57168,14.79714 c -3.18554,-1.04269 -5.84094,-3.51566 -6.94577,-6.46858 -0.6715,-1.79474 -0.74837,-4.73431 -0.16058,-6.14108 0.21828,-0.52242 0.39688,-1.05438 0.39688,-1.18213 0,-0.13011 -5.64391,-0.23227 -12.83229,-0.23227 -12.47952,0 -12.84684,-0.0145 -13.36146,-0.52917 -0.69174,-0.69173 -0.71742,-2.39344 -0.0453,-3.0017 0.43975,-0.39797 2.03733,-0.43764 17.52864,-0.43529 l 17.04479,0.003 1.32292,0.62541 c 2.35123,1.11154 3.57187,2.96621 3.57187,5.42714 0,1.10246 -0.11143,1.39986 -0.69714,1.86058 -0.9756,0.76741 -2.04868,0.70878 -2.72324,-0.14877 -0.3016,-0.38343 -0.54837,-1.02769 -0.54837,-1.43169 0,-1.07216 -1.32026,-2.10451 -2.69143,-2.10451 -1.36967,0 -2.41916,0.7494 -2.96701,2.11861 -1.57306,3.93146 1.92092,8.01972 6.84907,8.01402 2.89658,-0.003 5.42809,-1.38643 7.12325,-3.89174 4.41481,-6.52475 -0.14139,-15.452 -8.57846,-16.80833 -1.06162,-0.17067 -8.01572,-0.27724 -18.1709,-0.27847 l -16.45111,-0.002 -0.54837,-0.69714 c -0.72743,-0.92479 -0.6926,-1.82851 0.10106,-2.62218 l 0.64944,-0.64943 27.19796,-0.002 c 16.96321,-0.001 27.84513,-0.10242 28.91775,-0.26886 5.17897,-0.80363 9.7782,-5.05303 10.8176,-9.99477 1.11358,-5.29441 -1.35834,-10.53115 -5.9974,-12.70548 -1.31615,-0.61688 -1.83979,-0.70771 -4.02645,-0.6984 -2.89743,0.0123 -4.26328,0.49125 -6.0788,2.13147 -1.731,1.56385 -2.45197,3.02225 -2.58451,5.22799 -0.0976,1.62406 -0.0237,2.05792 0.5244,3.08088 1.16599,2.176 3.49864,2.94123 5.51362,1.80875 1.15665,-0.65007 1.83154,-1.84315 1.83154,-3.2378 0,-1.24402 0.75654,-2.01053 1.98438,-2.01053 1.42218,0 1.98493,0.73252 1.98179,2.57969 -0.005,2.77604 -1.70203,5.36585 -4.39085,6.69971 l -1.29511,0.64247 -20.31925,0.074 -20.31924,0.074 -0.78128,-0.78128 c -0.9624,-0.9624 -1.00823,-1.94199 -0.13184,-2.81838 l 0.64943,-0.64943 h 15.87215 15.87215 l -0.5572,-1.25677 c -0.3277,-0.73913 -0.60835,-2.04686 -0.68138,-3.175 l -0.12417,-1.91823 h -20.03121 c -22.82257,0 -21.91958,0.0774 -26.73045,-2.28994 -2.11503,-1.04075 -2.89465,-1.61796 -4.91733,-3.64064 -2.02712,-2.02711 -2.59696,-2.79767 -3.63647,-4.91733 -1.59682,-3.25609 -2.04205,-5.01013 -2.21796,-8.73793 -0.12054,-2.55445 -0.0529,-3.41333 0.41647,-5.29167 1.83558,-7.34505 7.3958,-12.93654 14.72933,-14.81214 1.13334,-0.28986 2.50808,-0.52701 3.05498,-0.52701 1.27863,0 1.8314,-0.21955 1.8314,-0.72739 0,-0.88545 1.17208,-4.28067 2.16935,-6.28407 3.95415,-7.94342 12.11083,-13.51281 20.58481,-14.05536 1.23693,-0.0792 2.41306,-0.19571 2.61361,-0.25892 0.24495,-0.0772 -0.0906,-0.59627 -1.0221,-1.58122 -1.23571,-1.30659 -1.369,-1.55823 -1.22375,-2.3104 0.30571,-1.58307 1.67409,-2.18251 3.031,-1.32776 1.32356,0.83374 4.53874,4.5096 4.53874,5.18906 0,0.56237 0.20488,0.69548 1.68878,1.09715 l 1.68878,0.45713 2.52469,-1.22819 c 4.14756,-2.01767 8.1677,-2.62928 12.354,-1.87949 6.9735,1.24898 12.74403,5.91866 15.34697,12.4192 1.02558,2.56124 1.68685,6.40405 1.4984,8.70753 l -0.14637,1.78914 1.37394,0.68987 c 11.03322,5.53987 15.12996,19.21884 8.87609,29.63714 -2.04667,3.40955 -5.91865,6.73079 -9.83698,8.4378 -1.51524,0.66011 -1.77092,0.86395 -1.64561,1.31193 2.55603,9.13733 -3.44161,18.7664 -13.00513,20.87943 -1.4369,0.31748 -3.40373,0.42075 -8.01329,0.42075 h -6.10897 l 1.3405,1.61078 c 2.56834,3.08618 3.70587,6.12458 3.70587,9.89859 0,5.58305 -2.63647,9.90345 -7.52022,12.32344 -2.10852,1.04481 -2.42504,1.12405 -4.84236,1.21216 -2.06122,0.0751 -2.91631,-0.0137 -4.21128,-0.43758 z m 13.39886,-50.23371 c 0,-0.12447 0.70865,-0.99969 1.57479,-1.94492 3.69109,-4.02818 9.39795,-5.34495 14.64942,-3.38012 2.08343,0.77951 4.37628,2.34308 5.76663,3.93246 l 1.2064,1.3791 1.47069,-0.55026 c 4.39566,-1.64462 8.04225,-5.26835 9.8042,-9.74274 1.02742,-2.60907 1.29927,-6.84566 0.61476,-9.58057 -1.26363,-5.04875 -4.56943,-9.18004 -9.15773,-11.4445 -4.50242,-2.22207 -8.73701,-2.51622 -14.04121,-0.97533 -1.56472,0.45456 -2.11527,0.51286 -2.69693,0.28561 -0.85618,-0.3345 -1.0195,-0.69535 -1.75063,-3.86803 -2.49456,-10.82497 -13.06731,-18.26782 -23.90176,-16.82603 -9.99646,1.33028 -17.52283,8.75707 -18.85411,18.60465 -0.24067,1.78022 -1.00371,2.32103 -3.28322,2.32701 -7.5451,0.0198 -14.25157,5.04939 -16.03204,12.02339 -0.51574,2.02015 -0.5166,5.93317 -0.002,7.95862 1.3976,5.49809 5.7152,9.98081 11.10852,11.53331 1.4415,0.41494 3.51601,0.4587 22.55573,0.47582 11.53253,0.0104 20.96823,-0.083 20.96823,-0.20747 z m 15.74271,-37.36886 c 1.94376,-0.25621 3.56905,-0.19924 5.92807,0.20778 l 0.90098,0.15546 -0.15695,-2.48455 c -0.45314,-7.17319 -5.27867,-13.16288 -12.00196,-14.89743 -2.89654,-0.74728 -7.93538,-0.38612 -10.04666,0.72009 l -0.65514,0.34326 1.48373,1.02188 c 4.30438,2.96455 8.1265,8.20017 9.76447,13.37561 0.25239,0.79748 0.5113,1.61402 0.57534,1.81454 0.0851,0.26653 0.38207,0.31856 1.10395,0.19348 0.54313,-0.0941 1.94,-0.29667 3.10417,-0.45012 z m -63.5,52.10632 c -1.35068,-0.73876 -1.59582,-2.22375 -0.54119,-3.27838 0.64157,-0.64157 0.70637,-0.64933 5.35781,-0.64101 5.12426,0.009 5.48976,0.10168 5.87707,1.48777 0.2879,1.03031 -0.28341,2.07819 -1.33242,2.44388 -1.10064,0.38368 -8.65546,0.37379 -9.36127,-0.0123 z m 77.8285,-52.03666 c -0.6145,-0.67902 -0.56444,-2.3 0.0913,-2.95573 0.47893,-0.47893 0.88194,-0.52917 4.24536,-0.52917 3.59281,0 3.73775,0.0216 4.36562,0.64944 0.79367,0.79366 0.8285,1.69739 0.10106,2.62217 -0.54819,0.69693 -0.54959,0.69714 -4.45691,0.69714 -3.45051,0 -3.95985,-0.0567 -4.34642,-0.48385 z m -7.31704,-17.50781 c -0.30815,-0.30815 -0.52917,-0.88195 -0.52917,-1.3738 0,-0.7129 0.38408,-1.22871 2.46266,-3.30729 2.67739,-2.67739 3.23975,-2.91592 4.51312,-1.91429 0.51963,0.40875 0.69713,0.78794 0.69713,1.48928 0,0.82564 -0.28137,1.22845 -2.29683,3.28809 -2.09656,2.1425 -2.38496,2.34718 -3.3073,2.34718 -0.65767,0 -1.1952,-0.18475 -1.53961,-0.52917 z m -16.85323,-7.46044 c -0.83715,-0.40447 -1.13844,-1.54604 -1.13844,-4.31352 0,-3.64117 0.50083,-4.63021 2.34465,-4.63021 0.54041,0 0.96611,0.22142 1.34031,0.69714 0.48787,0.62022 0.54837,1.05944 0.54837,3.98078 0,3.13355 -0.0297,3.31332 -0.64943,3.93307 -0.68687,0.68687 -1.48712,0.79576 -2.44546,0.33274 z"
         id="path44" /><path
         style="fill:#25abe9"
         d="m -760.63626,-117.54631 c 0.1349,0 0.11832,0.0783 -0.12351,0.23461 -0.21828,0.14107 -0.57547,0.24984 -0.79375,0.24184 -0.26168,-0.01 -0.21662,-0.0919 0.1323,-0.24184 0.36368,-0.15628 0.65006,-0.23461 0.78496,-0.23461 z"
         id="path181" /><path
         style="fill:#25abe9"
         d="m -760.51017,-123.76092 c 0.0647,0.0626 -0.16044,0.37838 -0.50074,0.70176 l -0.61909,0.58808 0.50126,-0.70176 c 0.27562,-0.38593 0.55389,-0.65064 0.61857,-0.58808 z"
         id="path180" /><path
         style="fill:#25abe9"
         d="m -755.12962,-124.88437 c 0.0278,-0.0278 0.0648,0.009 0.10697,0.11472 0.0764,0.191 0.0667,0.41903 -0.0212,0.50695 -0.0879,0.0879 -0.1505,-0.0683 -0.13901,-0.34727 0.006,-0.15411 0.0254,-0.24658 0.0532,-0.2744 z"
         id="path179" /><path
         style="fill:#25abe9"
         d="m -765.30006,-125.62282 c 0.0252,-5.6e-4 0.0588,0.0196 0.10026,0.061 0.1411,0.14109 0.20918,0.47763 0.15192,0.74775 -0.0771,0.36375 -0.1434,0.29693 -0.25631,-0.25683 -0.0738,-0.36211 -0.0714,-0.55023 0.004,-0.5519 z"
         id="path178" /><path
         style="fill:#25abe9"
         d="m -768.96185,-126.30754 c 0.0137,0.0137 -0.0664,0.12091 -0.23099,0.33073 -0.34565,0.44073 -0.56276,0.58105 -0.56276,0.36329 0,-0.055 0.20836,-0.2633 0.46302,-0.46302 0.20983,-0.16455 0.31707,-0.24465 0.33073,-0.231 z"
         id="path177" /><path
         style="fill:#25abe9"
         d="m -766.39766,-126.56799 c 0.17332,-0.002 0.38858,0.11493 0.47852,0.26045 0.20301,0.32849 0.11142,0.32849 -0.39688,0 -0.23846,-0.15411 -0.27098,-0.25802 -0.0816,-0.26045 z"
         id="path176" /><path
         id="path174"
         style="fill:#25abe9"
         d="m -782.55895,-134.93905 c -9.28605,0.009 -18.89297,0.11052 -19.91868,0.11679 a 3.0937502,4.08283 0 0 0 -0.0341,0.57206 3.0937502,4.08283 0 0 0 2.09858,3.86126 c 0.0528,-0.092 0.11148,-0.17686 0.185,-0.2434 0.43975,-0.39797 2.03734,-0.43746 17.52865,-0.43511 l 17.04495,0.003 1.32292,0.62529 c 2.35123,1.11154 3.57187,2.96613 3.57187,5.42706 0,1.10246 -0.1114,1.40014 -0.69711,1.86086 -0.9756,0.76741 -2.04879,0.70873 -2.72335,-0.14882 -0.3016,-0.38343 -0.54829,-1.02796 -0.54829,-1.43196 0,-1.07216 -1.32013,-2.10426 -2.6913,-2.10426 -1.36967,0 -2.41941,0.74952 -2.96726,2.11873 -1.57306,3.93146 1.92104,8.01968 6.84919,8.01398 2.89658,-0.003 5.42792,-1.38644 7.12308,-3.89175 0.53728,-0.79406 0.93678,-1.62443 1.2175,-2.47168 -0.0635,0.0268 -0.10054,0.0338 -0.0155,-0.0248 0.008,0.003 0.02,-0.008 0.0289,-0.009 0.6392,-1.9532 0.60508,-3.99357 0.0444,-5.91127 -0.0613,-0.12781 -0.10565,-0.2516 -0.17311,-0.38034 -0.0392,-0.0747 -0.098,-0.15348 -0.14366,-0.22944 0.37243,1.00706 0.58127,1.93938 0.43046,2.31459 -0.0773,0.19239 -0.14976,0.11024 -0.16795,-0.19069 -0.10337,-1.71048 -2.96371,-4.76009 -5.76244,-6.1433 l -1.94716,-0.96169 -5.34438,-0.19792 c -3.05048,-0.11298 -8.56683,-0.14359 -14.31127,-0.13798 z" /><path
         style="fill:#25abe9"
         d="m -742.72779,-162.8035 v 5.2e-4 c -1.81321,0.0517 -3.57945,0.56984 -5.12269,1.54874 -1.09208,0.69273 -1.7513,1.42012 -3.05149,3.3662 -0.30021,0.44935 -0.2805,-0.0876 -0.10749,-0.86093 -0.0211,0.0345 -0.0401,0.0708 -0.061,0.10542 -0.0299,0.22833 -0.0819,0.43489 -0.0966,0.68058 -0.0976,1.62406 -0.0236,2.05799 0.52452,3.08095 1.16599,2.176 3.49889,2.94116 5.51387,1.80868 1.15665,-0.65007 1.83141,-1.84288 1.83141,-3.23753 0,-1.24402 0.75654,-2.01073 1.98438,-2.01073 1.42218,0 1.98493,0.73252 1.98179,2.57969 -0.005,2.77604 -1.70213,5.36598 -4.39095,6.69984 l -1.29501,0.64234 -20.31917,0.0739 -20.31917,0.0739 -0.78135,-0.78135 c -0.52953,-0.52953 -0.75398,-1.06245 -0.72761,-1.58233 l -3.74964,-0.004 c 0.0678,0.89474 -0.44579,1.73915 -1.3627,2.05879 -0.64841,0.22603 -3.46358,0.29888 -5.872,0.25528 -0.10756,0.085 -0.20898,0.17427 -0.29869,0.26975 -0.68004,0.7242 -0.95897,1.77331 -0.96066,2.82826 -0.002,1.05495 0.27876,2.14057 0.91984,2.95537 l 0.47232,0.59945 25.80101,-0.002 c 16.96321,-0.001 27.84499,-0.10228 28.91761,-0.26872 5.17897,-0.80363 9.77803,-5.053 10.81743,-9.99474 0.38712,-1.84053 0.31605,-3.66624 -0.10387,-5.36659 -0.0642,-0.12718 -0.12841,-0.2544 -0.20102,-0.38293 0.0819,0.28978 0.15284,0.57932 0.19947,0.86662 0.22958,1.41447 0.0527,1.4494 -0.36018,0.0713 -0.39134,-1.30617 -2.89744,-4.06903 -4.377,-4.82554 -1.73181,-0.88548 -3.59215,-1.29972 -5.40535,-1.24799 z"
         id="path173" /><path
         style="fill:#fbfbfb;fill-opacity:1;stroke:none;stroke-width:2;stroke-linecap:round;stroke-linejoin:round;stroke-dasharray:none;stroke-opacity:1;paint-order:markers stroke fill"
         d="m -2787.9922,-637.36329 c 0.1046,0.0392 0.2134,0.10433 0.3183,0.14453 0.01,-5.2e-4 0.018,-10e-4 0.027,-0.002 -0.1143,-0.0439 -0.2317,-0.0999 -0.3457,-0.14258 z"
         transform="scale(0.26458333)"
         id="path198" /><path
         style="fill:#fbfbfb;fill-opacity:1;stroke:none;stroke-width:2;stroke-linecap:round;stroke-linejoin:round;stroke-dasharray:none;stroke-opacity:1;paint-order:markers stroke fill"
         d="m -3057.1172,-679.98438 c -0.084,2.52659 -0.063,4.96609 0.055,7.46484 -0.1,-2.45377 -0.138,-4.97198 -0.055,-7.46484 z"
         transform="scale(0.26458333)"
         id="path197" /><path
         style="fill:#fbfbfb;fill-opacity:1;stroke:none;stroke-width:2;stroke-linecap:round;stroke-linejoin:round;stroke-dasharray:none;stroke-opacity:1;paint-order:markers stroke fill"
         d="m -2715.4297,-680.12501 c 0.033,2.256 -0.045,4.55143 -0.1992,6.83594 0.045,-0.0779 0.069,-0.12664 0.1132,-0.20313 0.1623,-2.24336 0.1182,-4.42407 0.086,-6.63281 z"
         transform="scale(0.26458333)"
         id="path196" /><path
         style="fill:#fbfbfb;fill-opacity:1;stroke:none;stroke-width:2;stroke-linecap:round;stroke-linejoin:round;stroke-dasharray:none;stroke-opacity:1;paint-order:markers stroke fill"
         d="m -2903.8692,-817.11134 c -2.5444,0.0833 -5.1008,0.29419 -7.6601,0.63477 -37.7819,5.02783 -66.2282,33.0972 -71.2598,70.3164 -0.9096,6.72839 -3.7927,8.77232 -12.4082,8.79493 -28.5169,0.0748 -53.8644,19.08493 -60.5938,45.44336 -0.7895,3.0927 -1.1753,7.43115 -1.3261,11.92187 v 0.002 c 0.9776,0.89841 1.9497,4.48436 3.0605,6.22657 2.155,3.37958 4.0427,7.07688 7.0117,9.76953 10.3172,9.3566 22.4371,18.72509 36.1563,20.94141 0.4793,0.0774 3.7091,0.28871 8.4961,0.42968 4.7869,0.14083 11.4001,0.27019 19.666,0.38282 16.5319,0.22507 39.6734,0.3832 68.127,0.46484 31.4308,0.0903 54.0643,0.2409 68.955,0.45898 7.4454,0.10908 12.9576,0.23466 16.6836,0.38282 1.863,0.0741 3.2717,0.15381 4.3028,0.24414 0.5155,0.045 0.9272,0.0882 1.3144,0.15429 0.1937,0.0329 0.3746,0.0677 0.6192,0.14063 0.2445,0.0731 0.5384,-6.8e-4 1.2695,0.73047 0.2491,0.24907 0.5735,0.47313 0.8183,1.05468 8.9446,-2.61626 18.5991,-2.71399 28.0782,-0.0898 0.2614,-0.41348 0.5839,-0.67766 0.7793,-0.81641 0.3613,-0.25651 0.5873,-0.33576 0.791,-0.4121 0.4075,-0.15308 0.73,-0.22413 1.1133,-0.30274 0.7665,-0.15696 1.7107,-0.29186 2.8652,-0.42187 2.309,-0.26038 5.4103,-0.49027 8.8281,-0.64258 14.2956,-0.63697 20.4122,-2.11232 31.6387,-7.60938 9.4528,-4.62856 20.9519,-13.50145 25.5918,-22.14062 l 3.1973,-5.95117 c 0.2775,-0.51398 1.6289,-2.6555 2.3242,-3.1211 -0.064,-4.42341 -0.3805,-8.71725 -1.2715,-12.27734 -4.7759,-19.08189 -17.2697,-34.69532 -34.6113,-43.25391 -17.0171,-8.39837 -33.021,-9.50938 -53.0684,-3.68555 -5.9139,1.71803 -7.995,1.93703 -10.1934,1.07813 -3.2359,-1.26425 -3.8538,-2.62791 -6.6171,-14.61914 -8.839,-38.3562 -44.5121,-65.47826 -82.6778,-64.22852 z"
         transform="scale(0.26458333)"
         id="path195" /><path
         style="fill:#fbfbfb;fill-opacity:1;stroke:none;stroke-width:2;stroke-linecap:round;stroke-linejoin:round;stroke-dasharray:none;stroke-opacity:1;paint-order:markers stroke fill"
         d="m -3147.8125,-868.64064 c -21.0146,-0.0518 -39.1653,12.26969 -47.7207,32.39454 l -2.2793,5.36328 v 1.86523 l 0.9492,-1.90234 c 5.9976,-12.03572 20.3785,-19.58986 35.2031,-23.45117 3.8244,-0.99614 9.7884,-1.64454 14.3516,-1.64454 v -0.004 -0.002 c 19.263,0 34.9878,5.59635 46.3301,22.10547 l 1.6914,2.45899 c -1.9527,-7.98086 -5.4694,-14.4578 -11.3711,-20.74024 -10.5322,-11.21159 -22.2667,-16.40658 -37.1484,-16.44336 z"
         transform="scale(0.26458333)"
         id="path194" /></g></g></svg>
