<?xml version="1.0" encoding="UTF-8" standalone="no"?>
<!-- Created with Inkscape (http://www.inkscape.org/) -->

<svg
   viewBox="0 0 100 100"
   xmlns="http://www.w3.org/2000/svg"><defs
     id="defs1" /><g
     id="layer1"
     transform="translate(705.35922,476.89293)"><g
       id="g356"
       transform="matrix(0.36909469,0,0,0.36909469,-1265.1922,-363.96488)"
       style="stroke-width:2.70933"><path
         style="fill:none;fill-opacity:1;stroke-width:2.70933"
         d="m 1516.7735,-170.4929 v -135.46666 h 135.4666 135.4667 v 135.46666 135.46666 h -135.4667 -135.4666 z"
         id="path343" /><path
         id="path89"
         style="fill:#18a8ec;stroke-width:2.70933"
         d="m 1683.7257,-216.23745 -0.089,2.54352 c -0.085,2.40723 -0.1195,2.60778 -0.6574,3.7455 -2.1598,4.56829 -8.1229,5.75832 -11.8173,2.35852 -1.7453,-1.6061 -2.19,-2.77072 -2.3255,-6.09265 l -0.1033,-2.53215 -16.4926,0.0119 -16.4925,0.0114 -0.088,2.53008 c -0.087,2.48816 -0.099,2.5519 -0.7468,3.8623 -0.9987,2.01993 -2.6478,3.37001 -4.8023,3.93103 -3.82,0.99471 -7.7066,-1.14094 -8.9627,-4.92477 -0.097,-0.29381 -0.226,-1.63505 -0.2853,-2.98069 l -0.1075,-2.44688 -6.1505,0.0274 c -5.5039,0.0242 -6.2488,0.0614 -7.0854,0.35554 -1.5843,0.55683 -3.0893,1.78142 -3.9175,3.1874 -0.8444,1.43336 -0.9266,2.16336 -0.9266,8.23412 v 5.70095 h 49.5737 49.5743 l -0.054,-6.04149 c -0.051,-5.84689 -0.066,-6.07385 -0.462,-7.05487 -0.477,-1.1815 -1.8523,-2.7671 -2.9672,-3.42046 -1.4821,-0.86856 -1.9158,-0.91784 -8.4714,-0.96325 z" /><path
         id="path88"
         style="fill:#5e696d;stroke-width:2.70933"
         d="m 1676.6346,-227.02025 c -0.7959,-0.16582 -2.0598,0.42294 -2.5171,1.17305 -0.341,0.55921 -0.3565,0.87226 -0.3571,7.02645 -8e-4,7.12091 0.01,7.18885 1.1456,7.93698 0.6855,0.45113 1.9356,0.45966 2.6598,0.0181 1.1024,-0.67224 1.1325,-0.88473 1.1317,-7.98453 -6e-4,-6.04397 -0.02,-6.44392 -0.3441,-6.97528 -0.4034,-0.66162 -0.936,-1.03168 -1.7188,-1.19476 z m -47.9097,0.005 c -0.4559,-0.0843 -0.9351,0.008 -1.4754,0.26923 -1.4333,0.69385 -1.4595,0.83614 -1.464,7.97212 0,6.73577 0.018,6.90042 1.0444,7.76387 0.7085,0.5962 1.9231,0.6536 2.7797,0.13126 1.1064,-0.67458 1.111,-0.70832 1.111,-8.04499 v -6.64404 l -0.6614,-0.65835 c -0.446,-0.44392 -0.8785,-0.70482 -1.3343,-0.7891 z" /><path
         style="fill:#000000;stroke-width:2.70933"
         d="m 1607.3241,-121.19972 c -4.2756,-0.94224 -7.7294,-4.02266 -9.0889,-8.10638 l -0.411,-1.23472 -0.049,-39.86389 c -0.055,-44.67796 -0.1484,-41.34263 1.2408,-44.18542 1.0385,-2.12526 3.1332,-4.22542 5.2461,-5.25974 2.6615,-1.30291 2.8254,-1.32564 10.0983,-1.40008 l 6.4822,-0.0664 v -1.8163 c 0,-3.28432 0.569,-4.92347 2.3179,-6.67714 2.2302,-2.23644 5.3041,-2.7872 8.1877,-1.46704 1.9454,0.89064 3.3341,2.46659 3.9679,4.50288 0.2624,0.84291 0.3432,1.61849 0.3432,3.29186 v 2.18915 h 16.561 16.5609 l 0.066,-2.51355 c 0.064,-2.45574 0.081,-2.54398 0.696,-3.83747 1.1203,-2.3543 3.0716,-3.83444 5.6068,-4.25312 3.5749,-0.59038 7.2974,1.82974 8.2357,5.3541 0.1468,0.55149 0.2481,1.80046 0.2492,3.0759 v 2.1474 l 6.4823,0.0734 c 7.1478,0.081 7.4114,0.11527 9.8337,1.2781 3.0386,1.45876 5.38,4.24097 6.3864,7.58893 0.2995,0.99633 0.3187,3.16816 0.3627,40.87246 0.052,44.41852 0.1449,41.0451 -1.2108,43.846 -0.5976,1.23459 -1.0165,1.79718 -2.2542,3.02732 -1.6338,1.62375 -2.9838,2.45152 -5.2244,3.20329 l -1.2347,0.41428 -44.1855,0.0274 c -36.5765,0.0227 -44.3719,-0.0137 -45.2688,-0.21133 z m 89.9386,-5.16432 c 1.1112,-0.44866 2.7511,-1.83203 3.4107,-2.87704 0.2273,-0.36004 0.575,-1.13461 0.7726,-1.72126 0.3561,-1.05702 0.3593,-1.34569 0.3593,-31.94028 v -30.87362 h -49.5671 -49.5671 l 0.046,31.26493 0.046,31.26493 0.5444,1.14653 c 0.6135,1.29192 1.7439,2.54613 2.9115,3.23039 1.7849,1.04604 -1.2421,0.98417 46.3739,0.94795 l 43.6563,-0.0332 z m -81.3807,-10.33962 c -1.3071,-0.88818 -1.2947,-0.79823 -1.3517,-9.8447 -0.033,-5.2029 0.014,-8.31244 0.1329,-8.75232 0.2498,-0.92772 0.808,-1.59075 1.668,-1.98134 0.6674,-0.30313 1.3222,-0.32703 9.0594,-0.33062 6.6517,-0.003 8.4566,0.0448 8.9159,0.23672 0.7278,0.3041 1.4639,1.17117 1.7118,2.01631 0.1295,0.44152 0.1739,3.31423 0.137,8.8556 -0.061,9.17227 -0.023,8.89513 -1.3323,9.78452 l -0.6564,0.44603 h -8.8258 -8.8258 z m 15.3679,-10.15313 v -5.82084 h -5.9091 -5.9091 v 5.82084 5.82083 h 5.9091 5.9091 z m 11.4431,10.15313 c -1.2338,-0.83841 -1.2127,-0.66 -1.2127,-10.23265 0,-9.51689 -0.04,-9.16929 1.1766,-10.09782 l 0.6477,-0.49419 8.6616,-0.0503 8.6615,-0.0503 0.7892,0.41633 c 0.4936,0.26044 0.9377,0.67556 1.1858,1.10865 l 0.3967,0.69233 -0.044,8.67438 c -0.043,8.49024 -0.052,8.68494 -0.4129,9.17222 -0.2029,0.27381 -0.6314,0.67644 -0.9521,0.89472 l -0.5832,0.39687 h -8.8406 -8.8406 z m 15.3679,-10.15313 v -5.82084 h -5.909 -5.9091 v 5.70325 c 0,3.13678 0.053,5.75615 0.1176,5.82083 0.065,0.0647 2.7238,0.11759 5.9091,0.11759 h 5.7914 z m 11.6332,10.18586 c -0.3244,-0.21861 -0.7529,-0.67502 -0.9521,-1.01424 -0.3492,-0.59436 -0.3643,-0.91471 -0.4169,-8.81884 -0.037,-5.54137 0.01,-8.41408 0.1369,-8.8556 0.2479,-0.84514 0.9839,-1.71221 1.7118,-2.01631 0.4593,-0.19189 2.2642,-0.23981 8.9158,-0.23672 9.5027,0.004 9.3599,-0.0153 10.3128,1.4246 l 0.4967,0.75062 -8e-4,8.47955 -9e-4,8.47955 -0.4168,0.72886 c -0.2301,0.40242 -0.7145,0.89617 -1.0815,1.10243 -0.6521,0.36651 -0.8296,0.37357 -9.3899,0.37357 h -8.7253 z m 15.3543,-10.18586 v -5.82084 h -5.909 -5.9091 v 5.82084 5.82083 h 5.9091 5.909 z m -68.7035,-16.12501 c -0.7577,-0.33823 -1.4361,-1.13796 -1.6582,-1.95485 -0.2376,-0.87363 -0.2597,-15.90748 -0.025,-16.91969 0.2211,-0.95311 0.6836,-1.5302 1.6054,-2.00297 l 0.7834,-0.40183 8.5688,0.0491 8.5687,0.049 0.6685,0.51003 c 0.3677,0.28052 0.8208,0.8542 1.0069,1.27484 0.3206,0.7248 0.3356,1.20706 0.2877,9.21926 l -0.051,8.45446 -0.5417,0.67765 c -1.0702,1.33876 -0.7251,1.29526 -10.218,1.28783 -6.6813,-0.005 -8.5783,-0.0564 -8.9959,-0.24283 z m 14.9049,-10.50971 v -5.82084 h -5.909 -5.9091 v 5.82084 5.82083 h 5.9091 5.909 z m 11.9945,10.56155 c -0.2425,-0.0967 -0.627,-0.34963 -0.8546,-0.56208 -0.9239,-0.86259 -0.9094,-0.70229 -0.9094,-10.05282 v -8.71393 l 0.3983,-0.59935 c 0.2192,-0.32964 0.7549,-0.77979 1.1908,-1.00034 l 0.7923,-0.401 8.568,0.0482 8.5679,0.0482 0.651,0.44097 c 0.358,0.24253 0.8085,0.76369 1.0011,1.15812 0.3346,0.68523 0.3501,1.09342 0.3473,9.17222 0,8.44481 0,8.45593 -0.4005,9.15704 -0.2229,0.39358 -0.7059,0.87661 -1.0995,1.09953 l -0.702,0.39756 -8.5548,-0.008 c -5.2513,-0.005 -8.7251,-0.0762 -8.9958,-0.18409 z m 14.8166,-10.56155 v -5.82084 h -5.909 -5.9091 v 5.82084 5.82083 h 5.9091 5.909 z m 12.0826,10.50971 c -0.7287,-0.32528 -1.4722,-1.15711 -1.6791,-1.87877 -0.102,-0.35561 -0.1714,-3.93157 -0.1691,-8.71797 0,-7.49619 0.029,-8.16886 0.3279,-8.82061 0.3854,-0.83923 0.7787,-1.21531 1.6534,-1.58078 0.5534,-0.23123 1.8682,-0.27073 8.9012,-0.26743 9.4036,0.004 9.2727,-0.0138 10.2246,1.42472 l 0.4967,0.75074 -0.014,8.56762 c -0.012,7.4374 -0.051,8.63743 -0.2919,9.09679 -0.3555,0.67699 -0.9709,1.24856 -1.6017,1.48756 -0.7906,0.29954 -17.1653,0.24278 -17.8479,-0.0619 z m 14.9049,-10.50971 v -5.82084 h -5.909 -5.9091 v 5.82084 5.82083 h 5.9091 5.909 z m 16.7213,-31.26494 c -0.051,-5.84689 -0.066,-6.07394 -0.462,-7.05496 -0.477,-1.1815 -1.8523,-2.76683 -2.9672,-3.42019 -1.4821,-0.86856 -1.916,-0.9179 -8.4716,-0.96331 l -6.1434,-0.0426 -0.089,2.54346 c -0.085,2.40723 -0.1197,2.60784 -0.6576,3.74556 -2.1598,4.56829 -8.1231,5.75854 -11.8175,2.35874 -1.7453,-1.6061 -2.1899,-2.77094 -2.3254,-6.09287 l -0.1034,-2.53204 -16.4923,0.0116 -16.4924,0.0116 -0.088,2.53004 c -0.087,2.48816 -0.099,2.5521 -0.7469,3.8625 -0.9987,2.01993 -2.6478,3.3698 -4.8023,3.93082 -3.82,0.99471 -7.7066,-1.14086 -8.9627,-4.92469 -0.097,-0.29381 -0.2258,-1.63517 -0.2851,-2.98081 l -0.1078,-2.44662 -6.1503,0.027 c -5.5039,0.0242 -6.2485,0.0615 -7.0851,0.35561 -1.5843,0.55683 -3.0898,1.78173 -3.918,3.18771 -0.8444,1.43336 -0.9265,2.16334 -0.9265,8.2341 v 5.70062 h 49.5739 49.5739 z m -72.1601,-6.12237 c 1.1064,-0.67458 1.111,-0.70816 1.111,-8.04483 v -6.64409 l -0.6614,-0.65846 c -0.8919,-0.88784 -1.7291,-1.04262 -2.8097,-0.5195 -1.4333,0.69385 -1.4594,0.83602 -1.4639,7.972 0,6.73577 0.018,6.90024 1.0441,7.76369 0.7085,0.5962 1.9233,0.65353 2.7799,0.13119 z m 47.9564,0.013 c 1.1024,-0.67224 1.1325,-0.88453 1.1317,-7.98433 -6e-4,-6.04397 -0.02,-6.44385 -0.3443,-6.97521 -0.4034,-0.66162 -0.9361,-1.03192 -1.7189,-1.195 -0.7959,-0.16582 -2.0595,0.4233 -2.5168,1.17341 -0.341,0.55921 -0.3569,0.87202 -0.3575,7.02621 -8e-4,7.12091 0.01,7.18882 1.1458,7.93695 0.6855,0.45113 1.9358,0.45957 2.66,0.018 z"
         id="path87" /><path
         id="path355"
         style="fill:#ffffff;fill-opacity:1;stroke-width:5.41866;stroke-linecap:round;stroke-linejoin:round;paint-order:markers stroke fill"
         d="m 6057.3399,-732.38282 0.1738,118.16602 0.1739,118.16797 2.0566,4.33203 c 2.3188,4.88284 6.5909,9.62476 11.0039,12.21093 6.7461,3.95354 -4.6945,3.71893 175.2715,3.58204 l 165.002,-0.125 3.83,-1.54688 c 4.1999,-1.69572 10.3977,-6.92536 12.8907,-10.875 0.8591,-1.36078 2.1731,-4.2886 2.9199,-6.50586 1.3459,-3.99504 1.3574,-5.08565 1.3574,-120.71875 v -116.6875 h -187.3398 z m 54.3477,35.96289 32.3847,0.18555 32.3868,0.18554 2.5254,1.92774 c 1.3897,1.06023 3.1032,3.22854 3.8066,4.81836 1.2117,2.7394 1.2689,4.56142 1.0879,34.84375 l -0.1934,31.95312 -2.0469,2.5625 c -4.0448,5.05988 -2.7404,4.89527 -38.6191,4.86719 -25.2521,-0.0189 -32.4217,-0.21335 -34,-0.91797 -2.8637,-1.27835 -5.4281,-4.30121 -6.2676,-7.38867 -0.898,-3.30191 -0.9808,-60.12159 -0.094,-63.94727 0.8356,-3.6023 2.5844,-5.78346 6.0683,-7.57031 z m 101.334,0.006 32.3828,0.18164 32.3828,0.18359 2.459,1.66602 c 1.353,0.91665 3.0572,2.88619 3.7851,4.37695 1.2647,2.58985 1.3231,4.13197 1.3125,34.66602 0,31.91739 1e-4,31.95951 -1.5136,34.60937 -0.8425,1.48755 -2.6687,3.31372 -4.1563,4.15625 l -2.6543,1.50196 -32.332,-0.0293 c -19.8475,-0.0189 -32.9769,-0.28754 -34,-0.69531 v -0.002 c -0.9166,-0.36548 -2.3703,-1.32008 -3.2305,-2.12304 -3.4919,-3.26019 -3.4375,-2.65551 -3.4375,-37.9961 v -32.93359 l 1.5059,-2.26563 c 0.8284,-1.24588 2.8525,-2.94767 4.5,-3.78125 z m 133.4765,0.0469 c 35.5412,0.0151 35.0468,-0.0522 38.6446,5.38477 l 1.8769,2.83594 -0.053,32.38281 c -0.045,28.10986 -0.1931,32.6447 -1.1035,34.38086 -1.3437,2.5587 -3.6686,4.71974 -6.0528,5.62305 -2.9881,1.13212 -64.8771,0.91717 -67.457,-0.23438 -2.7541,-1.2294 -5.5637,-4.37403 -6.3457,-7.10156 -0.3855,-1.34404 -0.6493,-14.85889 -0.6406,-32.94922 0,-28.33206 0.1105,-30.87458 1.2402,-33.33789 1.4566,-3.17189 2.9421,-4.59331 6.248,-5.97461 2.0916,-0.87394 7.0612,-1.02224 33.6426,-1.00977 z m -225.8105,18.65039 v 22 22.00001 h 22.332 22.334 v -22.00001 -22 h -22.334 z m 101.332,0 v 22 22.00001 h 22.334 22.334 v -22.00001 -22 h -22.334 z m 102,0 v 22 22.00001 h 22.334 22.334 v -22.00001 -22 h -22.334 z m -47.6308,81.95313 2.9824,1.57422 c 1.8655,0.98434 3.5447,2.55258 4.4824,4.18945 l 1.498,2.61719 -0.166,32.78516 c -0.1625,32.08909 -0.1965,32.82432 -1.5605,34.66601 -0.7669,1.03488 -2.3856,2.55782 -3.5977,3.38282 l -2.2051,1.5 h -33.4121 -33.414 l -2.3926,-1.62696 c -4.6632,-3.16879 -4.584,-2.49373 -4.584,-38.67383 0,-35.96934 -0.1509,-34.65661 4.4473,-38.16601 l 2.4472,-1.86719 32.7383,-0.18945 z m -133.1797,0.0625 c 25.1402,-0.0113 31.9613,0.16916 33.6972,0.89453 2.7508,1.14936 5.5338,4.42687 6.4707,7.6211 0.4895,1.66873 0.6571,12.52499 0.5176,33.46875 -0.2305,34.66684 -0.087,33.62094 -5.0351,36.98242 l -2.4825,1.68555 h -33.3574 -33.3574 l -2.3906,-1.62696 c -4.9403,-3.3569 -4.894,-3.01565 -5.1094,-37.20703 -0.1247,-19.6645 0.053,-31.41754 0.5019,-33.08008 0.9442,-3.50634 3.0543,-6.01203 6.3047,-7.48828 2.5225,-1.14569 4.9973,-1.23643 34.2403,-1.25 z m 202.957,0 c 35.9157,0.0151 35.375,-0.0574 38.9766,5.38477 l 1.8769,2.83593 v 32.04883 32.04883 l -1.5743,2.75586 c -0.8696,1.52096 -2.7008,3.38645 -4.0879,4.16602 -2.4646,1.38523 -3.1363,1.41211 -35.4902,1.41211 h -32.9766 l -2.2304,-1.50196 c -1.2261,-0.82624 -2.8448,-2.55189 -3.5977,-3.83398 -1.3198,-2.2464 -1.3773,-3.45816 -1.5762,-33.33203 -0.1398,-20.94376 0.038,-31.80002 0.5176,-33.46875 0.937,-3.19423 3.7196,-6.47174 6.4707,-7.6211 1.736,-0.72525 8.5574,-0.90621 33.6973,-0.89453 z m -225.4785,18.65234 v 22 22.00001 h 22.332 22.334 v -22.00001 -22 h -22.334 z m 101.332,0 v 21.55469 c 0,11.85555 0.2012,21.75554 0.4453,22 0.2457,0.24454 10.2951,0.44532 22.334,0.44532 h 21.8887 v -22.00001 -22 h -22.334 z m 102,0 v 22 22.00001 h 22.334 22.334 v -22.00001 -22 h -22.334 z"
         transform="scale(0.26458333)" /></g></g></svg>
