<?xml version="1.0" encoding="utf-8"?>
<!-- Generator: Adobe Illustrator 24.3.0, SVG Export Plug-In . SVG Version: 6.00 Build 0)  -->
<svg version="1.1" id="Layer_1" xmlns="http://www.w3.org/2000/svg" xmlns:xlink="http://www.w3.org/1999/xlink" x="0px" y="0px"
	 viewBox="0 0 100 100" style="enable-background:new 0 0 100 100;" xml:space="preserve">
<style type="text/css">
	.st0{fill:#18A8EC;}
	.st1{fill:#5E696D;}
	.st2{fill:#FFFFFF;}
</style>
<g>
	<path id="path89" class="st0" d="M78.4,14.2l-0.1,2.3c-0.1,2.2-0.1,2.3-0.6,3.4C75.7,24,70.4,25,67,22c-1.6-1.4-2-2.5-2.1-5.5
		l-0.1-2.3l-14.9,0l-14.9,0l-0.1,2.3C35,18.7,35,18.8,34.4,20c-0.9,1.8-2.4,3-4.3,3.5c-3.4,0.9-6.9-1-8.1-4.4
		c-0.1-0.3-0.2-1.5-0.3-2.7l-0.1-2.2l-5.5,0c-5,0-5.6,0.1-6.4,0.3c-1.4,0.5-2.8,1.6-3.5,2.9c-0.8,1.3-0.8,1.9-0.8,7.4V30H50h44.7
		l0-5.4c0-5.3-0.1-5.5-0.4-6.4c-0.4-1.1-1.7-2.5-2.7-3.1c-1.3-0.8-1.7-0.8-7.6-0.9L78.4,14.2z"/>
	<path id="path88" class="st1" d="M72,4.5c-0.7-0.1-1.9,0.4-2.3,1.1c-0.3,0.5-0.3,0.8-0.3,6.3c0,6.4,0,6.5,1,7.2
		c0.6,0.4,1.7,0.4,2.4,0c1-0.6,1-0.8,1-7.2c0-5.4,0-5.8-0.3-6.3C73.2,5,72.7,4.6,72,4.5L72,4.5z M28.8,4.5c-0.4-0.1-0.8,0-1.3,0.2
		c-1.3,0.6-1.3,0.8-1.3,7.2c0,6.1,0,6.2,0.9,7c0.6,0.5,1.7,0.6,2.5,0.1c1-0.6,1-0.6,1-7.2v-6L30,5.2C29.6,4.8,29.2,4.6,28.8,4.5z"/>
	<path id="path87" d="M9.5,99.8c-3.9-0.8-7-3.6-8.2-7.3L1,91.4l0-35.9c0-40.2-0.1-37.2,1.1-39.8c0.9-1.9,2.8-3.8,4.7-4.7
		c2.4-1.2,2.5-1.2,9.1-1.3l5.8-0.1V8c0-3,0.5-4.4,2.1-6c2-2,4.8-2.5,7.4-1.3c1.8,0.8,3,2.2,3.6,4.1c0.2,0.8,0.3,1.5,0.3,3v2H50h14.9
		L65,7.4C65,5.2,65,5.1,65.6,3.9c1-2.1,2.8-3.5,5.1-3.8c3.2-0.5,6.6,1.6,7.4,4.8c0.1,0.5,0.2,1.6,0.2,2.8v1.9l5.8,0.1
		c6.4,0.1,6.7,0.1,8.9,1.2c2.7,1.3,4.8,3.8,5.8,6.8c0.3,0.9,0.3,2.9,0.3,36.8c0,40,0.1,37-1.1,39.5c-0.5,1.1-0.9,1.6-2,2.7
		c-1.5,1.5-2.7,2.2-4.7,2.9l-1.1,0.4l-39.8,0C17.4,100,10.3,100,9.5,99.8L9.5,99.8z M90.6,95.2c1-0.4,2.5-1.7,3.1-2.6
		c0.2-0.3,0.5-1,0.7-1.6c0.3-1,0.3-1.2,0.3-28.8V34.4H50H5.3l0,28.2l0,28.2l0.5,1c0.6,1.2,1.6,2.3,2.6,2.9c1.6,0.9-1.1,0.9,41.8,0.9
		l39.3,0L90.6,95.2z M17.2,85.8C16.1,85,16.1,85.1,16,77c0-4.7,0-7.5,0.1-7.9c0.2-0.8,0.7-1.4,1.5-1.8c0.6-0.3,1.2-0.3,8.2-0.3
		c6,0,7.6,0,8,0.2c0.7,0.3,1.3,1.1,1.5,1.8c0.1,0.4,0.2,3,0.1,8c-0.1,8.3,0,8-1.2,8.8l-0.6,0.4h-8h-8L17.2,85.8z M31.1,76.7v-5.2
		h-5.3h-5.3v5.2v5.2h5.3h5.3V76.7z M41.4,85.8c-1.1-0.8-1.1-0.6-1.1-9.2c0-8.6,0-8.3,1.1-9.1l0.6-0.4l7.8,0l7.8,0l0.7,0.4
		c0.4,0.2,0.8,0.6,1.1,1l0.4,0.6l0,7.8c0,7.6,0,7.8-0.4,8.3c-0.2,0.2-0.6,0.6-0.9,0.8l-0.5,0.4h-8h-8L41.4,85.8z M55.2,76.7v-5.2
		h-5.3h-5.3v5.1c0,2.8,0,5.2,0.1,5.2c0.1,0.1,2.5,0.1,5.3,0.1h5.2L55.2,76.7z M65.7,85.9c-0.3-0.2-0.7-0.6-0.9-0.9
		c-0.3-0.5-0.3-0.8-0.4-7.9c0-5,0-7.6,0.1-8c0.2-0.8,0.9-1.5,1.5-1.8c0.4-0.2,2-0.2,8-0.2c8.6,0,8.4,0,9.3,1.3l0.4,0.7l0,7.6l0,7.6
		l-0.4,0.7c-0.2,0.4-0.6,0.8-1,1c-0.6,0.3-0.7,0.3-8.5,0.3h-7.9L65.7,85.9z M79.6,76.7v-5.2h-5.3h-5.3v5.2v5.2h5.3h5.3V76.7z
		 M17.7,62.2c-0.7-0.3-1.3-1-1.5-1.8c-0.2-0.8-0.2-14.3,0-15.2c0.2-0.9,0.6-1.4,1.4-1.8l0.7-0.4l7.7,0l7.7,0l0.6,0.5
		c0.3,0.3,0.7,0.8,0.9,1.1c0.3,0.7,0.3,1.1,0.3,8.3l0,7.6L35,61.2c-1,1.2-0.7,1.2-9.2,1.2C19.8,62.4,18,62.3,17.7,62.2L17.7,62.2z
		 M31.1,52.7v-5.2h-5.3h-5.3v5.2v5.2h5.3h5.3V52.7z M41.9,62.2c-0.2-0.1-0.6-0.3-0.8-0.5c-0.8-0.8-0.8-0.6-0.8-9.1v-7.9l0.4-0.5
		c0.2-0.3,0.7-0.7,1.1-0.9l0.7-0.4l7.7,0l7.7,0l0.6,0.4c0.3,0.2,0.7,0.7,0.9,1c0.3,0.6,0.3,1,0.3,8.3c0,7.6,0,7.6-0.4,8.2
		c-0.2,0.4-0.6,0.8-1,1l-0.6,0.4l-7.7,0C45.3,62.4,42.1,62.3,41.9,62.2L41.9,62.2z M55.2,52.7v-5.2h-5.3h-5.3v5.2v5.2h5.3h5.3V52.7z
		 M66.1,62.2c-0.7-0.3-1.3-1-1.5-1.7c-0.1-0.3-0.2-3.5-0.2-7.9c0-6.8,0-7.4,0.3-7.9c0.3-0.8,0.7-1.1,1.5-1.4c0.5-0.2,1.7-0.2,8-0.2
		c8.5,0,8.4,0,9.2,1.3l0.4,0.7l0,7.7c0,6.7,0,7.8-0.3,8.2c-0.3,0.6-0.9,1.1-1.4,1.3C81.5,62.5,66.7,62.4,66.1,62.2L66.1,62.2z
		 M79.6,52.7v-5.2h-5.3h-5.3v5.2v5.2h5.3h5.3V52.7z M94.6,24.5c0-5.3-0.1-5.5-0.4-6.4c-0.4-1.1-1.7-2.5-2.7-3.1
		c-1.3-0.8-1.7-0.8-7.6-0.9l-5.5,0l-0.1,2.3c-0.1,2.2-0.1,2.3-0.6,3.4C75.7,24,70.4,25,67,22c-1.6-1.4-2-2.5-2.1-5.5l-0.1-2.3
		l-14.9,0l-14.9,0l-0.1,2.3C35,18.7,35,18.8,34.4,20c-0.9,1.8-2.4,3-4.3,3.5c-3.4,0.9-6.9-1-8.1-4.4c-0.1-0.3-0.2-1.5-0.3-2.7
		l-0.1-2.2l-5.5,0c-5,0-5.6,0.1-6.4,0.3c-1.4,0.5-2.8,1.6-3.5,2.9c-0.8,1.3-0.8,1.9-0.8,7.4V30H50h44.7L94.6,24.5z M29.6,19
		c1-0.6,1-0.6,1-7.2v-6L30,5.2c-0.8-0.8-1.6-0.9-2.5-0.5c-1.3,0.6-1.3,0.8-1.3,7.2c0,6.1,0,6.2,0.9,7C27.7,19.4,28.8,19.5,29.6,19z
		 M72.8,19c1-0.6,1-0.8,1-7.2c0-5.4,0-5.8-0.3-6.3C73.2,5,72.7,4.6,72,4.5c-0.7-0.1-1.9,0.4-2.3,1.1c-0.3,0.5-0.3,0.8-0.3,6.3
		c0,6.4,0,6.5,1,7.2C71,19.4,72.2,19.4,72.8,19L72.8,19z"/>
	<path id="path355" class="st2" d="M5.3,34.4l0,28.2l0,28.2l0.5,1c0.6,1.2,1.6,2.3,2.6,2.9c1.6,0.9-1.1,0.9,41.8,0.9l39.3,0l0.9-0.4
		c1-0.4,2.5-1.7,3.1-2.6c0.2-0.3,0.5-1,0.7-1.6c0.3-1,0.3-1.2,0.3-28.8V34.4H50H5.3z M18.3,43l7.7,0l7.7,0l0.6,0.5
		c0.3,0.3,0.7,0.8,0.9,1.1c0.3,0.7,0.3,1.1,0.3,8.3l0,7.6L35,61.2c-1,1.2-0.7,1.2-9.2,1.2c-6,0-7.7-0.1-8.1-0.2
		c-0.7-0.3-1.3-1-1.5-1.8c-0.2-0.8-0.2-14.3,0-15.2c0.2-0.9,0.6-1.4,1.4-1.8L18.3,43z M42.5,43l7.7,0l7.7,0l0.6,0.4
		c0.3,0.2,0.7,0.7,0.9,1c0.3,0.6,0.3,1,0.3,8.3c0,7.6,0,7.6-0.4,8.2c-0.2,0.4-0.6,0.8-1,1l-0.6,0.4l-7.7,0c-4.7,0-7.9-0.1-8.1-0.2v0
		c-0.2-0.1-0.6-0.3-0.8-0.5c-0.8-0.8-0.8-0.6-0.8-9.1v-7.8l0.4-0.5c0.2-0.3,0.7-0.7,1.1-0.9L42.5,43z M74.3,43c8.5,0,8.4,0,9.2,1.3
		l0.4,0.7l0,7.7c0,6.7,0,7.8-0.3,8.2c-0.3,0.6-0.9,1.1-1.4,1.3c-0.7,0.3-15.5,0.2-16.1-0.1c-0.7-0.3-1.3-1-1.5-1.7
		c-0.1-0.3-0.2-3.5-0.2-7.9c0-6.8,0-7.4,0.3-7.9c0.3-0.8,0.7-1.1,1.5-1.4C66.7,43,67.9,43,74.3,43L74.3,43z M20.4,47.5v5.2v5.2h5.3
		h5.3v-5.2v-5.2h-5.3H20.4z M44.6,47.5v5.2v5.2h5.3h5.3v-5.2v-5.2h-5.3H44.6z M68.9,47.5v5.2v5.2h5.3h5.3v-5.2v-5.2h-5.3H68.9z
		 M57.6,67l0.7,0.4c0.4,0.2,0.8,0.6,1.1,1l0.4,0.6l0,7.8c0,7.6,0,7.8-0.4,8.3c-0.2,0.2-0.6,0.6-0.9,0.8l-0.5,0.4h-8h-8l-0.6-0.4
		c-1.1-0.8-1.1-0.6-1.1-9.2c0-8.6,0-8.3,1.1-9.1l0.6-0.4l7.8,0L57.6,67z M25.8,67c6,0,7.6,0,8,0.2c0.7,0.3,1.3,1.1,1.5,1.8
		c0.1,0.4,0.2,3,0.1,8c-0.1,8.3,0,8-1.2,8.8l-0.6,0.4h-8h-8l-0.6-0.4C16.1,85,16.1,85.1,16,77c0-4.7,0-7.5,0.1-7.9
		c0.2-0.8,0.7-1.4,1.5-1.8C18.3,67,18.8,67,25.8,67z M74.2,67c8.6,0,8.4,0,9.3,1.3l0.4,0.7v7.6v7.6l-0.4,0.7c-0.2,0.4-0.6,0.8-1,1
		c-0.6,0.3-0.7,0.3-8.5,0.3h-7.9l-0.5-0.4c-0.3-0.2-0.7-0.6-0.9-0.9c-0.3-0.5-0.3-0.8-0.4-7.9c0-5,0-7.6,0.1-8
		c0.2-0.8,0.9-1.5,1.5-1.8C66.6,67,68.2,67,74.2,67L74.2,67z M20.4,71.4v5.2v5.2h5.3h5.3v-5.2v-5.2h-5.3H20.4z M44.6,71.4v5.1
		c0,2.8,0,5.2,0.1,5.2c0.1,0.1,2.5,0.1,5.3,0.1h5.2v-5.2v-5.2h-5.3H44.6z M68.9,71.4v5.2v5.2h5.3h5.3v-5.2v-5.2h-5.3H68.9z"/>
</g>
</svg>
