<?xml version="1.0" encoding="utf-8"?>
<!-- Generator: Adobe Illustrator 24.3.0, SVG Export Plug-In . SVG Version: 6.00 Build 0)  -->
<svg version="1.1" id="Layer_1" xmlns="http://www.w3.org/2000/svg" xmlns:xlink="http://www.w3.org/1999/xlink" x="0px" y="0px"
	 viewBox="0 0 100 100" style="enable-background:new 0 0 100 100;" xml:space="preserve">
<style type="text/css">
	.st0{fill:#FCFCFC;}
	.st1{fill:#FFFFFF;}
	.st2{fill:#D8DDE1;}
	.st3{fill:#020202;}
</style>
<g>
	<path id="path274" class="st0" d="M6.5,71.7C6.3,71.4,6.3,71.4,6.5,71.7c0.2,0.1,0.3,0.2,0.3,0.2C6.8,72,6.7,71.9,6.5,71.7
		L6.5,71.7z"/>
	<path id="path273" class="st0" d="M15.1,71.9c-3.1-0.7-5.3-1.8-7.6-4c-1.2-1.2-2.6-3.1-3.3-4.6c-0.4-0.7-0.5-0.9-0.6-0.7
		c-0.2,0.4,0-2,0.3-3.2c1.4-6.8,7.6-12,14.5-12c1.5,0,2.1-0.2,2.6-0.8c0.3-0.4,0.3-0.6,0.3-3c0-2.1,0.1-3,0.3-4.3
		c1.6-8.4,8-14.7,16.5-16.6c2.2-0.5,6.3-0.5,8.4,0c4.4,1,7.7,2.8,10.7,5.8c1.8,1.8,2.9,3.3,3.9,5.3c1,1.9,1.5,2.1,3.7,1
		c4.3-2,8.9-1.9,12.7,0.5c1.4,0.8,3.5,2.8,4.4,4.2c1.8,2.7,2.5,6.3,2,9.5c-0.1,0.9-0.1,1.1,0.1,1.6c0.3,0.6,0.8,0.9,2.3,1.2
		c2.4,0.5,4.5,1.7,6.4,3.5c1.9,1.9,3,3.9,3.5,6.4c0.4,1.7,0.3,2.4-0.2,3.4c-1.8,3.2-4.9,5.6-8.6,6.7c-0.9,0.3-2.6,0.3-35.9,0.3
		C17.6,72.2,16.4,72.2,15.1,71.9L15.1,71.9z"/>
	<path id="path272" class="st0" d="M7.3,72.6l-0.4-0.5L7.3,72.6c0.5,0.4,0.6,0.5,0.5,0.5C7.8,73.1,7.6,72.9,7.3,72.6z"/>
	<path id="path271" class="st0" d="M92.9,73.4c0,0,0.1-0.1,0.3-0.3c0.2-0.2,0.2-0.2,0.1,0.1C93,73.4,92.9,73.5,92.9,73.4z"/>
	<path id="path270" class="st0" d="M8.5,73.8l-0.4-0.5L8.5,73.8C9,74.2,9.1,74.3,9,74.3C9,74.3,8.7,74.1,8.5,73.8z"/>
	<path id="path269" class="st0" d="M91.7,74.5c0,0,0.1-0.1,0.3-0.3c0.2-0.2,0.2-0.2,0.1,0.1C91.8,74.6,91.7,74.7,91.7,74.5z"/>
	<path id="path268" class="st0" d="M84,77.5c0.2,0,0.6,0,0.7,0c0.2,0,0,0.1-0.4,0.1C83.9,77.6,83.8,77.5,84,77.5L84,77.5z"/>
	<path id="path267" class="st1" d="M42.3,22.2c-1.3,0-2.7,0.1-3.6,0.2c-7.8,1.4-14.1,6.8-16.5,14.2c-0.7,2.2-0.9,3.3-1,6.5l-0.1,3.1
		l-0.4,0.4c-0.4,0.4-0.5,0.4-2.3,0.5c-2.8,0.2-4.6,0.6-6.8,1.8c-3.8,2-6.3,5.1-7.6,9.4c-0.4,1.2-0.4,1.5-0.4,4.2
		c0,2.7,0,2.9,0.4,4.2c0.8,2.6,1.9,4.5,3.7,6.4c2.1,2.2,4.7,3.7,7.7,4.3c1.3,0.3,2.6,0.3,35.2,0.3c29.9,0,34,0,35.2-0.2
		c2.3-0.4,4.6-1.5,6.4-3.3c2.5-2.3,4-5.6,4.2-9.1c0.2-4.3-1.5-8.1-4.7-10.8c-1.3-1.1-3.5-2.2-5.1-2.5c-1.8-0.4-2.2-0.6-2.5-1.1
		c-0.3-0.5-0.3-0.6-0.1-2.1c0.1-1,0.2-2.1,0.1-2.7c-0.7-7.6-7.5-13.2-14.9-12.3c-1.6,0.2-3.7,0.8-4.9,1.5c-0.9,0.5-1.9,0.6-2.4,0.2
		c-0.2-0.1-0.7-0.9-1.1-1.8c-2.9-5.7-8.5-9.7-15-10.9C45,22.3,43.7,22.2,42.3,22.2L42.3,22.2z M4.4,61.1C4.4,61.1,4.4,61.1,4.4,61.1
		C4.4,61.1,4.4,61.1,4.4,61.1C4.4,61.1,4.4,61.1,4.4,61.1L4.4,61.1z M4.5,61.3l0.6,1.3c2.2,4.4,5.5,7.2,10,8.4l1.3,0.3c0,0,0,0,0,0
		H51c33.2,0,34.7,0,35.6-0.3c2.8-0.8,5.4-2.6,7.1-4.8c1-1.3,1.6-2.4,1.8-3.1c0,0.4,0,0.7,0,1.1c0,0.8-0.2,1.6-0.3,2.4l-0.2,0.6l0,0
		c-0.6,2.4-1.9,4.5-3.6,6.2c-1.2,1.2-2.6,2.1-4.1,2.7l0.1,0h-0.1v0c0,0,0,0,0,0h-0.2c0,0,0,0,0,0.1c-0.6,0.2-1.3,0.4-1.9,0.5
		c-0.5,0.1-1.9,0.2-6.7,0.2c-4.8,0-13.2,0-28,0c-32.2,0-33.4,0-34.7-0.3c-3-0.6-5.4-2.1-7.5-4.4c-0.6-0.6-1.1-1.3-1.5-2l0,0.1
		c0,0,0,0,0,0l0,0c0,0,0,0,0,0l-0.1-0.1l0.1,0c-0.9-1.3-1.5-2.7-2-4.5c-0.4-1.3-0.4-1.5-0.4-4.2C4.5,61.4,4.5,61.3,4.5,61.3
		L4.5,61.3z"/>
	<path id="path73" class="st2" d="M4.4,61.1C4.4,61.1,4.4,61.1,4.4,61.1C4.4,61.1,4.4,61.1,4.4,61.1z M4.5,61.3c0,0.1,0,0.1,0,0.2
		c0,2.7,0,3,0.4,4.2c0.5,1.8,1.2,3.2,2,4.5l-0.1,0l0.1,0.1c0,0,0-0.1,0,0l0-0.1c0.4,0.7,0.9,1.3,1.5,2c2.1,2.3,4.6,3.7,7.5,4.4
		c1.3,0.3,2.5,0.3,34.7,0.3c14.7,0,23.1,0,28,0c4.8,0,6.2-0.1,6.7-0.2c0.6-0.1,1.3-0.3,1.9-0.5c0,0,0,0,0-0.1h0.2c0,0,0,0,0,0v0h0.1
		l-0.1,0c1.5-0.6,2.9-1.5,4.1-2.7c1.7-1.7,2.9-3.8,3.6-6.2l0,0l0.2-0.6c0.2-0.8,0.3-1.6,0.3-2.4c0-0.4,0-0.7,0-1.1
		c-0.2,0.7-0.8,1.8-1.8,3.1c-1.7,2.2-4.3,4-7.1,4.8c-0.9,0.3-2.4,0.3-35.6,0.3H16.4c0,0,0,0,0,0l-1.3-0.3c-4.5-1.2-7.8-4-10-8.4
		L4.5,61.3z"/>
	<path id="path71" class="st3" d="M16.5,81.2C9.3,80.3,3.2,75.5,1,68.8c-0.8-2.3-1-3.6-1-6.2c0-3.4,0.5-5.6,2-8.6
		c2.7-5.4,8.2-9.2,14.2-10l1.3-0.2l0.1-1.8C18,34.3,22,27.3,28.5,22.9c8.5-5.8,20.2-5.6,28.4,0.6c2.1,1.6,4.4,4,5.8,6.1
		c0.6,0.9,1.1,1.7,1.1,1.7c0,0,0.7-0.2,1.4-0.4c2.4-0.8,3-0.8,5.7-0.8c2.1,0,2.7,0.1,3.9,0.4c5.2,1.4,9.4,5,11.5,9.8
		c1,2.3,1.6,5.6,1.4,7.4l-0.1,0.8l0.9,0.3c2.4,0.7,5.1,2.4,7,4.4c3,3.2,4.5,6.9,4.5,11.4c0,3.7-1,6.8-3.1,9.8
		c-0.9,1.3-3,3.3-4.3,4.2c-2,1.4-4.7,2.4-7.3,2.7C83.7,81.4,18.3,81.4,16.5,81.2L16.5,81.2z M85.8,77.5c2.3-0.4,4.6-1.5,6.4-3.3
		c2.5-2.3,4-5.6,4.2-9.1c0.2-4.3-1.5-8.1-4.7-10.8c-1.3-1.1-3.5-2.2-5.1-2.5c-1.8-0.4-2.2-0.6-2.5-1.1c-0.3-0.5-0.3-0.6-0.1-2.1
		c0.1-1,0.2-2.1,0.1-2.7c-0.7-7.6-7.5-13.2-14.9-12.3c-1.6,0.2-3.7,0.8-4.9,1.5c-0.9,0.5-1.9,0.6-2.4,0.2c-0.2-0.1-0.7-0.9-1.1-1.8
		c-2.9-5.7-8.5-9.7-15-10.9c-1.8-0.3-5.4-0.3-7.2,0c-7.8,1.4-14.1,6.8-16.5,14.2c-0.7,2.2-0.9,3.3-1,6.5l-0.1,3.1l-0.4,0.4
		c-0.4,0.4-0.5,0.4-2.3,0.5c-2.8,0.2-4.6,0.6-6.8,1.8c-3.8,2-6.3,5.1-7.6,9.4c-0.4,1.2-0.4,1.5-0.4,4.2c0,2.7,0,2.9,0.4,4.2
		c0.8,2.6,1.9,4.5,3.7,6.4c2.1,2.2,4.7,3.7,7.7,4.3c1.3,0.3,2.6,0.3,35.2,0.3C80.5,77.7,84.7,77.7,85.8,77.5L85.8,77.5z"/>
</g>
</svg>
