<?xml version="1.0" encoding="UTF-8" standalone="no"?>
<!-- Created with Inkscape (http://www.inkscape.org/) -->

<svg
   viewBox="0 0 100 100"
   xmlns="http://www.w3.org/2000/svg"><defs
     id="defs1" /><g
     id="layer1"
     transform="translate(1105.3594,476.89293)"><g
       id="g284"
       transform="matrix(0.36909469,0,0,0.36909469,-1265.1922,-363.96488)"
       style="stroke-width:2.70933"><path
         style="fill:none;stroke-width:2.70933"
         d="M 433.04016,-170.4929 V -305.95956 H 568.50682 703.97348 V -170.4929 -35.02624 H 568.50682 433.04016 Z"
         id="path74" /><path
         style="fill:#fcfcfc;stroke-width:2.70933"
         d="m 491.47933,-132.06218 c -0.32911,-0.41964 -0.31975,-0.429 0.0999,-0.0999 0.25466,0.19972 0.46302,0.40808 0.46302,0.46302 0,0.21776 -0.21727,0.0776 -0.56291,-0.36313 z"
         id="path274" /><path
         style="fill:#fcfcfc;stroke-width:2.70933"
         d="m 506.72662,-131.60595 c -5.56369,-1.17304 -9.39891,-3.2021 -13.45226,-7.11702 -2.20031,-2.12517 -4.55703,-5.4166 -5.85292,-8.17428 -0.62087,-1.32122 -0.82563,-1.56907 -0.9824,-1.18915 -0.32525,0.7882 0.0411,-3.59792 0.47784,-5.72125 2.46858,-12.00123 13.52915,-21.16168 25.57292,-21.17969 2.60499,-0.004 3.78557,-0.37172 4.62715,-1.4416 0.51943,-0.66035 0.557,-1.02665 0.55283,-5.38988 -0.004,-3.71304 0.11178,-5.27243 0.55754,-7.53882 2.91609,-14.82627 14.12855,-26.09328 29.19528,-29.33729 3.84117,-0.82704 11.07289,-0.83397 14.78258,-0.0142 7.79214,1.722 13.58329,4.87201 19.01686,10.34396 3.19575,3.21831 5.08771,5.81407 6.88242,9.44262 1.69353,3.42398 2.70748,3.7081 6.62683,1.85694 7.5605,-3.57093 15.66139,-3.27724 22.52972,0.81678 2.49429,1.48677 6.18067,4.99765 7.73425,7.36603 3.13328,4.77657 4.46954,11.14776 3.53057,16.83347 -0.26283,1.59151 -0.24558,1.97951 0.12231,2.75099 0.53396,1.11973 1.33835,1.53863 4.00885,2.08769 4.2366,0.87103 7.96821,2.93415 11.27072,6.2313 3.28772,3.28239 5.26063,6.90831 6.20712,11.40777 0.62404,2.96658 0.52633,4.31316 -0.43486,5.99314 -3.22341,5.63394 -8.70318,9.92452 -15.17961,11.88541 -1.51237,0.45791 -4.51754,0.48322 -63.5,0.53488 -59.8984,0.0525 -61.98996,0.0379 -64.29374,-0.44784 z"
         id="path273" /><path
         style="fill:#fcfcfc;stroke-width:2.70933"
         d="m 492.95164,-130.34239 -0.77711,-0.85989 0.8599,0.7771 c 0.80154,0.72438 0.98151,0.94269 0.7771,0.94269 -0.0455,0 -0.43248,-0.38695 -0.85989,-0.8599 z"
         id="path272" /><path
         style="fill:#fcfcfc;stroke-width:2.70933"
         d="m 644.44223,-129.05322 c 0,-0.0549 0.20836,-0.2633 0.46302,-0.46302 0.41965,-0.32911 0.42901,-0.31975 0.0999,0.0999 -0.34564,0.44073 -0.56292,0.58088 -0.56292,0.36312 z"
         id="path271" /><path
         style="fill:#fcfcfc;stroke-width:2.70933"
         d="m 495.0683,-128.22572 -0.7771,-0.85989 0.8599,0.7771 c 0.80154,0.72437 0.98151,0.94269 0.7771,0.94269 -0.0455,0 -0.43249,-0.38696 -0.8599,-0.8599 z"
         id="path270" /><path
         style="fill:#fcfcfc;stroke-width:2.70933"
         d="m 642.32557,-126.93655 c 0,-0.0549 0.20836,-0.2633 0.46302,-0.46302 0.41964,-0.32911 0.429,-0.31975 0.0999,0.0999 -0.34564,0.44073 -0.56291,0.58089 -0.56291,0.36313 z"
         id="path269" /><path
         style="fill:#fcfcfc;stroke-width:2.70933"
         d="m 628.63702,-121.73485 c 0.40218,-0.0608 0.99749,-0.0592 1.32291,0.004 0.32543,0.0628 -0.004,0.11256 -0.73124,0.11058 -0.7276,-0.002 -0.99386,-0.0534 -0.59167,-0.11419 z"
         id="path268" /><path
         id="path267"
         style="fill:#ffffff;fill-opacity:1;stroke-width:2.70933"
         d="m 554.88809,-219.52975 c -2.38043,-0.003 -4.77349,0.14329 -6.41666,0.43976 -13.80056,2.49012 -24.9748,12.10517 -29.2654,25.18141 -1.26376,3.85149 -1.55672,5.8092 -1.73064,11.57036 l -0.16536,5.48493 -0.71986,0.71882 c -0.68294,0.68219 -0.8935,0.72884 -4.10104,0.90692 -4.92107,0.27321 -8.19053,1.14038 -11.95896,3.17242 -6.71917,3.62317 -11.10721,9.03443 -13.4369,16.5685 -0.67643,2.18755 -0.71857,2.61929 -0.71262,7.35097 0.006,4.70515 0.0529,5.17957 0.72812,7.40833 1.41729,4.67827 3.29775,7.96123 6.46472,11.2851 3.7784,3.96556 8.32051,6.49638 13.68237,7.62383 2.29426,0.48242 4.57174,0.5014 62.3409,0.51934 52.92725,0.0164 60.2352,-0.0295 62.30937,-0.39015 4.10128,-0.71316 8.0557,-2.71817 11.36003,-5.75986 4.4612,-4.10663 7.12255,-9.86274 7.45123,-16.11684 0.39688,-7.55166 -2.57194,-14.37263 -8.32869,-19.13475 -2.31353,-1.91381 -6.27165,-3.89472 -8.95295,-4.48087 -3.24891,-0.71024 -3.86657,-0.98363 -4.43745,-1.96112 -0.48871,-0.83679 -0.49828,-1.04138 -0.17363,-3.77134 0.20318,-1.70849 0.27041,-3.69371 0.16433,-4.86431 -1.2124,-13.37931 -13.22072,-23.34617 -26.2847,-21.81675 -2.88077,0.33725 -6.63054,1.47966 -8.72712,2.65875 -1.61143,0.90626 -3.31777,1.0322 -4.20129,0.31006 -0.30761,-0.25143 -1.18428,-1.66536 -1.94769,-3.14193 -5.1711,-10.00182 -14.97054,-17.11521 -26.59734,-19.30631 -1.59424,-0.30044 -3.96233,-0.45236 -6.34277,-0.45527 z m -67.09254,68.86091 c -0.0112,-0.005 -0.0448,-0.005 -0.0667,0.017 -9.7e-4,1.2e-4 -0.001,-0.002 -0.002,-0.002 0.0685,0 0.0799,-0.0106 0.0687,-0.0155 z m 0.11007,0.2496 1.12189,2.25257 c 3.86099,7.75344 9.75609,12.69377 17.63665,14.78256 l 2.24793,0.59428 c 0.0251,0.007 0.0505,0.0102 0.0765,0.0103 h 61.34251 c 58.74175,0 61.46016,-0.0222 63.06333,-0.49248 4.9368,-1.44802 9.51734,-4.55149 12.58683,-8.52454 1.77132,-2.29272 2.87037,-4.20458 3.20446,-5.49527 0.015,0.63526 0.0384,1.26855 0.006,1.91512 -0.0745,1.47451 -0.28309,2.91803 -0.59841,4.32429 l -0.31574,1.02061 0.0212,-0.004 c -1.13035,4.2063 -3.27566,8.00671 -6.34845,10.94817 -2.19522,2.10136 -4.68704,3.69748 -7.31273,4.73666 l 0.10387,0.0238 h -0.10955 v -0.0217 c -0.0209,0.008 -0.042,0.0137 -0.063,0.0217 h -0.29662 c 0,0.0265 0.0296,0.0621 0.0326,0.0904 -1.11332,0.42079 -2.24244,0.76146 -3.38688,0.96841 -0.9627,0.17406 -3.28237,0.28413 -11.85405,0.34003 -8.57167,0.0559 -23.40913,0.0638 -49.48277,0.0558 -56.91806,-0.0184 -59.1364,-0.0404 -61.3575,-0.52606 -5.22522,-1.14256 -9.63652,-3.69768 -13.31856,-7.71633 -1.0391,-1.1341 -1.89566,-2.28372 -2.6846,-3.47007 l 0.045,0.21136 c 0.0154,-0.0259 0.0178,-0.0351 0.007,0.031 l -0.007,-0.031 c -0.007,0.0118 -0.01,0.0207 -0.0274,0.0387 l -0.2098,-0.21807 0.19017,-0.0357 c -1.54269,-2.32043 -2.69311,-4.80887 -3.61012,-7.95662 -0.6629,-2.27529 -0.69835,-2.67752 -0.70435,-7.49618 0,-0.15622 0.001,-0.26092 0.002,-0.37827 z" /><path
         id="path73"
         style="fill:#d8dde1;stroke-width:2.70933"
         d="m 487.72682,-150.65357 c 0.13694,-1e-5 0.0457,-0.0413 0.002,0.002 -9.7e-4,1.2e-4 -9.5e-4,-0.002 -0.002,-0.002 z m 0.17895,0.23413 c -8.1e-4,0.11735 -0.002,0.222 -0.002,0.37822 0.006,4.81866 0.0414,5.22098 0.7043,7.49627 0.91701,3.14775 2.06739,5.63611 3.61008,7.95654 l -0.1905,0.0359 0.20976,0.21813 c 0.0554,-0.0576 0.0507,-0.10436 0.0346,-0.008 l -0.0519,-0.24213 c 0.78894,1.18635 1.64537,2.33588 2.68447,3.46998 3.68204,4.01865 8.09322,6.57384 13.31844,7.7164 2.2211,0.48569 4.4399,0.50793 61.35796,0.5263 26.07364,0.008 40.91109,-7e-5 49.48276,-0.056 8.57168,-0.0559 10.8913,-0.16612 11.854,-0.34018 1.14444,-0.20695 2.27354,-0.54778 3.38686,-0.96857 -0.003,-0.0283 -0.0327,-0.0636 -0.0327,-0.0901 h 0.29635 c 0.021,-0.008 0.0425,-0.0137 0.0634,-0.022 v 0.022 h 0.10967 l -0.10391,-0.0239 c 2.62569,-1.03918 5.11733,-2.63533 7.31255,-4.73669 3.07279,-2.94146 5.21808,-6.74196 6.34843,-10.94826 l -0.0212,0.004 0.3158,-1.02073 c 0.31532,-1.40626 0.52395,-2.84996 0.59847,-4.32447 0.0327,-0.64657 0.009,-1.27983 -0.006,-1.91509 -0.33409,1.29069 -1.43275,3.20241 -3.20407,5.49513 -3.06949,3.97305 -7.65038,7.07684 -12.58718,8.52486 -1.60317,0.47028 -4.32117,0.49229 -63.06292,0.49229 h -61.34255 c -0.026,-9e-5 -0.0518,-0.003 -0.0769,-0.0102 l -2.24765,-0.59434 c -7.88056,-2.08879 -13.77568,-7.02899 -17.63667,-14.78243 z" /><path
         style="fill:#020202;stroke-width:2.70933"
         d="m 509.24016,-115.22386 c -12.78403,-1.44828 -23.5559,-10.0138 -27.50674,-21.87267 -1.34621,-4.04079 -1.71291,-6.39396 -1.72025,-11.03908 -0.01,-6.0768 0.91239,-9.98591 3.58823,-15.21354 4.85416,-9.48331 14.57752,-16.36767 25.09524,-17.76801 l 2.31885,-0.30873 0.16657,-3.0978 c 0.73467,-13.66335 7.72364,-25.96714 19.22475,-33.8444 15.005,-10.27712 35.8261,-9.8436 50.32607,1.04785 3.65726,2.74709 7.85189,7.13994 10.24599,10.73017 1.06066,1.59058 1.96397,2.93077 2.00735,2.97821 0.0434,0.0474 1.19099,-0.26761 2.55026,-0.70011 4.18415,-1.33136 5.33411,-1.50073 10.01201,-1.47466 3.80167,0.0212 4.69611,0.11227 6.92402,0.70506 9.14949,2.43443 16.68883,8.88443 20.3726,17.42902 1.73729,4.02967 2.86329,9.99024 2.47495,13.10129 l -0.17046,1.36561 1.53746,0.44408 c 4.18471,1.20871 9.02247,4.26614 12.38572,7.82766 5.31311,5.62635 7.90047,12.20427 7.90047,20.08559 0,6.51223 -1.70559,11.95924 -5.4417,17.37877 -1.5519,2.25115 -5.22112,5.86404 -7.58752,7.47103 -3.58037,2.43139 -8.37946,4.20533 -12.86325,4.75481 -2.87884,0.35279 -118.72644,0.35265 -121.84062,-1.5e-4 z m 122.66585,-6.46514 c 4.10128,-0.71316 8.05608,-2.71836 11.36041,-5.76005 4.4612,-4.10663 7.12235,-9.8628 7.45103,-16.1169 0.39688,-7.55166 -2.57218,-14.37277 -8.32893,-19.13489 -2.31353,-1.91381 -6.27142,-3.89478 -8.95272,-4.48093 -3.24891,-0.71024 -3.86676,-0.98323 -4.43764,-1.96072 -0.48871,-0.83679 -0.49812,-1.04135 -0.17347,-3.77131 0.20318,-1.70849 0.27013,-3.69369 0.16405,-4.86429 -1.2124,-13.37931 -13.22055,-23.3465 -26.28453,-21.81708 -2.88077,0.33725 -6.63066,1.47965 -8.72724,2.65874 -1.61143,0.90626 -3.3178,1.03218 -4.20132,0.31004 -0.30761,-0.25143 -1.1839,-1.66524 -1.94731,-3.14181 -5.1711,-10.00182 -14.97076,-17.11499 -26.59756,-19.30609 -3.18847,-0.60087 -9.47282,-0.60854 -12.75915,-0.0156 -13.80056,2.49012 -24.97505,12.10509 -29.26565,25.18133 -1.26376,3.85149 -1.55654,5.80914 -1.73046,11.5703 l -0.16557,5.48488 -0.7199,0.71911 c -0.68294,0.68219 -0.89351,0.72875 -4.10105,0.90683 -4.92107,0.27321 -8.19022,1.14048 -11.95865,3.17252 -6.71917,3.62317 -11.10751,9.034 -13.4372,16.56807 -0.67643,2.18755 -0.71829,2.61953 -0.71234,7.35121 0.006,4.70515 0.0525,5.17957 0.72772,7.40833 1.41729,4.67827 3.29803,7.96122 6.465,11.28509 3.7784,3.96556 8.32039,6.49639 13.68225,7.62384 2.29426,0.48242 4.5717,0.50139 62.34086,0.51933 52.92725,0.0164 60.2352,-0.0293 62.30937,-0.38998 z"
         id="path71" /></g></g></svg>
