<?xml version="1.0" encoding="UTF-8" standalone="no"?>
<!-- Created with Inkscape (http://www.inkscape.org/) -->

<svg
   width="270.93332mm"
   height="270.93332mm"
   viewBox="0 0 270.93332 270.93332"
   version="1.1"
   id="svg1"
   xml:space="preserve"
   xmlns="http://www.w3.org/2000/svg"
   xmlns:svg="http://www.w3.org/2000/svg"><defs
     id="defs1" /><g
     id="layer1"
     transform="translate(-1787.7066,305.95957)"><g
       id="g356"><path
         style="fill:none;fill-opacity:1"
         d="m 1516.7735,-170.4929 v -135.46666 h 135.4666 135.4667 v 135.46666 135.46666 h -135.4667 -135.4666 z"
         id="path343" /><path
         id="path89"
         style="fill:#18a8ec"
         d="m 1683.7257,-216.23745 -0.089,2.54352 c -0.085,2.40723 -0.1195,2.60778 -0.6574,3.7455 -2.1598,4.56829 -8.1229,5.75832 -11.8173,2.35852 -1.7453,-1.6061 -2.19,-2.77072 -2.3255,-6.09265 l -0.1033,-2.53215 -16.4926,0.0119 -16.4925,0.0114 -0.088,2.53008 c -0.087,2.48816 -0.099,2.5519 -0.7468,3.8623 -0.9987,2.01993 -2.6478,3.37001 -4.8023,3.93103 -3.82,0.99471 -7.7066,-1.14094 -8.9627,-4.92477 -0.097,-0.29381 -0.226,-1.63505 -0.2853,-2.98069 l -0.1075,-2.44688 -6.1505,0.0274 c -5.5039,0.0242 -6.2488,0.0614 -7.0854,0.35554 -1.5843,0.55683 -3.0893,1.78142 -3.9175,3.1874 -0.8444,1.43336 -0.9266,2.16336 -0.9266,8.23412 v 5.70095 h 49.5737 49.5743 l -0.054,-6.04149 c -0.051,-5.84689 -0.066,-6.07385 -0.462,-7.05487 -0.477,-1.1815 -1.8523,-2.7671 -2.9672,-3.42046 -1.4821,-0.86856 -1.9158,-0.91784 -8.4714,-0.96325 z" /><path
         id="path88"
         style="fill:#5e696d"
         d="m 1676.6346,-227.02025 c -0.7959,-0.16582 -2.0598,0.42294 -2.5171,1.17305 -0.341,0.55921 -0.3565,0.87226 -0.3571,7.02645 -8e-4,7.12091 0.01,7.18885 1.1456,7.93698 0.6855,0.45113 1.9356,0.45966 2.6598,0.0181 1.1024,-0.67224 1.1325,-0.88473 1.1317,-7.98453 -6e-4,-6.04397 -0.02,-6.44392 -0.3441,-6.97528 -0.4034,-0.66162 -0.936,-1.03168 -1.7188,-1.19476 z m -47.9097,0.005 c -0.4559,-0.0843 -0.9351,0.008 -1.4754,0.26923 -1.4333,0.69385 -1.4595,0.83614 -1.464,7.97212 0,6.73577 0.018,6.90042 1.0444,7.76387 0.7085,0.5962 1.9231,0.6536 2.7797,0.13126 1.1064,-0.67458 1.111,-0.70832 1.111,-8.04499 v -6.64404 l -0.6614,-0.65835 c -0.446,-0.44392 -0.8785,-0.70482 -1.3343,-0.7891 z" /><path
         style="fill:#000000"
         d="m 1607.3241,-121.19972 c -4.2756,-0.94224 -7.7294,-4.02266 -9.0889,-8.10638 l -0.411,-1.23472 -0.049,-39.86389 c -0.055,-44.67796 -0.1484,-41.34263 1.2408,-44.18542 1.0385,-2.12526 3.1332,-4.22542 5.2461,-5.25974 2.6615,-1.30291 2.8254,-1.32564 10.0983,-1.40008 l 6.4822,-0.0664 v -1.8163 c 0,-3.28432 0.569,-4.92347 2.3179,-6.67714 2.2302,-2.23644 5.3041,-2.7872 8.1877,-1.46704 1.9454,0.89064 3.3341,2.46659 3.9679,4.50288 0.2624,0.84291 0.3432,1.61849 0.3432,3.29186 v 2.18915 h 16.561 16.5609 l 0.066,-2.51355 c 0.064,-2.45574 0.081,-2.54398 0.696,-3.83747 1.1203,-2.3543 3.0716,-3.83444 5.6068,-4.25312 3.5749,-0.59038 7.2974,1.82974 8.2357,5.3541 0.1468,0.55149 0.2481,1.80046 0.2492,3.0759 v 2.1474 l 6.4823,0.0734 c 7.1478,0.081 7.4114,0.11527 9.8337,1.2781 3.0386,1.45876 5.38,4.24097 6.3864,7.58893 0.2995,0.99633 0.3187,3.16816 0.3627,40.87246 0.052,44.41852 0.1449,41.0451 -1.2108,43.846 -0.5976,1.23459 -1.0165,1.79718 -2.2542,3.02732 -1.6338,1.62375 -2.9838,2.45152 -5.2244,3.20329 l -1.2347,0.41428 -44.1855,0.0274 c -36.5765,0.0227 -44.3719,-0.0137 -45.2688,-0.21133 z m 89.9386,-5.16432 c 1.1112,-0.44866 2.7511,-1.83203 3.4107,-2.87704 0.2273,-0.36004 0.575,-1.13461 0.7726,-1.72126 0.3561,-1.05702 0.3593,-1.34569 0.3593,-31.94028 v -30.87362 h -49.5671 -49.5671 l 0.046,31.26493 0.046,31.26493 0.5444,1.14653 c 0.6135,1.29192 1.7439,2.54613 2.9115,3.23039 1.7849,1.04604 -1.2421,0.98417 46.3739,0.94795 l 43.6563,-0.0332 z m -81.3807,-10.33962 c -1.3071,-0.88818 -1.2947,-0.79823 -1.3517,-9.8447 -0.033,-5.2029 0.014,-8.31244 0.1329,-8.75232 0.2498,-0.92772 0.808,-1.59075 1.668,-1.98134 0.6674,-0.30313 1.3222,-0.32703 9.0594,-0.33062 6.6517,-0.003 8.4566,0.0448 8.9159,0.23672 0.7278,0.3041 1.4639,1.17117 1.7118,2.01631 0.1295,0.44152 0.1739,3.31423 0.137,8.8556 -0.061,9.17227 -0.023,8.89513 -1.3323,9.78452 l -0.6564,0.44603 h -8.8258 -8.8258 z m 15.3679,-10.15313 v -5.82084 h -5.9091 -5.9091 v 5.82084 5.82083 h 5.9091 5.9091 z m 11.4431,10.15313 c -1.2338,-0.83841 -1.2127,-0.66 -1.2127,-10.23265 0,-9.51689 -0.04,-9.16929 1.1766,-10.09782 l 0.6477,-0.49419 8.6616,-0.0503 8.6615,-0.0503 0.7892,0.41633 c 0.4936,0.26044 0.9377,0.67556 1.1858,1.10865 l 0.3967,0.69233 -0.044,8.67438 c -0.043,8.49024 -0.052,8.68494 -0.4129,9.17222 -0.2029,0.27381 -0.6314,0.67644 -0.9521,0.89472 l -0.5832,0.39687 h -8.8406 -8.8406 z m 15.3679,-10.15313 v -5.82084 h -5.909 -5.9091 v 5.70325 c 0,3.13678 0.053,5.75615 0.1176,5.82083 0.065,0.0647 2.7238,0.11759 5.9091,0.11759 h 5.7914 z m 11.6332,10.18586 c -0.3244,-0.21861 -0.7529,-0.67502 -0.9521,-1.01424 -0.3492,-0.59436 -0.3643,-0.91471 -0.4169,-8.81884 -0.037,-5.54137 0.01,-8.41408 0.1369,-8.8556 0.2479,-0.84514 0.9839,-1.71221 1.7118,-2.01631 0.4593,-0.19189 2.2642,-0.23981 8.9158,-0.23672 9.5027,0.004 9.3599,-0.0153 10.3128,1.4246 l 0.4967,0.75062 -8e-4,8.47955 -9e-4,8.47955 -0.4168,0.72886 c -0.2301,0.40242 -0.7145,0.89617 -1.0815,1.10243 -0.6521,0.36651 -0.8296,0.37357 -9.3899,0.37357 h -8.7253 z m 15.3543,-10.18586 v -5.82084 h -5.909 -5.9091 v 5.82084 5.82083 h 5.9091 5.909 z m -68.7035,-16.12501 c -0.7577,-0.33823 -1.4361,-1.13796 -1.6582,-1.95485 -0.2376,-0.87363 -0.2597,-15.90748 -0.025,-16.91969 0.2211,-0.95311 0.6836,-1.5302 1.6054,-2.00297 l 0.7834,-0.40183 8.5688,0.0491 8.5687,0.049 0.6685,0.51003 c 0.3677,0.28052 0.8208,0.8542 1.0069,1.27484 0.3206,0.7248 0.3356,1.20706 0.2877,9.21926 l -0.051,8.45446 -0.5417,0.67765 c -1.0702,1.33876 -0.7251,1.29526 -10.218,1.28783 -6.6813,-0.005 -8.5783,-0.0564 -8.9959,-0.24283 z m 14.9049,-10.50971 v -5.82084 h -5.909 -5.9091 v 5.82084 5.82083 h 5.9091 5.909 z m 11.9945,10.56155 c -0.2425,-0.0967 -0.627,-0.34963 -0.8546,-0.56208 -0.9239,-0.86259 -0.9094,-0.70229 -0.9094,-10.05282 v -8.71393 l 0.3983,-0.59935 c 0.2192,-0.32964 0.7549,-0.77979 1.1908,-1.00034 l 0.7923,-0.401 8.568,0.0482 8.5679,0.0482 0.651,0.44097 c 0.358,0.24253 0.8085,0.76369 1.0011,1.15812 0.3346,0.68523 0.3501,1.09342 0.3473,9.17222 0,8.44481 0,8.45593 -0.4005,9.15704 -0.2229,0.39358 -0.7059,0.87661 -1.0995,1.09953 l -0.702,0.39756 -8.5548,-0.008 c -5.2513,-0.005 -8.7251,-0.0762 -8.9958,-0.18409 z m 14.8166,-10.56155 v -5.82084 h -5.909 -5.9091 v 5.82084 5.82083 h 5.9091 5.909 z m 12.0826,10.50971 c -0.7287,-0.32528 -1.4722,-1.15711 -1.6791,-1.87877 -0.102,-0.35561 -0.1714,-3.93157 -0.1691,-8.71797 0,-7.49619 0.029,-8.16886 0.3279,-8.82061 0.3854,-0.83923 0.7787,-1.21531 1.6534,-1.58078 0.5534,-0.23123 1.8682,-0.27073 8.9012,-0.26743 9.4036,0.004 9.2727,-0.0138 10.2246,1.42472 l 0.4967,0.75074 -0.014,8.56762 c -0.012,7.4374 -0.051,8.63743 -0.2919,9.09679 -0.3555,0.67699 -0.9709,1.24856 -1.6017,1.48756 -0.7906,0.29954 -17.1653,0.24278 -17.8479,-0.0619 z m 14.9049,-10.50971 v -5.82084 h -5.909 -5.9091 v 5.82084 5.82083 h 5.9091 5.909 z m 16.7213,-31.26494 c -0.051,-5.84689 -0.066,-6.07394 -0.462,-7.05496 -0.477,-1.1815 -1.8523,-2.76683 -2.9672,-3.42019 -1.4821,-0.86856 -1.916,-0.9179 -8.4716,-0.96331 l -6.1434,-0.0426 -0.089,2.54346 c -0.085,2.40723 -0.1197,2.60784 -0.6576,3.74556 -2.1598,4.56829 -8.1231,5.75854 -11.8175,2.35874 -1.7453,-1.6061 -2.1899,-2.77094 -2.3254,-6.09287 l -0.1034,-2.53204 -16.4923,0.0116 -16.4924,0.0116 -0.088,2.53004 c -0.087,2.48816 -0.099,2.5521 -0.7469,3.8625 -0.9987,2.01993 -2.6478,3.3698 -4.8023,3.93082 -3.82,0.99471 -7.7066,-1.14086 -8.9627,-4.92469 -0.097,-0.29381 -0.2258,-1.63517 -0.2851,-2.98081 l -0.1078,-2.44662 -6.1503,0.027 c -5.5039,0.0242 -6.2485,0.0615 -7.0851,0.35561 -1.5843,0.55683 -3.0898,1.78173 -3.918,3.18771 -0.8444,1.43336 -0.9265,2.16334 -0.9265,8.2341 v 5.70062 h 49.5739 49.5739 z m -72.1601,-6.12237 c 1.1064,-0.67458 1.111,-0.70816 1.111,-8.04483 v -6.64409 l -0.6614,-0.65846 c -0.8919,-0.88784 -1.7291,-1.04262 -2.8097,-0.5195 -1.4333,0.69385 -1.4594,0.83602 -1.4639,7.972 0,6.73577 0.018,6.90024 1.0441,7.76369 0.7085,0.5962 1.9233,0.65353 2.7799,0.13119 z m 47.9564,0.013 c 1.1024,-0.67224 1.1325,-0.88453 1.1317,-7.98433 -6e-4,-6.04397 -0.02,-6.44385 -0.3443,-6.97521 -0.4034,-0.66162 -0.9361,-1.03192 -1.7189,-1.195 -0.7959,-0.16582 -2.0595,0.4233 -2.5168,1.17341 -0.341,0.55921 -0.3569,0.87202 -0.3575,7.02621 -8e-4,7.12091 0.01,7.18882 1.1458,7.93695 0.6855,0.45113 1.9358,0.45957 2.66,0.018 z"
         id="path87" /><path
         id="path355"
         style="fill:#ffffff;fill-opacity:1;stroke-width:2;stroke-linecap:round;stroke-linejoin:round;paint-order:markers stroke fill"
         d="m 6057.3399,-732.38282 0.1738,118.16602 0.1739,118.16797 2.0566,4.33203 c 2.3188,4.88284 6.5909,9.62476 11.0039,12.21093 6.7461,3.95354 -4.6945,3.71893 175.2715,3.58204 l 165.002,-0.125 3.83,-1.54688 c 4.1999,-1.69572 10.3977,-6.92536 12.8907,-10.875 0.8591,-1.36078 2.1731,-4.2886 2.9199,-6.50586 1.3459,-3.99504 1.3574,-5.08565 1.3574,-120.71875 v -116.6875 h -187.3398 z m 54.3477,35.96289 32.3847,0.18555 32.3868,0.18554 2.5254,1.92774 c 1.3897,1.06023 3.1032,3.22854 3.8066,4.81836 1.2117,2.7394 1.2689,4.56142 1.0879,34.84375 l -0.1934,31.95312 -2.0469,2.5625 c -4.0448,5.05988 -2.7404,4.89527 -38.6191,4.86719 -25.2521,-0.0189 -32.4217,-0.21335 -34,-0.91797 -2.8637,-1.27835 -5.4281,-4.30121 -6.2676,-7.38867 -0.898,-3.30191 -0.9808,-60.12159 -0.094,-63.94727 0.8356,-3.6023 2.5844,-5.78346 6.0683,-7.57031 z m 101.334,0.006 32.3828,0.18164 32.3828,0.18359 2.459,1.66602 c 1.353,0.91665 3.0572,2.88619 3.7851,4.37695 1.2647,2.58985 1.3231,4.13197 1.3125,34.66602 0,31.91739 1e-4,31.95951 -1.5136,34.60937 -0.8425,1.48755 -2.6687,3.31372 -4.1563,4.15625 l -2.6543,1.50196 -32.332,-0.0293 c -19.8475,-0.0189 -32.9769,-0.28754 -34,-0.69531 v -0.002 c -0.9166,-0.36548 -2.3703,-1.32008 -3.2305,-2.12304 -3.4919,-3.26019 -3.4375,-2.65551 -3.4375,-37.9961 v -32.93359 l 1.5059,-2.26563 c 0.8284,-1.24588 2.8525,-2.94767 4.5,-3.78125 z m 133.4765,0.0469 c 35.5412,0.0151 35.0468,-0.0522 38.6446,5.38477 l 1.8769,2.83594 -0.053,32.38281 c -0.045,28.10986 -0.1931,32.6447 -1.1035,34.38086 -1.3437,2.5587 -3.6686,4.71974 -6.0528,5.62305 -2.9881,1.13212 -64.8771,0.91717 -67.457,-0.23438 -2.7541,-1.2294 -5.5637,-4.37403 -6.3457,-7.10156 -0.3855,-1.34404 -0.6493,-14.85889 -0.6406,-32.94922 0,-28.33206 0.1105,-30.87458 1.2402,-33.33789 1.4566,-3.17189 2.9421,-4.59331 6.248,-5.97461 2.0916,-0.87394 7.0612,-1.02224 33.6426,-1.00977 z m -225.8105,18.65039 v 22 22.00001 h 22.332 22.334 v -22.00001 -22 h -22.334 z m 101.332,0 v 22 22.00001 h 22.334 22.334 v -22.00001 -22 h -22.334 z m 102,0 v 22 22.00001 h 22.334 22.334 v -22.00001 -22 h -22.334 z m -47.6308,81.95313 2.9824,1.57422 c 1.8655,0.98434 3.5447,2.55258 4.4824,4.18945 l 1.498,2.61719 -0.166,32.78516 c -0.1625,32.08909 -0.1965,32.82432 -1.5605,34.66601 -0.7669,1.03488 -2.3856,2.55782 -3.5977,3.38282 l -2.2051,1.5 h -33.4121 -33.414 l -2.3926,-1.62696 c -4.6632,-3.16879 -4.584,-2.49373 -4.584,-38.67383 0,-35.96934 -0.1509,-34.65661 4.4473,-38.16601 l 2.4472,-1.86719 32.7383,-0.18945 z m -133.1797,0.0625 c 25.1402,-0.0113 31.9613,0.16916 33.6972,0.89453 2.7508,1.14936 5.5338,4.42687 6.4707,7.6211 0.4895,1.66873 0.6571,12.52499 0.5176,33.46875 -0.2305,34.66684 -0.087,33.62094 -5.0351,36.98242 l -2.4825,1.68555 h -33.3574 -33.3574 l -2.3906,-1.62696 c -4.9403,-3.3569 -4.894,-3.01565 -5.1094,-37.20703 -0.1247,-19.6645 0.053,-31.41754 0.5019,-33.08008 0.9442,-3.50634 3.0543,-6.01203 6.3047,-7.48828 2.5225,-1.14569 4.9973,-1.23643 34.2403,-1.25 z m 202.957,0 c 35.9157,0.0151 35.375,-0.0574 38.9766,5.38477 l 1.8769,2.83593 v 32.04883 32.04883 l -1.5743,2.75586 c -0.8696,1.52096 -2.7008,3.38645 -4.0879,4.16602 -2.4646,1.38523 -3.1363,1.41211 -35.4902,1.41211 h -32.9766 l -2.2304,-1.50196 c -1.2261,-0.82624 -2.8448,-2.55189 -3.5977,-3.83398 -1.3198,-2.2464 -1.3773,-3.45816 -1.5762,-33.33203 -0.1398,-20.94376 0.038,-31.80002 0.5176,-33.46875 0.937,-3.19423 3.7196,-6.47174 6.4707,-7.6211 1.736,-0.72525 8.5574,-0.90621 33.6973,-0.89453 z m -225.4785,18.65234 v 22 22.00001 h 22.332 22.334 v -22.00001 -22 h -22.334 z m 101.332,0 v 21.55469 c 0,11.85555 0.2012,21.75554 0.4453,22 0.2457,0.24454 10.2951,0.44532 22.334,0.44532 h 21.8887 v -22.00001 -22 h -22.334 z m 102,0 v 22 22.00001 h 22.334 22.334 v -22.00001 -22 h -22.334 z"
         transform="scale(0.26458333)" /></g><g
       id="g374"><path
         style="fill:none;fill-opacity:1"
         d="m 1787.7068,-170.4929 v -135.46666 h 135.4666 135.4667 v 135.46666 135.46666 h -135.4667 -135.4666 z"
         id="path344" /><path
         id="path100"
         style="fill:#346588"
         d="m 1921.5613,-191.03123 c -12.0717,0.37701 -23.8127,3.6238 -31.8575,8.93072 -2.6006,1.71546 -6.8325,5.91445 -8.0445,7.98194 l -0.8992,1.53376 0.8201,0.84749 c 1.0703,1.10614 1.7944,2.78828 2.186,5.08083 0.4112,2.40702 0.7013,2.93419 2.5678,4.66224 3.0395,2.81405 6.6026,4.17113 12.3785,4.71444 9.4625,0.89008 10.0438,1.00686 16.6636,3.33779 6.2797,2.2112 6.4651,2.24032 13.486,2.12803 4.7078,-0.0753 6.8042,-0.22517 9.2604,-0.66197 4.454,-0.79206 9.8301,-2.2449 13.0969,-3.53881 2.6908,-1.0658 2.8572,-1.18017 5.2917,-3.65249 1.8924,-1.92168 2.9058,-2.73064 4.101,-3.27318 0.8731,-0.39636 2.0835,-0.95413 2.6898,-1.2392 1.2095,-0.56863 2.7612,-2.42941 3.9005,-4.67775 l 0.6992,-1.37976 -0.71,-1.78129 c -1.2861,-3.22743 -2.8958,-5.35555 -5.8679,-7.7587 -1.0637,-0.86003 -2.0459,-1.56373 -2.1828,-1.56373 -0.1464,0 -0.2486,1.99858 -0.2486,4.85397 0,1.51087 -0.01,2.59774 -0.058,3.41943 0.02,0.0199 0.036,0.0411 0.058,0.061 0.5838,0.52837 1.2124,1.46609 0.7721,2.28875 -0.3121,0.58307 -2.1757,1.53347 -3.021,1.54047 -1.8205,0.0149 -4.1011,-1.48284 -4.1011,-2.69338 0,-0.34991 0.2942,-1.03459 0.6537,-1.52187 0.2246,-0.30464 0.4509,-0.55923 0.6491,-0.84077 8e-4,-0.19065 0,-0.29512 -5e-4,-0.51625 l 0.019,-3.05976 -4.1667,-2.34094 c -2.2915,-1.28764 -5.3871,-3.02661 -6.8786,-3.86437 l -2.712,-1.52342 v 2.32234 c 0,0.25862 -0.024,0.40235 -0.031,0.62322 0.1538,0.1206 0.3107,0.19327 0.4232,0.19327 0.471,0 0.7846,1.0804 0.5659,1.95182 -0.3621,1.44271 -3.1935,2.18318 -5.2891,1.38286 -2.1093,-0.80553 -2.8171,-2.29521 -1.6469,-3.46542 0.2504,-0.25041 0.4833,-0.42171 0.6769,-0.71676 -0.02,-0.65133 -0.034,-1.46384 -0.051,-2.56625 l -0.072,-4.65604 -1.4552,-0.17725 c -0.8004,-0.0976 -3.7174,-0.26344 -6.4823,-0.36846 -1.7282,-0.0656 -3.4596,-0.0704 -5.1841,-0.0165 z m 26.8149,3.55482 c -0.055,0.0233 0.1198,0.1612 0.418,0.36328 0.205,0.12541 0.3666,0.23032 0.7152,0.42427 0.8242,0.45854 1.6793,0.97508 2.3425,1.38493 0.7162,0.40426 1.6973,0.9739 1.787,0.99632 0.033,0.004 0.055,-0.004 0.079,-0.01 0.09,-0.0385 0.1404,-0.22088 0.1,-0.48628 -0.062,-0.40555 -0.6736,-0.78721 -2.3513,-1.50223 -0.049,-0.0207 -0.078,-0.035 -0.1292,-0.0563 -1.3542,-0.5627 -2.1311,-0.85837 -2.5957,-1.00769 -0.1099,-0.0299 -0.3382,-0.11767 -0.3648,-0.10645 z m -39.2255,1.63762 c 0.4284,0 0.5291,0.1764 0.5291,0.92605 0,1.06024 0.044,1.08281 0.9509,0.48834 0.5988,-0.39231 0.71,-0.39585 1.0717,-0.0341 0.3618,0.36174 0.3174,0.46552 -0.4309,0.99839 l -0.8351,0.59428 0.8066,0.49041 c 0.5284,0.32138 0.7533,0.63033 0.6517,0.89503 -0.1953,0.50904 -0.6449,0.51426 -1.3043,0.0155 -0.7664,-0.57964 -0.9106,-0.49707 -0.9106,0.5209 0,0.74966 -0.1007,0.92604 -0.5291,0.92604 -0.4311,0 -0.5292,-0.17645 -0.5292,-0.95653 0,-0.95579 -5e-4,-0.95617 -0.6522,-0.52917 -0.889,0.58252 -1.4645,0.54032 -1.4645,-0.10749 0,-0.31373 0.2734,-0.65932 0.6615,-0.83612 0.3638,-0.16575 0.6614,-0.38231 0.6614,-0.48111 0,-0.0988 -0.2976,-0.31536 -0.6614,-0.48111 -0.6795,-0.30959 -0.8756,-0.94303 -0.3855,-1.24592 0.1519,-0.0939 0.5645,0.0182 0.9167,0.24908 0.8768,0.57462 0.924,0.54896 0.924,-0.50642 0,-0.74965 0.1009,-0.92605 0.5292,-0.92605 z m 10.0546,1.12965 c 0.1776,0 0.3551,0.10053 0.6615,0.30127 0.8335,0.54642 0.8684,1.56843 0.073,2.12597 -0.3233,0.22641 -0.6534,0.41186 -0.7344,0.41186 -0.081,0 -0.4114,-0.18533 -0.7348,-0.41186 -0.7963,-0.55749 -0.7611,-1.57948 0.073,-2.12597 0.3064,-0.20074 0.4844,-0.30127 0.6619,-0.30127 z m 9.8888,5.27255 c 0.4004,0.0571 0.5618,0.26898 0.5618,0.73794 0,0.75479 -0.6792,1.01706 -1.1535,0.44545 -0.4496,-0.54171 -0.081,-1.27939 0.5917,-1.18339 z m 14.8555,1.27072 c 0.7051,0 0.9526,0.4578 0.6097,1.12448 -0.2855,0.55509 -0.8351,0.59901 -1.2495,0.0997 -0.4364,-0.52583 -0.072,-1.22422 0.6398,-1.22422 z m -48.0286,1.42007 c 0.2112,-0.004 0.4224,0.33701 0.4795,1.02733 0.045,0.5457 0.1458,0.99218 0.2228,0.99218 0.077,0 0.4439,-0.23841 0.8149,-0.5302 0.5149,-0.40505 0.7595,-0.46032 1.034,-0.23254 0.5383,0.44677 0.4429,0.72021 -0.4403,1.25729 l -0.8004,0.48627 0.8459,0.65216 c 0.5098,0.39314 0.7683,0.77619 0.6517,0.9648 -0.27,0.43676 -1.091,0.39013 -1.4847,-0.0842 -0.4757,-0.57312 -0.7374,-0.48789 -0.6093,0.19843 0.1294,0.6936 -0.4321,1.51669 -0.9121,1.33687 -0.1819,-0.0682 -0.3307,-0.53116 -0.3307,-1.02836 0,-0.99597 -0.1467,-1.07633 -0.9105,-0.49868 -0.2824,0.21365 -0.6694,0.38861 -0.8599,0.38861 -0.6018,0 -0.3746,-0.95377 0.3152,-1.32292 0.3638,-0.1947 0.6615,-0.43286 0.6615,-0.52916 0,-0.0963 -0.2977,-0.33447 -0.6615,-0.52917 -0.3638,-0.1947 -0.6614,-0.51591 -0.6614,-0.71417 0,-0.5794 0.6974,-0.68439 1.4169,-0.2129 l 0.6656,0.43666 0.083,-1.01182 c 0.057,-0.6926 0.2683,-1.04222 0.4796,-1.04645 z m 36.0681,0.79685 c 0.3876,0.0143 0.9363,0.16017 1.5745,0.43512 0.9817,0.42295 2.1528,0.64334 4.0298,0.75809 2.4156,0.14768 2.6458,0.20781 2.6458,0.69091 0,0.48522 -0.1978,0.53445 -2.3813,0.59325 -1.9264,0.0519 -2.7277,-0.0548 -4.1951,-0.55862 -1.6498,-0.56648 -2.272,-0.99273 -2.283,-1.56425 0,-0.25152 0.2216,-0.36884 0.6093,-0.3545 z m 12.7459,3.18482 c 0.5088,-0.006 1.0261,0.57576 0.8403,1.05988 -0.1608,0.41906 -0.9937,0.57106 -1.3234,0.24133 -0.3352,-0.33517 -0.1747,-1.09065 0.2677,-1.26039 0.07,-0.027 0.1428,-0.0399 0.2154,-0.0408 z m 6.3521,4.25555 c 0.4036,0 0.5489,0.20403 0.6119,0.8599 0.094,0.97643 0.2118,1.03427 0.8785,0.43098 0.5396,-0.48837 1.2877,-0.31839 1.2877,0.29249 0,0.22498 -0.3518,0.62273 -0.7818,0.88418 l -0.7814,0.47543 0.7814,0.46147 c 0.884,0.52215 0.955,0.75252 0.3798,1.22989 -0.3276,0.27188 -0.4901,0.25359 -0.8806,-0.0997 -0.6715,-0.60778 -0.7896,-0.55138 -0.8836,0.42426 -0.05,0.51757 -0.2453,0.88865 -0.4925,0.93535 -0.5716,0.10804 -0.7808,-0.17168 -0.7808,-1.04335 0,-0.8407 -0.1685,-0.90565 -0.9044,-0.34882 -0.3765,0.28491 -0.5984,0.30849 -0.8599,0.0915 -0.5376,-0.44616 -0.4308,-0.70283 0.4915,-1.17977 0.896,-0.46334 0.8843,-0.49577 -0.4884,-1.32447 -0.4125,-0.24905 -0.4316,-0.35587 -0.1287,-0.72089 0.3176,-0.38268 0.4355,-0.38698 1.1059,-0.0403 0.7452,0.38552 0.751,0.38264 0.833,-0.46974 0.063,-0.65411 0.209,-0.85835 0.6124,-0.85835 z m -51.4971,0.21549 c 0.2051,-0.0302 0.4225,0.0774 0.6656,0.3204 0.3238,0.32388 0.3614,0.55054 0.154,0.93792 -0.3317,0.61975 -0.8626,0.65612 -1.3312,0.0915 -0.2463,-0.29632 -0.2697,-0.54328 -0.08,-0.84387 0.1939,-0.30747 0.3866,-0.47567 0.5917,-0.50592 z m 19.4055,3.37861 c 0.2845,0.008 0.5583,0.16127 0.83,0.46147 0.6003,0.66349 0.5609,1.81306 -0.074,2.15284 -0.7398,0.39592 -1.1998,0.33918 -1.6966,-0.20981 -0.5744,-0.63477 -0.5557,-1.44447 0.046,-1.98902 0.3145,-0.28455 0.61,-0.42307 0.8945,-0.41548 z m -16.6873,2.35903 c 0.6419,0 0.9191,0.67657 0.4894,1.19424 -0.4054,0.48855 -0.6412,0.49526 -1.0274,0.03 -0.4091,-0.493 -0.088,-1.22421 0.538,-1.22421 z m 38.1956,1.19062 c 0.4211,0 0.5458,0.20375 0.6118,0.99839 l 0.082,0.99891 0.6826,-0.53692 c 0.5213,-0.41007 0.7672,-0.46663 1.0418,-0.23875 0.5317,0.44129 0.4463,0.68158 -0.4268,1.19735 l -0.7865,0.46508 0.8526,0.71882 c 0.6895,0.58149 0.789,0.78451 0.5194,1.06092 -0.272,0.279 -0.4756,0.25781 -1.108,-0.11575 l -0.7751,-0.45786 -0.082,0.99581 5e-4,-5.2e-4 c -0.053,0.64272 -0.2279,1.0228 -0.4925,1.0728 -0.594,0.11233 -0.7808,-0.17587 -0.7808,-1.20561 v -0.9126 l -0.6826,0.44751 c -0.3756,0.24612 -0.8518,0.38264 -1.0584,0.30334 -0.6401,-0.24563 -0.4149,-0.92065 0.4579,-1.372 l 0.8335,-0.43099 -0.8335,-0.52761 c -0.9205,-0.58277 -1.0046,-0.7986 -0.4811,-1.233 0.2615,-0.217 0.4834,-0.19342 0.8599,0.0915 0.7369,0.55762 0.8619,0.49788 0.9539,-0.45889 0.063,-0.65587 0.2082,-0.8599 0.6119,-0.8599 z m -33.2621,0.7891 c 0.328,0.0395 0.8268,0.19402 1.68,0.48576 3.2157,1.09954 6.919,1.5878 10.9963,1.44952 2.9814,-0.10112 3.5956,-0.0567 3.7207,0.26924 0.082,0.21468 -0.071,0.55155 -0.3406,0.74879 h -5e-4 c -0.666,0.48697 -7.7308,0.44267 -10.5482,-0.0661 -2.7531,-0.49719 -5.6355,-1.38462 -6.1417,-1.89084 -0.3551,-0.35548 -0.3573,-0.45356 -0.02,-0.79116 0.1688,-0.1688 0.3257,-0.24461 0.6537,-0.20516 z" /><path
         style="fill:#050606"
         d="m 1919.337,-115.62325 c -19.1801,-0.69417 -37.5951,-5.20484 -52.1229,-12.76731 -13.9045,-7.23799 -22.4229,-15.79592 -25.787,-25.9068 -1.0367,-3.11592 -1.3328,-5.58639 -1.333,-11.12146 -10e-5,-3.95241 -0.078,-4.88221 -0.5023,-6.00012 -1.5644,-4.12066 -0.5881,-8.53708 2.7026,-12.225 0.7731,-0.86647 1.9512,-2.52121 2.618,-3.6772 1.9933,-3.4557 4.3351,-6.39772 7.8763,-9.89468 1.842,-1.81901 3.9063,-4.13918 4.5874,-5.15594 4.3422,-6.48282 10.3089,-9.56644 21.2151,-10.96405 3.1912,-0.40895 5.1777,-0.83714 8.0697,-1.73943 4.3526,-1.35795 10.0217,-2.66921 16.4042,-3.79431 3.0878,-0.5443 5.6435,-1.20221 8.7313,-2.24768 2.7866,-0.94351 5.2269,-1.59028 6.7468,-1.78821 3.4325,-0.44696 8.5793,-0.15582 12.1709,0.68847 1.6007,0.37629 3.9857,0.93127 5.2999,1.23329 l 2.3896,0.54912 1.5489,-1.08505 c 5.0802,-3.55866 10.0291,-2.54496 11.4406,2.34337 0.231,0.80037 0.4379,1.47765 0.4596,1.50507 0.022,0.0274 2.3587,0.64564 5.1932,1.37381 2.8345,0.72818 7.1776,1.97908 9.6515,2.77979 2.5771,0.83412 6.0933,1.74394 8.2336,2.13046 6.6865,1.20751 10.0647,2.42286 13.9847,5.03111 2.8323,1.88454 5.4257,4.64867 6.6547,7.09273 0.644,1.28073 1.6386,2.61634 3.0022,4.03182 1.1216,1.16417 2.7954,3.1287 3.7198,4.36563 0.9243,1.23693 2.2985,2.93833 3.0538,3.7809 1.618,1.80516 2.8571,4.0226 3.3892,6.06551 0.5829,2.23805 0.599,19.88358 0.021,22.93125 -0.5123,2.70086 -1.4224,5.27823 -2.9069,8.23276 -7.9147,15.75217 -31.1994,28.37724 -60.4509,32.77667 -7.1399,1.07385 -18.7266,1.72095 -26.0614,1.45548 z m 18.6531,-1.80523 c 20.4622,-2.15985 37.8988,-7.81549 50.9825,-16.53636 7.7475,-5.16404 12.9098,-10.63183 16.043,-16.99224 1.752,-3.55668 2.5313,-6.52712 2.8571,-10.89088 0.3132,-4.19414 0.087,-5.52822 -0.457,-2.69182 -0.196,1.02272 -0.8501,2.85433 -1.4607,4.09022 -0.8862,1.7938 -1.5199,2.63425 -3.1917,4.23334 -1.1473,1.09735 -3.9569,3.85379 -6.2437,6.12541 -4.2747,4.24653 -6.7255,6.08396 -11.8812,8.90753 -1.1719,0.64181 -3.3771,2.27762 -5.0956,3.77979 -5.2008,4.54623 -7.648,5.86862 -12.9777,7.01283 -1.5637,0.3357 -3.4633,0.42012 -8.9606,0.39822 -5.7595,-0.0229 -7.5362,0.0627 -10.1865,0.49113 -8.6602,1.3999 -14.5447,1.86458 -23.6588,1.86829 -5.6452,0.002 -6.8924,0.083 -10.2688,0.66408 -2.7854,0.4794 -4.8101,0.66145 -7.3565,0.66145 -4.9004,0 -6.5615,-0.45684 -12.3292,-3.39084 -2.8606,-1.45517 -5.4392,-2.57022 -6.7469,-2.91755 -7.877,-2.09217 -16.5505,-5.75542 -22.8327,-9.64339 -1.2117,-0.74994 -2.7388,-1.41165 -4.101,-1.77708 -4.5346,-1.21645 -6.662,-2.8408 -9.0303,-6.89482 -0.7842,-1.34245 -2.2351,-3.21211 -3.6416,-4.69273 -2.5912,-2.72759 -3.6755,-4.58685 -5.0131,-8.59534 -0.4473,-1.34046 -0.8731,-2.49674 -0.9463,-2.5695 -0.073,-0.0728 -0.075,1.89177 0,4.36563 0.1478,5.16819 0.5293,6.86601 2.4612,10.95312 1.8231,3.85692 3.882,6.70767 7.388,10.22941 3.4853,3.50099 6.7537,6.06198 11.1526,8.73882 13.6642,8.31496 31.6336,13.77339 49.9677,15.17832 2.0373,0.15612 4.1209,0.33113 4.6302,0.38892 2.1424,0.24307 17.317,-0.11553 20.9021,-0.49396 z m -24.3417,-10.90645 c 3.7757,-0.5517 5.2895,-0.65401 8.2021,-0.55437 7.3624,0.25186 15.5963,-0.34404 24.9459,-1.80541 3.7473,-0.5857 4.8747,-0.64679 10.9802,-0.59491 5.5839,0.0475 7.1478,-0.0218 8.7204,-0.38638 4.6605,-1.08036 7.8854,-2.8658 12.2458,-6.7798 2.6569,-2.38491 3.7853,-3.18147 6.8723,-4.85146 3.8254,-2.06944 6.0676,-3.81476 10.2368,-7.96819 2.2104,-2.20215 4.8953,-4.83735 5.9662,-5.85599 3.2356,-3.07741 4.4001,-5.91419 4.9419,-12.03855 0.1481,-1.67349 0.4517,-3.97591 0.6747,-5.1165 0.5376,-2.75005 0.5119,-5.07844 -0.077,-6.96461 -0.5958,-1.90862 -1.4051,-3.20522 -3.5551,-5.69529 -0.9189,-1.06428 -2.1132,-2.54676 -2.6539,-3.29441 -0.5407,-0.74764 -1.9983,-2.47405 -3.2392,-3.83646 -1.2779,-1.40301 -2.6828,-3.28018 -3.2402,-4.32919 -1.7204,-3.23776 -5.4691,-6.67448 -9.4512,-8.66463 -2.2514,-1.12518 -5.368,-2.0433 -10.1472,-2.98922 -2.6195,-0.51846 -6.5393,-1.54336 -9.1281,-2.3867 -4.1701,-1.35847 -13.0846,-3.81287 -13.8637,-3.81705 -0.2487,-0.001 -0.3308,0.90273 -0.3308,3.64352 0,4.10477 -0.1777,4.6264 -1.7211,5.05258 -1.1116,0.30692 -1.9239,0.13358 -2.7106,-0.57843 -0.5706,-0.51633 -0.5953,-0.7166 -0.5953,-4.80973 v -4.27096 l -1.7102,-0.33993 c -1.8971,-0.37707 -2.2448,-0.23853 -3.6552,1.45635 -1.2217,1.46812 -1.2492,1.64797 -1.2492,8.14886 v 6.22215 l 1.7274,0.96602 c 0.95,0.5313 3.0634,1.38404 4.6963,1.89497 1.633,0.51093 3.8353,1.27267 4.8941,1.69277 1.0588,0.42009 2.0316,0.76381 2.1618,0.76381 0.1302,0 0.2759,-1.51805 0.3238,-3.37344 0.082,-3.16495 0.1402,-3.4854 0.9452,-5.18508 2.2595,-4.77076 8.1847,-7.90228 12.1132,-6.40197 1.3734,0.52452 3.0371,2.28534 3.554,3.76161 0.23,0.65692 0.3952,2.82453 0.4704,6.17306 0.1114,4.95637 0.094,5.18899 -0.4476,5.87714 -0.9004,1.14465 -3.0977,1.3164 -4.0941,0.32001 -0.3466,-0.34667 -0.416,-1.21096 -0.4193,-5.22513 0,-5.656 -0.1411,-6.15015 -1.6856,-6.10054 -1.5332,0.0492 -3.7884,1.72523 -4.7149,3.50382 -0.7192,1.38072 -0.739,1.53168 -0.7278,5.55625 l 0.011,4.13698 1.8759,1.32291 c 4.3025,3.03417 7.5593,7.10901 8.8541,11.07797 0.5784,1.77308 0.7017,2.63952 0.7012,4.92933 -6e-4,3.26252 -0.7221,5.81216 -2.4932,8.81054 -1.6974,2.87363 -2.4112,3.5225 -5.4971,4.9966 -2.5587,1.22227 -3.0209,1.56337 -5.3159,3.92303 -2.3282,2.39381 -2.6707,2.64384 -4.6455,3.391 -8.2468,3.12015 -16.2311,4.60638 -24.9878,4.65135 -5.1729,0.0266 -6.4093,-0.21217 -13.0066,-2.51143 -4.9498,-1.72506 -8.3437,-2.4951 -12.1288,-2.7519 -6.5108,-0.44171 -9.415,-1.02626 -12.5677,-2.52955 -4.0463,-1.92937 -6.7358,-4.79697 -7.1283,-7.60031 -0.3942,-2.81573 -0.8787,-3.89337 -2.6273,-5.84342 -2.1507,-2.39858 -2.5476,-3.24321 -2.5476,-5.42214 0,-3.84864 2.2517,-8.34065 6.0546,-12.07836 1.872,-1.83993 2.1909,-2.04142 4.381,-2.76804 2.1339,-0.70799 2.5594,-0.96833 4.4065,-2.69568 1.1245,-1.05161 2.6224,-2.20487 3.3288,-2.5628 1.7159,-0.86951 5.851,-2.12356 9.7427,-2.95462 2.4282,-0.51856 4.5168,-1.28869 6.8177,-1.74629 1.4424,-0.28688 2.9016,-0.50783 4.3677,-0.62393 0.957,-0.0758 1.9198,-0.0291 2.8797,-0.0466 1.0779,-0.0197 2.156,-0.095 3.2337,-0.0656 2.3091,0.0629 3.7902,0.34056 6.9105,0.51756 2.2556,0.12794 4.369,0.29744 4.6964,0.37665 l 0.5953,0.14403 v -5.90258 c 0,-6.52911 0.2252,-8.00137 1.5957,-10.43291 0.4267,-0.75705 0.6734,-1.43977 0.5482,-1.51716 -0.4664,-0.28826 -7.7451,-1.97881 -9.8363,-2.28458 -2.921,-0.4271 -8.7895,-0.17031 -11.2253,0.49119 -1.0186,0.27664 -3.2781,1.00466 -5.0211,1.61782 -2.1675,0.76254 -4.5922,1.35675 -7.6729,1.88039 -7.1687,1.2185 -10.0614,1.88665 -16.5425,3.8209 -2.2643,0.67578 -5.1917,1.32799 -7.1437,1.59158 -6.5524,0.88479 -9.3088,1.60437 -12.7,3.31538 -3.7219,1.87788 -6.1391,3.99461 -8.6128,7.54218 -0.7104,1.01864 -2.7941,3.34036 -4.6307,5.15937 -3.5512,3.51736 -5.497,5.96479 -7.4733,9.39987 -0.672,1.1681 -1.8967,2.89451 -2.7214,3.83646 -0.8247,0.94195 -1.8714,2.48654 -2.326,3.43242 -0.7399,1.53965 -0.8256,1.96922 -0.8189,4.10104 0.01,2.18982 0.09,2.56205 1.0277,4.63021 0.5611,1.23693 1.5383,3.71756 2.1717,5.51252 1.5947,4.51935 2.5061,6.09413 5.1571,8.91006 1.3111,1.39268 2.8128,3.33492 3.5011,4.52829 2.3053,3.99674 3.9066,5.23308 8.4934,6.55765 1.6701,0.48232 3.2666,1.22056 5.4239,2.50815 6.3066,3.76408 12.56,6.38795 20.6519,8.66535 2.5127,0.70717 4.2609,1.42882 7.2761,3.00358 7.3915,3.86042 9.7662,4.19014 19.7114,2.73696 z m 54.2723,-18.43842 c -0.2277,-0.27434 -0.1227,-0.59754 0.4513,-1.38906 1.5947,-2.19884 3.5937,-3.51123 6.4617,-4.24214 2.2966,-0.5853 3.0075,-1.00563 3.7856,-2.23819 0.6979,-1.10551 1.2504,-1.24151 1.3845,-0.34079 0.1132,0.76032 -1.0004,2.25733 -2.1652,2.9107 -0.5576,0.31282 -1.649,0.69629 -2.4251,0.85217 -2.1823,0.43827 -3.8942,1.44755 -5.4466,3.21112 -0.7716,0.87654 -1.4808,1.59372 -1.5762,1.59372 -0.095,0 -0.3068,-0.16089 -0.47,-0.35753 z m -100.6677,-11.28947 c -0.2805,-0.47485 -1.0824,-1.10718 -1.9762,-1.55841 -1.7625,-0.88967 -2.8864,-1.92916 -3.3999,-3.14426 -0.7365,-1.74325 0.3493,-1.90191 1.3484,-0.19703 0.549,0.93679 1.0866,1.38725 2.6049,2.18281 1.4642,0.76727 2.0372,1.23671 2.4422,2.00107 0.462,0.87189 0.4788,1.03089 0.1323,1.25272 -0.5759,0.3687 -0.6323,0.34244 -1.1517,-0.5369 z m 125.1168,-21.41333 c -0.095,-0.15396 -0.2098,-1.03861 -0.2547,-1.96589 -0.108,-2.22959 -1.1223,-4.13128 -2.9746,-5.5769 -0.7531,-0.58782 -1.3782,-1.26438 -1.389,-1.50347 -0.081,-1.79382 3.385,0.84593 4.853,3.69583 0.5918,1.14894 0.9508,3.41032 0.7203,4.53724 -0.1876,0.91738 -0.6482,1.3096 -0.955,0.81319 z m -107.4139,-22.74288 c -0.3049,-0.49327 0.1915,-1.04865 1.3932,-1.55894 1.4758,-0.62664 3.7369,-0.95268 4.253,-0.61326 0.7287,0.47916 0.1039,1.00808 -1.3704,1.16025 -0.7947,0.082 -1.9316,0.39742 -2.5265,0.70089 -1.1954,0.60985 -1.5281,0.66901 -1.7493,0.31106 z m 53.1665,49.74294 c 4.454,-0.79206 9.8301,-2.24459 13.0969,-3.5385 2.6908,-1.0658 2.8571,-1.18059 5.2916,-3.65291 1.8924,-1.92168 2.9059,-2.73064 4.1011,-3.27318 0.8731,-0.39636 2.0836,-0.95389 2.6899,-1.23896 1.2095,-0.56863 2.761,-2.4293 3.9003,-4.67764 l 0.6992,-1.37976 -0.71,-1.78158 c -1.2861,-3.22743 -2.8954,-5.35536 -5.8675,-7.75851 -1.0637,-0.86003 -2.0459,-1.56369 -2.1828,-1.56369 -0.1464,0 -0.2489,1.99839 -0.2489,4.85378 0,5.58667 -0.049,5.7102 -2.3301,5.92943 -1.0679,0.10261 -1.3967,0.0199 -2.0069,-0.50502 -0.7209,-0.62005 -0.7296,-0.66517 -0.7106,-3.68711 l 0.019,-3.05938 -4.1666,-2.34114 c -2.2915,-1.28764 -5.3869,-3.02659 -6.8784,-3.86435 l -2.712,-1.52319 v 2.32206 c 0,2.8805 -0.3403,3.33013 -2.52,3.33013 -1.1206,0 -1.5436,-0.12911 -2.083,-0.63585 -0.6702,-0.62964 -0.6775,-0.68138 -0.7489,-5.29167 l -0.072,-4.65582 -1.4552,-0.17741 c -0.8004,-0.0976 -3.7174,-0.26333 -6.4823,-0.36835 -13.8256,-0.52514 -27.8475,2.84933 -37.0416,8.91438 -2.6006,1.71546 -6.8322,5.91436 -8.0442,7.98185 l -0.8991,1.5338 0.8201,0.84745 c 1.0703,1.10614 1.7939,2.78824 2.1855,5.08079 0.4112,2.40702 0.7016,2.93437 2.5681,4.66242 3.0395,2.81405 6.6024,4.17096 12.3783,4.71427 9.4625,0.89008 10.044,1.00654 16.6638,3.33747 6.2797,2.2112 6.4649,2.24043 13.4858,2.12814 4.7078,-0.0753 6.8042,-0.22515 9.2604,-0.66195 z m 19.4469,-34.68556 0.1323,-15.21355 0.7861,-1.41928 c 1.598,-2.8851 5.4421,-4.99027 7.2983,-3.99683 1.1722,0.62731 1.4166,1.70069 1.5648,6.87132 l 0.1404,4.89479 0.7436,0.0853 c 1.4268,0.1636 1.5053,-0.10966 1.5053,-5.23756 0,-4.96657 -0.1577,-5.89104 -1.2578,-7.37179 -1.6475,-2.21766 -4.035,-2.52138 -7.2351,-0.92043 -2.3719,1.18658 -4.113,2.87097 -5.1491,4.98122 l -0.7778,1.58413 -0.072,15.20458 c -0.04,8.36252 -0.011,15.36468 0.064,15.56037 0.089,0.23291 0.4799,0.32738 1.1309,0.27354 l 0.9943,-0.0822 z m 11.4718,13.55989 c 0.9615,-5.81718 -1.7402,-11.66367 -7.5311,-16.29693 -1.2104,-0.96849 -2.2946,-1.76088 -2.4093,-1.76088 -0.1147,0 -0.2075,1.87523 -0.2062,4.16719 v 4.16718 l 2.504,1.91659 c 2.8055,2.14726 4.9921,4.62611 6.2829,7.12263 0.4762,0.92095 0.9395,1.67489 1.0296,1.67543 0.09,5.4e-4 0.2376,-0.4455 0.3278,-0.99121 z m -88.071,-1.94913 c 1.364,-2.20985 4.5437,-5.33499 7.4136,-7.28631 6.7398,-4.58267 15.5317,-7.64598 25.7939,-8.98723 3.9657,-0.51831 13.2802,-0.65841 17.9255,-0.26962 l 2.712,0.22698 v -4.11397 c 0,-2.26268 -0.111,-4.1826 -0.2468,-4.26649 -0.1357,-0.0839 -2.4476,-0.29163 -5.1376,-0.46163 -10.1664,-0.64253 -20.8205,0.66994 -29.785,3.66924 -3.791,1.26837 -4.6178,1.72973 -6.7976,3.79344 -1.6659,1.57712 -2.1685,1.88392 -4.3656,2.66442 -2.346,0.83339 -2.5998,1.00052 -4.5997,3.02884 -3.3642,3.41212 -5.1386,6.991 -5.1525,10.39273 -0.01,1.58619 0.5126,3.228 1.0207,3.228 0.1211,0 0.6697,-0.72828 1.2191,-1.6184 z m 72.8421,-5.45787 -0.079,-1.52002 -6.8791,-3.90274 c -3.7836,-2.1465 -7.1444,-3.90327 -7.4684,-3.90393 -0.3416,-7e-4 -0.7763,0.28433 -1.0344,0.6782 -0.4283,0.65374 -0.4211,0.70294 0.1923,1.30247 0.3507,0.34269 2.483,1.66514 4.7386,2.93878 2.2555,1.27364 5.4702,3.11653 7.1437,4.09531 1.6735,0.97878 3.138,1.79138 3.2544,1.80578 0.1164,0.0144 0.1759,-0.65784 0.1323,-1.49385 z m -15.0845,-2.67795 0.076,-2.41889 -1.0682,-1.01623 c -1.509,-1.43545 -1.408,-3.20085 0.2388,-4.17363 0.805,-0.47551 0.8096,-0.49126 0.8096,-2.79561 0,-2.28193 -0.012,-2.3234 -0.7565,-2.7086 -1.6032,-0.82903 -1.714,-3.02431 -0.2163,-4.28334 l 0.8405,-0.70649 0.1323,-6.51055 c 0.1465,-7.2142 0.1711,-7.32556 2.027,-9.18143 0.9662,-0.96617 3.8046,-2.48791 4.6412,-2.4883 0.8678,-4e-4 1.7765,0.60979 2.1826,1.4655 0.3185,0.6714 0.4096,1.83805 0.4096,5.24997 v 4.38674 l 0.6368,0.15983 c 0.3502,0.0879 0.8952,0.0216 1.211,-0.14745 0.5627,-0.30119 0.5724,-0.40557 0.4876,-5.26825 -0.085,-4.90375 -0.095,-4.97365 -0.8144,-6.05999 -1.5272,-2.30594 -4.1752,-2.75333 -7.2454,-1.22418 -2.0538,1.02292 -4.4237,3.39149 -5.3311,5.32818 l -0.7185,1.5334 v 16.52852 16.52852 l 0.6336,0.31599 c 0.3698,0.18444 0.8655,0.23048 1.1906,0.11059 0.5024,-0.18526 0.5645,-0.44266 0.6332,-2.6243 z m 15.0897,-1.11708 c -0.064,-0.41822 -0.6635,-0.79671 -2.4658,-1.55678 -3.7478,-1.58054 -3.9223,-1.50689 -0.7938,0.33502 1.6007,0.94242 3.008,1.72718 3.1273,1.7439 0.1192,0.0167 0.1788,-0.21824 0.1323,-0.52214 z m 0.048,-2.71661 c 0,-0.19732 -2.7087,-1.88605 -6.0193,-3.75275 -3.3106,-1.8667 -6.4062,-3.62203 -6.8791,-3.90072 l -0.8599,-0.50672 v 2.00372 c 0,1.98997 0.01,2.00674 0.8536,2.44513 0.4695,0.24278 2.3447,0.83082 4.1672,1.30676 1.8224,0.47594 4.3851,1.28499 5.6948,1.79787 2.6703,1.04573 3.0427,1.11998 3.0427,0.60671 z m -0.053,-3.50468 -0.079,-1.48217 -3.175,-1.84644 c -6.4836,-3.77062 -10.6845,-6.03713 -11.1894,-6.03713 -0.7147,0 -1.1687,0.62361 -1.0667,1.4651 0.075,0.61996 0.9793,1.215 7.6259,5.01899 4.1474,2.3736 7.6359,4.32648 7.7523,4.33973 0.1164,0.0133 0.1759,-0.64288 0.1323,-1.45808 z m 0.053,-3.54491 c 0,-0.14552 -0.045,-0.26458 -0.099,-0.26458 -0.055,0 -0.769,-0.29616 -1.5875,-0.65812 -0.8184,-0.36197 -1.4881,-0.6025 -1.4881,-0.53452 0,0.15374 2.7045,1.71592 2.9766,1.71932 0.1091,10e-4 0.1984,-0.11658 0.1984,-0.2621 z"
         id="path98" /><path
         id="path346"
         style="fill:#ffffff;stroke-width:2;stroke-linecap:round;stroke-linejoin:round;paint-order:markers stroke fill"
         d="m 7273.6192,-838.19532 c -11.3272,-0.29085 -25.5289,0.72254 -32.4336,2.59765 -3.8498,1.04557 -12.3908,3.79778 -18.9785,6.11524 -8.1921,2.88204 -17.3564,5.12831 -29,7.10742 -27.0943,4.60535 -38.026,7.13085 -62.5215,14.44141 -8.5579,2.55413 -19.6223,5.01742 -27,6.01367 -24.7649,3.34409 -35.1828,6.06444 -48,12.53125 -14.067,7.0975 -23.2033,15.09772 -32.5527,28.50586 -2.685,3.84998 -10.5605,12.625 -17.502,19.5 -13.4218,13.29396 -20.7766,22.54436 -28.246,35.52734 -2.5399,4.41487 -7.1682,10.93988 -10.2852,14.5 -3.117,3.56013 -7.0728,9.39768 -8.791,12.97266 -2.7965,5.81915 -3.121,7.44273 -3.0957,15.5 0.038,8.27648 0.3407,9.68333 3.8847,17.5 2.1207,4.67501 5.8151,14.04988 8.209,20.83398 6.0272,17.08101 9.4707,23.03485 19.4903,33.67774 4.9553,5.26367 10.6309,12.60291 13.2324,17.11328 8.7129,15.10579 14.7656,19.77891 32.1015,24.78516 6.3122,1.82294 12.3465,4.61398 20.5,9.48047 23.836,14.22644 47.4712,24.1425 78.0547,32.75 9.4969,2.67276 16.104,5.39971 27.5,11.35156 27.9364,14.59056 36.9119,15.83804 74.5,10.3457 v 0 c 14.2704,-2.08516 19.9917,-2.47229 31,-2.0957 27.8264,0.95191 58.9461,-1.30093 94.2832,-6.82422 14.163,-2.21367 18.4241,-2.44413 41.5,-2.24805 21.1045,0.17953 27.0153,-0.083 32.959,-1.46093 17.6145,-4.08325 29.8029,-10.82998 46.2832,-25.62305 10.0418,-9.01383 14.3072,-12.02417 25.9746,-18.33594 14.4582,-7.8215 22.9318,-14.41918 38.6894,-30.11719 8.3543,-8.32308 18.5014,-18.28283 22.5489,-22.13281 12.229,-11.63116 16.6319,-22.35281 18.6797,-45.5 0.5597,-6.325 1.706,-15.027 2.5488,-19.33789 2.0319,-10.39389 1.9347,-19.19344 -0.291,-26.32227 -2.2519,-7.21368 -5.3096,-12.1141 -13.4356,-21.52539 -3.473,-4.02247 -7.9876,-9.62541 -10.0312,-12.45117 -2.0436,-2.82573 -7.5522,-9.35073 -12.2422,-14.5 -4.8299,-5.30272 -10.1394,-12.39852 -12.2461,-16.36328 -6.5023,-12.23721 -20.6722,-25.22622 -35.7227,-32.74805 -8.5092,-4.25265 -20.2884,-7.72174 -38.3515,-11.29687 -9.9005,-1.95954 -24.7136,-5.83406 -34.4981,-9.02149 -15.761,-5.13437 -49.4538,-14.40998 -52.3984,-14.42578 -0.94,-0.004 -1.252,3.41064 -1.252,13.76953 0,15.51409 -0.6705,17.4869 -6.5039,19.09766 -4.2013,1.16001 -7.2708,0.50356 -10.2441,-2.1875 -2.1566,-1.95149 -2.25,-2.70764 -2.25,-18.17774 v -16.14258 l -6.4649,-1.28515 c -7.1701,-1.42515 -8.4838,-0.90194 -13.8144,5.5039 -4.6175,5.5488 -4.7207,6.22854 -4.7207,30.79883 v 23.51758 l 6.5273,3.65039 c 3.5906,2.00807 11.5784,5.23104 17.75,7.16211 6.172,1.93108 14.4963,4.81066 18.4981,6.39844 4.0017,1.58774 7.6778,2.88672 8.1699,2.88672 0.4921,0 1.0436,-5.7375 1.2246,-12.75 0.3099,-11.96202 0.5298,-13.17367 3.5723,-19.59766 8.5398,-18.03122 30.9334,-29.86577 45.7812,-24.19531 5.1908,1.98244 11.48,8.63719 13.4336,14.2168 0.8693,2.48284 1.4931,10.67617 1.7774,23.33203 0.421,18.73273 0.3556,19.61005 -1.6914,22.21094 -3.4031,4.32623 -11.7087,4.97682 -15.4746,1.21093 -1.31,-1.31025 -1.5716,-4.57638 -1.584,-19.74804 0,-21.37701 -0.5336,-23.2461 -6.3711,-23.0586 -5.7948,0.18595 -14.3186,6.52191 -17.8203,13.24414 -2.7183,5.21847 -2.7924,5.78903 -2.75,21 l 0.041,15.63477 7.0898,5 c 16.2614,11.46773 28.5711,26.86835 33.4649,41.86914 2.186,6.7014 2.6522,9.97646 2.6504,18.63086 0,12.33078 -2.73,21.96832 -9.4239,33.30078 -6.4153,10.86096 -9.1121,13.31337 -20.7754,18.88477 -9.6706,4.6196 -11.4177,5.90777 -20.0918,14.82617 -8.7995,9.04747 -10.0947,9.99249 -17.5586,12.81641 -31.169,11.79269 -61.3452,17.41011 -94.4414,17.58007 -19.5511,0.10054 -24.2235,-0.80207 -49.1582,-9.49218 -18.7079,-6.51992 -31.5359,-9.42981 -45.8418,-10.40039 -24.6077,-1.66946 -35.5842,-3.87883 -47.5,-9.56055 -15.2931,-7.29211 -25.4579,-18.13126 -26.9414,-28.72656 -1.4899,-10.64213 -3.3208,-14.71372 -9.9297,-22.08399 -8.1286,-9.0655 -9.6289,-12.25881 -9.6289,-20.49414 0,-14.54604 8.5097,-31.52361 22.8828,-45.65039 7.0753,-6.95407 8.2811,-7.71466 16.5586,-10.46094 8.0652,-2.67587 9.6732,-3.66089 16.6543,-10.18945 4.2501,-3.97459 9.9122,-8.33274 12.5821,-9.68555 6.4853,-3.28634 22.1135,-8.02695 36.8222,-11.16797 9.1775,-1.95991 17.0713,-4.8701 25.7676,-6.59961 5.4516,-1.08427 10.9667,-1.91862 16.5078,-2.35742 3.617,-0.28649 7.2549,-0.11159 10.8828,-0.17773 4.074,-0.0745 8.1495,-0.35722 12.2227,-0.2461 8.7273,0.23773 14.3259,1.2861 26.1191,1.95508 8.5251,0.48355 16.5126,1.12445 17.75,1.42383 l 2.25,0.54492 v -22.31055 c 0,-24.67695 0.8514,-30.23961 6.0313,-39.42968 1.6127,-2.8613 2.5435,-5.44188 2.0703,-5.73438 -1.7628,-1.08949 -29.272,-7.4791 -37.1758,-8.63477 -2.76,-0.40355 -6.2164,-0.64523 -9.9922,-0.74218 z m -130.5859,65.18164 c 1.1626,0.0279 2.0612,0.19101 2.5488,0.51172 2.7542,1.811 0.3925,3.80963 -5.1797,4.38476 -3.0036,0.30992 -7.3004,1.50147 -9.5488,2.64844 -4.518,2.30495 -5.7753,2.52866 -6.6113,1.17578 -1.1524,-1.86433 0.7237,-3.96197 5.2656,-5.89062 4.1834,-1.77631 10.0375,-2.91369 13.5254,-2.83008 z m 371.6855,58.29492 c 3.8153,0.45071 12.2236,8.08365 16.3848,16.16211 2.2367,4.34245 3.5938,12.88921 2.7227,17.14844 -0.7091,3.46726 -2.4498,4.94846 -3.6094,3.07226 -0.3591,-0.58189 -0.7932,-3.925 -0.9629,-7.42968 -0.4082,-8.4268 -4.2414,-15.61437 -11.2422,-21.07813 -2.8463,-2.22168 -5.2092,-4.77799 -5.25,-5.68164 -0.077,-1.69495 0.6853,-2.3436 1.957,-2.19336 z m -477.6152,94.28321 c 1.15,-0.16805 3.1198,1.29185 5.0078,4.51367 2.075,3.54062 4.1073,5.24316 9.8457,8.25 5.534,2.89992 7.6998,4.67553 9.2305,7.56445 1.7461,3.29533 1.8096,3.89596 0.5,4.73438 -2.1766,1.39351 -2.3904,1.29419 -4.3535,-2.0293 -1.0602,-1.79471 -4.0906,-4.18519 -7.4688,-5.89063 -6.6614,-3.36253 -10.9088,-7.29031 -12.8496,-11.88281 -1.3918,-3.29433 -1.0621,-5.09172 0.088,-5.25976 z m 444.5586,32.4707 c 0.9151,-0.22526 1.563,0.49902 1.8164,2.20117 0.4279,2.87365 -3.7812,8.53057 -8.1836,11 -2.1074,1.18231 -6.2327,2.63155 -9.166,3.2207 -8.2481,1.65646 -14.7166,5.47126 -20.584,12.13672 -2.9163,3.31291 -5.5984,6.02344 -5.959,6.02344 -0.359,0 -1.1585,-0.60836 -1.7754,-1.35156 -0.8606,-1.03688 -0.4643,-2.25843 1.7051,-5.25 6.0272,-8.31058 13.5822,-13.27071 24.4219,-16.03321 8.6801,-2.21215 11.3677,-3.80049 14.3086,-8.45898 1.3189,-2.08915 2.5009,-3.26303 3.416,-3.48828 z"
         transform="scale(0.26458333)" /><path
         id="path358"
         style="fill:#dde6ec;stroke-width:2;stroke-linecap:round;stroke-linejoin:round;paint-order:markers stroke fill"
         d="m 7353.2931,-840.18946 c -1.675,0.04 -3.4452,0.3599 -5.252,0.80859 -0.4411,0.10961 -0.8859,0.23109 -1.334,0.36523 -1.839,0.55058 -3.7156,1.23267 -5.6562,2.19922 -1.9406,0.96654 -3.9566,2.25068 -5.9414,3.74805 -5.9543,4.49188 -11.6351,10.90115 -14.2071,16.39063 l -2.7148,5.79492 v 0.7832 c 0.033,0.24227 -3e-4,0.4865 0.094,0.74805 -0.01,0.038 -0.02,0.0834 -0.025,0.12304 -0.028,0.19503 -0.046,0.47495 -0.066,0.71875 v 59.0254 c 0.421,0.24051 1.0732,0.40635 1.5547,0.22656 0.3472,-0.12958 0.4151,-0.28786 0.5567,-0.44336 -0.1893,-0.82988 -0.2526,-1.68047 -0.211,-2.54883 0,-0.10044 0.012,-0.19824 0.02,-0.29883 0.058,-0.74369 0.2045,-1.47782 0.4336,-2.21289 0.056,-0.1856 0.1046,-0.36693 0.1718,-0.55078 0.2468,-0.66063 0.5761,-1.29627 0.9649,-1.91992 0.1204,-0.19526 0.2111,-0.39572 0.3457,-0.58594 0.5538,-0.77692 1.1956,-1.51663 1.9844,-2.17969 v 0 l 3.1758,-2.67187 0.5,-24.60547 c 0.1204,-5.9312 0.2339,-10.13433 0.3867,-13.86914 -0.01,-0.10866 -0.015,-0.26283 -0.021,-0.35156 -0.024,-0.32584 0.026,-0.37548 -0.125,-0.89649 -0.028,-0.0974 -0.029,-0.21239 -0.2519,-0.5293 -0.028,-0.0402 -0.084,-0.0948 -0.125,-0.14257 0.047,-1.00491 0.089,-2.0893 0.1679,-2.66211 0.115,-0.83505 0.4026,-1.2292 0.1524,-0.92774 0.3245,-0.39086 0.5418,-0.81562 0.7617,-1.23828 1e-4,-6.3e-4 -1e-4,-10e-4 0,-0.002 0.5568,-5.13126 1.675,-8.27235 3.7578,-10.7832 0.8165,-1.04791 1.7651,-2.10688 2.957,-3.29883 0.9171,-0.91707 2.2836,-1.96584 3.8614,-3.02344 0.098,-0.0657 0.2187,-0.12572 0.3183,-0.19141 1.5063,-0.99402 3.1611,-1.99118 4.8282,-2.88281 0,-6.9e-4 0,-10e-4 0,-0.002 0,-0.0229 0.027,-0.0499 0.027,-0.0723 0,0.0698 -0.014,0.0107 -0.02,0.0684 0.3413,-0.18247 0.6323,-0.28398 0.9707,-0.45703 1.398,-0.71471 2.8039,-1.41796 4.0058,-1.89258 1.5005,-0.59356 2.7597,-0.95276 3.5469,-0.95312 0.82,-3.8e-4 1.6479,0.14362 2.4551,0.41015 6e-4,2.1e-4 0,-2e-4 0,0 0.8067,0.26652 1.5906,0.6565 2.3204,1.14649 0.7305,0.49067 1.4068,1.08235 1.9961,1.7539 0.589,0.671 1.0908,1.41997 1.4746,2.22852 0.565,1.191 0.9283,2.88642 1.1679,5.58594 0.1171,0.0755 0.1819,0.20679 0.3086,0.26758 0.033,0.167 0.066,0.40491 0.1,0.74609 -0.01,0.0612 -0.1425,0.23105 -0.1543,0.27734 -0.073,0.28668 -0.083,0.44496 -0.1035,0.67578 -0.02,0.22083 -0.015,0.86458 -0.029,1.17383 -10e-5,0.003 2e-4,0.009 0,0.0117 0.1449,2.87134 0.2598,5.91919 0.2598,11.10547 v 16.58008 l 2.4062,0.60351 c 1.3236,0.33222 3.3846,0.0823 4.5782,-0.55664 1.6239,-0.86923 1.8816,-3.80845 1.8398,-12.14843 -0.016,-0.0103 -0.023,-0.0312 -0.039,-0.041 0.045,-2.88802 0.071,-5.75672 -0.012,-8.92773 0.01,-0.007 0.016,-0.0165 0.025,-0.0234 -0.074,-4.212 -0.1364,-7.39908 -0.2285,-9.90625 -0.014,-0.38602 -0.045,-0.53942 -0.06,-0.89258 -0.2946,-6.65484 -0.872,-8.02333 -2.7618,-10.87695 -0.8257,-1.24689 -1.7604,-2.30961 -2.7519,-3.26758 -0.3073,-0.29687 -0.6446,-0.53768 -0.9668,-0.80664 -0.7289,-0.60832 -1.4875,-1.16014 -2.2891,-1.625 -0.3961,-0.22974 -0.7999,-0.44219 -1.2129,-0.63672 -0.839,-0.39517 -1.7169,-0.70396 -2.6211,-0.95313 -0.3926,-0.10818 -0.7735,-0.24369 -1.1777,-0.32421 -1.322,-0.26325 -2.6875,-0.42097 -4.123,-0.38672 z m 71.6171,44.72461 c 0,2.8e-4 -0.01,0.002 -0.014,0.002 -1.6325,0.10871 -3.3763,0.49017 -5.1739,0.99609 -0.4529,0.12754 -0.9114,0.26716 -1.375,0.41992 -1.8458,0.60812 -3.7447,1.34157 -5.7597,2.34961 -8.9647,4.48472 -15.545,10.85238 -19.461,18.82813 l -2.9394,5.98633 -0.2734,57.4668 c -0.1512,31.60637 -0.041,58.07093 0.2421,58.81054 0.3364,0.88029 1.815,1.2367 4.2754,1.03321 l 3.3633,-0.27735 c 5e-4,-3e-4 0,3.1e-4 0,0 0.1277,-0.0846 0.3135,-0.16094 0.3925,-0.24023 v -0.002 l 0.4961,-57.29101 v -0.22266 c -0.017,-0.0339 -0.015,-0.0516 -0.039,-0.0879 -0.031,-8.77958 0.058,-13.95795 0.1035,-20.49805 0.015,-0.0409 0.1031,-0.13698 0.1152,-0.16796 v -0.002 l 0.1934,-22.24414 c -0.012,-0.14738 -0.023,-0.44457 -0.033,-0.55859 0.02,-0.5938 0.038,-1.32042 0.057,-2.00196 l 0.1016,-11.71679 2.9707,-5.36328 c 0.755,-1.36304 1.6438,-2.67976 2.6328,-3.9336 6e-4,-7.2e-4 0,-10e-4 0,-0.002 0.9894,-1.25416 2.0792,-2.44408 3.2402,-3.55469 1.1601,-1.10999 2.3891,-2.13985 3.6582,-3.07226 4e-4,-3.4e-4 0,3.3e-4 0,0 5.0796,-3.73156 10.7795,-5.90368 15.1016,-5.41993 0.4384,0.0489 0.7893,0.25083 1.1973,0.35547 0.596,0.15318 1.23,0.24124 1.75,0.51953 0,5.7e-4 0,-5.7e-4 0,0 0.5524,0.29566 1.0505,0.6193 1.5,0.99415 0.9016,0.75191 1.6069,1.71712 2.1679,3.11132 1.4024,3.4845 1.896,9.64798 2.2461,21.86524 l 0.5313,18.5 2.8066,0.32226 v 0 c 0.091,0.0104 0.1541,0.008 0.2422,0.0176 5.1297,0.54721 5.4434,-0.76406 5.4434,-19.8125 0,-18.77129 -0.5961,-22.26479 -4.7539,-27.86133 -0.8923,-1.20107 -1.8573,-2.21497 -2.8653,-3.11914 -0.3039,-0.27255 -0.6307,-0.48881 -0.9453,-0.73437 -0.7383,-0.57662 -1.4996,-1.09156 -2.2968,-1.51953 -0.3862,-0.20721 -0.7796,-0.39602 -1.1797,-0.56836 -0.819,-0.35302 -1.6731,-0.61924 -2.5508,-0.82618 -0.3887,-0.0915 -0.7658,-0.21247 -1.166,-0.27539 -1.2826,-0.20187 -2.6091,-0.2971 -4.0117,-0.20507 z m -147.0527,36.3125 c -4.5787,-0.0705 -9.1699,-0.0211 -13.7578,0.10937 -1.4469,0.0412 -2.8899,0.13633 -4.3359,0.19727 -3.1193,0.13147 -6.2368,0.27922 -9.3457,0.50195 -1.7581,0.12595 -3.5071,0.2963 -5.2598,0.45117 -2.8205,0.24927 -5.6362,0.51828 -8.4375,0.8418 -1.7947,0.20728 -3.5806,0.44024 -5.3652,0.67773 -2.7485,0.36579 -5.4817,0.76631 -8.2012,1.20313 -1.7717,0.28457 -3.5397,0.57422 -5.2969,0.88867 -2.7722,0.49613 -5.5154,1.04346 -8.2461,1.61328 -1.6146,0.33693 -3.2377,0.66098 -4.8359,1.02344 -2.9706,0.67375 -5.8918,1.41662 -8.7988,2.17773 -1.3102,0.34302 -2.6436,0.65503 -3.9395,1.01563 -4.1668,1.15944 -8.2713,2.3934 -12.2734,3.73242 -3.5821,1.19846 -6.4638,2.20654 -8.9004,3.16602 -7.3098,2.87844 -10.6121,5.32198 -16.791,11.17187 -0.019,0.0177 -0.03,0.0254 -0.049,0.043 1e-4,8.3e-4 -1e-4,10e-4 0,0.002 0.01,0.0712 -0.017,0.0841 0,0.16993 0.01,0.0372 0.071,0.0698 0.082,0.10937 -0.206,0.007 -0.3396,0.0772 -0.5137,0.11133 -0.049,0.0455 -0.083,0.0722 -0.1309,0.11719 -1.3715,1.28622 -2.6054,2.40222 -3.6875,3.28906 -0.1162,0.0952 -0.2271,0.15633 -0.3418,0.24805 -3.0987,2.47893 -5.8008,3.77669 -10.9902,5.65039 -0.3256,0.11755 -0.522,0.20674 -0.8691,0.33007 -3.3812,1.20112 -5.4989,2.08748 -7.3848,3.08594 -0.5862,0.31041 -1.2532,0.5854 -1.7969,0.94336 -7e-4,4.7e-4 0,10e-4 0,0.002 -0.2281,0.15024 -0.4785,0.40186 -0.7051,0.56446 -2.0515,1.4713 -4.0916,3.40068 -7.4942,6.85156 -1.765,1.79017 -3.3939,3.59344 -4.9199,5.4043 -0.3133,0.37043 -0.5852,0.74411 -0.8887,1.11523 -1.2187,1.49696 -2.3833,2.9981 -3.4394,4.50391 -0.2223,0.31504 -0.4254,0.62998 -0.6406,0.94531 -1.1112,1.63856 -2.1454,3.28052 -3.0645,4.92383 -0.087,0.15493 -0.1724,0.3099 -0.2578,0.46484 -1.0109,1.84403 -1.9163,3.68847 -2.6855,5.53125 0.124,-0.0426 0.1219,-0.10547 0.3359,-0.10547 -0.122,0 -0.2258,0.12095 -0.3535,0.14649 -0.5303,1.27343 -0.9901,2.54626 -1.4063,3.8164 -0.073,0.22469 -0.144,0.4493 -0.2129,0.67383 -0.3468,1.113 -0.6471,2.2237 -0.9023,3.33203 -0.1248,0.55664 -0.2211,1.11088 -0.3223,1.66602 -0.1577,0.83807 -0.3191,1.67571 -0.4218,2.50976 -0.163,1.37678 -0.267,2.74983 -0.2813,4.11329 -9e-4,0.0797 -0.013,0.16059 -0.014,0.24023 -0.019,2.99753 0.4643,6.04723 1.1934,8.34766 0.5468,1.72531 1.2322,3.03015 1.9453,3.57422 0.2372,0.18092 0.4773,0.27688 0.7168,0.27734 0.4577,0 2.531,-2.75296 4.6074,-6.11719 0.027,-0.0445 0.08,-0.0998 0.1074,-0.14453 1.015,-1.62409 2.349,-3.38617 3.8614,-5.21484 1.2687,-1.58104 2.6902,-3.1694 4.2187,-4.82032 0,-0.0321 0.023,-0.0524 0.023,-0.0859 0,0.0537 -2e-4,0.0357 0,0.0625 0.418,-0.45127 0.824,-0.89672 1.2578,-1.34961 0.038,-0.0456 0.074,-0.0885 0.1406,-0.1543 0,-0.004 0.012,-0.01 0.02,-0.0156 2.6656,-2.77135 5.5022,-5.48989 8.543,-8.11133 0.1699,-0.14826 0.3236,-0.30008 0.4941,-0.44727 3.101,-2.64534 6.2565,-5.15204 9.3536,-7.25781 1.9418,-1.32036 4.0138,-2.54165 6.0449,-3.79492 0.042,-0.16647 0.1484,-0.2935 0.1484,-0.48047 0,0.68685 -0.077,0.51178 -0.031,0.40625 3.0036,-1.84992 6.1058,-3.62067 9.2988,-5.32227 0.1401,-0.0748 0.2794,-0.15009 0.4199,-0.22461 3.0517,-1.61589 6.1845,-3.16351 9.4024,-4.64258 0.3813,-0.17581 0.7667,-0.34759 1.1503,-0.52148 3.0279,-1.3681 6.1151,-2.68309 9.2833,-3.92969 0.6947,-0.2745 1.404,-0.53607 2.1054,-0.80468 2.9305,-1.11757 5.8957,-2.20083 8.9395,-3.21485 1.0961,-0.36689 2.2234,-0.70333 3.334,-1.05664 2.7625,-0.87467 5.5329,-1.74092 8.3828,-2.53125 1.5806,-0.44046 3.2113,-0.82999 4.8183,-1.24414 2.4984,-0.64082 4.9804,-1.29589 7.541,-1.87305 2.3439,-0.53062 4.759,-0.98456 7.1543,-1.46093 1.9434,-0.38504 3.8481,-0.81079 5.8243,-1.16016 4.363,-0.7737 8.804,-1.46058 13.3242,-2.05664 0.1186,-0.0156 0.2309,-0.0392 0.3496,-0.0547 11.2413,-1.46922 33.8545,-2.13503 51.8652,-1.75586 0,3e-5 0,-2e-5 0,0 6.0019,0.12642 11.4927,0.36906 15.8809,0.73633 0,9e-5 0,-9e-5 0,0 l 10.1543,0.85156 c 0.031,-0.0666 0.068,-0.12499 0.092,-0.19531 v -15.3457 c 0,-8.55186 -0.4203,-15.80989 -0.9336,-16.12696 -0.2563,-0.15845 -2.5683,-0.43401 -6.084,-0.75 0,-9e-5 0,10e-5 0,0 -3.5184,-0.31614 -8.2444,-0.67295 -13.3262,-0.99414 0,-8e-5 0,8e-5 0,0 -4.803,-0.30355 -9.6339,-0.49177 -14.4785,-0.5664 z m 52.041,1.76953 c -0.6218,0 -1.1759,0.15369 -1.6797,0.38476 -0.2459,0.18864 -0.4758,0.35761 -0.7109,0.51758 0,10e-4 0,0.004 -0.01,0.006 -7e-4,5.6e-4 0,10e-4 0,0.002 -0.552,0.44126 -0.9611,1.05571 -1.2539,1.75782 -0.035,0.0907 -0.085,0.16728 -0.1152,0.26172 -0.2627,0.7593 -0.3825,1.62725 -0.2637,2.60742 0.2834,2.34315 3.7012,4.59342 28.8222,18.9707 15.6753,8.97109 28.8609,16.35031 29.3008,16.40039 0.44,0.0503 0.6648,-2.42869 0.5,-5.50976 v 0 l -0.2637,-4.93555 c -0.1023,-0.28622 -0.2066,-0.57217 -0.3359,-0.83984 v -0.002 l -11.6973,-6.80273 c -6e-4,-3.6e-4 0,3.5e-4 0,0 -12.2518,-7.12523 -22.3462,-12.83095 -29.6171,-16.75391 -7e-4,-3.5e-4 0,3.5e-4 0,0 -3.6349,-1.96114 -6.5635,-3.47814 -8.7031,-4.50391 -9e-4,-4.3e-4 0,4.4e-4 0,0 -2.1397,-1.02576 -3.4897,-1.56054 -3.9668,-1.56054 z m -10.8105,8.15039 c -0.4884,1.35586 -0.5904,1.77747 -0.9004,2.69531 v 28.2207 5.89649 26.47656 l 2.3945,1.19531 c 1.3977,0.6971 3.2713,0.8711 4.5,0.41797 0.9489,-0.3499 1.482,-0.76927 1.8106,-2.1289 10e-5,-3.4e-4 -1e-4,-0.002 0,-0.002 0.3285,-1.36143 0.4522,-3.66432 0.582,-7.78711 l 0.2871,-9.14257 -4.0371,-3.8418 c -0.8307,-0.79021 -1.4931,-1.60944 -2.0664,-2.43945 -0.041,-0.061 -0.07,-0.12249 -0.1094,-0.1836 -0.5366,-0.80513 -0.9413,-1.61713 -1.2383,-2.43359 -2e-4,-5.2e-4 2e-4,-10e-4 0,-0.002 -0.7195,-1.97911 -0.7745,-3.94946 -0.1,-5.75586 4e-4,-1.8e-4 0,-0.01 0,-0.01 0,-0.003 0,-0.006 0.01,-0.01 0.3203,-0.85011 0.8306,-1.64603 1.457,-2.40234 0.1331,-0.16278 0.2669,-0.32105 0.4141,-0.47851 0.7064,-0.74759 1.5118,-1.45411 2.5351,-2.0586 0.7607,-0.4493 1.3323,-0.79115 1.7618,-1.18555 1.2884,-1.18318 1.2988,-2.84884 1.2988,-9.38085 0,-8.62462 -0.046,-8.78241 -2.8594,-10.23829 -0.2866,-0.14822 -0.4984,-0.35888 -0.7597,-0.52929 -0.073,0.0419 -0.1926,0.0659 -0.2442,0.11328 0.078,-0.0684 0.1557,-0.0692 0.2363,-0.11914 -0.8415,-0.55003 -1.5502,-1.19754 -2.1269,-1.9375 -0.05,-0.0624 -0.104,-0.12009 -0.1524,-0.1836 -0.56,-0.76117 -1.0224,-1.57447 -1.3086,-2.46093 -8e-4,-5.5e-4 0,-0.001 0,-0.002 -0.1369,-0.0904 -0.1439,-0.18605 -0.3672,-0.26758 -0.2588,-0.0945 -0.6394,-0.10407 -1.0156,-0.0352 z m 53.6055,8.34375 c 0.01,0.58453 10.218,6.48325 11.246,6.49609 0.4124,0.004 0.75,-0.44023 0.75,-0.99023 v 0 c 0,-0.55 -0.169,-1 -0.3731,-1 -0.2078,0 -2.9055,-1.11881 -5.998,-2.48633 0,-4.2e-4 0,4.2e-4 0,0 -3.0909,-1.36708 -5.6174,-2.27459 -5.621,-2.01953 z m -39.0782,1.85547 c -0.3981,0.41709 -0.6647,1.09152 -0.9277,1.77734 v 5.24805 c 0,7.52114 0.038,7.58528 3.2266,9.24219 1.7744,0.91759 8.8618,3.14062 15.75,4.93945 6.8878,1.79883 16.5733,4.85648 21.5234,6.79492 4.365,1.70942 6.5434,2.44919 8.248,2.90234 1.0721,0.28531 2.0494,0.52775 2.4766,0.41797 0.1924,-0.21064 0.494,-0.4115 0.6055,-0.59179 0.1,-0.16115 0.079,-0.31491 0.1211,-0.47657 -0.068,-0.40795 -2.6366,-2.19289 -6.7403,-4.75 -3e-4,-2.3e-4 0,2.4e-4 0,0 -4.1047,-2.55768 -9.745,-5.88874 -15.959,-9.39257 -12.5125,-7.05525 -24.2127,-13.68888 -26,-14.74219 z m 70.8594,14.65039 c -0.4335,0 -0.7842,7.08747 -0.7793,15.75 v 15.75 l 9.4648,7.24414 c 2.1682,1.65946 4.1802,3.39069 6.1231,5.14844 0.8687,0.77587 1.7129,1.55221 2.5391,2.34375 0.2605,0.2534 0.4958,0.51269 0.7519,0.76758 2.6167,2.56466 4.9713,5.19596 7.1074,7.8789 0,10e-4 0,0.003 0,0.004 0.1003,0.0866 0.2107,0.17018 0.2715,0.25195 0.098,0.13148 0.031,0.25861 0.031,-0.1582 0,0.26041 0.056,0.27619 0.088,0.40039 0,0.005 0.01,0.0105 0.012,0.0156 1.2247,1.56517 2.4023,3.12856 3.4492,4.7168 1.2548,1.84031 2.407,3.68984 3.3691,5.55078 0.4085,0.78992 0.7434,1.3303 1.1309,2.0293 0.4388,0.43673 0.8438,0.81836 1.4004,1.08594 0.3118,0.14987 0.6926,0.28512 1.1855,0.26953 0.4677,-0.0148 1.0017,-0.26066 1.3653,-0.5918 0.014,-0.0794 0.035,-0.12639 0.049,-0.20703 h 0.01 c 3.1798,-19.23792 -4.2413,-38.56082 -20.8086,-54.82227 -2.3664,-2.32273 -4.9169,-4.58283 -7.6523,-6.77148 -5e-4,-3.7e-4 0,3.7e-4 0,0 -4.5737,-3.6596 -8.6704,-6.65488 -9.1054,-6.65625 z m -74.5137,5.0039 c -1.2911,-0.003 -2.9327,1.07582 -3.9082,2.56446 -0.5447,0.8315 -0.8235,1.37325 -0.9707,1.85351 -2e-4,6.1e-4 0,10e-4 0,0.002 0,5.8e-4 -10e-5,10e-4 0,0.002 0.077,0.65283 0.2942,1.30933 0.6504,1.9707 0.2847,0.32012 0.5884,0.64376 1.0488,1.09375 0.6627,0.64761 3.0078,2.2212 6.2539,4.23438 7e-4,4.3e-4 0,-4.3e-4 0,0 3.246,2.01304 7.3923,4.46647 11.6543,6.87304 8.5248,4.81376 20.6731,11.77919 26.9981,15.47852 6.325,3.69933 11.8608,6.76979 12.3008,6.82422 0.4399,0.0544 0.6648,-2.48481 0.5,-5.64453 v 0 l -0.2988,-5.7461 -25.9961,-14.75 c -6e-4,-3.2e-4 0,3.2e-4 0,0 -10.7242,-6.08406 -20.5506,-11.34076 -25.3105,-13.58984 -9e-4,-4.3e-4 0,4.3e-4 0,0 -1.5864,-0.74959 -2.6098,-1.16539 -2.916,-1.16602 z m -147.9746,4.4336 c 0,0.34347 0.3196,0.71008 0.5723,1.07422 -0.096,-0.0783 -0.2047,-0.0848 -0.2793,-0.1875 -0.2381,-0.32785 -0.293,-0.67864 -0.293,-0.88672 z m -222.0137,84.5625 c -0.2759,-0.27515 -0.2834,7.14998 0,16.5 0.2794,9.76666 0.7801,16.25365 2.1231,22.23047 1e-4,5.9e-4 -1e-4,10e-4 0,0.002 1.343,5.97612 3.5292,11.44312 7.1797,19.16602 3.4452,7.28867 7.113,13.62508 11.5762,19.80469 3e-4,4.4e-4 -4e-4,0.002 0,0.002 2.2313,3.08939 4.661,6.13878 7.3613,9.24805 3e-4,4e-4 -4e-4,0.002 0,0.002 2.7004,3.10934 5.672,6.2782 8.9844,9.60547 3.2931,3.30802 6.5343,6.39415 9.8046,9.32031 3.2707,2.92662 6.5697,5.6918 9.9766,8.36133 6.8133,5.33817 14.0582,10.28711 22.3711,15.3457 3.2278,1.96417 6.5198,3.88691 9.8711,5.76563 6.7025,3.75743 13.6441,7.34176 20.7969,10.74414 8.6799,4.12882 17.779,7.87205 27.0273,11.44922 2.1834,0.84451 4.271,1.79084 6.4824,2.60351 6e-4,2.1e-4 0,-2.1e-4 0,0 1.9364,0.7116 3.9707,1.29944 5.9277,1.98633 37.048,13.00363 77.6108,21.66619 118.7461,24.81836 7.7,0.59006 15.5751,1.25228 17.5,1.4707 2.0243,0.22968 7.1283,0.3171 13.8555,0.29688 13.4486,-0.0407 33.3884,-0.51304 48.2031,-1.14063 7.4083,-0.31383 13.534,-0.66595 16.9258,-1.02343 77.3374,-8.16322 143.2392,-29.53924 192.6894,-62.50001 29.2819,-19.51763 48.7928,-40.18331 60.6348,-64.22265 6.6217,-13.44257 9.5675,-24.66916 10.7988,-41.16211 0.3374,-4.51714 0.4686,-7.87448 0.4942,-10.52149 -2e-4,-1.3e-4 10e-5,-0.008 0,-0.008 0.063,-6.63213 -0.7533,-7.30597 -2.2227,0.35547 -0.7408,3.8654 -3.2117,10.7879 -5.5195,15.45898 -3.3494,6.77972 -5.7439,9.9562 -12.0625,16 -2e-4,1.8e-4 0,-1.7e-4 0,0 -4.3363,4.14747 -14.9566,14.5667 -23.5996,23.15235 -8.4383,8.38263 -15.0438,14.25855 -22.1601,19.50195 0.076,0.006 0.076,-0.0148 0.1797,0.01 -0.059,-0.0157 -0.1279,0.008 -0.1895,-0.002 -4e-4,3.2e-4 0,-3.1e-4 0,0 -0.7749,0.57082 -1.6502,1.1064 -2.4414,1.66407 -5e-4,0.003 -4e-4,0.006 -0.01,0.01 0,-4.4e-4 0,-1.2e-4 -0.01,0 -5.8476,4.11999 -12.0857,7.99832 -20.2734,12.48242 -4.4292,2.42574 -12.7647,8.60767 -19.2598,14.28516 -2.8866,2.52335 -5.2037,4.29973 -7.709,6.33399 -0.1287,0.13146 -0.2586,0.31582 -0.3789,0.41601 -0.1712,0.14275 -0.3112,0.20054 -0.4511,0.26758 -0.064,0.0517 -0.1371,0.11269 -0.2012,0.16406 -0.048,0.0294 -0.112,0.0566 0.08,0.0566 -0.066,0 -0.1201,0.0226 -0.1836,0.0273 -1.1676,0.93411 -2.5496,2.16736 -3.6582,3.00586 -0.038,0.008 -0.092,-0.0332 0.2656,-0.0332 -0.2042,0 -0.2097,0.0679 -0.3359,0.0918 -2.8771,2.17346 -5.6197,4.0363 -8.2754,5.66016 -0.269,0.16466 -0.5502,0.32841 -0.8184,0.48828 -5.1958,3.09138 -10.3451,5.33489 -16.2305,7.14258 -0.5507,0.16997 -1.1451,0.34619 -1.7109,0.50976 -2.9238,0.84037 -5.9832,1.63257 -9.4414,2.375 -1.4793,0.31758 -3.0394,0.57408 -4.8711,0.78125 -0.5,0.0566 -1.2308,0.0817 -1.7754,0.13086 -5.2588,0.47463 -12.9256,0.62504 -26.2539,0.58203 -0.4372,-10e-4 -0.5248,0.0116 -0.9746,0.01 -21.7624,-0.0866 -28.4797,0.23928 -38.4922,1.85742 -4.7579,0.76911 -8.9516,1.31226 -13.3359,1.9375 -3.156,0.45006 -6.5752,1.01411 -9.5996,1.39453 -4.25,0.53458 -8.314,0.87444 -12.4278,1.28125 -16.8733,1.66861 -33.2909,2.4388 -54.0644,2.44727 -16.0022,0.006 -22.652,0.17857 -30.3614,1.1914 -2.5682,0.33756 -5.2532,0.76968 -8.4414,1.31836 0,4.9e-4 0,-4.9e-4 -0.01,0 -10.5245,1.81139 -18.1766,2.49961 -27.7969,2.5 -4.6329,0 -8.4998,-0.10777 -12.0351,-0.44336 -1.7642,-0.16735 -3.4467,-0.39202 -5.0996,-0.6875 -3.2556,-0.58195 -6.4055,-1.4512 -9.8516,-2.70117 -0.059,-0.0215 -0.1125,-0.033 -0.1719,-0.0547 0,-7.4e-4 0,-0.001 -0.01,-0.002 -5.2734,-1.92801 -11.2667,-4.76931 -19.4414,-8.92773 -5.4358,-2.76518 -10.5937,-5.19989 -15.0156,-7.10938 -4.3412,-1.87443 -7.9643,-3.23837 -10.418,-3.89453 -0.018,-0.005 -0.048,-0.0167 -0.066,-0.0215 -0.748,-0.19866 -1.516,-0.44608 -2.2676,-0.65234 -3.0601,-0.83915 -6.1325,-1.70096 -9.2363,-2.65625 -0.5443,-0.16787 -1.0936,-0.36392 -1.6387,-0.53516 -3.3541,-1.05138 -6.7155,-2.14329 -10.084,-3.31445 -0.03,-0.0104 -0.06,-0.0189 -0.09,-0.0293 -0.083,0.18879 -0.02,0.09 -0.2168,0.50196 -1.1157,1.86381 -0.3731,0.39009 0.1367,-0.53125 -0.093,-0.0323 -0.1845,-0.0711 -0.2774,-0.10352 -4.988,-1.74169 -9.9503,-3.6338 -14.8789,-5.59961 -1.1058,-0.44079 -2.1953,-0.87744 -3.2949,-1.32812 -5.0154,-2.05679 -9.9779,-4.17808 -14.7949,-6.41211 -0.1622,-0.0752 -0.3128,-0.15515 -0.4746,-0.23047 -4.5568,-2.12199 -8.9422,-4.3244 -13.2188,-6.5625 -1.1831,-0.61881 -2.3391,-1.23362 -3.4961,-1.85938 -4.2269,-2.287 -8.3292,-4.59858 -12.1445,-6.95117 -0.1006,-0.062 -0.22,-0.12153 -0.3203,-0.18359 -4.5796,-2.83442 -10.3515,-5.33565 -15.5,-6.7168 -17.1386,-4.59761 -25.1799,-10.73827 -34.1309,-26.06055 -2.964,-5.07382 -8.4477,-12.14028 -13.7636,-17.73632 -1.9943,-2.09919 -3.6856,-4.07083 -5.2559,-6.01563 -0.7513,-0.91789 -1.4825,-1.89195 -2.1582,-2.80273 -0.6394,-0.87732 -1.2424,-1.78309 -1.8242,-2.67188 -1.6473,-2.47665 -3.1655,-5.1636 -4.5156,-8.01172 -0.054,-0.1131 -0.1147,-0.21028 -0.168,-0.32422 -0.065,-0.0879 -0.064,-0.0631 -0.127,-0.1914 -0.023,-0.047 -0.022,-0.10217 -0.043,-0.15235 -0.012,-0.0271 -0.025,-0.0627 -0.037,-0.0898 -0.8597,-1.8686 -1.7428,-4.00805 -2.5684,-6.18359 -0.026,-0.0696 -0.056,-0.12754 -0.082,-0.19727 0,-0.002 -0.01,-0.01 -0.012,-0.0117 v -0.0234 c -0.7002,-1.8558 -1.3981,-3.55406 -2.1172,-5.70507 -0.021,0.0227 -0.01,0.0291 -0.033,0.0527 l -0.01,0.004 c 0.022,-0.0221 0.012,-0.0606 0.033,-0.084 -0.01,-0.0295 -0.019,-0.0485 -0.029,-0.0781 -0.013,-0.0382 -0.02,-0.0746 -0.033,-0.11328 -1.6689,-4.99085 -3.2617,-9.32586 -3.5352,-9.59766 z m 137.6524,118.46289 c -1.1848,2.64422 -0.5025,-0.16866 0,0 z"
         transform="scale(0.26458333)" /><path
         id="path373"
         style="fill:#ffffff;fill-opacity:1;stroke:none;stroke-width:7.55905;stroke-linecap:round;stroke-linejoin:round;stroke-dasharray:none;stroke-opacity:1;paint-order:markers stroke fill"
         transform="scale(0.26458333)"
         d="m 7333.0407,-586.73724 c -0.9629,-0.43737 -1.1836,-1.29844 -1.2775,-4.98347 l -0.076,-2.97071 -1.6727,1.07989 c -2.0282,1.30944 -2.9058,1.68963 -4.0773,1.76633 -0.8206,0.0537 -0.9073,0.0337 -1.3939,-0.3218 -0.922,-0.67367 -0.9812,-1.62897 -0.1702,-2.74842 0.5858,-0.80879 1.5972,-1.51963 3.689,-2.59287 1.0631,-0.54544 1.9339,-1.0277 1.9352,-1.07169 0,-0.044 -0.9,-0.65463 -2.0028,-1.35697 -3.3071,-2.1061 -4.1198,-2.82694 -4.1198,-3.65421 0,-0.38904 0.6392,-1.17043 1.425,-1.74182 0.8689,-0.6319 1.6179,-0.45869 3.3118,0.76591 1.0885,0.7869 1.5354,1.00457 2.0624,1.00457 0.7473,0 0.9367,-0.45116 1.2594,-3 0.333,-2.63007 0.8732,-3.33923 2.4564,-3.22471 0.5541,0.0401 0.8117,0.12682 1.0619,0.35756 0.6374,0.58788 0.8108,1.33824 1.1081,4.79563 0.106,1.23255 0.2158,2.26396 0.2438,2.29204 0.028,0.0281 0.8572,-0.57389 1.8424,-1.33769 1.9805,-1.53542 2.8004,-2.00783 3.4846,-2.00783 0.5153,0 1.1857,0.42657 1.8361,1.16834 1.109,1.26473 0.5816,1.9866 -3.0294,4.14675 -1.1688,0.69915 -2.125,1.3316 -2.125,1.40543 0,0.0738 0.8156,0.82114 1.8125,1.66067 2.9907,2.51866 3.75,3.35068 3.75,4.10925 0,0.38792 -0.9503,1.35964 -1.4869,1.52041 -0.6598,0.19766 -1.462,-0.12215 -3.9492,-1.5744 -1.1432,-0.66747 -2.1027,-1.18935 -2.1323,-1.15974 -0.03,0.0296 -0.1403,1.06227 -0.246,2.29481 -0.2775,3.23414 -0.7061,4.73356 -1.5026,5.2554 -0.4177,0.27368 -1.5359,0.34205 -2.0173,0.12334 z m 40.0088,-28.00393 c -0.8475,-0.36892 -1.2934,-1.66938 -1.2973,-3.78393 0,-2.27762 -0.369,-2.97923 -1.3896,-2.67347 -0.2755,0.0826 -1.0216,0.5056 -1.658,0.94008 -1.4526,0.99173 -1.848,1.19599 -2.3153,1.19599 -0.5643,0 -0.9547,-0.18994 -1.5855,-0.77131 -0.654,-0.60291 -0.9288,-1.06487 -0.9288,-1.5616 0,-0.55099 1.098,-1.47322 2.939,-2.46841 3.3577,-1.81505 3.3138,-2.0818 -0.7515,-4.56886 -2.6031,-1.59249 -2.6768,-1.77837 -1.3345,-3.36477 0.7069,-0.83548 1.2144,-1.07386 1.8955,-0.89044 0.2692,0.0725 1.2374,0.49592 2.1517,0.94099 1.9993,0.97327 2.5134,1.04671 2.7845,0.39773 0.095,-0.22641 0.2361,-0.99985 0.3143,-1.71875 0.3372,-3.09916 0.8388,-3.84061 2.516,-3.71929 1.2991,0.094 1.7382,0.78686 2.0487,3.23307 0.4488,3.53621 0.8271,3.79661 2.929,2.01616 0.5196,-0.44018 1.2516,-0.94451 1.6265,-1.12075 1.4684,-0.6902 3.0233,-0.24092 3.4975,1.01062 0.2354,0.62129 0.1513,1.03017 -0.3735,1.81596 -0.6102,0.91391 -1.556,1.68367 -3.5557,2.89411 -0.825,0.49937 -1.5761,0.97871 -1.669,1.0652 -0.1385,0.12887 0.2225,0.39037 2,1.44886 2.4825,1.4783 3.6065,2.43433 3.6065,3.06761 0,0.67164 -1.1182,1.90987 -2.2391,2.47951 -0.6292,0.31978 -1.1335,0.11332 -2.4524,-1.004 -1.8463,-1.56404 -2.5072,-1.75917 -2.8862,-0.85208 -0.1024,0.24511 -0.295,1.19714 -0.4279,2.11563 -0.261,1.80346 -0.5411,2.70213 -1.0501,3.36948 -0.4881,0.63988 -1.5652,0.86777 -2.3948,0.50666 z m 20.8255,-24.78319 c -4.0635,-0.43517 -8.5674,-2.52451 -11.4469,-5.31012 -1.6895,-1.63446 -2.6781,-3.36014 -2.6781,-4.67478 0,-1.30283 1.0257,-3.67486 2.5593,-5.91859 1.362,-1.99266 1.9402,-3.37776 2.0913,-5.00965 0.022,-0.24062 0.078,1.67188 0.1231,4.25 0.088,4.99652 0.2216,6.3249 0.7507,7.47308 0.5321,1.15473 3.0497,3.31179 4.5839,3.92745 0.641,0.25723 0.9003,0.28185 2.8917,0.27457 2.2415,-0.008 4.7889,-0.26718 6.1875,-0.62902 1.1315,-0.29276 2.0066,-0.77289 2.637,-1.44684 1.3204,-1.41158 1.8203,-3.71592 2.0462,-9.43069 0.067,-1.69269 0.1515,-3.10745 0.188,-3.14392 0.036,-0.0365 0.066,0.18884 0.066,0.50066 0,0.8307 0.3489,2.6922 0.6191,3.30303 0.1289,0.29144 0.5778,0.89902 0.9975,1.35018 0.4197,0.45116 0.9328,1.08775 1.1402,1.41464 1.5004,2.36463 1.081,6.3261 -0.8732,8.2498 -1.8986,1.86887 -6.8624,4.32897 -9.6336,4.77454 -0.7957,0.12793 -1.3725,0.13963 -2.25,0.0457 z m -44.6681,-8.08782 c -1.0393,-0.38709 -1.5395,-1.29723 -1.4225,-2.58799 0.09,-0.99265 0.5226,-1.82122 1.199,-2.2966 1.6566,-1.16431 4.3916,0.53171 4.3916,2.72331 0,0.90725 -0.3463,1.41536 -1.2839,1.88409 -0.872,0.4359 -2.1328,0.55707 -2.8842,0.27719 z m -3.0291,-20.12762 c -0.5529,-0.24076 -1.2648,-0.90074 -1.6136,-1.49609 -1.3646,-2.32861 0.9964,-4.73082 3.8378,-3.9048 0.7482,0.21752 1.4,0.80655 1.5489,1.39976 0.3082,1.22769 -0.6948,3.39588 -1.851,4.0016 -0.4219,0.22105 -1.4139,0.22081 -1.9221,-4.7e-4 z m -28.8028,11.97556 c -3.2693,-0.30141 -6.3775,-1.07166 -10.625,-2.63295 -4.7709,-1.75367 -7,-3.44757 -7,-5.3192 0,-0.45066 0.4392,-0.94246 0.9744,-1.09111 1.4137,-0.39263 3.5694,0.0611 7.2131,1.51833 4.3052,1.72176 7.9649,2.38105 16.1875,2.91615 8.0225,0.52207 8.9927,0.80287 8.9981,2.60427 0,0.51986 -0.057,0.66475 -0.4087,1.01679 -0.4723,0.47239 -1.0512,0.62576 -3.0908,0.81901 -1.337,0.12668 -11.227,0.2629 -12.2486,0.16871 z m 4.0062,-19.92553 c -6.5037,-0.67871 -12.4029,-4.50803 -13.2448,-8.59763 -0.1831,-0.8892 -0.1721,-1.33386 0.055,-2.21759 0.31,-1.2063 0.77,-1.96466 2.0971,-3.45728 1.3364,-1.50318 1.7496,-2.22233 2.0099,-3.4982 l 0.1597,-0.78331 0.082,0.49689 c 0.045,0.27329 0.083,1.08752 0.084,1.80939 0,1.77298 0.2156,4.57806 0.4462,5.875 0.2884,1.62237 0.7297,2.4044 2.0909,3.70498 1.3518,1.29161 2.2417,1.80689 3.7907,2.19491 1.0014,0.25087 1.4178,0.27806 4.2356,0.27665 3.335,-0.002 4.6538,-0.15518 5.9045,-0.68729 2.4671,-1.04962 3.3488,-3.18743 3.6039,-8.73893 0.084,-1.82128 0.098,-1.90242 0.2366,-1.35608 0.1944,0.76552 0.4992,1.21197 0.8816,1.29128 0.171,0.0355 0.4424,0.0914 0.6031,0.12427 1.4835,0.30354 2.5073,3.97936 1.9027,6.8316 -0.2315,1.09252 -0.6624,1.91614 -1.4577,2.78625 -2.1517,2.35433 -6.1236,3.82243 -10.8101,3.99565 -0.888,0.0328 -2.0899,0.0101 -2.6709,-0.0506 z m -30.882,3.01177 c -1.3158,-0.40567 -2.3742,-1.77411 -2.3742,-3.06972 0,-0.69311 0.5805,-1.65303 1.2308,-2.03534 1.1312,-0.66496 2.8448,-0.31618 3.4365,0.69943 0.2976,0.51101 0.4149,1.88268 0.2219,2.596 -0.3487,1.28834 -1.5056,2.12082 -2.515,1.80963 z m -37.6867,-15.17161 c -3.0923,-1.67575 -4.3282,-3.46591 -3.9224,-5.68164 0.2906,-1.58668 1.3091,-2.83196 3.2022,-3.91511 1.3322,-0.76223 1.8582,-0.76223 3.1904,0 1.8931,1.08315 2.9116,2.32843 3.2022,3.91511 0.3388,1.85028 -0.5136,3.47098 -2.5474,4.84314 -0.8646,0.58332 -2.0872,1.25328 -2.2771,1.24777 -0.054,-0.002 -0.4354,-0.18573 -0.8479,-0.40927 z m -38.0505,7.26098 c -0.7826,-0.42032 -1.0117,-1.28786 -1.0127,-3.83468 -4e-4,-0.93593 -0.059,-1.91263 -0.1309,-2.17044 -0.1883,-0.67808 -0.5728,-0.63158 -1.9431,0.23501 -3.1843,2.01379 -5.075,2.34392 -5.6884,0.99327 -0.6956,-1.53153 0.207,-3.07524 2.4863,-4.25247 1.2009,-0.62025 2.2768,-1.46234 2.2768,-1.78207 0,-0.32934 -0.8359,-0.97606 -2.1493,-1.66292 -2.6742,-1.39845 -3.5343,-3.0954 -2.2301,-4.39964 0.3901,-0.39004 0.5635,-0.47493 0.9701,-0.47493 0.7414,0 1.8456,0.42819 3.0343,1.17668 1.4725,0.9272 2.0466,1.19832 2.5374,1.19832 0.6445,0 0.7315,-0.31926 0.8344,-3.0625 0.078,-2.06508 0.1237,-2.44252 0.3542,-2.89245 0.2967,-0.57933 0.7271,-0.79505 1.5865,-0.79505 0.857,0 1.2901,0.216 1.5825,0.78932 0.2249,0.44082 0.2741,0.84159 0.355,2.89245 0.1084,2.74842 0.1957,3.06823 0.8375,3.06823 0.4945,0 1.0588,-0.27132 2.6,-1.25 2.0307,-1.28959 2.5471,-1.45829 3.2891,-1.07457 0.4345,0.22468 1.5897,1.44276 1.7011,1.79366 0.2026,0.63853 -0.4657,1.28465 -3.7092,3.58601 -0.9455,0.67082 -1.7476,1.26582 -1.7824,1.3222 -0.035,0.0564 0.7515,0.59542 1.7476,1.19784 3.3324,2.0155 4.1416,2.9659 3.5889,4.21524 -0.3633,0.82141 -0.9061,1.20988 -1.6885,1.2084 -0.8183,-0.002 -1.6163,-0.36614 -3.1655,-1.44623 -2.8859,-2.01207 -3.2506,-1.80604 -3.4152,1.92954 -0.1021,2.31484 -0.2245,2.86253 -0.7432,3.32494 -0.3424,0.30516 -1.6712,0.40959 -2.1232,0.16684 z m -50.0814,35.19438 c -0.5287,-0.57045 -0.8124,-1.77092 -0.9326,-3.94677 -0.1919,-3.47078 -0.5416,-3.6393 -3.4406,-1.65772 -1.5932,1.0891 -2.4349,1.47149 -3.2725,1.48681 -0.922,0.0169 -1.2224,-0.29592 -1.2224,-1.27279 0,-1.39367 0.8807,-2.58286 2.7811,-3.75535 1.3782,-0.85031 2.1564,-1.5142 2.1564,-1.83974 0,-0.33505 -0.931,-1.12973 -2.2031,-1.88061 -2.0643,-1.21843 -2.9291,-2.24556 -2.74,-3.25399 0.1303,-0.69432 0.7487,-1.25357 1.5131,-1.36844 1.2558,-0.18868 2.4385,0.24769 4.7418,1.74949 0.8076,0.52655 1.4866,0.93912 1.5089,0.91681 0.022,-0.0223 0.1307,-1.07957 0.2408,-2.3495 0.2171,-2.50363 0.4216,-3.60326 0.8124,-4.36934 0.54,-1.05848 1.1493,-1.27129 1.762,-0.61539 0.4848,0.51891 0.8248,1.68035 1.0532,3.59673 0.2381,1.99827 0.5227,3.32922 0.7527,3.52012 0.2518,0.20895 0.8916,-0.1437 2.8072,-1.54708 2.5013,-1.83257 3.1279,-2.04054 4.076,-1.35294 0.6411,0.46498 1.277,1.19897 1.3742,1.58624 0.259,1.03178 -0.6106,1.84404 -4.4805,4.18521 -0.7386,0.44688 -1.3432,0.84787 -1.3434,0.89109 -2e-4,0.0432 0.8294,0.71524 1.8434,1.49336 2.1637,1.66026 3.252,2.71788 3.6564,3.55337 0.292,0.60316 0.2921,0.60381 0.052,1.04572 -0.5484,1.01082 -2.2949,1.35713 -3.8542,0.76425 -0.5725,-0.21769 -0.9322,-0.47995 -1.5951,-1.16288 -1.0065,-1.03683 -1.4214,-1.33296 -1.8691,-1.33408 -0.5581,-10e-4 -0.6063,0.18772 -0.5753,2.25903 l 0.029,1.92764 -0.3923,0.82792 c -0.8944,1.88775 -2.422,2.78501 -3.2396,1.90283 z m 14.5069,15.62157 c -1.05,-0.5605 -1.8998,-1.53007 -2.19,-2.49889 -0.1296,-0.43262 -0.1225,-0.60985 0.044,-1.09866 0.407,-1.19437 1.6297,-2.47081 2.5284,-2.6394 0.6032,-0.11316 1.6138,0.39182 2.4168,1.20765 0.8069,0.81969 1.0535,1.27173 1.0543,1.93274 0,1.02806 -1.1069,2.76206 -2.0058,3.13835 -0.5358,0.22433 -1.3852,0.20512 -1.8477,-0.0418 z m 9.7451,20.97757 c -0.6674,-0.40697 -1.4228,-1.38268 -1.6346,-2.11125 -0.3626,-1.24732 0.1843,-2.50081 1.3431,-3.07827 1.3731,-0.68425 2.823,-0.23909 3.496,1.0734 0.4914,0.95812 0.2027,2.16751 -0.7806,3.27082 -0.9715,1.08993 -1.6403,1.32318 -2.4239,0.8453 z m 61.6097,-4.57796 c -0.568,-0.41145 -1.3442,-1.21886 -1.725,-1.79425 -0.5944,-0.89812 -0.6923,-1.29914 -0.6923,-2.83388 0,-1.58478 0.082,-1.89492 0.7203,-2.73205 0.9913,-1.29977 2.7792,-2.39175 3.916,-2.39175 1.721,0 3.7473,1.85 4.4801,4.09052 0.4218,1.28951 0.2182,3.5046 -0.4006,4.35735 -0.6937,0.956 -2.9495,2.05213 -4.2231,2.05213 -0.7612,0 -1.3215,-0.20196 -2.0754,-0.74807 z m -5.9682,18.67634 c -10.7929,-0.61768 -13.565,-0.93865 -19.799,-2.29249 -7.7143,-1.67531 -15.2899,-4.07374 -17.7671,-5.62503 -0.9235,-0.57832 -1.5723,-1.2585 -1.8092,-1.89684 -0.145,-0.39053 0.5964,-1.4443 1.3391,-1.9033 1.1825,-0.73081 2.2231,-0.54355 8.6913,1.56399 13.1837,4.29567 25.1198,5.7737 42.7799,5.29742 10.0069,-0.26988 12.0808,-0.0689 12.3996,1.20134 0.1573,0.6266 -0.5411,1.94877 -1.2955,2.45269 -0.6158,0.41131 -1.7645,0.67583 -4.2098,0.96943 -1.4848,0.17828 -17.981,0.36718 -20.3293,0.23279 z" /></g></g></svg>
