<?xml version="1.0" encoding="UTF-8" standalone="no"?>
<!-- Created with Inkscape (http://www.inkscape.org/) -->

<svg
   width="270.93332mm"
   height="270.93332mm"
   viewBox="0 0 270.93332 270.93332"
   version="1.1"
   id="svg1"
   xml:space="preserve"
   xmlns="http://www.w3.org/2000/svg"
   xmlns:svg="http://www.w3.org/2000/svg"><defs
     id="defs1" /><g
     id="layer1"
     transform="translate(-162.10679,305.70346)"><g
       id="g252"><path
         style="fill:none"
         d="M -108.82648,-170.4929 V -305.95956 H 26.640183 162.10684 V -170.4929 -35.02624 H 26.640183 -108.82648 Z"
         id="path244" /><path
         id="path245"
         style="fill:#01acf6"
         d="m 22.921583,-206.18638 c -0.57535,-0.0218 -1.55036,0.14049 -3.1967,0.35967 -18.1601501,2.41761 -33.67539,14.52908 -40.42027,31.55259 -1.81479,4.58039 -3.46439,11.79737 -3.46439,15.1567 v 1.05988 l 2.84427,0.006 c 2.29464,0.005 2.95329,0.0942 3.40858,0.46302 1.45026,1.17475 1.5549,2.88874 0.2558,4.18785 l -0.89969,0.89917 h -2.80448 -2.80448 l 0.005,0.8599 c 0.01,1.70408 0.8044,6.43675 1.5782,9.39581 5.05417,19.32749 21.68314995,34.21963 41.54371,37.20445 3.85231,0.57896 4.6686,0.55091 4.86069,-0.16588 h -5.2e-4 c 0.0877,-0.32742 0.16131,-1.5552 0.1633,-2.72852 0.003,-1.98972 0.0536,-2.18117 0.74569,-2.84427 1.52207,-1.45824 4.49559,-0.59734 4.5837,1.32705 0.0186,0.40713 0.0541,1.0972 0.0791,1.53376 0.0251,0.43656 0.0696,1.3746 0.0987,2.08462 l 0.0527,1.29088 2.18281,-0.18552 c 8.54233,-0.7272 17.12947,-3.97885 24.87393,-9.41906 2.90077,-2.03769 8.78601,-7.77557 10.90218,-10.62881 2.38207,-3.21174 4.76115,-7.40994 6.2513,-11.03188 2.00337,-4.86938 3.67936,-11.93953 3.67936,-15.52102 v -1.17151 h -2.52646 c -2.98387,0 -3.93909,-0.37286 -4.52065,-1.76475 -0.48656,-1.16451 -0.27826,-2.21513 0.61753,-3.11092 0.65097,-0.65097 0.81194,-0.68058 3.67109,-0.68058 h 2.99 l -0.11162,-0.85989 c -0.84984,-6.57352 -1.62702,-10.13118 -3.10834,-14.22291 -6.37628,-17.61266 -22.60571,-30.45086 -41.45483,-32.79283 -3.60712,-0.44819 -3.44262,-0.5007 -3.46852,1.11053 -0.0487,3.02788 -0.36834,4.47225 -1.13533,5.13199 -1.3318,1.14556 -3.58973,0.56312 -4.28708,-1.10588 -0.22529,-0.53918 -0.37621,-1.80496 -0.37621,-3.15743 0,-1.64821 0.15071,-2.19613 -0.80822,-2.23242 z m 2.74144,15.31586 c 0.7337,-0.004 1.21922,0.38666 3.68918,2.96984 2.24241,2.3452 2.84427,3.13314 2.84427,3.72226 0,0.58045 -0.61022,1.40842 -2.73317,3.71037 -2.34089,2.5383 -2.86289,2.97465 -3.63905,3.04167 -0.49839,0.043 -1.0543,-0.0699 -1.23558,-0.25115 -0.693,-0.69301 -0.37749,-1.89838 0.87126,-3.32589 l 1.20148,-1.37304 -2.05207,-0.0775 c -1.92785,-0.0728 -2.07622,-0.12152 -2.45773,-0.80512 -0.36502,-0.65407 -0.36502,-0.80113 0,-1.45521 0.3812,-0.68305 0.53106,-0.73257 2.44739,-0.80512 1.12273,-0.0425 2.04122,-0.14476 2.04122,-0.22737 0,-0.0826 -0.59532,-0.8012 -1.32292,-1.59732 -0.72761,-0.79611 -1.32291,-1.64959 -1.32291,-1.89653 0,-0.86259 0.78044,-1.62501 1.66863,-1.62987 z m -9.43973,6.97684 c 0.35039,-0.0466 0.5636,0.0324 0.87281,0.20515 0.77619,0.43358 1.09423,2.05892 0.49558,2.53318 -0.59714,0.47305 -4.83956,2.19573 -5.40742,2.19573 -0.29888,0 -0.74923,-0.22774 -1.00098,-0.50591 -0.26908,-0.29733 -0.4221,-0.81151 -0.37155,-1.24799 0.10621,-0.9172 1.13825,-1.64911 3.71554,-2.63395 0.85783,-0.32779 1.34563,-0.49966 1.69602,-0.54621 z m 29.90618,5.76967 c 1.50977,-0.1487 3.00033,1.03972 3.00033,2.58279 0,1.32635 0.18244,1.11133 -8.82065,10.39988 l -7.11067,7.33599 0.293,0.83922 c 0.45449,1.30377 0.34879,3.91857 -0.20774,5.14387 -1.40782,3.09957 -4.58888,4.73108 -7.92768,4.06642 -3.54982,-0.70667 -5.94109,-4.03332 -5.51077,-7.66671 0.20186,-1.70433 0.94843,-3.09361 2.36316,-4.39767 1.43746,-1.32499 2.68039,-1.75802 5.13147,-1.78697 l 1.89032,-0.0222 7.82692,-8.06152 c 4.30483,-4.43391 8.09758,-8.16208 8.42842,-8.28477 0.21218,-0.0787 0.42821,-0.12707 0.64389,-0.14831 z m -40.1525901,0.26562 c 0.22244,-0.0231 0.44711,0.006 0.70229,0.0698 0.61276,0.1538 1.1106,1.15892 0.95601,1.93063 -0.0356,0.17796 -0.94966,1.21974 -2.03088,2.3151 -2.08212,2.10932 -2.83632,2.42006 -3.6618,1.50792 -0.86295,-0.95355 -0.55795,-1.82426 1.31982,-3.76928 1.39916,-1.44928 2.04727,-1.98496 2.71456,-2.05413 z m -6.87915995,9.29193 c 0.41176,0.0605 0.82688,0.31616 1.15186,0.75345 l 0.51677,0.69556 -0.97875,2.47944 c -0.53832,1.36377 -1.10103005,2.62826 -1.25057005,2.81016 -0.34635,0.4213 -1.85433,0.43032 -2.27118,0.0134 -0.17463,-0.17463 -0.3173,-0.6981 -0.3173,-1.16324 0,-0.9893 1.33875,-4.42079 2.01745,-5.17074 0.31116,-0.34384 0.71995,-0.47856 1.13172005,-0.41807 z m -3.03444005,11.30267 c 0.48325,0 1.01669,0.16573 1.18494,0.36846 0.45647,0.55002 0.55468,5.86051 0.11989,6.48126 -0.45636,0.65155 -1.23434,0.83231 -1.98128,0.45992 -0.78097,-0.38935 -0.96709,-1.11206 -0.99942,-3.87729 -0.0316,-2.70702 0.32236,-3.43235 1.67587,-3.43235 z m 30.5505901,0.66301 c -0.44863,0.0581 -0.90465,0.26799 -1.30328,0.66663 -1.51321,1.51321 0.69915,3.94928 2.64221,2.90938 0.26617,-0.14245 0.59917,-0.58973 0.74001,-0.99374 0.54535,-1.56439 -0.73306,-2.75658 -2.07894,-2.58227 z m 29.16307,9.83196 c 0.89159,0 1.55495,0.6271 1.55495,1.4702 0,0.70834 -1.55714,4.6355 -2.02262,5.10098 -0.54441,0.54442 -1.77253,0.49789 -2.30218,-0.0873 -0.56647,-0.62595 -0.55223,-1.16421 0.062,-2.37091 0.27483,-0.53991 0.64234,-1.45872 0.81649,-2.04174 0.46693,-1.56321 0.93031,-2.07119 1.89135,-2.07119 z m -57.5778801,1.18908 c 0.20481,0.0339 0.39474,0.11173 0.54777,0.23874 0.49630005,0.4119 2.49339,4.6665 2.49339,5.31182 0,0.65557 -0.92402995,1.55081 -1.60041995,1.55081 -0.29799,0 -0.81623005,-0.2962 -1.15187005,-0.65836 -0.33564,-0.36217 -0.99847,-1.64164 -1.47329,-2.84323 -0.78261,-1.98046 -0.82899,-2.24678 -0.49351,-2.84738 0.31227,-0.55906 1.06352,-0.85409 1.67793,-0.7524 z m 51.9100101,8.95345 c 0.69791,0 1.34636,0.61291 1.56321,1.47692 0.18852,0.75112 -1.02456,2.39191 -2.91041,3.93722 -1.32689,1.08729 -2.32337,1.20585 -2.92437,0.34779 -0.22654,-0.32342 -0.41186,-0.83223 -0.41186,-1.13068 0,-0.74417 3.9309,-4.63125 4.68343,-4.63125 z m -46.2059601,1.09606 c 0.42478,0.0269 0.90415,0.24162 1.39991,0.65319 2.58683,2.14753 3.34553,3.04265 3.34553,3.94808 0,0.61769 -0.15983,0.98428 -0.51159,1.17254 -1.11743,0.59802 -1.77298,0.31368 -3.86333,-1.67742 -1.86867,-1.77994 -2.03253,-2.01847 -1.865,-2.71198 0.23016,-0.9528 0.78651,-1.42924 1.49448,-1.38441 z m 37.0427001,6.31228 c 0.85309,0 1.60219,0.81566 1.51825,1.65313 -0.10054,1.00318 -0.80744,1.54789 -3.34966,2.58227 -2.26664,0.92227 -2.71166,0.96388 -3.30523,0.30799 -0.5156,-0.56973 -0.5797,-1.98525 -0.10697,-2.35903 0.50041,-0.39567 4.79429,-2.18436 5.24361,-2.18436 z m -27.27792,0.63252 c 0.38718,0.0545 0.96918,0.26514 2.07274,0.67851 3.06403,1.14774 3.49126,1.43885 3.49126,2.38022 0,1.6715 -1.21769,1.97173 -3.86488,0.95239 -2.95479,-1.13779 -3.27887,-1.37441 -3.27887,-2.3952 0,-0.6873 0.16714,-1.02261 0.67593,-1.35599 0.32426,-0.21247 0.51663,-0.31441 0.90382,-0.25993 z m 13.7914,2.81119 c 3.07606,-0.004 3.67885,0.26255 3.67885,1.62936 0,1.27348 -0.67678,1.54151 -3.89124,1.54151 -2.02579,0 -3.00179,-0.10155 -3.17913,-0.33073 -0.68321,-0.88297 -0.54877,-2.07688 0.29714,-2.6417 0.16011,-0.10692 1.55259,-0.19621 3.09438,-0.19844 z" /><path
         style="fill:#6a6a6b"
         d="m 71.848833,-210.57733 -0.92966,1.05834 -0.92966,1.05833 1.51309,1.34514 1.51308,1.34513 0.87747,-0.94826 0.87747,-0.94826 -1.4609,-1.45521 z"
         id="path246" /><path
         id="path247"
         style="fill:#f7f7f7;fill-opacity:1"
         d="m 26.640223,-211.75813 c 10.56874,0 19.35365,2.30311 28.18019,7.38766 13.9225,8.02009 23.43242,20.95427 26.97097,36.68251 0.96596,4.2935 1.24029,7.10956 1.22783,12.60027 -0.0129,5.66519 -0.41933,8.95521 -1.74201,14.09578 -2.85379,11.09117 -9.23485,21.28384 -17.83096,28.48198 -7.57854,6.34605 -16.07443,10.49213 -25.70024,12.54187 -2.97525,0.63356 -3.9654,0.71204 -10.04745,0.79737 -4.96579,0.0697 -7.37549,-0.005 -9.12812,-0.28371 -12.1703901,-1.93468 -22.5814401,-7.14002 -31.41772,-15.70808 -8.47903,-8.22166 -13.51694,-17.60151 -15.97267,-29.73875 -0.58931,-2.91263 -0.729,-4.42227 -0.83251,-9.00772 -0.17335,-7.67927 0.53826,-12.70602 2.75126,-19.43809 1.16118,-3.53239 4.076,-9.6322 6.04976,-12.66021 7.88008,-12.08911 20.03948995,-20.78592 33.76693,-24.1515 4.9944,-1.22449 8.21091,-1.59938 13.72474,-1.59938 z m -1.09192,-6.50762 c -0.96997,0.0215 -1.94375,0.0654 -2.92075,0.13229 -20.1510901,1.37932 -38.14755,11.9882 -48.94895,28.85509 -4.63133,7.23204 -7.35602,14.32559 -9.09506,23.68021 -0.58193,3.13029 -0.81774,12.99637 -0.41031,17.16898 0.52595,5.3863 2.41618,12.64594 4.66432,17.9157 6.01839,14.1074 17.72583,25.99421 31.91690995,32.40525 5.89000995,2.66091 13.52308005,4.75259 19.53576005,5.35368 3.10217,0.31012 9.12632,0.32334 12.30313,0.0269 18.22895,-1.70144 35.33214,-11.74197 45.85663,-26.92083 9.69752,-13.98617 13.28726,-31.70152 9.81129,-48.41617 -6.22315,-29.92479 -32.64386,-50.86701 -62.71297,-50.20107 z" /><path
         style="fill:#6a6a6b"
         d="m 73.470443,-220.35916 c -0.17997,-0.0238 -0.31134,0.0486 -0.48524,0.14624 -0.38348,0.21525 -0.81249,0.71847 -0.95292,1.11777 -0.2381,0.67703 -0.11298,0.86984 1.84899,2.86029 2.96893,3.01203 8.25543,7.90649 8.54004,7.90649 0.13141,0 0.55296,-0.24668 0.93638,-0.54829 1.31351,-1.0332 1.06611,-1.40466 -4.48913,-6.74325 -3.88052,-3.7292 -4.85823,-4.66785 -5.39812,-4.73925 z"
         id="path248" /><path
         style="fill:#6a6a6b"
         d="m 21.613143,-232.93462 v 4.56406 4.56407 l 5.02708,0.0155 5.02708,0.016 v -4.58008 -4.57957 h -5.02708 z"
         id="path249" /><path
         style="fill:#6a6a6b"
         d="m 10.530613,-248.80962 -0.41186,0.58808 c -0.3285001,0.46901 -0.4118601,1.39432 -0.4118601,4.5713 0,3.17698 0.0834,4.10228 0.4118601,4.57129 l 0.41186,0.58808 h 16.03778 c 14.55186,0 16.08244,-0.0404 16.52147,-0.4377 0.43039,-0.38949 0.48369,-0.90634 0.48369,-4.67568 0,-3.57187 -0.0686,-4.31385 -0.4377,-4.72168 -0.41506,-0.45864 -1.27599,-0.48369 -16.52147,-0.48369 z"
         id="path250" /><path
         style="fill:#010101"
         d="m 22.671433,-87.06866 c -3.20559,-0.2467 -9.28961,-1.23683 -12.58973,-2.04888 -9.20885005,-2.266 -19.2070801,-7.25706 -26.66073,-13.30889 -2.83622,-2.30282 -8.03957,-7.56254 -10.27597,-10.38731 -9.85009,-12.44153 -14.74659,-26.52953 -14.76234,-42.47352 -0.0114,-11.52587 2.20429,-20.97778 7.29872,-31.13578 9.22057,-18.38529 26.9230799,-31.8223 47.39891,-35.97793 l 2.97656,-0.60411 v -4.96474 -4.96475 h -2.86239 c -3.4655601,0 -5.2380101,-0.46423 -6.6528801,-1.74248 -1.90908,-1.72473 -2.09613,-2.48603 -2.18247,-8.88268 l -0.0762,-5.64671 0.78486,-1.41699 c 0.43167,-0.77935 1.20557,-1.7657 1.71979,-2.1919 1.89475,-1.57044 1.97991,-1.57664 20.5478201,-1.49369 15.89121,0.071 16.95487,0.10489 17.82566,0.56814 1.29266,0.68768 2.58988,1.96391 3.26433,3.21152 0.53704,0.99343 0.57212,1.41532 0.57212,6.87917 0,6.48863 -0.0457,6.69324 -1.93659,8.6668 -1.47194,1.53632 -3.17409,2.04882 -6.80458,2.04882 h -3.03278 v 4.97785 4.97785 l 3.50573,0.69641 c 8.01025,1.59123 16.40443,5.00275 22.73964,9.24173 0.82876,0.55453 1.61727,1.00825 1.75224,1.00825 0.23242,0 2.42947,-2.24398 2.42947,-2.48136 0,-0.0616 -0.2965,-0.74883 -0.65888,-1.52727 -1.33283,-2.86308 -0.72168,-5.812 1.63431,-7.88582 2.34527,-2.06439 5.49592,-2.63667 7.83533,-1.42321 1.39714,0.72471 12.32371,11.59333 12.81968,12.75168 0.22674,0.52957 0.41606,1.67963 0.42072,2.55569 0.0141,2.65054 -1.6811,5.10164 -4.58866,6.63476 -1.19738,0.63137 -4.02099,0.64651 -5.20036,0.0279 l -0.83472,-0.43784 -0.95182,1.05355 -0.95182,1.05355 1.6168,1.91679 c 8.00245,9.48728 13.46929,21.38509 15.48314,33.69691 0.27748,1.69636 0.47303,4.99613 0.55639,9.38837 0.11323,5.9665 0.0612,7.2371 -0.43717,10.67462 -1.18158,8.15008 -3.03309,14.13216 -6.53562,21.11599 -3.19114,6.36296 -6.97279,11.72811 -11.82207,16.77239 -7.75508,8.06693 -17.38235,14.17958 -27.82156,17.66478 -7.86617,2.62617 -18.06115,3.98815 -25.54286,3.41235 z m 9.92188,-5.65899 c 18.22895,-1.70144 35.33207,-11.74217 45.85656,-26.92103 9.69752,-13.98617 13.28755,-31.70148 9.81158,-48.41613 -6.42389,-30.89011 -34.36986,-52.20848 -65.63411,-50.06847 -20.1510901,1.37932 -38.14757,11.98807 -48.94897,28.85496 -4.63133,7.23204 -7.35573,14.32559 -9.09477,23.68021 -0.58193,3.13029 -0.81767,12.99647 -0.41024,17.16908 0.52595,5.3863 2.41581,12.64581 4.66395,17.91557 6.01839,14.1074 17.72627,25.99428 31.91734995,32.40533 5.89000995,2.66091 13.52284005,4.75273 19.53552005,5.35382 3.10217,0.31012 9.12632,0.32317 12.30313,0.0267 z m -14.02292,-6.72688 c -12.1703901,-1.93469 -22.5815901,-7.13999 -31.41787,-15.70805 -8.47903,-8.22166 -13.51683,-17.60129 -15.97256,-29.73853 -0.58931,-2.91263 -0.72881,-4.42236 -0.83232,-9.00781 -0.17335,-7.67927 0.53812,-12.70625 2.75112,-19.43832 1.16118,-3.53239 4.07582,-9.63178 6.04958,-12.65979 7.88008,-12.08911 20.03982995,-20.78632 33.76727,-24.1519 4.9944,-1.22449 8.21074,-1.59928 13.72457,-1.59928 10.56874,0 19.35359,2.30298 28.18013,7.38753 13.9225,8.02009 23.43252,20.95441 26.97107,36.68265 0.96596,4.2935 1.24038,7.10944 1.22792,12.60015 -0.0129,5.66519 -0.41952,8.95545 -1.7422,14.09602 -2.85379,11.09117 -9.23473,21.28368 -17.83084,28.48182 -7.57854,6.34605 -16.07459,10.49217 -25.7004,12.54191 -2.97525,0.63356 -3.96529,0.71214 -10.04734,0.79747 -4.96579,0.0697 -7.3755,-0.005 -9.12813,-0.28387 z m 5.2572,-5.75244 c 0.0877,-0.32742 0.16116,-1.5553 0.16315,-2.72862 0.003,-1.98972 0.0536,-2.18117 0.74569,-2.84427 1.52207,-1.45824 4.49537,-0.59747 4.58348,1.32692 0.0186,0.40713 0.0544,1.09743 0.0794,1.53399 0.0251,0.43656 0.0693,1.37467 0.0984,2.08469 l 0.0529,1.29093 2.18281,-0.18582 c 8.54233,-0.7272 17.12949,-3.97895 24.87395,-9.41916 2.90077,-2.03769 8.78614,-7.77524 10.90231,-10.62848 2.38207,-3.21174 4.76093,-7.40997 6.25108,-11.03191 2.00337,-4.86938 3.67943,-11.93957 3.67943,-15.52106 v -1.17148 h -2.52668 c -2.98387,0 -3.93906,-0.37288 -4.52062,-1.76477 -0.48656,-1.16451 -0.27792,-2.21493 0.61787,-3.11072 0.65097,-0.65097 0.8116,-0.68076 3.67075,-0.68076 h 2.99 l -0.11117,-0.85989 c -0.84984,-6.57352 -1.62748,-10.13132 -3.1088,-14.22305 -6.37628,-17.61266 -22.60529,-30.45068 -41.45441,-32.79265 -3.60712,-0.44819 -3.44295,-0.50074 -3.46885,1.11049 -0.0487,3.02788 -0.3681,4.47204 -1.13509,5.13178 -1.3318,1.14556 -3.59003,0.56304 -4.28738,-1.10596 -0.22529,-0.53918 -0.37603,-1.80496 -0.37603,-3.15743 0,-2.63714 0.38542,-2.45694 -4.00483,-1.87247 -18.1601501,2.41761 -33.67553,14.52908 -40.42041,31.55259 -1.81479,4.58039 -3.46434,11.79719 -3.46434,15.15652 v 1.06007 l 2.84427,0.006 c 2.29464,0.005 2.95332,0.0942 3.40861,0.46302 1.45026,1.17475 1.55497,2.88865 0.25587,4.18776 l -0.89959,0.89958 h -2.80458 -2.80458 l 0.005,0.8599 c 0.01,1.70408 0.80465,6.43652 1.57845,9.39558 5.05417,19.32749 21.68322995,34.2196 41.54379,37.20442 3.85231,0.57896 4.66823,0.55116 4.86032,-0.16563 z m 0.24023,-17.72708 c -0.68321,-0.88297 -0.54904,-2.07696 0.29687,-2.64178 0.16011,-0.10692 1.55259,-0.19621 3.09438,-0.19844 3.07606,-0.004 3.67903,0.26261 3.67903,1.62942 0,1.27348 -0.67658,1.54153 -3.89104,1.54153 -2.02579,0 -3.0019,-0.10155 -3.17924,-0.33073 z m -8.70093,-1.64032 c -2.95479,-1.13779 -3.27879,-1.37448 -3.27879,-2.39527 0,-0.6873 0.1672,-1.0227 0.67599,-1.35608 0.64853,-0.42493 0.76946,-0.40791 2.97657,0.41883 3.06403,1.14774 3.49119,1.43898 3.49119,2.38035 0,1.6715 -1.21777,1.97151 -3.86496,0.95217 z m 20.44243,-0.10031 c -0.5156,-0.56973 -0.57989,-1.9849 -0.10716,-2.35868 0.50041,-0.39567 4.79436,-2.18455 5.24368,-2.18455 0.85309,0 1.602,0.81544 1.51806,1.65291 -0.10054,1.00318 -0.80735,1.54814 -3.34957,2.58252 -2.26664,0.92227 -2.71144,0.96369 -3.30501,0.3078 z m -31.5357501,-6.7594 c -1.86867,-1.77994 -2.03272,-2.01847 -1.86519,-2.71198 0.36827,-1.52449 1.57262,-1.82871 2.89465,-0.73119 2.58683,2.14753 3.34549,3.04289 3.34549,3.94832 0,0.61769 -0.16001,0.98429 -0.51177,1.17255 -1.11743,0.59802 -1.77283,0.3134 -3.86318,-1.6777 z m 41.5639101,0.5698 c -0.22654,-0.32342 -0.41188,-0.83223 -0.41188,-1.13068 0,-0.74417 3.93078,-4.63128 4.68331,-4.63128 0.69791,0 1.34658,0.61268 1.56343,1.47669 0.18852,0.75112 -1.02444,2.39222 -2.91029,3.93753 -1.32689,1.08729 -2.32357,1.2058 -2.92457,0.34774 z m -47.3494901,-8.27252 c -0.33564,-0.36217 -0.99875,-1.6416 -1.47357,-2.84319 -0.78261,-1.98046 -0.82872,-2.24665 -0.49324,-2.84725 0.41636,-0.74542 1.61333,-1.02168 2.22548,-0.51364 0.49630005,0.4119 2.49352,4.66636 2.49352,5.31168 0,0.65557 -0.92373995,1.55088 -1.60012995,1.55088 -0.29799,0 -0.81642005,-0.29632 -1.15206005,-0.65848 z m 54.5192401,-1.14829 c -0.56647,-0.62595 -0.55244,-1.16426 0.0618,-2.37096 0.27483,-0.53991 0.64217,-1.45866 0.81632,-2.04168 0.46693,-1.56321 0.93067,-2.07087 1.89171,-2.07087 0.89159,0 1.55478,0.62712 1.55478,1.47022 0,0.70834 -1.55724,4.63533 -2.02272,5.10081 -0.54441,0.54442 -1.77225,0.49773 -2.3019,-0.0875 z m -27.65113,-7.47067 c -3.54982,-0.70667 -5.94112,-4.03361 -5.5108,-7.667 0.20186,-1.70433 0.94834,-3.0935 2.36307,-4.39756 1.43746,-1.32499 2.68038,-1.75777 5.13146,-1.78672 l 1.89027,-0.0223 7.82697,-8.06166 c 4.30483,-4.43391 8.09764,-8.16205 8.42848,-8.28474 1.69742,-0.62954 3.64422,0.67103 3.64422,2.43454 0,1.32635 0.18239,1.11129 -8.8207,10.39984 l -7.11045,7.3359 0.29266,0.83952 c 0.45449,1.30377 0.34901,3.91818 -0.20752,5.14348 -1.40782,3.09957 -4.58886,4.73138 -7.92766,4.06672 z m 2.59656,-5.26906 c 0.26617,-0.14245 0.59918,-0.58955 0.74002,-0.99356 0.72713,-2.08586 -1.7876,-3.51025 -3.38214,-1.91571 -1.51321,1.51321 0.69906,3.94917 2.64212,2.90927 z m -32.5656901,3.07054 c -0.78097,-0.38935 -0.96725,-1.11192 -0.99958,-3.87715 -0.0316,-2.70702 0.32252,-3.43231 1.67603,-3.43231 0.48325,0 1.0163,0.16587 1.18455,0.3686 0.45647,0.55002 0.55482,5.86053 0.12003,6.48128 -0.45636,0.65155 -1.23409,0.83197 -1.98103,0.45958 z m 0.87905,-11.86029 c -0.17463,-0.17463 -0.3175,-0.69807 -0.3175,-1.16321 0,-0.9893 1.33904,-4.42079 2.01774,-5.17074 0.62232,-0.68767 1.63324005,-0.53916 2.28320005,0.33541 l 0.51681,0.69541 -0.97875,2.47959 c -0.53832,1.36377 -1.10111005,2.62841 -1.25065005,2.81031 -0.34635,0.4213 -1.854,0.43008 -2.27085,0.0132 z m 5.67663,-10.22052 c -0.86295,-0.95355 -0.55809,-1.82434 1.31968,-3.76936 1.86555,-1.93238 2.39617,-2.24054 3.41688,-1.98436 0.61276,0.1538 1.11048,1.1592 0.95589,1.93091 -0.0356,0.17796 -0.94946,1.21975 -2.03068,2.31511 -2.08212,2.10932 -2.83629,2.41984 -3.66177,1.5077 z m 22.6458801,-5.64238 c -0.693,-0.69301 -0.37711,-1.89833 0.87164,-3.32584 l 1.20124,-1.3732 -2.05195,-0.0775 c -1.92785,-0.0728 -2.0765,-0.12147 -2.45801,-0.80507 -0.36502,-0.65407 -0.36502,-0.80113 0,-1.45521 0.3812,-0.68305 0.53107,-0.73233 2.4474,-0.80488 1.12273,-0.0425 2.04133,-0.14487 2.04133,-0.22748 0,-0.0826 -0.59531,-0.80158 -1.32291,-1.5977 -0.72761,-0.79611 -1.32292,-1.64951 -1.32292,-1.89645 0,-0.86259 0.78046,-1.62481 1.66865,-1.62967 0.7337,-0.004 1.2192,0.38686 3.68916,2.97004 2.24241,2.3452 2.84427,3.13278 2.84427,3.7219 0,0.58045 -0.61004,1.40874 -2.73299,3.71069 -2.34089,2.5383 -2.86299,2.97467 -3.63915,3.04169 -0.49839,0.043 -1.05448,-0.0701 -1.23576,-0.25135 z m -13.4053,-1.78787 c -0.26908,-0.29733 -0.42228,-0.81174 -0.37173,-1.24822 0.10621,-0.9172 1.1387,-1.64901 3.71599,-2.63385 1.71566,-0.65559 1.95018,-0.68675 2.5686,-0.34131 0.77619,0.43358 1.09414,2.05925 0.49549,2.53351 -0.59714,0.47305 -4.83935,2.19564 -5.40721,2.19564 -0.29888,0 -0.74939,-0.2276 -1.00114,-0.50577 z m 62.12645,-29.65673 -1.46073,-1.45521 -0.92977,1.05834 -0.92976,1.05833 1.51317,1.34508 1.51316,1.34508 0.87733,-0.9482 0.87733,-0.94821 z m 10.04794,0.24538 c 1.31351,-1.0332 1.06615,-1.40478 -4.48909,-6.74337 -5.17403,-4.97226 -5.18787,-4.98306 -5.88349,-4.59262 -0.38348,0.21525 -0.81214,0.71806 -0.95257,1.11736 -0.2381,0.67703 -0.11338,0.87001 1.84859,2.86046 2.96893,3.01203 8.25588,7.90654 8.54049,7.90654 0.13141,0 0.55265,-0.24676 0.93607,-0.54837 z m -51.69035,-19.47812 v -4.57976 h -5.02709 -5.02708 l 7e-5,4.56407 7e-5,4.56406 5.02701,0.0157 5.02702,0.0157 z m 11.42239,-10.57389 c 0.43039,-0.38949 0.48386,-0.90618 0.48386,-4.67552 0,-3.57187 -0.0688,-4.31366 -0.43789,-4.72149 -0.41506,-0.45864 -1.27597,-0.48386 -16.52145,-0.48386 h -16.08357 l -0.41188,0.58804 c -0.3285001,0.46901 -0.4118801,1.39436 -0.4118801,4.57134 0,3.17698 0.0834,4.10233 0.4118801,4.57134 l 0.41188,0.58803 h 16.0376 c 14.55186,0 16.08242,-0.0406 16.52145,-0.43788 z"
         id="path251" /></g><g
       id="g266"><path
         style="fill:none"
         d="m 162.10681,-170.23682 v -135.46666 h 135.46666 135.46666 v 135.46666 135.46666 H 297.57347 162.10681 Z"
         id="path70" /><path
         style="fill:#686969;fill-opacity:1"
         d="m 249.86047,-181.61416 -13.71404,-0.13229 -0.77189,-0.86407 c -0.6149,-0.68832 -0.7719,-1.11077 -0.7719,-2.07698 0,-1.02661 0.13817,-1.35108 0.89958,-2.11249 l 0.89959,-0.89958 h 33.90626 c 37.24216,0 34.9922,-0.0991 35.85988,1.57884 0.77339,1.49557 0.25799,3.36406 -1.12448,4.07655 -0.59861,0.30851 -4.23107,0.38901 -21.09604,0.4675 -11.2051,0.0521 -26.54423,0.0353 -34.08696,-0.0375 z m -10.23075,-10.2579 c 0,-0.96926 1.13283,-4.50523 2.11551,-6.6033 4.28533,-9.14937 13.38902,-15.7617 23.79517,-17.28328 3.54953,-0.51901 10.15736,-0.20109 13.29807,0.6398 8.62246,2.30858 15.76064,7.82889 19.77939,15.29638 0.98208,1.82485 2.3937,5.65144 2.78845,7.55884 l 0.17796,0.8599 H 270.607 c -29.45978,0 -30.97728,-0.0229 -30.97728,-0.46834 z"
         id="path69" /><path
         style="fill:#04a8f1"
         d="m 287.70236,-154.74593 c -1.49792,-0.39525 -2.94908,-1.68399 -3.38561,-3.0067 -0.64386,-1.95092 0.11897,-4.43371 3.0102,-9.7973 1.85724,-3.44541 1.55473,-3.46431 3.5764,0.2235 2.77717,5.06596 3.6044,8.31666 2.60716,10.24512 -1.02226,1.97683 -3.45693,2.95578 -5.80815,2.33538 z"
         id="path266" /><path
         style="fill:#04a8f1"
         d="m 247.09641,-154.66493 c -1.95924,-0.34803 -3.48174,-1.86932 -3.85007,-3.847 -0.30457,-1.6353 1.37189,-6.01632 4.07107,-10.63878 l 0.83351,-1.42743 1.21656,2.08889 c 1.48135,2.54353 3.14638,6.33019 3.54745,8.06772 0.22338,0.96774 0.21865,1.54303 -0.0192,2.3369 -0.33112,1.10519 -1.357,2.50278 -2.14777,2.92599 -0.8835,0.47283 -2.52197,0.69436 -3.65155,0.49371 z"
         id="path265" /><path
         style="fill:#04a8f1"
         d="m 265.69118,-143.7494 c -2.62727,-1.21256 -3.37276,-3.46921 -2.24335,-6.79074 0.60868,-1.7901 3.99425,-8.36267 4.33536,-8.41645 0.3299,-0.052 2.65457,4.11309 3.74092,6.70259 1.48079,3.52971 1.5404,5.57375 0.20868,7.15641 -1.48474,1.7645 -3.94839,2.31427 -6.04161,1.34819 z"
         id="path264" /><path
         style="fill:#04a8f1"
         d="m 287.78389,-126.34794 c -0.83358,-0.33141 -2.0612,-1.48532 -2.49938,-2.3493 -0.64731,-1.27635 -0.67587,-2.32424 -0.11344,-4.16327 0.65574,-2.14416 4.16909,-9.12041 4.53222,-8.99936 0.38616,0.12872 3.0607,5.06866 3.97027,7.33319 1.27581,3.17634 1.24599,5.02386 -0.10891,6.74633 -1.16561,1.48183 -3.93222,2.16736 -5.78076,1.43241 z"
         id="path263" /><path
         style="fill:#04a8f1"
         d="m 243.73077,-126.55148 c -2.82303,-1.30291 -3.47415,-3.81039 -1.98503,-7.6444 0.96528,-2.48529 3.73608,-7.60541 4.10169,-7.57945 0.43024,0.0305 4.29668,7.91248 4.64505,9.46917 0.1761,0.7869 0.2419,1.84797 0.14623,2.35796 -0.56754,3.02524 -4.02707,4.72633 -6.90794,3.39672 z"
         id="path262" /><path
         style="fill:#04a8f1"
         d="m 266.712,-110.16491 c -2.44441,-0.58088 -3.95315,-2.64634 -3.74719,-5.12989 0.2042,-2.46245 4.36567,-10.84321 5.08696,-10.24459 0.48506,0.40256 3.21231,5.73234 3.98865,7.79487 0.80772,2.14591 0.83832,3.59769 0.10764,5.10706 -0.88563,1.82947 -3.37586,2.96213 -5.43606,2.47255 z"
         id="path261" /><path
         id="path68"
         style="fill:#04a8f1"
         d="m 335.47543,-107.54306 c -8.13493,-0.80921 -14.97885,-3.90903 -20.64893,-9.35253 -4.03937,-3.87796 -7.08797,-8.69636 -8.75134,-13.83173 -1.25341,-3.86973 -1.49202,-5.6233 -1.46981,-10.80221 0.0192,-4.46773 0.0723,-4.95902 0.85828,-7.9375 1.58949,-6.02314 4.89703,-11.64871 9.34832,-15.89991 11.09374,-10.59508 27.80189,-12.53563 40.83756,-4.74306 7.21379,4.31233 12.41122,10.70257 14.96055,18.39401 2.6631,8.03472 2.07139,17.21914 -1.61084,25.00312 -3.18833,6.73992 -9.59966,13.12142 -16.18573,16.11044 -5.47561,2.48505 -11.8335,3.60693 -17.33806,3.05937 z m 4.41217,-11.00341 c 0.44431,-0.56485 0.54837,-1.07455 0.54837,-2.6861 v -1.98897 l 1.56786,1.49548 c 1.72646,1.64677 2.64386,1.89401 3.73859,1.00755 1.06171,-0.85972 0.82262,-2.02824 -0.70637,-3.45231 -0.71992,-0.67052 -2.04945,-1.91217 -2.95451,-2.75922 l -1.64557,-1.54009 v -4.5955 -4.5955 l 3.94271,2.28025 3.94271,2.28026 0.72099,3.72304 c 0.88502,4.57003 1.09629,4.97106 2.56135,4.86198 0.7982,-0.0594 1.21517,-0.25909 1.58781,-0.76028 0.47964,-0.64509 0.48565,-0.7932 0.11826,-2.91042 -0.21291,-1.2269 -0.36888,-2.25024 -0.34661,-2.27407 0.0223,-0.0238 0.75486,0.38064 1.62799,0.89883 1.77389,1.0528 2.77865,1.18528 3.56846,0.47051 0.60485,-0.54738 0.71357,-1.92663 0.20185,-2.56073 -0.1819,-0.2254 -1.01534,-0.79268 -1.85208,-1.26061 -0.83675,-0.46794 -1.52136,-0.89816 -1.52136,-0.95605 0,-0.0579 0.85009,-0.36347 1.8891,-0.67905 2.10935,-0.6407 2.8734,-1.23409 2.8734,-2.23159 0,-0.79618 -1.08169,-1.97235 -1.81391,-1.97235 -0.28328,0 -2.04159,0.47625 -3.90736,1.05833 -1.86576,0.58209 -3.53979,1.05834 -3.72006,1.05834 -0.38215,0 -7.75672,-4.26108 -7.75632,-4.48165 1.5e-4,-0.0817 0.62523,-0.49401 1.38907,-0.91623 0.76383,-0.42222 2.49959,-1.42481 3.85723,-2.22797 l 2.46844,-1.4603 3.82044,1.23998 c 3.64159,1.18192 3.85719,1.22097 4.60533,0.83409 0.96389,-0.49844 1.28475,-1.55264 0.75928,-2.49459 -0.27189,-0.48737 -0.91388,-0.86716 -2.26807,-1.34173 -1.03887,-0.36406 -1.95719,-0.73028 -2.04073,-0.81382 -0.0835,-0.0835 0.58698,-0.55989 1.49004,-1.05857 0.90306,-0.49868 1.82491,-1.23379 2.04855,-1.63357 0.36523,-0.65292 0.36539,-0.80058 0.002,-1.451 -0.72785,-1.30116 -1.5982,-1.36559 -3.79089,-0.28061 l -1.93059,0.95528 0.38112,-2.25348 c 0.36352,-2.14937 0.35714,-2.28574 -0.13801,-2.95184 -0.35313,-0.47505 -0.81118,-0.72362 -1.43242,-0.77735 -1.45502,-0.12583 -1.80952,0.51333 -2.72454,4.91232 l -0.80752,3.88218 -3.83646,2.16918 -3.83646,2.16917 -0.0725,-4.48855 -0.0724,-4.48855 2.91672,-2.79491 c 2.56499,-2.45788 2.91671,-2.90078 2.91671,-3.67283 0,-0.63328 -0.19425,-1.03071 -0.69714,-1.42628 -1.10368,-0.86816 -1.76201,-0.69328 -3.52111,0.93534 l -1.60258,1.4837 v -1.97719 c 0,-2.40636 -0.55906,-3.37147 -1.95301,-3.37147 -1.54995,0 -1.86758,0.47654 -2.01574,3.02422 l -0.13229,2.27475 -1.67052,-1.45886 c -0.91878,-0.80237 -1.90887,-1.45886 -2.2002,-1.45886 -0.83316,0 -1.45327,0.4428 -1.80319,1.2876 -0.45582,1.10043 -0.11364,1.60452 3.09111,4.55383 l 2.70887,2.49294 0.003,4.57968 c 0.002,2.51882 -0.0862,4.531 -0.19533,4.47149 -2.74213,-1.49495 -7.5181,-4.27749 -7.61723,-4.43789 -0.0731,-0.11828 -0.47655,-1.91493 -0.89655,-3.99256 -0.60894,-3.01223 -0.88177,-3.87316 -1.34669,-4.24964 -0.79701,-0.64538 -1.67824,-0.59219 -2.54529,0.15362 l -0.72746,0.62573 0.31758,2.08625 c 0.17467,1.14743 0.31679,2.2409 0.31583,2.42992 -10e-4,0.2198 -0.60694,0.005 -1.68082,-0.59531 -0.92349,-0.51645 -1.99505,-0.93899 -2.38125,-0.93899 -1.29527,0 -2.11471,1.41494 -1.59851,2.76015 0.0891,0.2322 0.9287,0.85094 1.86576,1.37498 0.93707,0.52403 1.62836,1.02818 1.53622,1.12033 -0.0922,0.0921 -1.02008,0.46541 -2.06206,0.82947 -2.20824,0.77155 -2.84824,1.57689 -2.3017,2.89634 0.59319,1.43209 1.17576,1.44406 5.55637,0.11415 l 3.97455,-1.20663 2.84433,1.65652 c 1.56437,0.91109 3.30722,1.94594 3.87298,2.29966 l 1.02867,0.64313 -3.90164,2.31517 -3.90164,2.31516 -3.60932,-1.14854 c -1.98512,-0.63171 -3.91828,-1.1496 -4.29591,-1.15089 -1.49982,-0.005 -2.25322,2.23795 -1.07276,3.19383 0.31779,0.25733 1.34967,0.72473 2.29306,1.03867 0.94339,0.31394 1.71384,0.65039 1.71211,0.74767 -0.002,0.0973 -0.72236,0.57195 -1.60141,1.05484 -0.89777,0.49317 -1.72887,1.16463 -1.89627,1.53201 -0.40402,0.88674 0.003,1.96296 0.93686,2.47662 0.70648,0.38863 0.82127,0.35969 2.8302,-0.71348 1.15161,-0.6152 2.05002,-0.97238 1.99645,-0.79375 -0.0536,0.17864 -0.24118,1.22961 -0.41691,2.3355 -0.36651,2.30646 -0.18885,2.89404 1.02736,3.39781 0.64026,0.2652 0.91685,0.24924 1.57459,-0.0909 0.86725,-0.44847 0.90543,-0.56526 1.78146,-5.44991 0.24793,-1.38245 0.53101,-2.66399 0.62907,-2.84788 0.0981,-0.18388 1.89904,-1.32611 4.0022,-2.53827 l 3.82392,-2.20394 0.0726,4.50415 0.0726,4.50414 -3.05429,2.92892 c -3.2555,3.12187 -3.46273,3.51589 -2.49566,4.74532 0.93762,1.19199 2.03418,0.97277 3.93447,-0.78656 l 1.60258,-1.48371 v 2.06197 c 0,1.75292 0.0862,2.15374 0.57529,2.67433 0.81327,0.86568 2.12828,0.8265 2.84509,-0.0848 z" /><path
         style="fill:#141617"
         d="m 333.5568,-104.09569 c -14.53932,-2.02311 -26.59799,-11.93575 -30.90493,-25.4049 -1.42081,-4.44331 -1.76405,-6.77456 -1.75162,-11.89665 0.0159,-6.53498 0.86499,-10.23653 3.67205,-16.00729 4.44599,-9.14011 12.52385,-16.11989 22.32158,-19.28729 1.62193,-0.52433 3.1488,-0.95334 3.39304,-0.95334 0.41356,0 0.43326,-1.62692 0.28674,-23.68485 l -0.15732,-23.68486 -0.63644,-1.38441 c -0.86567,-1.88307 -1.7414,-2.85295 -3.41111,-3.77785 l -1.41095,-0.78157 -21.03437,-0.0744 c -23.88167,-0.0845 -22.38152,-0.21259 -24.44908,2.08704 -1.61428,1.79547 -1.86659,2.67969 -1.87221,6.56127 l -0.005,3.28221 2.27098,0.57176 c 8.08691,2.03604 15.46458,7.15807 20.13116,13.9763 2.28126,3.33309 4.61059,8.89644 5.13496,12.2643 0.14765,0.94829 0.30734,1.15914 1.17388,1.54989 0.55163,0.24876 1.42551,0.88593 1.94193,1.41594 3.39146,3.48066 1.89766,9.47764 -2.7449,11.01965 -1.0656,0.35394 -5.37285,0.39436 -35.46255,0.33281 l -34.24962,-0.0701 -1.05834,-0.57213 c -2.4234,-1.31007 -3.66296,-3.3413 -3.6874,-6.04245 -0.0233,-2.57328 0.96974,-4.36332 3.16441,-5.70419 1.52,-0.92867 1.54606,-0.96523 1.88558,-2.64583 2.46562,-12.20486 12.40353,-22.31693 25.07776,-25.51726 l 2.39923,-0.60582 0.16143,-4.72387 c 0.13172,-3.85445 0.27044,-5.06474 0.75371,-6.57595 1.78097,-5.56916 5.47048,-9.851 10.72653,-12.44863 4.49156,-2.2198 2.91833,-2.10345 28.44271,-2.10345 h 22.62187 l 2.11667,0.61243 c 3.71598,1.07517 6.53797,2.75427 9.42052,5.60528 3.62646,3.58677 5.63873,7.50965 6.30338,12.2883 0.18383,1.32168 0.28339,10.19362 0.28339,25.25313 v 23.21565 l 1.78594,0.35051 c 5.66941,1.11268 11.56737,4.01449 16.49447,8.11532 6.34175,5.27823 10.90268,13.0443 12.59113,21.4394 0.65096,3.2366 0.65513,10.68165 0.008,13.89631 -2.99918,14.8937 -14.29959,26.39047 -29.10013,29.60581 -2.80654,0.6097 -9.84718,0.8906 -12.62712,0.50378 z m 10.71563,-3.85669 c 6.85249,-1.10522 12.77724,-4.21639 18.02576,-9.46559 6.66892,-6.66978 9.91129,-14.4585 9.92726,-23.84698 0.0143,-8.37986 -2.81477,-15.75295 -8.61634,-22.45613 -2.74359,-3.16998 -8.19,-6.95666 -12.435,-8.64559 -12.6032,-5.01435 -26.60479,-2.31904 -36.36216,6.99973 -4.45129,4.2512 -7.75883,9.87677 -9.34832,15.89991 -0.78601,2.97848 -0.83913,3.46977 -0.85828,7.9375 -0.0222,5.17891 0.2164,6.93248 1.46981,10.80221 2.7252,8.41362 8.99194,15.65753 17.0327,19.68862 6.6257,3.32166 13.49484,4.32336 21.16457,3.08632 z m -39.22896,-74.09155 c 1.99369,-1.0275 1.96156,-4.21227 -0.053,-5.25404 -0.68189,-0.35262 -4.89282,-0.40135 -34.68239,-0.40135 h -33.90626 l -0.89959,0.89958 c -0.76141,0.76141 -0.89958,1.08588 -0.89958,2.11249 0,0.96621 0.157,1.38866 0.7719,2.07698 l 0.77189,0.86407 13.71404,0.13229 c 7.54273,0.0728 22.88186,0.0896 34.08696,0.0375 16.86497,-0.0785 20.49743,-0.15899 21.09604,-0.4675 z m -3.63716,-10.21946 c -0.39475,-1.9074 -1.80637,-5.73399 -2.78845,-7.55884 -4.01875,-7.46749 -11.15693,-12.9878 -19.77939,-15.29638 -3.14071,-0.84089 -9.74854,-1.15881 -13.29807,-0.6398 -10.40615,1.52158 -19.50984,8.13391 -23.79517,17.28328 -0.98268,2.09807 -2.11551,5.63404 -2.11551,6.6033 0,0.4454 1.5175,0.46834 30.97728,0.46834 h 30.97727 z m 37.73904,-38.21244 c -0.3119,-0.53637 -0.38722,-0.36469 -0.1319,0.30066 0.0907,0.23645 0.22071,0.37419 0.28883,0.30606 0.0681,-0.0681 -0.002,-0.34114 -0.15693,-0.60672 z m -74.29225,123.52969 c -4.37493,-1.56262 -6.57145,-6.04277 -5.22476,-10.65673 0.81474,-2.79145 5.23572,-11.16208 6.80277,-12.88031 0.34344,-0.37657 0.84931,-0.59531 1.37674,-0.59531 1.05987,0 1.48861,0.47455 3.58566,3.96875 1.85684,3.09395 3.66259,6.7884 4.39691,8.99583 0.72468,2.17842 0.65385,5.07221 -0.16497,6.73997 -0.82405,1.67842 -2.44623,3.30086 -4.10147,4.10216 -1.77213,0.85787 -4.77092,1.00425 -6.67088,0.32564 z m 5.64131,-3.91756 c 1.30798,-0.74755 2.20823,-2.38659 2.20823,-4.02041 0,-0.60558 -0.298,-1.89276 -0.66222,-2.86041 -0.77634,-2.06253 -3.50359,-7.39231 -3.98865,-7.79487 -0.72129,-0.59862 -4.88276,7.78214 -5.08696,10.24459 -0.3397,4.0963 3.82604,6.5478 7.5296,4.4311 z m -26.76364,-11.84105 c -1.78744,-0.46122 -2.87958,-1.06686 -4.06937,-2.25665 -2.16646,-2.16647 -2.93855,-5.47096 -2.02451,-8.66486 0.98694,-3.44865 5.83227,-12.28285 7.36409,-13.42652 0.68145,-0.50877 0.79361,-0.52045 1.45389,-0.15134 1.32948,0.74321 5.79943,8.58258 7.23348,12.68604 0.80421,2.3012 0.82059,5.1903 0.0393,6.92565 -1.6726,3.71492 -6.11823,5.88849 -9.99685,4.88768 z m 4.37357,-3.94197 c 2.11131,-1.0666 2.96384,-3.08694 2.38814,-5.65944 -0.34837,-1.55669 -4.21481,-9.43862 -4.64505,-9.46917 -0.36561,-0.026 -3.13641,5.09416 -4.10169,7.57945 -1.48912,3.83401 -0.838,6.34149 1.98503,7.6444 1.42551,0.65791 2.94836,0.62475 4.37357,-0.0952 z m 39.7705,4.03817 c -5.13238,-1.08183 -7.91392,-6.29132 -6.1651,-11.54651 0.92476,-2.7789 2.12514,-5.24409 4.47686,-9.194 3.0275,-5.08494 3.67501,-5.25215 6.07714,-1.56929 1.93048,2.95976 5.23437,9.70697 5.73574,11.71358 0.75688,3.02922 0.0732,5.7849 -1.9906,8.0239 -1.89217,2.05276 -5.37445,3.154 -8.13404,2.57232 z m 4.12791,-3.96464 c 1.82191,-0.92947 2.83132,-2.82158 2.59668,-4.86741 -0.0689,-0.6012 -0.48559,-1.98994 -0.92587,-3.08608 -0.90957,-2.26453 -3.58411,-7.20447 -3.97027,-7.33319 -0.36313,-0.12105 -3.87648,6.8552 -4.53222,8.99936 -0.56243,1.83903 -0.53387,2.88692 0.11344,4.16327 0.43818,0.86398 1.6658,2.01789 2.49938,2.3493 1.11836,0.44464 3.11469,0.33805 4.21886,-0.22525 z m -26.08833,-13.23328 c -5.01752,-1.05762 -7.84014,-6.21619 -6.17188,-11.27963 0.73656,-2.23556 2.71584,-6.23669 4.82711,-9.75802 1.97074,-3.28694 2.21943,-3.57187 3.1176,-3.57187 1.02503,0 1.61237,0.5987 3.24517,3.30793 3.81057,6.32274 5.64507,10.96607 5.40005,13.66818 -0.45796,5.05044 -5.4208,8.68676 -10.41805,7.63341 z m 4.11964,-3.96042 c 2.93625,-1.49796 3.37463,-3.9949 1.49005,-8.48711 -1.08635,-2.5895 -3.41102,-6.7546 -3.74092,-6.70259 -0.34111,0.0538 -3.72668,6.62635 -4.33536,8.41645 -0.59419,1.74746 -0.67804,3.17409 -0.25257,4.29703 0.93798,2.47559 4.38999,3.72551 6.8388,2.47622 z m -24.12908,-7.42854 c -2.38664,-0.59925 -4.4249,-2.30497 -5.52262,-4.6216 -0.94882,-2.00241 -1.0198,-4.37471 -0.2041,-6.82137 1.16525,-3.49512 6.0345,-12.3068 7.12233,-12.88899 1.30611,-0.69901 1.88022,-0.2431 3.98691,3.16607 4.7675,7.71504 6.28976,12.85228 4.80379,16.21157 -0.777,1.75654 -2.71761,3.73134 -4.36647,4.44341 -1.54661,0.66791 -4.24953,0.9052 -5.81984,0.51091 z m 4.84298,-3.96321 c 0.79077,-0.42321 1.81665,-1.8208 2.14777,-2.92599 0.23785,-0.79387 0.24258,-1.36916 0.0192,-2.3369 -0.40107,-1.73753 -2.0661,-5.52419 -3.54745,-8.06772 l -1.21656,-2.08889 -0.83351,1.42743 c -1.51542,2.59522 -3.42834,6.72568 -3.83128,8.27268 -0.60326,2.3161 0.002,4.24862 1.7107,5.4656 1.36731,0.97361 3.9827,1.09318 5.55113,0.25379 z m 35.52776,3.7599 c -2.61155,-0.93309 -4.37375,-2.59401 -5.38947,-5.07975 -0.58316,-1.42714 -0.46764,-4.3289 0.25682,-6.45077 1.32951,-3.894 6.01545,-12.06105 7.24039,-12.61918 1.10999,-0.50574 1.86174,0.0746 3.51048,2.71007 3.53901,5.65697 5.67953,10.77713 5.67953,13.58549 0,1.8184 -0.79886,3.9635 -1.9976,5.36396 -2.08222,2.43261 -6.30025,3.56202 -9.30015,2.49018 z m 4.55088,-3.41526 c 0.86751,-0.22691 2.21932,-1.36888 2.68391,-2.26729 0.99724,-1.92846 0.17001,-5.17916 -2.60716,-10.24512 -2.02167,-3.68781 -1.71916,-3.66891 -3.5764,-0.2235 -2.89123,5.36359 -3.65406,7.84638 -3.0102,9.7973 0.43653,1.32271 1.88769,2.61145 3.38561,3.0067 1.17723,0.31063 1.72169,0.29876 3.12424,-0.0681 z"
         id="path67" /><path
         id="path144"
         style="fill:#b5bcc1;fill-opacity:1"
         d="m 303.65795,-242.03897 c -12.76666,0 -18.80537,-0.0153 -21.89014,0.2129 -3.08478,0.22817 -2.89621,0.42455 -5.24619,1.58595 -4.59441,2.27063 -7.67181,5.84426 -9.22682,10.70684 -0.39419,1.23264 -0.48493,1.97464 -0.61495,5.7795 v 5.1e-4 5.2e-4 5.2e-4 5.1e-4 l -0.0196,0.5917 0.0169,4.30155 c 2.57574,-0.30667 2.86993,-0.31955 4.32185,-0.31955 0.95995,0 2.569,-0.0262 3.65558,0.0705 l 0.002,-1.75544 c 0,-3.07621 0.0605,-4.97222 0.50178,-6.51175 0,0 1.23798,-2.55052 2.127,-3.53932 0.40757,-0.45332 0.90311,-1.21015 2.02107,-1.87275 1.11796,-0.66259 2.34698,-0.8915 3.96099,-1.0294 3.22802,-0.27578 8.73106,-0.20243 20.66644,-0.1602 l 21.03283,0.0739 c 0.49537,0.001 0.98237,0.12779 1.41593,0.36742 l 1.41232,0.78135 c 2.05273,1.13707 3.64058,2.90686 4.66018,5.12475 h -0.002 l 0.63666,1.38286 c 0.17495,0.38002 0.2669,0.79296 0.26975,1.2113 l 0.15813,23.68537 c 0.0733,11.03034 0.10532,16.94151 0.0661,20.16983 -0.0196,1.61416 -0.0978,2.51458 -0.13281,3.27525 l -0.0233,0.50643 c 1.0886,-0.1509 2.0338,-0.30338 3.13474,-0.35605 1.78087,-0.0852 3.11906,-0.009 4.91109,0.16632 l -0.0127,-0.41798 v -23.21667 c 0,-7.52327 -0.0263,-13.49981 -0.0739,-17.74621 -0.0238,-2.1232 -0.0515,-3.8144 -0.0858,-5.03897 -0.0344,-1.22457 -0.1071,-2.14186 -0.0961,-2.06292 -0.072,-0.51773 -0.31832,-1.46864 -0.31832,-1.46864 -0.48676,-2.1051 -1.38716,-4.07232 -2.52338,-5.96093 0,0 -1.56049,-2.12651 -2.61535,-3.16983 -2.61013,-2.58157 -4.85732,-3.91267 -8.16953,-4.87102 h -0.002 l -1.71308,-0.49816 z" /><path
         id="path259"
         style="fill:#fcfcfc"
         d="m 338.48322,-164.4158 c -1.54995,0 -1.86723,0.47642 -2.01539,3.0241 l -0.13229,2.2748 -1.6707,-1.45883 c -0.91878,-0.80237 -1.90905,-1.45882 -2.20038,-1.45882 -0.83316,0 -1.45307,0.44246 -1.80299,1.28726 -0.45582,1.10043 -0.11347,1.60441 3.09128,4.55372 l 2.70888,2.49339 0.003,4.57957 c 0.002,2.51882 -0.0862,4.53107 -0.19534,4.47156 -2.74213,-1.49495 -7.51798,-4.27757 -7.61711,-4.43797 -0.0731,-0.11828 -0.47658,-1.9149 -0.89658,-3.99253 -0.60894,-3.01223 -0.88177,-3.87338 -1.34669,-4.24986 -0.79701,-0.64538 -1.67801,-0.59182 -2.54506,0.15399 l -0.72761,0.62529 0.31781,2.08669 c 0.17467,1.14743 0.3167,2.24081 0.31574,2.42983 -10e-4,0.2198 -0.60715,0.005 -1.68103,-0.59532 -0.92349,-0.51645 -1.99505,-0.93896 -2.38125,-0.93896 -1.29527,0 -2.11455,1.41483 -1.59835,2.76004 0.0891,0.2322 0.92846,0.85107 1.86552,1.37511 0.93707,0.52403 1.62848,1.0282 1.53634,1.12035 -0.0922,0.0921 -1.01991,0.46534 -2.06189,0.8294 -2.20824,0.77155 -2.84821,1.5765 -2.30167,2.89595 0.59319,1.43209 1.17564,1.44411 5.55625,0.1142 l 3.97443,-1.20664 2.84428,1.65675 c 1.56437,0.91109 3.30738,1.94588 3.87314,2.2996 l 1.02888,0.64337 -3.90209,2.3151 -3.90157,2.31511 -3.60908,-1.14877 c -1.98512,-0.63171 -3.91823,-1.14954 -4.29586,-1.15083 -1.49982,-0.005 -2.25326,2.23824 -1.0728,3.19412 0.31779,0.25733 1.34949,0.72475 2.29288,1.03869 0.94339,0.31394 1.71377,0.64996 1.71204,0.74724 -0.002,0.0973 -0.7224,0.57235 -1.60145,1.05524 -0.89777,0.49317 -1.72861,1.16431 -1.89601,1.53169 -0.40402,0.88674 0.003,1.96319 0.93689,2.47685 0.70648,0.38863 0.82139,0.35952 2.83032,-0.71365 1.15161,-0.6152 2.04983,-0.97238 1.99626,-0.79375 -0.0536,0.17864 -0.2413,1.22988 -0.41703,2.33577 -0.36651,2.30646 -0.18888,2.89396 1.02733,3.39773 0.64026,0.2652 0.91684,0.24919 1.57458,-0.091 0.86725,-0.44847 0.90577,-0.56515 1.7818,-5.4498 0.24793,-1.38245 0.53085,-2.664 0.62891,-2.84789 0.0981,-0.18388 1.89918,-1.32619 4.00234,-2.53835 l 3.82354,-2.204 0.0729,4.50412 0.0723,4.50412 -3.05408,2.92902 c -3.2555,3.12187 -3.46253,3.51602 -2.49546,4.74545 0.93762,1.19199 2.03384,0.9723 3.93413,-0.78703 l 1.60249,-1.48363 v 2.06188 c 0,1.75292 0.0866,2.15419 0.57567,2.67478 0.81327,0.86568 2.12798,0.82655 2.84479,-0.0847 0.44431,-0.56485 0.54829,-1.07459 0.54829,-2.68614 v -1.98903 l 1.56786,1.49552 c 1.72646,1.64677 2.64354,1.89363 3.73827,1.00717 1.06171,-0.85972 0.82309,-2.02792 -0.7059,-3.45199 -0.71992,-0.67052 -2.04979,-1.91247 -2.95485,-2.75952 l -1.64538,-1.53995 v -4.59559 -4.59558 l 3.94239,2.28048 3.94291,2.28048 0.72089,3.72277 c 0.88502,4.57003 1.09654,4.97131 2.5616,4.86223 0.7982,-0.0594 1.21486,-0.25948 1.5875,-0.76067 0.47964,-0.64509 0.48573,-0.7932 0.11834,-2.91042 -0.21291,-1.2269 -0.36902,-2.24993 -0.34675,-2.27376 0.0223,-0.0238 0.7552,0.38046 1.62833,0.89865 1.77389,1.0528 2.77844,1.18554 3.56825,0.47077 0.60485,-0.54738 0.71378,-1.92698 0.20206,-2.56108 -0.1819,-0.2254 -1.01534,-0.79246 -1.85208,-1.26039 -0.83675,-0.46794 -1.52136,-0.89812 -1.52136,-0.95601 0,-0.0579 0.84976,-0.36345 1.88877,-0.67903 2.10935,-0.6407 2.87373,-1.23441 2.87373,-2.23191 0,-0.79618 -1.08162,-1.97197 -1.81384,-1.97197 -0.28328,0 -2.042,0.47625 -3.90777,1.05833 -1.86576,0.58209 -3.5394,1.05834 -3.71967,1.05834 -0.38215,0 -7.75704,-4.26133 -7.75664,-4.4819 1.5e-4,-0.0817 0.62523,-0.494 1.38907,-0.91622 0.76383,-0.42222 2.5,-1.42462 3.85764,-2.22778 l 2.46807,-1.46037 3.82044,1.23972 c 3.64159,1.18192 3.85726,1.22093 4.6054,0.83405 0.96389,-0.49844 1.2846,-1.55247 0.75913,-2.49442 -0.27189,-0.48737 -0.91389,-0.86695 -2.26808,-1.34152 -1.03887,-0.36406 -1.95716,-0.73036 -2.0407,-0.8139 -0.0835,-0.0835 0.58729,-0.56017 1.49035,-1.05885 0.90306,-0.49868 1.82481,-1.23371 2.04845,-1.63349 0.36523,-0.65292 0.36546,-0.80066 0.002,-1.45108 -0.72785,-1.30116 -1.5983,-1.36558 -3.79099,-0.2806 l -1.93063,0.9555 0.38137,-2.25361 c 0.36352,-2.14937 0.35718,-2.28566 -0.13797,-2.95176 -0.35313,-0.47505 -0.81123,-0.72348 -1.43247,-0.77721 -1.45502,-0.12583 -1.80988,0.51337 -2.7249,4.91236 l -0.80719,3.88193 -3.83646,2.16938 -3.83645,2.16886 -0.0729,-4.4881 -0.0723,-4.48862 2.91661,-2.79517 c 2.56499,-2.45788 2.91714,-2.9006 2.91714,-3.67265 0,-0.63328 -0.19423,-1.0307 -0.69712,-1.42627 -1.10368,-0.86816 -1.76213,-0.69327 -3.52123,0.93535 l -1.60249,1.48363 v -1.97714 c 0,-2.40636 -0.55941,-3.37137 -1.95336,-3.37137 z" /></g></g></svg>
