<?xml version="1.0" encoding="UTF-8" standalone="no"?>
<!-- Created with Inkscape (http://www.inkscape.org/) -->

<svg
   viewBox="0 0 100 100"
   xmlns="http://www.w3.org/2000/svg"><defs
     id="defs1" /><g
     id="layer1"
     transform="translate(1205.3594,476.89293)"><g
       id="g266"
       transform="matrix(0.36909469,0,0,0.36909469,-1265.1922,-364.05941)"
       style="stroke-width:2.70933"><path
         style="fill:none;stroke-width:2.70933"
         d="m 162.10681,-170.23682 v -135.46666 h 135.46666 135.46666 v 135.46666 135.46666 H 297.57347 162.10681 Z"
         id="path70" /><path
         style="fill:#686969;fill-opacity:1;stroke-width:2.70933"
         d="m 249.86047,-181.61416 -13.71404,-0.13229 -0.77189,-0.86407 c -0.6149,-0.68832 -0.7719,-1.11077 -0.7719,-2.07698 0,-1.02661 0.13817,-1.35108 0.89958,-2.11249 l 0.89959,-0.89958 h 33.90626 c 37.24216,0 34.9922,-0.0991 35.85988,1.57884 0.77339,1.49557 0.25799,3.36406 -1.12448,4.07655 -0.59861,0.30851 -4.23107,0.38901 -21.09604,0.4675 -11.2051,0.0521 -26.54423,0.0353 -34.08696,-0.0375 z m -10.23075,-10.2579 c 0,-0.96926 1.13283,-4.50523 2.11551,-6.6033 4.28533,-9.14937 13.38902,-15.7617 23.79517,-17.28328 3.54953,-0.51901 10.15736,-0.20109 13.29807,0.6398 8.62246,2.30858 15.76064,7.82889 19.77939,15.29638 0.98208,1.82485 2.3937,5.65144 2.78845,7.55884 l 0.17796,0.8599 H 270.607 c -29.45978,0 -30.97728,-0.0229 -30.97728,-0.46834 z"
         id="path69" /><path
         style="fill:#04a8f1;stroke-width:2.70933"
         d="m 287.70236,-154.74593 c -1.49792,-0.39525 -2.94908,-1.68399 -3.38561,-3.0067 -0.64386,-1.95092 0.11897,-4.43371 3.0102,-9.7973 1.85724,-3.44541 1.55473,-3.46431 3.5764,0.2235 2.77717,5.06596 3.6044,8.31666 2.60716,10.24512 -1.02226,1.97683 -3.45693,2.95578 -5.80815,2.33538 z"
         id="path266" /><path
         style="fill:#04a8f1;stroke-width:2.70933"
         d="m 247.09641,-154.66493 c -1.95924,-0.34803 -3.48174,-1.86932 -3.85007,-3.847 -0.30457,-1.6353 1.37189,-6.01632 4.07107,-10.63878 l 0.83351,-1.42743 1.21656,2.08889 c 1.48135,2.54353 3.14638,6.33019 3.54745,8.06772 0.22338,0.96774 0.21865,1.54303 -0.0192,2.3369 -0.33112,1.10519 -1.357,2.50278 -2.14777,2.92599 -0.8835,0.47283 -2.52197,0.69436 -3.65155,0.49371 z"
         id="path265" /><path
         style="fill:#04a8f1;stroke-width:2.70933"
         d="m 265.69118,-143.7494 c -2.62727,-1.21256 -3.37276,-3.46921 -2.24335,-6.79074 0.60868,-1.7901 3.99425,-8.36267 4.33536,-8.41645 0.3299,-0.052 2.65457,4.11309 3.74092,6.70259 1.48079,3.52971 1.5404,5.57375 0.20868,7.15641 -1.48474,1.7645 -3.94839,2.31427 -6.04161,1.34819 z"
         id="path264" /><path
         style="fill:#04a8f1;stroke-width:2.70933"
         d="m 287.78389,-126.34794 c -0.83358,-0.33141 -2.0612,-1.48532 -2.49938,-2.3493 -0.64731,-1.27635 -0.67587,-2.32424 -0.11344,-4.16327 0.65574,-2.14416 4.16909,-9.12041 4.53222,-8.99936 0.38616,0.12872 3.0607,5.06866 3.97027,7.33319 1.27581,3.17634 1.24599,5.02386 -0.10891,6.74633 -1.16561,1.48183 -3.93222,2.16736 -5.78076,1.43241 z"
         id="path263" /><path
         style="fill:#04a8f1;stroke-width:2.70933"
         d="m 243.73077,-126.55148 c -2.82303,-1.30291 -3.47415,-3.81039 -1.98503,-7.6444 0.96528,-2.48529 3.73608,-7.60541 4.10169,-7.57945 0.43024,0.0305 4.29668,7.91248 4.64505,9.46917 0.1761,0.7869 0.2419,1.84797 0.14623,2.35796 -0.56754,3.02524 -4.02707,4.72633 -6.90794,3.39672 z"
         id="path262" /><path
         style="fill:#04a8f1;stroke-width:2.70933"
         d="m 266.712,-110.16491 c -2.44441,-0.58088 -3.95315,-2.64634 -3.74719,-5.12989 0.2042,-2.46245 4.36567,-10.84321 5.08696,-10.24459 0.48506,0.40256 3.21231,5.73234 3.98865,7.79487 0.80772,2.14591 0.83832,3.59769 0.10764,5.10706 -0.88563,1.82947 -3.37586,2.96213 -5.43606,2.47255 z"
         id="path261" /><path
         id="path68"
         style="fill:#04a8f1;stroke-width:2.70933"
         d="m 335.47543,-107.54306 c -8.13493,-0.80921 -14.97885,-3.90903 -20.64893,-9.35253 -4.03937,-3.87796 -7.08797,-8.69636 -8.75134,-13.83173 -1.25341,-3.86973 -1.49202,-5.6233 -1.46981,-10.80221 0.0192,-4.46773 0.0723,-4.95902 0.85828,-7.9375 1.58949,-6.02314 4.89703,-11.64871 9.34832,-15.89991 11.09374,-10.59508 27.80189,-12.53563 40.83756,-4.74306 7.21379,4.31233 12.41122,10.70257 14.96055,18.39401 2.6631,8.03472 2.07139,17.21914 -1.61084,25.00312 -3.18833,6.73992 -9.59966,13.12142 -16.18573,16.11044 -5.47561,2.48505 -11.8335,3.60693 -17.33806,3.05937 z m 4.41217,-11.00341 c 0.44431,-0.56485 0.54837,-1.07455 0.54837,-2.6861 v -1.98897 l 1.56786,1.49548 c 1.72646,1.64677 2.64386,1.89401 3.73859,1.00755 1.06171,-0.85972 0.82262,-2.02824 -0.70637,-3.45231 -0.71992,-0.67052 -2.04945,-1.91217 -2.95451,-2.75922 l -1.64557,-1.54009 v -4.5955 -4.5955 l 3.94271,2.28025 3.94271,2.28026 0.72099,3.72304 c 0.88502,4.57003 1.09629,4.97106 2.56135,4.86198 0.7982,-0.0594 1.21517,-0.25909 1.58781,-0.76028 0.47964,-0.64509 0.48565,-0.7932 0.11826,-2.91042 -0.21291,-1.2269 -0.36888,-2.25024 -0.34661,-2.27407 0.0223,-0.0238 0.75486,0.38064 1.62799,0.89883 1.77389,1.0528 2.77865,1.18528 3.56846,0.47051 0.60485,-0.54738 0.71357,-1.92663 0.20185,-2.56073 -0.1819,-0.2254 -1.01534,-0.79268 -1.85208,-1.26061 -0.83675,-0.46794 -1.52136,-0.89816 -1.52136,-0.95605 0,-0.0579 0.85009,-0.36347 1.8891,-0.67905 2.10935,-0.6407 2.8734,-1.23409 2.8734,-2.23159 0,-0.79618 -1.08169,-1.97235 -1.81391,-1.97235 -0.28328,0 -2.04159,0.47625 -3.90736,1.05833 -1.86576,0.58209 -3.53979,1.05834 -3.72006,1.05834 -0.38215,0 -7.75672,-4.26108 -7.75632,-4.48165 1.5e-4,-0.0817 0.62523,-0.49401 1.38907,-0.91623 0.76383,-0.42222 2.49959,-1.42481 3.85723,-2.22797 l 2.46844,-1.4603 3.82044,1.23998 c 3.64159,1.18192 3.85719,1.22097 4.60533,0.83409 0.96389,-0.49844 1.28475,-1.55264 0.75928,-2.49459 -0.27189,-0.48737 -0.91388,-0.86716 -2.26807,-1.34173 -1.03887,-0.36406 -1.95719,-0.73028 -2.04073,-0.81382 -0.0835,-0.0835 0.58698,-0.55989 1.49004,-1.05857 0.90306,-0.49868 1.82491,-1.23379 2.04855,-1.63357 0.36523,-0.65292 0.36539,-0.80058 0.002,-1.451 -0.72785,-1.30116 -1.5982,-1.36559 -3.79089,-0.28061 l -1.93059,0.95528 0.38112,-2.25348 c 0.36352,-2.14937 0.35714,-2.28574 -0.13801,-2.95184 -0.35313,-0.47505 -0.81118,-0.72362 -1.43242,-0.77735 -1.45502,-0.12583 -1.80952,0.51333 -2.72454,4.91232 l -0.80752,3.88218 -3.83646,2.16918 -3.83646,2.16917 -0.0725,-4.48855 -0.0724,-4.48855 2.91672,-2.79491 c 2.56499,-2.45788 2.91671,-2.90078 2.91671,-3.67283 0,-0.63328 -0.19425,-1.03071 -0.69714,-1.42628 -1.10368,-0.86816 -1.76201,-0.69328 -3.52111,0.93534 l -1.60258,1.4837 v -1.97719 c 0,-2.40636 -0.55906,-3.37147 -1.95301,-3.37147 -1.54995,0 -1.86758,0.47654 -2.01574,3.02422 l -0.13229,2.27475 -1.67052,-1.45886 c -0.91878,-0.80237 -1.90887,-1.45886 -2.2002,-1.45886 -0.83316,0 -1.45327,0.4428 -1.80319,1.2876 -0.45582,1.10043 -0.11364,1.60452 3.09111,4.55383 l 2.70887,2.49294 0.003,4.57968 c 0.002,2.51882 -0.0862,4.531 -0.19533,4.47149 -2.74213,-1.49495 -7.5181,-4.27749 -7.61723,-4.43789 -0.0731,-0.11828 -0.47655,-1.91493 -0.89655,-3.99256 -0.60894,-3.01223 -0.88177,-3.87316 -1.34669,-4.24964 -0.79701,-0.64538 -1.67824,-0.59219 -2.54529,0.15362 l -0.72746,0.62573 0.31758,2.08625 c 0.17467,1.14743 0.31679,2.2409 0.31583,2.42992 -10e-4,0.2198 -0.60694,0.005 -1.68082,-0.59531 -0.92349,-0.51645 -1.99505,-0.93899 -2.38125,-0.93899 -1.29527,0 -2.11471,1.41494 -1.59851,2.76015 0.0891,0.2322 0.9287,0.85094 1.86576,1.37498 0.93707,0.52403 1.62836,1.02818 1.53622,1.12033 -0.0922,0.0921 -1.02008,0.46541 -2.06206,0.82947 -2.20824,0.77155 -2.84824,1.57689 -2.3017,2.89634 0.59319,1.43209 1.17576,1.44406 5.55637,0.11415 l 3.97455,-1.20663 2.84433,1.65652 c 1.56437,0.91109 3.30722,1.94594 3.87298,2.29966 l 1.02867,0.64313 -3.90164,2.31517 -3.90164,2.31516 -3.60932,-1.14854 c -1.98512,-0.63171 -3.91828,-1.1496 -4.29591,-1.15089 -1.49982,-0.005 -2.25322,2.23795 -1.07276,3.19383 0.31779,0.25733 1.34967,0.72473 2.29306,1.03867 0.94339,0.31394 1.71384,0.65039 1.71211,0.74767 -0.002,0.0973 -0.72236,0.57195 -1.60141,1.05484 -0.89777,0.49317 -1.72887,1.16463 -1.89627,1.53201 -0.40402,0.88674 0.003,1.96296 0.93686,2.47662 0.70648,0.38863 0.82127,0.35969 2.8302,-0.71348 1.15161,-0.6152 2.05002,-0.97238 1.99645,-0.79375 -0.0536,0.17864 -0.24118,1.22961 -0.41691,2.3355 -0.36651,2.30646 -0.18885,2.89404 1.02736,3.39781 0.64026,0.2652 0.91685,0.24924 1.57459,-0.0909 0.86725,-0.44847 0.90543,-0.56526 1.78146,-5.44991 0.24793,-1.38245 0.53101,-2.66399 0.62907,-2.84788 0.0981,-0.18388 1.89904,-1.32611 4.0022,-2.53827 l 3.82392,-2.20394 0.0726,4.50415 0.0726,4.50414 -3.05429,2.92892 c -3.2555,3.12187 -3.46273,3.51589 -2.49566,4.74532 0.93762,1.19199 2.03418,0.97277 3.93447,-0.78656 l 1.60258,-1.48371 v 2.06197 c 0,1.75292 0.0862,2.15374 0.57529,2.67433 0.81327,0.86568 2.12828,0.8265 2.84509,-0.0848 z" /><path
         style="fill:#141617;stroke-width:2.70933"
         d="m 333.5568,-104.09569 c -14.53932,-2.02311 -26.59799,-11.93575 -30.90493,-25.4049 -1.42081,-4.44331 -1.76405,-6.77456 -1.75162,-11.89665 0.0159,-6.53498 0.86499,-10.23653 3.67205,-16.00729 4.44599,-9.14011 12.52385,-16.11989 22.32158,-19.28729 1.62193,-0.52433 3.1488,-0.95334 3.39304,-0.95334 0.41356,0 0.43326,-1.62692 0.28674,-23.68485 l -0.15732,-23.68486 -0.63644,-1.38441 c -0.86567,-1.88307 -1.7414,-2.85295 -3.41111,-3.77785 l -1.41095,-0.78157 -21.03437,-0.0744 c -23.88167,-0.0845 -22.38152,-0.21259 -24.44908,2.08704 -1.61428,1.79547 -1.86659,2.67969 -1.87221,6.56127 l -0.005,3.28221 2.27098,0.57176 c 8.08691,2.03604 15.46458,7.15807 20.13116,13.9763 2.28126,3.33309 4.61059,8.89644 5.13496,12.2643 0.14765,0.94829 0.30734,1.15914 1.17388,1.54989 0.55163,0.24876 1.42551,0.88593 1.94193,1.41594 3.39146,3.48066 1.89766,9.47764 -2.7449,11.01965 -1.0656,0.35394 -5.37285,0.39436 -35.46255,0.33281 l -34.24962,-0.0701 -1.05834,-0.57213 c -2.4234,-1.31007 -3.66296,-3.3413 -3.6874,-6.04245 -0.0233,-2.57328 0.96974,-4.36332 3.16441,-5.70419 1.52,-0.92867 1.54606,-0.96523 1.88558,-2.64583 2.46562,-12.20486 12.40353,-22.31693 25.07776,-25.51726 l 2.39923,-0.60582 0.16143,-4.72387 c 0.13172,-3.85445 0.27044,-5.06474 0.75371,-6.57595 1.78097,-5.56916 5.47048,-9.851 10.72653,-12.44863 4.49156,-2.2198 2.91833,-2.10345 28.44271,-2.10345 h 22.62187 l 2.11667,0.61243 c 3.71598,1.07517 6.53797,2.75427 9.42052,5.60528 3.62646,3.58677 5.63873,7.50965 6.30338,12.2883 0.18383,1.32168 0.28339,10.19362 0.28339,25.25313 v 23.21565 l 1.78594,0.35051 c 5.66941,1.11268 11.56737,4.01449 16.49447,8.11532 6.34175,5.27823 10.90268,13.0443 12.59113,21.4394 0.65096,3.2366 0.65513,10.68165 0.008,13.89631 -2.99918,14.8937 -14.29959,26.39047 -29.10013,29.60581 -2.80654,0.6097 -9.84718,0.8906 -12.62712,0.50378 z m 10.71563,-3.85669 c 6.85249,-1.10522 12.77724,-4.21639 18.02576,-9.46559 6.66892,-6.66978 9.91129,-14.4585 9.92726,-23.84698 0.0143,-8.37986 -2.81477,-15.75295 -8.61634,-22.45613 -2.74359,-3.16998 -8.19,-6.95666 -12.435,-8.64559 -12.6032,-5.01435 -26.60479,-2.31904 -36.36216,6.99973 -4.45129,4.2512 -7.75883,9.87677 -9.34832,15.89991 -0.78601,2.97848 -0.83913,3.46977 -0.85828,7.9375 -0.0222,5.17891 0.2164,6.93248 1.46981,10.80221 2.7252,8.41362 8.99194,15.65753 17.0327,19.68862 6.6257,3.32166 13.49484,4.32336 21.16457,3.08632 z m -39.22896,-74.09155 c 1.99369,-1.0275 1.96156,-4.21227 -0.053,-5.25404 -0.68189,-0.35262 -4.89282,-0.40135 -34.68239,-0.40135 h -33.90626 l -0.89959,0.89958 c -0.76141,0.76141 -0.89958,1.08588 -0.89958,2.11249 0,0.96621 0.157,1.38866 0.7719,2.07698 l 0.77189,0.86407 13.71404,0.13229 c 7.54273,0.0728 22.88186,0.0896 34.08696,0.0375 16.86497,-0.0785 20.49743,-0.15899 21.09604,-0.4675 z m -3.63716,-10.21946 c -0.39475,-1.9074 -1.80637,-5.73399 -2.78845,-7.55884 -4.01875,-7.46749 -11.15693,-12.9878 -19.77939,-15.29638 -3.14071,-0.84089 -9.74854,-1.15881 -13.29807,-0.6398 -10.40615,1.52158 -19.50984,8.13391 -23.79517,17.28328 -0.98268,2.09807 -2.11551,5.63404 -2.11551,6.6033 0,0.4454 1.5175,0.46834 30.97728,0.46834 h 30.97727 z m 37.73904,-38.21244 c -0.3119,-0.53637 -0.38722,-0.36469 -0.1319,0.30066 0.0907,0.23645 0.22071,0.37419 0.28883,0.30606 0.0681,-0.0681 -0.002,-0.34114 -0.15693,-0.60672 z m -74.29225,123.52969 c -4.37493,-1.56262 -6.57145,-6.04277 -5.22476,-10.65673 0.81474,-2.79145 5.23572,-11.16208 6.80277,-12.88031 0.34344,-0.37657 0.84931,-0.59531 1.37674,-0.59531 1.05987,0 1.48861,0.47455 3.58566,3.96875 1.85684,3.09395 3.66259,6.7884 4.39691,8.99583 0.72468,2.17842 0.65385,5.07221 -0.16497,6.73997 -0.82405,1.67842 -2.44623,3.30086 -4.10147,4.10216 -1.77213,0.85787 -4.77092,1.00425 -6.67088,0.32564 z m 5.64131,-3.91756 c 1.30798,-0.74755 2.20823,-2.38659 2.20823,-4.02041 0,-0.60558 -0.298,-1.89276 -0.66222,-2.86041 -0.77634,-2.06253 -3.50359,-7.39231 -3.98865,-7.79487 -0.72129,-0.59862 -4.88276,7.78214 -5.08696,10.24459 -0.3397,4.0963 3.82604,6.5478 7.5296,4.4311 z m -26.76364,-11.84105 c -1.78744,-0.46122 -2.87958,-1.06686 -4.06937,-2.25665 -2.16646,-2.16647 -2.93855,-5.47096 -2.02451,-8.66486 0.98694,-3.44865 5.83227,-12.28285 7.36409,-13.42652 0.68145,-0.50877 0.79361,-0.52045 1.45389,-0.15134 1.32948,0.74321 5.79943,8.58258 7.23348,12.68604 0.80421,2.3012 0.82059,5.1903 0.0393,6.92565 -1.6726,3.71492 -6.11823,5.88849 -9.99685,4.88768 z m 4.37357,-3.94197 c 2.11131,-1.0666 2.96384,-3.08694 2.38814,-5.65944 -0.34837,-1.55669 -4.21481,-9.43862 -4.64505,-9.46917 -0.36561,-0.026 -3.13641,5.09416 -4.10169,7.57945 -1.48912,3.83401 -0.838,6.34149 1.98503,7.6444 1.42551,0.65791 2.94836,0.62475 4.37357,-0.0952 z m 39.7705,4.03817 c -5.13238,-1.08183 -7.91392,-6.29132 -6.1651,-11.54651 0.92476,-2.7789 2.12514,-5.24409 4.47686,-9.194 3.0275,-5.08494 3.67501,-5.25215 6.07714,-1.56929 1.93048,2.95976 5.23437,9.70697 5.73574,11.71358 0.75688,3.02922 0.0732,5.7849 -1.9906,8.0239 -1.89217,2.05276 -5.37445,3.154 -8.13404,2.57232 z m 4.12791,-3.96464 c 1.82191,-0.92947 2.83132,-2.82158 2.59668,-4.86741 -0.0689,-0.6012 -0.48559,-1.98994 -0.92587,-3.08608 -0.90957,-2.26453 -3.58411,-7.20447 -3.97027,-7.33319 -0.36313,-0.12105 -3.87648,6.8552 -4.53222,8.99936 -0.56243,1.83903 -0.53387,2.88692 0.11344,4.16327 0.43818,0.86398 1.6658,2.01789 2.49938,2.3493 1.11836,0.44464 3.11469,0.33805 4.21886,-0.22525 z m -26.08833,-13.23328 c -5.01752,-1.05762 -7.84014,-6.21619 -6.17188,-11.27963 0.73656,-2.23556 2.71584,-6.23669 4.82711,-9.75802 1.97074,-3.28694 2.21943,-3.57187 3.1176,-3.57187 1.02503,0 1.61237,0.5987 3.24517,3.30793 3.81057,6.32274 5.64507,10.96607 5.40005,13.66818 -0.45796,5.05044 -5.4208,8.68676 -10.41805,7.63341 z m 4.11964,-3.96042 c 2.93625,-1.49796 3.37463,-3.9949 1.49005,-8.48711 -1.08635,-2.5895 -3.41102,-6.7546 -3.74092,-6.70259 -0.34111,0.0538 -3.72668,6.62635 -4.33536,8.41645 -0.59419,1.74746 -0.67804,3.17409 -0.25257,4.29703 0.93798,2.47559 4.38999,3.72551 6.8388,2.47622 z m -24.12908,-7.42854 c -2.38664,-0.59925 -4.4249,-2.30497 -5.52262,-4.6216 -0.94882,-2.00241 -1.0198,-4.37471 -0.2041,-6.82137 1.16525,-3.49512 6.0345,-12.3068 7.12233,-12.88899 1.30611,-0.69901 1.88022,-0.2431 3.98691,3.16607 4.7675,7.71504 6.28976,12.85228 4.80379,16.21157 -0.777,1.75654 -2.71761,3.73134 -4.36647,4.44341 -1.54661,0.66791 -4.24953,0.9052 -5.81984,0.51091 z m 4.84298,-3.96321 c 0.79077,-0.42321 1.81665,-1.8208 2.14777,-2.92599 0.23785,-0.79387 0.24258,-1.36916 0.0192,-2.3369 -0.40107,-1.73753 -2.0661,-5.52419 -3.54745,-8.06772 l -1.21656,-2.08889 -0.83351,1.42743 c -1.51542,2.59522 -3.42834,6.72568 -3.83128,8.27268 -0.60326,2.3161 0.002,4.24862 1.7107,5.4656 1.36731,0.97361 3.9827,1.09318 5.55113,0.25379 z m 35.52776,3.7599 c -2.61155,-0.93309 -4.37375,-2.59401 -5.38947,-5.07975 -0.58316,-1.42714 -0.46764,-4.3289 0.25682,-6.45077 1.32951,-3.894 6.01545,-12.06105 7.24039,-12.61918 1.10999,-0.50574 1.86174,0.0746 3.51048,2.71007 3.53901,5.65697 5.67953,10.77713 5.67953,13.58549 0,1.8184 -0.79886,3.9635 -1.9976,5.36396 -2.08222,2.43261 -6.30025,3.56202 -9.30015,2.49018 z m 4.55088,-3.41526 c 0.86751,-0.22691 2.21932,-1.36888 2.68391,-2.26729 0.99724,-1.92846 0.17001,-5.17916 -2.60716,-10.24512 -2.02167,-3.68781 -1.71916,-3.66891 -3.5764,-0.2235 -2.89123,5.36359 -3.65406,7.84638 -3.0102,9.7973 0.43653,1.32271 1.88769,2.61145 3.38561,3.0067 1.17723,0.31063 1.72169,0.29876 3.12424,-0.0681 z"
         id="path67" /><path
         id="path144"
         style="fill:#b5bcc1;fill-opacity:1;stroke-width:2.70933"
         d="m 303.65795,-242.03897 c -12.76666,0 -18.80537,-0.0153 -21.89014,0.2129 -3.08478,0.22817 -2.89621,0.42455 -5.24619,1.58595 -4.59441,2.27063 -7.67181,5.84426 -9.22682,10.70684 -0.39419,1.23264 -0.48493,1.97464 -0.61495,5.7795 v 5.1e-4 5.2e-4 5.2e-4 5.1e-4 l -0.0196,0.5917 0.0169,4.30155 c 2.57574,-0.30667 2.86993,-0.31955 4.32185,-0.31955 0.95995,0 2.569,-0.0262 3.65558,0.0705 l 0.002,-1.75544 c 0,-3.07621 0.0605,-4.97222 0.50178,-6.51175 0,0 1.23798,-2.55052 2.127,-3.53932 0.40757,-0.45332 0.90311,-1.21015 2.02107,-1.87275 1.11796,-0.66259 2.34698,-0.8915 3.96099,-1.0294 3.22802,-0.27578 8.73106,-0.20243 20.66644,-0.1602 l 21.03283,0.0739 c 0.49537,0.001 0.98237,0.12779 1.41593,0.36742 l 1.41232,0.78135 c 2.05273,1.13707 3.64058,2.90686 4.66018,5.12475 h -0.002 l 0.63666,1.38286 c 0.17495,0.38002 0.2669,0.79296 0.26975,1.2113 l 0.15813,23.68537 c 0.0733,11.03034 0.10532,16.94151 0.0661,20.16983 -0.0196,1.61416 -0.0978,2.51458 -0.13281,3.27525 l -0.0233,0.50643 c 1.0886,-0.1509 2.0338,-0.30338 3.13474,-0.35605 1.78087,-0.0852 3.11906,-0.009 4.91109,0.16632 l -0.0127,-0.41798 v -23.21667 c 0,-7.52327 -0.0263,-13.49981 -0.0739,-17.74621 -0.0238,-2.1232 -0.0515,-3.8144 -0.0858,-5.03897 -0.0344,-1.22457 -0.1071,-2.14186 -0.0961,-2.06292 -0.072,-0.51773 -0.31832,-1.46864 -0.31832,-1.46864 -0.48676,-2.1051 -1.38716,-4.07232 -2.52338,-5.96093 0,0 -1.56049,-2.12651 -2.61535,-3.16983 -2.61013,-2.58157 -4.85732,-3.91267 -8.16953,-4.87102 h -0.002 l -1.71308,-0.49816 z" /><path
         id="path259"
         style="fill:#fcfcfc;stroke-width:2.70933"
         d="m 338.48322,-164.4158 c -1.54995,0 -1.86723,0.47642 -2.01539,3.0241 l -0.13229,2.2748 -1.6707,-1.45883 c -0.91878,-0.80237 -1.90905,-1.45882 -2.20038,-1.45882 -0.83316,0 -1.45307,0.44246 -1.80299,1.28726 -0.45582,1.10043 -0.11347,1.60441 3.09128,4.55372 l 2.70888,2.49339 0.003,4.57957 c 0.002,2.51882 -0.0862,4.53107 -0.19534,4.47156 -2.74213,-1.49495 -7.51798,-4.27757 -7.61711,-4.43797 -0.0731,-0.11828 -0.47658,-1.9149 -0.89658,-3.99253 -0.60894,-3.01223 -0.88177,-3.87338 -1.34669,-4.24986 -0.79701,-0.64538 -1.67801,-0.59182 -2.54506,0.15399 l -0.72761,0.62529 0.31781,2.08669 c 0.17467,1.14743 0.3167,2.24081 0.31574,2.42983 -10e-4,0.2198 -0.60715,0.005 -1.68103,-0.59532 -0.92349,-0.51645 -1.99505,-0.93896 -2.38125,-0.93896 -1.29527,0 -2.11455,1.41483 -1.59835,2.76004 0.0891,0.2322 0.92846,0.85107 1.86552,1.37511 0.93707,0.52403 1.62848,1.0282 1.53634,1.12035 -0.0922,0.0921 -1.01991,0.46534 -2.06189,0.8294 -2.20824,0.77155 -2.84821,1.5765 -2.30167,2.89595 0.59319,1.43209 1.17564,1.44411 5.55625,0.1142 l 3.97443,-1.20664 2.84428,1.65675 c 1.56437,0.91109 3.30738,1.94588 3.87314,2.2996 l 1.02888,0.64337 -3.90209,2.3151 -3.90157,2.31511 -3.60908,-1.14877 c -1.98512,-0.63171 -3.91823,-1.14954 -4.29586,-1.15083 -1.49982,-0.005 -2.25326,2.23824 -1.0728,3.19412 0.31779,0.25733 1.34949,0.72475 2.29288,1.03869 0.94339,0.31394 1.71377,0.64996 1.71204,0.74724 -0.002,0.0973 -0.7224,0.57235 -1.60145,1.05524 -0.89777,0.49317 -1.72861,1.16431 -1.89601,1.53169 -0.40402,0.88674 0.003,1.96319 0.93689,2.47685 0.70648,0.38863 0.82139,0.35952 2.83032,-0.71365 1.15161,-0.6152 2.04983,-0.97238 1.99626,-0.79375 -0.0536,0.17864 -0.2413,1.22988 -0.41703,2.33577 -0.36651,2.30646 -0.18888,2.89396 1.02733,3.39773 0.64026,0.2652 0.91684,0.24919 1.57458,-0.091 0.86725,-0.44847 0.90577,-0.56515 1.7818,-5.4498 0.24793,-1.38245 0.53085,-2.664 0.62891,-2.84789 0.0981,-0.18388 1.89918,-1.32619 4.00234,-2.53835 l 3.82354,-2.204 0.0729,4.50412 0.0723,4.50412 -3.05408,2.92902 c -3.2555,3.12187 -3.46253,3.51602 -2.49546,4.74545 0.93762,1.19199 2.03384,0.9723 3.93413,-0.78703 l 1.60249,-1.48363 v 2.06188 c 0,1.75292 0.0866,2.15419 0.57567,2.67478 0.81327,0.86568 2.12798,0.82655 2.84479,-0.0847 0.44431,-0.56485 0.54829,-1.07459 0.54829,-2.68614 v -1.98903 l 1.56786,1.49552 c 1.72646,1.64677 2.64354,1.89363 3.73827,1.00717 1.06171,-0.85972 0.82309,-2.02792 -0.7059,-3.45199 -0.71992,-0.67052 -2.04979,-1.91247 -2.95485,-2.75952 l -1.64538,-1.53995 v -4.59559 -4.59558 l 3.94239,2.28048 3.94291,2.28048 0.72089,3.72277 c 0.88502,4.57003 1.09654,4.97131 2.5616,4.86223 0.7982,-0.0594 1.21486,-0.25948 1.5875,-0.76067 0.47964,-0.64509 0.48573,-0.7932 0.11834,-2.91042 -0.21291,-1.2269 -0.36902,-2.24993 -0.34675,-2.27376 0.0223,-0.0238 0.7552,0.38046 1.62833,0.89865 1.77389,1.0528 2.77844,1.18554 3.56825,0.47077 0.60485,-0.54738 0.71378,-1.92698 0.20206,-2.56108 -0.1819,-0.2254 -1.01534,-0.79246 -1.85208,-1.26039 -0.83675,-0.46794 -1.52136,-0.89812 -1.52136,-0.95601 0,-0.0579 0.84976,-0.36345 1.88877,-0.67903 2.10935,-0.6407 2.87373,-1.23441 2.87373,-2.23191 0,-0.79618 -1.08162,-1.97197 -1.81384,-1.97197 -0.28328,0 -2.042,0.47625 -3.90777,1.05833 -1.86576,0.58209 -3.5394,1.05834 -3.71967,1.05834 -0.38215,0 -7.75704,-4.26133 -7.75664,-4.4819 1.5e-4,-0.0817 0.62523,-0.494 1.38907,-0.91622 0.76383,-0.42222 2.5,-1.42462 3.85764,-2.22778 l 2.46807,-1.46037 3.82044,1.23972 c 3.64159,1.18192 3.85726,1.22093 4.6054,0.83405 0.96389,-0.49844 1.2846,-1.55247 0.75913,-2.49442 -0.27189,-0.48737 -0.91389,-0.86695 -2.26808,-1.34152 -1.03887,-0.36406 -1.95716,-0.73036 -2.0407,-0.8139 -0.0835,-0.0835 0.58729,-0.56017 1.49035,-1.05885 0.90306,-0.49868 1.82481,-1.23371 2.04845,-1.63349 0.36523,-0.65292 0.36546,-0.80066 0.002,-1.45108 -0.72785,-1.30116 -1.5983,-1.36558 -3.79099,-0.2806 l -1.93063,0.9555 0.38137,-2.25361 c 0.36352,-2.14937 0.35718,-2.28566 -0.13797,-2.95176 -0.35313,-0.47505 -0.81123,-0.72348 -1.43247,-0.77721 -1.45502,-0.12583 -1.80988,0.51337 -2.7249,4.91236 l -0.80719,3.88193 -3.83646,2.16938 -3.83645,2.16886 -0.0729,-4.4881 -0.0723,-4.48862 2.91661,-2.79517 c 2.56499,-2.45788 2.91714,-2.9006 2.91714,-3.67265 0,-0.63328 -0.19423,-1.0307 -0.69712,-1.42627 -1.10368,-0.86816 -1.76213,-0.69327 -3.52123,0.93535 l -1.60249,1.48363 v -1.97714 c 0,-2.40636 -0.55941,-3.37137 -1.95336,-3.37137 z" /></g></g></svg>
