<?xml version="1.0" encoding="utf-8"?>
<!-- Generator: Adobe Illustrator 24.3.0, SVG Export Plug-In . SVG Version: 6.00 Build 0)  -->
<svg version="1.1" id="Layer_1" xmlns="http://www.w3.org/2000/svg" xmlns:xlink="http://www.w3.org/1999/xlink" x="0px" y="0px"
	 viewBox="0 0 100 100" style="enable-background:new 0 0 100 100;" xml:space="preserve">
<style type="text/css">
	.st0{fill:#686969;}
	.st1{fill:#04A8F1;}
	.st2{fill:#141617;}
	.st3{fill:#B5BCC1;}
	.st4{fill:#FCFCFC;}
</style>
<g>
	<path id="path69" class="st0" d="M13,45L3.5,45L3,44.4c-0.4-0.5-0.5-0.8-0.5-1.4c0-0.7,0.1-0.9,0.6-1.5l0.6-0.6h23.4
		c25.7,0,24.2-0.1,24.8,1.1c0.5,1,0.2,2.3-0.8,2.8c-0.4,0.2-2.9,0.3-14.6,0.3C28.8,45.1,18.2,45.1,13,45L13,45z M5.9,38
		c0-0.7,0.8-3.1,1.5-4.6c3-6.3,9.3-10.9,16.4-11.9c2.5-0.4,7-0.1,9.2,0.4c6,1.6,10.9,5.4,13.7,10.6c0.7,1.3,1.7,3.9,1.9,5.2l0.1,0.6
		H27.3C7,38.3,5.9,38.3,5.9,38z"/>
	<path id="path266" class="st1" d="M39.1,63.6c-1-0.3-2-1.2-2.3-2.1c-0.4-1.3,0.1-3.1,2.1-6.8c1.3-2.4,1.1-2.4,2.5,0.2
		c1.9,3.5,2.5,5.7,1.8,7.1C42.5,63.4,40.8,64,39.1,63.6L39.1,63.6z"/>
	<path id="path265" class="st1" d="M11.1,63.7c-1.4-0.2-2.4-1.3-2.7-2.7c-0.2-1.1,0.9-4.2,2.8-7.4l0.6-1l0.8,1.4
		c1,1.8,2.2,4.4,2.5,5.6c0.2,0.7,0.2,1.1,0,1.6c-0.2,0.8-0.9,1.7-1.5,2C13,63.7,11.9,63.8,11.1,63.7z"/>
	<path id="path264" class="st1" d="M23.9,71.2c-1.8-0.8-2.3-2.4-1.6-4.7c0.4-1.2,2.8-5.8,3-5.8c0.2,0,1.8,2.8,2.6,4.6
		c1,2.4,1.1,3.9,0.1,4.9C27.1,71.5,25.4,71.9,23.9,71.2z"/>
	<path id="path263" class="st1" d="M39.2,83.2c-0.6-0.2-1.4-1-1.7-1.6C37,80.7,37,80,37.4,78.7c0.5-1.5,2.9-6.3,3.1-6.2
		c0.3,0.1,2.1,3.5,2.7,5.1c0.9,2.2,0.9,3.5-0.1,4.7C42.4,83.3,40.5,83.7,39.2,83.2z"/>
	<path id="path262" class="st1" d="M8.8,83.1c-2-0.9-2.4-2.6-1.4-5.3c0.7-1.7,2.6-5.3,2.8-5.2c0.3,0,3,5.5,3.2,6.5
		c0.1,0.5,0.2,1.3,0.1,1.6C13.1,82.8,10.8,84,8.8,83.1z"/>
	<path id="path261" class="st1" d="M24.6,94.4c-1.7-0.4-2.7-1.8-2.6-3.5c0.1-1.7,3-7.5,3.5-7.1c0.3,0.3,2.2,4,2.8,5.4
		c0.6,1.5,0.6,2.5,0.1,3.5C27.8,94,26.1,94.8,24.6,94.4L24.6,94.4z"/>
	<path id="path68" class="st1" d="M72.2,96.2c-5.6-0.6-10.4-2.7-14.3-6.5c-2.8-2.7-4.9-6-6-9.6c-0.9-2.7-1-3.9-1-7.5
		c0-3.1,0-3.4,0.6-5.5c1.1-4.2,3.4-8,6.5-11c7.7-7.3,19.2-8.7,28.2-3.3c5,3,8.6,7.4,10.3,12.7c1.8,5.6,1.4,11.9-1.1,17.3
		c-2.2,4.7-6.6,9.1-11.2,11.1C80.4,95.8,76,96.6,72.2,96.2L72.2,96.2z M75.2,88.6c0.3-0.4,0.4-0.7,0.4-1.9v-1.4l1.1,1
		c1.2,1.1,1.8,1.3,2.6,0.7c0.7-0.6,0.6-1.4-0.5-2.4c-0.5-0.5-1.4-1.3-2-1.9l-1.1-1.1v-3.2v-3.2l2.7,1.6l2.7,1.6l0.5,2.6
		c0.6,3.2,0.8,3.4,1.8,3.4c0.6,0,0.8-0.2,1.1-0.5c0.3-0.4,0.3-0.5,0.1-2c-0.1-0.8-0.3-1.6-0.2-1.6c0,0,0.5,0.3,1.1,0.6
		c1.2,0.7,1.9,0.8,2.5,0.3c0.4-0.4,0.5-1.3,0.1-1.8c-0.1-0.2-0.7-0.5-1.3-0.9c-0.6-0.3-1.1-0.6-1.1-0.7c0,0,0.6-0.3,1.3-0.5
		c1.5-0.4,2-0.9,2-1.5c0-0.6-0.7-1.4-1.3-1.4c-0.2,0-1.4,0.3-2.7,0.7c-1.3,0.4-2.4,0.7-2.6,0.7c-0.3,0-5.4-2.9-5.4-3.1
		c0-0.1,0.4-0.3,1-0.6c0.5-0.3,1.7-1,2.7-1.5l1.7-1l2.6,0.9c2.5,0.8,2.7,0.8,3.2,0.6c0.7-0.3,0.9-1.1,0.5-1.7
		c-0.2-0.3-0.6-0.6-1.6-0.9c-0.7-0.3-1.4-0.5-1.4-0.6c-0.1-0.1,0.4-0.4,1-0.7c0.6-0.3,1.3-0.9,1.4-1.1c0.3-0.5,0.3-0.6,0-1
		c-0.5-0.9-1.1-0.9-2.6-0.2l-1.3,0.7l0.3-1.6c0.3-1.5,0.2-1.6-0.1-2c-0.2-0.3-0.6-0.5-1-0.5c-1-0.1-1.3,0.4-1.9,3.4L81,67.6
		l-2.7,1.5l-2.7,1.5l-0.1-3.1l-0.1-3.1l2-1.9c1.8-1.7,2-2,2-2.5c0-0.4-0.1-0.7-0.5-1c-0.8-0.6-1.2-0.5-2.4,0.6l-1.1,1v-1.4
		c0-1.7-0.4-2.3-1.3-2.3c-1.1,0-1.3,0.3-1.4,2.1l-0.1,1.6l-1.2-1c-0.6-0.6-1.3-1-1.5-1c-0.6,0-1,0.3-1.2,0.9
		c-0.3,0.8-0.1,1.1,2.1,3.1l1.9,1.7l0,3.2c0,1.7-0.1,3.1-0.1,3.1c-1.9-1-5.2-3-5.3-3.1c-0.1-0.1-0.3-1.3-0.6-2.8
		c-0.4-2.1-0.6-2.7-0.9-2.9c-0.6-0.4-1.2-0.4-1.8,0.1l-0.5,0.4l0.2,1.4c0.1,0.8,0.2,1.5,0.2,1.7c0,0.2-0.4,0-1.2-0.4
		c-0.6-0.4-1.4-0.6-1.6-0.6c-0.9,0-1.5,1-1.1,1.9c0.1,0.2,0.6,0.6,1.3,1c0.6,0.4,1.1,0.7,1.1,0.8c-0.1,0.1-0.7,0.3-1.4,0.6
		c-1.5,0.5-2,1.1-1.6,2c0.4,1,0.8,1,3.8,0.1l2.7-0.8l2,1.1c1.1,0.6,2.3,1.3,2.7,1.6l0.7,0.4l-2.7,1.6L66,76.3l-2.5-0.8
		c-1.4-0.4-2.7-0.8-3-0.8c-1,0-1.6,1.5-0.7,2.2c0.2,0.2,0.9,0.5,1.6,0.7c0.7,0.2,1.2,0.4,1.2,0.5c0,0.1-0.5,0.4-1.1,0.7
		c-0.6,0.3-1.2,0.8-1.3,1.1c-0.3,0.6,0,1.4,0.6,1.7c0.5,0.3,0.6,0.2,2-0.5c0.8-0.4,1.4-0.7,1.4-0.5c0,0.1-0.2,0.8-0.3,1.6
		c-0.3,1.6-0.1,2,0.7,2.3c0.4,0.2,0.6,0.2,1.1-0.1c0.6-0.3,0.6-0.4,1.2-3.8c0.2-1,0.4-1.8,0.4-2c0.1-0.1,1.3-0.9,2.8-1.8l2.6-1.5
		l0.1,3.1l0.1,3.1l-2.1,2c-2.2,2.2-2.4,2.4-1.7,3.3c0.6,0.8,1.4,0.7,2.7-0.5l1.1-1v1.4c0,1.2,0.1,1.5,0.4,1.8
		C73.8,89.3,74.7,89.3,75.2,88.6L75.2,88.6z"/>
	<path id="path67" class="st2" d="M70.8,98.6c-10-1.4-18.4-8.2-21.4-17.6c-1-3.1-1.2-4.7-1.2-8.2c0-4.5,0.6-7.1,2.5-11.1
		c3.1-6.3,8.7-11.1,15.4-13.3c1.1-0.4,2.2-0.7,2.3-0.7c0.3,0,0.3-1.1,0.2-16.4l-0.1-16.4l-0.4-1c-0.6-1.3-1.2-2-2.4-2.6l-1-0.5
		l-14.5-0.1c-16.5-0.1-15.5-0.1-16.9,1.4c-1.1,1.2-1.3,1.9-1.3,4.5l0,2.3l1.6,0.4c5.6,1.4,10.7,4.9,13.9,9.7
		c1.6,2.3,3.2,6.1,3.5,8.5c0.1,0.7,0.2,0.8,0.8,1.1c0.4,0.2,1,0.6,1.3,1c2.3,2.4,1.3,6.5-1.9,7.6c-0.7,0.2-3.7,0.3-24.5,0.2l-23.7,0
		l-0.7-0.4C0.9,46.2,0,44.8,0,42.9c0-1.8,0.7-3,2.2-3.9c1.1-0.6,1.1-0.7,1.3-1.8c1.7-8.4,8.6-15.4,17.3-17.6l1.7-0.4l0.1-3.3
		c0.1-2.7,0.2-3.5,0.5-4.5c1.2-3.8,3.8-6.8,7.4-8.6c3.1-1.5,2-1.5,19.7-1.5h15.6l1.5,0.4c2.6,0.7,4.5,1.9,6.5,3.9
		c2.5,2.5,3.9,5.2,4.4,8.5c0.1,0.9,0.2,7,0.2,17.4v16l1.2,0.2c3.9,0.8,8,2.8,11.4,5.6c4.4,3.6,7.5,9,8.7,14.8c0.4,2.2,0.5,7.4,0,9.6
		C97.6,88.1,89.8,96,79.6,98.3C77.6,98.7,72.8,98.9,70.8,98.6L70.8,98.6z M78.2,95.9c4.7-0.8,8.8-2.9,12.5-6.5
		c4.6-4.6,6.8-10,6.9-16.5c0-5.8-1.9-10.9-6-15.5c-1.9-2.2-5.7-4.8-8.6-6c-8.7-3.5-18.4-1.6-25.1,4.8c-3.1,2.9-5.4,6.8-6.5,11
		c-0.5,2.1-0.6,2.4-0.6,5.5c0,3.6,0.1,4.8,1,7.5C53.7,86,58.1,91,63.6,93.8C68.2,96.1,72.9,96.8,78.2,95.9z M51.1,44.8
		c1.4-0.7,1.4-2.9,0-3.6c-0.5-0.2-3.4-0.3-24-0.3H3.7l-0.6,0.6c-0.5,0.5-0.6,0.8-0.6,1.5c0,0.7,0.1,1,0.5,1.4L3.5,45l9.5,0.1
		c5.2,0.1,15.8,0.1,23.6,0C48.2,45,50.7,45,51.1,44.8L51.1,44.8z M48.6,37.7c-0.3-1.3-1.2-4-1.9-5.2c-2.8-5.2-7.7-9-13.7-10.6
		c-2.2-0.6-6.7-0.8-9.2-0.4c-7.2,1.1-13.5,5.6-16.4,11.9c-0.7,1.4-1.5,3.9-1.5,4.6c0,0.3,1,0.3,21.4,0.3h21.4L48.6,37.7z M74.7,11.3
		c-0.2-0.4-0.3-0.3-0.1,0.2c0.1,0.2,0.2,0.3,0.2,0.2C74.9,11.7,74.8,11.5,74.7,11.3z M23.4,96.6c-3-1.1-4.5-4.2-3.6-7.4
		c0.6-1.9,3.6-7.7,4.7-8.9c0.2-0.3,0.6-0.4,1-0.4c0.7,0,1,0.3,2.5,2.7c1.3,2.1,2.5,4.7,3,6.2c0.5,1.5,0.5,3.5-0.1,4.7
		c-0.6,1.2-1.7,2.3-2.8,2.8C26.7,97,24.7,97.1,23.4,96.6z M27.3,93.9c0.9-0.5,1.5-1.6,1.5-2.8c0-0.4-0.2-1.3-0.5-2
		c-0.5-1.4-2.4-5.1-2.8-5.4c-0.5-0.4-3.4,5.4-3.5,7.1C21.8,93.7,24.7,95.4,27.3,93.9z M8.8,85.8c-1.2-0.3-2-0.7-2.8-1.6
		c-1.5-1.5-2-3.8-1.4-6c0.7-2.4,4-8.5,5.1-9.3c0.5-0.4,0.5-0.4,1-0.1c0.9,0.5,4,5.9,5,8.8c0.6,1.6,0.6,3.6,0,4.8
		C14.5,84.9,11.4,86.4,8.8,85.8L8.8,85.8z M11.8,83c1.5-0.7,2-2.1,1.7-3.9c-0.2-1.1-2.9-6.5-3.2-6.5c-0.3,0-2.2,3.5-2.8,5.2
		c-1,2.6-0.6,4.4,1.4,5.3C9.7,83.6,10.8,83.5,11.8,83L11.8,83z M39.3,85.8c-3.5-0.7-5.5-4.3-4.3-8c0.6-1.9,1.5-3.6,3.1-6.4
		c2.1-3.5,2.5-3.6,4.2-1.1c1.3,2,3.6,6.7,4,8.1c0.5,2.1,0.1,4-1.4,5.5C43.6,85.5,41.2,86.2,39.3,85.8L39.3,85.8z M42.1,83.1
		c1.3-0.6,2-1.9,1.8-3.4c0-0.4-0.3-1.4-0.6-2.1c-0.6-1.6-2.5-5-2.7-5.1c-0.3-0.1-2.7,4.7-3.1,6.2c-0.4,1.3-0.4,2,0.1,2.9
		c0.3,0.6,1.2,1.4,1.7,1.6C40,83.5,41.4,83.5,42.1,83.1z M24.1,73.9c-3.5-0.7-5.4-4.3-4.3-7.8c0.5-1.5,1.9-4.3,3.3-6.7
		c1.4-2.3,1.5-2.5,2.2-2.5c0.7,0,1.1,0.4,2.2,2.3c2.6,4.4,3.9,7.6,3.7,9.4C31,72.2,27.5,74.7,24.1,73.9L24.1,73.9z M26.9,71.2
		c2-1,2.3-2.8,1-5.9c-0.8-1.8-2.4-4.7-2.6-4.6c-0.2,0-2.6,4.6-3,5.8c-0.4,1.2-0.5,2.2-0.2,3C22.9,71.2,25.2,72.1,26.9,71.2
		L26.9,71.2z M10.3,66.1c-1.6-0.4-3.1-1.6-3.8-3.2c-0.7-1.4-0.7-3-0.1-4.7c0.8-2.4,4.2-8.5,4.9-8.9c0.9-0.5,1.3-0.2,2.8,2.2
		c3.3,5.3,4.3,8.9,3.3,11.2c-0.5,1.2-1.9,2.6-3,3.1C13.2,66.2,11.4,66.3,10.3,66.1z M13.6,63.3c0.5-0.3,1.3-1.3,1.5-2
		c0.2-0.5,0.2-0.9,0-1.6c-0.3-1.2-1.4-3.8-2.5-5.6l-0.8-1.4l-0.6,1c-1,1.8-2.4,4.6-2.6,5.7c-0.4,1.6,0,2.9,1.2,3.8
		C10.7,63.8,12.5,63.9,13.6,63.3z M38.2,65.9c-1.8-0.6-3-1.8-3.7-3.5c-0.4-1-0.3-3,0.2-4.5c0.9-2.7,4.2-8.3,5-8.7
		c0.8-0.3,1.3,0.1,2.4,1.9c2.4,3.9,3.9,7.4,3.9,9.4c0,1.3-0.6,2.7-1.4,3.7C43.2,65.9,40.2,66.7,38.2,65.9L38.2,65.9z M41.3,63.6
		c0.6-0.2,1.5-0.9,1.9-1.6c0.7-1.3,0.1-3.6-1.8-7.1c-1.4-2.5-1.2-2.5-2.5-0.2c-2,3.7-2.5,5.4-2.1,6.8c0.3,0.9,1.3,1.8,2.3,2.1
		C40,63.8,40.3,63.8,41.3,63.6L41.3,63.6z"/>
	<path id="path144" class="st3" d="M50.2,3.3c-8.8,0-13,0-15.1,0.1c-2.1,0.2-2,0.3-3.6,1.1c-3.2,1.6-5.3,4-6.4,7.4
		c-0.3,0.9-0.3,1.4-0.4,4v0v0v0v0l0,0.4l0,3c1.8-0.2,2-0.2,3-0.2c0.7,0,1.8,0,2.5,0l0-1.2c0-2.1,0-3.4,0.3-4.5c0,0,0.9-1.8,1.5-2.4
		c0.3-0.3,0.6-0.8,1.4-1.3C34.1,9.2,35,9.1,36.1,9c2.2-0.2,6-0.1,14.3-0.1l14.5,0.1c0.3,0,0.7,0.1,1,0.3l1,0.5
		c1.4,0.8,2.5,2,3.2,3.5h0l0.4,1c0.1,0.3,0.2,0.5,0.2,0.8l0.1,16.4c0.1,7.6,0.1,11.7,0,13.9c0,1.1-0.1,1.7-0.1,2.3l0,0.3
		c0.8-0.1,1.4-0.2,2.2-0.2c1.2-0.1,2.2,0,3.4,0.1l0-0.3v-16c0-5.2,0-9.3-0.1-12.3c0-1.5,0-2.6-0.1-3.5c0-0.8-0.1-1.5-0.1-1.4
		c0-0.4-0.2-1-0.2-1c-0.3-1.5-1-2.8-1.7-4.1c0,0-1.1-1.5-1.8-2.2c-1.8-1.8-3.4-2.7-5.6-3.4h0l-1.2-0.3L50.2,3.3z"/>
	<path id="path259" class="st4" d="M74.2,56.9c-1.1,0-1.3,0.3-1.4,2.1l-0.1,1.6l-1.2-1c-0.6-0.6-1.3-1-1.5-1c-0.6,0-1,0.3-1.2,0.9
		c-0.3,0.8-0.1,1.1,2.1,3.1l1.9,1.7l0,3.2c0,1.7-0.1,3.1-0.1,3.1c-1.9-1-5.2-3-5.3-3.1c-0.1-0.1-0.3-1.3-0.6-2.8
		c-0.4-2.1-0.6-2.7-0.9-2.9c-0.6-0.4-1.2-0.4-1.8,0.1l-0.5,0.4l0.2,1.4c0.1,0.8,0.2,1.5,0.2,1.7c0,0.2-0.4,0-1.2-0.4
		c-0.6-0.4-1.4-0.6-1.6-0.6c-0.9,0-1.5,1-1.1,1.9c0.1,0.2,0.6,0.6,1.3,1c0.6,0.4,1.1,0.7,1.1,0.8c-0.1,0.1-0.7,0.3-1.4,0.6
		c-1.5,0.5-2,1.1-1.6,2c0.4,1,0.8,1,3.8,0.1l2.7-0.8l2,1.1c1.1,0.6,2.3,1.3,2.7,1.6l0.7,0.4l-2.7,1.6L66,76.3l-2.5-0.8
		c-1.4-0.4-2.7-0.8-3-0.8c-1,0-1.6,1.5-0.7,2.2c0.2,0.2,0.9,0.5,1.6,0.7c0.7,0.2,1.2,0.4,1.2,0.5c0,0.1-0.5,0.4-1.1,0.7
		c-0.6,0.3-1.2,0.8-1.3,1.1c-0.3,0.6,0,1.4,0.6,1.7c0.5,0.3,0.6,0.2,2-0.5c0.8-0.4,1.4-0.7,1.4-0.5c0,0.1-0.2,0.8-0.3,1.6
		c-0.3,1.6-0.1,2,0.7,2.3c0.4,0.2,0.6,0.2,1.1-0.1c0.6-0.3,0.6-0.4,1.2-3.8c0.2-1,0.4-1.8,0.4-2c0.1-0.1,1.3-0.9,2.8-1.8l2.6-1.5
		l0.1,3.1l0,3.1l-2.1,2c-2.2,2.2-2.4,2.4-1.7,3.3c0.6,0.8,1.4,0.7,2.7-0.5l1.1-1v1.4c0,1.2,0.1,1.5,0.4,1.8c0.6,0.6,1.5,0.6,2-0.1
		c0.3-0.4,0.4-0.7,0.4-1.9v-1.4l1.1,1c1.2,1.1,1.8,1.3,2.6,0.7c0.7-0.6,0.6-1.4-0.5-2.4c-0.5-0.5-1.4-1.3-2-1.9l-1.1-1.1v-3.2v-3.2
		l2.7,1.6l2.7,1.6l0.5,2.6c0.6,3.2,0.8,3.4,1.8,3.4c0.6,0,0.8-0.2,1.1-0.5c0.3-0.4,0.3-0.5,0.1-2c-0.1-0.8-0.3-1.6-0.2-1.6
		c0,0,0.5,0.3,1.1,0.6c1.2,0.7,1.9,0.8,2.5,0.3c0.4-0.4,0.5-1.3,0.1-1.8c-0.1-0.2-0.7-0.5-1.3-0.9c-0.6-0.3-1.1-0.6-1.1-0.7
		s0.6-0.3,1.3-0.5c1.5-0.4,2-0.9,2-1.5c0-0.6-0.7-1.4-1.3-1.4c-0.2,0-1.4,0.3-2.7,0.7c-1.3,0.4-2.4,0.7-2.6,0.7
		c-0.3,0-5.4-2.9-5.4-3.1c0-0.1,0.4-0.3,1-0.6c0.5-0.3,1.7-1,2.7-1.5l1.7-1l2.6,0.9c2.5,0.8,2.7,0.8,3.2,0.6
		c0.7-0.3,0.9-1.1,0.5-1.7c-0.2-0.3-0.6-0.6-1.6-0.9c-0.7-0.3-1.4-0.5-1.4-0.6c-0.1-0.1,0.4-0.4,1-0.7c0.6-0.3,1.3-0.9,1.4-1.1
		c0.3-0.5,0.3-0.6,0-1c-0.5-0.9-1.1-0.9-2.6-0.2l-1.3,0.7l0.3-1.6c0.3-1.5,0.2-1.6-0.1-2c-0.2-0.3-0.6-0.5-1-0.5
		c-1-0.1-1.3,0.4-1.9,3.4L81,67.6l-2.7,1.5l-2.7,1.5l-0.1-3.1l0-3.1l2-1.9c1.8-1.7,2-2,2-2.5c0-0.4-0.1-0.7-0.5-1
		c-0.8-0.6-1.2-0.5-2.4,0.6l-1.1,1v-1.4C75.6,57.6,75.2,56.9,74.2,56.9L74.2,56.9z"/>
</g>
</svg>
