<?xml version="1.0" encoding="utf-8"?>
<!-- Generator: Adobe Illustrator 24.3.0, SVG Export Plug-In . SVG Version: 6.00 Build 0)  -->
<svg version="1.1" id="Layer_1" xmlns="http://www.w3.org/2000/svg" xmlns:xlink="http://www.w3.org/1999/xlink" x="0px" y="0px"
	 viewBox="0 0 100 100" style="enable-background:new 0 0 100 100;" xml:space="preserve">
<style type="text/css">
	.st0{fill:none;}
	.st1{fill:#1FABE9;}
	.st2{fill:#050606;}
	.st3{fill:#FFFFFF;}
	.st4{fill:#DDE6EC;}
</style>
<path id="path344" class="st0" d="M0.2,50V0h50h50v50v50h-50h-50L0.2,50z"/>
<g>
	<path id="path100" class="st1" d="M48.6,37.7c-7.1,0.2-14,2.1-18.7,5.2c-1.5,1-4,3.5-4.7,4.7l-0.5,0.9l0.5,0.5
		c0.6,0.6,1.1,1.6,1.3,3c0.2,1.4,0.4,1.7,1.5,2.7c1.8,1.7,3.9,2.4,7.3,2.8c5.6,0.5,5.9,0.6,9.8,2c3.7,1.3,3.8,1.3,7.9,1.2
		c2.8,0,4-0.1,5.4-0.4c2.6-0.5,5.8-1.3,7.7-2.1c1.6-0.6,1.7-0.7,3.1-2.1c1.1-1.1,1.7-1.6,2.4-1.9c0.5-0.2,1.2-0.6,1.6-0.7
		c0.7-0.3,1.6-1.4,2.3-2.7l0.4-0.8l-0.4-1c-0.8-1.9-1.7-3.1-3.4-4.6c-0.6-0.5-1.2-0.9-1.3-0.9c-0.1,0-0.1,1.2-0.1,2.8
		c0,0.9,0,1.5,0,2c0,0,0,0,0,0c0.3,0.3,0.7,0.9,0.5,1.3c-0.2,0.3-1.3,0.9-1.8,0.9c-1.1,0-2.4-0.9-2.4-1.6c0-0.2,0.2-0.6,0.4-0.9
		c0.1-0.2,0.3-0.3,0.4-0.5c0-0.1,0-0.2,0-0.3l0-1.8l-2.4-1.4c-1.3-0.8-3.2-1.8-4-2.3L59.4,41v1.4c0,0.2,0,0.2,0,0.4
		c0.1,0.1,0.2,0.1,0.2,0.1c0.3,0,0.5,0.6,0.3,1.1c-0.2,0.8-1.9,1.3-3.1,0.8c-1.2-0.5-1.7-1.3-1-2c0.1-0.1,0.3-0.2,0.4-0.4
		c0-0.4,0-0.9,0-1.5l0-2.7L55.4,38c-0.5-0.1-2.2-0.2-3.8-0.2C50.6,37.7,49.6,37.7,48.6,37.7L48.6,37.7z M64.3,39.8
		c0,0,0.1,0.1,0.2,0.2c0.1,0.1,0.2,0.1,0.4,0.2c0.5,0.3,1,0.6,1.4,0.8c0.4,0.2,1,0.6,1,0.6c0,0,0,0,0,0c0.1,0,0.1-0.1,0.1-0.3
		c0-0.2-0.4-0.5-1.4-0.9c0,0,0,0-0.1,0c-0.8-0.3-1.3-0.5-1.5-0.6C64.4,39.9,64.3,39.8,64.3,39.8L64.3,39.8z M41.3,40.8
		c0.3,0,0.3,0.1,0.3,0.5c0,0.6,0,0.6,0.6,0.3c0.4-0.2,0.4-0.2,0.6,0c0.2,0.2,0.2,0.3-0.3,0.6L42,42.5l0.5,0.3
		c0.3,0.2,0.4,0.4,0.4,0.5c-0.1,0.3-0.4,0.3-0.8,0c-0.4-0.3-0.5-0.3-0.5,0.3c0,0.4-0.1,0.5-0.3,0.5c-0.3,0-0.3-0.1-0.3-0.6
		c0-0.6,0-0.6-0.4-0.3c-0.5,0.3-0.9,0.3-0.9-0.1c0-0.2,0.2-0.4,0.4-0.5c0.2-0.1,0.4-0.2,0.4-0.3s-0.2-0.2-0.4-0.3
		c-0.4-0.2-0.5-0.6-0.2-0.7c0.1-0.1,0.3,0,0.5,0.1C40.9,42,41,42,41,41.3C41,40.9,41,40.8,41.3,40.8z M47.2,41.5
		c0.1,0,0.2,0.1,0.4,0.2c0.5,0.3,0.5,0.9,0,1.2c-0.2,0.1-0.4,0.2-0.4,0.2c0,0-0.2-0.1-0.4-0.2c-0.5-0.3-0.4-0.9,0-1.2
		C47,41.5,47.1,41.5,47.2,41.5L47.2,41.5z M53,44.6c0.2,0,0.3,0.2,0.3,0.4c0,0.4-0.4,0.6-0.7,0.3C52.4,44.9,52.6,44.5,53,44.6z
		 M61.7,45.3c0.4,0,0.6,0.3,0.4,0.7c-0.2,0.3-0.5,0.4-0.7,0.1C61.1,45.7,61.3,45.3,61.7,45.3L61.7,45.3z M33.5,46.1
		c0.1,0,0.2,0.2,0.3,0.6c0,0.3,0.1,0.6,0.1,0.6s0.3-0.1,0.5-0.3c0.3-0.2,0.4-0.3,0.6-0.1c0.3,0.3,0.3,0.4-0.3,0.7l-0.5,0.3l0.5,0.4
		c0.3,0.2,0.5,0.5,0.4,0.6c-0.2,0.3-0.6,0.2-0.9,0c-0.3-0.3-0.4-0.3-0.4,0.1c0.1,0.4-0.3,0.9-0.5,0.8c-0.1,0-0.2-0.3-0.2-0.6
		c0-0.6-0.1-0.6-0.5-0.3c-0.2,0.1-0.4,0.2-0.5,0.2c-0.4,0-0.2-0.6,0.2-0.8c0.2-0.1,0.4-0.3,0.4-0.3s-0.2-0.2-0.4-0.3
		s-0.4-0.3-0.4-0.4c0-0.3,0.4-0.4,0.8-0.1l0.4,0.3l0-0.6C33.3,46.3,33.4,46.1,33.5,46.1z M54.7,46.6c0.2,0,0.5,0.1,0.9,0.3
		c0.6,0.2,1.3,0.4,2.4,0.4c1.4,0.1,1.6,0.1,1.6,0.4c0,0.3-0.1,0.3-1.4,0.3c-1.1,0-1.6,0-2.5-0.3c-1-0.3-1.3-0.6-1.3-0.9
		C54.3,46.7,54.5,46.6,54.7,46.6L54.7,46.6z M62.2,48.5c0.3,0,0.6,0.3,0.5,0.6c-0.1,0.2-0.6,0.3-0.8,0.1c-0.2-0.2-0.1-0.6,0.2-0.7
		C62.1,48.5,62.1,48.5,62.2,48.5L62.2,48.5z M65.9,51c0.2,0,0.3,0.1,0.4,0.5c0.1,0.6,0.1,0.6,0.5,0.3c0.3-0.3,0.8-0.2,0.8,0.2
		c0,0.1-0.2,0.4-0.5,0.5l-0.5,0.3l0.5,0.3c0.5,0.3,0.6,0.4,0.2,0.7c-0.2,0.2-0.3,0.1-0.5-0.1c-0.4-0.4-0.5-0.3-0.5,0.2
		c0,0.3-0.1,0.5-0.3,0.5c-0.3,0.1-0.5-0.1-0.5-0.6c0-0.5-0.1-0.5-0.5-0.2c-0.2,0.2-0.4,0.2-0.5,0.1c-0.3-0.3-0.3-0.4,0.3-0.7
		c0.5-0.3,0.5-0.3-0.3-0.8c-0.2-0.1-0.3-0.2-0.1-0.4c0.2-0.2,0.3-0.2,0.6,0c0.4,0.2,0.4,0.2,0.5-0.3C65.6,51.1,65.7,51,65.9,51
		L65.9,51z M35.7,51.1c0.1,0,0.2,0,0.4,0.2c0.2,0.2,0.2,0.3,0.1,0.6c-0.2,0.4-0.5,0.4-0.8,0.1c-0.1-0.2-0.2-0.3,0-0.5
		C35.4,51.2,35.5,51.1,35.7,51.1L35.7,51.1z M47,53.1c0.2,0,0.3,0.1,0.5,0.3c0.4,0.4,0.3,1.1,0,1.3c-0.4,0.2-0.7,0.2-1-0.1
		c-0.3-0.4-0.3-0.8,0-1.2C46.7,53.2,46.9,53.1,47,53.1L47,53.1z M37.3,54.5c0.4,0,0.5,0.4,0.3,0.7c-0.2,0.3-0.4,0.3-0.6,0
		C36.7,54.9,36.9,54.5,37.3,54.5L37.3,54.5z M59.7,55.2c0.2,0,0.3,0.1,0.4,0.6l0,0.6l0.4-0.3c0.3-0.2,0.5-0.3,0.6-0.1
		c0.3,0.3,0.3,0.4-0.3,0.7l-0.5,0.3l0.5,0.4c0.4,0.3,0.5,0.5,0.3,0.6c-0.2,0.2-0.3,0.2-0.7-0.1l-0.5-0.3l0,0.6l0,0
		c0,0.4-0.1,0.6-0.3,0.6c-0.3,0.1-0.5-0.1-0.5-0.7v-0.5l-0.4,0.3c-0.2,0.1-0.5,0.2-0.6,0.2c-0.4-0.1-0.2-0.5,0.3-0.8l0.5-0.3
		l-0.5-0.3c-0.5-0.3-0.6-0.5-0.3-0.7c0.2-0.1,0.3-0.1,0.5,0.1c0.4,0.3,0.5,0.3,0.6-0.3C59.4,55.3,59.4,55.2,59.7,55.2L59.7,55.2z
		 M40.1,55.6c0.2,0,0.5,0.1,1,0.3c1.9,0.6,4.1,0.9,6.5,0.9c1.8-0.1,2.1,0,2.2,0.2c0,0.1,0,0.3-0.2,0.4h0c-0.4,0.3-4.5,0.3-6.2,0
		c-1.6-0.3-3.3-0.8-3.6-1.1c-0.2-0.2-0.2-0.3,0-0.5C39.9,55.6,40,55.6,40.1,55.6L40.1,55.6z"/>
	<path id="path98" class="st2" d="M47.2,82C36,81.6,25.2,79,16.6,74.5C8.5,70.3,3.5,65.3,1.5,59.3c-0.6-1.8-0.8-3.3-0.8-6.5
		c0-2.3,0-2.9-0.3-3.5c-0.9-2.4-0.3-5,1.6-7.2c0.5-0.5,1.1-1.5,1.5-2.2c1.2-2,2.5-3.8,4.6-5.8c1.1-1.1,2.3-2.4,2.7-3
		c2.5-3.8,6.1-5.6,12.5-6.4c1.9-0.2,3-0.5,4.7-1c2.6-0.8,5.9-1.6,9.6-2.2c1.8-0.3,3.3-0.7,5.1-1.3c1.6-0.6,3.1-0.9,4-1
		c2-0.3,5-0.1,7.1,0.4c0.9,0.2,2.3,0.5,3.1,0.7l1.4,0.3l0.9-0.6c3-2.1,5.9-1.5,6.7,1.4c0.1,0.5,0.3,0.9,0.3,0.9c0,0,1.4,0.4,3,0.8
		c1.7,0.4,4.2,1.2,5.7,1.6c1.5,0.5,3.6,1,4.8,1.3c3.9,0.7,5.9,1.4,8.2,3c1.7,1.1,3.2,2.7,3.9,4.2c0.4,0.8,1,1.5,1.8,2.4
		c0.7,0.7,1.6,1.8,2.2,2.6c0.5,0.7,1.3,1.7,1.8,2.2c1,1.1,1.7,2.4,2,3.6c0.3,1.3,0.4,11.7,0,13.5c-0.3,1.6-0.8,3.1-1.7,4.8
		c-4.6,9.2-18.3,16.7-35.5,19.2C58.4,81.8,51.6,82.2,47.2,82L47.2,82z M58.2,81c12-1.3,22.3-4.6,29.9-9.7c4.5-3,7.6-6.2,9.4-10
		c1-2.1,1.5-3.8,1.7-6.4c0.2-2.5,0.1-3.2-0.3-1.6c-0.1,0.6-0.5,1.7-0.9,2.4c-0.5,1.1-0.9,1.5-1.9,2.5c-0.7,0.6-2.3,2.3-3.7,3.6
		c-2.5,2.5-3.9,3.6-7,5.2c-0.7,0.4-2,1.3-3,2.2c-3.1,2.7-4.5,3.4-7.6,4.1c-0.9,0.2-2,0.2-5.3,0.2c-3.4,0-4.4,0-6,0.3
		c-5.1,0.8-8.5,1.1-13.9,1.1c-3.3,0-4,0-6,0.4c-1.6,0.3-2.8,0.4-4.3,0.4c-2.9,0-3.9-0.3-7.2-2c-1.7-0.9-3.2-1.5-4-1.7
		c-4.6-1.2-9.7-3.4-13.4-5.7c-0.7-0.4-1.6-0.8-2.4-1c-2.7-0.7-3.9-1.7-5.3-4c-0.5-0.8-1.3-1.9-2.1-2.8c-1.5-1.6-2.2-2.7-2.9-5
		C1.8,52.7,1.6,52,1.5,52c0,0,0,1.1,0,2.6c0.1,3,0.3,4,1.4,6.4c1.1,2.3,2.3,3.9,4.3,6c2,2.1,4,3.6,6.5,5.1c8,4.9,18.6,8.1,29.3,8.9
		c1.2,0.1,2.4,0.2,2.7,0.2C47.2,81.4,56.1,81.2,58.2,81L58.2,81z M43.9,74.6c2.2-0.3,3.1-0.4,4.8-0.3c4.3,0.1,9.2-0.2,14.6-1.1
		c2.2-0.3,2.9-0.4,6.4-0.3c3.3,0,4.2,0,5.1-0.2c2.7-0.6,4.6-1.7,7.2-4c1.6-1.4,2.2-1.9,4-2.8c2.2-1.2,3.6-2.2,6-4.7
		c1.3-1.3,2.9-2.8,3.5-3.4c1.9-1.8,2.6-3.5,2.9-7.1c0.1-1,0.3-2.3,0.4-3c0.3-1.6,0.3-3,0-4.1c-0.3-1.1-0.8-1.9-2.1-3.3
		c-0.5-0.6-1.2-1.5-1.6-1.9c-0.3-0.4-1.2-1.5-1.9-2.3c-0.8-0.8-1.6-1.9-1.9-2.5c-1-1.9-3.2-3.9-5.5-5.1c-1.3-0.7-3.2-1.2-6-1.8
		c-1.5-0.3-3.8-0.9-5.4-1.4c-2.4-0.8-7.7-2.2-8.1-2.2c-0.1,0-0.2,0.5-0.2,2.1c0,2.4-0.1,2.7-1,3c-0.7,0.2-1.1,0.1-1.6-0.3
		c-0.3-0.3-0.3-0.4-0.3-2.8v-2.5l-1-0.2C61.2,21.9,61,22,60.2,23c-0.7,0.9-0.7,1-0.7,4.8v3.7l1,0.6c0.6,0.3,1.8,0.8,2.8,1.1
		c1,0.3,2.3,0.7,2.9,1c0.6,0.2,1.2,0.4,1.3,0.4c0.1,0,0.2-0.9,0.2-2c0-1.9,0.1-2,0.6-3c1.3-2.8,4.8-4.6,7.1-3.8
		c0.8,0.3,1.8,1.3,2.1,2.2c0.1,0.4,0.2,1.7,0.3,3.6c0.1,2.9,0.1,3-0.3,3.5c-0.5,0.7-1.8,0.8-2.4,0.2c-0.2-0.2-0.2-0.7-0.2-3.1
		c0-3.3-0.1-3.6-1-3.6c-0.9,0-2.2,1-2.8,2.1c-0.4,0.8-0.4,0.9-0.4,3.3l0,2.4l1.1,0.8c2.5,1.8,4.4,4.2,5.2,6.5c0.3,1,0.4,1.5,0.4,2.9
		c0,1.9-0.4,3.4-1.5,5.2c-1,1.7-1.4,2.1-3.2,2.9c-1.5,0.7-1.8,0.9-3.1,2.3c-1.4,1.4-1.6,1.6-2.7,2c-4.8,1.8-9.5,2.7-14.7,2.7
		c-3,0-3.8-0.1-7.6-1.5c-2.9-1-4.9-1.5-7.1-1.6c-3.8-0.3-5.5-0.6-7.4-1.5c-2.4-1.1-4-2.8-4.2-4.5c-0.2-1.7-0.5-2.3-1.5-3.4
		c-1.3-1.4-1.5-1.9-1.5-3.2c0-2.3,1.3-4.9,3.6-7.1c1.1-1.1,1.3-1.2,2.6-1.6c1.3-0.4,1.5-0.6,2.6-1.6c0.7-0.6,1.5-1.3,2-1.5
		c1-0.5,3.4-1.2,5.7-1.7c1.4-0.3,2.7-0.8,4-1c0.8-0.2,1.7-0.3,2.6-0.4c0.6,0,1.1,0,1.7,0c0.6,0,1.3-0.1,1.9,0c1.4,0,2.2,0.2,4.1,0.3
		c1.3,0.1,2.6,0.2,2.8,0.2l0.3,0.1v-3.5c0-3.8,0.1-4.7,0.9-6.1c0.3-0.4,0.4-0.8,0.3-0.9C57.3,21,53,20,51.8,19.8
		c-1.7-0.3-5.2-0.1-6.6,0.3c-0.6,0.2-1.9,0.6-2.9,0.9c-1.3,0.4-2.7,0.8-4.5,1.1c-4.2,0.7-5.9,1.1-9.7,2.2c-1.3,0.4-3,0.8-4.2,0.9
		c-3.8,0.5-5.5,0.9-7.5,1.9c-2.2,1.1-3.6,2.3-5.1,4.4c-0.4,0.6-1.6,2-2.7,3c-2.1,2.1-3.2,3.5-4.4,5.5c-0.4,0.7-1.1,1.7-1.6,2.3
		c-0.5,0.6-1.1,1.5-1.4,2c-0.4,0.9-0.5,1.2-0.5,2.4c0,1.3,0.1,1.5,0.6,2.7c0.3,0.7,0.9,2.2,1.3,3.2c0.9,2.7,1.5,3.6,3,5.2
		c0.8,0.8,1.7,2,2.1,2.7c1.4,2.3,2.3,3.1,5,3.9c1,0.3,1.9,0.7,3.2,1.5c3.7,2.2,7.4,3.8,12.1,5.1c1.5,0.4,2.5,0.8,4.3,1.8
		C36.7,75.2,38.1,75.4,43.9,74.6L43.9,74.6z M75.8,63.7c-0.1-0.2-0.1-0.4,0.3-0.8c0.9-1.3,2.1-2.1,3.8-2.5c1.3-0.3,1.8-0.6,2.2-1.3
		c0.4-0.6,0.7-0.7,0.8-0.2c0.1,0.4-0.6,1.3-1.3,1.7c-0.3,0.2-1,0.4-1.4,0.5C78.9,61.4,77.9,62,77,63c-0.5,0.5-0.9,0.9-0.9,0.9
		C76,63.9,75.9,63.8,75.8,63.7L75.8,63.7z M16.7,57.1c-0.2-0.3-0.6-0.7-1.2-0.9c-1-0.5-1.7-1.1-2-1.8c-0.4-1,0.2-1.1,0.8-0.1
		c0.3,0.6,0.6,0.8,1.5,1.3c0.9,0.5,1.2,0.7,1.4,1.2c0.3,0.5,0.3,0.6,0.1,0.7C17,57.6,17,57.6,16.7,57.1z M90.1,44.5
		c-0.1-0.1-0.1-0.6-0.1-1.2c-0.1-1.3-0.7-2.4-1.7-3.3c-0.4-0.3-0.8-0.7-0.8-0.9c0-1.1,2,0.5,2.8,2.2c0.3,0.7,0.6,2,0.4,2.7
		C90.6,44.6,90.3,44.8,90.1,44.5z M27.1,31.2c-0.2-0.3,0.1-0.6,0.8-0.9c0.9-0.4,2.2-0.6,2.5-0.4c0.4,0.3,0.1,0.6-0.8,0.7
		c-0.5,0-1.1,0.2-1.5,0.4C27.4,31.4,27.2,31.4,27.1,31.2L27.1,31.2z M58.3,60.4c2.6-0.5,5.8-1.3,7.7-2.1c1.6-0.6,1.7-0.7,3.1-2.1
		c1.1-1.1,1.7-1.6,2.4-1.9c0.5-0.2,1.2-0.6,1.6-0.7c0.7-0.3,1.6-1.4,2.3-2.7l0.4-0.8l-0.4-1c-0.8-1.9-1.7-3.1-3.4-4.6
		c-0.6-0.5-1.2-0.9-1.3-0.9c-0.1,0-0.1,1.2-0.1,2.8c0,3.3,0,3.4-1.4,3.5c-0.6,0.1-0.8,0-1.2-0.3c-0.4-0.4-0.4-0.4-0.4-2.2l0-1.8
		l-2.4-1.4c-1.3-0.8-3.2-1.8-4-2.3L59.4,41v1.4c0,1.7-0.2,2-1.5,2c-0.7,0-0.9-0.1-1.2-0.4c-0.4-0.4-0.4-0.4-0.4-3.1l0-2.7L55.4,38
		c-0.5-0.1-2.2-0.2-3.8-0.2c-8.1-0.3-16.4,1.7-21.7,5.2c-1.5,1-4,3.5-4.7,4.7l-0.5,0.9l0.5,0.5c0.6,0.6,1.1,1.6,1.3,3
		c0.2,1.4,0.4,1.7,1.5,2.7c1.8,1.7,3.9,2.4,7.3,2.8c5.6,0.5,5.9,0.6,9.8,2c3.7,1.3,3.8,1.3,7.9,1.2C55.6,60.7,56.8,60.6,58.3,60.4
		L58.3,60.4z M69.7,40l0.1-8.9l0.5-0.8c0.9-1.7,3.2-2.9,4.3-2.3c0.7,0.4,0.8,1,0.9,4l0.1,2.9l0.4,0.1c0.8,0.1,0.9-0.1,0.9-3.1
		c0-2.9-0.1-3.5-0.7-4.3c-1-1.3-2.4-1.5-4.2-0.5c-1.4,0.7-2.4,1.7-3,2.9l-0.5,0.9l0,8.9c0,4.9,0,9,0,9.1C68.4,49,68.7,49,69,49
		l0.6,0L69.7,40z M76.4,48c0.6-3.4-1-6.8-4.4-9.6c-0.7-0.6-1.3-1-1.4-1c-0.1,0-0.1,1.1-0.1,2.4v2.4l1.5,1.1c1.6,1.3,2.9,2.7,3.7,4.2
		c0.3,0.5,0.6,1,0.6,1C76.3,48.6,76.4,48.3,76.4,48L76.4,48z M24.7,46.8c0.8-1.3,2.7-3.1,4.4-4.3c4-2.7,9.1-4.5,15.1-5.3
		c2.3-0.3,7.8-0.4,10.5-0.2l1.6,0.1v-2.4c0-1.3-0.1-2.5-0.1-2.5c-0.1,0-1.4-0.2-3-0.3c-6-0.4-12.2,0.4-17.5,2.2
		c-2.2,0.7-2.7,1-4,2.2c-1,0.9-1.3,1.1-2.6,1.6c-1.4,0.5-1.5,0.6-2.7,1.8c-2,2-3,4.1-3,6.1c0,0.9,0.3,1.9,0.6,1.9
		C24.1,47.8,24.4,47.4,24.7,46.8L24.7,46.8z M67.5,43.6l0-0.9l-4-2.3c-2.2-1.3-4.2-2.3-4.4-2.3c-0.2,0-0.5,0.2-0.6,0.4
		c-0.3,0.4-0.2,0.4,0.1,0.8c0.2,0.2,1.5,1,2.8,1.7c1.3,0.7,3.2,1.8,4.2,2.4c1,0.6,1.8,1.1,1.9,1.1S67.5,44.1,67.5,43.6L67.5,43.6z
		 M58.6,42.1l0-1.4L58.1,40c-0.9-0.8-0.8-1.9,0.1-2.5c0.5-0.3,0.5-0.3,0.5-1.6c0-1.3,0-1.4-0.4-1.6c-0.9-0.5-1-1.8-0.1-2.5l0.5-0.4
		l0.1-3.8c0.1-4.2,0.1-4.3,1.2-5.4c0.6-0.6,2.2-1.5,2.7-1.5c0.5,0,1,0.4,1.3,0.9c0.2,0.4,0.2,1.1,0.2,3.1v2.6l0.4,0.1
		c0.2,0.1,0.5,0,0.7-0.1c0.3-0.2,0.3-0.2,0.3-3.1c0-2.9-0.1-2.9-0.5-3.6c-0.9-1.4-2.5-1.6-4.3-0.7c-1.2,0.6-2.6,2-3.1,3.1l-0.4,0.9
		v9.7v9.7l0.4,0.2c0.2,0.1,0.5,0.1,0.7,0.1C58.6,43.5,58.6,43.3,58.6,42.1L58.6,42.1z M67.5,41.4c0-0.2-0.4-0.5-1.4-0.9
		c-2.2-0.9-2.3-0.9-0.5,0.2c0.9,0.6,1.8,1,1.8,1C67.5,41.7,67.5,41.6,67.5,41.4z M67.5,39.8c0-0.1-1.6-1.1-3.5-2.2
		c-1.9-1.1-3.8-2.1-4-2.3L59.4,35v1.2c0,1.2,0,1.2,0.5,1.4c0.3,0.1,1.4,0.5,2.4,0.8c1.1,0.3,2.6,0.8,3.3,1.1
		C67.3,40.1,67.5,40.1,67.5,39.8L67.5,39.8z M67.5,37.8l0-0.9l-1.9-1.1c-3.8-2.2-6.3-3.5-6.6-3.5c-0.4,0-0.7,0.4-0.6,0.9
		c0,0.4,0.6,0.7,4.5,2.9c2.4,1.4,4.5,2.5,4.6,2.5C67.5,38.6,67.5,38.2,67.5,37.8L67.5,37.8z M67.5,35.7c0-0.1,0-0.2-0.1-0.2
		c0,0-0.5-0.2-0.9-0.4c-0.5-0.2-0.9-0.4-0.9-0.3c0,0.1,1.6,1,1.7,1C67.5,35.8,67.5,35.8,67.5,35.7L67.5,35.7z"/>
	<path id="path346" class="st3" d="M50.3,19.7c-1.8,0-4,0.1-5,0.4c-0.6,0.2-1.9,0.6-2.9,0.9c-1.3,0.4-2.7,0.8-4.5,1.1
		c-4.2,0.7-5.9,1.1-9.7,2.2c-1.3,0.4-3,0.8-4.2,0.9c-3.8,0.5-5.5,0.9-7.5,1.9c-2.2,1.1-3.6,2.3-5.1,4.4c-0.4,0.6-1.6,2-2.7,3
		c-2.1,2.1-3.2,3.5-4.4,5.5c-0.4,0.7-1.1,1.7-1.6,2.3c-0.5,0.6-1.1,1.5-1.4,2c-0.4,0.9-0.5,1.2-0.5,2.4c0,1.3,0.1,1.5,0.6,2.7
		c0.3,0.7,0.9,2.2,1.3,3.2c0.9,2.7,1.5,3.6,3,5.2c0.8,0.8,1.7,2,2.1,2.7c1.4,2.3,2.3,3.1,5,3.9c1,0.3,1.9,0.7,3.2,1.5
		c3.7,2.2,7.4,3.8,12.1,5.1c1.5,0.4,2.5,0.8,4.3,1.8c4.3,2.3,5.7,2.5,11.6,1.6l0,0c2.2-0.3,3.1-0.4,4.8-0.3
		c4.3,0.1,9.2-0.2,14.6-1.1c2.2-0.3,2.9-0.4,6.4-0.3c3.3,0,4.2,0,5.1-0.2c2.7-0.6,4.6-1.7,7.2-4c1.6-1.4,2.2-1.9,4-2.8
		c2.2-1.2,3.6-2.2,6-4.7c1.3-1.3,2.9-2.8,3.5-3.4c1.9-1.8,2.6-3.5,2.9-7.1c0.1-1,0.3-2.3,0.4-3c0.3-1.6,0.3-3,0-4.1
		c-0.3-1.1-0.8-1.9-2.1-3.3c-0.5-0.6-1.2-1.5-1.6-1.9c-0.3-0.4-1.2-1.5-1.9-2.3c-0.8-0.8-1.6-1.9-1.9-2.5c-1-1.9-3.2-3.9-5.5-5.1
		c-1.3-0.7-3.2-1.2-6-1.8c-1.5-0.3-3.8-0.9-5.4-1.4c-2.4-0.8-7.7-2.2-8.1-2.2c-0.1,0-0.2,0.5-0.2,2.1c0,2.4-0.1,2.7-1,3
		c-0.7,0.2-1.1,0.1-1.6-0.3c-0.3-0.3-0.3-0.4-0.3-2.8v-2.5l-1-0.2C61.2,21.9,61,22,60.2,23c-0.7,0.9-0.7,1-0.7,4.8v3.7l1,0.6
		c0.6,0.3,1.8,0.8,2.8,1.1c1,0.3,2.3,0.7,2.9,1c0.6,0.2,1.2,0.4,1.3,0.4s0.2-0.9,0.2-2c0-1.9,0.1-2,0.6-3c1.3-2.8,4.8-4.6,7.1-3.8
		c0.8,0.3,1.8,1.3,2.1,2.2c0.1,0.4,0.2,1.7,0.3,3.6c0.1,2.9,0.1,3-0.3,3.5c-0.5,0.7-1.8,0.8-2.4,0.2c-0.2-0.2-0.2-0.7-0.2-3.1
		c0-3.3-0.1-3.6-1-3.6c-0.9,0-2.2,1-2.8,2.1c-0.4,0.8-0.4,0.9-0.4,3.3l0,2.4l1.1,0.8c2.5,1.8,4.4,4.2,5.2,6.5c0.3,1,0.4,1.5,0.4,2.9
		c0,1.9-0.4,3.4-1.5,5.2c-1,1.7-1.4,2.1-3.2,2.9c-1.5,0.7-1.8,0.9-3.1,2.3c-1.4,1.4-1.6,1.6-2.7,2c-4.8,1.8-9.5,2.7-14.7,2.7
		c-3,0-3.8-0.1-7.6-1.5c-2.9-1-4.9-1.5-7.1-1.6c-3.8-0.3-5.5-0.6-7.4-1.5c-2.4-1.1-4-2.8-4.2-4.5c-0.2-1.7-0.5-2.3-1.5-3.4
		c-1.3-1.4-1.5-1.9-1.5-3.2c0-2.3,1.3-4.9,3.6-7.1c1.1-1.1,1.3-1.2,2.6-1.6c1.3-0.4,1.5-0.6,2.6-1.6c0.7-0.6,1.5-1.3,2-1.5
		c1-0.5,3.4-1.2,5.7-1.7c1.4-0.3,2.7-0.8,4-1c0.8-0.2,1.7-0.3,2.6-0.4c0.6,0,1.1,0,1.7,0c0.6,0,1.3-0.1,1.9,0c1.4,0,2.2,0.2,4.1,0.3
		c1.3,0.1,2.6,0.2,2.8,0.2l0.3,0.1v-3.5c0-3.8,0.1-4.7,0.9-6.1c0.3-0.4,0.4-0.8,0.3-0.9C57.3,21,53,20,51.8,19.8
		C51.4,19.8,50.9,19.7,50.3,19.7L50.3,19.7z M30,29.8c0.2,0,0.3,0,0.4,0.1c0.4,0.3,0.1,0.6-0.8,0.7c-0.5,0-1.1,0.2-1.5,0.4
		c-0.7,0.4-0.9,0.4-1,0.2c-0.2-0.3,0.1-0.6,0.8-0.9C28.5,30,29.4,29.8,30,29.8z M87.7,38.9c0.6,0.1,1.9,1.3,2.5,2.5
		c0.3,0.7,0.6,2,0.4,2.7c-0.1,0.5-0.4,0.8-0.6,0.5c-0.1-0.1-0.1-0.6-0.1-1.2c-0.1-1.3-0.7-2.4-1.7-3.3c-0.4-0.3-0.8-0.7-0.8-0.9
		C87.4,39,87.5,38.9,87.7,38.9z M13.5,53.5c0.2,0,0.5,0.2,0.8,0.7c0.3,0.6,0.6,0.8,1.5,1.3c0.9,0.5,1.2,0.7,1.4,1.2
		c0.3,0.5,0.3,0.6,0.1,0.7c-0.3,0.2-0.4,0.2-0.7-0.3c-0.2-0.3-0.6-0.7-1.2-0.9c-1-0.5-1.7-1.1-2-1.8C13.3,53.8,13.3,53.6,13.5,53.5z
		 M82.6,58.6c0.1,0,0.2,0.1,0.3,0.3c0.1,0.4-0.6,1.3-1.3,1.7c-0.3,0.2-1,0.4-1.4,0.5C78.9,61.4,77.9,62,77,63
		c-0.5,0.5-0.9,0.9-0.9,0.9c-0.1,0-0.2-0.1-0.3-0.2c-0.1-0.2-0.1-0.4,0.3-0.8c0.9-1.3,2.1-2.1,3.8-2.5c1.3-0.3,1.8-0.6,2.2-1.3
		C82.3,58.8,82.4,58.6,82.6,58.6z"/>
	<path id="path358" class="st4" d="M62.6,19.4c-0.3,0-0.5,0.1-0.8,0.1c-0.1,0-0.1,0-0.2,0.1c-0.3,0.1-0.6,0.2-0.9,0.3
		c-0.3,0.2-0.6,0.3-0.9,0.6c-0.9,0.7-1.8,1.7-2.2,2.5l-0.4,0.9v0.1c0,0,0,0.1,0,0.1c0,0,0,0,0,0c0,0,0,0.1,0,0.1v9.2
		c0.1,0,0.2,0.1,0.2,0c0.1,0,0.1,0,0.1-0.1c0-0.1,0-0.3,0-0.4c0,0,0,0,0,0c0-0.1,0-0.2,0.1-0.3c0,0,0-0.1,0-0.1
		c0-0.1,0.1-0.2,0.1-0.3c0,0,0-0.1,0.1-0.1c0.1-0.1,0.2-0.2,0.3-0.3l0,0l0.5-0.4l0.1-3.8c0-0.9,0-1.6,0.1-2.2c0,0,0,0,0-0.1
		c0-0.1,0-0.1,0-0.1c0,0,0,0,0-0.1c0,0,0,0,0,0c0-0.2,0-0.3,0-0.4c0-0.1,0.1-0.2,0-0.1c0.1-0.1,0.1-0.1,0.1-0.2c0,0,0,0,0,0
		c0.1-0.8,0.3-1.3,0.6-1.7c0.1-0.2,0.3-0.3,0.5-0.5c0.1-0.1,0.4-0.3,0.6-0.5c0,0,0,0,0,0c0.2-0.2,0.5-0.3,0.8-0.4c0,0,0,0,0,0
		c0,0,0,0,0,0c0,0,0,0,0,0c0.1,0,0.1,0,0.2-0.1c0.2-0.1,0.4-0.2,0.6-0.3c0.2-0.1,0.4-0.1,0.6-0.1c0.1,0,0.3,0,0.4,0.1c0,0,0,0,0,0
		c0.1,0,0.2,0.1,0.4,0.2c0.1,0.1,0.2,0.2,0.3,0.3c0.1,0.1,0.2,0.2,0.2,0.3c0.1,0.2,0.1,0.4,0.2,0.9c0,0,0,0,0,0c0,0,0,0.1,0,0.1
		c0,0,0,0,0,0c0,0,0,0.1,0,0.1c0,0,0,0.1,0,0.2c0,0,0,0,0,0c0,0.4,0,0.9,0,1.7v2.6l0.4,0.1c0.2,0.1,0.5,0,0.7-0.1
		c0.3-0.1,0.3-0.6,0.3-1.9c0,0,0,0,0,0c0-0.4,0-0.9,0-1.4c0,0,0,0,0,0c0-0.7,0-1.1,0-1.5c0-0.1,0-0.1,0-0.1c0-1-0.1-1.2-0.4-1.7
		c-0.1-0.2-0.3-0.4-0.4-0.5c0,0-0.1-0.1-0.2-0.1c-0.1-0.1-0.2-0.2-0.4-0.3c-0.1,0-0.1-0.1-0.2-0.1c-0.1-0.1-0.3-0.1-0.4-0.1
		c-0.1,0-0.1,0-0.2-0.1C63.1,19.4,62.9,19.4,62.6,19.4L62.6,19.4z M73.8,26.3C73.8,26.3,73.8,26.3,73.8,26.3c-0.3,0-0.5,0.1-0.8,0.2
		c-0.1,0-0.1,0-0.2,0.1c-0.3,0.1-0.6,0.2-0.9,0.4c-1.4,0.7-2.4,1.7-3,2.9l-0.5,0.9l0,8.9c0,4.9,0,9,0,9.1C68.4,49,68.7,49,69,49
		l0.5,0c0,0,0,0,0,0c0,0,0,0,0.1,0v0l0.1-8.9v0c0,0,0,0,0,0c0-1.4,0-2.2,0-3.2c0,0,0,0,0,0v0l0-3.5c0,0,0-0.1,0-0.1
		c0-0.1,0-0.2,0-0.3l0-1.8l0.5-0.8c0.1-0.2,0.3-0.4,0.4-0.6c0,0,0,0,0,0c0.2-0.2,0.3-0.4,0.5-0.6c0.2-0.2,0.4-0.3,0.6-0.5
		c0,0,0,0,0,0c0.8-0.6,1.7-0.9,2.3-0.8c0.1,0,0.1,0,0.2,0.1c0.1,0,0.2,0,0.3,0.1c0,0,0,0,0,0c0.1,0,0.2,0.1,0.2,0.2
		c0.1,0.1,0.2,0.3,0.3,0.5c0.2,0.5,0.3,1.5,0.3,3.4l0.1,2.9l0.4,0.1l0,0c0,0,0,0,0,0c0.8,0.1,0.8-0.1,0.8-3.1c0-2.9-0.1-3.5-0.7-4.3
		c-0.1-0.2-0.3-0.3-0.4-0.5c0,0-0.1-0.1-0.1-0.1c-0.1-0.1-0.2-0.2-0.4-0.2c-0.1,0-0.1-0.1-0.2-0.1c-0.1-0.1-0.3-0.1-0.4-0.1
		c-0.1,0-0.1,0-0.2,0C74.2,26.3,74,26.3,73.8,26.3L73.8,26.3z M50.9,32c-0.7,0-1.4,0-2.1,0c-0.2,0-0.4,0-0.7,0c-0.5,0-1,0-1.5,0.1
		c-0.3,0-0.5,0-0.8,0.1c-0.4,0-0.9,0.1-1.3,0.1c-0.3,0-0.6,0.1-0.8,0.1c-0.4,0.1-0.9,0.1-1.3,0.2c-0.3,0-0.5,0.1-0.8,0.1
		c-0.4,0.1-0.9,0.2-1.3,0.3c-0.3,0.1-0.5,0.1-0.8,0.2c-0.5,0.1-0.9,0.2-1.4,0.3c-0.2,0.1-0.4,0.1-0.6,0.2c-0.6,0.2-1.3,0.4-1.9,0.6
		c-0.6,0.2-1,0.3-1.4,0.5c-1.1,0.4-1.6,0.8-2.6,1.7c0,0,0,0,0,0c0,0,0,0,0,0c0,0,0,0,0,0c0,0,0,0,0,0c0,0-0.1,0-0.1,0c0,0,0,0,0,0
		c-0.2,0.2-0.4,0.4-0.6,0.5c0,0,0,0-0.1,0c-0.5,0.4-0.9,0.6-1.7,0.9c-0.1,0-0.1,0-0.1,0.1c-0.5,0.2-0.9,0.3-1.1,0.5
		c-0.1,0-0.2,0.1-0.3,0.1c0,0,0,0,0,0c0,0-0.1,0.1-0.1,0.1c-0.3,0.2-0.6,0.5-1.2,1.1c-0.3,0.3-0.5,0.6-0.8,0.8
		c0,0.1-0.1,0.1-0.1,0.2c-0.2,0.2-0.4,0.5-0.5,0.7c0,0-0.1,0.1-0.1,0.1c-0.2,0.3-0.3,0.5-0.5,0.8c0,0,0,0,0,0.1
		c-0.2,0.3-0.3,0.6-0.4,0.9c0,0,0,0,0.1,0c0,0,0,0-0.1,0c-0.1,0.2-0.2,0.4-0.2,0.6c0,0,0,0.1,0,0.1c-0.1,0.2-0.1,0.3-0.1,0.5
		c0,0.1,0,0.2-0.1,0.3c0,0.1,0,0.3-0.1,0.4c0,0.2,0,0.4,0,0.6c0,0,0,0,0,0c0,0.5,0.1,0.9,0.2,1.3c0.1,0.3,0.2,0.5,0.3,0.6
		c0,0,0.1,0,0.1,0c0.1,0,0.4-0.4,0.7-1c0,0,0,0,0,0c0.2-0.3,0.4-0.5,0.6-0.8c0.2-0.2,0.4-0.5,0.7-0.7c0,0,0,0,0,0c0,0,0,0,0,0
		c0.1-0.1,0.1-0.1,0.2-0.2c0,0,0,0,0,0c0,0,0,0,0,0c0.4-0.4,0.9-0.9,1.3-1.3c0,0,0.1,0,0.1-0.1c0.5-0.4,1-0.8,1.5-1.1
		c0.3-0.2,0.6-0.4,0.9-0.6c0,0,0,0,0-0.1c0,0.1,0,0.1,0,0.1c0.5-0.3,0.9-0.6,1.4-0.8c0,0,0,0,0.1,0c0.5-0.3,1-0.5,1.5-0.7
		c0.1,0,0.1-0.1,0.2-0.1c0.5-0.2,0.9-0.4,1.4-0.6c0.1,0,0.2-0.1,0.3-0.1c0.5-0.2,0.9-0.3,1.4-0.5c0.2-0.1,0.3-0.1,0.5-0.2
		c0.4-0.1,0.9-0.3,1.3-0.4c0.2-0.1,0.5-0.1,0.7-0.2c0.4-0.1,0.8-0.2,1.2-0.3c0.4-0.1,0.7-0.2,1.1-0.2c0.3-0.1,0.6-0.1,0.9-0.2
		c0.7-0.1,1.4-0.2,2.1-0.3c0,0,0,0,0.1,0c1.7-0.2,5.3-0.3,8.1-0.3l0,0c0.9,0,1.8,0.1,2.5,0.1c0,0,0,0,0,0l1.6,0.1c0,0,0,0,0,0v-2.4
		c0-1.3-0.1-2.5-0.1-2.5c0,0-0.4-0.1-0.9-0.1c0,0,0,0,0,0c-0.5,0-1.3-0.1-2.1-0.2c0,0,0,0,0,0C52.4,32,51.7,32,50.9,32L50.9,32z
		 M59,32.3c-0.1,0-0.2,0-0.3,0.1c0,0-0.1,0.1-0.1,0.1c0,0,0,0,0,0c0,0,0,0,0,0c-0.1,0.1-0.1,0.2-0.2,0.3c0,0,0,0,0,0
		c0,0.1-0.1,0.3,0,0.4c0,0.4,0.6,0.7,4.5,2.9c2.4,1.4,4.5,2.5,4.6,2.5c0.1,0,0.1-0.4,0.1-0.9l0,0l0-0.8c0,0,0-0.1-0.1-0.1v0
		l-1.8-1.1c0,0,0,0,0,0c-1.9-1.1-3.5-2-4.6-2.6c0,0,0,0,0,0c-0.6-0.3-1-0.5-1.4-0.7c0,0,0,0,0,0C59.3,32.3,59.1,32.3,59,32.3
		L59,32.3z M57.3,33.5c-0.1,0.2-0.1,0.3-0.1,0.4v4.4v0.9v4.1l0.4,0.2c0.2,0.1,0.5,0.1,0.7,0.1c0.1-0.1,0.2-0.1,0.3-0.3c0,0,0,0,0,0
		c0.1-0.2,0.1-0.6,0.1-1.2l0-1.4L58.1,40c-0.1-0.1-0.2-0.3-0.3-0.4c0,0,0,0,0,0c-0.1-0.1-0.1-0.3-0.2-0.4c0,0,0,0,0,0
		c-0.1-0.3-0.1-0.6,0-0.9c0,0,0,0,0,0c0,0,0,0,0,0c0-0.1,0.1-0.3,0.2-0.4c0,0,0,0,0.1-0.1c0.1-0.1,0.2-0.2,0.4-0.3
		c0.1-0.1,0.2-0.1,0.3-0.2c0.2-0.2,0.2-0.4,0.2-1.5c0-1.3,0-1.4-0.4-1.6c0,0-0.1-0.1-0.1-0.1c0,0,0,0,0,0c0,0,0,0,0,0
		c-0.1-0.1-0.2-0.2-0.3-0.3c0,0,0,0,0,0c-0.1-0.1-0.2-0.2-0.2-0.4c0,0,0,0,0,0c0,0,0,0-0.1,0C57.4,33.5,57.4,33.5,57.3,33.5
		L57.3,33.5z M65.7,34.8c0,0.1,1.6,1,1.7,1c0.1,0,0.1-0.1,0.1-0.2l0,0c0-0.1,0-0.2-0.1-0.2c0,0-0.5-0.2-0.9-0.4c0,0,0,0,0,0
		C66.1,34.9,65.7,34.8,65.7,34.8L65.7,34.8z M59.6,35.1c-0.1,0.1-0.1,0.2-0.1,0.3v0.8c0,1.2,0,1.2,0.5,1.4c0.3,0.1,1.4,0.5,2.4,0.8
		c1.1,0.3,2.6,0.8,3.3,1.1c0.7,0.3,1,0.4,1.3,0.5c0.2,0,0.3,0.1,0.4,0.1c0,0,0.1-0.1,0.1-0.1c0,0,0,0,0-0.1c0-0.1-0.4-0.3-1-0.7
		c0,0,0,0,0,0c-0.6-0.4-1.5-0.9-2.5-1.5c-1.9-1.1-3.8-2.1-4-2.3L59.6,35.1z M70.6,37.4c-0.1,0-0.1,1.1-0.1,2.4v2.4l1.5,1.1
		c0.3,0.3,0.6,0.5,1,0.8c0.1,0.1,0.3,0.2,0.4,0.4c0,0,0.1,0.1,0.1,0.1c0.4,0.4,0.8,0.8,1.1,1.2c0,0,0,0,0,0c0,0,0,0,0,0c0,0,0,0,0,0
		c0,0,0,0,0,0.1c0,0,0,0,0,0c0.2,0.2,0.4,0.5,0.5,0.7c0.2,0.3,0.4,0.6,0.5,0.9c0.1,0.1,0.1,0.2,0.2,0.3c0.1,0.1,0.1,0.1,0.2,0.2
		c0,0,0.1,0,0.2,0c0.1,0,0.2,0,0.2-0.1c0,0,0,0,0,0h0c0.5-3-0.7-6-3.2-8.5c-0.4-0.4-0.8-0.7-1.2-1.1c0,0,0,0,0,0
		C71.3,37.8,70.7,37.4,70.6,37.4L70.6,37.4z M59,38.2c-0.2,0-0.5,0.2-0.6,0.4c-0.1,0.1-0.1,0.2-0.2,0.3c0,0,0,0,0,0c0,0,0,0,0,0
		c0,0.1,0,0.2,0.1,0.3c0,0,0.1,0.1,0.2,0.2c0.1,0.1,0.5,0.3,1,0.7c0,0,0,0,0,0c0.5,0.3,1.1,0.7,1.8,1.1c1.3,0.7,3.2,1.8,4.2,2.4
		c1,0.6,1.8,1.1,1.9,1.1c0.1,0,0.1-0.4,0.1-0.9l0,0l0-0.9l-4-2.3c0,0,0,0,0,0c-1.7-0.9-3.2-1.8-3.9-2.1c0,0,0,0,0,0
		C59.2,38.2,59.1,38.2,59,38.2L59,38.2z M36,38.8c0,0.1,0,0.1,0.1,0.2c0,0,0,0,0,0C36,38.9,36,38.9,36,38.8z M1.5,52
		c0,0,0,1.1,0,2.6c0,1.5,0.1,2.5,0.3,3.5c0,0,0,0,0,0c0.2,0.9,0.5,1.8,1.1,3c0.5,1.1,1.1,2.1,1.8,3.1c0,0,0,0,0,0
		c0.3,0.5,0.7,1,1.1,1.4c0,0,0,0,0,0c0.4,0.5,0.9,1,1.4,1.5c0.5,0.5,1,1,1.5,1.4c0.5,0.5,1,0.9,1.5,1.3c1.1,0.8,2.2,1.6,3.5,2.4
		c0.5,0.3,1,0.6,1.5,0.9c1,0.6,2.1,1.1,3.2,1.7c1.3,0.6,2.8,1.2,4.2,1.8c0.3,0.1,0.7,0.3,1,0.4c0,0,0,0,0,0c0.3,0.1,0.6,0.2,0.9,0.3
		c5.8,2,12.1,3.4,18.4,3.9c1.2,0.1,2.4,0.2,2.7,0.2c0.3,0,1.1,0,2.2,0c2.1,0,5.2-0.1,7.5-0.2c1.2,0,2.1-0.1,2.6-0.2
		c12-1.3,22.3-4.6,29.9-9.7c4.5-3,7.6-6.2,9.4-10c1-2.1,1.5-3.8,1.7-6.4c0.1-0.7,0.1-1.2,0.1-1.6c0,0,0,0,0,0c0-1-0.1-1.1-0.3,0.1
		c-0.1,0.6-0.5,1.7-0.9,2.4c-0.5,1.1-0.9,1.5-1.9,2.5c0,0,0,0,0,0c-0.7,0.6-2.3,2.3-3.7,3.6c-1.3,1.3-2.3,2.2-3.4,3c0,0,0,0,0,0
		c0,0,0,0,0,0c0,0,0,0,0,0c-0.1,0.1-0.3,0.2-0.4,0.3c0,0,0,0,0,0c0,0,0,0,0,0c-0.9,0.6-1.9,1.2-3.1,1.9c-0.7,0.4-2,1.3-3,2.2
		c-0.4,0.4-0.8,0.7-1.2,1c0,0,0,0-0.1,0.1c0,0,0,0-0.1,0c0,0,0,0,0,0c0,0,0,0,0,0c0,0,0,0,0,0c-0.2,0.1-0.4,0.3-0.6,0.5c0,0,0,0,0,0
		c0,0,0,0-0.1,0c-0.4,0.3-0.9,0.6-1.3,0.9c0,0-0.1,0.1-0.1,0.1c-0.8,0.5-1.6,0.8-2.5,1.1c-0.1,0-0.2,0.1-0.3,0.1
		c-0.5,0.1-0.9,0.3-1.5,0.4c-0.2,0-0.5,0.1-0.8,0.1c-0.1,0-0.2,0-0.3,0c-0.8,0.1-2,0.1-4.1,0.1c-0.1,0-0.1,0-0.2,0
		c-3.4,0-4.4,0-6,0.3c-0.7,0.1-1.4,0.2-2.1,0.3c-0.5,0.1-1,0.2-1.5,0.2c-0.7,0.1-1.3,0.1-1.9,0.2c-2.6,0.3-5.2,0.4-8.4,0.4
		c-2.5,0-3.5,0-4.7,0.2c-0.4,0.1-0.8,0.1-1.3,0.2c0,0,0,0,0,0c-1.6,0.3-2.8,0.4-4.3,0.4c-0.7,0-1.3,0-1.9-0.1
		c-0.3,0-0.5-0.1-0.8-0.1c-0.5-0.1-1-0.2-1.5-0.4c0,0,0,0,0,0c0,0,0,0,0,0c-0.8-0.3-1.8-0.7-3-1.4c-0.8-0.4-1.6-0.8-2.3-1.1
		c-0.7-0.3-1.2-0.5-1.6-0.6c0,0,0,0,0,0c-0.1,0-0.2-0.1-0.4-0.1c-0.5-0.1-1-0.3-1.4-0.4c-0.1,0-0.2-0.1-0.3-0.1
		c-0.5-0.2-1-0.3-1.6-0.5c0,0,0,0,0,0c0,0,0,0,0,0.1c-0.2,0.3-0.1,0.1,0-0.1c0,0,0,0,0,0c-0.8-0.3-1.5-0.6-2.3-0.9
		c-0.2-0.1-0.3-0.1-0.5-0.2c-0.8-0.3-1.6-0.6-2.3-1c0,0,0,0-0.1,0c-0.7-0.3-1.4-0.7-2.1-1c-0.2-0.1-0.4-0.2-0.5-0.3
		c-0.7-0.4-1.3-0.7-1.9-1.1c0,0,0,0,0,0c-0.7-0.4-1.6-0.8-2.4-1c-2.7-0.7-3.9-1.7-5.3-4c-0.5-0.8-1.3-1.9-2.1-2.8
		c-0.3-0.3-0.6-0.6-0.8-0.9c-0.1-0.1-0.2-0.3-0.3-0.4c-0.1-0.1-0.2-0.3-0.3-0.4c-0.3-0.4-0.5-0.8-0.7-1.2c0,0,0,0,0-0.1c0,0,0,0,0,0
		c0,0,0,0,0,0c0,0,0,0,0,0c-0.1-0.3-0.3-0.6-0.4-1c0,0,0,0,0,0c0,0,0,0,0,0v0c-0.1-0.3-0.2-0.6-0.3-0.9c0,0,0,0,0,0l0,0c0,0,0,0,0,0
		c0,0,0,0,0,0c0,0,0,0,0,0C1.8,52.7,1.6,52,1.5,52L1.5,52z M22.9,70.4C22.7,70.8,22.8,70.4,22.9,70.4z"/>
	<path id="path373" class="st3" d="M59.5,58.8c-0.1-0.1-0.2-0.2-0.2-0.8l0-0.5L59,57.7c-0.3,0.2-0.5,0.3-0.6,0.3c-0.1,0-0.1,0-0.2,0
		c-0.1-0.1-0.2-0.3,0-0.4c0.1-0.1,0.2-0.2,0.6-0.4c0.2-0.1,0.3-0.2,0.3-0.2c0,0-0.1-0.1-0.3-0.2c-0.5-0.3-0.6-0.4-0.6-0.6
		c0-0.1,0.1-0.2,0.2-0.3c0.1-0.1,0.3-0.1,0.5,0.1c0.2,0.1,0.2,0.2,0.3,0.2c0.1,0,0.1-0.1,0.2-0.5c0.1-0.4,0.1-0.5,0.4-0.5
		c0.1,0,0.1,0,0.2,0.1C60,55.3,60,55.4,60,56c0,0.2,0,0.4,0,0.4s0.1-0.1,0.3-0.2c0.3-0.2,0.4-0.3,0.5-0.3c0.1,0,0.2,0.1,0.3,0.2
		c0.2,0.2,0.1,0.3-0.5,0.6c-0.2,0.1-0.3,0.2-0.3,0.2c0,0,0.1,0.1,0.3,0.3c0.5,0.4,0.6,0.5,0.6,0.6c0,0.1-0.1,0.2-0.2,0.2
		c-0.1,0-0.2,0-0.6-0.2c-0.2-0.1-0.3-0.2-0.3-0.2c0,0,0,0.2,0,0.4c0,0.5-0.1,0.7-0.2,0.8C59.7,58.8,59.6,58.8,59.5,58.8L59.5,58.8z
		 M65.7,54.4c-0.1-0.1-0.2-0.3-0.2-0.6c0-0.4-0.1-0.5-0.2-0.4c0,0-0.2,0.1-0.3,0.1c-0.2,0.2-0.3,0.2-0.4,0.2c-0.1,0-0.1,0-0.2-0.1
		c-0.1-0.1-0.1-0.2-0.1-0.2c0-0.1,0.2-0.2,0.5-0.4c0.5-0.3,0.5-0.3-0.1-0.7c-0.4-0.2-0.4-0.3-0.2-0.5c0.1-0.1,0.2-0.2,0.3-0.1
		c0,0,0.2,0.1,0.3,0.1c0.3,0.2,0.4,0.2,0.4,0.1c0,0,0-0.2,0-0.3c0.1-0.5,0.1-0.6,0.4-0.6c0.2,0,0.3,0.1,0.3,0.5
		c0.1,0.5,0.1,0.6,0.5,0.3c0.1-0.1,0.2-0.1,0.3-0.2c0.2-0.1,0.5,0,0.5,0.2c0,0.1,0,0.2-0.1,0.3c-0.1,0.1-0.2,0.3-0.6,0.4
		c-0.1,0.1-0.2,0.2-0.3,0.2c0,0,0,0.1,0.3,0.2c0.4,0.2,0.6,0.4,0.6,0.5c0,0.1-0.2,0.3-0.3,0.4c-0.1,0-0.2,0-0.4-0.2
		c-0.3-0.2-0.4-0.3-0.4-0.1c0,0,0,0.2-0.1,0.3c0,0.3-0.1,0.4-0.2,0.5C66,54.4,65.8,54.5,65.7,54.4z M68.9,50.6
		c-0.6-0.1-1.3-0.4-1.8-0.8c-0.3-0.3-0.4-0.5-0.4-0.7c0-0.2,0.2-0.6,0.4-0.9c0.2-0.3,0.3-0.5,0.3-0.8c0,0,0,0.3,0,0.7
		c0,0.8,0,1,0.1,1.2c0.1,0.2,0.5,0.5,0.7,0.6c0.1,0,0.1,0,0.4,0c0.3,0,0.7,0,1-0.1c0.2,0,0.3-0.1,0.4-0.2c0.2-0.2,0.3-0.6,0.3-1.5
		c0-0.3,0-0.5,0-0.5c0,0,0,0,0,0.1c0,0.1,0.1,0.4,0.1,0.5c0,0,0.1,0.1,0.2,0.2c0.1,0.1,0.1,0.2,0.2,0.2c0.2,0.4,0.2,1-0.1,1.3
		c-0.3,0.3-1.1,0.7-1.5,0.7C69.2,50.6,69.1,50.6,68.9,50.6L68.9,50.6z M62,49.3c-0.2-0.1-0.2-0.2-0.2-0.4c0-0.2,0.1-0.3,0.2-0.4
		c0.3-0.2,0.7,0.1,0.7,0.4c0,0.1-0.1,0.2-0.2,0.3C62.3,49.3,62.1,49.3,62,49.3L62,49.3z M61.5,46.2c-0.1,0-0.2-0.1-0.3-0.2
		c-0.2-0.4,0.2-0.7,0.6-0.6c0.1,0,0.2,0.1,0.2,0.2c0,0.2-0.1,0.5-0.3,0.6C61.8,46.2,61.6,46.2,61.5,46.2z M57.1,48
		c-0.5,0-1-0.2-1.7-0.4c-0.7-0.3-1.1-0.5-1.1-0.8c0-0.1,0.1-0.1,0.2-0.2c0.2-0.1,0.6,0,1.1,0.2c0.7,0.3,1.2,0.4,2.5,0.5
		c1.2,0.1,1.4,0.1,1.4,0.4c0,0.1,0,0.1-0.1,0.2C59.4,48,59.3,48,59,48C58.8,48,57.2,48.1,57.1,48z M57.7,44.9
		c-1-0.1-1.9-0.7-2.1-1.3c0-0.1,0-0.2,0-0.3c0-0.2,0.1-0.3,0.3-0.5c0.2-0.2,0.3-0.3,0.3-0.5l0-0.1l0,0.1c0,0,0,0.2,0,0.3
		c0,0.3,0,0.7,0.1,0.9c0,0.3,0.1,0.4,0.3,0.6c0.2,0.2,0.3,0.3,0.6,0.3c0.2,0,0.2,0,0.7,0c0.5,0,0.7,0,0.9-0.1
		c0.4-0.2,0.5-0.5,0.6-1.4c0-0.3,0-0.3,0-0.2c0,0.1,0.1,0.2,0.1,0.2c0,0,0.1,0,0.1,0c0.2,0,0.4,0.6,0.3,1.1c0,0.2-0.1,0.3-0.2,0.4
		c-0.3,0.4-1,0.6-1.7,0.6C58,45,57.8,45,57.7,44.9L57.7,44.9z M52.9,45.4c-0.2-0.1-0.4-0.3-0.4-0.5c0-0.1,0.1-0.3,0.2-0.3
		c0.2-0.1,0.4,0,0.5,0.1c0,0.1,0.1,0.3,0,0.4C53.2,45.3,53,45.5,52.9,45.4z M47,43.1c-0.5-0.3-0.7-0.5-0.6-0.9
		c0-0.2,0.2-0.4,0.5-0.6c0.2-0.1,0.3-0.1,0.5,0c0.3,0.2,0.5,0.4,0.5,0.6c0.1,0.3-0.1,0.5-0.4,0.8c-0.1,0.1-0.3,0.2-0.4,0.2
		C47.2,43.1,47.1,43.1,47,43.1z M41.1,44.2C41,44.1,41,44,41,43.6c0-0.1,0-0.3,0-0.3c0-0.1-0.1-0.1-0.3,0c-0.5,0.3-0.8,0.4-0.9,0.2
		c-0.1-0.2,0-0.5,0.4-0.7c0.2-0.1,0.4-0.2,0.4-0.3c0-0.1-0.1-0.2-0.3-0.3c-0.4-0.2-0.5-0.5-0.3-0.7c0.1-0.1,0.1-0.1,0.2-0.1
		c0.1,0,0.3,0.1,0.5,0.2c0.2,0.1,0.3,0.2,0.4,0.2c0.1,0,0.1,0,0.1-0.5c0-0.3,0-0.4,0.1-0.4c0-0.1,0.1-0.1,0.2-0.1
		c0.1,0,0.2,0,0.2,0.1c0,0.1,0,0.1,0.1,0.4c0,0.4,0,0.5,0.1,0.5c0.1,0,0.2,0,0.4-0.2c0.3-0.2,0.4-0.2,0.5-0.2c0.1,0,0.2,0.2,0.3,0.3
		c0,0.1-0.1,0.2-0.6,0.6c-0.1,0.1-0.3,0.2-0.3,0.2c0,0,0.1,0.1,0.3,0.2c0.5,0.3,0.6,0.5,0.6,0.7c-0.1,0.1-0.1,0.2-0.3,0.2
		c-0.1,0-0.3-0.1-0.5-0.2c-0.4-0.3-0.5-0.3-0.5,0.3c0,0.4,0,0.4-0.1,0.5C41.4,44.2,41.2,44.2,41.1,44.2L41.1,44.2z M33.3,49.6
		c-0.1-0.1-0.1-0.3-0.1-0.6c0-0.5-0.1-0.6-0.5-0.3c-0.2,0.2-0.4,0.2-0.5,0.2C32,49,32,49,32,48.8c0-0.2,0.1-0.4,0.4-0.6
		c0.2-0.1,0.3-0.2,0.3-0.3c0-0.1-0.1-0.2-0.3-0.3c-0.3-0.2-0.5-0.3-0.4-0.5c0-0.1,0.1-0.2,0.2-0.2c0.2,0,0.4,0,0.7,0.3
		c0.1,0.1,0.2,0.1,0.2,0.1c0,0,0-0.2,0-0.4c0-0.4,0.1-0.6,0.1-0.7c0.1-0.2,0.2-0.2,0.3-0.1c0.1,0.1,0.1,0.3,0.2,0.6
		c0,0.3,0.1,0.5,0.1,0.5c0,0,0.1,0,0.4-0.2c0.4-0.3,0.5-0.3,0.6-0.2c0.1,0.1,0.2,0.2,0.2,0.2c0,0.2-0.1,0.3-0.7,0.7
		c-0.1,0.1-0.2,0.1-0.2,0.1c0,0,0.1,0.1,0.3,0.2c0.3,0.3,0.5,0.4,0.6,0.6c0,0.1,0,0.1,0,0.2C35,49,34.8,49.1,34.5,49
		c-0.1,0-0.1-0.1-0.2-0.2c-0.2-0.2-0.2-0.2-0.3-0.2c-0.1,0-0.1,0-0.1,0.4l0,0.3l-0.1,0.1C33.7,49.6,33.5,49.8,33.3,49.6z M35.6,52.1
		c-0.2-0.1-0.3-0.2-0.3-0.4c0-0.1,0-0.1,0-0.2c0.1-0.2,0.3-0.4,0.4-0.4c0.1,0,0.3,0.1,0.4,0.2c0.1,0.1,0.2,0.2,0.2,0.3
		c0,0.2-0.2,0.4-0.3,0.5C35.8,52.1,35.7,52.1,35.6,52.1z M37.1,55.3c-0.1-0.1-0.2-0.2-0.3-0.3c-0.1-0.2,0-0.4,0.2-0.5
		c0.2-0.1,0.4,0,0.5,0.2c0.1,0.1,0,0.3-0.1,0.5C37.3,55.4,37.2,55.4,37.1,55.3z M46.7,54.6c-0.1-0.1-0.2-0.2-0.3-0.3
		c-0.1-0.1-0.1-0.2-0.1-0.4c0-0.2,0-0.3,0.1-0.4c0.2-0.2,0.4-0.4,0.6-0.4c0.3,0,0.6,0.3,0.7,0.6c0.1,0.2,0,0.5-0.1,0.7
		c-0.1,0.1-0.5,0.3-0.7,0.3C46.9,54.7,46.8,54.7,46.7,54.6z M45.8,57.5c-1.7-0.1-2.1-0.1-3.1-0.4c-1.2-0.3-2.4-0.6-2.8-0.9
		c-0.1-0.1-0.2-0.2-0.3-0.3c0-0.1,0.1-0.2,0.2-0.3c0.2-0.1,0.3-0.1,1.4,0.2c2,0.7,3.9,0.9,6.6,0.8c1.6,0,1.9,0,1.9,0.2
		c0,0.1-0.1,0.3-0.2,0.4c-0.1,0.1-0.3,0.1-0.7,0.2C48.7,57.5,46.1,57.5,45.8,57.5z"/>
</g>
</svg>
