<?xml version="1.0" encoding="UTF-8" standalone="no"?>
<!-- Created with Inkscape (http://www.inkscape.org/) -->

<svg
   viewBox="0 0 100 100"
   xmlns="http://www.w3.org/2000/svg"><defs
     id="defs1" /><g
     id="layer1"
     transform="translate(805.35908,476.89293)"><g
       id="g358"
       transform="matrix(0.36909469,0,0,0.36909469,-1265.1922,-363.96488)"
       style="stroke-width:2.70933"><path
         style="fill:none;fill-opacity:1;stroke-width:2.70933"
         d="m 1245.8402,-170.4929 v -135.46666 h 135.4666 135.4667 v 135.46666 135.46666 h -135.4667 -135.4666 z"
         id="path331" /><path
         id="path85"
         style="fill:#b3bbc3;stroke-width:2.70933"
         d="m 1367.9015,-177.72507 v 24.25382 24.2533 h 12.2587 12.2592 v -24.2533 -24.25382 h -12.2592 z" /><path
         id="path357"
         style="fill:#059de8;stroke-width:2.70933"
         d="m 1355.2826,-229.54258 c -2.0493,0.10446 -4.1023,0.53795 -6.0528,1.30638 -2.0875,0.82237 -3.8828,2.00246 -5.5986,3.67988 -3.6398,3.55819 -5.5312,7.93589 -5.5372,12.81524 -0.011,8.56323 6.0237,15.72544 14.6157,17.34726 1.9938,0.37636 6.036,0.24415 7.8713,-0.25735 6.3881,-1.74564 11.0756,-6.46028 12.8199,-12.89533 0.3426,-1.26391 0.4034,-1.92427 0.4062,-4.39767 0,-2.64193 -0.042,-3.07048 -0.4816,-4.64468 -1.2647,-4.52485 -4.383,-8.55994 -8.3163,-10.76161 -2.9054,-1.62623 -6.311,-2.36622 -9.7266,-2.19212 z m 1.5095,6.1433 c 0.5007,0.002 0.9393,0.10752 1.2904,0.32452 1.1121,0.68731 1.1392,0.88279 1.2505,9.10177 0.055,4.07458 0.1004,7.94412 0.1008,8.59896 v 1.19063 h 1.1048 c 1.3072,0 2.1483,0.38049 2.7316,1.23506 0.7739,1.13383 0.3657,2.76855 -0.8806,3.52847 -0.5405,0.3295 -0.8972,0.35052 -5.9546,0.35088 -4.7741,3.5e-4 -5.4479,-0.0343 -5.9847,-0.30799 -0.9287,-0.47356 -1.3353,-1.14886 -1.3353,-2.21743 0,-1.75814 1.0694,-2.58899 3.3336,-2.58899 h 1.3405 v -5.56659 c 0,-4.40778 -0.046,-5.53816 -0.2206,-5.43119 -0.1213,0.0743 -0.4982,0.32424 -0.8377,0.55552 -1.1272,0.76773 -2.724,0.28039 -3.3951,-1.03559 -0.815,-1.5985 -0.1205,-3.44395 1.9538,-5.18935 1.9379,-1.63062 3.9995,-2.55476 5.5015,-2.54868 z" /><path
         id="path84"
         style="fill:#059de8;stroke-width:2.70933"
         d="m 1398.2402,-209.47507 v 40.12882 40.1283 h 12.6117 12.6121 v -40.1283 -40.12882 h -12.6121 z" /><path
         style="fill:#000101;stroke-width:2.70933"
         d="m 1326.9522,-123.92892 c -0.7096,-0.37544 -1.323,-1.23444 -1.4948,-2.09341 -0.1626,-0.81321 0.3658,-2.04478 1.1264,-2.62534 0.5642,-0.43072 0.8063,-0.48853 2.274,-0.54305 l 1.6425,-0.061 0.047,-17.7621 c 0.053,-19.84274 -0.063,-18.14349 1.3087,-19.1899 l 0.6513,-0.49681 14.8746,-0.0498 14.8746,-0.0498 v -7.05549 c 0,-5.95027 0.043,-7.15722 0.2713,-7.70484 0.3654,-0.87468 0.7415,-1.26805 1.5807,-1.65342 0.6655,-0.30557 1.4953,-0.32421 14.5933,-0.32787 l 13.8877,-0.004 0.047,-14.89199 c 0.047,-14.80225 0.049,-14.89499 0.4164,-15.38993 0.2032,-0.27387 0.6794,-0.67523 1.0583,-0.89192 l 0.689,-0.39397 15.9632,9.7e-4 c 15.1896,9.3e-4 15.9982,0.0169 16.6862,0.32933 0.7646,0.34725 1.3966,1.07666 1.5519,1.79132 0.074,0.34178 0.2526,50.56247 0.2777,78.2502 l 0.01,5.50054 2.9864,0.0557 c 2.7041,0.0505 3.0333,0.0906 3.4836,0.42471 1.7313,1.28444 1.731,3.44702 -6e-4,4.73006 l -0.498,0.369 -53.8298,0.0368 c -52.8974,0.0361 -53.8409,0.0309 -54.474,-0.30404 z m 35.3047,-21.25218 v -15.96319 h -12.9646 -12.9646 v 15.96319 15.9632 h 12.9646 12.9646 z m 30.1625,-8.29028 v -24.25347 h -12.2591 -12.259 v 24.25347 24.25348 h 12.259 12.2591 z m 31.0444,-15.875 v -40.12847 h -12.6118 -12.6118 v 40.12847 40.12848 h 12.6118 12.6118 z m -69.9382,-19.31448 c -7.9034,-0.77493 -15.0542,-5.65796 -18.6148,-12.71146 -0.8134,-1.61151 -1.5072,-3.60693 -1.9653,-5.65312 -0.3484,-1.55616 -0.4092,-2.31018 -0.4034,-5.00705 0.01,-4.45831 0.4496,-6.43033 2.283,-10.23055 2.703,-5.60265 7.7116,-9.92822 13.6734,-11.80886 2.4963,-0.78742 3.8471,-1.01274 6.6146,-1.10335 6.1857,-0.20253 11.9163,1.81401 16.4561,5.79071 3.8061,3.33407 6.452,7.98351 7.4655,13.11872 0.3705,1.87712 0.3236,7.19598 -0.08,9.04314 -1.0371,4.74983 -3.0687,8.48708 -6.454,11.87239 -3.4279,3.42788 -7.2374,5.45692 -12.0079,6.39577 -1.6694,0.32854 -5.1258,0.47422 -6.9674,0.29366 z m 7.0556,-5.9901 c 6.3881,-1.74564 11.0752,-6.46064 12.8195,-12.89569 0.3426,-1.26391 0.4036,-1.92424 0.4064,-4.39764 0,-2.64193 -0.042,-3.0704 -0.4815,-4.6446 -1.2647,-4.52485 -4.3829,-8.55985 -8.3162,-10.76152 -4.6486,-2.60196 -10.578,-2.93474 -15.7794,-0.88558 -2.0875,0.82237 -3.883,2.00247 -5.5988,3.67989 -3.6398,3.55819 -5.5313,7.93589 -5.5373,12.81524 -0.011,8.56323 6.0239,15.72533 14.6159,17.34715 1.9938,0.37636 6.0361,0.24425 7.8714,-0.25725 z m -10.1299,-4.7259 c -0.9287,-0.47356 -1.3354,-1.14895 -1.3354,-2.21752 0,-1.75814 1.0697,-2.5888 3.3339,-2.5888 h 1.3404 v -5.56666 c 0,-4.40778 -0.046,-5.53854 -0.2205,-5.43157 -0.1213,0.0743 -0.4983,0.32432 -0.8378,0.5556 -1.1272,0.76773 -2.7242,0.28079 -3.3953,-1.03519 -0.815,-1.5985 -0.12,-3.44422 1.9543,-5.18962 2.5838,-2.17416 5.3872,-3.09222 6.7916,-2.22421 1.1121,0.68731 1.139,0.88309 1.2503,9.10207 0.055,4.07458 0.1007,7.94411 0.1011,8.59895 l 7e-4,1.19063 h 1.1052 c 1.3072,0 2.148,0.38006 2.7313,1.23463 0.7739,1.13383 0.366,2.7689 -0.8803,3.52882 -0.5405,0.3295 -0.8974,0.35053 -5.9548,0.35089 -4.7741,3.5e-4 -5.4479,-0.0343 -5.9847,-0.30802 z"
         id="path83" /><path
         id="path356"
         style="fill:#ffffff;stroke-width:5.41866;stroke-linecap:round;stroke-linejoin:round;paint-order:markers stroke fill"
         d="m 5050.6876,-609.04884 v 60.33204 60.33398 h 49 49 v -60.33398 -60.33204 h -49 z"
         transform="scale(0.26458333)" /></g></g></svg>
