<?xml version="1.0" encoding="utf-8"?>
<!-- Generator: Adobe Illustrator 24.3.0, SVG Export Plug-In . SVG Version: 6.00 Build 0)  -->
<svg version="1.1" id="Layer_1" xmlns="http://www.w3.org/2000/svg" xmlns:xlink="http://www.w3.org/1999/xlink" x="0px" y="0px"
	 viewBox="0 0 100 100" style="enable-background:new 0 0 100 100;" xml:space="preserve">
<style type="text/css">
	.st0{fill:#B3BBC3;}
	.st1{fill:#059DE8;}
	.st2{fill:#000101;}
	.st3{fill:#FFFFFF;}
</style>
<g>
	<path id="path85" class="st0" d="M38,51.5v21.7V95h11h11V73.2V51.5H49H38z"/>
	<path id="path357" class="st1" d="M26.7,5.1c-1.8,0.1-3.7,0.5-5.4,1.2c-1.9,0.7-3.5,1.8-5,3.3c-3.3,3.2-5,7.1-5,11.5
		c0,7.7,5.4,14.1,13.1,15.5c1.8,0.3,5.4,0.2,7.1-0.2c5.7-1.6,9.9-5.8,11.5-11.6c0.3-1.1,0.4-1.7,0.4-3.9c0-2.4,0-2.8-0.4-4.2
		C41.8,12.6,39,9,35.4,7C32.8,5.6,29.8,4.9,26.7,5.1L26.7,5.1z M28.1,10.6c0.4,0,0.8,0.1,1.2,0.3c1,0.6,1,0.8,1.1,8.2
		c0,3.7,0.1,7.1,0.1,7.7v1.1h1c1.2,0,1.9,0.3,2.4,1.1c0.7,1,0.3,2.5-0.8,3.2c-0.5,0.3-0.8,0.3-5.3,0.3c-4.3,0-4.9,0-5.4-0.3
		c-0.8-0.4-1.2-1-1.2-2c0-1.6,1-2.3,3-2.3h1.2v-5c0-3.9,0-5-0.2-4.9c-0.1,0.1-0.4,0.3-0.8,0.5c-1,0.7-2.4,0.3-3-0.9
		c-0.7-1.4-0.1-3.1,1.8-4.6C24.9,11.4,26.7,10.6,28.1,10.6L28.1,10.6z"/>
	<path id="path84" class="st1" d="M65.2,23.1V59V95h11.3h11.3V59V23.1H76.5H65.2z"/>
	<path id="path83" class="st2" d="M1.3,99.7c-0.6-0.3-1.2-1.1-1.3-1.9c-0.1-0.7,0.3-1.8,1-2.4C1.5,95.1,1.7,95,3,95l1.5-0.1l0-15.9
		c0-17.8-0.1-16.3,1.2-17.2l0.6-0.4l13.3,0l13.3,0V55c0-5.3,0-6.4,0.2-6.9c0.3-0.8,0.7-1.1,1.4-1.5c0.6-0.3,1.3-0.3,13.1-0.3l12.4,0
		l0-13.3c0-13.3,0-13.3,0.4-13.8c0.2-0.2,0.6-0.6,0.9-0.8l0.6-0.4l14.3,0c13.6,0,14.3,0,14.9,0.3c0.7,0.3,1.3,1,1.4,1.6
		C92.8,20.2,93,65.2,93,90l0,4.9l2.7,0c2.4,0,2.7,0.1,3.1,0.4c1.6,1.2,1.6,3.1,0,4.2l-0.4,0.3l-48.2,0C2.8,100,1.9,100,1.3,99.7
		L1.3,99.7z M33,80.7V66.4H21.4H9.7v14.3V95h11.6H33V80.7z M60,73.2V51.5H49H38v21.7V95h11h11V73.2z M87.8,59V23.1H76.5H65.2V59V95
		h11.3h11.3V59z M25.1,41.7C18.1,41,11.7,36.6,8.5,30.3c-0.7-1.4-1.4-3.2-1.8-5.1c-0.3-1.4-0.4-2.1-0.4-4.5c0-4,0.4-5.8,2-9.2
		c2.4-5,6.9-8.9,12.2-10.6c2.2-0.7,3.4-0.9,5.9-1c5.5-0.2,10.7,1.6,14.7,5.2c3.4,3,5.8,7.2,6.7,11.8c0.3,1.7,0.3,6.4-0.1,8.1
		c-0.9,4.3-2.7,7.6-5.8,10.6c-3.1,3.1-6.5,4.9-10.8,5.7C29.9,41.7,26.8,41.9,25.1,41.7L25.1,41.7z M31.5,36.3
		c5.7-1.6,9.9-5.8,11.5-11.6c0.3-1.1,0.4-1.7,0.4-3.9c0-2.4,0-2.8-0.4-4.2C41.8,12.6,39,9,35.4,7C31.3,4.7,26,4.4,21.3,6.3
		c-1.9,0.7-3.5,1.8-5,3.3c-3.3,3.2-5,7.1-5,11.5c0,7.7,5.4,14.1,13.1,15.5C26.2,36.9,29.8,36.8,31.5,36.3z M22.4,32.1
		c-0.8-0.4-1.2-1-1.2-2c0-1.6,1-2.3,3-2.3h1.2v-5c0-3.9,0-5-0.2-4.9c-0.1,0.1-0.4,0.3-0.8,0.5c-1,0.7-2.4,0.3-3-0.9
		c-0.7-1.4-0.1-3.1,1.8-4.6c2.3-1.9,4.8-2.8,6.1-2c1,0.6,1,0.8,1.1,8.2c0,3.7,0.1,7.1,0.1,7.7l0,1.1h1c1.2,0,1.9,0.3,2.4,1.1
		c0.7,1,0.3,2.5-0.8,3.2c-0.5,0.3-0.8,0.3-5.3,0.3C23.5,32.4,22.9,32.3,22.4,32.1L22.4,32.1z"/>
	<path id="path356" class="st3" d="M9.7,66.4v14.3V95h11.6H33V80.7V66.4H21.4H9.7z"/>
</g>
</svg>
