<?xml version="1.0" encoding="UTF-8" standalone="no"?>
<!-- Created with Inkscape (http://www.inkscape.org/) -->

<svg
   width="270.93326mm"
   height="270.93332mm"
   viewBox="0 0 270.93326 270.93332"
   version="1.1"
   id="svg1"
   xml:space="preserve"
   xmlns="http://www.w3.org/2000/svg"
   xmlns:svg="http://www.w3.org/2000/svg"><defs
     id="defs1" /><g
     id="layer1"
     transform="translate(1192.5596,305.95957)"><g
       id="g376"><path
         style="fill:none"
         d="m -1192.5598,-170.4929 v -135.46666 h 135.4666 135.4667 v 135.46666 135.46666 h -135.4667 -135.4666 z"
         id="path36" /><path
         style="fill:#d3d3d4"
         d="m -1025.0072,-111.18184 c -3.175,-0.021 -11.9388,0.42824 -17.0046,0.90227 -4.9333,0.46162 -8.2058,1.0348 -9.7235,1.70325 -1.2189,0.5368 -1.3471,0.79392 -0.7116,1.42937 1.2124,1.21242 8.6461,2.27318 20.3569,2.90473 0.8731,0.0471 7.4812,0.0545 14.6844,0.016 16.8203,-0.0898 24.75995,-0.71402 29.63333,-2.32905 4.33966,-1.43816 1.11198,-2.58627 -11.81219,-4.20233 -0.35563,-0.0445 -0.68534,-0.0792 -1.00974,-0.0594 0.013,0.0997 0.042,0.1557 0.051,0.25218 0.2214,2.33743 -1.6955,3.89729 -4.9061,4.4049 -0.123,0.0648 -0.2242,0.0763 -0.3013,0.0305 -1.7591,0.23786 -3.8584,0.19261 -6.2281,-0.23048 v 0 c -3.6338,-0.64878 -6.5404,-1.82676 -8.8414,-3.48816 -0.047,-0.006 -0.086,-0.0143 -0.1338,-0.0202 -0.1759,-0.1495 -0.2536,-0.23582 -0.2723,-0.28577 -0.2744,-0.21266 -0.5803,-0.39996 -0.8351,-0.62839 l -0.354,-0.31729 c -0.4522,0.0336 -1.0651,0.0202 -1.5973,-0.0429 -0.1984,-0.0235 -0.5381,-0.0363 -0.9917,-0.0393 z"
         id="path142" /><path
         style="fill:#d3d3d4"
         d="m -1012.0395,-166.6875 c -0.028,0.0278 -0.047,0.12029 -0.053,0.2744 -0.01,0.2074 0.024,0.34617 0.077,0.36794 l 0.01,-5.2e-4 c 0.017,0.004 0.035,-4.1e-4 0.054,-0.0202 0.088,-0.0879 0.098,-0.31596 0.021,-0.50695 -0.042,-0.10553 -0.079,-0.14254 -0.1064,-0.11472 z"
         id="path141" /><path
         style="fill:#d3d3d4"
         d="m -1032.7065,-167.03063 c 0.3467,-0.003 0.7234,0.003 1.1255,0.0176 0.5832,0.0213 1.0355,0.0411 1.3969,0.0692 0.7226,0.0562 1.0801,0.14585 1.3859,0.34727 0.1529,0.10071 0.293,0.22937 0.4594,0.39584 0.2652,0.26535 0.4435,0.50726 0.553,0.76946 0.1093,0.26192 0.1499,0.5443 0.14,0.89039 0,2e-4 0,3.2e-4 0,5.2e-4 0,1.8e-4 0,3.3e-4 0,5.1e-4 -0.01,0.2668 -0.08,0.56579 -0.1995,0.87127 0,1.6e-4 10e-5,3.5e-4 0,5.1e-4 -0.1197,0.30565 -0.2869,0.61762 -0.4842,0.91054 -0.1973,0.29292 -0.4249,0.56653 -0.6651,0.7953 -0.2401,0.22878 -0.4931,0.41286 -0.7415,0.52607 0,5.1e-4 0,0.001 0,0.002 -0.192,0.088 -0.3392,0.20005 -0.4403,0.33641 -0.1017,0.13728 -0.1573,0.29918 -0.1669,0.48576 -0.01,0.18658 0.027,0.39785 0.109,0.63407 0.082,0.23622 0.211,0.49722 0.3855,0.78342 0.1739,0.28514 0.3765,0.53356 0.6,0.74517 0.2235,0.21161 0.468,0.38657 0.7255,0.52503 0.7725,0.41538 1.6629,0.50234 2.4588,0.26614 0.2653,-0.0787 0.52,-0.19328 0.7565,-0.34365 0.2366,-0.15038 0.4545,-0.33647 0.6465,-0.55811 0.1921,-0.22164 0.358,-0.479 0.4899,-0.77153 0.129,-0.28609 0.2767,-0.52424 0.4336,-0.73018 0.021,-0.0271 0.039,-0.0597 0.06,-0.0853 0.1643,-0.20037 0.3418,-0.35016 0.5256,-0.46095 0,-0.002 0.01,-0.005 0.01,-0.006 0.4468,-0.2654 0.9361,-0.26864 1.4076,0.0403 1.055,0.69125 0.6002,2.59054 -0.6459,4.03748 -0.014,0.0159 -0.023,0.0333 -0.037,0.0491 -0.1838,0.20893 -0.3907,0.4007 -0.6057,0.58446 -0.043,0.0373 -0.079,0.0813 -0.1235,0.11731 -0.2631,0.21144 -0.5453,0.40078 -0.8449,0.55759 -0.888,0.46482 -1.9421,0.67918 -3.0003,0.6475 -0.5291,-0.0158 -1.0591,-0.0934 -1.57,-0.23151 -0.5108,-0.13814 -1.0021,-0.33711 -1.4541,-0.59634 -0.7535,-0.43216 -1.4489,-0.91336 -1.5452,-1.06919 -0.056,-0.0904 -0.1814,-0.0989 -0.3648,-0.03 -0.1834,0.0689 -0.4246,0.21547 -0.7126,0.43512 -0.3318,0.25305 -0.7712,0.51631 -1.1839,0.74 -0.091,0.0475 -0.1801,0.0967 -0.2713,0.14005 -0.1,0.0489 -0.2238,0.12428 -0.307,0.15813 -0.2577,0.10484 -0.5175,0.17287 -0.7772,0.24546 -0.086,0.0247 -0.1706,0.0605 -0.2573,0.0816 -0.4263,0.10179 -0.8513,0.15886 -1.2728,0.17673 -0.1312,0.006 -0.2631,-0.008 -0.3948,-0.0103 -0.3005,-0.006 -0.5965,-0.0281 -0.8884,-0.0754 -0.096,-0.0147 -0.1917,-0.006 -0.2883,-0.0248 -0.089,-0.0173 -0.1703,-0.0619 -0.2579,-0.0842 -0.2019,-0.0518 -0.3963,-0.12133 -0.5912,-0.19327 -0.1412,-0.0548 -0.2837,-0.0971 -0.4206,-0.1633 -1.0139,-0.46316 -1.9076,-1.19737 -2.5694,-2.19728 -0.2043,-0.3086 -0.3564,-0.61649 -0.4697,-0.91622 -0.042,-0.10345 -0.066,-0.20102 -0.097,-0.30283 -0.04,-0.14341 -0.071,-0.28315 -0.089,-0.41961 -0.029,-0.19011 -0.029,-0.36665 -0.011,-0.54105 0.011,-0.11164 0.03,-0.21814 0.059,-0.31988 0.097,-0.31527 0.2583,-0.60137 0.5685,-0.8046 0.213,-0.13956 0.4166,-0.22087 0.6139,-0.24236 0.1973,-0.0215 0.3881,0.0168 0.5741,0.11575 0.1861,0.099 0.3675,0.25878 0.5468,0.48059 0.1793,0.22182 0.3562,0.50561 0.5333,0.85266 0.2927,0.57376 0.7046,1.02796 1.1937,1.34411 0.01,0.006 0.019,0.0148 0.029,0.0212 0.2188,0.13784 0.4576,0.23742 0.7039,0.31729 0.052,0.0164 0.1013,0.0357 0.154,0.0496 0.2465,0.0659 0.5037,0.10233 0.7689,0.10749 0.028,10e-4 0.055,0.005 0.083,0.005 0.3165,-0.002 0.6342,-0.0729 0.9447,-0.17001 0.097,-0.0334 0.1949,-0.0645 0.2904,-0.10697 0.1272,-0.052 0.2415,-0.12712 0.3627,-0.19224 0.9017,-0.52267 1.6269,-1.39288 1.7188,-2.18643 0,-0.0266 0.01,-0.056 0.01,-0.0817 0,-0.0536 0,-0.10668 0,-0.15916 -0.026,-0.21701 -0.1553,-0.4314 -0.4,-0.70383 -0.2202,0.009 -0.8629,-0.69407 -1.4257,-1.44333 -0.4227,-0.47573 -0.7179,-0.9317 -0.8413,-1.37201 -0.013,-0.0382 -0.039,-0.0884 -0.046,-0.12092 -0.035,-0.17542 -0.038,-0.35585 -0.028,-0.5364 0,-0.0817 0.01,-0.16535 0.022,-0.24753 0.038,-0.23147 0.1152,-0.45687 0.216,-0.67283 0.021,-0.046 0.019,-0.0894 0.043,-0.13591 0.026,-0.05 0.067,-0.0766 0.095,-0.1235 0.1029,-0.16994 0.2228,-0.32785 0.3596,-0.46922 0.058,-0.058 0.1205,-0.12051 0.1866,-0.17105 0.1709,-0.14338 0.3552,-0.2682 0.5586,-0.35244 0.2746,-0.11375 0.7696,-0.18704 1.4097,-0.22427 0.07,-0.005 0.1578,-0.005 0.231,-0.009 0.18,-0.008 0.3473,-0.0184 0.5483,-0.0202 z"
         id="path140" /><path
         style="fill:#d3d3d4"
         d="m -1040.9173,-173.14344 c 0.1422,0.008 0.2827,0.0282 0.4196,0.0589 0,8.4e-4 0.01,0.002 0.011,0.003 0.2758,0.0633 0.5358,0.17218 0.7607,0.32969 0.169,0.11838 0.3184,0.25936 0.448,0.41807 2e-4,1.9e-4 4e-4,3.2e-4 6e-4,5.1e-4 0.1294,0.15856 0.2394,0.33441 0.3291,0.52193 10e-5,1.4e-4 0,3.9e-4 0,5.2e-4 0.09,0.18762 0.1598,0.38688 0.2093,0.59221 10e-5,1.6e-4 0,3.6e-4 0,5.2e-4 0.2478,1.02737 -0.011,2.20619 -0.8046,2.83084 -0.2463,0.19379 -0.5305,0.33613 -0.8309,0.42736 -0.3005,0.0912 -0.6171,0.13141 -0.9292,0.12144 -0.3123,-0.01 -0.6196,-0.0704 -0.9012,-0.18035 -0.2812,-0.10981 -0.5365,-0.26882 -0.7447,-0.47698 -10e-5,-9e-5 10e-5,-4.2e-4 0,-5.1e-4 -0.2376,-0.23764 -0.4146,-0.54177 -0.5307,-0.88005 -0.1161,-0.33828 -0.1714,-0.71034 -0.1669,-1.08314 0,-0.3728 0.069,-0.74658 0.1933,-1.08779 0.062,-0.1706 0.1395,-0.33286 0.2315,-0.48317 0.092,-0.15031 0.1986,-0.28856 0.3204,-0.41031 10e-5,-1e-4 4e-4,1e-4 5e-4,0 8e-4,-7.8e-4 0,-0.001 0,-0.002 0.199,-0.19842 0.4392,-0.35614 0.7017,-0.47181 0,-6.3e-4 0,-0.001 0,-0.002 0.2641,-0.11585 0.5504,-0.18916 0.8402,-0.21756 0.1452,-0.0142 0.2913,-0.0172 0.4357,-0.009 z"
         id="path139" /><path
         style="fill:#d3d3d4"
         d="m -1022.8249,-173.16462 c 0.1188,0.004 0.2381,0.0174 0.3576,0.0403 0.239,0.0457 0.4782,0.1298 0.71,0.25529 0.2319,0.12548 0.4564,0.29258 0.6677,0.50384 0.2859,0.28587 0.4975,0.59494 0.6346,0.91726 0,1.3e-4 -10e-5,3.8e-4 0,5.1e-4 0.1369,0.32218 0.1996,0.65727 0.1886,0.99478 0,1.7e-4 0,3.4e-4 0,5.1e-4 -0.01,0.16867 -0.029,0.33788 -0.072,0.50643 -10e-5,1.7e-4 0,3.5e-4 0,5.2e-4 -0.042,0.16856 -0.1028,0.33648 -0.1819,0.50229 -0.1584,0.33182 -0.3907,0.65568 -0.6956,0.96067 -10e-5,9e-5 1e-4,4.2e-4 0,5.1e-4 -0.2454,0.24539 -0.4755,0.4371 -0.7007,0.57723 -0.2253,0.14013 -0.4456,0.22834 -0.6708,0.26665 -0.2252,0.0383 -0.4553,0.0265 -0.7007,-0.0336 -0.2454,-0.0601 -0.506,-0.16844 -0.7917,-0.32349 -0.2327,-0.12627 -0.4281,-0.26122 -0.5902,-0.41342 -0.162,-0.15219 -0.2909,-0.32146 -0.3906,-0.51573 -0.1996,-0.38852 -0.2827,-0.87752 -0.2827,-1.53117 0,-0.30576 0.04,-0.59088 0.1132,-0.85318 10e-5,-3.1e-4 -10e-5,-7.2e-4 0,-10e-4 0,-1.6e-4 -10e-5,-3.6e-4 0,-5.2e-4 2e-4,-7.7e-4 8e-4,-10e-4 10e-4,-0.002 0.073,-0.26149 0.1797,-0.50041 0.3126,-0.71262 0.1326,-0.21167 0.2917,-0.39673 0.4703,-0.55346 0,-9.4e-4 0,-0.002 0,-0.003 0.18,-0.15744 0.3796,-0.28565 0.5927,-0.38137 0.2112,-0.0948 0.4351,-0.15716 0.6656,-0.18552 0,-5.3e-4 0.01,-0.001 0.013,-0.002 0.1143,-0.0134 0.2303,-0.019 0.3468,-0.015 z"
         id="path138" /><path
         style="fill:#d3d3d4"
         d="m -1045.9806,-180.8117 c 0.014,0.0137 -0.066,0.1209 -0.231,0.33073 -0.3456,0.44072 -0.5627,0.58104 -0.5627,0.36328 0,-0.0549 0.2084,-0.2633 0.463,-0.46302 0.2099,-0.16455 0.317,-0.24465 0.3307,-0.23099 z"
         id="path137" /><path
         id="path35"
         style="fill:#d3d3d4"
         d="m -1030.1356,-186.04911 c -0.9422,-0.0326 -2.0211,-0.0326 -3.1093,0.005 -3.0175,0.10477 -3.9506,0.24254 -5.7222,0.84594 -6.8991,2.34976 -10.9826,7.19351 -12.5501,14.8854 -0.3005,1.47447 -0.5467,3.04182 -0.5467,3.48299 0,0.75725 0.07,0.81131 1.2567,0.9679 2.5396,0.33517 5.2188,0.94618 5.7898,1.32033 0.7466,0.48916 1.0014,1.28601 0.6321,1.97611 -0.3434,0.64155 -0.9686,0.67233 -3.2262,0.16123 0,-3.7e-4 0,-1.5e-4 0,-5.2e-4 -0.9185,-0.20805 -2.3549,-0.45989 -3.1916,-0.55965 l -1.5213,-0.18139 v 1.57407 c 0,0.86563 0.063,1.63644 0.1395,1.71307 0.077,0.0766 0.8208,-0.0118 1.6536,-0.19637 0.8329,-0.18458 2.302,-0.41347 3.2644,-0.50901 1.4281,-0.14178 1.8295,-0.0944 2.1829,0.2589 0.9603,0.96026 0.1809,2.51186 -1.262,2.5125 -0.4504,2e-4 -1.8311,0.17848 -3.068,0.39636 -1.237,0.21788 -2.2671,0.39616 -2.2898,0.39636 -0.023,2e-4 -0.012,4.49512 0.025,9.98854 0.036,5.49361 0.068,7.90029 0.199,9.49451 0.1906,0.008 0.3708,-0.005 0.4961,-0.046 0.3182,-0.10312 0.4842,-0.23352 0.6542,-0.36329 0.34,-0.25953 0.6631,-0.57954 1.1307,-1.05471 v 0.002 c 0.9243,-0.93915 1.411,-1.24904 2.2655,-1.52135 2.8234,-0.89984 5.9214,-0.14171 8.9317,2.13475 3.0104,2.27646 5.8314,6.07163 7.783,10.95696 0.2549,0.63792 0.5133,1.23069 0.7111,1.6738 0.099,0.22155 0.1828,0.40594 0.2444,0.53898 0.062,0.13304 0.06,0.13509 0.1209,0.2558 a 1.2907596,1.2907596 0 0 0 0,0.008 c 0.1842,0.35928 0.5541,0.6132 0.8181,0.7028 0.092,0.0311 0.1619,0.0404 0.2351,0.0532 0.027,-1.02179 0.325,-1.59487 0.9907,-1.89807 0.7791,-0.35502 1.587,0.1533 2.0794,1.09709 a 1.2907596,1.2907596 0 0 0 0.5033,-0.8754 c -0.024,0.47039 -0.293,0.76455 -0.4356,0.8847 -0.027,0.0231 -0.028,0.0153 -0.051,0.0315 0.017,0.0346 0.03,0.0748 0.047,0.11059 0.163,-0.024 0.3115,-0.049 0.617,-0.0734 0.8623,-0.0689 2.2414,-0.11937 4.1486,-0.11937 2.7302,0 4.4602,0.0101 5.533,-0.10439 -0.1134,-0.80661 0.01,-1.29896 0.4258,-1.71462 1.0866,-1.08653 2.0054,-0.41041 3.1182,2.2934 1.0511,2.55371 2.8556,5.20485 4.8136,7.07243 l 1.6175,1.54255 2.3027,-0.18139 c 4.95257,-0.39057 10.1042,-1.8125 14.14331,-3.90364 l 1.65003,-0.85421 c 0.0557,-0.2188 0.10349,-0.4229 0.1788,-0.67127 0.47441,-1.56453 0.50226,-2.84913 0.1447,-5.37539 -0.0413,-0.29197 -0.23751,-0.73934 -0.6072,-0.99218 -0.13638,-0.0933 -0.27115,-0.14642 -0.40153,-0.18501 -0.29729,0.82201 -0.5707,1.14884 -1.05523,1.3994 -1.69357,0.87578 -2.42173,0.36822 -4.19923,-2.92902 -1.71179,-3.17537 -5.08101,-7.38573 -7.52515,-9.40356 -1.0326,-0.85255 -3.2889,-2.35825 -5.0141,-3.34605 -3.7728,-2.16033 -4.8901,-3.21591 -6.1919,-5.8508 -0.9837,-1.99082 -0.9901,-2.02696 -0.9922,-5.30821 v -3.30367 l -1.3208,-0.33745 c -0.7265,-0.18561 -2.1224,-0.41683 -3.1022,-0.51366 -0.9799,-0.0968 -1.9504,-0.3095 -2.1564,-0.47284 -0.654,-0.51846 -0.7413,-1.36902 -0.2083,-2.02727 0.4923,-0.60798 0.5179,-0.61013 2.9828,-0.28629 1.3673,0.17965 2.8731,0.39279 3.346,0.47388 l 0.8599,0.14728 v -1.6304 -1.6309 l -1.6536,0.18086 c -0.9095,0.0994 -2.4785,0.38739 -3.4866,0.63976 l -1.833,0.45888 -0.6144,-0.61443 c -0.7628,-0.76282 -0.7653,-0.97219 -0.019,-1.7942 0.6328,-0.69737 2.7851,-1.29038 5.9589,-1.64125 l 1.6588,-0.18345 -0.1535,-0.95705 c -1.0518,-6.56122 -2.4814,-10.12681 -5.3211,-13.26999 -2.3136,-2.56094 -6.7546,-4.90655 -10.5358,-5.56503 -0.5413,-0.0943 -1.3465,-0.15958 -2.2888,-0.19224 z m 6.9572,12.89947 c 0.6982,-0.0839 1.455,0.15066 2.0888,0.78445 1.1435,1.14349 1.0942,2.66267 -0.1261,3.88297 -0.9815,0.98156 -1.7211,1.10752 -2.8639,0.48731 -0.9307,-0.50507 -1.2635,-1.15302 -1.2635,-2.46032 0,-1.53067 1.0011,-2.55453 2.1647,-2.69441 z m -18.1746,0.015 c 0.5808,-0.0569 1.1744,0.0655 1.6268,0.3824 1.352,0.94698 1.4532,3.365 0.1824,4.3646 -0.9853,0.77506 -2.5726,0.72391 -3.406,-0.10904 -0.9505,-0.95055 -0.9263,-2.97044 0.048,-3.94446 0.4004,-0.40043 0.9685,-0.63659 1.5492,-0.6935 z m 9.772,6.12159 c 2.3327,0.0852 2.5767,0.14645 3.2422,0.81235 0.5304,0.5307 0.7127,0.96717 0.693,1.66037 -0.03,1.06776 -1.0965,2.65086 -2.0903,3.10368 -0.7754,0.35328 -0.8138,1.09693 -0.1158,2.24173 1.3909,2.28117 4.622,2.20323 5.6772,-0.13695 0.5716,-1.26756 1.3954,-1.7247 2.2996,-1.2764 1.6061,0.79636 0.2983,4.11373 -2.1208,5.38003 -1.776,0.92965 -4.2164,0.85657 -6.0244,-0.18035 -0.7535,-0.43216 -1.4489,-0.91336 -1.5452,-1.06919 -0.1118,-0.18086 -0.5014,-0.0342 -1.0774,0.40515 -1.7363,1.32435 -3.675,1.8161 -5.641,1.43143 -3.2184,-0.62973 -5.8445,-4.65367 -3.8778,-5.94227 0.8519,-0.55825 1.5599,-0.18157 2.2681,1.20664 0.5942,1.16465 1.6721,1.84847 2.913,1.84847 1.4716,0 3.03,-1.13892 3.3114,-2.42001 0.1485,-0.67598 0.011,-0.90789 -1.1679,-1.96784 -1.5441,-1.38828 -1.9112,-2.48135 -1.2578,-3.74499 0.6,-1.16014 1.5972,-1.45844 4.5139,-1.35185 z m 21.5812,22.23172 c -0.046,0.36054 -0.029,0.7026 0.033,0.83199 0,0.006 -0.025,0.0944 -0.078,-0.28681 -0.01,-0.0476 -0.013,-0.1071 -0.012,-0.19172 0,-0.0846 0.055,-0.35039 0.055,-0.34933 0,1e-5 0,-0.004 0,-0.004 z" /><path
         id="path34"
         style="fill:#05a8f1"
         d="m -1092.3152,-224.44366 c -1.3456,0.029 -2.6103,0.10432 -3.6866,0.22944 -14.4897,1.68442 -27.9923,10.2041 -35.4501,22.36814 -3.8126,6.21853 -6.2685,13.34238 -7.1603,20.76979 -0.6311,5.25645 0.3591,14.24513 2.1715,19.71146 1.8709,5.64231 6.0329,12.82025 9.8061,16.91163 7.0268,7.61944 16.1185,12.89527 25.7798,14.95981 4.262,0.91077 5.7852,1.03852 11.3502,0.95137 4.1387,-0.0648 5.9227,-0.20943 8.1877,-0.66353 6.0592,-1.2148 12.124,-3.66657 16.9524,-6.85281 2.5166,-1.66069 7.9796,-6.19566 8.6972,-7.22023 0.3606,-0.51478 0.4263,-1.49985 0.4263,-6.37119 0,-3.54288 -0.099,-5.76192 -0.2563,-5.76192 -0.141,0 -0.7534,0.25913 -1.3607,0.57567 -1.0025,0.52252 -1.1678,0.5401 -1.7942,0.19017 -0.8455,-0.47234 -1.0541,-1.65806 -0.416,-2.36316 0.2452,-0.27087 1.0873,-0.75854 1.8717,-1.08366 l 1.4263,-0.59117 v -2.19729 -2.19676 l -1.9776,0.16743 c -2.244,0.18968 -2.7849,-0.0525 -2.7849,-1.24592 0,-1.14848 0.5801,-1.50894 2.7585,-1.71307 l 1.9735,-0.185 0.1711,-1.49139 c 0.533,-4.6432 1.9555,-9.18687 3.8897,-12.42249 1.1655,-1.94977 3.9353,-4.77155 5.9717,-6.08387 0.9174,-0.59116 1.8003,-1.11877 1.9616,-1.17254 0.7051,-0.23501 -1.5345,-6.72345 -3.8664,-11.20241 -6.724,-12.91506 -18.1903,-21.59651 -33.2326,-25.16074 -2.6063,-0.61757 -7.3729,-0.94291 -11.4096,-0.85576 z m 1.3554,21.67154 c 0.3914,0 0.8956,0.20836 1.1204,0.46302 0.2248,0.25466 1.3613,2.78474 2.5254,5.6224 1.1641,2.83765 2.6387,6.35 3.2773,7.80521 l 1.1607,2.64583 8.5648,0.72295 c 9.2103,0.77729 9.8098,0.91312 9.8098,2.22829 0,0.82068 0,0.81904 -7.5179,7.36906 -3.1411,2.7361 -5.7113,5.10104 -5.7113,5.25498 0,0.15394 0.8393,3.84386 1.8655,8.20001 1.0276,4.36256 1.83,8.34627 1.786,8.86871 -0.063,0.74727 -0.2254,0.99953 -0.7664,1.18856 -0.7799,0.27251 -0.2022,0.58289 -9.9813,-5.36195 l -6.1697,-3.75067 -7.508,4.5284 c -4.1294,2.4906 -7.7346,4.58768 -8.0119,4.66018 -0.69,0.18045 -1.3767,-0.57797 -1.3767,-1.52032 0,-0.42859 0.5284,-3.00947 1.1741,-5.73556 1.3959,-5.8932 2.5301,-10.90424 2.5301,-11.17813 0,-0.16624 -4.4242,-4.0861 -11.5606,-10.24279 -0.9014,-0.77759 -1.7119,-1.64349 -1.8009,-1.92391 -0.2012,-0.63375 0.2435,-1.50711 0.8594,-1.68827 0.2548,-0.075 4.214,-0.44635 8.7979,-0.82527 4.584,-0.37892 8.4642,-0.73142 8.6232,-0.78342 0.2789,-0.0911 1.2711,-2.34394 5.0142,-11.38793 0.9636,-2.32834 1.9389,-4.4417 2.1678,-4.69636 0.2289,-0.25466 0.7366,-0.46302 1.1281,-0.46302 z m 39.9283,2.02003 c 0.06,0.0257 0.3155,0.0301 0.385,0.0687 -0.014,-0.004 -0.083,0.0138 -0.096,0.0114 -0.3131,-0.0592 -0.2957,-0.0831 -0.2889,-0.0801 z m -0.5803,74.40115 -0.8258,1.54305 c -1.5638,2.9222 -2.8204,4.29516 -6.3815,6.97167 -2.2141,1.66423 -3.0918,2.67435 -2.681,3.08508 0.6582,0.65825 6.7369,0.60888 9.3757,-0.076 2.1991,-0.57076 4.0698,-1.49208 5.3154,-2.61741 1.0237,-0.92482 1.4132,-1.71928 0.8424,-1.71928 -0.4116,0 -3.9805,-4.25553 -4.8442,-5.77639 z" /><path
         style="fill:#040405"
         d="m -1011.9817,-106.35998 c -4.3003,-0.7678 -7.6384,-2.23199 -10.0827,-4.42265 l -1.2944,-1.16005 -3.4396,-0.15014 c -5.3527,-0.23363 -9.5994,-1.2807 -13.715,-3.38151 l -2.0733,-1.05835 -1.5657,1.44955 c -1.7785,1.64657 -3.9245,2.76045 -6.9912,3.62867 -1.7407,0.49284 -2.7892,0.60032 -5.9496,0.60991 -2.3738,0.007 -4.2605,-0.11643 -4.9489,-0.32428 -1.463,-0.44178 -2.6154,-1.44024 -2.9971,-2.59686 -0.6932,-2.1004 0.4367,-4.0888 3.7264,-6.55757 4.1266,-3.09684 6.0622,-5.71547 7.008,-9.48059 0.3832,-1.52561 0.3865,-1.85674 0.032,-3.26782 -0.217,-0.86361 -0.4745,-2.07621 -0.5724,-2.69467 -0.098,-0.61847 -0.2311,-1.12448 -0.2962,-1.12448 -0.065,0 -1.0368,0.75845 -2.1595,1.68545 -4.0967,3.3825 -9.1776,6.25258 -14.7413,8.32689 -10.2344,3.8157 -21.133,4.31718 -32.3323,1.48769 -9.5757,-2.41929 -20.151,-9.0899 -26.7692,-16.88525 -8.0252,-9.45264 -12.462,-21.44391 -12.4667,-33.69342 0,-8.54757 1.6523,-16.01653 5.1496,-23.23073 5.4478,-11.23786 13.7402,-19.44965 25.1436,-24.8992 7.5574,-3.6116 14.4175,-5.15674 22.8864,-5.15481 11.1489,0.003 20.7377,2.96792 30.0008,9.27789 9.7955,6.67256 17.5461,17.23047 20.7802,28.30671 0.4052,1.38796 0.8669,2.49583 1.0259,2.46192 3.7447,-0.7986 9.5688,-0.71435 13.2806,0.19209 4.6434,1.13394 9.284,4.07407 11.8257,7.4923 2.523,3.39315 4.5862,8.96811 4.9971,13.50279 0.1747,1.92747 0.1971,1.97667 0.9715,2.13155 0.436,0.0872 1.3136,0.15855 1.9503,0.15855 1.8496,0 2.8563,1.43841 1.7682,2.52653 -0.3749,0.37492 -0.7619,0.41919 -2.3813,0.27245 l -1.9335,-0.17522 v 1.26781 c 0,0.69729 -0.07,1.68452 -0.1511,2.19384 l -0.1483,0.92604 1.8593,0.83336 c 1.4962,0.67065 1.895,0.97568 2.0422,1.5623 0.1931,0.76939 -0.053,1.36487 -0.7449,1.80122 -0.3056,0.19273 -0.7956,0.0765 -1.8249,-0.43287 -0.7739,-0.383 -1.4709,-0.63212 -1.5489,-0.5536 -0.078,0.0785 -0.1271,1.13081 -0.109,2.33842 0.055,3.64824 1.1563,5.43469 4.3327,7.02558 4.4243,2.21584 10.19445,7.35476 12.97987,11.55988 0.79197,1.19562 1.51511,2.17789 1.60697,2.18281 0.0919,0.005 0.30562,-0.54143 0.475,-1.21411 0.16938,-0.67268 0.61491,-1.83353 0.99005,-2.57968 1.72102,-3.42303 3.73222,-5.1931 5.90056,-5.1931 0.95518,0 1.27491,0.14714 2.00744,0.92386 1.64046,1.73938 2.58846,5.80353 2.02174,8.66729 l -0.2487,1.25677 h 1.63004 c 1.99197,0 4.41116,0.60285 5.88538,1.46662 3.93759,2.3071 2.37464,7.33282 -3.10963,9.99913 -2.5535,1.24144 -5.7072,1.86226 -8.6701,1.70675 -2.26564,-0.11892 -2.27868,-0.11589 -4.92481,1.14408 -1.45924,0.69483 -3.59796,1.57008 -4.75272,1.94502 -2.17447,0.70602 -6.80678,1.73006 -7.82599,1.73006 -0.4563,0 -0.5377,0.10006 -0.3765,0.46302 0.1131,0.25467 0.2507,0.93927 0.3059,1.52136 0.3464,3.65731 -4.5066,5.44184 -11.4351,4.2048 z m 7.6955,-3.60989 c 0.3713,-0.37158 -0.4856,-1.38377 -3.412,-4.03034 -3.3819,-3.05857 -5.3279,-5.78073 -6.3863,-8.93367 -0.8137,-2.42404 -0.843,-3.20591 -0.1462,-3.90278 1.0866,-1.08653 2.0057,-0.41064 3.1185,2.29317 1.0511,2.55371 2.8555,5.20514 4.8135,7.07272 l 1.6173,1.5426 2.303,-0.18162 c 4.95258,-0.39057 10.10424,-1.81242 14.14335,-3.90356 l 2.05082,-1.06175 3.9023,-0.0523 c 3.35595,-0.045 4.11651,-0.13657 5.43222,-0.65403 1.78016,-0.70013 3.49949,-1.96136 4.11981,-3.02212 0.41357,-0.70721 0.40883,-0.7649 -0.0935,-1.13613 -1.63572,-1.20892 -5.56537,-1.46626 -7.57885,-0.49633 -1.1713,0.56424 -2.24729,0.36356 -2.63703,-0.49183 -0.21385,-0.46935 -0.12244,-1.13549 0.40587,-2.95783 0.99466,-3.43092 0.85659,-7.79888 -0.24652,-7.79888 -1.04332,0 -2.7497,3.20091 -3.61148,6.77457 -0.80603,3.3425 -0.99896,3.78617 -1.83424,4.21811 -1.69357,0.87578 -2.42162,0.36788 -4.19912,-2.92936 -1.71179,-3.17537 -5.08112,-7.38567 -7.52523,-9.4035 -1.0326,-0.85255 -3.289,-2.3583 -5.0142,-3.3461 -3.7728,-2.16033 -4.8899,-3.21585 -6.1917,-5.85074 -0.9837,-1.99082 -0.9904,-2.02685 -0.9925,-5.3081 v -3.30368 l -1.3208,-0.33747 c -0.7265,-0.18561 -2.1225,-0.41669 -3.1023,-0.51352 -0.9799,-0.0968 -1.9501,-0.30969 -2.1561,-0.47303 -0.654,-0.51846 -0.7413,-1.36881 -0.2083,-2.02706 0.4923,-0.60798 0.5178,-0.61043 2.9827,-0.28659 1.3673,0.17965 2.8731,0.39299 3.346,0.47408 l 0.8599,0.14745 v -1.63067 -1.63067 l -1.6537,0.1808 c -0.9095,0.0994 -2.4784,0.38728 -3.4865,0.63965 l -1.8329,0.45885 -0.6145,-0.61448 c -0.7628,-0.76282 -0.7651,-0.97226 -0.019,-1.79427 0.6328,-0.69737 2.7848,-1.28999 5.9586,-1.64086 l 1.6591,-0.18341 -0.1535,-0.9574 c -1.0518,-6.56122 -2.4814,-10.12647 -5.3211,-13.26965 -2.3136,-2.56094 -6.7546,-4.9067 -10.5358,-5.56518 -1.0825,-0.1885 -3.222,-0.26265 -5.3984,-0.18709 -3.0175,0.10477 -3.9503,0.24269 -5.7219,0.84609 -6.8991,2.34976 -10.983,7.1934 -12.5505,14.88529 -0.3005,1.47447 -0.5464,3.04181 -0.5464,3.48298 0,0.75725 0.07,0.8114 1.2568,0.96799 2.5396,0.33517 5.2184,0.94604 5.7894,1.32019 0.7466,0.48916 1.0014,1.28585 0.6321,1.97595 -0.3436,0.64201 -0.9685,0.67313 -3.2301,0.16088 -0.9185,-0.20805 -2.3547,-0.45989 -3.1914,-0.55965 l -1.5214,-0.18137 v 1.57389 c 0,0.86563 0.063,1.63659 0.1394,1.71322 0.077,0.0766 0.8208,-0.0117 1.6536,-0.19625 0.8329,-0.18458 2.3018,-0.41377 3.2642,-0.50931 1.4281,-0.14178 1.8294,-0.0941 2.1828,0.25925 0.9603,0.96026 0.1812,2.51156 -1.2617,2.5122 -0.4504,2e-4 -1.8309,0.17863 -3.0678,0.39651 -1.237,0.21788 -2.2675,0.39631 -2.2902,0.39651 -0.023,2e-4 -0.012,4.49497 0.025,9.98839 0.065,9.8739 0.074,10.01976 0.7779,12.76614 1.3755,5.36605 4.2229,9.9513 8.0957,13.03688 4.3679,3.48001 8.2133,4.87489 15.449,5.60397 1.4149,0.14257 1.5343,0.11498 1.3522,-0.31255 -0.7647,-1.79592 -1.7643,-5.17894 -1.9804,-6.70287 -0.2973,-2.0961 -0.059,-3.02176 0.8903,-3.45415 1.2342,-0.56236 2.5447,1.03675 2.5501,3.11179 0,1.01056 1.0836,4.15365 1.9888,5.78256 2.1126,3.80195 5.2887,6.07201 9.9877,7.13861 1.7208,0.39058 7.9158,0.44356 8.2882,0.0709 z m -33.9979,-44.6712 c -3.2184,-0.62973 -5.8445,-4.65406 -3.8778,-5.94266 0.8519,-0.55825 1.5602,-0.18149 2.2684,1.20672 0.5942,1.16465 1.672,1.84869 2.9129,1.84869 1.4716,0 3.0302,-1.13909 3.3116,-2.42018 0.1485,-0.67598 0.011,-0.90772 -1.168,-1.96767 -1.5441,-1.38828 -1.9111,-2.48118 -1.2577,-3.74482 0.6,-1.16014 1.5969,-1.45881 4.5136,-1.35222 2.3327,0.0852 2.5768,0.1464 3.2423,0.8123 0.5304,0.5307 0.7127,0.96755 0.693,1.66075 -0.03,1.06776 -1.0964,2.65084 -2.0902,3.10366 -0.7754,0.35328 -0.8138,1.09689 -0.1158,2.24169 1.3909,2.28117 4.6221,2.20323 5.6773,-0.13695 0.5716,-1.26756 1.3951,-1.72473 2.2993,-1.27643 1.6061,0.79636 0.2986,4.11359 -2.1205,5.37989 -1.776,0.92965 -4.2168,0.85659 -6.0248,-0.18033 -0.7535,-0.43216 -1.4488,-0.91326 -1.5451,-1.06909 -0.1118,-0.18086 -0.5015,-0.0344 -1.0775,0.4049 -1.7363,1.32435 -3.675,1.81642 -5.641,1.43175 z m 14.2044,-13.35385 c -0.9307,-0.50507 -1.2635,-1.15299 -1.2635,-2.46029 0,-2.44908 2.5636,-3.60025 4.2537,-1.91013 1.1435,1.14349 1.0941,2.66297 -0.1262,3.88327 -0.9815,0.98156 -1.7212,1.10736 -2.864,0.48715 z m -18.8703,-0.50158 c -0.9505,-0.95055 -0.9259,-2.97068 0.048,-3.9447 0.8009,-0.80086 2.2711,-0.94493 3.1759,-0.3112 1.352,0.94698 1.4529,3.3651 0.1821,4.3647 -0.9854,0.77516 -2.5728,0.72445 -3.4061,-0.1088 z m -9.1743,53.66937 c 2.1991,-0.57076 4.0699,-1.49189 5.3155,-2.61722 1.0237,-0.92482 1.4128,-1.71939 0.842,-1.71939 -0.4116,0 -3.9802,-4.25551 -4.8439,-5.77637 l -0.8012,-1.41074 -0.8257,1.54303 c -1.5638,2.9222 -2.8203,4.295 -6.3814,6.97151 -2.2141,1.66423 -3.092,2.6742 -2.6812,3.08493 0.6582,0.65825 6.7371,0.60914 9.3759,-0.0757 z m -29.1927,-14.37838 c 6.0592,-1.2148 12.1242,-3.6664 16.9526,-6.85264 2.5166,-1.66069 7.9792,-6.19611 8.6968,-7.22068 0.3606,-0.51478 0.4265,-1.49952 0.4265,-6.37086 0,-3.54288 -0.099,-5.76196 -0.2564,-5.76196 -0.141,0 -0.7533,0.25898 -1.3606,0.57552 -1.0025,0.52252 -1.1677,0.54003 -1.7941,0.1901 -0.8455,-0.47234 -1.0543,-1.65814 -0.4162,-2.36324 0.2452,-0.27087 1.0875,-0.7585 1.8719,-1.08362 l 1.4263,-0.59114 v -2.1969 -2.19689 l -1.9774,0.16715 c -2.244,0.18968 -2.7851,-0.0523 -2.7851,-1.24573 0,-1.14848 0.5803,-1.50886 2.7587,-1.71299 l 1.9731,-0.18489 0.1712,-1.49171 c 0.533,-4.6432 1.9557,-9.18656 3.8899,-12.42218 1.1655,-1.94977 3.9354,-4.77174 5.9718,-6.08406 0.9174,-0.59116 1.7999,-1.11883 1.9612,-1.1726 0.7051,-0.23501 -1.5341,-6.72333 -3.866,-11.20229 -6.724,-12.91506 -18.1906,-21.59651 -33.2329,-25.16074 -3.4751,-0.82342 -10.7908,-1.12707 -15.0961,-0.62658 -14.4897,1.68442 -27.9924,10.20437 -35.4502,22.36841 -3.8126,6.21853 -6.2685,13.34238 -7.1603,20.76979 -0.6311,5.25645 0.3593,14.24513 2.1717,19.71146 1.8709,5.64231 6.033,12.82046 9.8062,16.91184 7.0268,7.61944 16.1182,12.89508 25.7795,14.95962 4.262,0.91077 5.7853,1.03844 11.3503,0.95129 4.1387,-0.0648 5.9226,-0.20938 8.1876,-0.66348 z"
         id="path33" /><path
         id="path182"
         style="fill:#ffffff;fill-opacity:1;stroke:none;stroke-width:2;stroke-linecap:round;stroke-linejoin:round;stroke-dasharray:none;stroke-opacity:1;paint-order:markers stroke fill"
         d="m -1090.9598,-202.77212 c -0.3915,0 -0.8992,0.20836 -1.1281,0.46302 -0.2289,0.25466 -1.2042,2.36802 -2.1678,4.69636 -3.7431,9.04399 -4.7353,11.29683 -5.0142,11.38793 -0.159,0.052 -4.0392,0.4045 -8.6232,0.78342 -4.5839,0.37892 -8.5431,0.75027 -8.7979,0.82527 -0.6159,0.18116 -1.0606,1.05452 -0.8594,1.68827 0.089,0.28042 0.8995,1.14632 1.8009,1.92391 7.1364,6.15669 11.5606,10.07655 11.5606,10.24279 0,0.27389 -1.1342,5.28493 -2.5301,11.17813 -0.6457,2.72609 -1.1741,5.30697 -1.1741,5.73556 0,0.94235 0.6867,1.70077 1.3767,1.52032 0.2773,-0.0725 3.8825,-2.16958 8.0119,-4.66018 l 7.508,-4.5284 6.1697,3.75067 c 9.7791,5.94484 9.2014,5.63446 9.9813,5.36195 0.541,-0.18903 0.7034,-0.44129 0.7664,-1.18856 0.044,-0.52244 -0.7584,-4.50615 -1.786,-8.86871 -1.0262,-4.35615 -1.8655,-8.04607 -1.8655,-8.20001 0,-0.15394 2.5702,-2.51888 5.7113,-5.25498 7.5179,-6.55002 7.5179,-6.54838 7.5179,-7.36906 0,-1.31517 -0.5995,-1.451 -9.8098,-2.22829 l -8.5648,-0.72295 -1.1607,-2.64583 c -0.6386,-1.45521 -2.1132,-4.96756 -3.2773,-7.80521 -1.1641,-2.83766 -2.3006,-5.36774 -2.5254,-5.6224 -0.2248,-0.25466 -0.729,-0.46302 -1.1204,-0.46302 z" /><path
         id="path191"
         style="fill:#ffffff;fill-opacity:1;stroke:none;stroke-width:1.99999;stroke-linecap:round;stroke-linejoin:round;stroke-dasharray:none;stroke-opacity:1;paint-order:markers stroke fill"
         transform="scale(0.26458333)"
         d="m -3872.959,-473.35352 c -0.1204,0.0337 -0.2506,0.0955 -0.3731,0.14258 a 4.8784615,4.8784615 0 0 1 -0.7558,0.85742 c 0.025,0.0476 0.04,0.1061 0.064,0.1543 0.087,-0.0612 0.089,-0.0318 0.1914,-0.11915 0.2372,-0.19985 0.5705,-0.57981 0.8731,-1.03515 z m 38.0371,0.44922 c -4.0547,0.43272 -10.5933,0.39453 -20.9121,0.39453 -7.2083,0 -12.4206,0.19076 -15.6797,0.45117 -1.1547,0.0922 -1.716,0.18664 -2.3321,0.27734 0.9298,1.9921 1.5303,4.39634 1.5372,7.04297 0,3.81944 4.0963,15.69896 7.5175,21.85547 7.9847,14.36958 19.9881,22.94923 37.7481,26.98047 6.5038,1.47621 29.9187,1.67606 31.3262,0.26758 h -0.01 c 1.4033,-1.4044 -1.8361,-5.22964 -12.8965,-15.23242 -12.782,-11.55995 -20.1365,-21.849 -24.1367,-33.76563 -1.2414,-3.69805 -1.8723,-6.20883 -2.1621,-8.27148 z m -113.8164,-59.50391 c -2.7761,0.0752 -5.508,0.53452 -8.1758,1.38477 -3.2296,1.0292 -5.0691,2.20045 -8.5625,5.75 v -0.008 c -1.7673,1.79592 -2.9884,3.00543 -4.2735,3.98633 -0.6425,0.49047 -1.27,0.9833 -2.4726,1.37305 -0.4736,0.15496 -1.1546,0.20406 -1.875,0.17383 -0.067,-0.81229 -0.083,-2.4027 -0.1367,-3.34766 l -0.1153,0.0508 c 0.3553,7.00439 1.0058,10.12929 2.4239,15.66211 5.1987,20.28114 15.9603,37.6114 30.5976,49.27344 16.5086,13.15279 31.0431,18.42411 58.3907,21.17969 5.3476,0.53884 5.7995,0.43617 5.1113,-1.17969 -2.8902,-6.78773 -6.6696,-19.57425 -7.4863,-25.33399 -0.336,-2.36798 -0.4224,-4.23694 -0.379,-5.88281 -0.2766,-0.0484 -0.5409,-0.0836 -0.8886,-0.20117 -0.9978,-0.33865 -2.3956,-1.29834 -3.0918,-2.65625 a 4.8784615,4.8784615 0 0 1 0,-0.0293 c -0.2302,-0.45622 -0.2227,-0.46397 -0.4571,-0.96679 -0.2328,-0.50283 -0.5496,-1.19976 -0.9238,-2.03711 -0.7476,-1.67475 -1.7241,-3.91514 -2.6875,-6.32617 -7.3761,-18.46424 -18.0381,-32.80817 -29.416,-41.41211 -8.5331,-6.45296 -17.2537,-9.67872 -25.582,-9.45313 z m 233.916,12.02539 c -3.9433,0 -10.3913,12.09872 -13.6485,25.60547 -1.2789,5.30362 -2.132,8.40138 -2.9453,10.65039 0.4928,0.14585 1.0022,0.34659 1.5176,0.69922 1.3973,0.95562 2.1388,2.64649 2.2949,3.75 1.3514,9.54807 1.2462,14.40322 -0.5468,20.31641 -0.2847,0.93872 -0.4653,1.71014 -0.6758,2.53711 l -3.0645,1.58789 4.5801,-2.3711 14.7481,-0.19726 c 12.6839,-0.17008 15.5584,-0.51495 20.5312,-2.47071 6.7282,-2.64616 13.2278,-7.41465 15.5723,-11.42382 1.5631,-2.67292 1.545,-2.8899 -0.3535,-4.29297 -6.1823,-4.56915 -21.0346,-5.54283 -28.6446,-1.87696 -4.4269,2.13256 -8.4937,1.37555 -9.9668,-1.85742 -0.8082,-1.77392 -0.4635,-4.2921 1.5332,-11.17969 3.7594,-12.96725 3.2376,-29.47656 -0.9316,-29.47656 z" /></g><g
       id="g198"><path
         style="fill:none"
         d="m -921.62646,-170.4929 v -135.46666 h 135.46665 135.46666 v 135.46666 135.466655 h -135.46666 -135.46665 z"
         id="path55" /><path
         style="fill:#dadbdc"
         d="m -846.09983,-207.2701 c 0,-5.74807 0.0349,-8.09955 0.0777,-5.22552 0.0427,2.87404 0.0427,7.57701 0,10.45105 -0.0427,2.87403 -0.0777,0.52255 -0.0777,-5.22553 z"
         id="path166" /><path
         style="fill:#dadbdc"
         d="m -824.98746,-196.88296 c 0.98227,-0.0509 2.58961,-0.0509 3.57188,0 0.98226,0.0509 0.17859,0.0926 -1.78594,0.0926 -1.96453,0 -2.7682,-0.0417 -1.78594,-0.0926 z"
         id="path165" /><path
         style="fill:#dadbdc"
         d="m -846.16869,-196.0253 c 0.005,-0.43657 0.0647,-0.58313 0.13177,-0.3257 0.0671,0.25743 0.0627,0.61462 -0.01,0.79375 -0.0725,0.17913 -0.12736,-0.0315 -0.12197,-0.46805 z"
         id="path164" /><path
         style="fill:#dadbdc"
         d="m -822.0734,-190.79121 c 0.40218,-0.0608 0.99749,-0.0592 1.32291,0.004 0.32542,0.0628 -0.004,0.11256 -0.73124,0.11057 -0.7276,-0.002 -0.99386,-0.0534 -0.59167,-0.11419 z"
         id="path163" /><path
         style="fill:#dadbdc"
         d="m -824.32291,-190.78821 c 0.32911,-0.0633 0.80536,-0.0609 1.05833,0.005 0.25296,0.0662 -0.0163,0.11801 -0.5984,0.11507 -0.58208,-0.003 -0.78905,-0.0571 -0.45993,-0.12041 z"
         id="path162" /><path
         id="path158"
         style="fill:#dadbdc"
         d="m -718.45744,-179.94974 c -0.18396,0.12319 -0.54151,0.6898 -0.61495,0.82579 l -0.84594,1.57458 c -1.22765,2.28578 -4.27011,4.6334 -6.77116,5.85804 -2.97035,1.45443 -4.5887,1.84478 -8.37107,2.01331 -0.90431,0.0403 -1.72485,0.10113 -2.33577,0.17002 -0.30546,0.0344 -0.55529,0.0701 -0.7581,0.11162 -0.1014,0.0208 -0.18672,0.0396 -0.29455,0.0801 -0.0539,0.0202 -0.11368,0.0412 -0.20929,0.10904 -0.0517,0.0367 -0.13703,0.1066 -0.20619,0.216 0.40354,0.11172 0.80884,0.20612 1.20819,0.35554 2.08343,0.77951 4.37623,2.34268 5.76658,3.93206 l 1.20612,1.37924 1.47072,-0.55035 c 0.56641,-0.21193 1.11918,-0.45909 1.65829,-0.73432 -0.002,-0.004 8e-5,-0.009 -0.002,-0.0124 0.002,0.005 0.002,0.007 0.004,0.0119 3.64399,-1.86082 6.61002,-5.1104 8.14473,-9.00772 0.67356,-1.71047 0.98333,-4.10467 0.95084,-6.33243 z m -90.40482,0.0331 c -0.0586,1.74516 0.0427,3.59934 0.34882,4.80436 1.3976,5.49809 5.71505,9.98065 11.10837,11.53315 1.4415,0.41494 3.51601,0.45882 22.55573,0.47594 11.53253,0.0104 20.96822,-0.0833 20.96822,-0.20774 h 5.2e-4 c 0,-0.12447 0.70844,-0.99987 1.57458,-1.9451 1.66587,-1.81801 3.75267,-3.0504 6.01255,-3.7114 -0.0648,-0.15387 -0.15062,-0.21316 -0.21652,-0.27906 -0.19344,-0.19345 -0.27121,-0.17394 -0.3359,-0.19327 -0.0647,-0.0193 -0.11257,-0.0285 -0.16381,-0.0372 -0.10246,-0.0175 -0.21139,-0.0289 -0.34778,-0.0408 -0.2728,-0.0239 -0.64552,-0.045 -1.13843,-0.0646 -0.98584,-0.0392 -2.44429,-0.0724 -4.41421,-0.10129 -3.93983,-0.0577 -9.92828,-0.0976 -18.24436,-0.12144 -7.52834,-0.0216 -13.6512,-0.0634 -18.02526,-0.12299 -2.18702,-0.0298 -3.93675,-0.064 -5.2033,-0.10128 -1.26655,-0.0373 -2.1211,-0.0932 -2.24792,-0.11369 -3.62987,-0.5864 -6.8366,-3.06515 -9.56634,-5.54075 -0.78555,-0.71243 -1.28502,-1.69068 -1.85519,-2.58486 -0.29401,-0.4611 -0.55104,-1.41062 -0.80977,-1.64796 z m 88.68865,7.43211 c 0.001,0.001 0.007,0.003 0.008,0.004 -0.002,-0.002 -0.006,-5e-5 -0.008,-0.002 z" /><path
         style="fill:#dadbdc"
         d="m -763.86871,-163.27885 c 0.69122,-0.0545 1.82232,-0.0545 2.51354,0 0.69122,0.0545 0.12568,0.0991 -1.25677,0.0991 -1.38245,0 -1.94799,-0.0446 -1.25677,-0.0991 z"
         id="path156" /><path
         style="fill:#dadbdc"
         d="m -774.18746,-163.28085 c 0.98227,-0.0509 2.58961,-0.0509 3.57187,0 0.98227,0.0509 0.1786,0.0926 -1.78593,0.0926 -1.96453,0 -2.76821,-0.0417 -1.78594,-0.0926 z"
         id="path155" /><path
         style="fill:#dadbdc"
         d="m -794.56038,-163.26705 c 0.25467,-0.0666 0.67138,-0.0666 0.92605,0 0.25466,0.0666 0.0463,0.121 -0.46302,0.121 -0.50933,0 -0.71769,-0.0544 -0.46303,-0.121 z"
         id="path154" /><path
         style="fill:#dadbdc"
         d="m -845.75791,-179.17449 c -0.0444,-2.13744 -0.0807,-0.31438 -0.0805,4.05125 1.2e-4,4.36562 0.0365,6.11444 0.0808,3.88625 0.0443,-2.22819 0.0442,-5.80006 -2.2e-4,-7.9375 z"
         id="path153" /><path
         style="fill:#dadbdc"
         d="m -845.76851,-163.67693 c -0.0633,-0.32912 -0.11747,-0.12215 -0.1204,0.45994 -0.003,0.58208 0.0488,0.85136 0.11506,0.59839 0.0662,-0.25296 0.0686,-0.72921 0.005,-1.05833 z"
         id="path152" /><path
         style="fill:#dadbdc"
         d="m -818.8192,-123.19877 0.7771,-0.85989 -0.85989,0.7771 c -0.80154,0.72438 -0.98151,0.94269 -0.77711,0.94269 0.0455,0 0.43249,-0.38695 0.8599,-0.8599 z"
         id="path151" /><path
         style="fill:#dadbdc"
         d="m -825.61647,-182.06855 c -0.32911,-0.41965 -0.31975,-0.42901 0.0999,-0.0999 0.44073,0.34564 0.58088,0.56292 0.36312,0.56292 -0.0549,0 -0.2633,-0.20836 -0.46302,-0.46302 z"
         id="path150" /><path
         style="fill:#dadbdc"
         d="m -847.52225,-136.78071 c 0.0127,-0.30822 0.0754,-0.37092 0.15986,-0.15985 0.0764,0.19099 0.067,0.4192 -0.0209,0.50712 -0.0879,0.0879 -0.15046,-0.0684 -0.13897,-0.34727 z"
         id="path149" /><path
         style="fill:#dadbdc"
         d="m -822.8046,-126.5722 c 0.26339,-0.29104 0.53843,-0.52917 0.61119,-0.52917 0.0728,0 -0.0832,0.23813 -0.3466,0.52917 -0.26339,0.29104 -0.53842,0.52916 -0.61118,0.52916 -0.0728,0 0.0832,-0.23812 0.34659,-0.52916 z"
         id="path148" /><path
         style="fill:#dadbdc"
         d="m -830.80357,-122.2895 c -0.19137,-0.12156 0.0819,-0.21046 0.66146,-0.2152 1.73038,-0.0142 2.46393,-0.19104 2.32236,-0.55995 -0.10076,-0.26257 -0.0126,-0.28074 0.36956,-0.0762 0.27602,0.14773 0.54124,0.17038 0.58936,0.0503 0.0481,-0.12004 0.74233,-0.63669 1.54269,-1.14811 2.08112,-1.32978 4.2907,-3.38996 4.11813,-3.83967 -0.0788,-0.20541 -0.0308,-0.30396 0.10661,-0.21901 0.34783,0.21497 1.15676,-1.09048 0.91656,-1.47914 -0.13296,-0.21514 -0.0833,-0.24746 0.15445,-0.10052 0.25657,0.15857 0.30377,0.095 0.17621,-0.23745 -0.0958,-0.24971 -0.0681,-0.38844 0.0616,-0.3083 0.29717,0.18367 0.86969,-1.4056 0.64015,-1.77701 -0.10591,-0.17136 -0.0391,-0.19418 0.17714,-0.0605 0.25859,0.15981 0.30908,0.069 0.19794,-0.356 -0.0821,-0.31379 -0.0274,-0.57054 0.12146,-0.57054 0.14886,0 0.21445,-0.29405 0.14574,-0.65345 -0.0687,-0.3594 -0.0394,-0.60059 0.0651,-0.53599 0.28077,0.17352 0.52582,-2.71595 0.34328,-4.04772 -0.11062,-0.80703 -0.2306,-1.04673 -0.40113,-0.8014 -0.16119,0.23189 -0.18273,0.13632 -0.0638,-0.28316 0.21586,-0.76158 -0.37828,-2.72457 -0.75432,-2.49217 -0.1463,0.0904 -0.18585,0.0347 -0.0879,-0.1238 0.2485,-0.40206 -0.91662,-2.71554 -1.26721,-2.51621 -0.1564,0.0889 -0.19924,0.0674 -0.0952,-0.0478 0.27965,-0.30978 -0.29912,-1.24327 -0.64016,-1.03249 -0.17087,0.1056 -0.21768,0.06 -0.11274,-0.10978 0.18367,-0.29718 -1.54347,-2.21989 -1.89024,-2.1043 -0.1055,0.0352 -0.23172,-0.0551 -0.28047,-0.20064 -0.0488,-0.14552 -0.21711,-0.41938 -0.37413,-0.60858 -0.19657,-0.23684 -0.29456,-5.30529 -0.3146,-16.27187 -0.0213,-11.63416 -0.11265,-16.0764 -0.33902,-16.47881 -0.67962,-1.20812 -0.91717,-1.25783 -5.70927,-1.19468 -2.50328,0.033 -4.75978,-0.02 -5.01444,-0.1177 -0.42237,-0.16208 -0.46302,-0.71102 -0.46302,-6.25219 0,-5.8452 -0.17579,-7.34767 -0.81358,-6.9535 -0.14182,0.0876 -0.22515,0.002 -0.18516,-0.19103 0.0402,-0.19379 -0.13296,-0.33418 -0.38747,-0.31412 -0.2531,0.0199 -0.40437,-0.054 -0.33617,-0.16438 0.0682,-0.11036 -0.34979,-0.18823 -0.92889,-0.17304 -0.57909,0.0152 -1.0529,0.12595 -1.0529,0.24614 0,0.12019 -0.10952,0.15084 -0.24339,0.0681 -0.13387,-0.0827 -0.49233,0.16604 -0.79657,0.55282 -0.55291,0.7029 -0.55315,0.7148 -0.48421,24.05437 0.0379,12.84312 -0.006,23.3049 -0.0972,23.24842 -0.25978,-0.1606 -2.6077,2.00364 -2.54006,2.34134 0.0332,0.16573 -0.0587,0.30856 -0.20423,0.3174 -0.52671,0.032 -0.95903,0.46643 -0.82131,0.82531 0.0774,0.20182 -0.004,0.3386 -0.1804,0.30397 -0.17666,-0.0346 -0.30488,0.1441 -0.28493,0.3972 0.0199,0.2531 -0.0658,0.39712 -0.19043,0.32006 -0.29673,-0.18339 -1.08441,1.70628 -0.86154,2.06688 0.0943,0.15255 0.0466,0.20025 -0.10583,0.10601 -0.32881,-0.20321 -0.69626,1.0399 -0.43319,1.46555 0.11684,0.18905 0.0591,0.21777 -0.16256,0.0808 -0.25873,-0.15991 -0.31105,-0.041 -0.21139,0.48028 0.0728,0.38103 0.0468,0.63985 -0.0579,0.57516 -0.29871,-0.18461 -0.53416,2.49334 -0.354,4.02628 0.0896,0.76238 0.24873,1.33312 0.35361,1.2683 0.10488,-0.0648 0.13109,0.19389 0.0583,0.57492 -0.0997,0.52132 -0.0473,0.64018 0.21139,0.48028 0.22162,-0.13697 0.2794,-0.10825 0.16256,0.0808 -0.26307,0.42565 0.10438,1.66876 0.43319,1.46555 0.16925,-0.1046 0.19763,-0.0425 0.0729,0.15935 -0.23885,0.38646 0.362,1.64995 0.68863,1.44808 0.12193,-0.0754 0.14328,0.0673 0.0475,0.31702 -0.10964,0.28571 -0.0705,0.38994 0.10545,0.28117 0.15904,-0.0983 0.26402,0.0256 0.2434,0.28733 -0.0223,0.28217 0.11724,0.42606 0.3606,0.37198 0.21828,-0.0485 0.31176,-0.003 0.20774,0.10093 -0.28592,0.28593 0.30458,1.21953 0.64016,1.01213 0.16071,-0.0993 0.2192,-0.0625 0.12998,0.0819 -0.32179,0.52067 3.53417,3.70948 4.07865,3.37297 0.21493,-0.13284 0.24721,-0.0831 0.10032,0.15457 -0.15857,0.25657 -0.095,0.30377 0.23744,0.17621 0.24972,-0.0958 0.38739,-0.0664 0.30594,0.0654 -0.18319,0.29641 2.3868,1.17958 2.76049,0.94863 0.14879,-0.092 0.27053,-0.0262 0.27053,0.14608 0,0.2081 0.27088,0.25909 0.8069,0.15189 0.50044,-0.10009 0.74573,-0.0624 0.64584,0.0992 -0.10086,0.16321 0.66056,0.25909 2.03737,0.25655 1.20914,-0.002 2.0517,-0.0973 1.87237,-0.21116 z"
         id="path147" /><path
         id="path146"
         style="fill:#dadbdc"
         d="m -832.72643,-226.48831 v 0.001 c -1.20733,0 -2.78532,0.17155 -3.79719,0.43511 -3.92234,1.02164 -7.72729,3.02015 -9.31416,6.2046 l -0.25114,0.50333 -0.0698,33.60156 -0.0687,32.84968 c -0.0246,0.004 -0.0402,0.003 -0.0579,0.008 -0.0805,0.0236 -0.15058,0.056 -0.20878,0.0899 -0.11647,0.0678 -0.18581,0.13874 -0.23461,0.19534 -0.0975,0.11317 -0.12166,0.17912 -0.14056,0.22272 -0.0137,0.0311 -0.006,0.0203 -0.0114,0.0351 0.1449,-0.2192 0.3662,-0.45654 0.65319,-0.54105 l -0.003,1.23507 -1.3839,1.53376 c -4.95815,5.49379 -6.45509,12.90392 -4.13359,19.67011 0.22388,0.038 0.44024,0.0651 0.5581,-0.008 -0.0721,0.0445 -0.25781,0.13872 -0.524,0.10594 0.2414,0.69186 0.50935,1.37882 0.83148,2.05414 1.57047,3.29236 4.04897,6.07203 7.06313,8.05067 0.0195,-0.0523 0.0339,-0.10386 0.0667,-0.15762 -0.0218,0.0355 -0.0311,0.11306 -0.0475,0.17157 1.85667,1.21568 3.91458,2.12977 6.09369,2.66495 2.5098,0.6164 6.76295,0.65571 9.29297,0.0858 1.03511,-0.23318 2.04004,-0.56253 3.01377,-0.96274 0.0148,-0.18118 0.0123,-0.34554 -0.0424,-0.43408 0.0589,0.23188 0.10562,0.31575 0.12816,0.39688 1.477,-0.61548 2.87069,-1.41255 4.15582,-2.36265 -0.009,-0.0366 -0.0106,-0.0879 -0.0258,-0.11265 0.0214,0.0508 0.0186,0.0656 0.0341,0.10697 3.93316,-2.91078 6.83454,-7.23864 7.84551,-12.13311 1.27673,-6.18104 -0.49063,-12.52057 -4.79712,-17.20619 l -1.3963,-1.51928 v -17.19999 -17.2005 h -3.31607 c -1.75439,0 -2.92152,-0.0841 -3.75119,-0.2775 0.0614,0.33196 0.071,0.70477 0,0.25218 -0.005,-0.0397 -0.0336,-0.15396 -0.0558,-0.26045 -0.91126,-0.22119 -1.386,-0.58515 -1.60972,-1.17357 -0.40605,-1.068 -0.3244,-1.43 0.51057,-2.26498 l 0.77308,-0.7736 h 3.72483 3.72432 v -3.175 -3.175 h -3.68969 c -3.50013,0 -3.72662,-0.0324 -4.41834,-0.62735 -0.55525,-0.4776 -0.72915,-0.86417 -0.72915,-1.6216 0,-0.75743 0.1739,-1.144 0.72915,-1.62161 0.69172,-0.595 0.91821,-0.62735 4.41834,-0.62735 h 3.59254 c 0.0348,-0.0308 0.0673,-0.0642 0.0972,-0.0997 v -3.07526 -3.175 h -3.68969 c -3.44922,0 -3.73318,-0.0388 -4.36563,-0.59531 -0.37208,-0.32743 -0.75011,-0.97725 -0.83974,-1.44436 -0.13626,-0.71013 -0.0308,-0.9811 0.64182,-1.65365 l 0.80409,-0.8046 h 3.72483 3.72432 v -2.9869 c 0,-1.77387 -0.13983,-3.27231 -0.45113,-4.60023 l -0.51987,-0.75551 c -3.00097,-4.36804 -7.16148,-5.84855 -12.25816,-5.84855 z m 6.30452,18.78729 c 0.0719,0.14594 -0.1636,0.56929 -0.0997,0.44132 0.0211,-0.0666 0.0876,-0.36074 0.0997,-0.44132 z m -12.39562,11.1001 c 0.51332,-0.0284 1.05363,0.16212 1.54512,0.57568 l 0.84181,0.70848 v 6.32675 6.32622 h 4.77542 c 4.9643,0 6.05399,0.20355 6.43733,1.20251 0.0904,0.23557 0.16433,7.62392 0.16433,16.41864 v 15.99076 l 2.07223,2.04742 c 3.07299,3.03605 4.40518,6.20756 4.36459,10.39316 -0.0634,6.53596 -4.79379,12.35384 -11.14609,13.70872 -1.89653,0.40451 -5.16559,0.34838 -6.90294,-0.11885 -6.74158,-1.81304 -11.32054,-8.71899 -10.36009,-15.62437 0.1463,-1.05184 0.46522,-2.42652 0.709,-3.05511 0.72641,-1.87308 2.67599,-4.61713 4.21318,-5.93039 l 1.43971,-1.2299 v -23.22184 c 0,-21.72724 0.0298,-23.25816 0.46302,-23.77994 0.38363,-0.46207 0.87006,-0.70949 1.38338,-0.73794 z m 2.38693,18.41955 v 15.83211 c 0,12.2703 -0.0744,15.92469 -0.33073,16.24293 -0.1819,0.22584 -0.87802,0.77749 -1.54667,1.22577 -1.61434,1.08228 -2.81337,2.4857 -3.65198,4.27364 -0.58156,1.2399 -0.68833,1.83611 -0.68833,3.84834 0,2.06441 0.10141,2.60038 0.76068,4.02766 2.2908,4.95942 8.15115,7.14264 13.03641,4.85655 7.06943,-3.30819 7.9553,-12.82237 1.5875,-17.04908 -0.77115,-0.51186 -1.53837,-1.09449 -1.7048,-1.29502 -0.21769,-0.26231 -0.32339,-4.77663 -0.37672,-16.08997 l -0.0739,-15.72514 -3.50573,-0.0739 z m 21.39353,49.06625 c 0.0634,0.0392 0.22907,0.0442 0.33021,0.0816 -0.005,-1.7e-4 -0.0127,0.0123 -0.0176,0.0119 -0.23998,-0.0195 -0.29089,-0.0801 -0.31264,-0.0935 z m -22.00589,10.93939 c -2e-5,0.003 -2e-5,0.007 0,0.01 -0.0502,0.0833 -0.0514,0.22246 -0.076,0.34571 0.0232,-0.13128 0.0328,-0.28569 0.076,-0.35553 z" /><path
         id="path167"
         style="fill:#25abe9"
         d="m -836.4306,-178.18137 v 15.83211 c 0,12.2703 -0.0744,15.92469 -0.33073,16.24293 -0.1819,0.22584 -0.87802,0.77749 -1.54667,1.22577 -1.61434,1.08228 -2.81337,2.4857 -3.65198,4.27364 -0.58156,1.2399 -0.68833,1.83611 -0.68833,3.84834 0,2.06441 0.10141,2.60038 0.76068,4.02766 2.2908,4.95942 8.15115,7.14264 13.03641,4.85655 7.06943,-3.30819 7.9553,-12.82237 1.5875,-17.04908 -0.77115,-0.51186 -1.53837,-1.09449 -1.7048,-1.29502 -0.21769,-0.26231 -0.32339,-4.77663 -0.37672,-16.08997 l -0.0739,-15.72514 -3.50573,-0.0739 z" /><path
         style="fill:#dadbdc"
         d="m -831.99887,-117.22244 c 0.18191,-0.0734 0.47956,-0.0734 0.66146,0 0.1819,0.0734 0.0331,0.13345 -0.33073,0.13345 -0.3638,0 -0.51263,-0.06 -0.33073,-0.13345 z"
         id="path145" /><path
         style="fill:#dadbdc"
         d="m -834.24279,-117.23044 c 0.25743,-0.0671 0.61462,-0.0627 0.79375,0.01 0.17913,0.0725 -0.0315,0.12736 -0.46805,0.12197 -0.43657,-0.005 -0.58313,-0.0647 -0.3257,-0.13178 z"
         id="path53" /><path
         id="path52"
         style="fill:#fad46e"
         d="m -747.68821,-218.41458 c -1.52184,0.0264 -3.05185,0.27471 -4.57337,0.74466 -0.48037,0.14837 -0.91675,0.29315 -1.23816,0.40825 -0.16071,0.0575 -0.29271,0.108 -0.39274,0.15037 -0.05,0.0212 -0.0893,0.0389 -0.13281,0.0625 -0.0217,0.0118 -0.045,0.0233 -0.0801,0.0506 -0.0175,0.0137 -0.0379,0.0302 -0.0682,0.0682 -0.0152,0.019 -0.0508,0.0813 -0.0512,0.0822 -3.8e-4,8.3e-4 -0.0351,0.15742 -0.0351,0.15813 0,3.6e-4 0.008,0.0761 0.008,0.0765 8e-5,4.1e-4 0.0108,0.0381 0.016,0.0527 0.0104,0.0291 0.0202,0.0488 0.0289,0.0641 0.0175,0.0306 0.0303,0.0475 0.0413,0.061 0.0221,0.0271 0.0381,0.0403 0.0548,0.0563 0.0333,0.032 0.0677,0.0639 0.11111,0.0997 0.0868,0.0718 0.20444,0.1616 0.34778,0.26976 0.28668,0.21631 0.67766,0.499 1.10743,0.80046 0.74071,0.51959 1.15221,0.81568 1.6092,0.95653 -0.0397,-0.0361 -0.0789,-0.0738 -0.11937,-0.108 0.0487,-0.03 0.14328,-0.066 0.28319,-0.0925 0.53465,-0.10123 0.84108,-0.13584 1.41955,-0.20774 0.53314,-0.0663 1.08579,-0.12252 1.65571,-0.13746 0.18997,-0.005 0.38199,-0.005 0.57568,0 l 5.1e-4,5.2e-4 c 3.35717,0.0929 7.18727,1.41762 10.08621,3.58169 2.09904,1.56694 5.04342,5.75125 5.1449,7.31118 0.0264,0.40626 0.0471,0.4111 0.14676,0.0357 0.0439,-0.16526 0.0262,-0.46481 -0.0367,-0.84801 0.004,0.006 0.0218,0.0115 0.0248,0.0165 0.036,0.0525 0.0563,0.0977 0.0765,0.14727 l 5.2e-4,5.2e-4 c 0.003,0.0154 0.006,0.0306 0.008,0.046 0.0237,0.13432 0.0511,0.26727 0.0703,0.40308 4.7e-4,0.003 5.6e-4,0.007 10e-4,0.0103 -0.007,0.12956 -0.0477,0.2658 -0.15761,0.39843 0,0.003 10e-4,0.006 0.002,0.008 10e-4,0.0156 -0.004,0.0214 -0.004,0.0367 0.029,0.002 0.0526,-0.0152 0.0801,-0.006 0.0676,0.0217 0.0984,0.0603 0.13384,0.0956 0.006,0.0597 0.0133,0.11926 0.0201,0.1788 0.008,-0.0113 0.0156,-0.0228 0.0212,-0.032 0.0323,-0.0536 0.0425,-0.085 0.0548,-0.11937 0.0245,-0.0687 0.0445,-0.14103 0.0703,-0.23823 0.0813,-0.30614 0.0385,-0.623 -0.0331,-1.0449 -0.0716,-0.4219 -0.19312,-0.92425 -0.34778,-1.46296 -0.30931,-1.07742 -0.75425,-2.29836 -1.22835,-3.27318 -1.27853,-2.62888 -4.51763,-5.82464 -7.23418,-7.15047 -1.93492,-0.94436 -3.93,-1.50172 -5.94951,-1.66398 -0.50487,-0.0406 -1.01097,-0.0564 -1.51825,-0.0476 z" /><path
         id="path172"
         style="fill:#54c5f5"
         d="m -742.50352,-165.32221 c -2.89743,0.0123 -4.26317,0.49092 -6.07869,2.13114 -1.53819,1.38965 -2.24931,2.72602 -2.48822,4.54752 0.0209,-0.0346 0.0399,-0.0709 0.061,-0.10542 -0.17301,0.77334 -0.19272,1.31028 0.10749,0.86093 1.30019,-1.94608 1.95941,-2.67347 3.05149,-3.3662 1.54324,-0.9789 3.30948,-1.49702 5.12269,-1.54874 1.8132,-0.0517 3.67354,0.3625 5.40535,1.24798 1.47956,0.75651 3.98566,3.51938 4.377,4.82555 0.41291,1.37808 0.58976,1.34316 0.36018,-0.0713 -0.0466,-0.2873 -0.11754,-0.57684 -0.19947,-0.86662 0.0727,0.12866 0.13675,0.25613 0.20102,0.38344 -0.78781,-3.19125 -2.86652,-5.92152 -5.89318,-7.34012 -1.31615,-0.61688 -1.83997,-0.70746 -4.02663,-0.69815 z" /><path
         id="path51"
         style="fill:#54c5f5"
         d="m -799.88399,-138.2851 a 3.0937502,4.08283 0 0 0 -2.61896,3.88503 l 0.1359,-0.0289 c 0.26486,-0.39297 25.98475,-0.67334 34.11937,-0.37207 l 5.34438,0.19792 1.94716,0.96169 c 2.79873,1.38321 5.65907,4.43282 5.76244,6.1433 0.0182,0.30093 0.0906,0.38308 0.16795,0.19069 0.15081,-0.37521 -0.058,-1.30753 -0.43046,-2.31459 0.0457,0.076 0.10446,0.15474 0.14366,0.22944 0.0675,0.12874 0.11181,0.25253 0.17311,0.38034 0.18603,0.63633 0.30786,1.28685 0.37259,1.94252 0.0231,-0.0382 0.0372,-0.0743 0.0522,-0.11162 0.11247,-0.27982 0.0911,-0.58032 0.0367,-0.94155 -0.0544,-0.36122 -0.16119,-0.77661 -0.30644,-1.21698 -0.29052,-0.88075 -0.73428,-1.85922 -1.24437,-2.64842 -1.74121,-2.69401 -4.31511,-4.52129 -7.54062,-5.36143 -1.38265,-0.36011 -4.38098,-0.40411 -18.57458,-0.40411 -8.4175,0 -12.66585,-0.003 -14.88074,-0.0723 -1.10745,-0.0347 -1.70724,-0.0889 -2.04071,-0.15813 -0.33348,-0.0692 -0.38024,-0.11951 -0.55087,-0.25373 -0.0231,-0.0182 -0.0449,-0.0298 -0.0677,-0.047 z" /><path
         id="path50"
         style="fill:#fbc127"
         d="m -747.69648,-214.79826 c -0.56992,0.0149 -1.12257,0.0712 -1.65571,0.13746 -0.57847,0.0719 -0.8849,0.10651 -1.41955,0.20774 -0.13991,0.0265 -0.23445,0.0625 -0.28319,0.0925 0.1694,0.14319 0.33017,0.30723 0.49713,0.45682 0.51721,0.46344 1.01978,0.9541 1.50895,1.47278 0.0646,0.0684 0.1282,0.13849 0.19223,0.20774 0.40421,0.43781 0.79593,0.88821 1.17564,1.35754 0.15208,0.18762 0.30241,0.37742 0.4501,0.56947 0.27663,0.36036 0.54359,0.7255 0.80357,1.09968 0.18596,0.26718 0.36901,0.53647 0.54571,0.80977 6.7e-4,0.001 0.001,0.002 0.002,0.003 0.19543,0.30275 0.38202,0.60765 0.56534,0.91674 0.19518,0.32872 0.38536,0.6595 0.56586,0.99425 0.14748,0.27366 0.28721,0.54752 0.42426,0.82424 0.18139,0.36609 0.35519,0.73405 0.51728,1.10433 0.019,0.0181 0.0212,0.037 0.0326,0.0548 l -0.0124,-0.0114 c 0.0167,0.0383 0.0373,0.0759 0.0537,0.11421 0.0238,0.031 0.0495,0.071 0.0729,0.0992 0.002,0.0141 -5.4e-4,0.0296 -0.004,0.047 0.002,0.004 0.003,0.008 0.005,0.0119 0.0252,0.0598 0.0467,0.11948 0.0713,0.17932 0.24855,0.60227 0.47533,1.20682 0.66663,1.81126 0.25239,0.79748 0.51163,1.61435 0.57567,1.81487 3e-4,9.3e-4 7.3e-4,0.002 10e-4,0.003 0.0213,0.0652 0.0551,0.11784 0.10542,0.15761 0.0508,0.0402 0.11825,0.0673 0.20515,0.0827 5.9e-4,1.1e-4 9.6e-4,4.1e-4 0.002,5.2e-4 0.17511,0.0306 0.42943,0.0124 0.79014,-0.0501 0.002,-2.8e-4 0.008,-0.001 0.009,-0.002 0.54516,-0.0942 1.9256,-0.29425 3.08353,-0.447 0.004,-5.6e-4 0.007,-9.9e-4 0.0114,-0.002 0.001,-1.4e-4 0.002,-3.8e-4 0.003,-5.2e-4 0.48409,-0.0637 0.94835,-0.10797 1.40922,-0.13229 8.4e-4,-4e-5 0.002,5e-5 0.003,0 0.46238,-0.0243 0.92133,-0.0284 1.3932,-0.0119 1.7e-4,0 3.4e-4,-1e-5 5.1e-4,0 0.47205,0.0165 0.95678,0.0536 1.47123,0.11213 0.5143,0.0586 1.05841,0.13859 1.64796,0.2403 1.8e-4,3e-5 3.5e-4,-3e-5 5.2e-4,0 l 0.632,0.10904 c 0.11125,-0.0505 0.23828,-0.0792 0.2527,-0.20774 l -0.14108,-2.23036 c -0.0162,-0.25604 -0.0503,-0.50675 -0.0775,-0.75964 -0.0355,-0.0353 -0.0662,-0.0739 -0.13384,-0.0956 -0.0275,-0.009 -0.0511,0.008 -0.0801,0.006 -8.2e-4,-0.0153 0.005,-0.0211 0.004,-0.0367 -1.4e-4,-0.002 -0.002,-0.005 -0.002,-0.008 0.10993,-0.13263 0.15071,-0.26887 0.15761,-0.39843 -4.7e-4,-0.003 -5.6e-4,-0.007 -10e-4,-0.0103 -0.0192,-0.13581 -0.0466,-0.26876 -0.0703,-0.40308 -0.003,-0.0154 -0.006,-0.0306 -0.008,-0.046 -9e-5,-2.1e-4 -4.3e-4,-3.1e-4 -5.2e-4,-5.2e-4 -0.0202,-0.0495 -0.0404,-0.0948 -0.0765,-0.14727 -0.003,-0.005 -0.021,-0.0108 -0.0248,-0.0165 0.0629,0.3832 0.0806,0.68275 0.0367,0.84801 -0.0997,0.37544 -0.12034,0.3706 -0.14676,-0.0357 -0.10148,-1.55993 -3.04586,-5.74424 -5.1449,-7.31118 -2.89894,-2.16407 -6.72904,-3.4888 -10.08621,-3.58169 l -5.1e-4,-5.2e-4 c -0.19369,-0.005 -0.38571,-0.005 -0.57568,0 z m 4.21008,1.34927 c 0.003,5e-5 0.007,5e-5 0.01,0 0.0404,0.01 0.0822,0.012 0.1235,0.008 0.008,-0.007 -0.007,0.0136 -0.0512,0.015 h -0.002 c -0.0242,6e-4 -0.0558,-0.007 -0.0801,-0.0217 z" /><path
         style="fill:#010101"
         d="m -835.24001,-112.73048 c -4.2203,-0.54249 -7.83935,-1.85102 -11.14802,-4.03074 -9.90807,-6.52735 -13.57003,-19.39006 -8.56858,-30.09733 1.07335,-2.29787 2.28954,-4.24145 3.41753,-5.46151 l 0.68865,-0.74487 0.14348,-33.25409 c 0.15804,-36.62677 0.03,-33.96531 1.81701,-37.78395 2.11315,-4.51571 6.51864,-8.18753 11.42213,-9.51994 2.09871,-0.57029 6.66732,-0.64117 8.71009,-0.13514 5.01092,1.24128 9.55549,4.87501 11.78429,9.42244 1.80544,3.68362 1.70946,1.55629 1.70946,37.89024 v 32.88427 l 0.88092,0.99295 c 2.32028,2.61536 4.07968,6.0692 5.08948,9.99104 0.61469,2.38732 0.66924,3.00265 0.56278,6.34775 -0.13401,4.21045 -0.54126,6.07272 -2.03199,9.29185 -3.52079,7.60291 -10.15676,12.66438 -18.34509,13.99243 -2.29621,0.37241 -4.34626,0.44416 -6.13214,0.2146 z m 6.82694,-4.74559 c 7.45989,-1.68047 13.54367,-7.92222 15.10922,-15.50154 1.27673,-6.18104 -0.49082,-12.52061 -4.79731,-17.20623 l -1.39614,-1.51905 v -17.20022 -17.20021 h -3.31579 c -3.74745,0 -4.98943,-0.33465 -5.41715,-1.45963 -0.40605,-1.068 -0.32447,-1.42991 0.5105,-2.26489 l 0.7734,-0.7734 h 3.72452 3.72452 v -3.175 -3.175 h -3.68942 c -3.50013,0 -3.72682,-0.0322 -4.41854,-0.62717 -0.55525,-0.4776 -0.72913,-0.86435 -0.72913,-1.62178 0,-0.75743 0.17388,-1.14418 0.72913,-1.62179 0.69172,-0.595 0.91841,-0.62717 4.41854,-0.62717 h 3.68942 v -3.175 -3.175 h -3.68942 c -3.44922,0 -3.73345,-0.0388 -4.3659,-0.59531 -0.37208,-0.32743 -0.74983,-0.9775 -0.83946,-1.44461 -0.13626,-0.71013 -0.0312,-0.9811 0.64139,-1.65365 l 0.80435,-0.80435 h 3.72452 3.72452 v -2.98712 c 0,-4.68184 -0.96148,-7.45612 -3.53262,-10.19314 -2.78664,-2.9664 -5.89138,-4.34058 -9.82884,-4.35031 -5.56009,-0.0137 -10.36221,3.24607 -12.62584,8.57077 l -0.60333,1.41918 -0.071,34.09502 -0.071,34.09502 -1.38418,1.53372 c -5.48962,6.08268 -6.7527,14.51729 -3.26795,21.82274 2.54054,5.32602 7.44873,9.32285 13.17597,10.72944 2.5098,0.6164 6.76304,0.65562 9.29306,0.0857 z m -8.25243,-5.54544 c -6.74158,-1.81304 -11.32078,-8.71884 -10.36033,-15.62422 0.1463,-1.05184 0.46545,-2.42674 0.70923,-3.05533 0.72641,-1.87308 2.67578,-4.61709 4.21297,-5.93035 l 1.43966,-1.22994 v -23.22188 c 0,-21.72724 0.0298,-23.25778 0.46302,-23.77956 0.76727,-0.92414 1.94543,-0.98944 2.92841,-0.16233 l 0.8419,0.70842 v 6.32648 6.32648 h 4.77564 c 4.9643,0 6.05375,0.20352 6.43709,1.20248 0.0904,0.23557 0.16436,7.62399 0.16436,16.41871 v 15.99041 l 2.0724,2.04748 c 3.07299,3.03605 4.40485,6.20784 4.36426,10.39344 -0.0634,6.53596 -4.79374,12.35397 -11.14604,13.70885 -1.89653,0.40451 -5.16522,0.34809 -6.90257,-0.11914 z m 7.81432,-4.85281 c 7.06943,-3.30819 7.95535,-12.82219 1.58755,-17.0489 -0.77115,-0.51186 -1.53826,-1.09473 -1.70469,-1.29526 -0.21769,-0.26231 -0.32339,-4.77648 -0.37672,-16.08982 l -0.0741,-15.72523 -3.50573,-0.0738 -3.50573,-0.0738 v 15.83211 c 0,12.2703 -0.0744,15.92449 -0.33073,16.24273 -0.1819,0.22584 -0.8778,0.77739 -1.54645,1.22567 -1.61434,1.08228 -2.8137,2.48567 -3.65231,4.27361 -0.58156,1.2399 -0.68821,1.8363 -0.68821,3.84853 0,2.06441 0.10118,2.60031 0.76045,4.02759 2.2908,4.95942 8.15145,7.14271 13.03671,4.85662 z m 61.57168,14.79714 c -3.18554,-1.04269 -5.84094,-3.51566 -6.94577,-6.46858 -0.6715,-1.79474 -0.74837,-4.73431 -0.16058,-6.14108 0.21828,-0.52242 0.39688,-1.05438 0.39688,-1.18213 0,-0.13011 -5.64391,-0.23227 -12.83229,-0.23227 -12.47952,0 -12.84684,-0.0145 -13.36146,-0.52917 -0.69174,-0.69173 -0.71742,-2.39344 -0.0453,-3.0017 0.43975,-0.39797 2.03733,-0.43764 17.52864,-0.43529 l 17.04479,0.003 1.32292,0.62541 c 2.35123,1.11154 3.57187,2.96621 3.57187,5.42714 0,1.10246 -0.11143,1.39986 -0.69714,1.86058 -0.9756,0.76741 -2.04868,0.70878 -2.72324,-0.14877 -0.3016,-0.38343 -0.54837,-1.02769 -0.54837,-1.43169 0,-1.07216 -1.32026,-2.10451 -2.69143,-2.10451 -1.36967,0 -2.41916,0.7494 -2.96701,2.11861 -1.57306,3.93146 1.92092,8.01972 6.84907,8.01402 2.89658,-0.003 5.42809,-1.38643 7.12325,-3.89174 4.41481,-6.52475 -0.14139,-15.452 -8.57846,-16.80833 -1.06162,-0.17067 -8.01572,-0.27724 -18.1709,-0.27847 l -16.45111,-0.002 -0.54837,-0.69714 c -0.72743,-0.92479 -0.6926,-1.82851 0.10106,-2.62218 l 0.64944,-0.64943 27.19796,-0.002 c 16.96321,-0.001 27.84513,-0.10242 28.91775,-0.26886 5.17897,-0.80363 9.7782,-5.05303 10.8176,-9.99477 1.11358,-5.29441 -1.35834,-10.53115 -5.9974,-12.70548 -1.31615,-0.61688 -1.83979,-0.70771 -4.02645,-0.6984 -2.89743,0.0123 -4.26328,0.49125 -6.0788,2.13147 -1.731,1.56385 -2.45197,3.02225 -2.58451,5.22799 -0.0976,1.62406 -0.0237,2.05792 0.5244,3.08088 1.16599,2.176 3.49864,2.94123 5.51362,1.80875 1.15665,-0.65007 1.83154,-1.84315 1.83154,-3.2378 0,-1.24402 0.75654,-2.01053 1.98438,-2.01053 1.42218,0 1.98493,0.73252 1.98179,2.57969 -0.005,2.77604 -1.70203,5.36585 -4.39085,6.69971 l -1.29511,0.64247 -20.31925,0.074 -20.31924,0.074 -0.78128,-0.78128 c -0.9624,-0.9624 -1.00823,-1.94199 -0.13184,-2.81838 l 0.64943,-0.64943 h 15.87215 15.87215 l -0.5572,-1.25677 c -0.3277,-0.73913 -0.60835,-2.04686 -0.68138,-3.175 l -0.12417,-1.91823 h -20.03121 c -22.82257,0 -21.91958,0.0774 -26.73045,-2.28994 -2.11503,-1.04075 -2.89465,-1.61796 -4.91733,-3.64064 -2.02712,-2.02711 -2.59696,-2.79767 -3.63647,-4.91733 -1.59682,-3.25609 -2.04205,-5.01013 -2.21796,-8.73793 -0.12054,-2.55445 -0.0529,-3.41333 0.41647,-5.29167 1.83558,-7.34505 7.3958,-12.93654 14.72933,-14.81214 1.13334,-0.28986 2.50808,-0.52701 3.05498,-0.52701 1.27863,0 1.8314,-0.21955 1.8314,-0.72739 0,-0.88545 1.17208,-4.28067 2.16935,-6.28407 3.95415,-7.94342 12.11083,-13.51281 20.58481,-14.05536 1.23693,-0.0792 2.41306,-0.19571 2.61361,-0.25892 0.24495,-0.0772 -0.0906,-0.59627 -1.0221,-1.58122 -1.23571,-1.30659 -1.369,-1.55823 -1.22375,-2.3104 0.30571,-1.58307 1.67409,-2.18251 3.031,-1.32776 1.32356,0.83374 4.53874,4.5096 4.53874,5.18906 0,0.56237 0.20488,0.69548 1.68878,1.09715 l 1.68878,0.45713 2.52469,-1.22819 c 4.14756,-2.01767 8.1677,-2.62928 12.354,-1.87949 6.9735,1.24898 12.74403,5.91866 15.34697,12.4192 1.02558,2.56124 1.68685,6.40405 1.4984,8.70753 l -0.14637,1.78914 1.37394,0.68987 c 11.03322,5.53987 15.12996,19.21884 8.87609,29.63714 -2.04667,3.40955 -5.91865,6.73079 -9.83698,8.4378 -1.51524,0.66011 -1.77092,0.86395 -1.64561,1.31193 2.55603,9.13733 -3.44161,18.7664 -13.00513,20.87943 -1.4369,0.31748 -3.40373,0.42075 -8.01329,0.42075 h -6.10897 l 1.3405,1.61078 c 2.56834,3.08618 3.70587,6.12458 3.70587,9.89859 0,5.58305 -2.63647,9.90345 -7.52022,12.32344 -2.10852,1.04481 -2.42504,1.12405 -4.84236,1.21216 -2.06122,0.0751 -2.91631,-0.0137 -4.21128,-0.43758 z m 13.39886,-50.23371 c 0,-0.12447 0.70865,-0.99969 1.57479,-1.94492 3.69109,-4.02818 9.39795,-5.34495 14.64942,-3.38012 2.08343,0.77951 4.37628,2.34308 5.76663,3.93246 l 1.2064,1.3791 1.47069,-0.55026 c 4.39566,-1.64462 8.04225,-5.26835 9.8042,-9.74274 1.02742,-2.60907 1.29927,-6.84566 0.61476,-9.58057 -1.26363,-5.04875 -4.56943,-9.18004 -9.15773,-11.4445 -4.50242,-2.22207 -8.73701,-2.51622 -14.04121,-0.97533 -1.56472,0.45456 -2.11527,0.51286 -2.69693,0.28561 -0.85618,-0.3345 -1.0195,-0.69535 -1.75063,-3.86803 -2.49456,-10.82497 -13.06731,-18.26782 -23.90176,-16.82603 -9.99646,1.33028 -17.52283,8.75707 -18.85411,18.60465 -0.24067,1.78022 -1.00371,2.32103 -3.28322,2.32701 -7.5451,0.0198 -14.25157,5.04939 -16.03204,12.02339 -0.51574,2.02015 -0.5166,5.93317 -0.002,7.95862 1.3976,5.49809 5.7152,9.98081 11.10852,11.53331 1.4415,0.41494 3.51601,0.4587 22.55573,0.47582 11.53253,0.0104 20.96823,-0.083 20.96823,-0.20747 z m 15.74271,-37.36886 c 1.94376,-0.25621 3.56905,-0.19924 5.92807,0.20778 l 0.90098,0.15546 -0.15695,-2.48455 c -0.45314,-7.17319 -5.27867,-13.16288 -12.00196,-14.89743 -2.89654,-0.74728 -7.93538,-0.38612 -10.04666,0.72009 l -0.65514,0.34326 1.48373,1.02188 c 4.30438,2.96455 8.1265,8.20017 9.76447,13.37561 0.25239,0.79748 0.5113,1.61402 0.57534,1.81454 0.0851,0.26653 0.38207,0.31856 1.10395,0.19348 0.54313,-0.0941 1.94,-0.29667 3.10417,-0.45012 z m -63.5,52.10632 c -1.35068,-0.73876 -1.59582,-2.22375 -0.54119,-3.27838 0.64157,-0.64157 0.70637,-0.64933 5.35781,-0.64101 5.12426,0.009 5.48976,0.10168 5.87707,1.48777 0.2879,1.03031 -0.28341,2.07819 -1.33242,2.44388 -1.10064,0.38368 -8.65546,0.37379 -9.36127,-0.0123 z m 77.8285,-52.03666 c -0.6145,-0.67902 -0.56444,-2.3 0.0913,-2.95573 0.47893,-0.47893 0.88194,-0.52917 4.24536,-0.52917 3.59281,0 3.73775,0.0216 4.36562,0.64944 0.79367,0.79366 0.8285,1.69739 0.10106,2.62217 -0.54819,0.69693 -0.54959,0.69714 -4.45691,0.69714 -3.45051,0 -3.95985,-0.0567 -4.34642,-0.48385 z m -7.31704,-17.50781 c -0.30815,-0.30815 -0.52917,-0.88195 -0.52917,-1.3738 0,-0.7129 0.38408,-1.22871 2.46266,-3.30729 2.67739,-2.67739 3.23975,-2.91592 4.51312,-1.91429 0.51963,0.40875 0.69713,0.78794 0.69713,1.48928 0,0.82564 -0.28137,1.22845 -2.29683,3.28809 -2.09656,2.1425 -2.38496,2.34718 -3.3073,2.34718 -0.65767,0 -1.1952,-0.18475 -1.53961,-0.52917 z m -16.85323,-7.46044 c -0.83715,-0.40447 -1.13844,-1.54604 -1.13844,-4.31352 0,-3.64117 0.50083,-4.63021 2.34465,-4.63021 0.54041,0 0.96611,0.22142 1.34031,0.69714 0.48787,0.62022 0.54837,1.05944 0.54837,3.98078 0,3.13355 -0.0297,3.31332 -0.64943,3.93307 -0.68687,0.68687 -1.48712,0.79576 -2.44546,0.33274 z"
         id="path44" /><path
         style="fill:#25abe9"
         d="m -760.63626,-117.54631 c 0.1349,0 0.11832,0.0783 -0.12351,0.23461 -0.21828,0.14107 -0.57547,0.24984 -0.79375,0.24184 -0.26168,-0.01 -0.21662,-0.0919 0.1323,-0.24184 0.36368,-0.15628 0.65006,-0.23461 0.78496,-0.23461 z"
         id="path181" /><path
         style="fill:#25abe9"
         d="m -760.51017,-123.76092 c 0.0647,0.0626 -0.16044,0.37838 -0.50074,0.70176 l -0.61909,0.58808 0.50126,-0.70176 c 0.27562,-0.38593 0.55389,-0.65064 0.61857,-0.58808 z"
         id="path180" /><path
         style="fill:#25abe9"
         d="m -755.12962,-124.88437 c 0.0278,-0.0278 0.0648,0.009 0.10697,0.11472 0.0764,0.191 0.0667,0.41903 -0.0212,0.50695 -0.0879,0.0879 -0.1505,-0.0683 -0.13901,-0.34727 0.006,-0.15411 0.0254,-0.24658 0.0532,-0.2744 z"
         id="path179" /><path
         style="fill:#25abe9"
         d="m -765.30006,-125.62282 c 0.0252,-5.6e-4 0.0588,0.0196 0.10026,0.061 0.1411,0.14109 0.20918,0.47763 0.15192,0.74775 -0.0771,0.36375 -0.1434,0.29693 -0.25631,-0.25683 -0.0738,-0.36211 -0.0714,-0.55023 0.004,-0.5519 z"
         id="path178" /><path
         style="fill:#25abe9"
         d="m -768.96185,-126.30754 c 0.0137,0.0137 -0.0664,0.12091 -0.23099,0.33073 -0.34565,0.44073 -0.56276,0.58105 -0.56276,0.36329 0,-0.055 0.20836,-0.2633 0.46302,-0.46302 0.20983,-0.16455 0.31707,-0.24465 0.33073,-0.231 z"
         id="path177" /><path
         style="fill:#25abe9"
         d="m -766.39766,-126.56799 c 0.17332,-0.002 0.38858,0.11493 0.47852,0.26045 0.20301,0.32849 0.11142,0.32849 -0.39688,0 -0.23846,-0.15411 -0.27098,-0.25802 -0.0816,-0.26045 z"
         id="path176" /><path
         id="path174"
         style="fill:#25abe9"
         d="m -782.55895,-134.93905 c -9.28605,0.009 -18.89297,0.11052 -19.91868,0.11679 a 3.0937502,4.08283 0 0 0 -0.0341,0.57206 3.0937502,4.08283 0 0 0 2.09858,3.86126 c 0.0528,-0.092 0.11148,-0.17686 0.185,-0.2434 0.43975,-0.39797 2.03734,-0.43746 17.52865,-0.43511 l 17.04495,0.003 1.32292,0.62529 c 2.35123,1.11154 3.57187,2.96613 3.57187,5.42706 0,1.10246 -0.1114,1.40014 -0.69711,1.86086 -0.9756,0.76741 -2.04879,0.70873 -2.72335,-0.14882 -0.3016,-0.38343 -0.54829,-1.02796 -0.54829,-1.43196 0,-1.07216 -1.32013,-2.10426 -2.6913,-2.10426 -1.36967,0 -2.41941,0.74952 -2.96726,2.11873 -1.57306,3.93146 1.92104,8.01968 6.84919,8.01398 2.89658,-0.003 5.42792,-1.38644 7.12308,-3.89175 0.53728,-0.79406 0.93678,-1.62443 1.2175,-2.47168 -0.0635,0.0268 -0.10054,0.0338 -0.0155,-0.0248 0.008,0.003 0.02,-0.008 0.0289,-0.009 0.6392,-1.9532 0.60508,-3.99357 0.0444,-5.91127 -0.0613,-0.12781 -0.10565,-0.2516 -0.17311,-0.38034 -0.0392,-0.0747 -0.098,-0.15348 -0.14366,-0.22944 0.37243,1.00706 0.58127,1.93938 0.43046,2.31459 -0.0773,0.19239 -0.14976,0.11024 -0.16795,-0.19069 -0.10337,-1.71048 -2.96371,-4.76009 -5.76244,-6.1433 l -1.94716,-0.96169 -5.34438,-0.19792 c -3.05048,-0.11298 -8.56683,-0.14359 -14.31127,-0.13798 z" /><path
         style="fill:#25abe9"
         d="m -742.72779,-162.8035 v 5.2e-4 c -1.81321,0.0517 -3.57945,0.56984 -5.12269,1.54874 -1.09208,0.69273 -1.7513,1.42012 -3.05149,3.3662 -0.30021,0.44935 -0.2805,-0.0876 -0.10749,-0.86093 -0.0211,0.0345 -0.0401,0.0708 -0.061,0.10542 -0.0299,0.22833 -0.0819,0.43489 -0.0966,0.68058 -0.0976,1.62406 -0.0236,2.05799 0.52452,3.08095 1.16599,2.176 3.49889,2.94116 5.51387,1.80868 1.15665,-0.65007 1.83141,-1.84288 1.83141,-3.23753 0,-1.24402 0.75654,-2.01073 1.98438,-2.01073 1.42218,0 1.98493,0.73252 1.98179,2.57969 -0.005,2.77604 -1.70213,5.36598 -4.39095,6.69984 l -1.29501,0.64234 -20.31917,0.0739 -20.31917,0.0739 -0.78135,-0.78135 c -0.52953,-0.52953 -0.75398,-1.06245 -0.72761,-1.58233 l -3.74964,-0.004 c 0.0678,0.89474 -0.44579,1.73915 -1.3627,2.05879 -0.64841,0.22603 -3.46358,0.29888 -5.872,0.25528 -0.10756,0.085 -0.20898,0.17427 -0.29869,0.26975 -0.68004,0.7242 -0.95897,1.77331 -0.96066,2.82826 -0.002,1.05495 0.27876,2.14057 0.91984,2.95537 l 0.47232,0.59945 25.80101,-0.002 c 16.96321,-0.001 27.84499,-0.10228 28.91761,-0.26872 5.17897,-0.80363 9.77803,-5.053 10.81743,-9.99474 0.38712,-1.84053 0.31605,-3.66624 -0.10387,-5.36659 -0.0642,-0.12718 -0.12841,-0.2544 -0.20102,-0.38293 0.0819,0.28978 0.15284,0.57932 0.19947,0.86662 0.22958,1.41447 0.0527,1.4494 -0.36018,0.0713 -0.39134,-1.30617 -2.89744,-4.06903 -4.377,-4.82554 -1.73181,-0.88548 -3.59215,-1.29972 -5.40535,-1.24799 z"
         id="path173" /><path
         style="fill:#fbfbfb;fill-opacity:1;stroke:none;stroke-width:2;stroke-linecap:round;stroke-linejoin:round;stroke-dasharray:none;stroke-opacity:1;paint-order:markers stroke fill"
         d="m -2787.9922,-637.36329 c 0.1046,0.0392 0.2134,0.10433 0.3183,0.14453 0.01,-5.2e-4 0.018,-10e-4 0.027,-0.002 -0.1143,-0.0439 -0.2317,-0.0999 -0.3457,-0.14258 z"
         transform="scale(0.26458333)"
         id="path198" /><path
         style="fill:#fbfbfb;fill-opacity:1;stroke:none;stroke-width:2;stroke-linecap:round;stroke-linejoin:round;stroke-dasharray:none;stroke-opacity:1;paint-order:markers stroke fill"
         d="m -3057.1172,-679.98438 c -0.084,2.52659 -0.063,4.96609 0.055,7.46484 -0.1,-2.45377 -0.138,-4.97198 -0.055,-7.46484 z"
         transform="scale(0.26458333)"
         id="path197" /><path
         style="fill:#fbfbfb;fill-opacity:1;stroke:none;stroke-width:2;stroke-linecap:round;stroke-linejoin:round;stroke-dasharray:none;stroke-opacity:1;paint-order:markers stroke fill"
         d="m -2715.4297,-680.12501 c 0.033,2.256 -0.045,4.55143 -0.1992,6.83594 0.045,-0.0779 0.069,-0.12664 0.1132,-0.20313 0.1623,-2.24336 0.1182,-4.42407 0.086,-6.63281 z"
         transform="scale(0.26458333)"
         id="path196" /><path
         style="fill:#fbfbfb;fill-opacity:1;stroke:none;stroke-width:2;stroke-linecap:round;stroke-linejoin:round;stroke-dasharray:none;stroke-opacity:1;paint-order:markers stroke fill"
         d="m -2903.8692,-817.11134 c -2.5444,0.0833 -5.1008,0.29419 -7.6601,0.63477 -37.7819,5.02783 -66.2282,33.0972 -71.2598,70.3164 -0.9096,6.72839 -3.7927,8.77232 -12.4082,8.79493 -28.5169,0.0748 -53.8644,19.08493 -60.5938,45.44336 -0.7895,3.0927 -1.1753,7.43115 -1.3261,11.92187 v 0.002 c 0.9776,0.89841 1.9497,4.48436 3.0605,6.22657 2.155,3.37958 4.0427,7.07688 7.0117,9.76953 10.3172,9.3566 22.4371,18.72509 36.1563,20.94141 0.4793,0.0774 3.7091,0.28871 8.4961,0.42968 4.7869,0.14083 11.4001,0.27019 19.666,0.38282 16.5319,0.22507 39.6734,0.3832 68.127,0.46484 31.4308,0.0903 54.0643,0.2409 68.955,0.45898 7.4454,0.10908 12.9576,0.23466 16.6836,0.38282 1.863,0.0741 3.2717,0.15381 4.3028,0.24414 0.5155,0.045 0.9272,0.0882 1.3144,0.15429 0.1937,0.0329 0.3746,0.0677 0.6192,0.14063 0.2445,0.0731 0.5384,-6.8e-4 1.2695,0.73047 0.2491,0.24907 0.5735,0.47313 0.8183,1.05468 8.9446,-2.61626 18.5991,-2.71399 28.0782,-0.0898 0.2614,-0.41348 0.5839,-0.67766 0.7793,-0.81641 0.3613,-0.25651 0.5873,-0.33576 0.791,-0.4121 0.4075,-0.15308 0.73,-0.22413 1.1133,-0.30274 0.7665,-0.15696 1.7107,-0.29186 2.8652,-0.42187 2.309,-0.26038 5.4103,-0.49027 8.8281,-0.64258 14.2956,-0.63697 20.4122,-2.11232 31.6387,-7.60938 9.4528,-4.62856 20.9519,-13.50145 25.5918,-22.14062 l 3.1973,-5.95117 c 0.2775,-0.51398 1.6289,-2.6555 2.3242,-3.1211 -0.064,-4.42341 -0.3805,-8.71725 -1.2715,-12.27734 -4.7759,-19.08189 -17.2697,-34.69532 -34.6113,-43.25391 -17.0171,-8.39837 -33.021,-9.50938 -53.0684,-3.68555 -5.9139,1.71803 -7.995,1.93703 -10.1934,1.07813 -3.2359,-1.26425 -3.8538,-2.62791 -6.6171,-14.61914 -8.839,-38.3562 -44.5121,-65.47826 -82.6778,-64.22852 z"
         transform="scale(0.26458333)"
         id="path195" /><path
         style="fill:#fbfbfb;fill-opacity:1;stroke:none;stroke-width:2;stroke-linecap:round;stroke-linejoin:round;stroke-dasharray:none;stroke-opacity:1;paint-order:markers stroke fill"
         d="m -3147.8125,-868.64064 c -21.0146,-0.0518 -39.1653,12.26969 -47.7207,32.39454 l -2.2793,5.36328 v 1.86523 l 0.9492,-1.90234 c 5.9976,-12.03572 20.3785,-19.58986 35.2031,-23.45117 3.8244,-0.99614 9.7884,-1.64454 14.3516,-1.64454 v -0.004 -0.002 c 19.263,0 34.9878,5.59635 46.3301,22.10547 l 1.6914,2.45899 c -1.9527,-7.98086 -5.4694,-14.4578 -11.3711,-20.74024 -10.5322,-11.21159 -22.2667,-16.40658 -37.1484,-16.44336 z"
         transform="scale(0.26458333)"
         id="path194" /></g></g></svg>
