<?xml version="1.0" encoding="UTF-8" standalone="no"?>
<!-- Created with Inkscape (http://www.inkscape.org/) -->

<svg
   viewBox="0 0 100 100"
   xmlns="http://www.w3.org/2000/svg"><defs
     id="defs1" /><g
     id="layer1"
     transform="translate(1005.3593,476.89293)"><g
       id="g314"
       transform="matrix(0.36909469,0,0,0.36909469,-1265.1922,-363.96488)"
       style="stroke-width:2.70933"><path
         style="fill:none;stroke-width:2.70933"
         d="M 703.97354,-170.4929 V -305.95956 H 839.4402 974.90686 V -170.4929 -35.02624 H 839.4402 703.97354 Z"
         id="path78" /><path
         style="fill:#0f9ce8;stroke-width:2.70933"
         d="m 803.28862,-111.00653 c -1.00593,-0.48708 -1.15467,-1.33035 -1.15467,-6.54648 0,-4.56509 0.0436,-5.03443 0.52498,-5.64636 0.28874,-0.36707 0.82555,-0.74284 1.19291,-0.83504 0.76855,-0.19289 2.1036,0.40111 2.35109,1.04607 0.0904,0.23556 0.16436,2.80522 0.16436,5.71035 0,5.25533 -0.003,5.28534 -0.64944,5.93148 -0.68341,0.68342 -1.48754,0.79596 -2.42923,0.33998 z m 17.22185,-0.33998 c -0.64699,-0.64698 -0.64944,-0.66973 -0.64944,-6.03552 0,-4.98949 0.0383,-5.42721 0.52022,-5.94448 0.71603,-0.76857 1.49991,-0.9685 2.37538,-0.60587 1.20305,0.49832 1.33774,1.18071 1.33774,6.77749 0,5.12463 -0.004,5.16327 -0.64943,5.80838 -0.40938,0.40938 -0.95173,0.64944 -1.46724,0.64944 -0.51551,0 -1.05786,-0.24006 -1.46723,-0.64944 z m 17.71613,0.0359 -0.77077,-0.66245 -0.0706,-5.11668 c -0.0771,-5.58986 0.037,-6.16231 1.35491,-6.79423 0.86648,-0.41546 2.13113,-0.0352 2.56229,0.77041 0.13995,0.26152 0.25447,2.85138 0.25447,5.75524 0,5.86135 -0.0996,6.2357 -1.74277,6.55264 -0.63395,0.12227 -0.98923,0.009 -1.5875,-0.50493 z m 17.47345,-0.0359 c -0.64715,-0.64714 -0.64943,-0.66846 -0.64943,-6.0561 0,-4.88836 0.0475,-5.46528 0.49507,-6.01807 0.66915,-0.82636 2.20045,-0.83781 3.01653,-0.0226 0.5641,0.56352 0.59295,0.81625 0.67105,5.87864 l 0.0816,5.28981 -0.78886,0.78886 c -0.97012,0.97012 -1.94709,1.01832 -2.82597,0.13943 z m 17.4625,0 c -0.64603,-0.64603 -0.64943,-0.67702 -0.64943,-5.91744 0,-4.92887 0.0353,-5.31289 0.54837,-5.96515 0.73246,-0.93118 2.27501,-0.97323 3.10967,-0.0848 0.55153,0.58707 0.57529,0.83346 0.57529,5.96515 0,5.33042 -0.003,5.3555 -0.64943,6.00221 -0.40938,0.40938 -0.95173,0.64944 -1.46724,0.64944 -0.51551,0 -1.05786,-0.24006 -1.46723,-0.64944 z m -70.2552,-19.70313 -0.7734,-0.77339 v -5.27634 c 0,-4.9373 0.0352,-5.32114 0.54837,-5.97348 0.69963,-0.88944 2.34667,-0.9771 3.1558,-0.16797 0.49461,0.49461 0.52917,0.88194 0.52917,5.93148 0,2.97128 -0.074,5.59506 -0.16436,5.83062 -0.18508,0.48232 -1.43786,1.20248 -2.09182,1.20248 -0.2367,0 -0.77839,-0.34803 -1.20376,-0.7734 z m 18.09546,0.50697 c -0.31791,-0.12809 -0.70486,-0.4699 -0.8599,-0.75958 -0.3025,-0.56525 -0.40659,-10.77654 -0.11752,-11.52984 0.24749,-0.64496 1.58254,-1.23896 2.35109,-1.04607 0.36736,0.0922 0.90417,0.46797 1.19291,0.83504 0.48243,0.61332 0.52498,1.08162 0.52498,5.77865 0,5.44075 -0.13909,6.19639 -1.23225,6.69447 -0.74977,0.34162 -1.06766,0.34629 -1.85931,0.0273 z m 17.22379,-0.34768 -0.77077,-0.66299 v -5.60253 c 0,-5.56872 0.004,-5.60559 0.62462,-6.10833 0.85406,-0.69157 2.25699,-0.65657 2.93694,0.0733 0.50689,0.54408 0.53948,0.90989 0.53948,6.0561 0,6.07898 -0.091,6.43135 -1.74277,6.74994 -0.63413,0.12231 -0.98906,0.009 -1.5875,-0.50546 z m 17.47345,-0.0353 c -0.64801,-0.648 -0.64943,-0.66157 -0.64943,-6.16782 0,-5.18781 0.0323,-5.55307 0.53947,-6.09744 0.67977,-0.72965 2.08262,-0.76488 2.93694,-0.0737 0.61463,0.49722 0.62593,0.59255 0.70595,5.9583 l 0.0813,5.45299 -0.78857,0.78858 c -0.96982,0.96982 -1.94689,1.01793 -2.82568,0.13914 z m 17.96773,0.33998 c -1.01005,-0.48908 -1.15466,-1.32554 -1.15466,-6.67878 0,-4.77027 0.0366,-5.15774 0.54837,-5.80838 0.73246,-0.93118 2.27501,-0.97323 3.10967,-0.0848 0.55247,0.58807 0.57529,0.82993 0.57529,6.09744 0,5.47088 -0.002,5.48676 -0.64943,6.13451 -0.68342,0.68341 -1.48755,0.79595 -2.42924,0.33998 z"
         id="path76" /><path
         style="fill:#fcfcfc;stroke-width:2.70933"
         d="m 785.66111,-160.08156 c -0.23025,-0.29359 -0.22371,-0.30014 0.0699,-0.0699 0.17817,0.13973 0.32394,0.2855 0.32394,0.32394 0,0.15235 -0.152,0.0543 -0.39382,-0.25406 z"
         id="path275" /><path
         style="fill:#fcfcfc;stroke-width:2.70933"
         d="m 796.32852,-159.76237 c -3.8925,-0.82069 -6.57573,-2.24028 -9.41156,-4.97926 -1.5394,-1.48682 -3.18822,-3.7896 -4.09486,-5.71894 -0.43438,-0.92437 -0.57763,-1.09777 -0.68731,-0.83197 -0.22756,0.55145 0.0288,-2.5172 0.33431,-4.00274 1.72708,-8.39638 9.46535,-14.80528 17.8915,-14.81788 1.82252,-0.003 2.64848,-0.26006 3.23728,-1.00858 0.3634,-0.462 0.38969,-0.71827 0.38677,-3.7709 -0.003,-2.59774 0.0782,-3.68874 0.39007,-5.27436 2.04018,-10.37286 9.88471,-18.25556 20.4258,-20.52516 2.68739,-0.57862 7.74689,-0.58347 10.34229,-0.01 5.45159,1.20475 9.50324,3.40859 13.30471,7.23691 2.23583,2.25161 3.5595,4.06768 4.81512,6.60631 1.18484,2.39551 1.89423,2.59429 4.63631,1.29916 5.28953,-2.49831 10.95713,-2.29284 15.7624,0.57145 1.74507,1.04018 4.32416,3.49649 5.41109,5.15347 2.19212,3.34181 3.12701,7.79927 2.47008,11.77715 -0.18388,1.11346 -0.17182,1.38491 0.0856,1.92466 0.37357,0.78339 0.93635,1.07647 2.8047,1.46061 2.96404,0.60939 5.57477,2.05281 7.8853,4.35958 2.30017,2.29645 3.68048,4.83324 4.34267,7.98118 0.43659,2.0755 0.36823,3.0176 -0.30424,4.19296 -2.25519,3.94166 -6.08898,6.94346 -10.62007,8.31536 -1.05809,0.32036 -3.16059,0.33807 -44.4263,0.37421 -41.90653,0.0367 -43.36984,0.0265 -44.98163,-0.31332 z"
         id="path276" /><path
         style="fill:#fcfcfc;stroke-width:2.70933"
         d="m 786.69118,-158.87835 -0.54369,-0.6016 0.60161,0.54368 c 0.56078,0.50679 0.68669,0.65953 0.54368,0.65953 -0.0318,0 -0.30258,-0.27072 -0.6016,-0.60161 z"
         id="path277" /><path
         style="fill:#fcfcfc;stroke-width:2.70933"
         d="m 892.67806,-157.97641 c 0,-0.0384 0.14577,-0.18421 0.32394,-0.32394 0.2936,-0.23026 0.30015,-0.22371 0.0699,0.0699 -0.24182,0.30835 -0.39383,0.4064 -0.39383,0.25405 z"
         id="path278" /><path
         style="fill:#fcfcfc;stroke-width:2.70933"
         d="m 788.17205,-157.39747 -0.54368,-0.6016 0.60161,0.54368 c 0.56078,0.50679 0.68669,0.65953 0.54368,0.65953 -0.0318,0 -0.30258,-0.27073 -0.60161,-0.60161 z"
         id="path279" /><path
         style="fill:#fcfcfc;stroke-width:2.70933"
         d="m 891.19719,-156.49553 c 0,-0.0384 0.14577,-0.18421 0.32394,-0.32394 0.29359,-0.23026 0.30014,-0.22371 0.0699,0.0699 -0.24182,0.30835 -0.39383,0.4064 -0.39383,0.25405 z"
         id="path280" /><path
         style="fill:#fcfcfc;stroke-width:2.70933"
         d="m 881.62031,-152.85628 c 0.28138,-0.0425 0.69787,-0.0414 0.92554,0.003 0.22768,0.0439 -0.003,0.0787 -0.51159,0.0774 -0.50905,-0.001 -0.69533,-0.0374 -0.41395,-0.0799 z"
         id="path281" /><path
         id="path282"
         style="fill:#ffffff;fill-opacity:1;stroke-width:2.70933"
         d="m 830.02358,-221.27622 c -1.66541,-0.002 -3.33966,0.10025 -4.48927,0.30767 -9.65524,1.74215 -17.47304,8.4691 -20.47486,17.61759 -0.88416,2.6946 -1.08912,4.06427 -1.2108,8.09493 l -0.11569,3.83741 -0.50363,0.5029 c -0.47781,0.47728 -0.62512,0.50992 -2.8692,0.63451 -3.44291,0.19114 -5.73032,0.79784 -8.36681,2.21951 -4.70091,2.53486 -7.7709,6.32073 -9.40082,11.59176 -0.47324,1.53047 -0.50273,1.83253 -0.49856,5.14294 0.004,3.29185 0.037,3.62377 0.50941,5.18307 0.99157,3.27304 2.30719,5.56989 4.52289,7.89536 2.64347,2.77441 5.82125,4.54504 9.57255,5.33383 1.60513,0.33752 3.19852,0.3508 43.61537,0.36335 37.02932,0.0115 42.14216,-0.0206 43.59331,-0.27296 2.86936,-0.49895 5.63598,-1.90171 7.94778,-4.02976 3.12117,-2.8731 4.98313,-6.90023 5.21308,-11.27577 0.27767,-5.28334 -1.7994,-10.05548 -5.82698,-13.38718 -1.6186,-1.33896 -4.38781,-2.72485 -6.26372,-3.13494 -2.27302,-0.4969 -2.70516,-0.68818 -3.10456,-1.37205 -0.34191,-0.58544 -0.34861,-0.72858 -0.12147,-2.63853 0.14215,-1.19531 0.18918,-2.58422 0.11497,-3.40321 -0.84823,-9.36052 -9.24958,-16.3336 -18.38949,-15.26358 -2.01546,0.23595 -4.6389,1.03521 -6.10572,1.86013 -1.1274,0.63405 -2.3212,0.72216 -2.93934,0.21693 -0.21521,-0.17591 -0.82855,-1.16513 -1.36266,-2.19818 -3.61784,-6.99754 -10.47379,-11.97426 -18.60821,-13.50721 -1.11537,-0.2102 -2.77215,-0.31649 -4.43757,-0.31852 z m -46.93974,48.17694 c -0.008,-0.004 -0.0313,-0.004 -0.0467,0.0119 -6.8e-4,9e-5 -7e-4,-0.001 -10e-4,-0.001 0.0479,0 0.0559,-0.007 0.0481,-0.0108 z m 0.077,0.17463 0.7849,1.57596 c 2.70125,5.42451 6.82562,8.8809 12.33907,10.34227 l 1.57272,0.41578 c 0.0176,0.005 0.0353,0.007 0.0535,0.007 h 42.91686 c 41.09731,0 42.99918,-0.0155 44.1208,-0.34455 3.45392,-1.01307 6.65859,-3.18435 8.80609,-5.964 1.23926,-1.60405 2.00818,-2.94163 2.24192,-3.84464 0.0105,0.44445 0.0269,0.88752 0.004,1.33987 -0.0521,1.03161 -0.19806,2.04154 -0.41866,3.02539 l -0.2209,0.71405 0.0148,-0.003 c -0.79082,2.94284 -2.29174,5.60171 -4.44155,7.65963 -1.53583,1.47017 -3.27918,2.58686 -5.11618,3.3139 l 0.0727,0.0166 h -0.0766 v -0.0152 c -0.0146,0.006 -0.0295,0.01 -0.0441,0.0152 h -0.20752 c 0,0.0185 0.0207,0.0435 0.0228,0.0633 -0.7789,0.29439 -1.56887,0.53273 -2.36955,0.67752 -0.67353,0.12178 -2.29643,0.19879 -8.29341,0.2379 -5.99697,0.0391 -16.37765,0.0446 -34.61947,0.039 -39.82141,-0.0129 -41.37342,-0.0283 -42.92736,-0.36804 -3.6557,-0.79937 -6.74197,-2.587 -9.31802,-5.39855 -0.72698,-0.79345 -1.32625,-1.59775 -1.87822,-2.42776 l 0.0315,0.14788 c 0.0108,-0.0181 0.0125,-0.0246 0.005,0.0217 l -0.005,-0.0217 c -0.005,0.008 -0.007,0.0145 -0.0192,0.0271 l -0.14679,-0.15257 0.13305,-0.025 c -1.0793,-1.62344 -1.88417,-3.36442 -2.52573,-5.56667 -0.46379,-1.59185 -0.48859,-1.87326 -0.49279,-5.24453 0,-0.10929 7e-4,-0.18254 10e-4,-0.26464 z" /><path
         id="path283"
         style="fill:#d8dde1;stroke-width:2.70931"
         d="m 783.03575,-173.0886 c 0.0958,0 0.032,-0.0289 10e-4,0.001 -6.8e-4,9e-5 -6.6e-4,-0.001 -10e-4,-0.001 z m 0.1252,0.16381 c -5.7e-4,0.0821 -10e-4,0.15531 -10e-4,0.26461 0.004,3.37126 0.029,3.65274 0.49275,5.24459 0.64156,2.20225 1.4464,3.94318 2.52571,5.56661 l -0.13328,0.0251 0.14675,0.15261 c 0.0388,-0.0403 0.0355,-0.073 0.0242,-0.006 l -0.0363,-0.1694 c 0.55196,0.83 1.15114,1.63424 1.87813,2.42769 2.57605,2.81156 5.66223,4.59923 9.31793,5.3986 1.55395,0.3398 3.10628,0.35536 42.92768,0.36821 18.24182,0.006 28.6225,-4e-5 34.61947,-0.0392 5.99697,-0.0391 7.61984,-0.11623 8.29337,-0.238 0.80068,-0.14479 1.59063,-0.38325 2.36954,-0.67764 -0.002,-0.0198 -0.0229,-0.0445 -0.0229,-0.063 h 0.20734 c 0.0147,-0.006 0.0297,-0.01 0.0444,-0.0154 v 0.0154 h 0.0767 l -0.0727,-0.0167 c 1.83701,-0.72704 3.58023,-1.84375 5.11606,-3.31391 2.14981,-2.05793 3.65071,-4.71686 4.44153,-7.6597 l -0.0148,0.003 0.22094,-0.71413 c 0.22061,-0.98386 0.36657,-1.99391 0.41871,-3.02552 0.0229,-0.45236 0.006,-0.8954 -0.004,-1.33985 -0.23374,0.90301 -1.00239,2.2405 -2.24165,3.84454 -2.1475,2.77966 -5.35241,4.95115 -8.80633,5.96423 -1.12162,0.32902 -3.02321,0.34441 -44.12051,0.34441 h -42.9169 c -0.0182,-6e-5 -0.0362,-0.002 -0.0538,-0.007 l -1.57252,-0.41582 c -5.51345,-1.46137 -9.63783,-4.91767 -12.33908,-10.34218 z" /><path
         style="fill:#020202;stroke-width:2.70933"
         d="m 798.08706,-148.30102 c -8.94405,-1.01326 -16.48034,-7.00592 -19.24445,-15.30271 -0.94185,-2.82704 -1.1984,-4.47338 -1.20353,-7.72323 -0.007,-4.2515 0.63833,-6.98642 2.51042,-10.64381 3.3961,-6.63477 10.19882,-11.45126 17.5573,-12.43097 l 1.62233,-0.216 0.11654,-2.1673 c 0.51399,-9.55925 5.40366,-18.16731 13.45015,-23.67845 10.4979,-7.19015 25.0649,-6.88685 35.20947,0.7331 2.55872,1.92194 5.49339,4.9953 7.16837,7.50712 0.74206,1.11281 1.37404,2.05044 1.40439,2.08363 0.0304,0.0332 0.83325,-0.18722 1.78423,-0.48981 2.92735,-0.93146 3.73189,-1.04995 7.00468,-1.03172 2.65975,0.0148 3.28552,0.0786 4.84423,0.49328 6.40122,1.7032 11.67595,6.21579 14.25321,12.19381 1.21546,2.81927 2.00324,6.98944 1.73154,9.16602 l -0.11925,0.95542 1.07564,0.31069 c 2.92774,0.84564 6.31237,2.9847 8.66539,5.47644 3.71719,3.93634 5.52738,8.53843 5.52738,14.05241 0,4.55614 -1.19328,8.36701 -3.80716,12.15866 -1.08575,1.57496 -3.65284,4.10264 -5.30843,5.22693 -2.50493,1.70107 -5.8625,2.94216 -8.99948,3.32659 -2.01411,0.24683 -83.0642,0.24673 -85.24297,-1e-4 z m 85.82032,-4.52319 c 2.86937,-0.49894 5.63625,-1.90183 7.94805,-4.02988 3.12118,-2.87311 4.98299,-6.90028 5.21294,-11.27582 0.27767,-5.28334 -1.79956,-10.05557 -5.82714,-13.38728 -1.61861,-1.33895 -4.38765,-2.72489 -6.26356,-3.13498 -2.27303,-0.4969 -2.70529,-0.68789 -3.1047,-1.37177 -0.34191,-0.58544 -0.34849,-0.72856 -0.12136,-2.63851 0.14215,-1.19531 0.18899,-2.58421 0.11477,-3.40319 -0.84822,-9.36052 -9.24945,-16.33384 -18.38936,-15.26381 -2.01546,0.23595 -4.63899,1.0352 -6.10581,1.86012 -1.1274,0.63405 -2.32122,0.72214 -2.93936,0.21691 -0.21521,-0.1759 -0.82829,-1.16504 -1.36239,-2.19809 -3.61784,-6.99754 -10.47394,-11.97411 -18.60836,-13.50706 -2.23074,-0.42038 -6.62744,-0.42575 -8.92665,-0.0109 -9.65524,1.74215 -17.47321,8.46904 -20.47503,17.61753 -0.88416,2.69461 -1.089,4.06423 -1.21068,8.09489 l -0.11584,3.83737 -0.50366,0.50311 c -0.4778,0.47728 -0.62512,0.50985 -2.8692,0.63444 -3.44291,0.19115 -5.7301,0.79791 -8.36659,2.21958 -4.70092,2.53487 -7.77112,6.32043 -9.40103,11.59147 -0.47325,1.53047 -0.50253,1.83269 -0.49837,5.1431 0.004,3.29185 0.0367,3.62377 0.50913,5.18307 0.99157,3.27304 2.30739,5.56988 4.52309,7.89535 2.64347,2.77442 5.82117,4.54505 9.57247,5.33385 1.60512,0.33751 3.19848,0.35078 43.61534,0.36333 37.02932,0.0115 42.14216,-0.0205 43.5933,-0.27284 z"
         id="path284" /></g></g></svg>
