<?xml version="1.0" encoding="utf-8"?>
<!-- Generator: Adobe Illustrator 24.3.0, SVG Export Plug-In . SVG Version: 6.00 Build 0)  -->
<svg version="1.1" id="Layer_1" xmlns="http://www.w3.org/2000/svg" xmlns:xlink="http://www.w3.org/1999/xlink" x="0px" y="0px"
	 viewBox="0 0 100 100" style="enable-background:new 0 0 100 100;" xml:space="preserve">
<style type="text/css">
	.st0{fill:#0F9CE8;}
	.st1{fill:#FCFCFC;}
	.st2{fill:#FFFFFF;}
	.st3{fill:#D8DDE1;}
	.st4{fill:#020202;}
</style>
<g>
	<path id="path76" class="st0" d="M20.8,97c-0.8-0.4-0.9-1.1-0.9-5.3c0-3.7,0-4.1,0.4-4.6c0.2-0.3,0.7-0.6,1-0.7
		c0.6-0.2,1.7,0.3,1.9,0.8c0.1,0.2,0.1,2.3,0.1,4.6c0,4.2,0,4.3-0.5,4.8C22.2,97.3,21.5,97.4,20.8,97z M34.7,96.8
		c-0.5-0.5-0.5-0.5-0.5-4.9c0-4,0-4.4,0.4-4.8c0.6-0.6,1.2-0.8,1.9-0.5c1,0.4,1.1,1,1.1,5.5c0,4.1,0,4.2-0.5,4.7
		c-0.3,0.3-0.8,0.5-1.2,0.5C35.4,97.3,35,97.1,34.7,96.8L34.7,96.8z M49,96.8l-0.6-0.5l-0.1-4.1c-0.1-4.5,0-5,1.1-5.5
		c0.7-0.3,1.7,0,2.1,0.6c0.1,0.2,0.2,2.3,0.2,4.6c0,4.7-0.1,5-1.4,5.3C49.7,97.3,49.5,97.2,49,96.8z M63.1,96.8
		c-0.5-0.5-0.5-0.5-0.5-4.9c0-3.9,0-4.4,0.4-4.9c0.5-0.7,1.8-0.7,2.4,0c0.5,0.5,0.5,0.7,0.5,4.7L66,96l-0.6,0.6
		C64.6,97.4,63.8,97.5,63.1,96.8L63.1,96.8z M77.2,96.8c-0.5-0.5-0.5-0.5-0.5-4.8c0-4,0-4.3,0.4-4.8c0.6-0.8,1.8-0.8,2.5-0.1
		c0.4,0.5,0.5,0.7,0.5,4.8c0,4.3,0,4.3-0.5,4.8c-0.3,0.3-0.8,0.5-1.2,0.5S77.5,97.1,77.2,96.8L77.2,96.8z M20.4,80.8l-0.6-0.6V76
		c0-4,0-4.3,0.4-4.8c0.6-0.7,1.9-0.8,2.5-0.1c0.4,0.4,0.4,0.7,0.4,4.8c0,2.4-0.1,4.5-0.1,4.7c-0.1,0.4-1.2,1-1.7,1
		C21.2,81.5,20.8,81.2,20.4,80.8L20.4,80.8z M35.1,81.3c-0.3-0.1-0.6-0.4-0.7-0.6c-0.2-0.5-0.3-8.7-0.1-9.3c0.2-0.5,1.3-1,1.9-0.8
		c0.3,0.1,0.7,0.4,1,0.7c0.4,0.5,0.4,0.9,0.4,4.7c0,4.4-0.1,5-1,5.4C36,81.5,35.7,81.5,35.1,81.3L35.1,81.3z M49,81l-0.6-0.5v-4.5
		c0-4.5,0-4.5,0.5-4.9c0.7-0.6,1.8-0.5,2.4,0.1c0.4,0.4,0.4,0.7,0.4,4.9c0,4.9-0.1,5.2-1.4,5.5C49.7,81.5,49.5,81.4,49,81L49,81z
		 M63.1,80.9c-0.5-0.5-0.5-0.5-0.5-5c0-4.2,0-4.5,0.4-4.9c0.5-0.6,1.7-0.6,2.4-0.1c0.5,0.4,0.5,0.5,0.6,4.8l0.1,4.4l-0.6,0.6
		C64.6,81.6,63.8,81.7,63.1,80.9L63.1,80.9z M77.6,81.2c-0.8-0.4-0.9-1.1-0.9-5.4c0-3.9,0-4.2,0.4-4.7c0.6-0.8,1.8-0.8,2.5-0.1
		c0.4,0.5,0.5,0.7,0.5,4.9c0,4.4,0,4.4-0.5,5C79,81.5,78.4,81.6,77.6,81.2L77.6,81.2z"/>
	<path id="path275" class="st1" d="M6.5,57.4C6.3,57.2,6.3,57.2,6.5,57.4c0.2,0.1,0.3,0.2,0.3,0.2C6.8,57.7,6.7,57.6,6.5,57.4z"/>
	<path id="path276" class="st1" d="M15.1,57.7c-3.1-0.7-5.3-1.8-7.6-4C6.3,52.4,5,50.6,4.2,49c-0.4-0.7-0.5-0.9-0.6-0.7
		c-0.2,0.4,0-2,0.3-3.2c1.4-6.8,7.6-12,14.5-12c1.5,0,2.1-0.2,2.6-0.8c0.3-0.4,0.3-0.6,0.3-3c0-2.1,0.1-3,0.3-4.3
		c1.6-8.4,8-14.7,16.5-16.6c2.2-0.5,6.3-0.5,8.4,0c4.4,1,7.7,2.8,10.7,5.8c1.8,1.8,2.9,3.3,3.9,5.3c1,1.9,1.5,2.1,3.7,1
		c4.3-2,8.9-1.9,12.7,0.5c1.4,0.8,3.5,2.8,4.4,4.2c1.8,2.7,2.5,6.3,2,9.5c-0.1,0.9-0.1,1.1,0.1,1.6c0.3,0.6,0.8,0.9,2.3,1.2
		c2.4,0.5,4.5,1.7,6.4,3.5c1.9,1.9,3,3.9,3.5,6.4c0.4,1.7,0.3,2.4-0.2,3.4c-1.8,3.2-4.9,5.6-8.6,6.7c-0.9,0.3-2.6,0.3-35.9,0.3
		C17.6,57.9,16.4,57.9,15.1,57.7L15.1,57.7z"/>
	<path id="path277" class="st1" d="M7.3,58.4l-0.4-0.5L7.3,58.4c0.5,0.4,0.6,0.5,0.5,0.5C7.8,58.9,7.6,58.6,7.3,58.4z"/>
	<path id="path278" class="st1" d="M93,59.1c0,0,0.1-0.1,0.3-0.3c0.2-0.2,0.2-0.2,0.1,0.1C93.1,59.1,93,59.2,93,59.1L93,59.1z"/>
	<path id="path279" class="st1" d="M8.5,59.6l-0.4-0.5L8.5,59.6C9,59.9,9.1,60,9,60C9,60,8.8,59.8,8.5,59.6z"/>
	<path id="path280" class="st1" d="M91.8,60.3c0,0,0.1-0.1,0.3-0.3c0.2-0.2,0.2-0.2,0.1,0.1C91.9,60.3,91.8,60.4,91.8,60.3
		L91.8,60.3z"/>
	<path id="path281" class="st1" d="M84,63.2c0.2,0,0.6,0,0.7,0c0.2,0,0,0.1-0.4,0.1C83.9,63.3,83.8,63.3,84,63.2L84,63.2z"/>
	<path id="path282" class="st2" d="M42.3,8C41,8,39.7,8,38.7,8.2c-7.8,1.4-14.1,6.8-16.5,14.2c-0.7,2.2-0.9,3.3-1,6.5l-0.1,3.1
		l-0.4,0.4c-0.4,0.4-0.5,0.4-2.3,0.5c-2.8,0.2-4.6,0.6-6.8,1.8c-3.8,2-6.3,5.1-7.6,9.4c-0.4,1.2-0.4,1.5-0.4,4.2
		c0,2.7,0,2.9,0.4,4.2c0.8,2.6,1.9,4.5,3.7,6.4c2.1,2.2,4.7,3.7,7.7,4.3c1.3,0.3,2.6,0.3,35.2,0.3c29.9,0,34,0,35.2-0.2
		c2.3-0.4,4.6-1.5,6.4-3.3c2.5-2.3,4-5.6,4.2-9.1c0.2-4.3-1.5-8.1-4.7-10.8c-1.3-1.1-3.5-2.2-5.1-2.5c-1.8-0.4-2.2-0.6-2.5-1.1
		c-0.3-0.5-0.3-0.6-0.1-2.1c0.1-1,0.2-2.1,0.1-2.7c-0.7-7.6-7.5-13.2-14.9-12.3c-1.6,0.2-3.7,0.8-4.9,1.5c-0.9,0.5-1.9,0.6-2.4,0.2
		c-0.2-0.1-0.7-0.9-1.1-1.8c-2.9-5.7-8.5-9.7-15-10.9C45,8.1,43.7,8,42.3,8L42.3,8z M4.4,46.9C4.4,46.9,4.4,46.9,4.4,46.9
		C4.4,46.9,4.4,46.9,4.4,46.9C4.4,46.9,4.4,46.9,4.4,46.9L4.4,46.9z M4.5,47l0.6,1.3c2.2,4.4,5.5,7.2,10,8.4l1.3,0.3c0,0,0,0,0,0
		h34.7c33.2,0,34.7,0,35.6-0.3c2.8-0.8,5.4-2.6,7.1-4.8c1-1.3,1.6-2.4,1.8-3.1c0,0.4,0,0.7,0,1.1c0,0.8-0.2,1.6-0.3,2.4l-0.2,0.6
		l0,0c-0.6,2.4-1.9,4.5-3.6,6.2c-1.2,1.2-2.6,2.1-4.1,2.7l0.1,0h-0.1v0c0,0,0,0,0,0h-0.2c0,0,0,0,0,0.1c-0.6,0.2-1.3,0.4-1.9,0.5
		c-0.5,0.1-1.9,0.2-6.7,0.2c-4.8,0-13.2,0-28,0c-32.2,0-33.4,0-34.7-0.3c-3-0.6-5.4-2.1-7.5-4.4c-0.6-0.6-1.1-1.3-1.5-2l0,0.1
		c0,0,0,0,0,0l0,0c0,0,0,0,0,0L6.8,56l0.1,0c-0.9-1.3-1.5-2.7-2-4.5c-0.4-1.3-0.4-1.5-0.4-4.2C4.5,47.1,4.5,47.1,4.5,47L4.5,47z"/>
	<path id="path283" class="st3" d="M4.4,46.9C4.5,46.9,4.4,46.9,4.4,46.9C4.4,46.9,4.4,46.9,4.4,46.9z M4.5,47c0,0.1,0,0.1,0,0.2
		c0,2.7,0,3,0.4,4.2c0.5,1.8,1.2,3.2,2,4.5l-0.1,0l0.1,0.1c0,0,0-0.1,0,0l0-0.1c0.4,0.7,0.9,1.3,1.5,2c2.1,2.3,4.6,3.7,7.5,4.4
		c1.3,0.3,2.5,0.3,34.7,0.3c14.7,0,23.1,0,28,0c4.8,0,6.2-0.1,6.7-0.2c0.6-0.1,1.3-0.3,1.9-0.5c0,0,0,0,0-0.1h0.2c0,0,0,0,0,0v0h0.1
		l-0.1,0c1.5-0.6,2.9-1.5,4.1-2.7c1.7-1.7,2.9-3.8,3.6-6.2l0,0l0.2-0.6c0.2-0.8,0.3-1.6,0.3-2.4c0-0.4,0-0.7,0-1.1
		c-0.2,0.7-0.8,1.8-1.8,3.1c-1.7,2.2-4.3,4-7.1,4.8C85.8,57,84.3,57,51.1,57H16.4c0,0,0,0,0,0l-1.3-0.3c-4.5-1.2-7.8-4-10-8.4
		L4.5,47z"/>
	<path id="path284" class="st4" d="M16.6,66.9C9.3,66.1,3.2,61.3,1,54.5c-0.8-2.3-1-3.6-1-6.2c0-3.4,0.5-5.6,2-8.6
		c2.7-5.4,8.2-9.2,14.2-10l1.3-0.2l0.1-1.8C18.1,20,22,13.1,28.5,8.6C37,2.8,48.8,3.1,57,9.2c2.1,1.6,4.4,4,5.8,6.1
		c0.6,0.9,1.1,1.7,1.1,1.7c0,0,0.7-0.2,1.4-0.4c2.4-0.8,3-0.8,5.7-0.8c2.1,0,2.7,0.1,3.9,0.4c5.2,1.4,9.4,5,11.5,9.8
		c1,2.3,1.6,5.6,1.4,7.4l-0.1,0.8l0.9,0.3c2.4,0.7,5.1,2.4,7,4.4c3,3.2,4.5,6.9,4.5,11.4c0,3.7-1,6.8-3.1,9.8
		c-0.9,1.3-3,3.3-4.3,4.2c-2,1.4-4.7,2.4-7.3,2.7C83.8,67.1,18.3,67.1,16.6,66.9L16.6,66.9z M85.9,63.3c2.3-0.4,4.6-1.5,6.4-3.3
		c2.5-2.3,4-5.6,4.2-9.1c0.2-4.3-1.5-8.1-4.7-10.8c-1.3-1.1-3.5-2.2-5.1-2.5c-1.8-0.4-2.2-0.6-2.5-1.1c-0.3-0.5-0.3-0.6-0.1-2.1
		c0.1-1,0.2-2.1,0.1-2.7c-0.7-7.6-7.5-13.2-14.9-12.3c-1.6,0.2-3.7,0.8-4.9,1.5c-0.9,0.5-1.9,0.6-2.4,0.2c-0.2-0.1-0.7-0.9-1.1-1.8
		c-2.9-5.7-8.5-9.7-15-10.9c-1.8-0.3-5.4-0.3-7.2,0c-7.8,1.4-14.1,6.8-16.5,14.2c-0.7,2.2-0.9,3.3-1,6.5l-0.1,3.1l-0.4,0.4
		c-0.4,0.4-0.5,0.4-2.3,0.5c-2.8,0.2-4.6,0.6-6.8,1.8c-3.8,2-6.3,5.1-7.6,9.4c-0.4,1.2-0.4,1.5-0.4,4.2c0,2.7,0,2.9,0.4,4.2
		c0.8,2.6,1.9,4.5,3.7,6.4c2.1,2.2,4.7,3.7,7.7,4.3c1.3,0.3,2.6,0.3,35.2,0.3C80.6,63.5,84.7,63.5,85.9,63.3L85.9,63.3z"/>
</g>
</svg>
