<?xml version="1.0" encoding="UTF-8" standalone="no"?>
<!-- Created with Inkscape (http://www.inkscape.org/) -->

<svg
   width="270.93332mm"
   height="270.93332mm"
   viewBox="0 0 270.93332 270.93332"
   version="1.1"
   id="svg1"
   xml:space="preserve"
   xmlns="http://www.w3.org/2000/svg"
   xmlns:svg="http://www.w3.org/2000/svg"><defs
     id="defs1" /><g
     id="layer1"
     transform="translate(1463.4931,305.95957)"><g
       id="g376"><path
         style="fill:none"
         d="m -1192.5598,-170.4929 v -135.46666 h 135.4666 135.4667 v 135.46666 135.46666 h -135.4667 -135.4666 z"
         id="path36" /><path
         style="fill:#d3d3d4"
         d="m -1025.0072,-111.18184 c -3.175,-0.021 -11.9388,0.42824 -17.0046,0.90227 -4.9333,0.46162 -8.2058,1.0348 -9.7235,1.70325 -1.2189,0.5368 -1.3471,0.79392 -0.7116,1.42937 1.2124,1.21242 8.6461,2.27318 20.3569,2.90473 0.8731,0.0471 7.4812,0.0545 14.6844,0.016 16.8203,-0.0898 24.75995,-0.71402 29.63333,-2.32905 4.33966,-1.43816 1.11198,-2.58627 -11.81219,-4.20233 -0.35563,-0.0445 -0.68534,-0.0792 -1.00974,-0.0594 0.013,0.0997 0.042,0.1557 0.051,0.25218 0.2214,2.33743 -1.6955,3.89729 -4.9061,4.4049 -0.123,0.0648 -0.2242,0.0763 -0.3013,0.0305 -1.7591,0.23786 -3.8584,0.19261 -6.2281,-0.23048 v 0 c -3.6338,-0.64878 -6.5404,-1.82676 -8.8414,-3.48816 -0.047,-0.006 -0.086,-0.0143 -0.1338,-0.0202 -0.1759,-0.1495 -0.2536,-0.23582 -0.2723,-0.28577 -0.2744,-0.21266 -0.5803,-0.39996 -0.8351,-0.62839 l -0.354,-0.31729 c -0.4522,0.0336 -1.0651,0.0202 -1.5973,-0.0429 -0.1984,-0.0235 -0.5381,-0.0363 -0.9917,-0.0393 z"
         id="path142" /><path
         style="fill:#d3d3d4"
         d="m -1012.0395,-166.6875 c -0.028,0.0278 -0.047,0.12029 -0.053,0.2744 -0.01,0.2074 0.024,0.34617 0.077,0.36794 l 0.01,-5.2e-4 c 0.017,0.004 0.035,-4.1e-4 0.054,-0.0202 0.088,-0.0879 0.098,-0.31596 0.021,-0.50695 -0.042,-0.10553 -0.079,-0.14254 -0.1064,-0.11472 z"
         id="path141" /><path
         style="fill:#d3d3d4"
         d="m -1032.7065,-167.03063 c 0.3467,-0.003 0.7234,0.003 1.1255,0.0176 0.5832,0.0213 1.0355,0.0411 1.3969,0.0692 0.7226,0.0562 1.0801,0.14585 1.3859,0.34727 0.1529,0.10071 0.293,0.22937 0.4594,0.39584 0.2652,0.26535 0.4435,0.50726 0.553,0.76946 0.1093,0.26192 0.1499,0.5443 0.14,0.89039 0,2e-4 0,3.2e-4 0,5.2e-4 0,1.8e-4 0,3.3e-4 0,5.1e-4 -0.01,0.2668 -0.08,0.56579 -0.1995,0.87127 0,1.6e-4 10e-5,3.5e-4 0,5.1e-4 -0.1197,0.30565 -0.2869,0.61762 -0.4842,0.91054 -0.1973,0.29292 -0.4249,0.56653 -0.6651,0.7953 -0.2401,0.22878 -0.4931,0.41286 -0.7415,0.52607 0,5.1e-4 0,0.001 0,0.002 -0.192,0.088 -0.3392,0.20005 -0.4403,0.33641 -0.1017,0.13728 -0.1573,0.29918 -0.1669,0.48576 -0.01,0.18658 0.027,0.39785 0.109,0.63407 0.082,0.23622 0.211,0.49722 0.3855,0.78342 0.1739,0.28514 0.3765,0.53356 0.6,0.74517 0.2235,0.21161 0.468,0.38657 0.7255,0.52503 0.7725,0.41538 1.6629,0.50234 2.4588,0.26614 0.2653,-0.0787 0.52,-0.19328 0.7565,-0.34365 0.2366,-0.15038 0.4545,-0.33647 0.6465,-0.55811 0.1921,-0.22164 0.358,-0.479 0.4899,-0.77153 0.129,-0.28609 0.2767,-0.52424 0.4336,-0.73018 0.021,-0.0271 0.039,-0.0597 0.06,-0.0853 0.1643,-0.20037 0.3418,-0.35016 0.5256,-0.46095 0,-0.002 0.01,-0.005 0.01,-0.006 0.4468,-0.2654 0.9361,-0.26864 1.4076,0.0403 1.055,0.69125 0.6002,2.59054 -0.6459,4.03748 -0.014,0.0159 -0.023,0.0333 -0.037,0.0491 -0.1838,0.20893 -0.3907,0.4007 -0.6057,0.58446 -0.043,0.0373 -0.079,0.0813 -0.1235,0.11731 -0.2631,0.21144 -0.5453,0.40078 -0.8449,0.55759 -0.888,0.46482 -1.9421,0.67918 -3.0003,0.6475 -0.5291,-0.0158 -1.0591,-0.0934 -1.57,-0.23151 -0.5108,-0.13814 -1.0021,-0.33711 -1.4541,-0.59634 -0.7535,-0.43216 -1.4489,-0.91336 -1.5452,-1.06919 -0.056,-0.0904 -0.1814,-0.0989 -0.3648,-0.03 -0.1834,0.0689 -0.4246,0.21547 -0.7126,0.43512 -0.3318,0.25305 -0.7712,0.51631 -1.1839,0.74 -0.091,0.0475 -0.1801,0.0967 -0.2713,0.14005 -0.1,0.0489 -0.2238,0.12428 -0.307,0.15813 -0.2577,0.10484 -0.5175,0.17287 -0.7772,0.24546 -0.086,0.0247 -0.1706,0.0605 -0.2573,0.0816 -0.4263,0.10179 -0.8513,0.15886 -1.2728,0.17673 -0.1312,0.006 -0.2631,-0.008 -0.3948,-0.0103 -0.3005,-0.006 -0.5965,-0.0281 -0.8884,-0.0754 -0.096,-0.0147 -0.1917,-0.006 -0.2883,-0.0248 -0.089,-0.0173 -0.1703,-0.0619 -0.2579,-0.0842 -0.2019,-0.0518 -0.3963,-0.12133 -0.5912,-0.19327 -0.1412,-0.0548 -0.2837,-0.0971 -0.4206,-0.1633 -1.0139,-0.46316 -1.9076,-1.19737 -2.5694,-2.19728 -0.2043,-0.3086 -0.3564,-0.61649 -0.4697,-0.91622 -0.042,-0.10345 -0.066,-0.20102 -0.097,-0.30283 -0.04,-0.14341 -0.071,-0.28315 -0.089,-0.41961 -0.029,-0.19011 -0.029,-0.36665 -0.011,-0.54105 0.011,-0.11164 0.03,-0.21814 0.059,-0.31988 0.097,-0.31527 0.2583,-0.60137 0.5685,-0.8046 0.213,-0.13956 0.4166,-0.22087 0.6139,-0.24236 0.1973,-0.0215 0.3881,0.0168 0.5741,0.11575 0.1861,0.099 0.3675,0.25878 0.5468,0.48059 0.1793,0.22182 0.3562,0.50561 0.5333,0.85266 0.2927,0.57376 0.7046,1.02796 1.1937,1.34411 0.01,0.006 0.019,0.0148 0.029,0.0212 0.2188,0.13784 0.4576,0.23742 0.7039,0.31729 0.052,0.0164 0.1013,0.0357 0.154,0.0496 0.2465,0.0659 0.5037,0.10233 0.7689,0.10749 0.028,10e-4 0.055,0.005 0.083,0.005 0.3165,-0.002 0.6342,-0.0729 0.9447,-0.17001 0.097,-0.0334 0.1949,-0.0645 0.2904,-0.10697 0.1272,-0.052 0.2415,-0.12712 0.3627,-0.19224 0.9017,-0.52267 1.6269,-1.39288 1.7188,-2.18643 0,-0.0266 0.01,-0.056 0.01,-0.0817 0,-0.0536 0,-0.10668 0,-0.15916 -0.026,-0.21701 -0.1553,-0.4314 -0.4,-0.70383 -0.2202,0.009 -0.8629,-0.69407 -1.4257,-1.44333 -0.4227,-0.47573 -0.7179,-0.9317 -0.8413,-1.37201 -0.013,-0.0382 -0.039,-0.0884 -0.046,-0.12092 -0.035,-0.17542 -0.038,-0.35585 -0.028,-0.5364 0,-0.0817 0.01,-0.16535 0.022,-0.24753 0.038,-0.23147 0.1152,-0.45687 0.216,-0.67283 0.021,-0.046 0.019,-0.0894 0.043,-0.13591 0.026,-0.05 0.067,-0.0766 0.095,-0.1235 0.1029,-0.16994 0.2228,-0.32785 0.3596,-0.46922 0.058,-0.058 0.1205,-0.12051 0.1866,-0.17105 0.1709,-0.14338 0.3552,-0.2682 0.5586,-0.35244 0.2746,-0.11375 0.7696,-0.18704 1.4097,-0.22427 0.07,-0.005 0.1578,-0.005 0.231,-0.009 0.18,-0.008 0.3473,-0.0184 0.5483,-0.0202 z"
         id="path140" /><path
         style="fill:#d3d3d4"
         d="m -1040.9173,-173.14344 c 0.1422,0.008 0.2827,0.0282 0.4196,0.0589 0,8.4e-4 0.01,0.002 0.011,0.003 0.2758,0.0633 0.5358,0.17218 0.7607,0.32969 0.169,0.11838 0.3184,0.25936 0.448,0.41807 2e-4,1.9e-4 4e-4,3.2e-4 6e-4,5.1e-4 0.1294,0.15856 0.2394,0.33441 0.3291,0.52193 10e-5,1.4e-4 0,3.9e-4 0,5.2e-4 0.09,0.18762 0.1598,0.38688 0.2093,0.59221 10e-5,1.6e-4 0,3.6e-4 0,5.2e-4 0.2478,1.02737 -0.011,2.20619 -0.8046,2.83084 -0.2463,0.19379 -0.5305,0.33613 -0.8309,0.42736 -0.3005,0.0912 -0.6171,0.13141 -0.9292,0.12144 -0.3123,-0.01 -0.6196,-0.0704 -0.9012,-0.18035 -0.2812,-0.10981 -0.5365,-0.26882 -0.7447,-0.47698 -10e-5,-9e-5 10e-5,-4.2e-4 0,-5.1e-4 -0.2376,-0.23764 -0.4146,-0.54177 -0.5307,-0.88005 -0.1161,-0.33828 -0.1714,-0.71034 -0.1669,-1.08314 0,-0.3728 0.069,-0.74658 0.1933,-1.08779 0.062,-0.1706 0.1395,-0.33286 0.2315,-0.48317 0.092,-0.15031 0.1986,-0.28856 0.3204,-0.41031 10e-5,-1e-4 4e-4,1e-4 5e-4,0 8e-4,-7.8e-4 0,-0.001 0,-0.002 0.199,-0.19842 0.4392,-0.35614 0.7017,-0.47181 0,-6.3e-4 0,-0.001 0,-0.002 0.2641,-0.11585 0.5504,-0.18916 0.8402,-0.21756 0.1452,-0.0142 0.2913,-0.0172 0.4357,-0.009 z"
         id="path139" /><path
         style="fill:#d3d3d4"
         d="m -1022.8249,-173.16462 c 0.1188,0.004 0.2381,0.0174 0.3576,0.0403 0.239,0.0457 0.4782,0.1298 0.71,0.25529 0.2319,0.12548 0.4564,0.29258 0.6677,0.50384 0.2859,0.28587 0.4975,0.59494 0.6346,0.91726 0,1.3e-4 -10e-5,3.8e-4 0,5.1e-4 0.1369,0.32218 0.1996,0.65727 0.1886,0.99478 0,1.7e-4 0,3.4e-4 0,5.1e-4 -0.01,0.16867 -0.029,0.33788 -0.072,0.50643 -10e-5,1.7e-4 0,3.5e-4 0,5.2e-4 -0.042,0.16856 -0.1028,0.33648 -0.1819,0.50229 -0.1584,0.33182 -0.3907,0.65568 -0.6956,0.96067 -10e-5,9e-5 1e-4,4.2e-4 0,5.1e-4 -0.2454,0.24539 -0.4755,0.4371 -0.7007,0.57723 -0.2253,0.14013 -0.4456,0.22834 -0.6708,0.26665 -0.2252,0.0383 -0.4553,0.0265 -0.7007,-0.0336 -0.2454,-0.0601 -0.506,-0.16844 -0.7917,-0.32349 -0.2327,-0.12627 -0.4281,-0.26122 -0.5902,-0.41342 -0.162,-0.15219 -0.2909,-0.32146 -0.3906,-0.51573 -0.1996,-0.38852 -0.2827,-0.87752 -0.2827,-1.53117 0,-0.30576 0.04,-0.59088 0.1132,-0.85318 10e-5,-3.1e-4 -10e-5,-7.2e-4 0,-10e-4 0,-1.6e-4 -10e-5,-3.6e-4 0,-5.2e-4 2e-4,-7.7e-4 8e-4,-10e-4 10e-4,-0.002 0.073,-0.26149 0.1797,-0.50041 0.3126,-0.71262 0.1326,-0.21167 0.2917,-0.39673 0.4703,-0.55346 0,-9.4e-4 0,-0.002 0,-0.003 0.18,-0.15744 0.3796,-0.28565 0.5927,-0.38137 0.2112,-0.0948 0.4351,-0.15716 0.6656,-0.18552 0,-5.3e-4 0.01,-0.001 0.013,-0.002 0.1143,-0.0134 0.2303,-0.019 0.3468,-0.015 z"
         id="path138" /><path
         style="fill:#d3d3d4"
         d="m -1045.9806,-180.8117 c 0.014,0.0137 -0.066,0.1209 -0.231,0.33073 -0.3456,0.44072 -0.5627,0.58104 -0.5627,0.36328 0,-0.0549 0.2084,-0.2633 0.463,-0.46302 0.2099,-0.16455 0.317,-0.24465 0.3307,-0.23099 z"
         id="path137" /><path
         id="path35"
         style="fill:#d3d3d4"
         d="m -1030.1356,-186.04911 c -0.9422,-0.0326 -2.0211,-0.0326 -3.1093,0.005 -3.0175,0.10477 -3.9506,0.24254 -5.7222,0.84594 -6.8991,2.34976 -10.9826,7.19351 -12.5501,14.8854 -0.3005,1.47447 -0.5467,3.04182 -0.5467,3.48299 0,0.75725 0.07,0.81131 1.2567,0.9679 2.5396,0.33517 5.2188,0.94618 5.7898,1.32033 0.7466,0.48916 1.0014,1.28601 0.6321,1.97611 -0.3434,0.64155 -0.9686,0.67233 -3.2262,0.16123 0,-3.7e-4 0,-1.5e-4 0,-5.2e-4 -0.9185,-0.20805 -2.3549,-0.45989 -3.1916,-0.55965 l -1.5213,-0.18139 v 1.57407 c 0,0.86563 0.063,1.63644 0.1395,1.71307 0.077,0.0766 0.8208,-0.0118 1.6536,-0.19637 0.8329,-0.18458 2.302,-0.41347 3.2644,-0.50901 1.4281,-0.14178 1.8295,-0.0944 2.1829,0.2589 0.9603,0.96026 0.1809,2.51186 -1.262,2.5125 -0.4504,2e-4 -1.8311,0.17848 -3.068,0.39636 -1.237,0.21788 -2.2671,0.39616 -2.2898,0.39636 -0.023,2e-4 -0.012,4.49512 0.025,9.98854 0.036,5.49361 0.068,7.90029 0.199,9.49451 0.1906,0.008 0.3708,-0.005 0.4961,-0.046 0.3182,-0.10312 0.4842,-0.23352 0.6542,-0.36329 0.34,-0.25953 0.6631,-0.57954 1.1307,-1.05471 v 0.002 c 0.9243,-0.93915 1.411,-1.24904 2.2655,-1.52135 2.8234,-0.89984 5.9214,-0.14171 8.9317,2.13475 3.0104,2.27646 5.8314,6.07163 7.783,10.95696 0.2549,0.63792 0.5133,1.23069 0.7111,1.6738 0.099,0.22155 0.1828,0.40594 0.2444,0.53898 0.062,0.13304 0.06,0.13509 0.1209,0.2558 a 1.2907596,1.2907596 0 0 0 0,0.008 c 0.1842,0.35928 0.5541,0.6132 0.8181,0.7028 0.092,0.0311 0.1619,0.0404 0.2351,0.0532 0.027,-1.02179 0.325,-1.59487 0.9907,-1.89807 0.7791,-0.35502 1.587,0.1533 2.0794,1.09709 a 1.2907596,1.2907596 0 0 0 0.5033,-0.8754 c -0.024,0.47039 -0.293,0.76455 -0.4356,0.8847 -0.027,0.0231 -0.028,0.0153 -0.051,0.0315 0.017,0.0346 0.03,0.0748 0.047,0.11059 0.163,-0.024 0.3115,-0.049 0.617,-0.0734 0.8623,-0.0689 2.2414,-0.11937 4.1486,-0.11937 2.7302,0 4.4602,0.0101 5.533,-0.10439 -0.1134,-0.80661 0.01,-1.29896 0.4258,-1.71462 1.0866,-1.08653 2.0054,-0.41041 3.1182,2.2934 1.0511,2.55371 2.8556,5.20485 4.8136,7.07243 l 1.6175,1.54255 2.3027,-0.18139 c 4.95257,-0.39057 10.1042,-1.8125 14.14331,-3.90364 l 1.65003,-0.85421 c 0.0557,-0.2188 0.10349,-0.4229 0.1788,-0.67127 0.47441,-1.56453 0.50226,-2.84913 0.1447,-5.37539 -0.0413,-0.29197 -0.23751,-0.73934 -0.6072,-0.99218 -0.13638,-0.0933 -0.27115,-0.14642 -0.40153,-0.18501 -0.29729,0.82201 -0.5707,1.14884 -1.05523,1.3994 -1.69357,0.87578 -2.42173,0.36822 -4.19923,-2.92902 -1.71179,-3.17537 -5.08101,-7.38573 -7.52515,-9.40356 -1.0326,-0.85255 -3.2889,-2.35825 -5.0141,-3.34605 -3.7728,-2.16033 -4.8901,-3.21591 -6.1919,-5.8508 -0.9837,-1.99082 -0.9901,-2.02696 -0.9922,-5.30821 v -3.30367 l -1.3208,-0.33745 c -0.7265,-0.18561 -2.1224,-0.41683 -3.1022,-0.51366 -0.9799,-0.0968 -1.9504,-0.3095 -2.1564,-0.47284 -0.654,-0.51846 -0.7413,-1.36902 -0.2083,-2.02727 0.4923,-0.60798 0.5179,-0.61013 2.9828,-0.28629 1.3673,0.17965 2.8731,0.39279 3.346,0.47388 l 0.8599,0.14728 v -1.6304 -1.6309 l -1.6536,0.18086 c -0.9095,0.0994 -2.4785,0.38739 -3.4866,0.63976 l -1.833,0.45888 -0.6144,-0.61443 c -0.7628,-0.76282 -0.7653,-0.97219 -0.019,-1.7942 0.6328,-0.69737 2.7851,-1.29038 5.9589,-1.64125 l 1.6588,-0.18345 -0.1535,-0.95705 c -1.0518,-6.56122 -2.4814,-10.12681 -5.3211,-13.26999 -2.3136,-2.56094 -6.7546,-4.90655 -10.5358,-5.56503 -0.5413,-0.0943 -1.3465,-0.15958 -2.2888,-0.19224 z m 6.9572,12.89947 c 0.6982,-0.0839 1.455,0.15066 2.0888,0.78445 1.1435,1.14349 1.0942,2.66267 -0.1261,3.88297 -0.9815,0.98156 -1.7211,1.10752 -2.8639,0.48731 -0.9307,-0.50507 -1.2635,-1.15302 -1.2635,-2.46032 0,-1.53067 1.0011,-2.55453 2.1647,-2.69441 z m -18.1746,0.015 c 0.5808,-0.0569 1.1744,0.0655 1.6268,0.3824 1.352,0.94698 1.4532,3.365 0.1824,4.3646 -0.9853,0.77506 -2.5726,0.72391 -3.406,-0.10904 -0.9505,-0.95055 -0.9263,-2.97044 0.048,-3.94446 0.4004,-0.40043 0.9685,-0.63659 1.5492,-0.6935 z m 9.772,6.12159 c 2.3327,0.0852 2.5767,0.14645 3.2422,0.81235 0.5304,0.5307 0.7127,0.96717 0.693,1.66037 -0.03,1.06776 -1.0965,2.65086 -2.0903,3.10368 -0.7754,0.35328 -0.8138,1.09693 -0.1158,2.24173 1.3909,2.28117 4.622,2.20323 5.6772,-0.13695 0.5716,-1.26756 1.3954,-1.7247 2.2996,-1.2764 1.6061,0.79636 0.2983,4.11373 -2.1208,5.38003 -1.776,0.92965 -4.2164,0.85657 -6.0244,-0.18035 -0.7535,-0.43216 -1.4489,-0.91336 -1.5452,-1.06919 -0.1118,-0.18086 -0.5014,-0.0342 -1.0774,0.40515 -1.7363,1.32435 -3.675,1.8161 -5.641,1.43143 -3.2184,-0.62973 -5.8445,-4.65367 -3.8778,-5.94227 0.8519,-0.55825 1.5599,-0.18157 2.2681,1.20664 0.5942,1.16465 1.6721,1.84847 2.913,1.84847 1.4716,0 3.03,-1.13892 3.3114,-2.42001 0.1485,-0.67598 0.011,-0.90789 -1.1679,-1.96784 -1.5441,-1.38828 -1.9112,-2.48135 -1.2578,-3.74499 0.6,-1.16014 1.5972,-1.45844 4.5139,-1.35185 z m 21.5812,22.23172 c -0.046,0.36054 -0.029,0.7026 0.033,0.83199 0,0.006 -0.025,0.0944 -0.078,-0.28681 -0.01,-0.0476 -0.013,-0.1071 -0.012,-0.19172 0,-0.0846 0.055,-0.35039 0.055,-0.34933 0,1e-5 0,-0.004 0,-0.004 z" /><path
         id="path34"
         style="fill:#05a8f1"
         d="m -1092.3152,-224.44366 c -1.3456,0.029 -2.6103,0.10432 -3.6866,0.22944 -14.4897,1.68442 -27.9923,10.2041 -35.4501,22.36814 -3.8126,6.21853 -6.2685,13.34238 -7.1603,20.76979 -0.6311,5.25645 0.3591,14.24513 2.1715,19.71146 1.8709,5.64231 6.0329,12.82025 9.8061,16.91163 7.0268,7.61944 16.1185,12.89527 25.7798,14.95981 4.262,0.91077 5.7852,1.03852 11.3502,0.95137 4.1387,-0.0648 5.9227,-0.20943 8.1877,-0.66353 6.0592,-1.2148 12.124,-3.66657 16.9524,-6.85281 2.5166,-1.66069 7.9796,-6.19566 8.6972,-7.22023 0.3606,-0.51478 0.4263,-1.49985 0.4263,-6.37119 0,-3.54288 -0.099,-5.76192 -0.2563,-5.76192 -0.141,0 -0.7534,0.25913 -1.3607,0.57567 -1.0025,0.52252 -1.1678,0.5401 -1.7942,0.19017 -0.8455,-0.47234 -1.0541,-1.65806 -0.416,-2.36316 0.2452,-0.27087 1.0873,-0.75854 1.8717,-1.08366 l 1.4263,-0.59117 v -2.19729 -2.19676 l -1.9776,0.16743 c -2.244,0.18968 -2.7849,-0.0525 -2.7849,-1.24592 0,-1.14848 0.5801,-1.50894 2.7585,-1.71307 l 1.9735,-0.185 0.1711,-1.49139 c 0.533,-4.6432 1.9555,-9.18687 3.8897,-12.42249 1.1655,-1.94977 3.9353,-4.77155 5.9717,-6.08387 0.9174,-0.59116 1.8003,-1.11877 1.9616,-1.17254 0.7051,-0.23501 -1.5345,-6.72345 -3.8664,-11.20241 -6.724,-12.91506 -18.1903,-21.59651 -33.2326,-25.16074 -2.6063,-0.61757 -7.3729,-0.94291 -11.4096,-0.85576 z m 1.3554,21.67154 c 0.3914,0 0.8956,0.20836 1.1204,0.46302 0.2248,0.25466 1.3613,2.78474 2.5254,5.6224 1.1641,2.83765 2.6387,6.35 3.2773,7.80521 l 1.1607,2.64583 8.5648,0.72295 c 9.2103,0.77729 9.8098,0.91312 9.8098,2.22829 0,0.82068 0,0.81904 -7.5179,7.36906 -3.1411,2.7361 -5.7113,5.10104 -5.7113,5.25498 0,0.15394 0.8393,3.84386 1.8655,8.20001 1.0276,4.36256 1.83,8.34627 1.786,8.86871 -0.063,0.74727 -0.2254,0.99953 -0.7664,1.18856 -0.7799,0.27251 -0.2022,0.58289 -9.9813,-5.36195 l -6.1697,-3.75067 -7.508,4.5284 c -4.1294,2.4906 -7.7346,4.58768 -8.0119,4.66018 -0.69,0.18045 -1.3767,-0.57797 -1.3767,-1.52032 0,-0.42859 0.5284,-3.00947 1.1741,-5.73556 1.3959,-5.8932 2.5301,-10.90424 2.5301,-11.17813 0,-0.16624 -4.4242,-4.0861 -11.5606,-10.24279 -0.9014,-0.77759 -1.7119,-1.64349 -1.8009,-1.92391 -0.2012,-0.63375 0.2435,-1.50711 0.8594,-1.68827 0.2548,-0.075 4.214,-0.44635 8.7979,-0.82527 4.584,-0.37892 8.4642,-0.73142 8.6232,-0.78342 0.2789,-0.0911 1.2711,-2.34394 5.0142,-11.38793 0.9636,-2.32834 1.9389,-4.4417 2.1678,-4.69636 0.2289,-0.25466 0.7366,-0.46302 1.1281,-0.46302 z m 39.9283,2.02003 c 0.06,0.0257 0.3155,0.0301 0.385,0.0687 -0.014,-0.004 -0.083,0.0138 -0.096,0.0114 -0.3131,-0.0592 -0.2957,-0.0831 -0.2889,-0.0801 z m -0.5803,74.40115 -0.8258,1.54305 c -1.5638,2.9222 -2.8204,4.29516 -6.3815,6.97167 -2.2141,1.66423 -3.0918,2.67435 -2.681,3.08508 0.6582,0.65825 6.7369,0.60888 9.3757,-0.076 2.1991,-0.57076 4.0698,-1.49208 5.3154,-2.61741 1.0237,-0.92482 1.4132,-1.71928 0.8424,-1.71928 -0.4116,0 -3.9805,-4.25553 -4.8442,-5.77639 z" /><path
         style="fill:#040405"
         d="m -1011.9817,-106.35998 c -4.3003,-0.7678 -7.6384,-2.23199 -10.0827,-4.42265 l -1.2944,-1.16005 -3.4396,-0.15014 c -5.3527,-0.23363 -9.5994,-1.2807 -13.715,-3.38151 l -2.0733,-1.05835 -1.5657,1.44955 c -1.7785,1.64657 -3.9245,2.76045 -6.9912,3.62867 -1.7407,0.49284 -2.7892,0.60032 -5.9496,0.60991 -2.3738,0.007 -4.2605,-0.11643 -4.9489,-0.32428 -1.463,-0.44178 -2.6154,-1.44024 -2.9971,-2.59686 -0.6932,-2.1004 0.4367,-4.0888 3.7264,-6.55757 4.1266,-3.09684 6.0622,-5.71547 7.008,-9.48059 0.3832,-1.52561 0.3865,-1.85674 0.032,-3.26782 -0.217,-0.86361 -0.4745,-2.07621 -0.5724,-2.69467 -0.098,-0.61847 -0.2311,-1.12448 -0.2962,-1.12448 -0.065,0 -1.0368,0.75845 -2.1595,1.68545 -4.0967,3.3825 -9.1776,6.25258 -14.7413,8.32689 -10.2344,3.8157 -21.133,4.31718 -32.3323,1.48769 -9.5757,-2.41929 -20.151,-9.0899 -26.7692,-16.88525 -8.0252,-9.45264 -12.462,-21.44391 -12.4667,-33.69342 0,-8.54757 1.6523,-16.01653 5.1496,-23.23073 5.4478,-11.23786 13.7402,-19.44965 25.1436,-24.8992 7.5574,-3.6116 14.4175,-5.15674 22.8864,-5.15481 11.1489,0.003 20.7377,2.96792 30.0008,9.27789 9.7955,6.67256 17.5461,17.23047 20.7802,28.30671 0.4052,1.38796 0.8669,2.49583 1.0259,2.46192 3.7447,-0.7986 9.5688,-0.71435 13.2806,0.19209 4.6434,1.13394 9.284,4.07407 11.8257,7.4923 2.523,3.39315 4.5862,8.96811 4.9971,13.50279 0.1747,1.92747 0.1971,1.97667 0.9715,2.13155 0.436,0.0872 1.3136,0.15855 1.9503,0.15855 1.8496,0 2.8563,1.43841 1.7682,2.52653 -0.3749,0.37492 -0.7619,0.41919 -2.3813,0.27245 l -1.9335,-0.17522 v 1.26781 c 0,0.69729 -0.07,1.68452 -0.1511,2.19384 l -0.1483,0.92604 1.8593,0.83336 c 1.4962,0.67065 1.895,0.97568 2.0422,1.5623 0.1931,0.76939 -0.053,1.36487 -0.7449,1.80122 -0.3056,0.19273 -0.7956,0.0765 -1.8249,-0.43287 -0.7739,-0.383 -1.4709,-0.63212 -1.5489,-0.5536 -0.078,0.0785 -0.1271,1.13081 -0.109,2.33842 0.055,3.64824 1.1563,5.43469 4.3327,7.02558 4.4243,2.21584 10.19445,7.35476 12.97987,11.55988 0.79197,1.19562 1.51511,2.17789 1.60697,2.18281 0.0919,0.005 0.30562,-0.54143 0.475,-1.21411 0.16938,-0.67268 0.61491,-1.83353 0.99005,-2.57968 1.72102,-3.42303 3.73222,-5.1931 5.90056,-5.1931 0.95518,0 1.27491,0.14714 2.00744,0.92386 1.64046,1.73938 2.58846,5.80353 2.02174,8.66729 l -0.2487,1.25677 h 1.63004 c 1.99197,0 4.41116,0.60285 5.88538,1.46662 3.93759,2.3071 2.37464,7.33282 -3.10963,9.99913 -2.5535,1.24144 -5.7072,1.86226 -8.6701,1.70675 -2.26564,-0.11892 -2.27868,-0.11589 -4.92481,1.14408 -1.45924,0.69483 -3.59796,1.57008 -4.75272,1.94502 -2.17447,0.70602 -6.80678,1.73006 -7.82599,1.73006 -0.4563,0 -0.5377,0.10006 -0.3765,0.46302 0.1131,0.25467 0.2507,0.93927 0.3059,1.52136 0.3464,3.65731 -4.5066,5.44184 -11.4351,4.2048 z m 7.6955,-3.60989 c 0.3713,-0.37158 -0.4856,-1.38377 -3.412,-4.03034 -3.3819,-3.05857 -5.3279,-5.78073 -6.3863,-8.93367 -0.8137,-2.42404 -0.843,-3.20591 -0.1462,-3.90278 1.0866,-1.08653 2.0057,-0.41064 3.1185,2.29317 1.0511,2.55371 2.8555,5.20514 4.8135,7.07272 l 1.6173,1.5426 2.303,-0.18162 c 4.95258,-0.39057 10.10424,-1.81242 14.14335,-3.90356 l 2.05082,-1.06175 3.9023,-0.0523 c 3.35595,-0.045 4.11651,-0.13657 5.43222,-0.65403 1.78016,-0.70013 3.49949,-1.96136 4.11981,-3.02212 0.41357,-0.70721 0.40883,-0.7649 -0.0935,-1.13613 -1.63572,-1.20892 -5.56537,-1.46626 -7.57885,-0.49633 -1.1713,0.56424 -2.24729,0.36356 -2.63703,-0.49183 -0.21385,-0.46935 -0.12244,-1.13549 0.40587,-2.95783 0.99466,-3.43092 0.85659,-7.79888 -0.24652,-7.79888 -1.04332,0 -2.7497,3.20091 -3.61148,6.77457 -0.80603,3.3425 -0.99896,3.78617 -1.83424,4.21811 -1.69357,0.87578 -2.42162,0.36788 -4.19912,-2.92936 -1.71179,-3.17537 -5.08112,-7.38567 -7.52523,-9.4035 -1.0326,-0.85255 -3.289,-2.3583 -5.0142,-3.3461 -3.7728,-2.16033 -4.8899,-3.21585 -6.1917,-5.85074 -0.9837,-1.99082 -0.9904,-2.02685 -0.9925,-5.3081 v -3.30368 l -1.3208,-0.33747 c -0.7265,-0.18561 -2.1225,-0.41669 -3.1023,-0.51352 -0.9799,-0.0968 -1.9501,-0.30969 -2.1561,-0.47303 -0.654,-0.51846 -0.7413,-1.36881 -0.2083,-2.02706 0.4923,-0.60798 0.5178,-0.61043 2.9827,-0.28659 1.3673,0.17965 2.8731,0.39299 3.346,0.47408 l 0.8599,0.14745 v -1.63067 -1.63067 l -1.6537,0.1808 c -0.9095,0.0994 -2.4784,0.38728 -3.4865,0.63965 l -1.8329,0.45885 -0.6145,-0.61448 c -0.7628,-0.76282 -0.7651,-0.97226 -0.019,-1.79427 0.6328,-0.69737 2.7848,-1.28999 5.9586,-1.64086 l 1.6591,-0.18341 -0.1535,-0.9574 c -1.0518,-6.56122 -2.4814,-10.12647 -5.3211,-13.26965 -2.3136,-2.56094 -6.7546,-4.9067 -10.5358,-5.56518 -1.0825,-0.1885 -3.222,-0.26265 -5.3984,-0.18709 -3.0175,0.10477 -3.9503,0.24269 -5.7219,0.84609 -6.8991,2.34976 -10.983,7.1934 -12.5505,14.88529 -0.3005,1.47447 -0.5464,3.04181 -0.5464,3.48298 0,0.75725 0.07,0.8114 1.2568,0.96799 2.5396,0.33517 5.2184,0.94604 5.7894,1.32019 0.7466,0.48916 1.0014,1.28585 0.6321,1.97595 -0.3436,0.64201 -0.9685,0.67313 -3.2301,0.16088 -0.9185,-0.20805 -2.3547,-0.45989 -3.1914,-0.55965 l -1.5214,-0.18137 v 1.57389 c 0,0.86563 0.063,1.63659 0.1394,1.71322 0.077,0.0766 0.8208,-0.0117 1.6536,-0.19625 0.8329,-0.18458 2.3018,-0.41377 3.2642,-0.50931 1.4281,-0.14178 1.8294,-0.0941 2.1828,0.25925 0.9603,0.96026 0.1812,2.51156 -1.2617,2.5122 -0.4504,2e-4 -1.8309,0.17863 -3.0678,0.39651 -1.237,0.21788 -2.2675,0.39631 -2.2902,0.39651 -0.023,2e-4 -0.012,4.49497 0.025,9.98839 0.065,9.8739 0.074,10.01976 0.7779,12.76614 1.3755,5.36605 4.2229,9.9513 8.0957,13.03688 4.3679,3.48001 8.2133,4.87489 15.449,5.60397 1.4149,0.14257 1.5343,0.11498 1.3522,-0.31255 -0.7647,-1.79592 -1.7643,-5.17894 -1.9804,-6.70287 -0.2973,-2.0961 -0.059,-3.02176 0.8903,-3.45415 1.2342,-0.56236 2.5447,1.03675 2.5501,3.11179 0,1.01056 1.0836,4.15365 1.9888,5.78256 2.1126,3.80195 5.2887,6.07201 9.9877,7.13861 1.7208,0.39058 7.9158,0.44356 8.2882,0.0709 z m -33.9979,-44.6712 c -3.2184,-0.62973 -5.8445,-4.65406 -3.8778,-5.94266 0.8519,-0.55825 1.5602,-0.18149 2.2684,1.20672 0.5942,1.16465 1.672,1.84869 2.9129,1.84869 1.4716,0 3.0302,-1.13909 3.3116,-2.42018 0.1485,-0.67598 0.011,-0.90772 -1.168,-1.96767 -1.5441,-1.38828 -1.9111,-2.48118 -1.2577,-3.74482 0.6,-1.16014 1.5969,-1.45881 4.5136,-1.35222 2.3327,0.0852 2.5768,0.1464 3.2423,0.8123 0.5304,0.5307 0.7127,0.96755 0.693,1.66075 -0.03,1.06776 -1.0964,2.65084 -2.0902,3.10366 -0.7754,0.35328 -0.8138,1.09689 -0.1158,2.24169 1.3909,2.28117 4.6221,2.20323 5.6773,-0.13695 0.5716,-1.26756 1.3951,-1.72473 2.2993,-1.27643 1.6061,0.79636 0.2986,4.11359 -2.1205,5.37989 -1.776,0.92965 -4.2168,0.85659 -6.0248,-0.18033 -0.7535,-0.43216 -1.4488,-0.91326 -1.5451,-1.06909 -0.1118,-0.18086 -0.5015,-0.0344 -1.0775,0.4049 -1.7363,1.32435 -3.675,1.81642 -5.641,1.43175 z m 14.2044,-13.35385 c -0.9307,-0.50507 -1.2635,-1.15299 -1.2635,-2.46029 0,-2.44908 2.5636,-3.60025 4.2537,-1.91013 1.1435,1.14349 1.0941,2.66297 -0.1262,3.88327 -0.9815,0.98156 -1.7212,1.10736 -2.864,0.48715 z m -18.8703,-0.50158 c -0.9505,-0.95055 -0.9259,-2.97068 0.048,-3.9447 0.8009,-0.80086 2.2711,-0.94493 3.1759,-0.3112 1.352,0.94698 1.4529,3.3651 0.1821,4.3647 -0.9854,0.77516 -2.5728,0.72445 -3.4061,-0.1088 z m -9.1743,53.66937 c 2.1991,-0.57076 4.0699,-1.49189 5.3155,-2.61722 1.0237,-0.92482 1.4128,-1.71939 0.842,-1.71939 -0.4116,0 -3.9802,-4.25551 -4.8439,-5.77637 l -0.8012,-1.41074 -0.8257,1.54303 c -1.5638,2.9222 -2.8203,4.295 -6.3814,6.97151 -2.2141,1.66423 -3.092,2.6742 -2.6812,3.08493 0.6582,0.65825 6.7371,0.60914 9.3759,-0.0757 z m -29.1927,-14.37838 c 6.0592,-1.2148 12.1242,-3.6664 16.9526,-6.85264 2.5166,-1.66069 7.9792,-6.19611 8.6968,-7.22068 0.3606,-0.51478 0.4265,-1.49952 0.4265,-6.37086 0,-3.54288 -0.099,-5.76196 -0.2564,-5.76196 -0.141,0 -0.7533,0.25898 -1.3606,0.57552 -1.0025,0.52252 -1.1677,0.54003 -1.7941,0.1901 -0.8455,-0.47234 -1.0543,-1.65814 -0.4162,-2.36324 0.2452,-0.27087 1.0875,-0.7585 1.8719,-1.08362 l 1.4263,-0.59114 v -2.1969 -2.19689 l -1.9774,0.16715 c -2.244,0.18968 -2.7851,-0.0523 -2.7851,-1.24573 0,-1.14848 0.5803,-1.50886 2.7587,-1.71299 l 1.9731,-0.18489 0.1712,-1.49171 c 0.533,-4.6432 1.9557,-9.18656 3.8899,-12.42218 1.1655,-1.94977 3.9354,-4.77174 5.9718,-6.08406 0.9174,-0.59116 1.7999,-1.11883 1.9612,-1.1726 0.7051,-0.23501 -1.5341,-6.72333 -3.866,-11.20229 -6.724,-12.91506 -18.1906,-21.59651 -33.2329,-25.16074 -3.4751,-0.82342 -10.7908,-1.12707 -15.0961,-0.62658 -14.4897,1.68442 -27.9924,10.20437 -35.4502,22.36841 -3.8126,6.21853 -6.2685,13.34238 -7.1603,20.76979 -0.6311,5.25645 0.3593,14.24513 2.1717,19.71146 1.8709,5.64231 6.033,12.82046 9.8062,16.91184 7.0268,7.61944 16.1182,12.89508 25.7795,14.95962 4.262,0.91077 5.7853,1.03844 11.3503,0.95129 4.1387,-0.0648 5.9226,-0.20938 8.1876,-0.66348 z"
         id="path33" /><path
         id="path182"
         style="fill:#ffffff;fill-opacity:1;stroke:none;stroke-width:2;stroke-linecap:round;stroke-linejoin:round;stroke-dasharray:none;stroke-opacity:1;paint-order:markers stroke fill"
         d="m -1090.9598,-202.77212 c -0.3915,0 -0.8992,0.20836 -1.1281,0.46302 -0.2289,0.25466 -1.2042,2.36802 -2.1678,4.69636 -3.7431,9.04399 -4.7353,11.29683 -5.0142,11.38793 -0.159,0.052 -4.0392,0.4045 -8.6232,0.78342 -4.5839,0.37892 -8.5431,0.75027 -8.7979,0.82527 -0.6159,0.18116 -1.0606,1.05452 -0.8594,1.68827 0.089,0.28042 0.8995,1.14632 1.8009,1.92391 7.1364,6.15669 11.5606,10.07655 11.5606,10.24279 0,0.27389 -1.1342,5.28493 -2.5301,11.17813 -0.6457,2.72609 -1.1741,5.30697 -1.1741,5.73556 0,0.94235 0.6867,1.70077 1.3767,1.52032 0.2773,-0.0725 3.8825,-2.16958 8.0119,-4.66018 l 7.508,-4.5284 6.1697,3.75067 c 9.7791,5.94484 9.2014,5.63446 9.9813,5.36195 0.541,-0.18903 0.7034,-0.44129 0.7664,-1.18856 0.044,-0.52244 -0.7584,-4.50615 -1.786,-8.86871 -1.0262,-4.35615 -1.8655,-8.04607 -1.8655,-8.20001 0,-0.15394 2.5702,-2.51888 5.7113,-5.25498 7.5179,-6.55002 7.5179,-6.54838 7.5179,-7.36906 0,-1.31517 -0.5995,-1.451 -9.8098,-2.22829 l -8.5648,-0.72295 -1.1607,-2.64583 c -0.6386,-1.45521 -2.1132,-4.96756 -3.2773,-7.80521 -1.1641,-2.83766 -2.3006,-5.36774 -2.5254,-5.6224 -0.2248,-0.25466 -0.729,-0.46302 -1.1204,-0.46302 z" /><path
         id="path191"
         style="fill:#ffffff;fill-opacity:1;stroke:none;stroke-width:1.99999;stroke-linecap:round;stroke-linejoin:round;stroke-dasharray:none;stroke-opacity:1;paint-order:markers stroke fill"
         transform="scale(0.26458333)"
         d="m -3872.959,-473.35352 c -0.1204,0.0337 -0.2506,0.0955 -0.3731,0.14258 a 4.8784615,4.8784615 0 0 1 -0.7558,0.85742 c 0.025,0.0476 0.04,0.1061 0.064,0.1543 0.087,-0.0612 0.089,-0.0318 0.1914,-0.11915 0.2372,-0.19985 0.5705,-0.57981 0.8731,-1.03515 z m 38.0371,0.44922 c -4.0547,0.43272 -10.5933,0.39453 -20.9121,0.39453 -7.2083,0 -12.4206,0.19076 -15.6797,0.45117 -1.1547,0.0922 -1.716,0.18664 -2.3321,0.27734 0.9298,1.9921 1.5303,4.39634 1.5372,7.04297 0,3.81944 4.0963,15.69896 7.5175,21.85547 7.9847,14.36958 19.9881,22.94923 37.7481,26.98047 6.5038,1.47621 29.9187,1.67606 31.3262,0.26758 h -0.01 c 1.4033,-1.4044 -1.8361,-5.22964 -12.8965,-15.23242 -12.782,-11.55995 -20.1365,-21.849 -24.1367,-33.76563 -1.2414,-3.69805 -1.8723,-6.20883 -2.1621,-8.27148 z m -113.8164,-59.50391 c -2.7761,0.0752 -5.508,0.53452 -8.1758,1.38477 -3.2296,1.0292 -5.0691,2.20045 -8.5625,5.75 v -0.008 c -1.7673,1.79592 -2.9884,3.00543 -4.2735,3.98633 -0.6425,0.49047 -1.27,0.9833 -2.4726,1.37305 -0.4736,0.15496 -1.1546,0.20406 -1.875,0.17383 -0.067,-0.81229 -0.083,-2.4027 -0.1367,-3.34766 l -0.1153,0.0508 c 0.3553,7.00439 1.0058,10.12929 2.4239,15.66211 5.1987,20.28114 15.9603,37.6114 30.5976,49.27344 16.5086,13.15279 31.0431,18.42411 58.3907,21.17969 5.3476,0.53884 5.7995,0.43617 5.1113,-1.17969 -2.8902,-6.78773 -6.6696,-19.57425 -7.4863,-25.33399 -0.336,-2.36798 -0.4224,-4.23694 -0.379,-5.88281 -0.2766,-0.0484 -0.5409,-0.0836 -0.8886,-0.20117 -0.9978,-0.33865 -2.3956,-1.29834 -3.0918,-2.65625 a 4.8784615,4.8784615 0 0 1 0,-0.0293 c -0.2302,-0.45622 -0.2227,-0.46397 -0.4571,-0.96679 -0.2328,-0.50283 -0.5496,-1.19976 -0.9238,-2.03711 -0.7476,-1.67475 -1.7241,-3.91514 -2.6875,-6.32617 -7.3761,-18.46424 -18.0381,-32.80817 -29.416,-41.41211 -8.5331,-6.45296 -17.2537,-9.67872 -25.582,-9.45313 z m 233.916,12.02539 c -3.9433,0 -10.3913,12.09872 -13.6485,25.60547 -1.2789,5.30362 -2.132,8.40138 -2.9453,10.65039 0.4928,0.14585 1.0022,0.34659 1.5176,0.69922 1.3973,0.95562 2.1388,2.64649 2.2949,3.75 1.3514,9.54807 1.2462,14.40322 -0.5468,20.31641 -0.2847,0.93872 -0.4653,1.71014 -0.6758,2.53711 l -3.0645,1.58789 4.5801,-2.3711 14.7481,-0.19726 c 12.6839,-0.17008 15.5584,-0.51495 20.5312,-2.47071 6.7282,-2.64616 13.2278,-7.41465 15.5723,-11.42382 1.5631,-2.67292 1.545,-2.8899 -0.3535,-4.29297 -6.1823,-4.56915 -21.0346,-5.54283 -28.6446,-1.87696 -4.4269,2.13256 -8.4937,1.37555 -9.9668,-1.85742 -0.8082,-1.77392 -0.4635,-4.2921 1.5332,-11.17969 3.7594,-12.96725 3.2376,-29.47656 -0.9316,-29.47656 z" /></g><g
       id="g375"><path
         style="fill:none"
         d="m -1463.4931,-170.4929 v -135.46666 h 135.4666 135.4667 v 135.46666 135.46666 h -135.4667 -135.4666 z"
         id="path32" /><path
         style="fill:#d5d5d5"
         d="m -1321.6678,-190.20875 c 2.2054,-1.14049 2.0656,-4.75152 -0.2261,-5.83903 -3.2642,-1.54896 -5.7482,3.19018 -2.9196,5.57027 0.9111,0.76665 2.0025,0.8599 3.1457,0.26876 z"
         id="path136" /><path
         style="fill:#d5d5d5"
         d="m -1342.9541,-190.37393 c 1.9496,-0.95153 1.8556,-4.61215 -0.145,-5.6467 -2.0855,-1.07845 -4.2435,0.42718 -4.241,2.95895 0,2.47999 2.1346,3.78658 4.386,2.68775 z"
         id="path135" /><path
         style="fill:#d5d5d5"
         d="m -1336.2286,-175.24478 c 0.6549,-0.32885 1.5109,-0.89789 1.9023,-1.26451 l 0.7117,-0.6666 1.1051,0.94593 c 2.8308,2.423 6.9987,2.33967 9.6036,-0.19202 2.1208,-2.06116 2.5728,-4.70543 0.9046,-5.29209 -1.054,-0.3707 -1.9752,0.15949 -2.4832,1.42934 -0.7705,1.92558 -2.8373,2.79566 -4.7463,1.99804 -1.4077,-0.58818 -1.8758,-1.068 -2.4123,-2.47303 -0.3951,-1.03435 -0.4058,-1.22327 -0.076,-1.32557 0.2118,-0.0656 0.9438,-0.6914 1.6267,-1.39063 1.9346,-1.98073 2.0042,-3.722 0.2023,-5.05966 -0.5179,-0.3845 -1.2483,-0.52254 -3.175,-0.60003 -2.9095,-0.11703 -4.1588,0.13575 -4.9774,1.00709 -1.4105,1.50136 -0.7737,3.95781 1.4166,5.46479 1.0418,0.71674 1.1736,0.9124 1.0341,1.53523 -0.4161,1.85789 -2.603,3.38071 -4.4517,3.09983 -1.394,-0.2118 -2.1742,-0.83148 -3.0188,-2.39767 -0.5884,-1.09104 -0.8465,-1.32481 -1.5365,-1.39189 -0.6406,-0.0623 -0.9567,0.0813 -1.3891,0.63099 -0.721,0.91671 -0.7051,1.303 0.1225,2.9638 0.7787,1.56253 2.272,2.86456 3.8933,3.39456 1.5814,0.51696 4.2739,0.32198 5.7432,-0.4159 z"
         id="path134" /><path
         id="path133"
         style="fill:#d5d5d5"
         d="m -1333.3098,-211.67493 c -2.8876,-0.0637 -5.7917,0.28268 -8.2104,1.02215 -5.362,1.63935 -10.1311,5.51039 -12.4803,10.12962 -1.7432,3.42762 -2.7058,6.74091 -3.2427,11.16521 l -0.167,1.37563 0.8677,0.12454 c 6.3552,0.91069 7.9281,1.39025 8.415,2.56573 0.2673,0.64519 0.2484,0.8828 -0.1142,1.43609 -0.5265,0.80359 -1.0037,0.82295 -3.9073,0.15916 -1.2121,-0.27708 -2.888,-0.57552 -3.7248,-0.66352 l -1.5214,-0.1602 v 2.00453 c 0,1.78675 0.05,1.98893 0.4631,1.86242 1.0418,-0.31935 5.2408,-0.95188 6.3184,-0.95188 1.8856,0 2.8066,1.3667 1.7513,2.59881 -0.3652,0.42634 -1.1062,0.63051 -3.5057,0.96583 -1.6735,0.23385 -3.4332,0.54982 -3.9103,0.70228 -0.8169,0.26102 -0.8575,0.33155 -0.693,1.2082 0.096,0.51204 0.1949,5.76997 0.2196,11.68455 l 0.039,9.2382 c 0.097,0.0184 0.1821,0.0129 0.2361,-0.004 0.08,-0.0246 0.138,-0.0561 0.1969,-0.092 0.1178,-0.0718 0.2368,-0.16565 0.371,-0.28319 0.2684,-0.23509 0.5897,-0.56389 0.9163,-0.94309 2.4138,-2.80225 5.9691,-3.49429 9.7363,-2.37505 3.7672,1.11924 7.7064,4.08389 10.6836,8.58604 1.5845,2.39602 3.5135,6.18801 4.2127,8.25944 0.3191,0.94552 0.457,1.44752 0.7973,1.78904 0.1276,0.128 0.324,0.18119 0.5101,0.18758 0.085,-0.11111 0.1808,-0.22059 0.3168,-0.35656 0.7647,-0.76467 1.326,-0.24802 2.2753,-0.27629 l 0.7865,-0.0234 h 5.5428 6.0234 l 0.6878,0.002 c 0.2971,-1.30831 1.7513,-1.90988 2.7849,-0.98328 0.2841,0.25467 0.8527,1.29645 1.2635,2.3151 1.2666,3.14117 2.7701,5.44544 5.1629,7.91218 l 2.2862,2.35696 1.9632,-0.0475 c 5.1911,-0.12626 12.4772,-2.00348 17.2511,-4.44469 l 0.8098,-0.41393 c 0.014,-0.0813 0.038,-0.19285 0.072,-0.32815 0.073,-0.28343 0.185,-0.65382 0.3147,-1.03507 0.5152,-1.51584 0.6653,-3.6061 0.4315,-5.67769 -0.029,-0.25591 -0.053,-0.45433 -0.084,-0.61754 -0.031,-0.16321 -0.045,-0.29197 -0.1742,-0.45113 -0.053,-0.0665 -0.1506,-0.12782 -0.2548,-0.15917 -0.8778,1.13071 -2.5126,1.5495 -3.624,0.67335 -0.3928,-0.30962 -1.2615,-1.60101 -1.9307,-2.86959 -2.5622,-4.85694 -6.7627,-9.8734 -10.7166,-12.79922 -1.0914,-0.80761 -3.3358,-2.22985 -4.9873,-3.16053 -3.401,-1.91672 -5.1455,-3.49887 -6.349,-5.75676 -1.2852,-2.41143 -1.7155,-4.68257 -1.5208,-8.0269 l 0.1648,-2.83083 -0.9963,-0.28577 c -0.5478,-0.15736 -2.2459,-0.46948 -3.7739,-0.6935 -3.5112,-0.51478 -4.4269,-1.33746 -3.2923,-2.95744 0.3286,-0.46913 0.6693,-0.58808 1.6851,-0.58808 1.1698,0 5.3447,0.61742 6.4358,0.95188 0.413,0.12661 0.463,-0.0769 0.463,-1.88619 v -2.0283 l -1.6536,0.18087 c -0.9095,0.0992 -2.487,0.36149 -3.5057,0.58291 -3.224,0.70081 -3.2949,0.70458 -3.8468,0.20515 -0.5939,-0.53745 -0.6783,-1.65553 -0.1768,-2.34146 0.4419,-0.60432 3.1824,-1.35829 6.4198,-1.76578 l 2.5595,-0.32195 -0.1762,-1.79007 c -0.4004,-4.06307 -2.0207,-9.027 -3.8907,-11.9202 -2.939,-4.54723 -8.3902,-8.21544 -13.933,-9.37514 -1.6125,-0.33736 -3.3389,-0.523 -5.0715,-0.5612 z m -10.9167,15.3081 c 1.484,0.086 2.7063,1.39474 2.7063,3.2644 0,2.18732 -1.8305,3.58762 -3.9129,2.99362 -2.3428,-0.66828 -2.5703,-4.75289 -0.3292,-5.91178 0.5172,-0.26745 1.0412,-0.37491 1.5358,-0.34624 z m 21.1538,0.016 c 0.3748,0.014 0.7707,0.10921 1.1787,0.30283 1.1128,0.52808 1.8051,1.64845 1.8051,2.92127 0,2.71779 -2.7866,4.27983 -4.7248,2.64893 -2.475,-2.08258 -0.8826,-5.97107 1.741,-5.87303 z m -11.8908,7.23677 c 0.5338,-0.018 1.1602,-0.013 1.9053,0.0103 1.9493,0.061 2.6575,0.18892 3.175,0.57309 1.795,1.33248 1.7231,3.07654 -0.2087,5.05447 -0.6829,0.69923 -1.415,1.32499 -1.6268,1.39061 -0.3301,0.1023 -0.3194,0.29115 0.076,1.3255 0.5365,1.40503 1.0045,1.88506 2.4122,2.47324 1.935,0.80848 3.7435,0.0418 4.7946,-2.03244 0.712,-1.40502 1.5484,-1.82581 2.6396,-1.3286 1.448,0.65972 0.9214,3.16829 -1.0868,5.17643 -2.583,2.58303 -6.7678,2.68796 -9.6262,0.24133 l -1.1049,-0.94568 -0.7116,0.66663 c -1.8476,1.73058 -5.2227,2.472 -7.6455,1.68 h -5e-4 c -1.6213,-0.53 -3.1146,-1.8321 -3.8933,-3.39463 -0.8276,-1.6608 -0.8435,-2.04693 -0.1225,-2.96364 0.4324,-0.54969 0.7485,-0.69325 1.3891,-0.63097 0.69,0.0671 0.9479,0.30112 1.5363,1.39216 0.8446,1.56619 1.6249,2.18547 3.0189,2.39727 1.8438,0.28014 4.0364,-1.24192 4.4494,-3.08921 0.1366,-0.61107 -0.01,-0.8226 -1.1049,-1.61024 -2.2011,-1.5813 -2.7764,-4.05737 -1.2712,-5.4715 0.6373,-0.59869 1.4051,-0.86013 3.0065,-0.91416 z" /><path
         style="fill:#d5d5d5"
         d="m -1332.2598,-115.35694 c -13.7776,-0.70227 -22.2327,-1.78259 -24.9534,-3.18835 -1.0224,-0.52826 -0.8699,-1.40353 0.3471,-1.99301 2.9985,-1.45226 15.8137,-2.7763 28.0958,-2.90279 3.9431,-0.0406 5.6849,-0.14644 5.5675,-0.33827 -0.094,-0.15354 0.4788,0.28841 1.273,0.98213 2.7094,2.36669 7.333,4.30532 11.8399,4.96431 2.9908,0.43732 8.5843,0.22826 9.977,-0.3729 1.9324,-0.83415 3.3072,-2.60362 3.3072,-4.25671 0,-0.36848 0.098,-0.66996 0.2177,-0.66996 0.7665,0 10.8788,1.40472 12.6146,1.75232 2.5899,0.51862 4.1011,1.23735 4.1011,1.95043 0,1.01085 -2.4314,1.7765 -8.3344,2.62456 -7.6894,1.1047 -13.5662,1.41088 -28.3104,1.47496 -7.7126,0.0335 -14.7968,0.0215 -15.7427,-0.0267 z"
         id="path31" /><path
         style="fill:#12b5f3"
         d="m -1365.8619,-127.22831 c -0.2183,-0.0562 -0.8434,-0.17513 -1.3891,-0.26417 -1.9134,-0.31223 -1.2735,-1.32041 2.7318,-4.30397 3.7614,-2.80188 5.9292,-5.3162 7.2554,-8.41516 0.4027,-0.94085 0.4776,-0.99675 0.7532,-0.56166 1.889,2.98261 2.7281,4.08028 4.6343,6.06229 1.9864,2.06539 2.1847,2.36051 1.8581,2.76543 -1.4649,1.81641 -4.5087,3.48153 -7.6416,4.18043 -1.8449,0.41157 -7.3022,0.76874 -8.2021,0.53681 z"
         id="path30" /><path
         style="fill:#040404"
         d="m -1311.0047,-117.96801 c -4.3586,-0.79085 -8.7147,-2.77264 -11.144,-5.06989 -1.4708,-1.3908 -1.5291,-1.41751 -3.0931,-1.41773 -6.5518,-9.1e-4 -13.1072,-1.4752 -18.3068,-4.11712 l -2.6921,-1.36788 -1.807,1.75557 c -2.618,2.54358 -6.1867,4.14834 -10.6893,4.8067 -2.8672,0.41924 -8.9771,0.19204 -10.5569,-0.39256 -2.0661,-0.76453 -3.1826,-2.20964 -3.1826,-4.11943 0,-2.24102 1.3304,-4.04476 4.8704,-6.60348 4.3549,-3.14773 6.5992,-6.23263 7.7487,-10.6507 0.4009,-1.5412 0.4169,-1.971 0.1231,-3.30729 -1.1671,-5.3077 -1.2072,-5.81483 -1.2302,-15.55879 -0.012,-5.23875 -0.048,-10.02596 -0.079,-10.63825 l -0.056,-1.11324 -1.615,0.7638 c -1.8322,0.86648 -2.597,0.7767 -3.0001,-0.3522 -0.4755,-1.33131 0.058,-2.05609 2.334,-3.173 l 2.077,-1.01914 -0.1596,-0.96524 c -0.088,-0.53088 -0.161,-1.66248 -0.1626,-2.51467 v -1.54945 l -2.3377,0.18503 c -2.6238,0.20766 -3.2185,-0.0548 -3.2185,-1.4201 0,-1.35129 0.4934,-1.66024 3.1359,-1.96353 2.136,-0.24517 2.4471,-0.34645 2.5415,-0.8274 0.059,-0.30141 0.3039,-1.91218 0.544,-3.57949 1.1596,-8.05345 4.492,-14.34616 9.6595,-18.23993 6.3807,-4.80803 14.8002,-6.5649 23.5274,-4.90938 9.3589,1.77535 16.1529,7.46711 19.4075,16.2589 1.0137,2.73831 1.908,6.53413 2.1904,9.29739 l 0.1796,1.75676 0.9587,0.15855 c 0.5272,0.0872 1.3973,0.15987 1.9336,0.16147 2.0538,0.006 3.1507,1.05978 2.603,2.50036 -0.3933,1.03434 -1.0074,1.20671 -3.129,0.8783 -1.0446,-0.16167 -1.9456,-0.24322 -2.0024,-0.18121 -0.057,0.062 -0.1813,1.24385 -0.2767,2.62629 l -0.1736,2.51355 1.7947,0.79375 c 2.1486,0.95023 2.7225,1.47152 2.7225,2.47253 0,1.50488 -1.4757,2.05839 -3.0114,1.12951 -0.4538,-0.27445 -1.1061,-0.58433 -1.4497,-0.68863 l -0.6248,-0.18962 0.097,3.00373 c 0.085,2.6408 0.1861,3.1862 0.8372,4.51394 0.8609,1.75585 1.6948,2.45891 5.3427,4.50449 1.4552,0.81603 3.6097,2.20202 4.7879,3.07999 3.0314,2.25906 7.3111,6.84146 9.3673,10.03002 0.9459,1.46677 1.7844,2.67509 1.8633,2.68514 0.079,0.01 0.2933,-0.54728 0.4763,-1.2385 0.6775,-2.55874 2.4169,-5.66537 4.1328,-7.38134 4.0844,-4.08435 7.6471,-2.3073 8.881,4.4298 0.2797,1.52663 0.2026,4.18196 -0.1644,5.66352 -0.1224,0.49383 0.01,0.53163 1.986,0.56614 5.0869,0.0889 9.2833,2.66003 9.2833,5.68797 0,2.44039 -2.6059,5.79647 -5.8068,7.47852 -3.0234,1.58873 -5.3417,2.08536 -9.9359,2.12851 l -3.9687,0.0373 -2.1167,1.08219 c -3.6102,1.84579 -8.2516,3.31312 -13.2091,4.17596 -1.2987,0.22603 -2.4005,0.45028 -2.4486,0.49835 -0.048,0.0481 0.045,0.46764 0.2072,0.93239 0.8471,2.43007 -0.7262,4.94868 -3.6568,5.85384 -2.0436,0.63121 -7.2085,0.70085 -10.3053,0.13895 z m 8.4767,-3.82731 c 2.1499,-0.49879 1.9686,-0.86998 -2.1971,-4.49846 -3.2347,-2.81753 -5.3788,-5.34436 -6.7355,-7.93796 -1.107,-2.11632 -2.0138,-4.82247 -2.0138,-6.01007 0,-1.63853 1.6827,-2.51431 2.8391,-1.47766 0.2841,0.25466 0.8526,1.29646 1.2634,2.31511 1.2666,3.14117 2.7702,5.44539 5.163,7.91213 l 2.2865,2.35715 1.9631,-0.0478 c 5.1911,-0.12626 12.4772,-2.00352 17.2511,-4.44473 l 2.439,-1.24723 4.3656,-0.0382 c 4.6209,-0.0404 5.8943,-0.27879 8.4773,-1.58677 1.3702,-0.69382 3.429,-2.79313 3.429,-3.49649 0,-1.6657 -5.6879,-2.59204 -8.6783,-1.41336 -1.6799,0.66218 -2.383,0.68879 -3.1938,0.12087 -0.7383,-0.51709 -0.6996,-1.10131 0.3284,-4.96255 0.7487,-2.81234 0.8687,-4.79969 0.4018,-6.65393 -0.4407,-1.75014 -0.776,-1.87742 -1.9233,-0.73013 -1.6809,1.68094 -2.7174,4.33154 -3.982,10.18355 -0.4183,1.93557 -2.7387,2.94509 -4.1721,1.8151 -0.3928,-0.30962 -1.2617,-1.60088 -1.9309,-2.86946 -2.5622,-4.85694 -6.7626,-9.87383 -10.7165,-12.79965 -1.0914,-0.80761 -3.3355,-2.22986 -4.987,-3.16054 -3.401,-1.91672 -5.1456,-3.49843 -6.3491,-5.75632 -1.2852,-2.41143 -1.7156,-4.68269 -1.5209,-8.02702 l 0.1648,-2.83076 -0.9961,-0.28612 c -0.5478,-0.15736 -2.2462,-0.4694 -3.7742,-0.69342 -3.5112,-0.51478 -4.4269,-1.33738 -3.2923,-2.95736 0.3286,-0.46913 0.6694,-0.58803 1.6852,-0.58803 1.1698,0 5.3447,0.6176 6.4358,0.95206 0.413,0.12661 0.463,-0.077 0.463,-1.88625 v -2.02819 l -1.6537,0.1804 c -0.9095,0.0992 -2.487,0.36157 -3.5057,0.58299 -3.224,0.70081 -3.295,0.7046 -3.8469,0.20517 -0.5939,-0.53745 -0.6782,-1.65563 -0.1767,-2.34156 0.4419,-0.60432 3.1824,-1.35797 6.4198,-1.76546 l 2.5598,-0.3222 -0.1764,-1.78997 c -0.4004,-4.06307 -2.0205,-9.02715 -3.8905,-11.92035 -2.939,-4.54723 -8.3904,-8.21522 -13.9332,-9.37492 -4.2999,-0.89964 -9.4121,-0.72224 -13.2819,0.46092 -5.362,1.63935 -10.1314,5.51042 -12.4806,10.12965 -1.7432,3.42762 -2.7053,6.74098 -3.2422,11.16528 l -0.1669,1.3757 0.8672,0.12427 c 6.3552,0.91069 7.9282,1.39029 8.4151,2.56577 0.2673,0.64519 0.2484,0.88288 -0.1142,1.43617 -0.5265,0.80359 -1.0034,0.82303 -3.907,0.15924 -1.2121,-0.27708 -2.8883,-0.57577 -3.7251,-0.66377 l -1.5213,-0.15999 v 2.00451 c 0,1.78675 0.05,1.9891 0.463,1.86259 1.0418,-0.31935 5.2409,-0.95206 6.3185,-0.95206 1.8856,0 2.8066,1.36653 1.7513,2.59864 -0.3652,0.42634 -1.1062,0.63047 -3.5057,0.96579 -1.6735,0.23385 -3.4332,0.54992 -3.9103,0.70238 -0.8169,0.26102 -0.8574,0.33154 -0.6929,1.20819 0.096,0.51204 0.1949,5.77018 0.2196,11.68476 l 0.045,10.75378 0.812,3.04462 c 1.5991,5.99579 3.6216,9.68649 7.3324,13.38047 4.5798,4.55893 10.0068,7.1775 16.964,8.18513 2.5264,0.36591 4.8948,0.50725 4.8948,0.29211 0,-0.0554 -0.3136,-0.91864 -0.697,-1.91823 -0.9894,-2.58008 -1.6661,-5.23427 -1.8564,-7.28144 -0.1536,-1.65294 -0.1206,-1.80785 0.5212,-2.44974 0.8833,-0.88328 1.7586,-0.86914 2.6242,0.0424 0.5384,0.56697 0.7517,1.16569 0.9661,2.71198 0.801,5.776 4.009,10.9375 8.2813,13.32415 1.9516,1.0902 5.2378,2.19648 7.4908,2.52173 2.1554,0.31115 5.5973,0.33296 6.8454,0.0434 z m -39.4438,-53.03365 c -1.6213,-0.53 -3.1146,-1.83203 -3.8933,-3.39456 -0.8276,-1.6608 -0.8435,-2.04709 -0.1225,-2.9638 0.4324,-0.54969 0.7485,-0.69327 1.3891,-0.63099 0.69,0.0671 0.9481,0.30085 1.5365,1.39189 0.8446,1.56619 1.6248,2.18587 3.0188,2.39767 1.8438,0.28014 4.0361,-1.24224 4.4491,-3.08953 0.1366,-0.61107 -0.01,-0.82265 -1.1049,-1.61029 -2.2011,-1.5813 -2.7761,-4.05706 -1.2709,-5.47119 0.8497,-0.79825 1.9312,-0.99729 4.9117,-0.90398 1.9493,0.061 2.6575,0.18884 3.175,0.57301 1.795,1.33248 1.7229,3.0768 -0.2089,5.05473 -0.6829,0.69923 -1.4149,1.32501 -1.6267,1.39063 -0.3301,0.1023 -0.3194,0.29122 0.076,1.32557 0.5365,1.40503 1.0046,1.88485 2.4123,2.47303 1.935,0.80848 3.7437,0.0418 4.7948,-2.0324 0.712,-1.40502 1.5482,-1.82601 2.6394,-1.3288 1.448,0.65972 0.9212,3.16849 -1.087,5.17663 -2.583,2.58303 -6.7675,2.68793 -9.6259,0.2413 l -1.1051,-0.94593 -0.7117,0.6666 c -1.8476,1.73058 -5.2227,2.47241 -7.6455,1.68041 z m -3.4611,-15.27988 c -2.3428,-0.66828 -2.5704,-4.75298 -0.3293,-5.91187 2.0687,-1.06978 4.242,0.42524 4.242,2.91813 0,2.18732 -1.8303,3.58774 -3.9127,2.99374 z m 20.6194,-0.36875 c -2.8286,-2.38009 -0.3446,-7.11923 2.9196,-5.57027 1.1128,0.52808 1.8049,1.64809 1.8049,2.92091 0,2.71779 -2.7863,4.28026 -4.7245,2.64936 z m -32.8463,62.71248 c 3.1329,-0.6989 6.1767,-2.36402 7.6416,-4.18043 0.3266,-0.40492 0.1283,-0.70004 -1.8581,-2.76543 -1.9062,-1.98201 -2.7453,-3.07968 -4.6343,-6.06229 -0.2756,-0.43509 -0.3505,-0.37919 -0.7532,0.56166 -1.3262,3.09896 -3.494,5.61328 -7.2554,8.41516 -4.0053,2.98356 -4.6452,3.99174 -2.7318,4.30397 0.5457,0.089 1.1708,0.20792 1.3891,0.26417 0.8999,0.23193 6.3572,-0.12524 8.2021,-0.53681 z"
         id="path29" /><path
         id="path192"
         style="fill:#ffffff;fill-opacity:1;stroke:none;stroke-width:1.99999;stroke-linecap:round;stroke-linejoin:round;stroke-dasharray:none;stroke-opacity:1;paint-order:markers stroke fill"
         transform="scale(0.26458333)"
         d="m -4822.3653,-583.47266 c -0.1771,-0.0234 -0.3635,-0.0147 -0.5605,0.0273 -0.9458,0.2018 -2.1415,1.14931 -3.7676,2.77539 -6.353,6.35316 -10.2693,16.3724 -15.0488,38.49024 -0.3867,1.78865 -1.2471,3.31747 -2.3497,4.60742 0.087,-0.10413 0.1919,-0.1893 0.2754,-0.29688 0.3939,0.11849 0.7626,0.35023 0.9629,0.60157 0.4883,0.60154 0.5411,1.08822 0.6582,1.70507 0.1172,0.61686 0.2088,1.36677 0.3184,2.33399 0.8836,7.82963 0.3163,15.72982 -1.6309,21.45898 -0.4902,1.44095 -0.9135,2.84088 -1.1894,3.91211 -0.1285,0.51137 -0.2206,0.93296 -0.2735,1.24024 l -1.0371,0.53125 c 7e-4,6.4e-4 0,0.001 0,0.002 l 7.1933,-3.67969 16.5,-0.14453 c 17.4649,-0.15269 22.2766,-1.05255 32.0391,-5.99609 5.1787,-2.62232 12.9609,-10.55648 12.9609,-13.21485 0,-6.29556 -21.4984,-9.79665 -32.8007,-5.34179 -6.3493,2.50272 -9.0059,2.6035 -12.0704,0.45703 -2.7904,-1.95436 -2.6431,-4.16415 1.2422,-18.75782 2.8298,-10.62931 3.2823,-18.14028 1.5176,-25.14843 -0.9109,-3.61742 -1.7018,-5.39877 -2.9414,-5.5625 z m -276.3242,-19.00196 c -8.7102,0.4001 -16.5562,3.91477 -22.543,10.86524 -1.2344,1.43319 -2.4485,2.67592 -3.4629,3.56445 -0.5072,0.44425 -0.9571,0.79894 -1.4023,1.07031 -0.2226,0.13569 -0.4418,0.25468 -0.7442,0.34766 -0.2041,0.0639 -0.5259,0.0852 -0.8925,0.0156 l 0.023,5.72852 3.0703,11.50781 c 6.0439,22.66126 13.6878,36.61077 27.7129,50.57227 17.3095,17.2306 37.8203,27.12718 64.1152,30.93555 9.5486,1.38296 18.5,1.91664 18.5,1.10351 0,-0.20938 -1.1857,-3.47202 -2.6347,-7.25 -3.7395,-9.75148 -6.2964,-19.78219 -7.0157,-27.51953 -0.5805,-6.24733 -0.4569,-6.83372 1.9688,-9.25977 -0.5136,0.5133 -0.8764,0.9261 -1.1973,1.34571 -0.7033,-0.0241 -1.4454,-0.22521 -1.9277,-0.70899 -1.2862,-1.29078 -1.8076,-3.1881 -3.0137,-6.76172 -2.6426,-7.82902 -9.9332,-22.16097 -15.9219,-31.21679 -11.2524,-17.016 -26.1406,-28.22098 -40.3789,-32.45118 -3.5595,-1.05754 -7.068,-1.68691 -10.4726,-1.87109 -1.2767,-0.0691 -2.5389,-0.0747 -3.7832,-0.0176 z m 76.6953,71.68164 c 0.037,-0.0373 0.074,-0.0494 0.1113,-0.084 -0.038,0.0363 -0.073,0.0436 -0.1113,0.082 z m 57.9434,-1.2871 c -0.014,0.0567 -0.043,0.10278 -0.057,0.16015 l -2.5996,-0.008 h -22.7656 -20.9492 l -2.9727,0.0898 c -0.083,0.002 -0.1449,-0.018 -0.2266,-0.0176 0.5159,0.3738 1.0329,0.68151 1.5469,1.22266 2.0349,2.14288 2.8401,4.40576 3.6504,10.25 3.0274,21.83055 15.1516,41.33897 31.2988,50.35938 7.3762,4.12044 19.7973,8.30196 28.3125,9.53125 8.1457,1.17588 21.1524,1.25812 25.8711,0.16406 8.1234,-1.88493 7.4402,-3.28922 -8.3027,-17.00195 -12.2256,-10.64894 -20.3293,-20.19937 -25.457,-30.00196 -4.184,-7.99869 -7.6114,-18.22627 -7.6114,-22.71484 0,-0.72204 0.1019,-1.39643 0.2618,-2.0332 z" /></g></g></svg>
