<?xml version="1.0" encoding="UTF-8" standalone="no"?>
<!-- Created with Inkscape (http://www.inkscape.org/) -->

<svg
   viewBox="0 0 100 100"
   xmlns="http://www.w3.org/2000/svg"><defs
     id="defs1" /><g
     id="layer1"
     transform="translate(1805.3597,476.89293)"><g
       id="g375"
       transform="matrix(0.36909469,0,0,0.36909469,-1265.1922,-363.96488)"
       style="stroke-width:2.70933"><path
         style="fill:none;stroke-width:2.70933"
         d="m -1463.4931,-170.4929 v -135.46666 h 135.4666 135.4667 v 135.46666 135.46666 h -135.4667 -135.4666 z"
         id="path32" /><path
         style="fill:#d5d5d5;stroke-width:2.70933"
         d="m -1321.6678,-190.20875 c 2.2054,-1.14049 2.0656,-4.75152 -0.2261,-5.83903 -3.2642,-1.54896 -5.7482,3.19018 -2.9196,5.57027 0.9111,0.76665 2.0025,0.8599 3.1457,0.26876 z"
         id="path136" /><path
         style="fill:#d5d5d5;stroke-width:2.70933"
         d="m -1342.9541,-190.37393 c 1.9496,-0.95153 1.8556,-4.61215 -0.145,-5.6467 -2.0855,-1.07845 -4.2435,0.42718 -4.241,2.95895 0,2.47999 2.1346,3.78658 4.386,2.68775 z"
         id="path135" /><path
         style="fill:#d5d5d5;stroke-width:2.70933"
         d="m -1336.2286,-175.24478 c 0.6549,-0.32885 1.5109,-0.89789 1.9023,-1.26451 l 0.7117,-0.6666 1.1051,0.94593 c 2.8308,2.423 6.9987,2.33967 9.6036,-0.19202 2.1208,-2.06116 2.5728,-4.70543 0.9046,-5.29209 -1.054,-0.3707 -1.9752,0.15949 -2.4832,1.42934 -0.7705,1.92558 -2.8373,2.79566 -4.7463,1.99804 -1.4077,-0.58818 -1.8758,-1.068 -2.4123,-2.47303 -0.3951,-1.03435 -0.4058,-1.22327 -0.076,-1.32557 0.2118,-0.0656 0.9438,-0.6914 1.6267,-1.39063 1.9346,-1.98073 2.0042,-3.722 0.2023,-5.05966 -0.5179,-0.3845 -1.2483,-0.52254 -3.175,-0.60003 -2.9095,-0.11703 -4.1588,0.13575 -4.9774,1.00709 -1.4105,1.50136 -0.7737,3.95781 1.4166,5.46479 1.0418,0.71674 1.1736,0.9124 1.0341,1.53523 -0.4161,1.85789 -2.603,3.38071 -4.4517,3.09983 -1.394,-0.2118 -2.1742,-0.83148 -3.0188,-2.39767 -0.5884,-1.09104 -0.8465,-1.32481 -1.5365,-1.39189 -0.6406,-0.0623 -0.9567,0.0813 -1.3891,0.63099 -0.721,0.91671 -0.7051,1.303 0.1225,2.9638 0.7787,1.56253 2.272,2.86456 3.8933,3.39456 1.5814,0.51696 4.2739,0.32198 5.7432,-0.4159 z"
         id="path134" /><path
         id="path133"
         style="fill:#d5d5d5;stroke-width:2.70933"
         d="m -1333.3098,-211.67493 c -2.8876,-0.0637 -5.7917,0.28268 -8.2104,1.02215 -5.362,1.63935 -10.1311,5.51039 -12.4803,10.12962 -1.7432,3.42762 -2.7058,6.74091 -3.2427,11.16521 l -0.167,1.37563 0.8677,0.12454 c 6.3552,0.91069 7.9281,1.39025 8.415,2.56573 0.2673,0.64519 0.2484,0.8828 -0.1142,1.43609 -0.5265,0.80359 -1.0037,0.82295 -3.9073,0.15916 -1.2121,-0.27708 -2.888,-0.57552 -3.7248,-0.66352 l -1.5214,-0.1602 v 2.00453 c 0,1.78675 0.05,1.98893 0.4631,1.86242 1.0418,-0.31935 5.2408,-0.95188 6.3184,-0.95188 1.8856,0 2.8066,1.3667 1.7513,2.59881 -0.3652,0.42634 -1.1062,0.63051 -3.5057,0.96583 -1.6735,0.23385 -3.4332,0.54982 -3.9103,0.70228 -0.8169,0.26102 -0.8575,0.33155 -0.693,1.2082 0.096,0.51204 0.1949,5.76997 0.2196,11.68455 l 0.039,9.2382 c 0.097,0.0184 0.1821,0.0129 0.2361,-0.004 0.08,-0.0246 0.138,-0.0561 0.1969,-0.092 0.1178,-0.0718 0.2368,-0.16565 0.371,-0.28319 0.2684,-0.23509 0.5897,-0.56389 0.9163,-0.94309 2.4138,-2.80225 5.9691,-3.49429 9.7363,-2.37505 3.7672,1.11924 7.7064,4.08389 10.6836,8.58604 1.5845,2.39602 3.5135,6.18801 4.2127,8.25944 0.3191,0.94552 0.457,1.44752 0.7973,1.78904 0.1276,0.128 0.324,0.18119 0.5101,0.18758 0.085,-0.11111 0.1808,-0.22059 0.3168,-0.35656 0.7647,-0.76467 1.326,-0.24802 2.2753,-0.27629 l 0.7865,-0.0234 h 5.5428 6.0234 l 0.6878,0.002 c 0.2971,-1.30831 1.7513,-1.90988 2.7849,-0.98328 0.2841,0.25467 0.8527,1.29645 1.2635,2.3151 1.2666,3.14117 2.7701,5.44544 5.1629,7.91218 l 2.2862,2.35696 1.9632,-0.0475 c 5.1911,-0.12626 12.4772,-2.00348 17.2511,-4.44469 l 0.8098,-0.41393 c 0.014,-0.0813 0.038,-0.19285 0.072,-0.32815 0.073,-0.28343 0.185,-0.65382 0.3147,-1.03507 0.5152,-1.51584 0.6653,-3.6061 0.4315,-5.67769 -0.029,-0.25591 -0.053,-0.45433 -0.084,-0.61754 -0.031,-0.16321 -0.045,-0.29197 -0.1742,-0.45113 -0.053,-0.0665 -0.1506,-0.12782 -0.2548,-0.15917 -0.8778,1.13071 -2.5126,1.5495 -3.624,0.67335 -0.3928,-0.30962 -1.2615,-1.60101 -1.9307,-2.86959 -2.5622,-4.85694 -6.7627,-9.8734 -10.7166,-12.79922 -1.0914,-0.80761 -3.3358,-2.22985 -4.9873,-3.16053 -3.401,-1.91672 -5.1455,-3.49887 -6.349,-5.75676 -1.2852,-2.41143 -1.7155,-4.68257 -1.5208,-8.0269 l 0.1648,-2.83083 -0.9963,-0.28577 c -0.5478,-0.15736 -2.2459,-0.46948 -3.7739,-0.6935 -3.5112,-0.51478 -4.4269,-1.33746 -3.2923,-2.95744 0.3286,-0.46913 0.6693,-0.58808 1.6851,-0.58808 1.1698,0 5.3447,0.61742 6.4358,0.95188 0.413,0.12661 0.463,-0.0769 0.463,-1.88619 v -2.0283 l -1.6536,0.18087 c -0.9095,0.0992 -2.487,0.36149 -3.5057,0.58291 -3.224,0.70081 -3.2949,0.70458 -3.8468,0.20515 -0.5939,-0.53745 -0.6783,-1.65553 -0.1768,-2.34146 0.4419,-0.60432 3.1824,-1.35829 6.4198,-1.76578 l 2.5595,-0.32195 -0.1762,-1.79007 c -0.4004,-4.06307 -2.0207,-9.027 -3.8907,-11.9202 -2.939,-4.54723 -8.3902,-8.21544 -13.933,-9.37514 -1.6125,-0.33736 -3.3389,-0.523 -5.0715,-0.5612 z m -10.9167,15.3081 c 1.484,0.086 2.7063,1.39474 2.7063,3.2644 0,2.18732 -1.8305,3.58762 -3.9129,2.99362 -2.3428,-0.66828 -2.5703,-4.75289 -0.3292,-5.91178 0.5172,-0.26745 1.0412,-0.37491 1.5358,-0.34624 z m 21.1538,0.016 c 0.3748,0.014 0.7707,0.10921 1.1787,0.30283 1.1128,0.52808 1.8051,1.64845 1.8051,2.92127 0,2.71779 -2.7866,4.27983 -4.7248,2.64893 -2.475,-2.08258 -0.8826,-5.97107 1.741,-5.87303 z m -11.8908,7.23677 c 0.5338,-0.018 1.1602,-0.013 1.9053,0.0103 1.9493,0.061 2.6575,0.18892 3.175,0.57309 1.795,1.33248 1.7231,3.07654 -0.2087,5.05447 -0.6829,0.69923 -1.415,1.32499 -1.6268,1.39061 -0.3301,0.1023 -0.3194,0.29115 0.076,1.3255 0.5365,1.40503 1.0045,1.88506 2.4122,2.47324 1.935,0.80848 3.7435,0.0418 4.7946,-2.03244 0.712,-1.40502 1.5484,-1.82581 2.6396,-1.3286 1.448,0.65972 0.9214,3.16829 -1.0868,5.17643 -2.583,2.58303 -6.7678,2.68796 -9.6262,0.24133 l -1.1049,-0.94568 -0.7116,0.66663 c -1.8476,1.73058 -5.2227,2.472 -7.6455,1.68 h -5e-4 c -1.6213,-0.53 -3.1146,-1.8321 -3.8933,-3.39463 -0.8276,-1.6608 -0.8435,-2.04693 -0.1225,-2.96364 0.4324,-0.54969 0.7485,-0.69325 1.3891,-0.63097 0.69,0.0671 0.9479,0.30112 1.5363,1.39216 0.8446,1.56619 1.6249,2.18547 3.0189,2.39727 1.8438,0.28014 4.0364,-1.24192 4.4494,-3.08921 0.1366,-0.61107 -0.01,-0.8226 -1.1049,-1.61024 -2.2011,-1.5813 -2.7764,-4.05737 -1.2712,-5.4715 0.6373,-0.59869 1.4051,-0.86013 3.0065,-0.91416 z" /><path
         style="fill:#12b5f3;stroke-width:2.70933"
         d="m -1365.8619,-127.22831 c -0.2183,-0.0562 -0.8434,-0.17513 -1.3891,-0.26417 -1.9134,-0.31223 -1.2735,-1.32041 2.7318,-4.30397 3.7614,-2.80188 5.9292,-5.3162 7.2554,-8.41516 0.4027,-0.94085 0.4776,-0.99675 0.7532,-0.56166 1.889,2.98261 2.7281,4.08028 4.6343,6.06229 1.9864,2.06539 2.1847,2.36051 1.8581,2.76543 -1.4649,1.81641 -4.5087,3.48153 -7.6416,4.18043 -1.8449,0.41157 -7.3022,0.76874 -8.2021,0.53681 z"
         id="path30" /><path
         style="fill:#040404;stroke-width:2.70933"
         d="m -1311.0047,-117.96801 c -4.3586,-0.79085 -8.7147,-2.77264 -11.144,-5.06989 -1.4708,-1.3908 -1.5291,-1.41751 -3.0931,-1.41773 -6.5518,-9.1e-4 -13.1072,-1.4752 -18.3068,-4.11712 l -2.6921,-1.36788 -1.807,1.75557 c -2.618,2.54358 -6.1867,4.14834 -10.6893,4.8067 -2.8672,0.41924 -8.9771,0.19204 -10.5569,-0.39256 -2.0661,-0.76453 -3.1826,-2.20964 -3.1826,-4.11943 0,-2.24102 1.3304,-4.04476 4.8704,-6.60348 4.3549,-3.14773 6.5992,-6.23263 7.7487,-10.6507 0.4009,-1.5412 0.4169,-1.971 0.1231,-3.30729 -1.1671,-5.3077 -1.2072,-5.81483 -1.2302,-15.55879 -0.012,-5.23875 -0.048,-10.02596 -0.079,-10.63825 l -0.056,-1.11324 -1.615,0.7638 c -1.8322,0.86648 -2.597,0.7767 -3.0001,-0.3522 -0.4755,-1.33131 0.058,-2.05609 2.334,-3.173 l 2.077,-1.01914 -0.1596,-0.96524 c -0.088,-0.53088 -0.161,-1.66248 -0.1626,-2.51467 v -1.54945 l -2.3377,0.18503 c -2.6238,0.20766 -3.2185,-0.0548 -3.2185,-1.4201 0,-1.35129 0.4934,-1.66024 3.1359,-1.96353 2.136,-0.24517 2.4471,-0.34645 2.5415,-0.8274 0.059,-0.30141 0.3039,-1.91218 0.544,-3.57949 1.1596,-8.05345 4.492,-14.34616 9.6595,-18.23993 6.3807,-4.80803 14.8002,-6.5649 23.5274,-4.90938 9.3589,1.77535 16.1529,7.46711 19.4075,16.2589 1.0137,2.73831 1.908,6.53413 2.1904,9.29739 l 0.1796,1.75676 0.9587,0.15855 c 0.5272,0.0872 1.3973,0.15987 1.9336,0.16147 2.0538,0.006 3.1507,1.05978 2.603,2.50036 -0.3933,1.03434 -1.0074,1.20671 -3.129,0.8783 -1.0446,-0.16167 -1.9456,-0.24322 -2.0024,-0.18121 -0.057,0.062 -0.1813,1.24385 -0.2767,2.62629 l -0.1736,2.51355 1.7947,0.79375 c 2.1486,0.95023 2.7225,1.47152 2.7225,2.47253 0,1.50488 -1.4757,2.05839 -3.0114,1.12951 -0.4538,-0.27445 -1.1061,-0.58433 -1.4497,-0.68863 l -0.6248,-0.18962 0.097,3.00373 c 0.085,2.6408 0.1861,3.1862 0.8372,4.51394 0.8609,1.75585 1.6948,2.45891 5.3427,4.50449 1.4552,0.81603 3.6097,2.20202 4.7879,3.07999 3.0314,2.25906 7.3111,6.84146 9.3673,10.03002 0.9459,1.46677 1.7844,2.67509 1.8633,2.68514 0.079,0.01 0.2933,-0.54728 0.4763,-1.2385 0.6775,-2.55874 2.4169,-5.66537 4.1328,-7.38134 4.0844,-4.08435 7.6471,-2.3073 8.881,4.4298 0.2797,1.52663 0.2026,4.18196 -0.1644,5.66352 -0.1224,0.49383 0.01,0.53163 1.986,0.56614 5.0869,0.0889 9.2833,2.66003 9.2833,5.68797 0,2.44039 -2.6059,5.79647 -5.8068,7.47852 -3.0234,1.58873 -5.3417,2.08536 -9.9359,2.12851 l -3.9687,0.0373 -2.1167,1.08219 c -3.6102,1.84579 -8.2516,3.31312 -13.2091,4.17596 -1.2987,0.22603 -2.4005,0.45028 -2.4486,0.49835 -0.048,0.0481 0.045,0.46764 0.2072,0.93239 0.8471,2.43007 -0.7262,4.94868 -3.6568,5.85384 -2.0436,0.63121 -7.2085,0.70085 -10.3053,0.13895 z m 8.4767,-3.82731 c 2.1499,-0.49879 1.9686,-0.86998 -2.1971,-4.49846 -3.2347,-2.81753 -5.3788,-5.34436 -6.7355,-7.93796 -1.107,-2.11632 -2.0138,-4.82247 -2.0138,-6.01007 0,-1.63853 1.6827,-2.51431 2.8391,-1.47766 0.2841,0.25466 0.8526,1.29646 1.2634,2.31511 1.2666,3.14117 2.7702,5.44539 5.163,7.91213 l 2.2865,2.35715 1.9631,-0.0478 c 5.1911,-0.12626 12.4772,-2.00352 17.2511,-4.44473 l 2.439,-1.24723 4.3656,-0.0382 c 4.6209,-0.0404 5.8943,-0.27879 8.4773,-1.58677 1.3702,-0.69382 3.429,-2.79313 3.429,-3.49649 0,-1.6657 -5.6879,-2.59204 -8.6783,-1.41336 -1.6799,0.66218 -2.383,0.68879 -3.1938,0.12087 -0.7383,-0.51709 -0.6996,-1.10131 0.3284,-4.96255 0.7487,-2.81234 0.8687,-4.79969 0.4018,-6.65393 -0.4407,-1.75014 -0.776,-1.87742 -1.9233,-0.73013 -1.6809,1.68094 -2.7174,4.33154 -3.982,10.18355 -0.4183,1.93557 -2.7387,2.94509 -4.1721,1.8151 -0.3928,-0.30962 -1.2617,-1.60088 -1.9309,-2.86946 -2.5622,-4.85694 -6.7626,-9.87383 -10.7165,-12.79965 -1.0914,-0.80761 -3.3355,-2.22986 -4.987,-3.16054 -3.401,-1.91672 -5.1456,-3.49843 -6.3491,-5.75632 -1.2852,-2.41143 -1.7156,-4.68269 -1.5209,-8.02702 l 0.1648,-2.83076 -0.9961,-0.28612 c -0.5478,-0.15736 -2.2462,-0.4694 -3.7742,-0.69342 -3.5112,-0.51478 -4.4269,-1.33738 -3.2923,-2.95736 0.3286,-0.46913 0.6694,-0.58803 1.6852,-0.58803 1.1698,0 5.3447,0.6176 6.4358,0.95206 0.413,0.12661 0.463,-0.077 0.463,-1.88625 v -2.02819 l -1.6537,0.1804 c -0.9095,0.0992 -2.487,0.36157 -3.5057,0.58299 -3.224,0.70081 -3.295,0.7046 -3.8469,0.20517 -0.5939,-0.53745 -0.6782,-1.65563 -0.1767,-2.34156 0.4419,-0.60432 3.1824,-1.35797 6.4198,-1.76546 l 2.5598,-0.3222 -0.1764,-1.78997 c -0.4004,-4.06307 -2.0205,-9.02715 -3.8905,-11.92035 -2.939,-4.54723 -8.3904,-8.21522 -13.9332,-9.37492 -4.2999,-0.89964 -9.4121,-0.72224 -13.2819,0.46092 -5.362,1.63935 -10.1314,5.51042 -12.4806,10.12965 -1.7432,3.42762 -2.7053,6.74098 -3.2422,11.16528 l -0.1669,1.3757 0.8672,0.12427 c 6.3552,0.91069 7.9282,1.39029 8.4151,2.56577 0.2673,0.64519 0.2484,0.88288 -0.1142,1.43617 -0.5265,0.80359 -1.0034,0.82303 -3.907,0.15924 -1.2121,-0.27708 -2.8883,-0.57577 -3.7251,-0.66377 l -1.5213,-0.15999 v 2.00451 c 0,1.78675 0.05,1.9891 0.463,1.86259 1.0418,-0.31935 5.2409,-0.95206 6.3185,-0.95206 1.8856,0 2.8066,1.36653 1.7513,2.59864 -0.3652,0.42634 -1.1062,0.63047 -3.5057,0.96579 -1.6735,0.23385 -3.4332,0.54992 -3.9103,0.70238 -0.8169,0.26102 -0.8574,0.33154 -0.6929,1.20819 0.096,0.51204 0.1949,5.77018 0.2196,11.68476 l 0.045,10.75378 0.812,3.04462 c 1.5991,5.99579 3.6216,9.68649 7.3324,13.38047 4.5798,4.55893 10.0068,7.1775 16.964,8.18513 2.5264,0.36591 4.8948,0.50725 4.8948,0.29211 0,-0.0554 -0.3136,-0.91864 -0.697,-1.91823 -0.9894,-2.58008 -1.6661,-5.23427 -1.8564,-7.28144 -0.1536,-1.65294 -0.1206,-1.80785 0.5212,-2.44974 0.8833,-0.88328 1.7586,-0.86914 2.6242,0.0424 0.5384,0.56697 0.7517,1.16569 0.9661,2.71198 0.801,5.776 4.009,10.9375 8.2813,13.32415 1.9516,1.0902 5.2378,2.19648 7.4908,2.52173 2.1554,0.31115 5.5973,0.33296 6.8454,0.0434 z m -39.4438,-53.03365 c -1.6213,-0.53 -3.1146,-1.83203 -3.8933,-3.39456 -0.8276,-1.6608 -0.8435,-2.04709 -0.1225,-2.9638 0.4324,-0.54969 0.7485,-0.69327 1.3891,-0.63099 0.69,0.0671 0.9481,0.30085 1.5365,1.39189 0.8446,1.56619 1.6248,2.18587 3.0188,2.39767 1.8438,0.28014 4.0361,-1.24224 4.4491,-3.08953 0.1366,-0.61107 -0.01,-0.82265 -1.1049,-1.61029 -2.2011,-1.5813 -2.7761,-4.05706 -1.2709,-5.47119 0.8497,-0.79825 1.9312,-0.99729 4.9117,-0.90398 1.9493,0.061 2.6575,0.18884 3.175,0.57301 1.795,1.33248 1.7229,3.0768 -0.2089,5.05473 -0.6829,0.69923 -1.4149,1.32501 -1.6267,1.39063 -0.3301,0.1023 -0.3194,0.29122 0.076,1.32557 0.5365,1.40503 1.0046,1.88485 2.4123,2.47303 1.935,0.80848 3.7437,0.0418 4.7948,-2.0324 0.712,-1.40502 1.5482,-1.82601 2.6394,-1.3288 1.448,0.65972 0.9212,3.16849 -1.087,5.17663 -2.583,2.58303 -6.7675,2.68793 -9.6259,0.2413 l -1.1051,-0.94593 -0.7117,0.6666 c -1.8476,1.73058 -5.2227,2.47241 -7.6455,1.68041 z m -3.4611,-15.27988 c -2.3428,-0.66828 -2.5704,-4.75298 -0.3293,-5.91187 2.0687,-1.06978 4.242,0.42524 4.242,2.91813 0,2.18732 -1.8303,3.58774 -3.9127,2.99374 z m 20.6194,-0.36875 c -2.8286,-2.38009 -0.3446,-7.11923 2.9196,-5.57027 1.1128,0.52808 1.8049,1.64809 1.8049,2.92091 0,2.71779 -2.7863,4.28026 -4.7245,2.64936 z m -32.8463,62.71248 c 3.1329,-0.6989 6.1767,-2.36402 7.6416,-4.18043 0.3266,-0.40492 0.1283,-0.70004 -1.8581,-2.76543 -1.9062,-1.98201 -2.7453,-3.07968 -4.6343,-6.06229 -0.2756,-0.43509 -0.3505,-0.37919 -0.7532,0.56166 -1.3262,3.09896 -3.494,5.61328 -7.2554,8.41516 -4.0053,2.98356 -4.6452,3.99174 -2.7318,4.30397 0.5457,0.089 1.1708,0.20792 1.3891,0.26417 0.8999,0.23193 6.3572,-0.12524 8.2021,-0.53681 z"
         id="path29" /><path
         id="path192"
         style="fill:#ffffff;fill-opacity:1;stroke:none;stroke-width:5.41864;stroke-linecap:round;stroke-linejoin:round;stroke-dasharray:none;stroke-opacity:1;paint-order:markers stroke fill"
         transform="scale(0.26458333)"
         d="m -4822.3653,-583.47266 c -0.1771,-0.0234 -0.3635,-0.0147 -0.5605,0.0273 -0.9458,0.2018 -2.1415,1.14931 -3.7676,2.77539 -6.353,6.35316 -10.2693,16.3724 -15.0488,38.49024 -0.3867,1.78865 -1.2471,3.31747 -2.3497,4.60742 0.087,-0.10413 0.1919,-0.1893 0.2754,-0.29688 0.3939,0.11849 0.7626,0.35023 0.9629,0.60157 0.4883,0.60154 0.5411,1.08822 0.6582,1.70507 0.1172,0.61686 0.2088,1.36677 0.3184,2.33399 0.8836,7.82963 0.3163,15.72982 -1.6309,21.45898 -0.4902,1.44095 -0.9135,2.84088 -1.1894,3.91211 -0.1285,0.51137 -0.2206,0.93296 -0.2735,1.24024 l -1.0371,0.53125 c 7e-4,6.4e-4 0,0.001 0,0.002 l 7.1933,-3.67969 16.5,-0.14453 c 17.4649,-0.15269 22.2766,-1.05255 32.0391,-5.99609 5.1787,-2.62232 12.9609,-10.55648 12.9609,-13.21485 0,-6.29556 -21.4984,-9.79665 -32.8007,-5.34179 -6.3493,2.50272 -9.0059,2.6035 -12.0704,0.45703 -2.7904,-1.95436 -2.6431,-4.16415 1.2422,-18.75782 2.8298,-10.62931 3.2823,-18.14028 1.5176,-25.14843 -0.9109,-3.61742 -1.7018,-5.39877 -2.9414,-5.5625 z m -276.3242,-19.00196 c -8.7102,0.4001 -16.5562,3.91477 -22.543,10.86524 -1.2344,1.43319 -2.4485,2.67592 -3.4629,3.56445 -0.5072,0.44425 -0.9571,0.79894 -1.4023,1.07031 -0.2226,0.13569 -0.4418,0.25468 -0.7442,0.34766 -0.2041,0.0639 -0.5259,0.0852 -0.8925,0.0156 l 0.023,5.72852 3.0703,11.50781 c 6.0439,22.66126 13.6878,36.61077 27.7129,50.57227 17.3095,17.2306 37.8203,27.12718 64.1152,30.93555 9.5486,1.38296 18.5,1.91664 18.5,1.10351 0,-0.20938 -1.1857,-3.47202 -2.6347,-7.25 -3.7395,-9.75148 -6.2964,-19.78219 -7.0157,-27.51953 -0.5805,-6.24733 -0.4569,-6.83372 1.9688,-9.25977 -0.5136,0.5133 -0.8764,0.9261 -1.1973,1.34571 -0.7033,-0.0241 -1.4454,-0.22521 -1.9277,-0.70899 -1.2862,-1.29078 -1.8076,-3.1881 -3.0137,-6.76172 -2.6426,-7.82902 -9.9332,-22.16097 -15.9219,-31.21679 -11.2524,-17.016 -26.1406,-28.22098 -40.3789,-32.45118 -3.5595,-1.05754 -7.068,-1.68691 -10.4726,-1.87109 -1.2767,-0.0691 -2.5389,-0.0747 -3.7832,-0.0176 z m 76.6953,71.68164 c 0.037,-0.0373 0.074,-0.0494 0.1113,-0.084 -0.038,0.0363 -0.073,0.0436 -0.1113,0.082 z m 57.9434,-1.2871 c -0.014,0.0567 -0.043,0.10278 -0.057,0.16015 l -2.5996,-0.008 h -22.7656 -20.9492 l -2.9727,0.0898 c -0.083,0.002 -0.1449,-0.018 -0.2266,-0.0176 0.5159,0.3738 1.0329,0.68151 1.5469,1.22266 2.0349,2.14288 2.8401,4.40576 3.6504,10.25 3.0274,21.83055 15.1516,41.33897 31.2988,50.35938 7.3762,4.12044 19.7973,8.30196 28.3125,9.53125 8.1457,1.17588 21.1524,1.25812 25.8711,0.16406 8.1234,-1.88493 7.4402,-3.28922 -8.3027,-17.00195 -12.2256,-10.64894 -20.3293,-20.19937 -25.457,-30.00196 -4.184,-7.99869 -7.6114,-18.22627 -7.6114,-22.71484 0,-0.72204 0.1019,-1.39643 0.2618,-2.0332 z" /></g></g></svg>
