<?xml version="1.0" encoding="utf-8"?>
<!-- Generator: Adobe Illustrator 24.3.0, SVG Export Plug-In . SVG Version: 6.00 Build 0)  -->
<svg version="1.1" id="Layer_1" xmlns="http://www.w3.org/2000/svg" xmlns:xlink="http://www.w3.org/1999/xlink" x="0px" y="0px"
	 viewBox="0 0 100 100" style="enable-background:new 0 0 100 100;" xml:space="preserve">
<style type="text/css">
	.st0{fill:#D5D5D5;}
	.st1{fill:#040404;}
	.st2{fill:#FFFFFF;}
</style>
<g>
	<path id="path136" class="st0" d="M45.1,30.6c2-1,1.8-4.2-0.2-5.2c-2.9-1.4-5.1,2.8-2.6,4.9C43.1,31,44.1,31.1,45.1,30.6L45.1,30.6
		z"/>
	<path id="path135" class="st0" d="M26.2,30.4c1.7-0.8,1.6-4.1-0.1-5c-1.9-1-3.8,0.4-3.8,2.6C22.3,30.2,24.2,31.4,26.2,30.4z"/>
	<path id="path134" class="st0" d="M32.2,43.9c0.6-0.3,1.3-0.8,1.7-1.1l0.6-0.6l1,0.8c2.5,2.1,6.2,2.1,8.5-0.2
		c1.9-1.8,2.3-4.2,0.8-4.7c-0.9-0.3-1.8,0.1-2.2,1.3c-0.7,1.7-2.5,2.5-4.2,1.8c-1.2-0.5-1.7-0.9-2.1-2.2c-0.4-0.9-0.4-1.1-0.1-1.2
		c0.2-0.1,0.8-0.6,1.4-1.2c1.7-1.8,1.8-3.3,0.2-4.5c-0.5-0.3-1.1-0.5-2.8-0.5c-2.6-0.1-3.7,0.1-4.4,0.9c-1.3,1.3-0.7,3.5,1.3,4.8
		c0.9,0.6,1,0.8,0.9,1.4c-0.4,1.6-2.3,3-3.9,2.8c-1.2-0.2-1.9-0.7-2.7-2.1c-0.5-1-0.8-1.2-1.4-1.2c-0.6-0.1-0.8,0.1-1.2,0.6
		c-0.6,0.8-0.6,1.2,0.1,2.6c0.7,1.4,2,2.5,3.5,3C28.5,44.7,30.9,44.5,32.2,43.9L32.2,43.9z"/>
	<path id="path133" class="st0" d="M34.7,11.5c-2.6-0.1-5.1,0.3-7.3,0.9c-4.8,1.5-9,4.9-11.1,9c-1.5,3-2.4,6-2.9,9.9l-0.1,1.2
		l0.8,0.1c5.6,0.8,7,1.2,7.5,2.3c0.2,0.6,0.2,0.8-0.1,1.3c-0.5,0.7-0.9,0.7-3.5,0.1c-1.1-0.2-2.6-0.5-3.3-0.6l-1.3-0.1v1.8
		c0,1.6,0,1.8,0.4,1.7c0.9-0.3,4.6-0.8,5.6-0.8c1.7,0,2.5,1.2,1.6,2.3c-0.3,0.4-1,0.6-3.1,0.9c-1.5,0.2-3,0.5-3.5,0.6
		c-0.7,0.2-0.8,0.3-0.6,1.1c0.1,0.5,0.2,5.1,0.2,10.4l0,8.2c0.1,0,0.2,0,0.2,0c0.1,0,0.1,0,0.2-0.1c0.1-0.1,0.2-0.1,0.3-0.3
		c0.2-0.2,0.5-0.5,0.8-0.8c2.1-2.5,5.3-3.1,8.6-2.1S31,62,33.6,66c1.4,2.1,3.1,5.5,3.7,7.3c0.3,0.8,0.4,1.3,0.7,1.6
		c0.1,0.1,0.3,0.2,0.5,0.2c0.1-0.1,0.2-0.2,0.3-0.3c0.7-0.7,6,14.6,6.9,14.5l11.1,4.5l8.9-2.3l-13.9-17l0.6,0
		c0.3-1.2,1.6-1.7,2.5-0.9c0.3,0.2,0.8,1.2,1.1,2.1c1.1,2.8,2.5,4.8,4.6,7l2,2.1l1.7,0c4.6-0.1,11.1-1.8,15.3-3.9l0.7-0.4
		c0-0.1,0-0.2,0.1-0.3c0.1-0.3,0.2-0.6,0.3-0.9c0.5-1.3,0.6-3.2,0.4-5c0-0.2,0-0.4-0.1-0.5c0-0.1,0-0.3-0.2-0.4
		c0-0.1-0.1-0.1-0.2-0.1c-0.8,1-2.2,1.4-3.2,0.6c-0.3-0.3-1.1-1.4-1.7-2.5c-2.3-4.3-6-8.8-9.5-11.4c-1-0.7-3-2-4.4-2.8
		c-3-1.7-4.6-3.1-5.6-5.1c-1.1-2.1-1.5-4.2-1.3-7.1l0.1-2.5L54.1,42c-0.5-0.1-2-0.4-3.3-0.6c-3.1-0.5-3.9-1.2-2.9-2.6
		c0.3-0.4,0.6-0.5,1.5-0.5c1,0,4.7,0.5,5.7,0.8c0.4,0.1,0.4-0.1,0.4-1.7v-1.8l-1.5,0.2c-0.8,0.1-2.2,0.3-3.1,0.5
		c-2.9,0.6-2.9,0.6-3.4,0.2c-0.5-0.5-0.6-1.5-0.2-2.1c0.4-0.5,2.8-1.2,5.7-1.6l2.3-0.3l-0.2-1.6c-0.4-3.6-1.8-8-3.5-10.6
		c-2.6-4-7.4-7.3-12.4-8.3C37.8,11.7,36.3,11.6,34.7,11.5L34.7,11.5z M25.1,25.1c1.3,0.1,2.4,1.2,2.4,2.9c0,1.9-1.6,3.2-3.5,2.7
		c-2.1-0.6-2.3-4.2-0.3-5.2C24.2,25.2,24.6,25.1,25.1,25.1z M43.8,25.1c0.3,0,0.7,0.1,1,0.3c1,0.5,1.6,1.5,1.6,2.6
		c0,2.4-2.5,3.8-4.2,2.4C40.1,28.5,41.5,25,43.8,25.1L43.8,25.1z M33.3,31.5c0.5,0,1,0,1.7,0c1.7,0.1,2.4,0.2,2.8,0.5
		c1.6,1.2,1.5,2.7-0.2,4.5c-0.6,0.6-1.3,1.2-1.4,1.2c-0.3,0.1-0.3,0.3,0.1,1.2c0.5,1.2,0.9,1.7,2.1,2.2c1.7,0.7,3.3,0,4.3-1.8
		c0.6-1.2,1.4-1.6,2.3-1.2c1.3,0.6,0.8,2.8-1,4.6c-2.3,2.3-6,2.4-8.5,0.2l-1-0.8l-0.6,0.6c-1.6,1.5-4.6,2.2-6.8,1.5h0
		c-1.4-0.5-2.8-1.6-3.5-3c-0.7-1.5-0.7-1.8-0.1-2.6c0.4-0.5,0.7-0.6,1.2-0.6c0.6,0.1,0.8,0.3,1.4,1.2c0.7,1.4,1.4,1.9,2.7,2.1
		c1.6,0.2,3.6-1.1,3.9-2.7c0.1-0.5,0-0.7-1-1.4c-2-1.4-2.5-3.6-1.1-4.9C31.2,31.8,31.9,31.6,33.3,31.5z"/>
	<path id="path30" class="st0" d="M5.9,86.5c-0.2,0-0.7-0.2-1.2-0.2c-1.7-0.3-1.1-1.2,2.4-3.8c3.3-2.5,5.3-4.7,6.4-7.5
		c0.4-0.8,0.4-0.9,0.7-0.5c1.7,2.6,2.4,3.6,4.1,5.4c1.8,1.8,1.9,2.1,1.6,2.5c-1.3,1.6-4,3.1-6.8,3.7C11.5,86.3,6.7,86.7,5.9,86.5
		L5.9,86.5z"/>
	<path id="path29" class="st1" d="M54.5,94.7c-3.9-0.7-7.7-2.5-9.9-4.5c-1.3-1.2-1.4-1.3-2.7-1.3c-5.8,0-11.6-1.3-16.2-3.7L23.3,84
		l-1.6,1.6c-2.3,2.3-5.5,3.7-9.5,4.3c-2.5,0.4-8,0.2-9.4-0.3C1,88.8,0,87.6,0,85.9c0-2,1.2-3.6,4.3-5.9c3.9-2.8,5.9-5.5,6.9-9.4
		c0.4-1.4,0.4-1.7,0.1-2.9c-1-4.7-1.1-5.2-1.1-13.8c0-4.6,0-8.9-0.1-9.4l0-1l-1.4,0.7C7,44.8,6.4,44.8,6,43.8
		c-0.4-1.2,0.1-1.8,2.1-2.8L9.9,40l-0.1-0.9c-0.1-0.5-0.1-1.5-0.1-2.2v-1.4l-2.1,0.2c-2.3,0.2-2.9,0-2.9-1.3c0-1.2,0.4-1.5,2.8-1.7
		c1.9-0.2,2.2-0.3,2.3-0.7c0.1-0.3,0.3-1.7,0.5-3.2c1-7.1,4-12.7,8.6-16.2c5.7-4.3,13.1-5.8,20.9-4.4C48,9.9,54,14.9,56.9,22.7
		c0.9,2.4,1.7,5.8,1.9,8.2l0.2,1.6l0.9,0.1c0.5,0.1,1.2,0.1,1.7,0.1c1.8,0,2.8,0.9,2.3,2.2c-0.3,0.9-0.9,1.1-2.8,0.8
		c-0.9-0.1-1.7-0.2-1.8-0.2c-0.1,0.1-0.2,1.1-0.2,2.3l-0.2,2.2l1.6,0.7c1.9,0.8,2.4,1.3,2.4,2.2c0,1.3-1.3,1.8-2.7,1
		c-0.4-0.2-1-0.5-1.3-0.6l-0.6-0.2l0.1,2.7c0.1,2.3,0.2,2.8,0.7,4c0.8,1.6,1.5,2.2,4.7,4c1.3,0.7,3.2,2,4.2,2.7
		c2.7,2,6.5,6.1,8.3,8.9c0.8,1.3,1.6,2.4,1.7,2.4c0.1,0,0.3-0.5,0.4-1.1c0.6-2.3,2.1-5,3.7-6.5c3.6-3.6,6.8-2,7.9,3.9
		c0.2,1.4,0.2,3.7-0.1,5c-0.1,0.4,0,0.5,1.8,0.5c4.5,0.1,8.2,2.4,8.2,5c0,2.2-2.3,5.1-5.2,6.6c-2.7,1.4-4.7,1.9-8.8,1.9l-3.5,0
		l-1.9,1c-3.2,1.6-7.3,2.9-11.7,3.7c-1.2,0.2-2.1,0.4-2.2,0.4c0,0,0,0.4,0.2,0.8c0.8,2.2-0.6,4.4-3.2,5.2
		C61.9,95.1,57.3,95.2,54.5,94.7L54.5,94.7z M62.1,91.3c1.9-0.4,1.7-0.8-1.9-4c-2.9-2.5-4.8-4.7-6-7c-1-1.9-1.8-4.3-1.8-5.3
		c0-1.5,1.5-2.2,2.5-1.3c0.3,0.2,0.8,1.2,1.1,2.1c1.1,2.8,2.5,4.8,4.6,7l2,2.1l1.7,0c4.6-0.1,11.1-1.8,15.3-3.9l2.2-1.1l3.9,0
		c4.1,0,5.2-0.2,7.5-1.4c1.2-0.6,3-2.5,3-3.1c0-1.5-5-2.3-7.7-1.3c-1.5,0.6-2.1,0.6-2.8,0.1c-0.7-0.5-0.6-1,0.3-4.4
		c0.7-2.5,0.8-4.3,0.4-5.9C86,62.1,85.7,62,84.7,63c-1.5,1.5-2.4,3.8-3.5,9c-0.4,1.7-2.4,2.6-3.7,1.6c-0.3-0.3-1.1-1.4-1.7-2.5
		c-2.3-4.3-6-8.8-9.5-11.4c-1-0.7-3-2-4.4-2.8c-3-1.7-4.6-3.1-5.6-5.1c-1.1-2.1-1.5-4.2-1.3-7.1l0.1-2.5L54.1,42
		c-0.5-0.1-2-0.4-3.3-0.6c-3.1-0.5-3.9-1.2-2.9-2.6c0.3-0.4,0.6-0.5,1.5-0.5c1,0,4.7,0.5,5.7,0.8c0.4,0.1,0.4-0.1,0.4-1.7v-1.8
		l-1.5,0.2c-0.8,0.1-2.2,0.3-3.1,0.5c-2.9,0.6-2.9,0.6-3.4,0.2c-0.5-0.5-0.6-1.5-0.2-2.1c0.4-0.5,2.8-1.2,5.7-1.6l2.3-0.3l-0.2-1.6
		c-0.4-3.6-1.8-8-3.5-10.6c-2.6-4-7.4-7.3-12.4-8.3c-3.8-0.8-8.4-0.6-11.8,0.4c-4.8,1.5-9,4.9-11.1,9c-1.5,3-2.4,6-2.9,9.9l-0.1,1.2
		l0.8,0.1c5.6,0.8,7,1.2,7.5,2.3c0.2,0.6,0.2,0.8-0.1,1.3c-0.5,0.7-0.9,0.7-3.5,0.1c-1.1-0.2-2.6-0.5-3.3-0.6l-1.3-0.1v1.8
		c0,1.6,0,1.8,0.4,1.7c0.9-0.3,4.6-0.8,5.6-0.8c1.7,0,2.5,1.2,1.6,2.3c-0.3,0.4-1,0.6-3.1,0.9c-1.5,0.2-3,0.5-3.5,0.6
		c-0.7,0.2-0.8,0.3-0.6,1.1c0.1,0.5,0.2,5.1,0.2,10.4l0,9.5l0.7,2.7c1.4,5.3,3.2,8.6,6.5,11.9c4.1,4,8.9,6.4,15.1,7.3
		c2.2,0.3,4.3,0.5,4.3,0.3c0,0-0.3-0.8-0.6-1.7c-0.9-2.3-1.5-4.6-1.6-6.5c-0.1-1.5-0.1-1.6,0.5-2.2c0.8-0.8,1.6-0.8,2.3,0
		c0.5,0.5,0.7,1,0.9,2.4c0.7,5.1,3.6,9.7,7.3,11.8c1.7,1,4.6,1.9,6.6,2.2C57.9,91.5,61,91.5,62.1,91.3L62.1,91.3z M27.1,44.2
		c-1.4-0.5-2.8-1.6-3.5-3c-0.7-1.5-0.7-1.8-0.1-2.6c0.4-0.5,0.7-0.6,1.2-0.6c0.6,0.1,0.8,0.3,1.4,1.2c0.7,1.4,1.4,1.9,2.7,2.1
		c1.6,0.2,3.6-1.1,3.9-2.7c0.1-0.5,0-0.7-1-1.4c-2-1.4-2.5-3.6-1.1-4.9c0.8-0.7,1.7-0.9,4.4-0.8c1.7,0.1,2.4,0.2,2.8,0.5
		c1.6,1.2,1.5,2.7-0.2,4.5c-0.6,0.6-1.3,1.2-1.4,1.2c-0.3,0.1-0.3,0.3,0.1,1.2c0.5,1.2,0.9,1.7,2.1,2.2c1.7,0.7,3.3,0,4.3-1.8
		c0.6-1.2,1.4-1.6,2.3-1.2c1.3,0.6,0.8,2.8-1,4.6c-2.3,2.3-6,2.4-8.5,0.2l-1-0.8l-0.6,0.6C32.2,44.3,29.2,44.9,27.1,44.2L27.1,44.2z
		 M24,30.7c-2.1-0.6-2.3-4.2-0.3-5.2c1.8-0.9,3.8,0.4,3.8,2.6C27.5,29.9,25.8,31.2,24,30.7L24,30.7z M42.3,30.3
		c-2.5-2.1-0.3-6.3,2.6-4.9c1,0.5,1.6,1.5,1.6,2.6C46.5,30.4,44,31.8,42.3,30.3z M13.1,86c2.8-0.6,5.5-2.1,6.8-3.7
		c0.3-0.4,0.1-0.6-1.6-2.5c-1.7-1.8-2.4-2.7-4.1-5.4c-0.2-0.4-0.3-0.3-0.7,0.5c-1.2,2.7-3.1,5-6.4,7.5c-3.6,2.6-4.1,3.5-2.4,3.8
		c0.5,0.1,1,0.2,1.2,0.2C6.7,86.7,11.5,86.3,13.1,86L13.1,86z"/>
	<path id="path192" class="st2" d="M85.7,62.4c0,0-0.1,0-0.1,0c-0.2,0-0.5,0.3-0.9,0.7c-1.5,1.5-2.4,3.8-3.5,9
		c-0.1,0.4-0.3,0.8-0.6,1.1c0,0,0,0,0.1-0.1c0.1,0,0.2,0.1,0.2,0.1c0.1,0.1,0.1,0.3,0.2,0.4c0,0.1,0,0.3,0.1,0.5
		c0.2,1.8,0.1,3.7-0.4,5c-0.1,0.3-0.2,0.7-0.3,0.9c0,0.1-0.1,0.2-0.1,0.3l-0.2,0.1c0,0,0,0,0,0l1.7-0.9l3.9,0c4.1,0,5.2-0.2,7.5-1.4
		c1.2-0.6,3-2.5,3-3.1c0-1.5-5-2.3-7.7-1.3c-1.5,0.6-2.1,0.6-2.8,0.1c-0.7-0.5-0.6-1,0.3-4.4c0.7-2.5,0.8-4.3,0.4-5.9
		C86.1,62.8,86,62.4,85.7,62.4L85.7,62.4z M20.8,57.9c-2,0.1-3.9,0.9-5.3,2.6c-0.3,0.3-0.6,0.6-0.8,0.8c-0.1,0.1-0.2,0.2-0.3,0.3
		c-0.1,0-0.1,0.1-0.2,0.1c0,0-0.1,0-0.2,0l0,1.3l0.7,2.7c1.4,5.3,3.2,8.6,6.5,11.9c4.1,4,8.9,6.4,15.1,7.3c2.2,0.3,4.3,0.4,4.3,0.3
		c0,0-0.3-0.8-0.6-1.7c-0.9-2.3-1.5-4.6-1.6-6.5c-0.1-1.5-0.1-1.6,0.5-2.2c-0.1,0.1-0.2,0.2-0.3,0.3c-0.2,0-0.3-0.1-0.5-0.2
		c-0.3-0.3-0.4-0.7-0.7-1.6c-0.6-1.8-2.3-5.2-3.7-7.3c-2.6-4-6.1-6.6-9.5-7.6c-0.8-0.2-1.7-0.4-2.5-0.4
		C21.4,57.9,21.1,57.9,20.8,57.9L20.8,57.9z M38.8,74.7C38.8,74.7,38.8,74.7,38.8,74.7C38.8,74.7,38.8,74.7,38.8,74.7L38.8,74.7z"/>
</g>
</svg>
