<?xml version="1.0" encoding="utf-8"?>
<!-- Generator: Adobe Illustrator 24.3.0, SVG Export Plug-In . SVG Version: 6.00 Build 0)  -->
<svg version="1.1" id="Layer_1" xmlns="http://www.w3.org/2000/svg" xmlns:xlink="http://www.w3.org/1999/xlink" x="0px" y="0px"
	 viewBox="0 0 100 100" style="enable-background:new 0 0 100 100;" xml:space="preserve">
<style type="text/css">
	.st0{fill:#060606;}
	.st1{fill:#FCFCFC;}
	.st2{fill:#FFFFFF;}
	.st3{fill:#D8DDE1;}
	.st4{fill:#020202;}
</style>
<g>
	<path id="path79" class="st0" d="M45.5,99.6c-0.7-0.4-1.1-1.3-1.1-2.5v-0.8l-1,0.5c-1.1,0.6-1.5,0.6-2.3,0.2
		c-0.7-0.4-1.2-1.3-1.2-2.1c0-0.7,0.8-1.7,1.7-2.2l0.6-0.3l-0.9-0.6c-1.6-1-1.8-2.7-0.5-3.8c0.7-0.6,1.7-0.7,2.8-0.2
		c0.4,0.2,0.8,0.3,0.9,0.3c0.1,0,0.2-0.5,0.2-1c0-1.2,0.5-2,1.6-2.3c0.7-0.2,0.9-0.2,1.5,0.1c0.9,0.4,1.4,1.2,1.4,2.5v0.9l0.8-0.4
		c1.9-1,3.7-0.1,3.7,1.7c0,1-0.5,1.8-1.5,2.3l-0.6,0.3l0.5,0.3c1.2,0.8,1.6,1.4,1.6,2.4c0,0.8-0.1,1.1-0.6,1.6
		c-0.8,0.8-1.8,0.9-3.2,0.2l-0.8-0.4v0.8C49.2,99.4,47.3,100.7,45.5,99.6L45.5,99.6z M47.5,98.2c0.1-0.2,0.2-1.3,0.2-2.4
		c0-1.1,0-2,0.1-2c0,0,0.9,0.5,1.9,1c1.5,0.9,1.8,1,2.2,0.8c0.2-0.1,0.4-0.4,0.4-0.7c0-0.4-0.3-0.7-1.7-1.5
		c-0.9-0.6-1.7-1.1-1.7-1.2c0-0.1,0.7-0.6,1.5-1.1c1.6-0.9,2.1-1.4,1.9-1.8c-0.3-0.8-0.8-0.7-2.6,0.3c-1,0.6-1.8,1-1.9,1
		c-0.1,0-0.1-0.9-0.1-2c0-1.6-0.1-2.1-0.3-2.4c-0.4-0.4-0.4-0.4-0.9-0.1c-0.4,0.2-0.4,0.4-0.4,2.4c0,1.2-0.1,2.2-0.2,2.2
		c-0.1,0-0.8-0.4-1.6-0.8c-2.1-1.2-2.3-1.3-2.7-0.8c-0.5,0.6-0.2,0.9,1.7,2.1c0.9,0.5,1.6,1,1.6,1.1c0,0.1-0.8,0.6-1.8,1.2
		c-1.9,1.1-2.3,1.7-1.4,2.2c0.4,0.2,0.7,0.1,2.2-0.8l1.8-1l0.1,2.1c0.1,1.2,0.2,2.2,0.3,2.4C46.4,98.7,47.3,98.6,47.5,98.2
		L47.5,98.2z M16.3,92.1c-0.7-0.4-0.9-0.8-0.9-1.6c0-1-0.1-1.1-0.8-0.7c-1.3,0.6-2.5,0.2-2.9-1c-0.3-0.9,0-1.6,0.9-2.3
		c0.5-0.4,0.6-0.6,0.4-0.7c-0.1-0.1-0.5-0.3-0.8-0.6c-0.4-0.4-0.5-0.7-0.5-1.3c0-0.7,0.1-1,0.7-1.5c0.7-0.7,1.5-0.8,2.3-0.3
		c0.8,0.4,0.8,0.4,0.8-0.5c0-1.1,0.8-1.9,2-1.9c0.7,0,1,0.1,1.4,0.6c0.3,0.4,0.5,0.9,0.5,1.3c0,0.8,0.1,0.8,0.8,0.4
		c0.8-0.4,1.5-0.4,2.3,0.2c0.5,0.4,0.6,0.7,0.6,1.5c0,0.9-0.5,1.7-1.2,2c-0.2,0.1-0.1,0.3,0.5,0.8c1,0.9,1.1,2,0.2,2.9
		c-0.5,0.5-0.6,0.6-1.4,0.5c-0.5-0.1-1.1-0.2-1.3-0.3c-0.4-0.1-0.5-0.1-0.5,0.6C19.3,91.9,17.6,92.9,16.3,92.1L16.3,92.1z
		 M17.8,90.9C17.9,90.7,18,90,18,89c0-0.9,0.1-1.6,0.1-1.6c0.1,0,0.8,0.3,1.5,0.8c1.2,0.7,1.4,0.7,1.7,0.5c0.6-0.5,0.4-0.8-1.1-1.7
		c-0.8-0.5-1.4-0.9-1.4-1c0-0.1,0.7-0.5,1.4-0.9c1.5-0.8,1.8-1.3,1.1-1.8c-0.2-0.2-0.6-0.1-1.8,0.6L18,84.8L18,83.1
		c0-1.3-0.1-1.7-0.4-1.9c-0.7-0.4-1,0.2-1,2c0,0.9,0,1.6-0.1,1.6c0,0-0.6-0.3-1.3-0.7c-1.6-0.9-1.8-1-2.1-0.7
		c-0.5,0.5-0.2,0.9,1.1,1.7c0.7,0.4,1.4,0.8,1.4,0.9c0.1,0.1-0.5,0.5-1.3,1c-1,0.6-1.4,0.9-1.5,1.3c-0.1,0.8,0.5,0.8,2,0
		c0.8-0.4,1.5-0.8,1.5-0.8c0.1,0,0.1,0.8,0.1,1.7c0,0.9,0.1,1.8,0.1,1.9C16.9,91.2,17.5,91.2,17.8,90.9L17.8,90.9z M71.7,90.8
		c-0.8-0.1-1.5-1.2-1.5-2.2c0-0.7-0.1-0.8-0.4-0.7c-0.2,0.1-0.7,0.3-1.1,0.4c-1,0.3-1.7-0.1-2.3-1.1c-0.6-0.9-0.2-2.1,0.8-2.7
		c0.4-0.2,0.7-0.5,0.7-0.5s-0.3-0.3-0.7-0.5c-1.3-0.8-1.4-2.4-0.3-3.4c0.7-0.6,1.3-0.6,2.4-0.2c0.4,0.2,0.8,0.3,0.8,0.3
		c0,0,0.1-0.4,0.1-0.8c0-1.2,0.9-2,2.1-2c1.2,0,1.9,0.7,2.1,2c0.2,1,0.2,1,0.9,0.6c1.5-0.8,3.1,0.2,3.1,2c0,0.5-0.2,0.8-0.8,1.4
		l-0.8,0.8l0.5,0.3c1.3,0.8,1.5,2.3,0.4,3.3c-0.8,0.8-1.2,0.9-2.3,0.4c-1-0.4-1.1-0.4-1.1,0.5C74.3,90,73.1,91,71.7,90.8z
		 M72.9,89.2c0.1-0.1,0.3-1.1,0.3-2l0.1-1.8l1.4,0.8c1.6,0.9,2.1,1,2.4,0.4c0.2-0.5,0-0.7-1.8-1.8c-0.7-0.4-1.3-0.8-1.3-0.8
		c0,0,0.5-0.4,1.2-0.7c1.5-0.9,1.9-1.2,1.9-1.7c0-0.7-0.7-0.7-2.3,0.2l-1.6,0.9v-1.8c0-2-0.2-2.4-1-2.2c-0.4,0.1-0.4,0.3-0.4,2
		c0,1.3-0.1,1.8-0.2,1.8c-0.1,0-0.8-0.3-1.6-0.7c-1.5-0.8-2.2-0.9-2.3-0.1c0,0.3,0.1,0.6,0.6,0.8c0.4,0.2,1.1,0.6,1.7,1l1,0.6
		l-1.7,1c-1.4,0.8-1.7,1.1-1.6,1.4c0.1,0.7,0.8,0.6,2.4-0.3c0.8-0.5,1.5-0.8,1.6-0.8c0,0,0.1,0.9,0.1,1.9c0,1.1,0.1,2,0.1,2.1
		C72,89.6,72.6,89.5,72.9,89.2L72.9,89.2z M57.6,85.2c-0.6-0.2-1-0.8-1-1.2c0-0.4-0.1-0.5-0.8-0.4c-1.1,0.2-1.9-0.5-1.9-1.5
		c0-0.5,0.1-0.9,0.4-1.1c0.4-0.4,0.4-0.4,0-0.8c-0.5-0.5-0.5-1.6,0-2.3c0.3-0.4,0.6-0.5,1.3-0.4c0.8,0,1,0,1-0.4
		c0-0.5,0.9-1.2,1.5-1.2c0.7,0,1.5,0.8,1.5,1.3c0,0.4,0.1,0.5,0.8,0.4c0.7-0.1,0.9,0,1.3,0.4c0.6,0.6,0.7,1.5,0.1,2.2l-0.4,0.5
		l0.4,0.4c0.6,0.6,0.6,1.6-0.1,2.2c-0.5,0.5-0.6,0.5-1.3,0.4c-0.7-0.1-0.8-0.1-0.8,0.3C59.7,84.7,58.5,85.5,57.6,85.2L57.6,85.2z
		 M58.5,83.8c0.1-0.2,0.1-0.8,0.1-1.3v-1l0.9,0.5c0.5,0.3,1,0.5,1.2,0.5c0.7,0,0.3-0.6-0.6-1.2c-0.5-0.3-0.9-0.6-0.9-0.7
		c0-0.1,0.5-0.4,1.1-0.8c0.9-0.6,1-0.7,0.8-1c-0.3-0.3-0.4-0.2-1.2,0.2c-0.5,0.3-1,0.5-1.1,0.5c-0.1,0-0.2-0.5-0.2-1.2
		c-0.1-1-0.1-1.2-0.5-1.2c-0.4,0-0.4,0.2-0.5,1.2c0,0.7-0.1,1.2-0.2,1.2c-0.1,0-0.5-0.2-1-0.5c-0.9-0.5-1.5-0.5-1.5-0.1
		c0,0.1,0.5,0.5,1,0.8c0.6,0.3,1,0.7,1,0.8c0,0.1-0.4,0.4-0.9,0.7c-0.5,0.3-1,0.6-1,0.8c-0.2,0.5,0.6,0.5,1.6,0l1-0.6v1.2
		c0,0.7,0.1,1.3,0.1,1.4C58,84.2,58.4,84.1,58.5,83.8z M32.7,81.6c-0.2-0.2-0.4-0.6-0.4-0.9c0-0.6,0-0.6-0.7-0.3
		c-0.4,0.2-0.7,0.1-1.1-0.1c-0.9-0.5-1.1-1.5-0.4-2.4c0.4-0.5,0.4-0.5,0-1c-0.6-0.7-0.5-1.6,0.1-2.2c0.5-0.5,0.6-0.5,1.3-0.4
		c0.7,0.1,0.8,0.1,0.8-0.3c0-1.5,2.9-1.7,3.1-0.2c0.1,0.4,0.2,0.5,0.9,0.5c1.1,0,1.7,0.5,1.7,1.5c0,0.5-0.1,0.9-0.4,1.1
		c-0.4,0.4-0.4,0.4,0,0.8c0.5,0.5,0.5,1.6,0,2.2c-0.4,0.5-1.1,0.6-1.8,0.3c-0.4-0.1-0.5-0.1-0.5,0.3C35.4,81.9,33.6,82.5,32.7,81.6
		L32.7,81.6z M34.3,79.4v-1.1l1.1,0.5c1,0.5,1.6,0.5,1.6,0.1c0-0.1-0.5-0.5-1.1-0.9c-1-0.6-1.1-0.7-0.6-1c0.2-0.2,0.7-0.5,1.1-0.7
		c0.4-0.2,0.6-0.5,0.6-0.6c0-0.5-0.7-0.4-1.5,0.1c-0.5,0.3-1,0.5-1,0.5c-0.1,0-0.1-0.5-0.1-1.1c0-1.2-0.3-1.7-0.8-1.4
		c-0.2,0.1-0.3,0.7-0.3,1.3v1.1l-1-0.5c-1.2-0.6-1.5-0.6-1.5-0.2c0,0.2,0.5,0.6,1.1,1l1.1,0.6L31.9,78c-0.6,0.4-1.1,0.8-1.1,1
		c0,0.5,0.3,0.5,1.4-0.2c0.5-0.3,0.9-0.5,1-0.5c0,0,0.1,0.5,0.1,1.2c0,0.8,0.1,1.3,0.3,1.3C34.1,81.1,34.3,80.6,34.3,79.4z
		 M45.5,77.1c-0.6-0.3-1.1-1.4-1.1-2.3c0-0.4,0-0.7-0.1-0.7s-0.5,0.2-0.9,0.4c-1.2,0.6-1.8,0.5-2.6-0.3c-1.2-1.2-0.9-2.9,0.8-3.7
		l0.6-0.3l-0.8-0.5c-1.1-0.7-1.3-1.1-1.3-2c0-1,0.5-1.8,1.5-2.1c0.6-0.2,0.9-0.2,1.7,0.2c0.5,0.2,1,0.4,1,0.4c0,0,0.1-0.3,0.1-0.6
		c0-1.5,1-2.7,2.3-2.7c0.7,0,1.8,0.7,2,1.4c0.1,0.3,0.2,0.8,0.2,1.2c0,0.8,0.1,0.8,1,0.4c1.6-0.9,3.4,0.1,3.4,1.8
		c0,1-0.4,1.5-1.3,2.1l-0.6,0.4l0.9,0.9c0.8,0.8,0.9,1,0.9,1.7c0,0.6-0.1,1-0.5,1.5c-0.7,0.9-1.5,1-2.7,0.5c-0.5-0.2-1-0.4-1-0.4
		c0,0-0.1,0.3-0.1,0.7c0,1-0.4,1.9-0.9,2.3C47.5,77.3,46.2,77.4,45.5,77.1L45.5,77.1z M47.3,75.8c0.2-0.2,0.2-1,0.2-2.3
		c0-1.1,0.1-2,0.1-2c0.1,0,0.8,0.4,1.7,0.9c0.9,0.5,1.7,0.9,1.8,0.9c0.1,0,0.4-0.2,0.6-0.4c0.5-0.6,0.4-0.8-2.4-2.4l-1-0.6l1.8-1
		c1.4-0.8,1.8-1.1,1.8-1.5c0-0.3-0.1-0.6-0.3-0.7c-0.2-0.2-0.6-0.1-2,0.7c-1,0.5-1.8,0.9-1.9,0.9c-0.1,0-0.1-0.9-0.1-1.9
		c0-2-0.2-2.4-0.9-2.4c-0.6,0-0.8,0.7-0.8,2.6c0,1,0,1.8-0.1,1.8c-0.1,0-0.9-0.4-1.9-0.9c-1.4-0.8-1.8-0.9-2.1-0.7
		c-0.4,0.3-0.4,0.9,0.1,1.3c0.2,0.2,1,0.7,1.8,1.1c0.8,0.4,1.3,0.9,1.2,0.9c-0.1,0.1-0.9,0.6-1.7,1.1c-1.2,0.7-1.6,1-1.6,1.4
		c-0.1,1,0.6,0.9,2.5-0.1c0.9-0.5,1.7-0.9,1.8-0.9c0,0,0.1,0.9,0.1,2.1c0,1.7,0.1,2.1,0.4,2.3C46.7,76.1,47,76.1,47.3,75.8z
		 M19.9,74.6c-0.5-0.4-0.8-1.1-0.8-1.8v-0.6l-0.6,0.3c-1.2,0.6-2.3,0.3-2.8-0.7c-0.4-0.9-0.2-1.7,0.6-2.4l0.7-0.5l-0.7-0.6
		c-0.6-0.5-0.7-0.7-0.7-1.5c0-0.7,0.1-1,0.6-1.4c0.7-0.6,1.4-0.7,2.3-0.2l0.6,0.3v-0.7c0-0.9,0.9-1.9,1.7-1.9c1.2,0,2.2,1,2.2,2.2
		c0,0.6,0,0.6,0.8,0.2c0.8-0.4,1.4-0.4,2.1,0.2c0.9,0.7,0.9,2,0.1,2.8c-0.3,0.3-0.6,0.5-0.8,0.5c-0.1,0,0.1,0.3,0.5,0.6
		c0.7,0.6,0.8,0.7,0.8,1.5c0,0.8-0.1,1-0.7,1.4c-0.7,0.6-1.2,0.6-2.4,0.2C23,72.3,23,72.4,23,72.9c0,0.4-0.2,0.9-0.5,1.3
		c-0.4,0.5-0.7,0.6-1.4,0.6C20.6,74.8,20,74.7,19.9,74.6L19.9,74.6z M21.5,73.3c0.1-0.1,0.2-0.9,0.2-1.8c0-0.8,0-1.5,0.1-1.5
		c0.1,0,0.7,0.3,1.4,0.7c1.4,0.8,2,0.8,1.9,0c0-0.3-0.5-0.7-1.3-1.1c-0.7-0.4-1.3-0.8-1.4-0.8c-0.1-0.1,0.5-0.5,1.2-1
		c0.9-0.5,1.4-1,1.4-1.3c0.1-0.8-0.5-0.7-2,0.1c-0.8,0.5-1.5,0.8-1.5,0.8c-0.1,0-0.1-0.3,0-0.6c0.2-0.9-0.1-2.8-0.5-3
		c-0.6-0.2-0.9,0.3-0.9,2v1.6l-1.5-0.8c-1.2-0.7-1.5-0.8-1.8-0.6c-0.6,0.5-0.4,0.8,1.9,2.2l0.7,0.4l-1.3,0.8c-1.7,1-2,1.3-1.5,1.7
		c0.3,0.3,0.4,0.3,1.7-0.4c0.8-0.4,1.4-0.8,1.5-0.8c0.1,0,0.2,0.7,0.2,1.6s0.1,1.7,0.1,1.8C20.6,73.7,21.2,73.6,21.5,73.3L21.5,73.3
		z M77.3,73.5c-0.4-0.4-0.5-0.7-0.5-1.3c0-0.6-0.1-0.7-0.4-0.6c-1.3,0.5-2.4,0.3-2.8-0.5c-0.5-0.9-0.4-1.6,0.3-2.3l0.6-0.7l-0.6-0.7
		c-0.8-0.9-0.8-1.7,0-2.5c0.5-0.6,0.6-0.6,1.4-0.6c0.5,0,1,0.2,1.2,0.2c0.3,0.1,0.4,0.1,0.4-0.5c0-0.8,1-1.9,1.7-1.9
		c1,0,1.7,0.5,2,1.5c0.2,0.8,0.3,0.9,0.6,0.7c0.8-0.4,1.8-0.2,2.3,0.4c0.7,0.9,0.7,1.7-0.1,2.5l-0.7,0.7l0.7,0.6
		c0.9,0.8,0.9,1.6,0.1,2.5c-0.5,0.6-0.6,0.6-1.4,0.6c-0.5,0-1-0.2-1.2-0.2c-0.3-0.1-0.4,0-0.4,0.6c0,1.1-0.7,1.8-1.9,1.8
		C78.1,74,77.7,73.9,77.3,73.5L77.3,73.5z M79.3,70.9l0.1-1.7l1.3,0.7c1.5,0.8,1.9,0.9,2.1,0.4c0.2-0.5,0.1-0.6-1.2-1.3
		c-0.6-0.4-1.2-0.7-1.2-0.8c-0.1-0.1,0.4-0.5,1.1-0.9c1.4-0.8,1.5-1,1.3-1.4c-0.2-0.5-0.5-0.4-2,0.4L79.3,67v-1.7
		c0-1.3-0.1-1.7-0.3-1.8c-0.7-0.2-0.9,0.3-0.9,1.9V67l-1.3-0.7c-1.5-0.8-1.9-0.9-2.1-0.4c-0.2,0.5,0.1,0.7,1.5,1.5
		c1.4,0.8,1.4,0.8-0.4,1.8c-1.1,0.6-1.3,0.7-1.1,1.2c0.2,0.5,0.6,0.4,2.1-0.4l1.3-0.7v1.6c0,1.8,0.1,2,0.7,1.9
		C79.1,72.7,79.2,72.5,79.3,70.9L79.3,70.9z M61.8,71.6c-0.2-0.3-0.4-0.7-0.4-0.9c0-0.3-0.1-0.3-0.6-0.1c-0.5,0.2-0.7,0.2-1.2-0.2
		c-0.8-0.6-0.9-1.8-0.3-2.4c0.4-0.4,0.4-0.5,0.1-0.7c-0.6-0.5-0.7-1.2-0.4-2c0.3-0.8,1-1.1,2-0.9c0.5,0.1,0.6,0.1,0.6-0.4
		c0-1.2,1.9-1.7,2.7-0.8c0.2,0.3,0.4,0.7,0.4,0.9c0,0.3,0.1,0.4,0.8,0.3c0.7-0.1,0.9-0.1,1.3,0.4c0.7,0.7,0.7,1.8,0.1,2.3
		c-0.4,0.4-0.4,0.4,0,0.9c0.5,0.7,0.5,1.3-0.1,2c-0.4,0.5-0.6,0.6-1.3,0.5c-0.6,0-0.8,0.1-0.8,0.2c0,0.1-0.2,0.5-0.4,0.8
		c-0.3,0.4-0.6,0.5-1.2,0.5C62.4,72.1,62.1,72,61.8,71.6z M63.4,70.6c0.1-0.3,0.2-0.9,0.2-1.3v-0.8l1,0.5c1,0.5,1.4,0.5,1.4,0.1
		c0-0.1-0.5-0.5-1-0.9l-1-0.7l1-0.6c1-0.5,1.3-1,0.9-1.4c-0.1-0.1-0.6,0.1-1.2,0.5l-1.1,0.6v-1c0-1.1-0.4-1.9-0.8-1.6
		c-0.1,0.1-0.2,0.7-0.2,1.4v1.2l-1.1-0.5c-1-0.5-1.6-0.5-1.6-0.1c0,0.1,0.5,0.5,1,0.8c0.6,0.3,1,0.7,1,0.8c0,0.1-0.4,0.4-0.9,0.7
		c-0.4,0.2-0.9,0.6-1,0.8c-0.3,0.6,0.4,0.6,1.4,0c0.5-0.3,1-0.5,1-0.5c0.1,0,0.1,0.5,0.1,1.2c0,0.7,0.1,1.3,0.1,1.3
		C63,71.2,63.2,71.1,63.4,70.6L63.4,70.6z"/>
	<g id="g312" transform="matrix(0.69962684,0,0,0.69962684,531.97716,-61.023368)">
		<path id="path303" class="st1" d="M-749,160.3C-749.2,160-749.2,160-749,160.3c0.3,0.1,0.4,0.2,0.4,0.3
			C-748.5,160.8-748.7,160.6-749,160.3z"/>
		<path id="path304" class="st1" d="M-737.1,160.7c-4.3-0.9-7.3-2.5-10.5-5.5c-1.7-1.7-3.6-4.2-4.6-6.4c-0.5-1-0.6-1.2-0.8-0.9
			c-0.3,0.6,0-2.8,0.4-4.5c1.9-9.4,10.5-16.5,19.9-16.5c2,0,3-0.3,3.6-1.1c0.4-0.5,0.4-0.8,0.4-4.2c0-2.9,0.1-4.1,0.4-5.9
			c2.3-11.6,11-20.3,22.8-22.9c3-0.6,8.6-0.7,11.5,0c6.1,1.3,10.6,3.8,14.8,8.1c2.5,2.5,4,4.5,5.4,7.4c1.3,2.7,2.1,2.9,5.2,1.4
			c5.9-2.8,12.2-2.6,17.6,0.6c1.9,1.2,4.8,3.9,6,5.7c2.4,3.7,3.5,8.7,2.8,13.1c-0.2,1.2-0.2,1.5,0.1,2.1c0.4,0.9,1,1.2,3.1,1.6
			c3.3,0.7,6.2,2.3,8.8,4.9c2.6,2.6,4.1,5.4,4.8,8.9c0.5,2.3,0.4,3.4-0.3,4.7c-2.5,4.4-6.8,7.7-11.8,9.3c-1.2,0.4-3.5,0.4-49.5,0.4
			C-733.6,161.1-735.3,161-737.1,160.7L-737.1,160.7z"/>
		<path id="path305" class="st1" d="M-747.8,161.6l-0.6-0.7L-747.8,161.6c0.7,0.5,0.8,0.7,0.7,0.7
			C-747.2,162.3-747.5,162-747.8,161.6L-747.8,161.6z"/>
		<path id="path306" class="st1" d="M-629.7,162.7c0,0,0.2-0.2,0.4-0.4c0.3-0.3,0.3-0.2,0.1,0.1
			C-629.5,162.7-629.7,162.8-629.7,162.7z"/>
		<path id="path307" class="st1" d="M-746.2,163.3l-0.6-0.7L-746.2,163.3c0.7,0.5,0.8,0.7,0.7,0.7
			C-745.5,164-745.8,163.7-746.2,163.3z"/>
		<path id="path308" class="st1" d="M-631.3,164.3c0,0,0.2-0.2,0.4-0.4c0.3-0.3,0.3-0.2,0.1,0.1
			C-631.2,164.4-631.3,164.5-631.3,164.3z"/>
		<path id="path309" class="st1" d="M-642,168.4c0.3,0,0.8,0,1,0c0.3,0,0,0.1-0.6,0.1C-642.1,168.4-642.3,168.4-642,168.4
			L-642,168.4z"/>
		<path id="path310" class="st2" d="M-699.5,92.1c-1.9,0-3.7,0.1-5,0.3c-10.8,1.9-19.5,9.4-22.8,19.6c-1,3-1.2,4.5-1.3,9l-0.1,4.3
			l-0.6,0.6c-0.5,0.5-0.7,0.6-3.2,0.7c-3.8,0.2-6.4,0.9-9.3,2.5c-5.2,2.8-8.7,7-10.5,12.9c-0.5,1.7-0.6,2-0.6,5.7c0,3.7,0,4,0.6,5.8
			c1.1,3.6,2.6,6.2,5,8.8c2.9,3.1,6.5,5.1,10.7,5.9c1.8,0.4,3.6,0.4,48.6,0.4c41.3,0,47,0,48.6-0.3c3.2-0.6,6.3-2.1,8.9-4.5
			c3.5-3.2,5.6-7.7,5.8-12.6c0.3-5.9-2-11.2-6.5-14.9c-1.8-1.5-4.9-3-7-3.5c-2.5-0.6-3-0.8-3.5-1.5c-0.4-0.7-0.4-0.8-0.1-2.9
			c0.2-1.3,0.2-2.9,0.1-3.8c-0.9-10.4-10.3-18.2-20.5-17c-2.2,0.3-5.2,1.2-6.8,2.1c-1.3,0.7-2.6,0.8-3.3,0.2
			c-0.2-0.2-0.9-1.3-1.5-2.4c-4-7.8-11.7-13.3-20.7-15.1C-695.8,92.2-697.7,92.1-699.5,92.1z M-751.8,145.8
			C-751.8,145.8-751.9,145.8-751.8,145.8C-751.9,145.8-751.9,145.8-751.8,145.8C-751.8,145.8-751.8,145.8-751.8,145.8L-751.8,145.8z
			 M-751.7,146l0.9,1.8c3,6,7.6,9.9,13.8,11.5l1.8,0.5c0,0,0,0,0.1,0h47.8c45.8,0,47.9,0,49.2-0.4c3.8-1.1,7.4-3.5,9.8-6.6
			c1.4-1.8,2.2-3.3,2.5-4.3c0,0.5,0,1,0,1.5c-0.1,1.1-0.2,2.3-0.5,3.4l-0.2,0.8l0,0c-0.9,3.3-2.6,6.2-4.9,8.5
			c-1.7,1.6-3.7,2.9-5.7,3.7l0.1,0h-0.1v0c0,0,0,0,0,0h-0.2c0,0,0,0,0,0.1c-0.9,0.3-1.7,0.6-2.6,0.8c-0.8,0.1-2.6,0.2-9.2,0.3
			s-18.3,0-38.6,0c-44.4,0-46.1,0-47.8-0.4c-4.1-0.9-7.5-2.9-10.4-6c-0.8-0.9-1.5-1.8-2.1-2.7l0,0.2c0,0,0,0,0,0l0,0c0,0,0,0,0,0
			l-0.2-0.2l0.1,0c-1.2-1.8-2.1-3.7-2.8-6.2c-0.5-1.8-0.5-2.1-0.5-5.8C-751.7,146.2-751.7,146.1-751.7,146L-751.7,146z"/>
		<path id="path311" class="st3" d="M-751.9,145.8C-751.8,145.8-751.8,145.8-751.9,145.8C-751.9,145.8-751.9,145.8-751.9,145.8z
			 M-751.7,146c0,0.1,0,0.2,0,0.3c0,3.8,0,4.1,0.5,5.8c0.7,2.5,1.6,4.4,2.8,6.2l-0.1,0l0.2,0.2c0,0,0-0.1,0,0l0-0.2
			c0.6,0.9,1.3,1.8,2.1,2.7c2.9,3.1,6.3,5.1,10.4,6c1.7,0.4,3.5,0.4,47.8,0.4c20.3,0,31.9,0,38.6,0c6.7,0,8.5-0.1,9.2-0.3
			c0.9-0.2,1.8-0.4,2.6-0.8c0,0,0,0,0-0.1h0.2c0,0,0,0,0,0v0h0.1l-0.1,0c2-0.8,4-2.1,5.7-3.7c2.4-2.3,4.1-5.3,4.9-8.5l0,0l0.2-0.8
			c0.2-1.1,0.4-2.2,0.5-3.4c0-0.5,0-1,0-1.5c-0.3,1-1.1,2.5-2.5,4.3c-2.4,3.1-6,5.5-9.8,6.6c-1.2,0.4-3.4,0.4-49.2,0.4h-47.8
			c0,0,0,0-0.1,0l-1.8-0.5c-6.1-1.6-10.7-5.5-13.8-11.5L-751.7,146z"/>
		<path id="path312" class="st4" d="M-735.1,173.4c-10-1.1-18.4-7.8-21.4-17.1c-1-3.2-1.3-5-1.3-8.6c0-4.7,0.7-7.8,2.8-11.9
			c3.8-7.4,11.4-12.8,19.6-13.9l1.8-0.2l0.1-2.4c0.6-10.7,6-20.2,15-26.4c11.7-8,27.9-7.7,39.2,0.8c2.9,2.1,6.1,5.6,8,8.4
			c0.8,1.2,1.5,2.3,1.6,2.3c0,0,0.9-0.2,2-0.5c3.3-1,4.2-1.2,7.8-1.1c3,0,3.7,0.1,5.4,0.5c7.1,1.9,13,6.9,15.9,13.6
			c1.4,3.1,2.2,7.8,1.9,10.2l-0.1,1.1l1.2,0.3c3.3,0.9,7,3.3,9.7,6.1c4.1,4.4,6.2,9.5,6.2,15.7c0,5.1-1.3,9.3-4.2,13.6
			c-1.2,1.8-4.1,4.6-5.9,5.8c-2.8,1.9-6.5,3.3-10,3.7C-642.3,173.7-732.7,173.7-735.1,173.4L-735.1,173.4z M-639.5,168.4
			c3.2-0.6,6.3-2.1,8.9-4.5c3.5-3.2,5.6-7.7,5.8-12.6c0.3-5.9-2-11.2-6.5-14.9c-1.8-1.5-4.9-3-7-3.5c-2.5-0.6-3-0.8-3.5-1.5
			c-0.4-0.7-0.4-0.8-0.1-2.9c0.2-1.3,0.2-2.9,0.1-3.8c-0.9-10.4-10.3-18.2-20.5-17c-2.2,0.3-5.2,1.2-6.8,2.1
			c-1.3,0.7-2.6,0.8-3.3,0.2c-0.2-0.2-0.9-1.3-1.5-2.4c-4-7.8-11.7-13.3-20.7-15.1c-2.5-0.5-7.4-0.5-9.9,0
			c-10.8,1.9-19.5,9.4-22.8,19.6c-1,3-1.2,4.5-1.3,9l-0.1,4.3l-0.6,0.6c-0.5,0.5-0.7,0.6-3.2,0.7c-3.8,0.2-6.4,0.9-9.3,2.5
			c-5.2,2.8-8.7,7-10.5,12.9c-0.5,1.7-0.6,2-0.6,5.7c0,3.7,0,4,0.6,5.8c1.1,3.6,2.6,6.2,5,8.8c2.9,3.1,6.5,5.1,10.7,5.9
			c1.8,0.4,3.6,0.4,48.6,0.4C-646.8,168.7-641.1,168.7-639.5,168.4L-639.5,168.4z"/>
	</g>
	<path id="path315" class="st2" d="M78.8,63.5c-0.5,0-0.7,0.6-0.7,2V67l-1.3-0.7c-1.5-0.8-1.9-0.9-2.1-0.4c-0.2,0.5,0.1,0.7,1.5,1.5
		c1.4,0.8,1.4,0.8-0.4,1.8c-1.1,0.6-1.3,0.7-1.1,1.2c0.2,0.5,0.6,0.4,2.1-0.4l1.3-0.7v1.6c0,1.8,0.1,2,0.7,1.9
		c0.4-0.1,0.4-0.2,0.5-1.8l0.1-1.7l1.3,0.7c1.5,0.8,1.9,0.9,2.1,0.4c0.2-0.5,0.1-0.6-1.2-1.3c-0.6-0.4-1.2-0.7-1.2-0.8
		c-0.1-0.1,0.4-0.5,1.1-0.9c1.4-0.8,1.5-1,1.3-1.4c-0.2-0.5-0.5-0.4-2,0.4L79.3,67v-1.7c0-1.3-0.1-1.7-0.3-1.8
		C78.9,63.5,78.8,63.5,78.8,63.5L78.8,63.5z M63,63.9c0,0-0.1,0-0.1,0c-0.1,0.1-0.2,0.7-0.2,1.4v1.2l-1.1-0.5
		c-1-0.5-1.6-0.5-1.6-0.1c0,0.1,0.5,0.5,1,0.8c0.6,0.3,1,0.7,1,0.8c0,0.1-0.4,0.4-0.9,0.7c-0.4,0.2-0.9,0.6-1,0.8
		c-0.3,0.6,0.4,0.6,1.4,0c0.5-0.3,1-0.5,1-0.5c0.1,0,0.1,0.5,0.1,1.2c0,0.7,0.1,1.3,0.1,1.3c0.3,0.3,0.5,0.1,0.7-0.4
		c0.1-0.3,0.2-0.9,0.2-1.3v-0.8l1,0.5c1,0.5,1.4,0.5,1.4,0.1c0-0.1-0.5-0.5-1-0.9l-1-0.7l1-0.6c1-0.5,1.3-1,0.9-1.4
		c-0.1-0.1-0.6,0.1-1.2,0.5l-1.1,0.6v-1C63.6,64.7,63.3,63.9,63,63.9L63,63.9z M20.9,64c-0.5,0-0.7,0.6-0.7,2v1.6l-1.5-0.8
		c-1.2-0.7-1.5-0.8-1.8-0.6c-0.6,0.5-0.4,0.8,1.9,2.2l0.7,0.4l-1.3,0.8c-1.7,1-2,1.3-1.5,1.7c0.3,0.3,0.4,0.3,1.7-0.4
		c0.8-0.4,1.4-0.8,1.5-0.8c0.1,0,0.2,0.7,0.2,1.6c0,0.9,0.1,1.7,0.1,1.8c0.2,0.2,0.8,0.2,1.1-0.1c0.1-0.1,0.2-0.9,0.2-1.8
		c0-0.8,0-1.5,0.1-1.5c0.1,0,0.7,0.3,1.4,0.7c1.4,0.8,2,0.8,1.9,0c0-0.3-0.5-0.7-1.3-1.1c-0.7-0.4-1.3-0.8-1.4-0.8
		c-0.1-0.1,0.5-0.5,1.2-1c0.9-0.5,1.4-1,1.4-1.3c0.1-0.8-0.5-0.7-2,0.1c-0.8,0.5-1.5,0.8-1.5,0.8c-0.1,0-0.1-0.3,0-0.6
		c0.2-0.9-0.1-2.8-0.5-3C21.1,64,21,64,20.9,64L20.9,64z M46.7,64.1c-0.6,0-0.8,0.7-0.8,2.6c0,1,0,1.8-0.1,1.8
		c-0.1,0-0.9-0.4-1.9-0.9c-1.4-0.8-1.8-0.9-2.1-0.7c-0.4,0.3-0.4,0.9,0.1,1.3c0.2,0.2,1,0.7,1.8,1.1c0.8,0.4,1.3,0.9,1.2,0.9
		c-0.1,0.1-0.9,0.6-1.7,1.1c-1.2,0.7-1.6,1-1.6,1.4c-0.1,1,0.6,0.9,2.5-0.1c0.9-0.5,1.7-0.9,1.8-0.9s0.1,0.9,0.1,2.1
		c0,1.7,0.1,2.1,0.4,2.3c0.5,0.3,0.7,0.3,1,0c0.2-0.2,0.2-1,0.2-2.3c0-1.1,0.1-2,0.1-2c0.1,0,0.8,0.4,1.7,0.9
		c0.9,0.5,1.7,0.9,1.8,0.9c0.1,0,0.4-0.2,0.6-0.4c0.5-0.6,0.4-0.8-2.4-2.4l-1-0.6l1.8-1c1.4-0.8,1.8-1.1,1.8-1.5
		c0-0.3-0.1-0.6-0.3-0.7c-0.2-0.2-0.6-0.1-2,0.7c-1,0.5-1.8,0.9-1.9,0.9c-0.1,0-0.1-0.9-0.1-1.9C47.5,64.5,47.4,64.1,46.7,64.1
		L46.7,64.1z M33.9,73.9c-0.1,0-0.2,0-0.3,0.1c-0.2,0.1-0.3,0.7-0.3,1.3v1.1l-1-0.5c-1.2-0.6-1.5-0.6-1.5-0.2c0,0.2,0.5,0.6,1.1,1
		l1.1,0.6L31.9,78c-0.6,0.4-1.1,0.8-1.1,1c0,0.5,0.3,0.5,1.4-0.2c0.5-0.3,0.9-0.5,1-0.5c0,0,0.1,0.5,0.1,1.2c0,0.8,0.1,1.3,0.3,1.3
		c0.5,0.2,0.8-0.3,0.8-1.4v-1.1l1.1,0.5c1,0.5,1.6,0.5,1.6,0.1c0-0.1-0.5-0.5-1.1-0.9c-1-0.6-1.1-0.7-0.6-1c0.2-0.2,0.7-0.5,1.1-0.7
		c0.4-0.2,0.6-0.5,0.6-0.6c0-0.5-0.7-0.4-1.5,0.1c-0.5,0.3-1,0.5-1,0.5c-0.1,0-0.1-0.5-0.1-1.1C34.3,74.5,34.2,74,33.9,73.9
		L33.9,73.9z M58.1,77.2c-0.4,0-0.4,0.2-0.5,1.2c0,0.7-0.1,1.2-0.2,1.2c-0.1,0-0.5-0.2-1-0.5c-0.9-0.5-1.5-0.5-1.5-0.1
		c0,0.1,0.5,0.5,1,0.8c0.6,0.3,1,0.7,1,0.8s-0.4,0.4-0.9,0.7s-1,0.6-1,0.8c-0.2,0.5,0.6,0.5,1.6,0l1-0.6v1.2c0,0.7,0.1,1.3,0.1,1.4
		c0.2,0.2,0.6,0.1,0.8-0.2c0.1-0.2,0.1-0.8,0.1-1.3v-1l0.9,0.5c0.5,0.3,1,0.5,1.2,0.5c0.7,0,0.3-0.6-0.6-1.2
		c-0.5-0.3-0.9-0.6-0.9-0.7s0.5-0.4,1.1-0.8c0.9-0.6,1-0.7,0.8-1c-0.3-0.3-0.4-0.2-1.2,0.2c-0.5,0.3-1,0.5-1.1,0.5
		c-0.1,0-0.2-0.5-0.2-1.2C58.6,77.4,58.5,77.2,58.1,77.2L58.1,77.2z M72.4,78.6c-0.1,0-0.2,0-0.3,0.1c-0.4,0.1-0.4,0.3-0.4,2
		c0,1.3-0.1,1.8-0.2,1.8c-0.1,0-0.8-0.3-1.6-0.7c-1.5-0.8-2.2-0.9-2.3-0.1c0,0.3,0.1,0.6,0.6,0.8c0.4,0.2,1.1,0.6,1.7,1l1,0.6
		l-1.7,1c-1.4,0.8-1.7,1.1-1.6,1.4c0.1,0.7,0.8,0.6,2.4-0.3c0.8-0.5,1.5-0.8,1.6-0.8c0,0,0.1,0.9,0.1,1.9s0.1,2,0.1,2.1
		c0.2,0.2,0.8,0.2,1.1-0.1h0c0.1-0.1,0.2-1.1,0.3-2l0.1-1.8l1.4,0.8c1.6,0.9,2.1,1,2.4,0.4c0.2-0.5,0-0.7-1.8-1.8
		c-0.7-0.4-1.3-0.8-1.3-0.8c0,0,0.5-0.4,1.2-0.7c1.5-0.9,1.9-1.2,1.9-1.7c0-0.7-0.7-0.7-2.3,0.2l-1.6,0.9v-1.8
		C73.1,79.1,72.9,78.5,72.4,78.6z M17.1,81c-0.4,0.1-0.6,0.7-0.6,2.1c0,0.9,0,1.6-0.1,1.6c0,0-0.6-0.3-1.3-0.7
		c-1.6-0.9-1.8-1-2.1-0.7c-0.5,0.5-0.2,0.9,1.1,1.7c0.7,0.4,1.4,0.8,1.4,0.9c0.1,0.1-0.5,0.5-1.3,1c-1,0.6-1.4,0.9-1.5,1.3
		c-0.1,0.8,0.5,0.8,2,0c0.8-0.4,1.5-0.8,1.5-0.8c0.1,0,0.1,0.8,0.1,1.7c0,0.9,0.1,1.8,0.1,1.9c0.2,0.2,0.8,0.2,1.1-0.1
		C17.9,90.7,18,90,18,89c0-0.9,0.1-1.6,0.1-1.6c0.1,0,0.8,0.3,1.5,0.8c1.2,0.7,1.4,0.7,1.7,0.5c0.6-0.5,0.4-0.8-1.1-1.7
		c-0.8-0.5-1.4-0.9-1.4-1s0.7-0.5,1.4-0.9c1.5-0.8,1.8-1.3,1.1-1.8c-0.2-0.2-0.6-0.1-1.8,0.6L18,84.8L18,83.1c0-1.3-0.1-1.7-0.4-1.9
		C17.4,81,17.3,81,17.1,81L17.1,81z M47,86c-0.1,0-0.3,0.1-0.5,0.2c-0.4,0.2-0.4,0.4-0.4,2.4c0,1.2-0.1,2.2-0.2,2.2
		c-0.1,0-0.8-0.4-1.6-0.8c-2.1-1.2-2.3-1.3-2.7-0.8c-0.5,0.6-0.2,0.9,1.7,2.1c0.9,0.5,1.6,1,1.6,1.1c0,0.1-0.8,0.6-1.8,1.2
		c-1.9,1.1-2.3,1.7-1.4,2.2c0.4,0.2,0.7,0.1,2.2-0.8l1.8-1l0.1,2.1c0.1,1.2,0.2,2.2,0.3,2.4c0.3,0.4,1.1,0.3,1.4-0.1
		c0.1-0.2,0.2-1.3,0.2-2.4c0-1.1,0-2,0.1-2c0,0,0.9,0.5,1.9,1c1.5,0.9,1.8,1,2.2,0.8c0.2-0.1,0.4-0.4,0.4-0.7c0-0.4-0.3-0.7-1.7-1.5
		c-0.9-0.6-1.7-1.1-1.7-1.2c0-0.1,0.7-0.6,1.5-1.1c1.6-0.9,2.1-1.4,1.9-1.8c-0.3-0.8-0.8-0.7-2.6,0.3c-1,0.6-1.8,1-1.9,1
		c-0.1,0-0.1-0.9-0.1-2c0-1.6-0.1-2.1-0.3-2.4C47.2,86.1,47.1,86,47,86L47,86z"/>
</g>
</svg>
