<?xml version="1.0" encoding="UTF-8" standalone="no"?>
<!-- Created with Inkscape (http://www.inkscape.org/) -->

<svg
   width="270.93338mm"
   height="270.93332mm"
   viewBox="0 0 270.93338 270.93332"
   version="1.1"
   id="svg1"
   xml:space="preserve"
   xmlns="http://www.w3.org/2000/svg"
   xmlns:svg="http://www.w3.org/2000/svg"><defs
     id="defs1" /><g
     id="layer1"
     transform="translate(-974.90675,305.95957)"><g
       id="g314"><path
         style="fill:none"
         d="M 703.97354,-170.4929 V -305.95956 H 839.4402 974.90686 V -170.4929 -35.02624 H 839.4402 703.97354 Z"
         id="path78" /><path
         style="fill:#0f9ce8"
         d="m 803.28862,-111.00653 c -1.00593,-0.48708 -1.15467,-1.33035 -1.15467,-6.54648 0,-4.56509 0.0436,-5.03443 0.52498,-5.64636 0.28874,-0.36707 0.82555,-0.74284 1.19291,-0.83504 0.76855,-0.19289 2.1036,0.40111 2.35109,1.04607 0.0904,0.23556 0.16436,2.80522 0.16436,5.71035 0,5.25533 -0.003,5.28534 -0.64944,5.93148 -0.68341,0.68342 -1.48754,0.79596 -2.42923,0.33998 z m 17.22185,-0.33998 c -0.64699,-0.64698 -0.64944,-0.66973 -0.64944,-6.03552 0,-4.98949 0.0383,-5.42721 0.52022,-5.94448 0.71603,-0.76857 1.49991,-0.9685 2.37538,-0.60587 1.20305,0.49832 1.33774,1.18071 1.33774,6.77749 0,5.12463 -0.004,5.16327 -0.64943,5.80838 -0.40938,0.40938 -0.95173,0.64944 -1.46724,0.64944 -0.51551,0 -1.05786,-0.24006 -1.46723,-0.64944 z m 17.71613,0.0359 -0.77077,-0.66245 -0.0706,-5.11668 c -0.0771,-5.58986 0.037,-6.16231 1.35491,-6.79423 0.86648,-0.41546 2.13113,-0.0352 2.56229,0.77041 0.13995,0.26152 0.25447,2.85138 0.25447,5.75524 0,5.86135 -0.0996,6.2357 -1.74277,6.55264 -0.63395,0.12227 -0.98923,0.009 -1.5875,-0.50493 z m 17.47345,-0.0359 c -0.64715,-0.64714 -0.64943,-0.66846 -0.64943,-6.0561 0,-4.88836 0.0475,-5.46528 0.49507,-6.01807 0.66915,-0.82636 2.20045,-0.83781 3.01653,-0.0226 0.5641,0.56352 0.59295,0.81625 0.67105,5.87864 l 0.0816,5.28981 -0.78886,0.78886 c -0.97012,0.97012 -1.94709,1.01832 -2.82597,0.13943 z m 17.4625,0 c -0.64603,-0.64603 -0.64943,-0.67702 -0.64943,-5.91744 0,-4.92887 0.0353,-5.31289 0.54837,-5.96515 0.73246,-0.93118 2.27501,-0.97323 3.10967,-0.0848 0.55153,0.58707 0.57529,0.83346 0.57529,5.96515 0,5.33042 -0.003,5.3555 -0.64943,6.00221 -0.40938,0.40938 -0.95173,0.64944 -1.46724,0.64944 -0.51551,0 -1.05786,-0.24006 -1.46723,-0.64944 z m -70.2552,-19.70313 -0.7734,-0.77339 v -5.27634 c 0,-4.9373 0.0352,-5.32114 0.54837,-5.97348 0.69963,-0.88944 2.34667,-0.9771 3.1558,-0.16797 0.49461,0.49461 0.52917,0.88194 0.52917,5.93148 0,2.97128 -0.074,5.59506 -0.16436,5.83062 -0.18508,0.48232 -1.43786,1.20248 -2.09182,1.20248 -0.2367,0 -0.77839,-0.34803 -1.20376,-0.7734 z m 18.09546,0.50697 c -0.31791,-0.12809 -0.70486,-0.4699 -0.8599,-0.75958 -0.3025,-0.56525 -0.40659,-10.77654 -0.11752,-11.52984 0.24749,-0.64496 1.58254,-1.23896 2.35109,-1.04607 0.36736,0.0922 0.90417,0.46797 1.19291,0.83504 0.48243,0.61332 0.52498,1.08162 0.52498,5.77865 0,5.44075 -0.13909,6.19639 -1.23225,6.69447 -0.74977,0.34162 -1.06766,0.34629 -1.85931,0.0273 z m 17.22379,-0.34768 -0.77077,-0.66299 v -5.60253 c 0,-5.56872 0.004,-5.60559 0.62462,-6.10833 0.85406,-0.69157 2.25699,-0.65657 2.93694,0.0733 0.50689,0.54408 0.53948,0.90989 0.53948,6.0561 0,6.07898 -0.091,6.43135 -1.74277,6.74994 -0.63413,0.12231 -0.98906,0.009 -1.5875,-0.50546 z m 17.47345,-0.0353 c -0.64801,-0.648 -0.64943,-0.66157 -0.64943,-6.16782 0,-5.18781 0.0323,-5.55307 0.53947,-6.09744 0.67977,-0.72965 2.08262,-0.76488 2.93694,-0.0737 0.61463,0.49722 0.62593,0.59255 0.70595,5.9583 l 0.0813,5.45299 -0.78857,0.78858 c -0.96982,0.96982 -1.94689,1.01793 -2.82568,0.13914 z m 17.96773,0.33998 c -1.01005,-0.48908 -1.15466,-1.32554 -1.15466,-6.67878 0,-4.77027 0.0366,-5.15774 0.54837,-5.80838 0.73246,-0.93118 2.27501,-0.97323 3.10967,-0.0848 0.55247,0.58807 0.57529,0.82993 0.57529,6.09744 0,5.47088 -0.002,5.48676 -0.64943,6.13451 -0.68342,0.68341 -1.48755,0.79595 -2.42924,0.33998 z"
         id="path76" /><path
         style="fill:#fcfcfc;stroke-width:0.999998"
         d="m 785.66111,-160.08156 c -0.23025,-0.29359 -0.22371,-0.30014 0.0699,-0.0699 0.17817,0.13973 0.32394,0.2855 0.32394,0.32394 0,0.15235 -0.152,0.0543 -0.39382,-0.25406 z"
         id="path275" /><path
         style="fill:#fcfcfc;stroke-width:0.999998"
         d="m 796.32852,-159.76237 c -3.8925,-0.82069 -6.57573,-2.24028 -9.41156,-4.97926 -1.5394,-1.48682 -3.18822,-3.7896 -4.09486,-5.71894 -0.43438,-0.92437 -0.57763,-1.09777 -0.68731,-0.83197 -0.22756,0.55145 0.0288,-2.5172 0.33431,-4.00274 1.72708,-8.39638 9.46535,-14.80528 17.8915,-14.81788 1.82252,-0.003 2.64848,-0.26006 3.23728,-1.00858 0.3634,-0.462 0.38969,-0.71827 0.38677,-3.7709 -0.003,-2.59774 0.0782,-3.68874 0.39007,-5.27436 2.04018,-10.37286 9.88471,-18.25556 20.4258,-20.52516 2.68739,-0.57862 7.74689,-0.58347 10.34229,-0.01 5.45159,1.20475 9.50324,3.40859 13.30471,7.23691 2.23583,2.25161 3.5595,4.06768 4.81512,6.60631 1.18484,2.39551 1.89423,2.59429 4.63631,1.29916 5.28953,-2.49831 10.95713,-2.29284 15.7624,0.57145 1.74507,1.04018 4.32416,3.49649 5.41109,5.15347 2.19212,3.34181 3.12701,7.79927 2.47008,11.77715 -0.18388,1.11346 -0.17182,1.38491 0.0856,1.92466 0.37357,0.78339 0.93635,1.07647 2.8047,1.46061 2.96404,0.60939 5.57477,2.05281 7.8853,4.35958 2.30017,2.29645 3.68048,4.83324 4.34267,7.98118 0.43659,2.0755 0.36823,3.0176 -0.30424,4.19296 -2.25519,3.94166 -6.08898,6.94346 -10.62007,8.31536 -1.05809,0.32036 -3.16059,0.33807 -44.4263,0.37421 -41.90653,0.0367 -43.36984,0.0265 -44.98163,-0.31332 z"
         id="path276" /><path
         style="fill:#fcfcfc;stroke-width:0.999998"
         d="m 786.69118,-158.87835 -0.54369,-0.6016 0.60161,0.54368 c 0.56078,0.50679 0.68669,0.65953 0.54368,0.65953 -0.0318,0 -0.30258,-0.27072 -0.6016,-0.60161 z"
         id="path277" /><path
         style="fill:#fcfcfc;stroke-width:0.999998"
         d="m 892.67806,-157.97641 c 0,-0.0384 0.14577,-0.18421 0.32394,-0.32394 0.2936,-0.23026 0.30015,-0.22371 0.0699,0.0699 -0.24182,0.30835 -0.39383,0.4064 -0.39383,0.25405 z"
         id="path278" /><path
         style="fill:#fcfcfc;stroke-width:0.999998"
         d="m 788.17205,-157.39747 -0.54368,-0.6016 0.60161,0.54368 c 0.56078,0.50679 0.68669,0.65953 0.54368,0.65953 -0.0318,0 -0.30258,-0.27073 -0.60161,-0.60161 z"
         id="path279" /><path
         style="fill:#fcfcfc;stroke-width:0.999998"
         d="m 891.19719,-156.49553 c 0,-0.0384 0.14577,-0.18421 0.32394,-0.32394 0.29359,-0.23026 0.30014,-0.22371 0.0699,0.0699 -0.24182,0.30835 -0.39383,0.4064 -0.39383,0.25405 z"
         id="path280" /><path
         style="fill:#fcfcfc;stroke-width:0.999998"
         d="m 881.62031,-152.85628 c 0.28138,-0.0425 0.69787,-0.0414 0.92554,0.003 0.22768,0.0439 -0.003,0.0787 -0.51159,0.0774 -0.50905,-0.001 -0.69533,-0.0374 -0.41395,-0.0799 z"
         id="path281" /><path
         id="path282"
         style="fill:#ffffff;fill-opacity:1;stroke-width:0.999998"
         d="m 830.02358,-221.27622 c -1.66541,-0.002 -3.33966,0.10025 -4.48927,0.30767 -9.65524,1.74215 -17.47304,8.4691 -20.47486,17.61759 -0.88416,2.6946 -1.08912,4.06427 -1.2108,8.09493 l -0.11569,3.83741 -0.50363,0.5029 c -0.47781,0.47728 -0.62512,0.50992 -2.8692,0.63451 -3.44291,0.19114 -5.73032,0.79784 -8.36681,2.21951 -4.70091,2.53486 -7.7709,6.32073 -9.40082,11.59176 -0.47324,1.53047 -0.50273,1.83253 -0.49856,5.14294 0.004,3.29185 0.037,3.62377 0.50941,5.18307 0.99157,3.27304 2.30719,5.56989 4.52289,7.89536 2.64347,2.77441 5.82125,4.54504 9.57255,5.33383 1.60513,0.33752 3.19852,0.3508 43.61537,0.36335 37.02932,0.0115 42.14216,-0.0206 43.59331,-0.27296 2.86936,-0.49895 5.63598,-1.90171 7.94778,-4.02976 3.12117,-2.8731 4.98313,-6.90023 5.21308,-11.27577 0.27767,-5.28334 -1.7994,-10.05548 -5.82698,-13.38718 -1.6186,-1.33896 -4.38781,-2.72485 -6.26372,-3.13494 -2.27302,-0.4969 -2.70516,-0.68818 -3.10456,-1.37205 -0.34191,-0.58544 -0.34861,-0.72858 -0.12147,-2.63853 0.14215,-1.19531 0.18918,-2.58422 0.11497,-3.40321 -0.84823,-9.36052 -9.24958,-16.3336 -18.38949,-15.26358 -2.01546,0.23595 -4.6389,1.03521 -6.10572,1.86013 -1.1274,0.63405 -2.3212,0.72216 -2.93934,0.21693 -0.21521,-0.17591 -0.82855,-1.16513 -1.36266,-2.19818 -3.61784,-6.99754 -10.47379,-11.97426 -18.60821,-13.50721 -1.11537,-0.2102 -2.77215,-0.31649 -4.43757,-0.31852 z m -46.93974,48.17694 c -0.008,-0.004 -0.0313,-0.004 -0.0467,0.0119 -6.8e-4,9e-5 -7e-4,-0.001 -10e-4,-0.001 0.0479,0 0.0559,-0.007 0.0481,-0.0108 z m 0.077,0.17463 0.7849,1.57596 c 2.70125,5.42451 6.82562,8.8809 12.33907,10.34227 l 1.57272,0.41578 c 0.0176,0.005 0.0353,0.007 0.0535,0.007 h 42.91686 c 41.09731,0 42.99918,-0.0155 44.1208,-0.34455 3.45392,-1.01307 6.65859,-3.18435 8.80609,-5.964 1.23926,-1.60405 2.00818,-2.94163 2.24192,-3.84464 0.0105,0.44445 0.0269,0.88752 0.004,1.33987 -0.0521,1.03161 -0.19806,2.04154 -0.41866,3.02539 l -0.2209,0.71405 0.0148,-0.003 c -0.79082,2.94284 -2.29174,5.60171 -4.44155,7.65963 -1.53583,1.47017 -3.27918,2.58686 -5.11618,3.3139 l 0.0727,0.0166 h -0.0766 v -0.0152 c -0.0146,0.006 -0.0295,0.01 -0.0441,0.0152 h -0.20752 c 0,0.0185 0.0207,0.0435 0.0228,0.0633 -0.7789,0.29439 -1.56887,0.53273 -2.36955,0.67752 -0.67353,0.12178 -2.29643,0.19879 -8.29341,0.2379 -5.99697,0.0391 -16.37765,0.0446 -34.61947,0.039 -39.82141,-0.0129 -41.37342,-0.0283 -42.92736,-0.36804 -3.6557,-0.79937 -6.74197,-2.587 -9.31802,-5.39855 -0.72698,-0.79345 -1.32625,-1.59775 -1.87822,-2.42776 l 0.0315,0.14788 c 0.0108,-0.0181 0.0125,-0.0246 0.005,0.0217 l -0.005,-0.0217 c -0.005,0.008 -0.007,0.0145 -0.0192,0.0271 l -0.14679,-0.15257 0.13305,-0.025 c -1.0793,-1.62344 -1.88417,-3.36442 -2.52573,-5.56667 -0.46379,-1.59185 -0.48859,-1.87326 -0.49279,-5.24453 0,-0.10929 7e-4,-0.18254 10e-4,-0.26464 z" /><path
         id="path283"
         style="fill:#d8dde1;stroke-width:0.999991"
         d="m 783.03575,-173.0886 c 0.0958,0 0.032,-0.0289 10e-4,0.001 -6.8e-4,9e-5 -6.6e-4,-0.001 -10e-4,-0.001 z m 0.1252,0.16381 c -5.7e-4,0.0821 -10e-4,0.15531 -10e-4,0.26461 0.004,3.37126 0.029,3.65274 0.49275,5.24459 0.64156,2.20225 1.4464,3.94318 2.52571,5.56661 l -0.13328,0.0251 0.14675,0.15261 c 0.0388,-0.0403 0.0355,-0.073 0.0242,-0.006 l -0.0363,-0.1694 c 0.55196,0.83 1.15114,1.63424 1.87813,2.42769 2.57605,2.81156 5.66223,4.59923 9.31793,5.3986 1.55395,0.3398 3.10628,0.35536 42.92768,0.36821 18.24182,0.006 28.6225,-4e-5 34.61947,-0.0392 5.99697,-0.0391 7.61984,-0.11623 8.29337,-0.238 0.80068,-0.14479 1.59063,-0.38325 2.36954,-0.67764 -0.002,-0.0198 -0.0229,-0.0445 -0.0229,-0.063 h 0.20734 c 0.0147,-0.006 0.0297,-0.01 0.0444,-0.0154 v 0.0154 h 0.0767 l -0.0727,-0.0167 c 1.83701,-0.72704 3.58023,-1.84375 5.11606,-3.31391 2.14981,-2.05793 3.65071,-4.71686 4.44153,-7.6597 l -0.0148,0.003 0.22094,-0.71413 c 0.22061,-0.98386 0.36657,-1.99391 0.41871,-3.02552 0.0229,-0.45236 0.006,-0.8954 -0.004,-1.33985 -0.23374,0.90301 -1.00239,2.2405 -2.24165,3.84454 -2.1475,2.77966 -5.35241,4.95115 -8.80633,5.96423 -1.12162,0.32902 -3.02321,0.34441 -44.12051,0.34441 h -42.9169 c -0.0182,-6e-5 -0.0362,-0.002 -0.0538,-0.007 l -1.57252,-0.41582 c -5.51345,-1.46137 -9.63783,-4.91767 -12.33908,-10.34218 z" /><path
         style="fill:#020202;stroke-width:0.999998"
         d="m 798.08706,-148.30102 c -8.94405,-1.01326 -16.48034,-7.00592 -19.24445,-15.30271 -0.94185,-2.82704 -1.1984,-4.47338 -1.20353,-7.72323 -0.007,-4.2515 0.63833,-6.98642 2.51042,-10.64381 3.3961,-6.63477 10.19882,-11.45126 17.5573,-12.43097 l 1.62233,-0.216 0.11654,-2.1673 c 0.51399,-9.55925 5.40366,-18.16731 13.45015,-23.67845 10.4979,-7.19015 25.0649,-6.88685 35.20947,0.7331 2.55872,1.92194 5.49339,4.9953 7.16837,7.50712 0.74206,1.11281 1.37404,2.05044 1.40439,2.08363 0.0304,0.0332 0.83325,-0.18722 1.78423,-0.48981 2.92735,-0.93146 3.73189,-1.04995 7.00468,-1.03172 2.65975,0.0148 3.28552,0.0786 4.84423,0.49328 6.40122,1.7032 11.67595,6.21579 14.25321,12.19381 1.21546,2.81927 2.00324,6.98944 1.73154,9.16602 l -0.11925,0.95542 1.07564,0.31069 c 2.92774,0.84564 6.31237,2.9847 8.66539,5.47644 3.71719,3.93634 5.52738,8.53843 5.52738,14.05241 0,4.55614 -1.19328,8.36701 -3.80716,12.15866 -1.08575,1.57496 -3.65284,4.10264 -5.30843,5.22693 -2.50493,1.70107 -5.8625,2.94216 -8.99948,3.32659 -2.01411,0.24683 -83.0642,0.24673 -85.24297,-1e-4 z m 85.82032,-4.52319 c 2.86937,-0.49894 5.63625,-1.90183 7.94805,-4.02988 3.12118,-2.87311 4.98299,-6.90028 5.21294,-11.27582 0.27767,-5.28334 -1.79956,-10.05557 -5.82714,-13.38728 -1.61861,-1.33895 -4.38765,-2.72489 -6.26356,-3.13498 -2.27303,-0.4969 -2.70529,-0.68789 -3.1047,-1.37177 -0.34191,-0.58544 -0.34849,-0.72856 -0.12136,-2.63851 0.14215,-1.19531 0.18899,-2.58421 0.11477,-3.40319 -0.84822,-9.36052 -9.24945,-16.33384 -18.38936,-15.26381 -2.01546,0.23595 -4.63899,1.0352 -6.10581,1.86012 -1.1274,0.63405 -2.32122,0.72214 -2.93936,0.21691 -0.21521,-0.1759 -0.82829,-1.16504 -1.36239,-2.19809 -3.61784,-6.99754 -10.47394,-11.97411 -18.60836,-13.50706 -2.23074,-0.42038 -6.62744,-0.42575 -8.92665,-0.0109 -9.65524,1.74215 -17.47321,8.46904 -20.47503,17.61753 -0.88416,2.69461 -1.089,4.06423 -1.21068,8.09489 l -0.11584,3.83737 -0.50366,0.50311 c -0.4778,0.47728 -0.62512,0.50985 -2.8692,0.63444 -3.44291,0.19115 -5.7301,0.79791 -8.36659,2.21958 -4.70092,2.53487 -7.77112,6.32043 -9.40103,11.59147 -0.47325,1.53047 -0.50253,1.83269 -0.49837,5.1431 0.004,3.29185 0.0367,3.62377 0.50913,5.18307 0.99157,3.27304 2.30739,5.56988 4.52309,7.89535 2.64347,2.77442 5.82117,4.54505 9.57247,5.33385 1.60512,0.33751 3.19848,0.35078 43.61534,0.36333 37.02932,0.0115 42.14216,-0.0205 43.5933,-0.27284 z"
         id="path284" /></g><g
       id="g331"><path
         style="fill:none"
         d="m 974.90686,-170.4929 v -135.46666 h 135.46664 135.4667 V -170.4929 -35.02624 H 1110.3735 974.90686 Z"
         id="path82" /><path
         style="fill:#060606"
         d="m 1104.6534,-103.5294 c -0.9187,-0.56022 -1.4236,-1.70611 -1.4236,-3.23096 v -1.01141 l -1.2301,0.65402 c -1.4289,0.75978 -1.9472,0.80325 -3.0119,0.25266 -0.9103,-0.4707 -1.5789,-1.63113 -1.5789,-2.74021 0,-0.9137 1.0156,-2.24219 2.1709,-2.83957 l 0.7848,-0.40587 -1.1664,-0.73974 c -2.0207,-1.28149 -2.341,-3.51641 -0.7016,-4.89585 0.9333,-0.78533 2.1477,-0.8804 3.5834,-0.28053 0.5224,0.21828 1.0543,0.39687 1.1821,0.39687 0.1277,0 0.2323,-0.57926 0.2323,-1.28724 0,-1.58741 0.675,-2.54542 2.0928,-2.9702 0.8409,-0.25195 1.1662,-0.22542 1.9818,0.1616 1.1938,0.56652 1.7462,1.56673 1.7462,3.16204 v 1.20914 l 1.0478,-0.53455 c 2.4623,-1.2562 4.773,-0.17378 4.773,2.23588 0,1.29608 -0.6559,2.29955 -1.9355,2.96129 l -0.8305,0.42947 0.6554,0.42245 c 1.5827,1.02017 2.1106,1.78891 2.1106,3.07366 0,1.00817 -0.1401,1.3715 -0.7734,2.00473 -1.0421,1.04213 -2.2969,1.10753 -4.0537,0.21128 l -0.9937,-0.50697 v 1.07221 c 0,2.96513 -2.3727,4.59166 -4.6618,3.1958 z m 2.5358,-1.85861 c 0.1507,-0.28148 0.2739,-1.6507 0.2739,-3.04271 0,-1.39202 0.048,-2.53094 0.1074,-2.53094 0.059,0 1.1282,0.60081 2.3759,1.33512 1.8935,1.11446 2.3567,1.28784 2.803,1.04903 0.3031,-0.16224 0.5345,-0.5548 0.5345,-0.90677 0,-0.49558 -0.4361,-0.88029 -2.1641,-1.90892 -1.1903,-0.70854 -2.1661,-1.40731 -2.1684,-1.55283 0,-0.14552 0.8815,-0.76745 1.9641,-1.38206 2.1038,-1.19432 2.6833,-1.75105 2.4514,-2.35518 -0.3709,-0.9667 -1.0193,-0.88027 -3.3387,0.44506 -1.2588,0.71929 -2.3509,1.3078 -2.4269,1.3078 -0.076,0 -0.1382,-1.18212 -0.1382,-2.62693 0,-2.03535 -0.094,-2.72057 -0.4158,-3.04271 -0.4919,-0.49188 -0.5272,-0.4961 -1.1891,-0.14188 -0.4559,0.244 -0.5118,0.57605 -0.5118,3.04271 0,1.52285 -0.091,2.76881 -0.2026,2.76881 -0.1114,0 -1.0342,-0.4884 -2.0505,-1.08534 -2.6461,-1.55417 -2.8968,-1.62648 -3.4643,-0.99936 -0.6773,0.74839 -0.3205,1.18939 2.1662,2.67759 1.1528,0.68989 2.0825,1.34474 2.066,1.45521 -0.016,0.11047 -1.0285,0.79691 -2.2489,1.52542 -2.3796,1.42043 -2.8948,2.20242 -1.8273,2.7737 0.4733,0.25332 0.8989,0.10059 2.8603,-1.02662 l 2.3043,-1.32423 0.1323,2.69817 c 0.073,1.484 0.2286,2.847 0.3463,3.0289 0.3301,0.51006 1.4529,0.39463 1.761,-0.18104 z m -40.0751,-7.7453 c -0.8424,-0.48313 -1.1731,-1.0661 -1.1822,-2.08373 -0.011,-1.22483 -0.179,-1.36304 -1.0871,-0.89344 -1.6038,0.82937 -3.1501,0.28347 -3.6715,-1.29618 -0.3762,-1.13995 -0.058,-1.99582 1.0925,-2.93609 0.5931,-0.48483 0.7661,-0.76375 0.5311,-0.85631 -0.1917,-0.0755 -0.6652,-0.40972 -1.0523,-0.74269 -0.5547,-0.47709 -0.7038,-0.84142 -0.7038,-1.7189 0,-0.92177 0.1477,-1.2455 0.858,-1.88017 0.948,-0.84699 1.9197,-0.96813 2.9664,-0.36979 0.9681,0.55344 1.0583,0.50015 1.0583,-0.62538 0,-1.46098 0.9994,-2.41733 2.5261,-2.41733 0.9382,0 1.2479,0.13882 1.816,0.81405 0.445,0.52883 0.685,1.13139 0.685,1.71979 0,1.00604 0.1025,1.0553 1.0583,0.50887 0.9991,-0.57111 1.986,-0.47273 2.8902,0.2881 0.6847,0.57619 0.814,0.87224 0.814,1.86411 0,1.18283 -0.6512,2.21 -1.6021,2.52697 -0.2755,0.0918 -0.106,0.38693 0.6103,1.06251 1.2604,1.18868 1.3818,2.62372 0.3191,3.77042 -0.5798,0.62561 -0.8264,0.70846 -1.7859,0.59997 -0.6123,-0.0692 -1.3812,-0.21377 -1.7086,-0.3212 -0.5451,-0.17886 -0.5953,-0.11299 -0.5953,0.78194 0,1.89531 -2.1856,3.15122 -3.8365,2.20448 z m 1.9315,-1.58543 c 0.1927,-0.19267 0.3175,-1.12889 0.3175,-2.38125 0,-1.13506 0.072,-2.06375 0.1607,-2.06375 0.088,0 0.9686,0.44186 1.9561,0.9819 1.5352,0.83958 1.857,0.93076 2.2206,0.62906 0.7454,-0.61867 0.4695,-1.03255 -1.427,-2.14013 -1.0186,-0.59492 -1.8513,-1.16572 -1.8503,-1.26844 10e-4,-0.10272 0.8344,-0.64023 1.8521,-1.19446 1.8867,-1.02749 2.2698,-1.62206 1.472,-2.28421 -0.3022,-0.25078 -0.7794,-0.0939 -2.3703,0.77923 l -1.9919,1.09323 -0.077,-2.1728 c -0.06,-1.68246 -0.1766,-2.23535 -0.5179,-2.44994 -0.8823,-0.55461 -1.279,0.22165 -1.279,2.50271 0,1.14635 -0.048,2.08427 -0.1069,2.08427 -0.059,0 -0.8029,-0.39297 -1.6536,-0.87325 -2.0417,-1.15265 -2.3534,-1.25698 -2.7052,-0.90524 -0.6484,0.64849 -0.2789,1.21375 1.4114,2.15903 0.9395,0.5254 1.7737,1.06127 1.8537,1.19083 0.08,0.12956 -0.6588,0.69706 -1.642,1.26111 -1.2394,0.71108 -1.8136,1.20515 -1.8723,1.61126 -0.1462,1.01083 0.6732,0.99869 2.5934,-0.0384 0.9834,-0.53115 1.863,-0.96572 1.9547,-0.96572 0.092,0 0.1668,0.99219 0.1668,2.20486 0,1.21267 0.079,2.28424 0.1764,2.38125 0.2808,0.28081 1.0123,0.20482 1.3582,-0.14111 z m 69.1843,-0.13939 c -0.9712,-0.17679 -1.9272,-1.54919 -1.9272,-2.76672 0,-0.91421 -0.066,-1.03824 -0.463,-0.86935 -0.2547,0.10834 -0.9165,0.32613 -1.4708,0.48398 -1.245,0.3546 -2.1592,-0.0761 -2.9176,-1.3745 -0.7114,-1.2181 -0.2834,-2.68075 1.02,-3.48634 0.5065,-0.31304 0.921,-0.60928 0.921,-0.6583 0,-0.049 -0.4092,-0.342 -0.9092,-0.65106 -1.6732,-1.03405 -1.8476,-3.12889 -0.3646,-4.37681 0.9013,-0.75834 1.6872,-0.82667 3.0344,-0.2638 0.5224,0.21828 0.9948,0.39687 1.0498,0.39687 0.055,0 0.1,-0.4854 0.1,-1.07868 0,-1.56031 1.1042,-2.62548 2.7217,-2.62548 1.5277,0 2.4711,0.88 2.7196,2.53691 0.1934,1.28988 0.2265,1.3116 1.1733,0.77038 1.8718,-1.07006 3.9687,0.27267 3.9687,2.54137 0,0.64535 -0.2534,1.08895 -1.0611,1.85729 l -1.0611,1.00943 0.6777,0.4441 c 1.6287,1.06715 1.8659,2.9075 0.5449,4.22843 -0.9954,0.99539 -1.5674,1.09196 -2.9777,0.50271 -1.3379,-0.55904 -1.4143,-0.52352 -1.4143,0.65729 0,1.75079 -1.5981,3.0438 -3.3645,2.72228 z m 1.4689,-2.00428 c 0.1573,-0.18948 0.3207,-1.36608 0.3631,-2.61466 l 0.077,-2.27015 1.8089,1.02716 c 2.0183,1.14606 2.678,1.2603 3.0681,0.53129 0.3196,-0.59723 0.061,-0.8518 -2.2973,-2.25946 -0.9095,-0.54294 -1.6536,-1.02933 -1.6536,-1.08087 0,-0.0515 0.6846,-0.47812 1.5213,-0.94795 1.9492,-1.09445 2.4474,-1.53097 2.4474,-2.14433 0,-0.94586 -0.8457,-0.87562 -2.9663,0.24637 l -2.0607,1.09032 v -2.33108 c 0,-2.5133 -0.2853,-3.12211 -1.3103,-2.79679 -0.4928,0.15641 -0.5418,0.38589 -0.5418,2.5354 0,1.62465 -0.097,2.36342 -0.3088,2.36342 -0.1698,0 -1.0782,-0.42297 -2.0188,-0.93994 -1.9025,-1.04575 -2.7862,-1.10117 -2.9166,-0.18292 -0.062,0.43821 0.1327,0.71963 0.7331,1.05834 0.4499,0.25377 1.4228,0.831 2.162,1.28273 l 1.3441,0.82134 -2.1596,1.24566 c -1.7807,1.02712 -2.1451,1.34722 -2.0772,1.8245 0.1326,0.93181 1.0762,0.83188 3.129,-0.3314 1.0426,-0.59078 1.9444,-1.07414 2.0042,-1.07414 0.06,0 0.1086,1.11125 0.1086,2.46944 0,1.3582 0.079,2.54882 0.1764,2.64583 0.2931,0.29313 1.0634,0.19844 1.3676,-0.16811 z m -19.5357,-5.12937 c -0.7607,-0.29024 -1.3229,-0.96246 -1.3229,-1.58172 0,-0.57248 -0.081,-0.61057 -0.993,-0.4648 -1.4206,0.22717 -2.4466,-0.60434 -2.4466,-1.9828 0,-0.648 0.1781,-1.15928 0.5076,-1.45753 0.5005,-0.45292 0.5005,-0.46659 0,-0.96705 -0.6548,-0.65486 -0.6587,-2.11449 -0.01,-2.9184 0.4081,-0.50406 0.7236,-0.60756 1.7198,-0.5642 1.042,0.0453 1.2199,-0.0204 1.2199,-0.45115 0,-0.63228 1.2007,-1.60098 1.9844,-1.60098 0.8459,0 1.9843,0.98324 1.9843,1.71382 0,0.56821 0.085,0.60573 1.0689,0.47372 0.8729,-0.11708 1.1882,-0.0312 1.7198,0.46817 0.8132,0.76396 0.8561,1.98662 0.098,2.79357 l -0.553,0.58858 0.553,0.55295 c 0.7718,0.77179 0.7168,2.00064 -0.1273,2.84474 -0.5802,0.58022 -0.8331,0.6558 -1.7198,0.51401 -0.9034,-0.14446 -1.0396,-0.10036 -1.0396,0.33676 0,1.09359 -1.5788,2.10942 -2.6458,1.70231 z m 1.1623,-1.82381 c 0.088,-0.23018 0.1606,-1.00911 0.1606,-1.73094 v -1.31243 l 1.1477,0.67261 c 0.6313,0.36994 1.3457,0.67261 1.5875,0.67261 0.8344,0 0.4364,-0.80882 -0.7508,-1.52594 -0.6548,-0.39554 -1.1906,-0.79912 -1.1906,-0.89683 0,-0.0977 0.6118,-0.55411 1.3595,-1.0142 1.1939,-0.73463 1.3123,-0.88373 0.972,-1.22408 -0.3404,-0.34034 -0.5301,-0.30605 -1.558,0.28148 -0.6437,0.36797 -1.2538,0.67046 -1.3556,0.67222 -0.1019,0.002 -0.221,-0.68143 -0.2646,-1.51817 -0.069,-1.31852 -0.1499,-1.52135 -0.6085,-1.52135 -0.4587,0 -0.5398,0.20283 -0.6086,1.52135 -0.044,0.83674 -0.1415,1.52135 -0.2174,1.52135 -0.076,0 -0.6668,-0.30983 -1.313,-0.68851 -1.1205,-0.65664 -1.9621,-0.70429 -1.9621,-0.11109 0,0.15143 0.5953,0.64163 1.3229,1.08933 0.7276,0.4477 1.323,0.9063 1.323,1.01912 0,0.11282 -0.5341,0.48842 -1.1868,0.83468 -0.6527,0.34626 -1.246,0.78403 -1.3184,0.97282 -0.2642,0.68838 0.7526,0.66573 2.0168,-0.0449 l 1.2821,-0.72069 v 1.55866 c 0,0.85727 0.079,1.63804 0.1764,1.73506 0.3127,0.31276 0.8209,0.18797 0.9859,-0.24213 z m -33.1769,-2.75648 c -0.291,-0.29104 -0.5291,-0.82683 -0.5291,-1.19063 0,-0.75473 0.01,-0.75166 -0.9237,-0.39777 -0.5134,0.19518 -0.8876,0.16336 -1.4404,-0.1225 -1.1948,-0.61787 -1.4478,-1.97775 -0.5745,-3.08799 0.4916,-0.62497 0.4916,-0.64851 0,-1.25561 -0.711,-0.878 -0.6383,-2.03436 0.1792,-2.85188 0.5802,-0.58022 0.8331,-0.6558 1.7198,-0.51402 0.9203,0.14716 1.0396,0.10516 1.0396,-0.36606 0,-1.93774 3.7434,-2.12342 4.0168,-0.19924 0.072,0.50527 0.2463,0.59299 1.1802,0.59299 1.4526,0 2.2113,0.6808 2.2113,1.98437 0,0.6265 -0.1819,1.14093 -0.5077,1.43573 -0.5004,0.45292 -0.5004,0.46659 0,0.96705 0.644,0.64397 0.6621,2.11036 0.036,2.88401 -0.4968,0.61346 -1.3768,0.77537 -2.3723,0.43647 -0.5073,-0.17271 -0.5953,-0.10964 -0.5953,0.42673 0,1.56731 -2.2921,2.40585 -3.4396,1.25835 z m 2.1167,-2.81498 v -1.42727 l 1.3497,0.68394 c 1.298,0.65777 2.0899,0.70497 2.0899,0.12458 0,-0.15143 -0.6125,-0.65217 -1.361,-1.11275 -1.3249,-0.81522 -1.3467,-0.84847 -0.8227,-1.25433 0.296,-0.22929 0.9084,-0.61972 1.3609,-0.86762 0.4525,-0.24789 0.8228,-0.57905 0.8228,-0.7359 0,-0.60259 -0.8346,-0.55953 -1.9621,0.10123 -0.6462,0.37868 -1.243,0.68851 -1.3262,0.68851 -0.083,0 -0.1513,-0.63103 -0.1513,-1.40229 0,-1.5316 -0.3865,-2.22053 -0.9727,-1.73401 -0.2114,0.17545 -0.3502,0.85648 -0.3502,1.71795 v 1.42727 l -1.3141,-0.66592 c -1.5199,-0.77019 -1.8609,-0.81904 -1.8609,-0.26659 0,0.21962 0.6094,0.77431 1.3543,1.23263 l 1.3543,0.83332 -1.3543,0.8155 c -0.807,0.48594 -1.3543,1.0036 -1.3543,1.28091 0,0.63044 0.4477,0.58124 1.8129,-0.19924 0.6333,-0.36205 1.1989,-0.65828 1.2568,-0.65828 0.058,0 0.1053,0.70446 0.1053,1.56546 0,1.0126 0.1168,1.60741 0.3307,1.68426 0.6471,0.23246 0.9922,-0.40455 0.9922,-1.83136 z m 14.3675,-3.05799 c -0.7466,-0.36074 -1.4029,-1.74751 -1.4029,-2.96441 0,-0.52372 -0.064,-0.95221 -0.1429,-0.95221 -0.079,0 -0.6096,0.23813 -1.18,0.52917 -1.5021,0.76628 -2.284,0.6794 -3.3338,-0.37042 -1.5419,-1.54187 -1.0904,-3.73254 0.9911,-4.80893 l 0.7857,-0.40628 -1.0031,-0.68075 c -1.3825,-0.93816 -1.6551,-1.36847 -1.6649,-2.62762 -0.01,-1.33456 0.7018,-2.32713 1.9696,-2.74555 0.7728,-0.25506 1.0991,-0.21776 2.1462,0.24543 0.6791,0.30041 1.2791,0.5462 1.3334,0.5462 0.054,0 0.099,-0.36101 0.099,-0.80224 0,-1.87643 1.3445,-3.43273 2.9634,-3.4301 0.8818,10e-4 2.3,0.94864 2.5994,1.73615 0.1419,0.37321 0.258,1.08753 0.258,1.58738 0,1.01876 0.143,1.07865 1.2265,0.51357 2.1053,-1.09795 4.3352,0.0847 4.3239,2.29312 -0.01,1.23531 -0.4521,1.97312 -1.6502,2.73125 l -0.73,0.46194 1.193,1.11098 c 1.04,0.96846 1.1931,1.25025 1.1931,2.19667 0,0.77515 -0.1913,1.31296 -0.6687,1.88028 -0.9195,1.09277 -1.9238,1.26352 -3.453,0.58708 -0.6805,-0.30103 -1.2817,-0.54733 -1.3359,-0.54733 -0.054,0 -0.099,0.39896 -0.099,0.88656 0,1.29103 -0.4783,2.45887 -1.2011,2.93244 -0.7152,0.46864 -2.3464,0.51813 -3.2168,0.0976 z m 2.2483,-1.58828 c 0.2038,-0.20375 0.3175,-1.24648 0.3175,-2.91042 0,-1.4261 0.065,-2.59292 0.1446,-2.59292 0.08,0 1.0735,0.53579 2.2089,1.19063 1.1353,0.65484 2.1828,1.19062 2.3279,1.19062 0.145,0 0.4772,-0.23589 0.7381,-0.5242 0.7007,-0.77431 0.505,-0.96368 -3.1405,-3.03806 l -1.2928,-0.73568 2.285,-1.31196 c 1.8263,-1.04857 2.2851,-1.43396 2.2851,-1.91967 0,-0.33424 -0.1726,-0.7509 -0.3834,-0.9259 -0.3092,-0.25663 -0.8135,-0.0838 -2.6065,0.89364 -1.2228,0.66651 -2.3004,1.21183 -2.3948,1.21183 -0.094,0 -0.1716,-1.10728 -0.1716,-2.46062 0,-2.53173 -0.2007,-3.09562 -1.1019,-3.09562 -0.7474,0 -1.0147,0.86667 -1.0147,3.28989 0,1.2465 -0.061,2.26635 -0.1349,2.26635 -0.074,0 -1.1484,-0.54807 -2.3873,-1.21794 -1.8386,-0.99407 -2.3244,-1.15833 -2.6433,-0.89364 -0.525,0.43563 -0.4934,1.14825 0.072,1.63109 0.2547,0.2174 1.2783,0.84344 2.2746,1.39121 0.9964,0.54776 1.7108,1.0934 1.5875,1.21252 -0.1232,0.11912 -1.117,0.74082 -2.2084,1.38156 -1.5619,0.91695 -2.0018,1.31084 -2.0659,1.85009 -0.1452,1.21974 0.7548,1.16877 3.1504,-0.17843 1.1811,-0.66424 2.1942,-1.20771 2.2513,-1.20771 0.057,0 0.1038,1.18471 0.1038,2.63269 0,2.22819 0.071,2.67412 0.463,2.90237 0.6158,0.35871 0.9537,0.35069 1.3361,-0.0317 z m -35.1596,-1.60915 c -0.631,-0.48447 -1.0354,-1.38125 -1.0354,-2.29609 v -0.81793 l -0.7806,0.40367 c -1.5182,0.78511 -2.8902,0.42434 -3.599,-0.94641 -0.5665,-1.09533 -0.2783,-2.20385 0.7956,-3.06073 l 0.8689,-0.69331 -0.8914,-0.78264 c -0.753,-0.66118 -0.8914,-0.95953 -0.8914,-1.92234 0,-0.94784 0.137,-1.25501 0.8141,-1.82468 0.9277,-0.78061 1.7783,-0.86303 2.9032,-0.28131 l 0.7806,0.40367 v -0.95318 c 0,-1.16195 1.1862,-2.49999 2.2162,-2.49999 1.567,0 2.8109,1.22356 2.8109,2.76499 0,0.79217 -0.014,0.78819 0.9619,0.27935 1.0884,-0.56759 1.7954,-0.49317 2.722,0.28647 1.1059,0.93057 1.1593,2.60174 0.1165,3.64457 -0.3837,0.38365 -0.8275,0.69754 -0.9863,0.69754 -0.1589,0 0.155,0.36585 0.6975,0.81301 0.8622,0.7107 0.9863,0.95746 0.9863,1.96086 0,0.96512 -0.134,1.26059 -0.8418,1.85616 -0.8499,0.71513 -1.4775,0.76876 -3.0608,0.26149 -0.5286,-0.16938 -0.5953,-0.10065 -0.5953,0.61357 0,0.47928 -0.2768,1.13327 -0.685,1.61836 -0.5661,0.67285 -0.8759,0.81259 -1.7859,0.80563 -0.6055,-0.005 -1.2899,-0.15345 -1.5208,-0.33073 z m 2.0867,-1.56585 c 0.189,-0.18896 0.3175,-1.09949 0.3175,-2.24896 0,-1.0623 0.055,-1.93146 0.1232,-1.93146 0.068,0 0.9031,0.42871 1.8564,0.95269 1.8396,1.01117 2.6117,1.02701 2.4707,0.0507 -0.058,-0.40163 -0.5851,-0.86639 -1.6722,-1.4745 -0.8731,-0.48841 -1.6729,-0.9712 -1.7772,-1.07287 -0.1044,-0.10167 0.61,-0.65906 1.5875,-1.23865 1.1782,-0.69859 1.8042,-1.24312 1.8574,-1.61544 0.1428,-1.00093 -0.6884,-0.94802 -2.5944,0.16514 -0.9963,0.58187 -1.8894,1.05795 -1.9847,1.05795 -0.095,0 -0.095,-0.35459 -3e-4,-0.78799 0.2624,-1.19448 -0.1154,-3.64731 -0.5897,-3.82934 -0.821,-0.31504 -1.1288,0.37202 -1.1288,2.51964 v 2.07084 l -1.872,-1.06078 c -1.4919,-0.84541 -1.9485,-0.99727 -2.2489,-0.74793 -0.8205,0.68093 -0.5391,0.99867 2.5005,2.82373 l 0.8931,0.53626 -1.7278,0.96626 c -2.2128,1.23746 -2.5461,1.61733 -1.9458,2.21763 0.4215,0.42151 0.5541,0.39293 2.2089,-0.4763 0.9683,-0.5086 1.8576,-0.96441 1.9763,-1.01292 0.1186,-0.0485 0.2157,0.85438 0.2157,2.00642 0,1.15204 0.079,2.174 0.1764,2.27101 0.2808,0.28081 1.0123,0.20481 1.3582,-0.14111 z m 71.6107,0.19723 c -0.4525,-0.45244 -0.6494,-0.94255 -0.6494,-1.6158 0,-0.81941 -0.07,-0.93626 -0.4631,-0.76836 -1.6071,0.68733 -3.0738,0.42039 -3.6332,-0.66127 -0.5962,-1.15296 -0.4917,-2.00506 0.3659,-2.98172 l 0.7675,-0.87416 -0.7675,-0.85901 c -0.9751,-1.09132 -0.9953,-2.1269 -0.063,-3.23483 0.6218,-0.73896 0.8315,-0.82429 1.786,-0.72676 0.5948,0.0608 1.2898,0.20302 1.5444,0.31611 0.3871,0.17188 0.4631,0.0674 0.4631,-0.63681 0,-1.06558 1.2419,-2.3892 2.2417,-2.3892 1.3206,0 2.2262,0.70489 2.5481,1.98331 0.2577,1.02332 0.3602,1.1445 0.7788,0.92049 1.0098,-0.54046 2.2821,-0.30516 3.0068,0.55608 0.9587,1.1394 0.9021,2.19766 -0.1749,3.26996 l -0.8599,0.8561 0.8599,0.79985 c 1.0908,1.01465 1.1419,2.08636 0.1554,3.25879 -0.6218,0.73896 -0.8315,0.82429 -1.786,0.72676 -0.5948,-0.0608 -1.2898,-0.20302 -1.5444,-0.31611 -0.394,-0.17495 -0.463,-0.0615 -0.463,0.76078 0,1.36671 -0.9446,2.26523 -2.3813,2.26523 -0.7964,0 -1.254,-0.17157 -1.7318,-0.64943 z m 2.4704,-3.26981 0.077,-2.19945 1.6857,0.94268 c 1.8654,1.04319 2.3905,1.14739 2.6305,0.52193 0.2273,-0.59239 0.07,-0.76316 -1.56,-1.69592 -0.7942,-0.4544 -1.5073,-0.92858 -1.5847,-1.05372 -0.077,-0.12515 0.5723,-0.6606 1.4436,-1.18989 1.7828,-1.083 1.9288,-1.24033 1.7011,-1.83355 -0.2371,-0.61793 -0.6882,-0.52638 -2.6092,0.52957 l -1.7289,0.95032 v -2.14925 c 0,-1.67441 -0.089,-2.18318 -0.4003,-2.30284 -0.8347,-0.32031 -1.1872,0.41442 -1.1872,2.47433 v 1.97474 l -1.6967,-0.94881 c -1.883,-1.05305 -2.4011,-1.15458 -2.6452,-0.5184 -0.226,0.58883 0.079,0.89265 1.9597,1.95034 1.8259,1.027 1.8241,1.03405 -0.5757,2.26553 -1.4023,0.71961 -1.6091,0.95144 -1.3803,1.54755 0.2402,0.62613 0.7653,0.52116 2.6415,-0.52806 l 1.6967,-0.94882 v 2.09535 c 0,2.26598 0.093,2.51073 0.9151,2.39313 0.4868,-0.0697 0.5477,-0.29412 0.6172,-2.27676 z m -22.4152,0.84085 c -0.3016,-0.38342 -0.5484,-0.90886 -0.5484,-1.16764 0,-0.41222 -0.098,-0.43365 -0.7881,-0.17302 -0.6712,0.25333 -0.8969,0.21658 -1.5214,-0.24771 -0.9782,-0.7273 -1.1488,-2.27359 -0.3453,-3.12891 0.5103,-0.54315 0.5203,-0.621 0.1225,-0.95114 -0.7518,-0.62397 -0.9389,-1.51328 -0.5261,-2.50122 0.4172,-0.99851 1.2399,-1.35264 2.539,-1.09283 0.6887,0.13775 0.784,0.0822 0.784,-0.45703 0,-1.49589 2.4884,-2.20081 3.4737,-0.98404 0.2723,0.33626 0.495,0.83773 0.495,1.11437 0,0.43712 0.1362,0.48122 1.0396,0.33675 0.8867,-0.14178 1.1396,-0.0662 1.7198,0.51402 0.8463,0.84637 0.9222,2.25534 0.1587,2.94635 -0.519,0.46969 -0.519,0.47522 0,1.13502 0.6934,0.88151 0.658,1.72637 -0.1095,2.61873 -0.5167,0.60069 -0.8284,0.72578 -1.7198,0.69023 -0.7442,-0.0297 -1.0888,0.0665 -1.0888,0.30376 0,0.19095 -0.2467,0.66089 -0.5483,1.04431 -0.423,0.53773 -0.7816,0.69714 -1.5683,0.69714 -0.7867,0 -1.1453,-0.15941 -1.5683,-0.69714 z m 2.104,-1.30445 c 0.1419,-0.37328 0.258,-1.14919 0.258,-1.72425 v -1.04557 l 1.3329,0.6754 c 1.2552,0.63606 1.8421,0.67388 1.8421,0.11868 0,-0.13307 -0.6051,-0.64945 -1.3447,-1.14751 l -1.3447,-0.90557 1.3445,-0.7551 c 1.2216,-0.68616 1.6326,-1.30524 1.1722,-1.76565 -0.095,-0.095 -0.8093,0.19157 -1.5875,0.63678 l -1.4148,0.80947 v -1.29176 c 0,-1.36262 -0.5059,-2.39576 -1.0182,-2.07917 -0.1747,0.10799 -0.3047,0.86075 -0.3047,1.76467 v 1.57634 l -1.3497,-0.68395 c -1.2962,-0.65681 -2.0899,-0.70502 -2.0899,-0.12694 0,0.15013 0.5935,0.60035 1.3188,1.00049 0.7253,0.40014 1.2816,0.84659 1.2362,0.99211 -0.045,0.14552 -0.539,0.522 -1.0968,0.83661 -0.5578,0.31462 -1.1207,0.76231 -1.2508,0.99487 -0.421,0.75217 0.5094,0.77744 1.7547,0.0477 0.6462,-0.37868 1.243,-0.68852 1.3262,-0.68852 0.083,0 0.1513,0.69454 0.1513,1.54341 0,0.84887 0.079,1.62278 0.1764,1.71979 0.3381,0.33807 0.6322,0.17179 0.8885,-0.50229 z m -62.3688,-13.20566 c -6.748,-1.74413 -12.4938,-6.72594 -15.0464,-13.04567 -2.1659,-5.36222 -2.2506,-12.07894 -0.2206,-17.48695 2.9381,-7.82702 10.2668,-13.66353 18.2303,-14.51856 l 1.8521,-0.19885 0.1723,-2.44954 c 0.6032,-8.57308 4.4456,-16.07833 11.0176,-21.52034 14.0332,-11.62033 34.5782,-8.54274 44.7125,6.69782 0.6561,0.98666 1.2647,1.79241 1.3525,1.79055 0.088,-0.002 1.1121,-0.32271 2.2763,-0.71302 1.9095,-0.64018 2.5051,-0.71107 6.0854,-0.72422 3.4473,-0.0127 4.2295,0.0669 5.9532,0.60534 5.9486,1.85838 10.4528,5.64514 13.11,11.02174 1.416,2.86498 1.939,4.83858 2.1838,8.23945 l 0.1843,2.55944 1.38,0.46834 c 3.6086,1.22468 7.4716,4.04143 9.6933,7.06793 1.3382,1.82306 2.7127,4.70092 3.3848,7.08726 0.4573,1.62381 0.5883,2.77774 0.5833,5.13695 -0.01,3.83782 -0.4996,5.92139 -2.2395,9.49587 -1.1474,2.35717 -1.6648,3.07739 -3.6304,5.05299 -2.3171,2.32888 -4.2667,3.65492 -6.9226,4.70838 -3.6198,1.43583 -1.4004,1.37317 -48.2864,1.36334 l -43.3917,-0.009 z m 90.3582,-3.97968 c 4.4754,-1.0551 8.4203,-4.19819 10.532,-8.39141 1.3169,-2.61501 1.7799,-4.65068 1.7614,-7.74353 -0.048,-7.98584 -5.5923,-14.55985 -13.3828,-15.86775 -0.5538,-0.093 -1.2404,-0.40253 -1.5258,-0.68789 -0.4752,-0.47525 -0.5042,-0.75907 -0.3451,-3.37815 0.3315,-5.45777 -1.0832,-9.21376 -4.9045,-13.02174 -3.5004,-3.48817 -7.1146,-5.00435 -11.9291,-5.00435 -2.7147,0 -4.7991,0.46148 -7.5359,1.66845 -2.8437,1.25409 -3.1048,1.15233 -4.7672,-1.858 -1.6937,-3.06699 -2.8995,-4.66775 -4.9863,-6.61991 -3.3582,-3.14141 -7.4503,-5.34345 -12.0793,-6.50015 -3.1566,-0.78876 -9.0121,-0.77688 -11.9703,0.0243 -4.6726,1.26547 -8.3355,3.25056 -11.4884,6.22614 -2.7374,2.58345 -4.3077,4.65447 -5.8362,7.69729 -1.8368,3.6566 -2.5119,6.61182 -2.6005,11.38494 -0.089,4.80946 -0.1476,4.90245 -3.0701,4.90245 -2.8582,0 -5.6266,0.66894 -8.4255,2.03582 -2.0964,1.02383 -2.8914,1.60572 -4.7969,3.51118 -1.9174,1.91743 -2.4775,2.68529 -3.4904,4.78463 -5.3234,11.03357 0.1712,23.72961 11.5623,26.71619 1.8007,0.4721 3.773,0.49434 44.7462,0.50453 37.0478,0.009 43.089,-0.0428 44.5324,-0.38304 z"
         id="path79" /><g
         id="g312"
         transform="matrix(0.69962684,0,0,0.69962684,531.97716,-66.640647)"
         style="stroke-width:1.42933"><path
           style="fill:#fcfcfc;stroke-width:1.42933"
           d="m 749.71266,-141.58718 c -0.32911,-0.41964 -0.31975,-0.429 0.0999,-0.0999 0.25466,0.19972 0.46302,0.40808 0.46302,0.46302 0,0.21776 -0.21727,0.0776 -0.56291,-0.36313 z"
           id="path303" /><path
           style="fill:#fcfcfc;stroke-width:1.42933"
           d="m 764.95995,-141.13095 c -5.56369,-1.17304 -9.39891,-3.2021 -13.45226,-7.11702 -2.20031,-2.12517 -4.55703,-5.4166 -5.85292,-8.17428 -0.62087,-1.32122 -0.82563,-1.56907 -0.9824,-1.18915 -0.32525,0.7882 0.0411,-3.59792 0.47784,-5.72125 2.46858,-12.00123 13.52915,-21.16168 25.57292,-21.17969 2.60499,-0.004 3.78557,-0.37172 4.62715,-1.4416 0.51943,-0.66035 0.557,-1.02665 0.55283,-5.38988 -0.004,-3.71304 0.11178,-5.27243 0.55754,-7.53882 2.91609,-14.82627 14.12855,-26.09328 29.19528,-29.33729 3.84117,-0.82704 11.07289,-0.83397 14.78258,-0.0142 7.79214,1.722 13.58329,4.87201 19.01686,10.34396 3.19575,3.21831 5.08771,5.81407 6.88242,9.44262 1.69353,3.42398 2.70748,3.7081 6.62683,1.85694 7.5605,-3.57093 15.66139,-3.27724 22.52972,0.81678 2.49429,1.48677 6.18067,4.99765 7.73425,7.36603 3.13328,4.77657 4.46954,11.14776 3.53057,16.83347 -0.26283,1.59151 -0.24558,1.97951 0.12231,2.75099 0.53396,1.11973 1.33835,1.53863 4.00885,2.08769 4.2366,0.87103 7.96821,2.93415 11.27072,6.2313 3.28772,3.28239 5.26063,6.90831 6.20712,11.40777 0.62404,2.96658 0.52633,4.31316 -0.43486,5.99314 -3.22341,5.63394 -8.70318,9.92452 -15.17961,11.88541 -1.51237,0.45791 -4.51754,0.48322 -63.5,0.53488 -59.8984,0.0525 -61.98996,0.0379 -64.29374,-0.44784 z"
           id="path304" /><path
           style="fill:#fcfcfc;stroke-width:1.42933"
           d="m 751.18497,-139.86739 -0.77711,-0.85989 0.8599,0.7771 c 0.80154,0.72438 0.98151,0.94269 0.7771,0.94269 -0.0455,0 -0.43248,-0.38695 -0.85989,-0.8599 z"
           id="path305" /><path
           style="fill:#fcfcfc;stroke-width:1.42933"
           d="m 902.67556,-138.57822 c 0,-0.0549 0.20836,-0.2633 0.46302,-0.46302 0.41965,-0.32911 0.42901,-0.31975 0.0999,0.0999 -0.34564,0.44073 -0.56292,0.58088 -0.56292,0.36312 z"
           id="path306" /><path
           style="fill:#fcfcfc;stroke-width:1.42933"
           d="m 753.30163,-137.75072 -0.7771,-0.85989 0.8599,0.7771 c 0.80154,0.72437 0.98151,0.94269 0.7771,0.94269 -0.0455,0 -0.43249,-0.38696 -0.8599,-0.8599 z"
           id="path307" /><path
           style="fill:#fcfcfc;stroke-width:1.42933"
           d="m 900.5589,-136.46155 c 0,-0.0549 0.20836,-0.2633 0.46302,-0.46302 0.41964,-0.32911 0.429,-0.31975 0.0999,0.0999 -0.34564,0.44073 -0.56291,0.58089 -0.56291,0.36313 z"
           id="path308" /><path
           style="fill:#fcfcfc;stroke-width:1.42933"
           d="m 886.87035,-131.25985 c 0.40218,-0.0608 0.99749,-0.0592 1.32291,0.004 0.32543,0.0628 -0.004,0.11256 -0.73124,0.11058 -0.7276,-0.002 -0.99386,-0.0534 -0.59167,-0.11419 z"
           id="path309" /><path
           id="path310"
           style="fill:#ffffff;fill-opacity:1;stroke-width:1.42933"
           d="m 813.12142,-229.05475 c -2.38043,-0.003 -4.77349,0.14329 -6.41666,0.43976 -13.80056,2.49012 -24.9748,12.10517 -29.2654,25.18141 -1.26376,3.85149 -1.55672,5.8092 -1.73064,11.57036 l -0.16536,5.48493 -0.71986,0.71882 c -0.68294,0.68219 -0.8935,0.72884 -4.10104,0.90692 -4.92107,0.27321 -8.19053,1.14038 -11.95896,3.17242 -6.71917,3.62317 -11.10721,9.03443 -13.4369,16.5685 -0.67643,2.18755 -0.71857,2.61929 -0.71262,7.35097 0.006,4.70515 0.0529,5.17957 0.72812,7.40833 1.41729,4.67827 3.29775,7.96123 6.46472,11.2851 3.7784,3.96556 8.32051,6.49638 13.68237,7.62383 2.29426,0.48242 4.57174,0.5014 62.3409,0.51934 52.92725,0.0164 60.2352,-0.0295 62.30937,-0.39015 4.10128,-0.71316 8.0557,-2.71817 11.36003,-5.75986 4.4612,-4.10663 7.12255,-9.86274 7.45123,-16.11684 0.39688,-7.55166 -2.57194,-14.37263 -8.32869,-19.13475 -2.31353,-1.91381 -6.27165,-3.89472 -8.95295,-4.48087 -3.24891,-0.71024 -3.86657,-0.98363 -4.43745,-1.96112 -0.48871,-0.83679 -0.49828,-1.04138 -0.17363,-3.77134 0.20318,-1.70849 0.27041,-3.69371 0.16433,-4.86431 -1.2124,-13.37931 -13.22072,-23.34617 -26.2847,-21.81675 -2.88077,0.33725 -6.63054,1.47966 -8.72712,2.65875 -1.61143,0.90626 -3.31777,1.0322 -4.20129,0.31006 -0.30761,-0.25143 -1.18428,-1.66536 -1.94769,-3.14193 -5.1711,-10.00182 -14.97054,-17.11521 -26.59734,-19.30631 -1.59424,-0.30044 -3.96233,-0.45236 -6.34277,-0.45527 z m -67.09254,68.86091 c -0.0112,-0.005 -0.0448,-0.005 -0.0667,0.017 -9.7e-4,1.2e-4 -10e-4,-0.002 -0.002,-0.002 0.0685,0 0.0799,-0.0106 0.0687,-0.0155 z m 0.11007,0.2496 1.12189,2.25257 c 3.86099,7.75344 9.75609,12.69377 17.63665,14.78256 l 2.24793,0.59428 c 0.0251,0.007 0.0505,0.0103 0.0765,0.0103 h 61.34251 c 58.74175,0 61.46016,-0.0222 63.06333,-0.49248 4.9368,-1.44802 9.51734,-4.55149 12.58683,-8.52454 1.77132,-2.29272 2.87037,-4.20458 3.20446,-5.49527 0.015,0.63526 0.0384,1.26855 0.006,1.91512 -0.0745,1.47451 -0.28309,2.91803 -0.59841,4.32429 l -0.31574,1.02061 0.0212,-0.004 c -1.13035,4.2063 -3.27566,8.00671 -6.34845,10.94817 -2.19522,2.10136 -4.68704,3.69748 -7.31273,4.73666 l 0.10387,0.0238 h -0.10955 v -0.0217 c -0.0209,0.008 -0.0421,0.0137 -0.063,0.0217 h -0.29662 c 0,0.0265 0.0296,0.0621 0.0326,0.0904 -1.11332,0.42079 -2.24244,0.76146 -3.38688,0.96841 -0.9627,0.17406 -3.28237,0.28413 -11.85405,0.34003 -8.57167,0.0559 -23.40913,0.0638 -49.48277,0.0558 -56.91806,-0.0184 -59.1364,-0.0404 -61.3575,-0.52606 -5.22522,-1.14256 -9.63652,-3.69768 -13.31856,-7.71633 -1.0391,-1.1341 -1.89566,-2.28372 -2.6846,-3.47007 l 0.045,0.21136 c 0.0154,-0.0259 0.0178,-0.0351 0.007,0.031 l -0.007,-0.031 c -0.007,0.0118 -0.01,0.0207 -0.0274,0.0387 l -0.2098,-0.21807 0.19017,-0.0357 c -1.54269,-2.32043 -2.69311,-4.80887 -3.61012,-7.95662 -0.6629,-2.27529 -0.69835,-2.67752 -0.70435,-7.49618 0,-0.15622 0.001,-0.26092 0.002,-0.37827 z" /><path
           id="path311"
           style="fill:#d8dde1;stroke-width:1.42932"
           d="m 745.96015,-160.17857 c 0.13694,-1e-5 0.0457,-0.0413 0.002,0.002 -9.7e-4,1.2e-4 -9.5e-4,-0.002 -0.002,-0.002 z m 0.17895,0.23413 c -8.1e-4,0.11735 -0.002,0.222 -0.002,0.37822 0.006,4.81866 0.0414,5.22098 0.7043,7.49627 0.91701,3.14775 2.06739,5.63611 3.61008,7.95654 l -0.1905,0.0359 0.20976,0.21813 c 0.0554,-0.0576 0.0507,-0.10436 0.0346,-0.008 l -0.0519,-0.24213 c 0.78894,1.18635 1.64537,2.33588 2.68447,3.46998 3.68204,4.01865 8.09322,6.57384 13.31844,7.7164 2.2211,0.48569 4.4399,0.50793 61.35796,0.5263 26.07364,0.008 40.91109,-7e-5 49.48276,-0.056 8.57168,-0.0559 10.8913,-0.16612 11.854,-0.34018 1.14444,-0.20695 2.27354,-0.54778 3.38686,-0.96857 -0.003,-0.0283 -0.0327,-0.0636 -0.0327,-0.0901 h 0.29635 c 0.021,-0.008 0.0425,-0.0137 0.0634,-0.022 v 0.022 h 0.10967 l -0.10391,-0.0239 c 2.62569,-1.03918 5.11733,-2.63533 7.31255,-4.73669 3.07279,-2.94146 5.21808,-6.74196 6.34843,-10.94826 l -0.0212,0.004 0.3158,-1.02073 c 0.31532,-1.40626 0.52395,-2.84996 0.59847,-4.32447 0.0327,-0.64657 0.009,-1.27983 -0.006,-1.91509 -0.33409,1.29069 -1.43275,3.20241 -3.20407,5.49513 -3.06949,3.97305 -7.65038,7.07684 -12.58718,8.52486 -1.60317,0.47028 -4.32117,0.49229 -63.06292,0.49229 h -61.34255 c -0.026,-9e-5 -0.0518,-0.003 -0.0769,-0.0102 l -2.24765,-0.59434 c -7.88056,-2.08879 -13.77568,-7.02899 -17.63667,-14.78243 z" /><path
           style="fill:#020202;stroke-width:1.42933"
           d="m 767.47349,-124.74886 c -12.78403,-1.44828 -23.5559,-10.0138 -27.50674,-21.87267 -1.34621,-4.04079 -1.71291,-6.39396 -1.72025,-11.03908 -0.01,-6.0768 0.91239,-9.98591 3.58823,-15.21354 4.85416,-9.48331 14.57752,-16.36767 25.09524,-17.76801 l 2.31885,-0.30873 0.16657,-3.0978 c 0.73467,-13.66335 7.72364,-25.96714 19.22475,-33.8444 15.005,-10.27712 35.8261,-9.8436 50.32607,1.04785 3.65726,2.74709 7.85189,7.13994 10.24599,10.73017 1.06066,1.59058 1.96397,2.93077 2.00735,2.97821 0.0434,0.0474 1.19099,-0.26761 2.55026,-0.70011 4.18415,-1.33136 5.33411,-1.50073 10.01201,-1.47466 3.80167,0.0212 4.69611,0.11227 6.92402,0.70506 9.14949,2.43443 16.68883,8.88443 20.3726,17.42902 1.73729,4.02967 2.86329,9.99024 2.47495,13.10129 l -0.17046,1.36561 1.53746,0.44408 c 4.18471,1.20871 9.02247,4.26614 12.38572,7.82766 5.31311,5.62635 7.90047,12.20427 7.90047,20.08559 0,6.51223 -1.70559,11.95924 -5.4417,17.37877 -1.5519,2.25115 -5.22112,5.86404 -7.58752,7.47103 -3.58037,2.43139 -8.37946,4.20533 -12.86325,4.75481 -2.87884,0.35279 -118.72644,0.35265 -121.84062,-1.5e-4 z m 122.66585,-6.46514 c 4.10128,-0.71316 8.05608,-2.71836 11.36041,-5.76005 4.4612,-4.10663 7.12235,-9.8628 7.45103,-16.1169 0.39688,-7.55166 -2.57218,-14.37277 -8.32893,-19.13489 -2.31353,-1.91381 -6.27142,-3.89478 -8.95272,-4.48093 -3.24891,-0.71024 -3.86676,-0.98323 -4.43764,-1.96072 -0.48871,-0.83679 -0.49812,-1.04135 -0.17347,-3.77131 0.20318,-1.70849 0.27013,-3.69369 0.16405,-4.86429 -1.2124,-13.37931 -13.22055,-23.3465 -26.28453,-21.81708 -2.88077,0.33725 -6.63066,1.47965 -8.72724,2.65874 -1.61143,0.90626 -3.3178,1.03218 -4.20132,0.31004 -0.30761,-0.25143 -1.1839,-1.66524 -1.94731,-3.14181 -5.1711,-10.00182 -14.97076,-17.11499 -26.59756,-19.30609 -3.18847,-0.60087 -9.47282,-0.60854 -12.75915,-0.0156 -13.80056,2.49012 -24.97505,12.10509 -29.26565,25.18133 -1.26376,3.85149 -1.55654,5.80914 -1.73046,11.5703 l -0.16557,5.48488 -0.7199,0.71911 c -0.68294,0.68219 -0.89351,0.72875 -4.10105,0.90683 -4.92107,0.27321 -8.19022,1.14048 -11.95865,3.17252 -6.71917,3.62317 -11.10751,9.034 -13.4372,16.56807 -0.67643,2.18755 -0.71829,2.61953 -0.71234,7.35121 0.006,4.70515 0.0525,5.17957 0.72772,7.40833 1.41729,4.67827 3.29803,7.96122 6.465,11.28509 3.7784,3.96556 8.32039,6.49639 13.68225,7.62384 2.29426,0.48242 4.5717,0.50139 62.34086,0.51933 52.92725,0.0164 60.2352,-0.0293 62.30937,-0.38998 z"
           id="path312" /></g><path
         id="path315"
         style="fill:#ffffff;fill-opacity:1"
         d="m 1147.2535,-149.83116 c -0.6267,-0.0458 -0.8966,0.74212 -0.8966,2.54454 v 1.97456 l -1.6971,-0.94878 c -1.883,-1.05305 -2.4007,-1.15449 -2.6448,-0.51831 -0.226,0.58883 0.079,0.89257 1.9596,1.95026 1.8259,1.027 1.8241,1.03402 -0.5757,2.2655 -1.4023,0.71961 -1.609,0.9516 -1.3802,1.54771 0.2402,0.62613 0.7649,0.52108 2.6411,-0.52814 l 1.6971,-0.94877 v 2.09547 c 0,2.26598 0.093,2.51074 0.9152,2.39314 0.4868,-0.0697 0.5475,-0.29422 0.617,-2.27686 l 0.077,-2.19935 1.6857,0.94258 c 1.8654,1.04319 2.3908,1.14739 2.6308,0.52193 0.2273,-0.59239 0.07,-0.76326 -1.5601,-1.69602 -0.7942,-0.4544 -1.5075,-0.92854 -1.5849,-1.05368 -0.077,-0.12515 0.5725,-0.66082 1.4438,-1.19011 1.7828,-1.083 1.9289,-1.24026 1.7012,-1.83348 -0.2371,-0.61793 -0.6886,-0.52627 -2.6096,0.52968 l -1.7286,0.95033 v -2.14922 c 0,-1.67441 -0.089,-2.18304 -0.4005,-2.3027 -0.1043,-0.04 -0.2009,-0.0637 -0.2904,-0.0703 z m -20.2448,0.555 c -0.063,-6.1e-4 -0.1266,0.0178 -0.1907,0.0574 -0.1747,0.10799 -0.3048,0.86083 -0.3048,1.76475 v 1.57613 l -1.3498,-0.68368 c -1.2962,-0.65681 -2.0898,-0.7052 -2.0898,-0.12712 0,0.15013 0.5935,0.60032 1.3188,1.00046 0.7253,0.40014 1.2815,0.84666 1.2361,0.99218 -0.045,0.14552 -0.5388,0.52203 -1.0966,0.83664 -0.5578,0.31462 -1.121,0.76222 -1.2511,0.99478 -0.421,0.75217 0.5096,0.77779 1.7549,0.048 0.6462,-0.37868 1.2428,-0.68884 1.326,-0.68884 0.083,0 0.1515,0.6947 0.1515,1.54357 0,0.84887 0.079,1.62278 0.1762,1.71979 0.3381,0.33807 0.6325,0.17179 0.8888,-0.50229 0.1419,-0.37328 0.2579,-1.14938 0.2579,-1.72444 v -1.04542 l 1.3327,0.67541 c 1.2552,0.63606 1.8423,0.67354 1.8423,0.11834 0,-0.13307 -0.6051,-0.64915 -1.3447,-1.14721 l -1.3446,-0.90538 1.3441,-0.7555 c 1.2216,-0.68616 1.633,-1.30486 1.1726,-1.76527 -0.095,-0.095 -0.8093,0.19144 -1.5875,0.63665 l -1.4149,0.80925 v -1.29139 c 0,-1.19229 -0.3873,-2.13253 -0.8274,-2.13682 z m -53.8907,0.0248 c -0.609,-0.0502 -0.8444,0.71085 -0.8444,2.59002 v 2.07067 l -1.8723,-1.06091 c -1.4919,-0.84541 -1.9485,-0.9971 -2.2489,-0.74776 -0.8205,0.68093 -0.539,0.99854 2.5006,2.8236 l 0.893,0.5364 -1.7276,0.96635 c -2.2128,1.23746 -2.5459,1.61713 -1.9456,2.21743 0.4215,0.42151 0.5539,0.39329 2.2087,-0.47594 0.9683,-0.5086 1.8574,-0.96486 1.9761,-1.01337 0.1186,-0.0485 0.216,0.85456 0.216,2.0066 0,1.15204 0.079,2.17416 0.1762,2.27117 0.2808,0.28081 1.0127,0.20485 1.3586,-0.14107 0.189,-0.18896 0.3173,-1.09949 0.3173,-2.24896 0,-1.0623 0.055,-1.93167 0.1229,-1.93167 0.068,0 0.9035,0.42894 1.8568,0.95292 1.8396,1.01117 2.6116,1.02695 2.4706,0.0506 -0.058,-0.40163 -0.5851,-0.86673 -1.6722,-1.47484 -0.8731,-0.48841 -1.6729,-0.97114 -1.7772,-1.07281 -0.1044,-0.10167 0.61,-0.65909 1.5875,-1.23868 1.1782,-0.69859 1.8041,-1.24309 1.8573,-1.61541 0.1428,-1.00093 -0.6882,-0.94779 -2.5942,0.16537 -0.9963,0.58187 -1.8896,1.05781 -1.9849,1.05781 -0.095,0 -0.095,-0.35466 -5e-4,-0.78806 0.2624,-1.19448 -0.1153,-3.6472 -0.5896,-3.82923 -0.1026,-0.0394 -0.1973,-0.0631 -0.2842,-0.0703 z m 32.9788,0.18965 c -0.7474,0 -1.0149,0.8665 -1.0149,3.28972 0,1.2465 -0.061,2.26653 -0.1349,2.26653 -0.074,0 -1.1485,-0.54815 -2.3874,-1.21802 -1.8386,-0.99407 -2.3244,-1.15817 -2.6433,-0.89348 -0.525,0.43563 -0.4935,1.14807 0.072,1.63091 0.2547,0.2174 1.2785,0.84336 2.2748,1.39113 0.9964,0.54776 1.7108,1.09372 1.5875,1.21284 -0.1232,0.11912 -1.1168,0.74057 -2.2082,1.38131 -1.5619,0.91695 -2.0019,1.31077 -2.066,1.85002 -0.1452,1.21974 0.7546,1.16892 3.1502,-0.17828 1.1811,-0.66424 2.1944,-1.20768 2.2515,-1.20768 0.057,0 0.1039,1.18493 0.1039,2.63291 0,2.22819 0.071,2.6739 0.463,2.90215 0.6158,0.35871 0.9535,0.35087 1.3359,-0.0315 0.2038,-0.20375 0.3178,-1.24648 0.3178,-2.91042 0,-1.4261 0.065,-2.59312 0.1447,-2.59312 0.08,0 1.0732,0.53578 2.2086,1.19062 1.1353,0.65484 2.1829,1.19063 2.328,1.19063 0.145,0 0.4771,-0.23569 0.738,-0.524 0.7007,-0.77431 0.5051,-0.96368 -3.1404,-3.03806 l -1.2929,-0.73587 2.2851,-1.31207 c 1.8263,-1.04857 2.2851,-1.43407 2.2851,-1.91978 0,-0.33424 -0.1726,-0.75052 -0.3834,-0.92552 -0.3092,-0.25663 -0.8136,-0.084 -2.6066,0.89349 -1.2228,0.66651 -2.3003,1.21181 -2.3947,1.21181 -0.094,0 -0.1715,-1.10749 -0.1715,-2.46083 0,-2.53173 -0.2006,-3.09542 -1.1018,-3.09542 z m -16.4052,12.58889 c -0.1186,-0.0201 -0.2524,0.0282 -0.3989,0.14986 -0.2114,0.17545 -0.3504,0.85626 -0.3504,1.71773 v 1.4273 l -1.3141,-0.66559 c -1.5199,-0.77019 -1.8609,-0.8191 -1.8609,-0.26665 0,0.21962 0.6096,0.77416 1.3545,1.23248 l 1.3539,0.83354 -1.3539,0.81546 c -0.807,0.48594 -1.3545,1.00323 -1.3545,1.28054 0,0.63044 0.4476,0.58153 1.8128,-0.19895 0.6333,-0.36205 1.1989,-0.65836 1.2568,-0.65836 0.058,0 0.1054,0.70428 0.1054,1.56528 0,1.0126 0.1168,1.6078 0.3307,1.68465 0.6471,0.23246 0.9922,-0.4046 0.9922,-1.83141 v -1.42731 l 1.3498,0.68368 c 1.298,0.65777 2.0898,0.70493 2.0898,0.12454 0,-0.15143 -0.6126,-0.65201 -1.3611,-1.11259 -1.3249,-0.81522 -1.3467,-0.84833 -0.8227,-1.25419 0.296,-0.22929 0.9086,-0.61975 1.3611,-0.86765 0.4525,-0.24789 0.8227,-0.57902 0.8227,-0.73587 0,-0.60259 -0.8346,-0.55947 -1.9621,0.10129 -0.6462,0.37868 -1.2429,0.68833 -1.3261,0.68833 -0.083,0 -0.1514,-0.63124 -0.1514,-1.4025 0,-1.1487 -0.2176,-1.8233 -0.5736,-1.88361 z m 31.133,4.21215 c -0.4587,0 -0.5399,0.20283 -0.6087,1.52135 -0.044,0.83674 -0.1412,1.52136 -0.2171,1.52136 -0.076,0 -0.6669,-0.30965 -1.3131,-0.68833 -1.1205,-0.65664 -1.9621,-0.70431 -1.9621,-0.11111 0,0.15143 0.5953,0.64164 1.3229,1.08934 0.7276,0.4477 1.3229,0.90624 1.3229,1.01906 0,0.11282 -0.5343,0.48832 -1.187,0.83458 -0.6527,0.34626 -1.2459,0.78427 -1.3183,0.97306 -0.2642,0.68838 0.7528,0.66567 2.017,-0.045 l 1.2821,-0.72088 v 1.55856 c 0,0.85727 0.079,1.63827 0.1762,1.73529 0.3127,0.31276 0.821,0.18774 0.986,-0.24236 0.088,-0.23018 0.1607,-1.00881 0.1607,-1.73064 v -1.31258 l 1.1477,0.67282 c 0.6313,0.36994 1.3457,0.67231 1.5875,0.67231 0.8344,0 0.4363,-0.80888 -0.7509,-1.526 -0.6548,-0.39554 -1.1906,-0.79888 -1.1906,-0.89659 0,-0.0977 0.6119,-0.55432 1.3596,-1.01441 1.1939,-0.73463 1.3124,-0.88386 0.9721,-1.22421 -0.3404,-0.34034 -0.5302,-0.30589 -1.5581,0.28164 -0.6437,0.36797 -1.2537,0.67055 -1.3555,0.67231 -0.1019,0.002 -0.2209,-0.68152 -0.2645,-1.51826 -0.069,-1.31852 -0.1502,-1.52135 -0.6088,-1.52135 z m 18.2222,1.77198 c -0.1059,0.01 -0.2223,0.0353 -0.3504,0.076 -0.4928,0.15641 -0.5416,0.38625 -0.5416,2.53576 0,1.62465 -0.097,2.36316 -0.309,2.36316 -0.1698,0 -1.0784,-0.42302 -2.019,-0.93999 -1.9025,-1.04575 -2.7862,-1.10118 -2.9166,-0.18293 -0.062,0.43821 0.1329,0.71962 0.7333,1.05833 0.4499,0.25377 1.4229,0.83088 2.1621,1.28261 l 1.3441,0.82165 -2.1595,1.2454 c -1.7807,1.02712 -2.1453,1.34742 -2.0774,1.8247 0.1326,0.93181 1.0762,0.83203 3.129,-0.33125 1.0426,-0.59078 1.9442,-1.07435 2.004,-1.07435 0.06,0 0.109,1.11143 0.109,2.46962 0,1.3582 0.079,2.54882 0.1762,2.64583 0.2931,0.29313 1.0632,0.19809 1.3674,-0.16846 h 5e-4 c 0.1573,-0.18948 0.3204,-1.36573 0.3628,-2.61431 l 0.077,-2.27015 1.8092,1.02681 c 2.0183,1.14606 2.6779,1.26076 3.068,0.53175 0.3196,-0.59723 0.061,-0.85215 -2.2975,-2.25981 -0.9095,-0.54294 -1.6532,-1.02901 -1.6532,-1.08055 0,-0.0515 0.6842,-0.47844 1.5209,-0.94827 1.9492,-1.09445 2.4474,-1.53069 2.4474,-2.14405 0,-0.94586 -0.8457,-0.87601 -2.9663,0.24598 l -2.0603,1.09037 v -2.33112 c 0,-2.19914 -0.2189,-2.93974 -0.9601,-2.8727 z m -70.8288,3.1347 c -0.4838,0.0913 -0.7069,0.95571 -0.7069,2.6665 0,1.14635 -0.048,2.08411 -0.107,2.08411 -0.059,0 -0.8029,-0.39305 -1.6536,-0.87333 -2.0417,-1.15265 -2.353,-1.2566 -2.7048,-0.90486 -0.6484,0.64849 -0.279,1.21325 1.4113,2.15853 0.9395,0.5254 1.7736,1.06158 1.8536,1.19114 0.08,0.12956 -0.6591,0.69686 -1.6423,1.26091 -1.2394,0.71108 -1.8135,1.20516 -1.8722,1.61127 -0.1462,1.01083 0.6735,0.99885 2.5937,-0.0382 0.9834,-0.53115 1.8627,-0.96584 1.9544,-0.96584 0.092,0 0.1669,0.99237 0.1669,2.20504 0,1.21267 0.079,2.28424 0.1767,2.38125 0.2808,0.28081 1.0122,0.20485 1.3581,-0.14108 0.1927,-0.19267 0.3173,-1.12889 0.3173,-2.38125 0,-1.13506 0.072,-2.06396 0.1607,-2.06396 0.088,0 0.9684,0.44182 1.9559,0.98186 1.5352,0.83958 1.857,0.9306 2.2206,0.6289 0.7454,-0.61867 0.4697,-1.03234 -1.4268,-2.13992 -1.0186,-0.59492 -1.8516,-1.16542 -1.8506,-1.26814 10e-4,-0.10272 0.8344,-0.64053 1.8521,-1.19476 1.8867,-1.02749 2.2701,-1.62195 1.4723,-2.2841 -0.3022,-0.25078 -0.7795,-0.0939 -2.3704,0.77928 l -1.9921,1.09296 -0.077,-2.17248 c -0.06,-1.68246 -0.1765,-2.23539 -0.5178,-2.44998 -0.2206,-0.13865 -0.4108,-0.19424 -0.5721,-0.16381 z m 38.2984,6.3655 c -0.153,-0.0183 -0.3274,0.0694 -0.6583,0.2465 -0.4559,0.244 -0.5116,0.57604 -0.5116,3.0427 0,1.52285 -0.091,2.76883 -0.2026,2.76883 -0.1114,0 -1.0342,-0.48827 -2.0505,-1.08521 -2.6461,-1.55417 -2.8969,-1.62654 -3.4644,-0.99942 -0.6773,0.74839 -0.3204,1.18916 2.1663,2.67736 1.1528,0.68989 2.0825,1.34473 2.066,1.4552 -0.016,0.11047 -1.0286,0.79698 -2.249,1.52549 -2.3796,1.42043 -2.8947,2.20271 -1.8272,2.77399 0.4733,0.25332 0.8989,0.1004 2.8603,-1.02681 l 2.3042,-1.32395 0.1323,2.69803 c 0.073,1.484 0.2285,2.84686 0.3462,3.02876 0.3301,0.51006 1.4531,0.3948 1.7612,-0.18087 0.1507,-0.28148 0.2739,-1.6507 0.2739,-3.04271 0,-1.39202 0.048,-2.53111 0.1074,-2.53111 0.059,0 1.1279,0.60101 2.3756,1.33532 1.8935,1.11446 2.3572,1.28784 2.8035,1.04903 0.3031,-0.16224 0.5343,-0.55495 0.5343,-0.90692 0,-0.49558 -0.4362,-0.8803 -2.1642,-1.90893 -1.1903,-0.70854 -2.1661,-1.40736 -2.1684,-1.55288 0,-0.14552 0.8817,-0.76722 1.9643,-1.38183 2.1038,-1.19432 2.6829,-1.75128 2.451,-2.35541 -0.3709,-0.9667 -1.0189,-0.88039 -3.3383,0.44494 -1.2588,0.71929 -2.3513,1.30793 -2.4273,1.30793 -0.076,0 -0.1379,-1.18191 -0.1379,-2.62672 0,-2.03535 -0.094,-2.72056 -0.416,-3.0427 -0.246,-0.24594 -0.3777,-0.37035 -0.5308,-0.38861 z" /></g><g
       id="g358"><path
         style="fill:none;fill-opacity:1"
         d="m 1245.8402,-170.4929 v -135.46666 h 135.4666 135.4667 v 135.46666 135.46666 h -135.4667 -135.4666 z"
         id="path331" /><path
         id="path85"
         style="fill:#b3bbc3"
         d="m 1367.9015,-177.72507 v 24.25382 24.2533 h 12.2587 12.2592 v -24.2533 -24.25382 h -12.2592 z" /><path
         id="path357"
         style="fill:#059de8"
         d="m 1355.2826,-229.54258 c -2.0493,0.10446 -4.1023,0.53795 -6.0528,1.30638 -2.0875,0.82237 -3.8828,2.00246 -5.5986,3.67988 -3.6398,3.55819 -5.5312,7.93589 -5.5372,12.81524 -0.011,8.56323 6.0237,15.72544 14.6157,17.34726 1.9938,0.37636 6.036,0.24415 7.8713,-0.25735 6.3881,-1.74564 11.0756,-6.46028 12.8199,-12.89533 0.3426,-1.26391 0.4034,-1.92427 0.4062,-4.39767 0,-2.64193 -0.042,-3.07048 -0.4816,-4.64468 -1.2647,-4.52485 -4.383,-8.55994 -8.3163,-10.76161 -2.9054,-1.62623 -6.311,-2.36622 -9.7266,-2.19212 z m 1.5095,6.1433 c 0.5007,0.002 0.9393,0.10752 1.2904,0.32452 1.1121,0.68731 1.1392,0.88279 1.2505,9.10177 0.055,4.07458 0.1004,7.94412 0.1008,8.59896 v 1.19063 h 1.1048 c 1.3072,0 2.1483,0.38049 2.7316,1.23506 0.7739,1.13383 0.3657,2.76855 -0.8806,3.52847 -0.5405,0.3295 -0.8972,0.35052 -5.9546,0.35088 -4.7741,3.5e-4 -5.4479,-0.0343 -5.9847,-0.30799 -0.9287,-0.47356 -1.3353,-1.14886 -1.3353,-2.21743 0,-1.75814 1.0694,-2.58899 3.3336,-2.58899 h 1.3405 v -5.56659 c 0,-4.40778 -0.046,-5.53816 -0.2206,-5.43119 -0.1213,0.0743 -0.4982,0.32424 -0.8377,0.55552 -1.1272,0.76773 -2.724,0.28039 -3.3951,-1.03559 -0.815,-1.5985 -0.1205,-3.44395 1.9538,-5.18935 1.9379,-1.63062 3.9995,-2.55476 5.5015,-2.54868 z" /><path
         id="path84"
         style="fill:#059de8"
         d="m 1398.2402,-209.47507 v 40.12882 40.1283 h 12.6117 12.6121 v -40.1283 -40.12882 h -12.6121 z" /><path
         style="fill:#000101"
         d="m 1326.9522,-123.92892 c -0.7096,-0.37544 -1.323,-1.23444 -1.4948,-2.09341 -0.1626,-0.81321 0.3658,-2.04478 1.1264,-2.62534 0.5642,-0.43072 0.8063,-0.48853 2.274,-0.54305 l 1.6425,-0.061 0.047,-17.7621 c 0.053,-19.84274 -0.063,-18.14349 1.3087,-19.1899 l 0.6513,-0.49681 14.8746,-0.0498 14.8746,-0.0498 v -7.05549 c 0,-5.95027 0.043,-7.15722 0.2713,-7.70484 0.3654,-0.87468 0.7415,-1.26805 1.5807,-1.65342 0.6655,-0.30557 1.4953,-0.32421 14.5933,-0.32787 l 13.8877,-0.004 0.047,-14.89199 c 0.047,-14.80225 0.049,-14.89499 0.4164,-15.38993 0.2032,-0.27387 0.6794,-0.67523 1.0583,-0.89192 l 0.689,-0.39397 15.9632,9.7e-4 c 15.1896,9.3e-4 15.9982,0.0169 16.6862,0.32933 0.7646,0.34725 1.3966,1.07666 1.5519,1.79132 0.074,0.34178 0.2526,50.56247 0.2777,78.2502 l 0.01,5.50054 2.9864,0.0557 c 2.7041,0.0505 3.0333,0.0906 3.4836,0.42471 1.7313,1.28444 1.731,3.44702 -6e-4,4.73006 l -0.498,0.369 -53.8298,0.0368 c -52.8974,0.0361 -53.8409,0.0309 -54.474,-0.30404 z m 35.3047,-21.25218 v -15.96319 h -12.9646 -12.9646 v 15.96319 15.9632 h 12.9646 12.9646 z m 30.1625,-8.29028 v -24.25347 h -12.2591 -12.259 v 24.25347 24.25348 h 12.259 12.2591 z m 31.0444,-15.875 v -40.12847 h -12.6118 -12.6118 v 40.12847 40.12848 h 12.6118 12.6118 z m -69.9382,-19.31448 c -7.9034,-0.77493 -15.0542,-5.65796 -18.6148,-12.71146 -0.8134,-1.61151 -1.5072,-3.60693 -1.9653,-5.65312 -0.3484,-1.55616 -0.4092,-2.31018 -0.4034,-5.00705 0.01,-4.45831 0.4496,-6.43033 2.283,-10.23055 2.703,-5.60265 7.7116,-9.92822 13.6734,-11.80886 2.4963,-0.78742 3.8471,-1.01274 6.6146,-1.10335 6.1857,-0.20253 11.9163,1.81401 16.4561,5.79071 3.8061,3.33407 6.452,7.98351 7.4655,13.11872 0.3705,1.87712 0.3236,7.19598 -0.08,9.04314 -1.0371,4.74983 -3.0687,8.48708 -6.454,11.87239 -3.4279,3.42788 -7.2374,5.45692 -12.0079,6.39577 -1.6694,0.32854 -5.1258,0.47422 -6.9674,0.29366 z m 7.0556,-5.9901 c 6.3881,-1.74564 11.0752,-6.46064 12.8195,-12.89569 0.3426,-1.26391 0.4036,-1.92424 0.4064,-4.39764 0,-2.64193 -0.042,-3.0704 -0.4815,-4.6446 -1.2647,-4.52485 -4.3829,-8.55985 -8.3162,-10.76152 -4.6486,-2.60196 -10.578,-2.93474 -15.7794,-0.88558 -2.0875,0.82237 -3.883,2.00247 -5.5988,3.67989 -3.6398,3.55819 -5.5313,7.93589 -5.5373,12.81524 -0.011,8.56323 6.0239,15.72533 14.6159,17.34715 1.9938,0.37636 6.0361,0.24425 7.8714,-0.25725 z m -10.1299,-4.7259 c -0.9287,-0.47356 -1.3354,-1.14895 -1.3354,-2.21752 0,-1.75814 1.0697,-2.5888 3.3339,-2.5888 h 1.3404 v -5.56666 c 0,-4.40778 -0.046,-5.53854 -0.2205,-5.43157 -0.1213,0.0743 -0.4983,0.32432 -0.8378,0.5556 -1.1272,0.76773 -2.7242,0.28079 -3.3953,-1.03519 -0.815,-1.5985 -0.12,-3.44422 1.9543,-5.18962 2.5838,-2.17416 5.3872,-3.09222 6.7916,-2.22421 1.1121,0.68731 1.139,0.88309 1.2503,9.10207 0.055,4.07458 0.1007,7.94411 0.1011,8.59895 l 7e-4,1.19063 h 1.1052 c 1.3072,0 2.148,0.38006 2.7313,1.23463 0.7739,1.13383 0.366,2.7689 -0.8803,3.52882 -0.5405,0.3295 -0.8974,0.35053 -5.9548,0.35089 -4.7741,3.5e-4 -5.4479,-0.0343 -5.9847,-0.30802 z"
         id="path83" /><path
         id="path356"
         style="fill:#ffffff;stroke-width:2;stroke-linecap:round;stroke-linejoin:round;paint-order:markers stroke fill"
         d="m 5050.6876,-609.04884 v 60.33204 60.33398 h 49 49 v -60.33398 -60.33204 h -49 z"
         transform="scale(0.26458333)" /></g></g></svg>
