<?xml version="1.0" encoding="UTF-8" standalone="no"?>
<!-- Created with Inkscape (http://www.inkscape.org/) -->

<svg
   viewBox="0 0 100 100"
   xmlns="http://www.w3.org/2000/svg"><defs
     id="defs1" /><g
     id="layer1"
     transform="translate(1905.3598,476.89293)"><g
       id="g184"
       transform="matrix(0.36909469,0,0,0.36909469,-1265.1922,-363.96488)"
       style="stroke-width:2.70933"><path
         style="fill:none;stroke-width:2.70933"
         d="m -1734.4264,-170.4929 v -135.46666 h 135.4667 135.4666 v 135.46666 135.46666 h -135.4666 -135.4667 z"
         id="path28" /><path
         id="path27"
         style="fill:#00acf6;stroke-width:2.70933"
         d="m -1595.4513,-213.88565 0.078,4.49895 c 0.066,3.81274 0.01,4.64483 -0.3756,5.45548 -0.6073,1.2798 -1.7658,1.95059 -3.3719,1.95182 -1.1381,8.8e-4 -1.4042,-0.11537 -2.2888,-0.99994 -1.2237,-1.2237 -1.4163,-2.34453 -1.279,-7.43986 l 0.093,-3.46594 h -0.6278 c -1.0938,1.9e-4 -6.1654,0.80109 -8.5003,1.34204 -12.8121,2.96828 -24.3907,10.62788 -31.6621,20.94601 -4.0116,5.69255 -7.062,12.45938 -8.552,18.97197 -0.4856,2.12247 -1.3035,7.33647 -1.3203,8.41602 0,0.25196 1.0819,0.331 4.5589,0.33176 4.0572,8.8e-4 4.6579,0.0579 5.4095,0.51625 1.728,1.05363 2.2509,3.07099 1.2413,4.79041 -0.9415,1.60355 -1.7998,1.83606 -6.779,1.83606 h -4.4359 v 0.65216 c 0,1.50221 0.881,6.79444 1.5844,9.51621 1.0267,3.97316 1.8893,6.31994 3.7027,10.07226 6.0902,12.60149 17.0864,22.40967 30.2854,27.01385 3.5108,1.22469 8.2044,2.37608 11.1265,2.72955 3.5677,0.43157 3.6965,0.44481 3.7946,0.38292 0.05,-0.0315 0.075,-1.94278 0.055,-4.24677 l 10e-4,5.2e-4 c -0.044,-5.20952 0.2305,-6.6573 1.4702,-7.74578 1.797,-1.5778 4.6105,-0.9013 5.5005,1.32292 0.3334,0.83329 0.4237,2.07107 0.4237,5.81566 v 4.75733 l 1.1245,-0.005 c 2.7223,-0.0115 8.8726,-1.3 13.4984,-2.82825 2.9931,-0.98888 8.7582,-3.90288 12.1,-6.11591 11.0672,-7.32892 19.1765,-18.82122 22.5191,-31.91278 0.4309,-1.68753 1.5515,-8.31599 1.557,-9.21029 7e-4,-0.10914 -1.9692,-0.19844 -4.3775,-0.19844 -4.8098,0 -5.3322,-0.12708 -6.5702,-1.59835 -1.3353,-1.58692 -0.644,-4.35696 1.2888,-5.16454 0.6675,-0.27888 2.0715,-0.38086 5.241,-0.38086 h 4.33 l -0.3436,-2.84427 c -1.4744,-12.21012 -6.5255,-22.40711 -15.5639,-31.41927 -8.1423,-8.11859 -17.4353,-12.96577 -28.9342,-15.09159 -1.9378,-0.35825 -4.081,-0.65145 -4.7625,-0.65164 z m 25.7359,21.45709 c 0.5606,0.0406 1.0976,0.20628 1.5679,0.49299 1.3677,0.83396 1.7518,1.64271 1.6081,3.38791 l -0.125,1.51825 -10.7668,10.59057 -10.7663,10.59057 0.5721,1.29397 c 0.7978,1.80369 0.9747,5.03692 0.3989,7.29051 -1.6367,6.40505 -8.4613,10.32014 -14.9494,8.57571 -6.5752,-1.76781 -10.4638,-8.81074 -8.3318,-15.09055 0.2531,-0.74529 0.3184,-1.29456 0.1658,-1.39268 -0.1385,-0.0891 -3.1249,-2.88482 -6.6362,-6.21254 -5.1343,-4.8658 -6.4431,-6.24671 -6.6844,-7.05229 -0.9049,-3.02012 1.8998,-5.74703 4.732,-4.60127 0.4742,0.19185 3.6704,3.00346 7.1029,6.2482 3.4324,3.24473 6.3563,5.94162 6.4978,5.99343 0.1414,0.0518 0.9934,-0.24469 1.893,-0.65887 1.4757,-0.67941 1.9071,-0.75171 4.4136,-0.74207 2.2655,0.009 3.0432,0.12063 4.2142,0.60719 l 1.4361,0.59687 2.7968,-2.72697 c 1.5383,-1.49964 6.3093,-6.20207 10.6024,-10.45001 4.293,-4.24795 8.1407,-7.84958 8.5504,-8.00364 0.5633,-0.21182 1.1474,-0.29591 1.7079,-0.25528 z" /><path
         style="fill:#636363;stroke-width:2.70933"
         d="m -1598.8268,-165.13152 c -0.3947,-0.002 -0.7974,0.0523 -1.2066,0.16174 -2.4711,0.66092 -3.8132,2.35516 -3.8132,4.81418 0,3.57977 3.7929,5.80227 7.1385,4.18269 2.9306,-1.41867 3.5184,-5.30902 1.1586,-7.66878 -0.9832,-0.98326 -2.0932,-1.48511 -3.2773,-1.48983 z"
         id="path131" /><path
         style="fill:#636363;stroke-width:2.70933"
         d="m -1548.7301,-232.72533 c -0.085,0.12624 -0.6108,0.78017 -1.1684,1.45314 -0.7905,0.95391 -0.9721,1.35571 -0.8232,1.8247 0.492,1.55043 1.8504,3.0302 5.8167,6.33656 4.0727,3.39495 5.9961,4.954 6.1438,4.98058 0.038,0.007 0.5917,-0.23334 1.2309,-0.53382 2.5168,-1.18305 2.7739,-0.73497 -4.5175,-7.88738 -3.5905,-3.52204 -6.5975,-6.30003 -6.6823,-6.17378 z"
         id="path130" /><path
         style="fill:#636363;stroke-width:2.70933"
         d="m -1593.4669,-244.32255 -5.4901,0.0718 -5.4901,0.0713 -0.073,3.9026 -0.073,3.90261 h 5.563 5.5635 l -5e-4,-3.97392 z"
         id="path129" /><path
         style="fill:#636363;stroke-width:2.70933"
         d="m -1617.9404,-260.84816 -0.072,4.72788 c -0.05,3.26276 0.022,4.8411 0.231,5.09323 0.2526,0.3044 3.4039,0.36535 18.8913,0.36535 15.483,0 18.6367,-0.0612 18.8909,-0.36535 0.2093,-0.25213 0.281,-1.83047 0.231,-5.09323 l -0.072,-4.72788 h -19.05 z"
         id="path26" /><path
         style="fill:#000000;stroke-width:2.70933"
         d="m -1605.77,-84.51931 c -10.4103,-0.80755 -21.1307,-4.03004 -30.3711,-9.1294 -19.7681,-10.90909 -33.7503,-29.89275 -37.9962,-51.58765 -1.1042,-5.64212 -1.2182,-7.0184 -1.2153,-14.67321 0,-8.15448 0.3702,-11.6417 1.8944,-17.99167 6.8039,-28.34516 29.3552,-50.39837 57.699,-56.42466 l 4.0337,-0.85763 v -4.40852 -4.40853 l -4.1672,-0.0894 c -3.8168,-0.0819 -4.2752,-0.14454 -5.4515,-0.74533 -1.4488,-0.73998 -2.4088,-1.7605 -3.1164,-3.31281 -0.4246,-0.93138 -0.4832,-1.83988 -0.4883,-7.5735 -0.01,-7.02777 0.1179,-7.85514 1.438,-9.58596 0.3688,-0.48353 1.2962,-1.22577 2.0608,-1.64943 l 1.3902,-0.77027 h 21.0344 21.0343 l 1.0584,0.57212 c 1.4065,0.76034 2.6275,2.07145 3.2865,3.52892 0.4953,1.0954 0.5383,1.71962 0.5383,7.80521 0,7.35729 -0.099,7.87474 -1.8311,9.60723 -1.7739,1.77393 -2.6013,2.01691 -7.2192,2.1201 l -4.1672,0.0931 v 4.40853 4.40852 l 3.9007,0.88474 c 8.5558,1.94059 16.0667,4.91053 23.2325,9.18652 2.0951,1.25019 3.695,1.96729 4.3893,1.96729 0.097,0 -0.3434,-0.77556 -0.979,-1.72347 -1.9312,-2.8798 -2.2635,-5.52407 -1.0104,-8.03874 0.8762,-1.75829 4.0753,-5.02839 5.67,-5.79596 1.5797,-0.7603 3.8977,-0.77418 5.5314,-0.0331 1.4469,0.65635 14.8234,13.8264 15.7013,15.45899 0.8753,1.62785 0.8061,4.63026 -0.1441,6.25166 -0.9103,1.55335 -3.5027,3.953 -5.143,4.76053 -1.9494,0.95973 -4.4787,0.88921 -6.6463,-0.1853 -0.9041,-0.44814 -1.6437,-0.73208 -1.6437,-0.631 0,0.23396 0.8065,1.28846 2.5225,3.29786 7.9412,9.29942 13.2257,19.58512 16.2491,31.62699 1.492,5.94263 2.131,11.41676 2.1283,18.23181 0,8.36297 -0.7445,13.70163 -2.8998,20.88897 -5.2415,17.47887 -16.134,32.30228 -30.8324,41.95937 -14.791,9.71792 -31.4789,13.95324 -49.4771,12.55708 z m 16.6403,-7.77688 c 7.9405,-1.27756 14.2492,-3.27197 21.0526,-6.65545 18.1153,-9.00915 31.1585,-25.05869 36.1306,-44.45855 1.5365,-5.99506 2.0828,-10.29338 2.0801,-16.36709 0,-5.75053 -0.2864,-8.77186 -1.2892,-13.72179 -2.778,-13.71178 -9.335,-25.69246 -19.3518,-35.35842 -7.4203,-7.16035 -14.8353,-11.89459 -24.0418,-15.34984 -20.2685,-7.60692 -42.8911,-5.41231 -61.2006,5.93704 -16.6263,10.30607 -27.7488,26.90675 -31.3905,46.85134 -1.373,7.51957 -1.2149,17.32318 0.4052,25.13542 4.8381,23.32881 22.0747,42.89214 44.7746,50.81855 4.8379,1.68934 11.2771,3.07527 16.9842,3.65561 2.4736,0.25152 13.3307,-0.082 15.8466,-0.48682 z m -15.5093,-6.51673 c -5.8992,-0.62425 -12.9688,-2.35945 -17.932,-4.4013 -9.4616,-3.89242 -17.9494,-10.09911 -24.1632,-17.66931 -13.2896,-16.19028 -17.5011,-37.34504 -11.4253,-57.38969 3.697,-12.19667 11.4397,-23.25584 21.6683,-30.94947 7.6524,-5.7559 16.0209,-9.40091 26.2972,-11.45398 4.5124,-0.90153 13.8333,-1.15497 18.7115,-0.50877 4.9135,0.65087 5.0241,0.67345 9.2716,1.8926 15.5735,4.46996 28.6511,14.57225 36.8469,28.46373 6.4045,10.85544 9.2697,24.29111 7.8637,36.87466 -0.8092,7.24273 -2.3021,12.85227 -5.0488,18.97184 -2.9826,6.6448 -5.8184,10.87967 -11.4149,17.04653 -6.9554,7.66419 -18.6734,14.60954 -29.1707,17.28975 -7.2434,1.84941 -15.0574,2.51561 -21.5043,1.83341 z m 1.9255,-11.80109 c -0.044,-5.20952 0.2307,-6.65745 1.4704,-7.74593 1.797,-1.5778 4.6106,-0.90092 5.5006,1.3233 0.3334,0.83329 0.4235,2.07116 0.4235,5.81575 v 4.75715 l 1.1245,-0.005 c 2.7223,-0.0115 8.8728,-1.30031 13.4986,-2.82856 2.9931,-0.98888 8.758,-3.90267 12.0998,-6.1157 11.0672,-7.32892 19.1766,-18.82108 22.5192,-31.91264 0.4309,-1.68753 1.5512,-8.31644 1.5567,-9.21074 7e-4,-0.10914 -1.9692,-0.19844 -4.3775,-0.19844 -4.8098,0 -5.332,-0.12703 -6.57,-1.5983 -1.3353,-1.58692 -0.6441,-4.35692 1.2887,-5.1645 0.6675,-0.27888 2.0718,-0.38095 5.2413,-0.38095 h 4.3296 l -0.3434,-2.84427 c -1.4744,-12.21012 -6.5257,-22.40711 -15.5641,-31.41927 -8.1423,-8.11859 -17.4351,-12.96552 -28.934,-15.09134 -1.9378,-0.35825 -4.081,-0.65152 -4.7625,-0.65171 l -1.2392,-3.4e-4 0.078,4.49898 c 0.066,3.81274 0.01,4.64489 -0.3757,5.45554 -0.6073,1.2798 -1.7656,1.95019 -3.3717,1.95142 -1.1381,8.8e-4 -1.4043,-0.11544 -2.2889,-1.00001 -1.2237,-1.2237 -1.4164,-2.34446 -1.2791,-7.43979 l 0.093,-3.46567 -0.6275,1e-4 c -1.0938,1.9e-4 -6.1657,0.80066 -8.5006,1.34161 -12.8121,2.96828 -24.3906,10.62816 -31.662,20.94629 -4.0116,5.69255 -7.0619,12.45944 -8.5519,18.97203 -0.4856,2.12247 -1.3037,7.33615 -1.3205,8.4157 0,0.25196 1.0818,0.33096 4.5588,0.33172 4.0572,8.8e-4 4.658,0.0582 5.4096,0.51653 1.728,1.05363 2.2507,3.07087 1.2411,4.79029 -0.9415,1.60355 -1.7996,1.83594 -6.7788,1.83594 h -4.4359 v 0.65236 c 0,1.50221 0.8812,6.79448 1.5846,9.51625 1.0267,3.97316 1.8894,6.31969 3.7028,10.07201 6.0902,12.60149 17.0863,22.40985 30.2853,27.01403 3.5108,1.22469 8.2041,2.37608 11.1262,2.72955 3.5677,0.43157 3.6969,0.4446 3.795,0.38271 0.05,-0.0315 0.075,-1.94236 0.055,-4.24635 z m 0.5373,-38.07409 c -6.5752,-1.76781 -10.4636,-8.8108 -8.3316,-15.09061 0.2531,-0.74529 0.3185,-1.29467 0.1659,-1.39279 -0.1385,-0.0891 -3.1248,-2.8847 -6.6361,-6.21242 -5.1343,-4.8658 -6.443,-6.2465 -6.6843,-7.05208 -0.9049,-3.02012 1.8994,-5.74738 4.7316,-4.60162 0.4742,0.19185 3.6705,3.00359 7.103,6.24833 3.4324,3.24473 6.3565,5.9419 6.498,5.99371 0.1414,0.0518 0.9932,-0.24468 1.8928,-0.65886 1.4757,-0.67941 1.9073,-0.752 4.4138,-0.74236 2.2655,0.009 3.0431,0.12079 4.2141,0.60735 l 1.436,0.59666 2.7969,-2.72662 c 1.5383,-1.49964 6.3095,-6.20221 10.6026,-10.45015 4.293,-4.24795 8.1407,-7.84959 8.5504,-8.00365 1.1265,-0.42363 2.3352,-0.33601 3.2757,0.23741 1.3677,0.83396 1.7517,1.64305 1.608,3.38825 l -0.125,1.51819 -10.7666,10.59045 -10.7667,10.59045 0.5725,1.29412 c 0.7978,1.80369 0.9747,5.03701 0.3989,7.2906 -1.6367,6.40505 -8.4618,10.32007 -14.9499,8.57564 z m 5.4682,-7.28478 c 2.9306,-1.41867 3.5184,-5.30917 1.1586,-7.66893 -1.311,-1.31101 -2.8471,-1.76601 -4.484,-1.3282 -2.4711,0.66092 -3.8133,2.35551 -3.8133,4.81453 0,3.57977 3.7931,5.80218 7.1387,4.1826 z m 59.1779,-62.69135 c 2.5168,-1.18305 2.7736,-0.73474 -4.5178,-7.88715 -3.5905,-3.52204 -6.5976,-6.30042 -6.6824,-6.17417 -0.085,0.12624 -0.6106,0.78014 -1.1682,1.45311 -0.7905,0.95391 -0.9719,1.35616 -0.823,1.82515 0.492,1.55043 1.8502,3.02987 5.8165,6.33623 4.0727,3.39495 5.9959,4.95415 6.1436,4.98073 0.038,0.007 0.5921,-0.23342 1.2313,-0.5339 z m -55.9368,-21.68404 v -3.97412 l -5.4901,0.0715 -5.4901,0.0715 -0.073,3.90261 -0.073,3.9026 h 5.5633 5.5633 z m 13.4676,-10.67873 c 0.2093,-0.25213 0.2808,-1.83047 0.2308,-5.09323 l -0.072,-4.72788 h -19.05 -19.05 l -0.072,4.72788 c -0.05,3.26276 0.022,4.8411 0.2308,5.09323 0.2526,0.3044 3.4042,0.36535 18.8916,0.36535 15.4873,0 18.6389,-0.061 18.8915,-0.36535 z"
         id="path25" /><path
         id="path183"
         style="fill:#ffffff;fill-opacity:1;stroke:none;stroke-width:5.41866;stroke-linecap:round;stroke-linejoin:round;stroke-dasharray:none;stroke-opacity:1;paint-order:markers stroke fill"
         d="m -6039.6583,-864.2422 c -49.8342,-0.81904 -99.4523,12.47372 -142.7031,39.28321 -62.8396,38.95207 -104.8767,101.69504 -118.6406,177.07617 -5.1893,28.42042 -4.592,65.47342 1.5312,95 18.2858,88.17188 83.4317,162.11223 169.2266,192.07032 18.285,6.3849 42.6212,11.62299 64.1914,13.8164 9.349,0.95063 50.3837,-0.30981 59.8926,-1.83984 30.0113,-4.82858 53.8566,-12.36634 79.5703,-25.1543 68.4673,-34.05033 117.7644,-94.7109 136.5566,-168.0332 5.8073,-22.6585 7.8716,-38.90363 7.8614,-61.85938 0,-21.73429 -1.083,-33.15293 -4.8731,-51.86133 -10.4995,-51.82405 -35.2818,-97.10591 -73.1406,-133.63867 -28.0452,-27.06274 -56.071,-44.95642 -90.8672,-58.01563 -28.727,-10.78146 -58.7049,-16.35232 -88.6055,-16.84375 z m -11.2734,27.03321 c 13.2436,-0.3601 26.6602,0.0113 35.8789,1.23242 18.5707,2.45998 18.9894,2.54453 35.043,7.15234 58.8604,16.89434 108.2874,55.07685 139.2636,107.58008 24.206,41.02844 35.0348,91.80927 29.7207,139.36914 -3.0584,27.3741 -8.7008,48.576 -19.082,71.70508 -11.2728,25.11421 -21.9904,41.11992 -43.1426,64.42774 -26.2881,28.96701 -70.5771,55.21577 -110.2519,65.3457 -27.3767,6.9899 -56.9092,9.50808 -81.2754,6.92969 -22.2962,-2.35937 -49.0169,-8.91754 -67.7754,-16.63477 -35.7604,-14.71151 -67.839,-38.16947 -91.3242,-66.78125 -50.2284,-61.19161 -66.1453,-141.14694 -43.1817,-216.90625 13.9729,-46.09765 43.2353,-87.89632 81.8946,-116.97461 28.9224,-21.75458 60.551,-35.52943 99.3906,-43.28906 8.5274,-1.70368 21.5981,-2.79616 34.8418,-3.15625 z"
         transform="scale(0.26458333)" /></g></g></svg>
