<?xml version="1.0" encoding="utf-8"?>
<!-- Generator: Adobe Illustrator 24.3.0, SVG Export Plug-In . SVG Version: 6.00 Build 0)  -->
<svg version="1.1" id="Layer_1" xmlns="http://www.w3.org/2000/svg" xmlns:xlink="http://www.w3.org/1999/xlink" x="0px" y="0px"
	 viewBox="0 0 100 100" style="enable-background:new 0 0 100 100;" xml:space="preserve">
<style type="text/css">
	.st0{fill:none;}
	.st1{fill:#00ACF6;}
	.st2{fill:#636363;}
	.st3{fill:#FFFFFF;}
</style>
<path id="path28" class="st0" d="M0,50V0h50h50v50v50H50H0V50z"/>
<g>
	<path id="path27" class="st1" d="M51.9,29.3l0,2.5c0,2.1,0,2.5-0.2,3c-0.3,0.7-1,1.1-1.8,1.1c-0.6,0-0.8-0.1-1.2-0.5
		C48,34.6,47.9,34,48,31.2l0.1-1.9h-0.3c-0.6,0-3.4,0.4-4.6,0.7c-7,1.6-13.3,5.8-17.3,11.4c-2.2,3.1-3.8,6.8-4.7,10.3
		c-0.3,1.2-0.7,4-0.7,4.6c0,0.1,0.6,0.2,2.5,0.2c2.2,0,2.5,0,2.9,0.3c0.9,0.6,1.2,1.7,0.7,2.6c-0.5,0.9-1,1-3.7,1h-2.4v0.4
		c0,0.8,0.5,3.7,0.9,5.2c0.6,2.2,1,3.4,2,5.5c3.3,6.9,9.3,12.2,16.5,14.7c1.9,0.7,4.5,1.3,6.1,1.5c1.9,0.2,2,0.2,2.1,0.2
		c0,0,0-1.1,0-2.3l0,0c0-2.8,0.1-3.6,0.8-4.2c1-0.9,2.5-0.5,3,0.7c0.2,0.5,0.2,1.1,0.2,3.2v2.6l0.6,0c1.5,0,4.8-0.7,7.4-1.5
		c1.6-0.5,4.8-2.1,6.6-3.3c6-4,10.5-10.3,12.3-17.4c0.2-0.9,0.8-4.5,0.8-5c0-0.1-1.1-0.1-2.4-0.1c-2.6,0-2.9-0.1-3.6-0.9
		c-0.7-0.9-0.4-2.4,0.7-2.8c0.4-0.2,1.1-0.2,2.9-0.2h2.4l-0.2-1.6c-0.8-6.7-3.6-12.2-8.5-17.1c-4.4-4.4-9.5-7.1-15.8-8.2
		c-1.1-0.2-2.2-0.4-2.6-0.4L51.9,29.3z M65.9,41c0.3,0,0.6,0.1,0.9,0.3c0.7,0.5,1,0.9,0.9,1.8L67.6,44l-5.9,5.8l-5.9,5.8l0.3,0.7
		c0.4,1,0.5,2.7,0.2,4c-0.9,3.5-4.6,5.6-8.1,4.7c-3.6-1-5.7-4.8-4.5-8.2c0.1-0.4,0.2-0.7,0.1-0.8c-0.1,0-1.7-1.6-3.6-3.4
		c-2.8-2.7-3.5-3.4-3.6-3.8c-0.5-1.6,1-3.1,2.6-2.5c0.3,0.1,2,1.6,3.9,3.4c1.9,1.8,3.5,3.2,3.5,3.3c0.1,0,0.5-0.1,1-0.4
		c0.8-0.4,1-0.4,2.4-0.4c1.2,0,1.7,0.1,2.3,0.3l0.8,0.3l1.5-1.5c0.8-0.8,3.4-3.4,5.8-5.7c2.3-2.3,4.4-4.3,4.7-4.4
		C65.3,41.1,65.6,41,65.9,41z"/>
	<path id="path131" class="st2" d="M50.1,55.9c-0.2,0-0.4,0-0.7,0.1c-1.3,0.4-2.1,1.3-2.1,2.6c0,2,2.1,3.2,3.9,2.3
		c1.6-0.8,1.9-2.9,0.6-4.2C51.3,56.2,50.7,55.9,50.1,55.9z"/>
	<path id="path130" class="st2" d="M77.4,19.1c0,0.1-0.3,0.4-0.6,0.8c-0.4,0.5-0.5,0.7-0.4,1c0.3,0.8,1,1.7,3.2,3.5
		c2.2,1.9,3.3,2.7,3.3,2.7c0,0,0.3-0.1,0.7-0.3c1.4-0.6,1.5-0.4-2.5-4.3C79.1,20.5,77.4,19,77.4,19.1z"/>
	<path id="path129" class="st2" d="M53,12.8l-3,0l-3,0l0,2.1l0,2.1h3h3l0-2.2L53,12.8z"/>
	<path id="path26" class="st2" d="M39.7,3.7l0,2.6c0,1.8,0,2.6,0.1,2.8c0.1,0.2,1.9,0.2,10.3,0.2c8.4,0,10.2,0,10.3-0.2
		c0.1-0.1,0.2-1,0.1-2.8l0-2.6H50H39.7z"/>
	<path id="path25" d="M46.3,99.9c-5.7-0.4-11.5-2.2-16.6-5C19,88.9,11.3,78.6,9,66.8c-0.6-3.1-0.7-3.8-0.7-8c0-4.4,0.2-6.3,1-9.8
		c3.7-15.4,16-27.5,31.4-30.8l2.2-0.5v-2.4v-2.4l-2.3,0c-2.1,0-2.3-0.1-3-0.4c-0.8-0.4-1.3-1-1.7-1.8c-0.2-0.5-0.3-1-0.3-4.1
		c0-3.8,0.1-4.3,0.8-5.2c0.2-0.3,0.7-0.7,1.1-0.9L38.5,0H50h11.5L62,0.3c0.8,0.4,1.4,1.1,1.8,1.9c0.3,0.6,0.3,0.9,0.3,4.3
		c0,4-0.1,4.3-1,5.2c-1,1-1.4,1.1-3.9,1.2l-2.3,0.1v2.4v2.4l2.1,0.5c4.7,1.1,8.8,2.7,12.7,5c1.1,0.7,2,1.1,2.4,1.1
		c0.1,0-0.2-0.4-0.5-0.9c-1.1-1.6-1.2-3-0.6-4.4c0.5-1,2.2-2.7,3.1-3.2c0.9-0.4,2.1-0.4,3,0c0.8,0.4,8.1,7.5,8.6,8.4
		c0.5,0.9,0.4,2.5-0.1,3.4c-0.5,0.8-1.9,2.2-2.8,2.6c-1.1,0.5-2.4,0.5-3.6-0.1c-0.5-0.2-0.9-0.4-0.9-0.3c0,0.1,0.4,0.7,1.4,1.8
		c4.3,5.1,7.2,10.7,8.9,17.2c0.8,3.2,1.2,6.2,1.2,9.9c0,4.6-0.4,7.5-1.6,11.4c-2.9,9.5-8.8,17.6-16.8,22.9
		C65.2,98.3,56.1,100.6,46.3,99.9L46.3,99.9z M55.4,95.6c4.3-0.7,7.8-1.8,11.5-3.6c9.9-4.9,17-13.7,19.7-24.2
		c0.8-3.3,1.1-5.6,1.1-8.9c0-3.1-0.2-4.8-0.7-7.5c-1.5-7.5-5.1-14-10.5-19.3c-4-3.9-8.1-6.5-13.1-8.4c-11-4.1-23.4-3-33.4,3.2
		c-9.1,5.6-15.1,14.7-17.1,25.5c-0.7,4.1-0.7,9.4,0.2,13.7c2.6,12.7,12,23.4,24.4,27.7c2.6,0.9,6.1,1.7,9.3,2
		C48.1,96,54,95.8,55.4,95.6L55.4,95.6z M46.9,92.1c-3.2-0.3-7.1-1.3-9.8-2.4C32,87.5,27.3,84.2,24,80c-7.2-8.8-9.5-20.4-6.2-31.3
		c2-6.6,6.2-12.7,11.8-16.9c4.2-3.1,8.7-5.1,14.3-6.2c2.5-0.5,7.5-0.6,10.2-0.3c2.7,0.4,2.7,0.4,5.1,1c8.5,2.4,15.6,7.9,20.1,15.5
		c3.5,5.9,5.1,13.2,4.3,20.1c-0.4,3.9-1.3,7-2.8,10.3c-1.6,3.6-3.2,5.9-6.2,9.3c-3.8,4.2-10.2,8-15.9,9.4
		C54.7,92.1,50.4,92.4,46.9,92.1L46.9,92.1z M48,85.6c0-2.8,0.1-3.6,0.8-4.2c1-0.9,2.5-0.5,3,0.7c0.2,0.5,0.2,1.1,0.2,3.2v2.6l0.6,0
		c1.5,0,4.8-0.7,7.4-1.5c1.6-0.5,4.8-2.1,6.6-3.3c6-4,10.5-10.3,12.3-17.4c0.2-0.9,0.8-4.5,0.8-5c0-0.1-1.1-0.1-2.4-0.1
		c-2.6,0-2.9-0.1-3.6-0.9c-0.7-0.9-0.4-2.4,0.7-2.8c0.4-0.2,1.1-0.2,2.9-0.2h2.4l-0.2-1.6c-0.8-6.7-3.6-12.2-8.5-17.1
		c-4.4-4.4-9.5-7.1-15.8-8.2c-1.1-0.2-2.2-0.4-2.6-0.4l-0.7,0l0,2.5c0,2.1,0,2.5-0.2,3c-0.3,0.7-1,1.1-1.8,1.1
		c-0.6,0-0.8-0.1-1.2-0.5C48,34.6,47.9,34,48,31.2l0.1-1.9l-0.3,0c-0.6,0-3.4,0.4-4.6,0.7c-7,1.6-13.3,5.8-17.3,11.4
		c-2.2,3.1-3.8,6.8-4.7,10.3c-0.3,1.2-0.7,4-0.7,4.6c0,0.1,0.6,0.2,2.5,0.2c2.2,0,2.5,0,2.9,0.3c0.9,0.6,1.2,1.7,0.7,2.6
		c-0.5,0.9-1,1-3.7,1h-2.4v0.4c0,0.8,0.5,3.7,0.9,5.2c0.6,2.2,1,3.4,2,5.5c3.3,6.9,9.3,12.2,16.5,14.7c1.9,0.7,4.5,1.3,6.1,1.5
		c1.9,0.2,2,0.2,2.1,0.2C48,87.9,48,86.9,48,85.6L48,85.6z M48.2,64.9c-3.6-1-5.7-4.8-4.5-8.2c0.1-0.4,0.2-0.7,0.1-0.8
		c-0.1,0-1.7-1.6-3.6-3.4c-2.8-2.7-3.5-3.4-3.6-3.8c-0.5-1.6,1-3.1,2.6-2.5c0.3,0.1,2,1.6,3.9,3.4c1.9,1.8,3.5,3.2,3.5,3.3
		c0.1,0,0.5-0.1,1-0.4c0.8-0.4,1-0.4,2.4-0.4c1.2,0,1.7,0.1,2.3,0.3l0.8,0.3l1.5-1.5c0.8-0.8,3.4-3.4,5.8-5.7
		c2.3-2.3,4.4-4.3,4.7-4.4c0.6-0.2,1.3-0.2,1.8,0.1c0.7,0.5,1,0.9,0.9,1.8L67.6,44l-5.9,5.8l-5.9,5.8l0.3,0.7c0.4,1,0.5,2.7,0.2,4
		C55.5,63.7,51.8,65.8,48.2,64.9L48.2,64.9z M51.2,60.9c1.6-0.8,1.9-2.9,0.6-4.2c-0.7-0.7-1.6-1-2.4-0.7c-1.3,0.4-2.1,1.3-2.1,2.6
		C47.3,60.6,49.4,61.8,51.2,60.9L51.2,60.9z M83.5,26.7c1.4-0.6,1.5-0.4-2.5-4.3c-2-1.9-3.6-3.4-3.6-3.4c0,0.1-0.3,0.4-0.6,0.8
		c-0.4,0.5-0.5,0.7-0.4,1c0.3,0.8,1,1.7,3.2,3.5c2.2,1.9,3.3,2.7,3.3,2.7C82.8,27,83.1,26.9,83.5,26.7z M53,14.9v-2.2l-3,0l-3,0
		l0,2.1l0,2.1h3h3L53,14.9z M60.3,9.1c0.1-0.1,0.2-1,0.1-2.8l0-2.6H50H39.7l0,2.6c0,1.8,0,2.6,0.1,2.8c0.1,0.2,1.9,0.2,10.3,0.2
		C58.5,9.3,60.2,9.3,60.3,9.1L60.3,9.1z"/>
	<path id="path183" class="st3" d="M50.5,21.3c-7.2-0.1-14.3,1.8-20.6,5.7c-9.1,5.6-15.1,14.7-17.1,25.5c-0.7,4.1-0.7,9.4,0.2,13.7
		c2.6,12.7,12,23.4,24.4,27.7c2.6,0.9,6.1,1.7,9.3,2c1.3,0.1,7.3,0,8.6-0.3c4.3-0.7,7.8-1.8,11.5-3.6c9.9-4.9,17-13.7,19.7-24.2
		c0.8-3.3,1.1-5.6,1.1-8.9c0-3.1-0.2-4.8-0.7-7.5c-1.5-7.5-5.1-14-10.5-19.3c-4-3.9-8.1-6.5-13.1-8.4C59.2,22.2,54.8,21.4,50.5,21.3
		z M48.9,25.2c1.9-0.1,3.8,0,5.2,0.2c2.7,0.4,2.7,0.4,5.1,1c8.5,2.4,15.6,7.9,20.1,15.5c3.5,5.9,5.1,13.2,4.3,20.1
		c-0.4,3.9-1.3,7-2.8,10.3c-1.6,3.6-3.2,5.9-6.2,9.3c-3.8,4.2-10.2,8-15.9,9.4c-3.9,1-8.2,1.4-11.7,1c-3.2-0.3-7.1-1.3-9.8-2.4
		C32,87.5,27.3,84.2,24,80c-7.2-8.8-9.5-20.4-6.2-31.3c2-6.6,6.2-12.7,11.8-16.9c4.2-3.1,8.7-5.1,14.3-6.2
		C45.1,25.4,47,25.2,48.9,25.2z"/>
</g>
</svg>
