<?xml version="1.0" encoding="UTF-8" standalone="no"?>
<!-- Created with Inkscape (http://www.inkscape.org/) -->

<svg
   viewBox="0 0 100 100"
   xmlns="http://www.w3.org/2000/svg"><defs
     id="defs1" /><g
     id="layer1"
     transform="translate(2005.3598,476.89293)"><g
       id="g129"
       transform="matrix(0.36909469,0,0,0.36909469,-1265.1922,-363.96488)"
       style="stroke-width:2.70933"><path
         style="fill:none;fill-opacity:1;stroke-width:2.70933"
         d="m -2005.3597,-170.4929 v -135.46666 h 135.4666 135.4667 v 135.46666 135.46666 h -135.4667 -135.4666 z"
         id="path24" /><path
         id="path23"
         style="fill:#f8d877;stroke-width:2.70933"
         d="m -1869.8461,-208.21397 c -4.9369,0 -5.6877,0.0625 -8.3602,0.69608 -13.7329,3.25553 -24.1665,13.07695 -28.0531,26.40769 -0.2277,0.7812 -0.4191,1.60432 -0.5932,2.4443 0.3372,-0.9009 0.7133,-1.82527 1.1549,-2.78588 a 0.50845855,0.50845855 0 0 1 0.01,-0.0155 c 4.9176,-9.7601 12.9224,-16.72719 23.1133,-20.11143 4.3144,-1.43277 6.3279,-1.76982 11.5213,-1.9203 v 5.2e-4 c 5.6715,-0.16433 9.436,0.34733 14.2224,1.93735 9.999,3.32151 17.7175,10.23267 22.7639,20.35741 l 1.1178,2.24224 c -0.6656,-3.04335 -1.7294,-5.90804 -3.3331,-9.02787 -5.095,-9.91132 -14.1054,-16.89977 -25.168,-19.52077 -2.7112,-0.64235 -3.4424,-0.70384 -8.3938,-0.70384 z m -37.0065,29.54807 c -0.1728,0.83362 -0.2884,1.70936 -0.4067,2.58175 0,1e-5 5e-4,0 5e-4,0 0.118,-0.87261 0.2335,-1.74893 0.4062,-2.58175 z" /><path
         id="path22"
         style="fill:#f7cb35;stroke-width:2.70933"
         d="m -1870.0549,-241.98813 c -1.6398,0.0704 -3.2368,0.91018 -3.9992,2.48512 -0.5167,1.0673 -0.5545,1.58727 -0.5545,7.61193 0,3.55666 0.1163,6.87171 0.2584,7.367 0.3336,1.16341 1.1952,2.08568 2.5197,2.69699 1.3445,0.62052 2.6206,0.62043 3.9894,-0.002 1.2567,-0.57075 2.1128,-1.56105 2.5126,-2.90732 0.1802,-0.60676 0.2527,-3.37451 0.1984,-7.57111 -0.081,-6.27662 -0.1157,-6.66215 -0.6682,-7.55044 -0.9342,-1.5021 -2.6168,-2.20103 -4.2566,-2.13062 z m 47.5553,19.36677 c -0.6514,-0.002 -1.2841,0.15111 -1.8867,0.45837 -1.1157,0.56882 -9.9881,9.54855 -10.4568,10.58334 -0.4888,1.07932 -0.4018,2.66381 0.2166,3.94136 0.6004,1.24013 1.2512,1.78063 2.8168,2.33939 1.2255,0.43738 1.2784,0.43918 2.5771,0.0848 v -5.2e-4 c 0.8505,-0.23213 1.9868,-1.206 5.7852,-4.95938 5.7731,-5.70467 6.4198,-6.85988 5.3175,-9.49813 -0.5482,-1.31203 -1.1126,-1.9019 -2.3714,-2.47996 -0.6771,-0.3109 -1.347,-0.46735 -1.9983,-0.46922 z m -94.5431,0.0548 c -2.3039,-0.13145 -4.5386,1.53185 -4.8462,3.82561 -0.3256,2.42763 -0.1496,2.70562 5.0364,7.95817 2.9223,2.95978 5.2201,5.06414 5.8637,5.37021 1.155,0.54926 2.5597,0.49164 3.7982,-0.15554 1.8456,-0.96439 2.9501,-3.24745 2.573,-5.31803 -0.1664,-0.91368 -0.8414,-1.69834 -5.2653,-6.119 -4.1404,-4.13746 -5.2771,-5.12986 -6.1738,-5.39192 -0.3266,-0.0954 -0.6569,-0.15072 -0.986,-0.1695 z m 45.99,19.06757 c -5.1934,0.15048 -7.2069,0.48753 -11.5213,1.9203 -10.1909,3.38424 -18.1957,10.35133 -23.1133,20.11143 a 0.50845855,0.50845855 0 0 0 -0.01,0.0155 c -0.4416,0.96061 -0.8177,1.88498 -1.1549,2.78588 -0.9719,4.68803 -1.1107,10.14248 -0.3142,14.80168 0.2702,1.58081 0.6505,3.12288 1.111,4.63021 0.2791,0.45248 0.5573,0.94154 0.833,1.32498 0.9284,1.29085 1.7931,2.22237 2.1756,2.76366 3.9341,5.86484 9.312,10.59436 15.3831,13.52165 4.2965,2.07161 8.1004,3.18249 13.6425,3.98632 0.3306,0.048 0.9273,0.0554 1.7968,0.0605 0.8694,0.005 1.955,-0.005 3.051,-0.0295 6.3865,-0.1415 12.1554,-1.49925 17.2811,-4.07986 7.6996,-3.87649 13.498,-9.6178 17.6408,-17.46095 0.3437,-0.65061 0.6825,-1.22176 0.9374,-1.59938 0.048,-0.0716 0.073,-0.0985 0.1116,-0.14986 0.8961,-3.54859 1.2614,-7.03825 1.1049,-11.08563 -0.098,-2.53143 -0.3765,-4.79995 -0.8532,-6.97942 l -1.1178,-2.24224 c -5.0464,-10.12474 -12.7649,-17.0359 -22.7639,-20.35741 -4.7864,-1.59002 -8.5509,-2.10168 -14.2224,-1.93735 z m 64.9464,28.22515 c -1.9503,-0.0145 -4.3114,0.0371 -6.5712,0.15865 -2.6654,0.14332 -3.3834,0.27227 -4.0519,0.7276 -1.7016,1.15895 -2.4921,3.0917 -2.0568,5.02915 0.3031,1.34897 0.9979,2.26242 2.2784,2.99465 0.9937,0.56819 1.2905,0.59113 7.6973,0.59531 4.0758,0.003 6.9527,-0.10485 7.4083,-0.27698 4.2357,-1.60034 3.8114,-7.9678 -0.5989,-8.99067 -0.6158,-0.14282 -2.1549,-0.22326 -4.1052,-0.23771 z m -124.9908,0.003 c -2.9599,0 -5.9196,0.0782 -6.594,0.23461 -2.201,0.51046 -3.3984,1.97613 -3.5248,4.31395 -0.116,2.14642 0.6007,3.5024 2.3048,4.36253 1.1292,0.56999 1.4605,0.59531 7.7866,0.59531 6.1674,0 6.6836,-0.0368 7.753,-0.55449 1.707,-0.82637 2.5586,-2.41255 2.4086,-4.48603 -0.1641,-2.26946 -1.3878,-3.73205 -3.5403,-4.23127 -0.6744,-0.1564 -3.6341,-0.23461 -6.5939,-0.23461 z m 100.7644,39.38674 c -3.2324,-0.15697 -5.8371,3.23589 -4.4442,6.56963 0.4904,1.1736 9.1308,10.00342 10.3068,10.53269 1.0349,0.46578 2.8399,0.47183 3.9114,0.0134 2.3268,-0.9956 3.458,-3.77607 2.4655,-6.0601 -0.4716,-1.08522 -9.8339,-10.39123 -10.8257,-10.76058 -0.4776,-0.17784 -0.9521,-0.27265 -1.4138,-0.29508 z m -79.2805,0.0398 c -0.291,0.0111 -0.5879,0.0443 -0.8888,0.10076 -0.8433,0.15819 -1.7481,0.92671 -5.7066,4.84674 -4.9835,4.93492 -5.7632,6.02034 -5.7558,8.01243 0.013,3.49243 4.1647,5.73078 7.027,3.7884 0.561,-0.38068 3.0023,-2.71274 5.4255,-5.18212 5.2392,-5.33904 5.6884,-6.22164 4.499,-8.8408 -0.8134,-1.79094 -2.563,-2.80292 -4.6003,-2.72541 z m 39.7542,16.37781 c -1.5832,0.0126 -3.1687,0.71826 -4.0349,2.11098 -0.5521,0.88762 -0.5867,1.27381 -0.6651,7.46053 -0.093,7.31236 0.041,8.23255 1.3937,9.58494 1.5351,1.53511 3.7179,1.766773 5.7795,0.612883 0.5529,-0.309473 1.2673,-0.983743 1.5875,-1.498613 0.5624,-0.90428 0.5824,-1.1793 0.5824,-8.08013 0,-7.03896 -0.01,-7.15847 -0.6217,-8.14421 -0.8573,-1.37895 -2.4383,-2.05902 -4.0214,-2.04638 z" /><path
         id="path106"
         style="fill:#eeb22c;stroke-width:2.70933"
         d="m -1833.2029,-160.89644 c -0.038,0.0513 -0.063,0.0782 -0.1116,0.14986 -0.2549,0.37762 -0.5937,0.94877 -0.9374,1.59938 -4.1428,7.84315 -9.9412,13.58446 -17.6408,17.46095 -5.1257,2.58061 -10.8946,3.93836 -17.2811,4.07986 -1.096,0.0243 -2.1816,0.0345 -3.051,0.0295 -0.8695,-0.005 -1.4662,-0.0125 -1.7968,-0.0605 -5.5421,-0.80383 -9.346,-1.91471 -13.6425,-3.98632 -6.0711,-2.92729 -11.449,-7.65681 -15.3831,-13.52165 -0.3825,-0.54129 -1.2472,-1.47281 -2.1756,-2.76366 -0.2755,-0.38326 -0.5535,-0.87216 -0.8325,-1.32446 3.5794,11.71396 12.7223,21.0192 24.7975,24.88478 l 0.663,0.18759 c 2.1789,0.63337 5.2355,1.23693 8.1029,1.57509 1.5826,0.18665 6.3641,-0.0974 8.9958,-0.53433 6.849,-1.13725 13.2743,-4.30701 18.6097,-9.01289 -0.028,-0.0296 -0.063,-0.0668 -0.062,-0.0667 3e-4,3.7e-4 -0.048,-0.0796 -0.057,-0.0997 -0.037,-0.0805 -0.027,-0.0722 -0.025,-0.0646 l -0.014,-0.10129 c 0.033,0.11783 0.1023,0.2225 0.1974,0.29973 2.0872,-1.84565 4.0226,-3.90433 5.7268,-6.20273 1.6687,-2.25062 3.8488,-6.53528 5.0374,-9.70638 l -0.01,-0.002 c -0.092,-0.0223 -0.1761,-0.0813 -0.1111,-0.0408 0.043,0.01 0.086,0.0144 0.1297,0.0145 0.2106,-0.56371 0.4559,-1.16897 0.5896,-1.63763 0.1106,-0.38725 0.1834,-0.77047 0.2806,-1.15548 z m -0.7932,1.69653 0.01,0.008 0.028,0.002 c -0.01,8.3e-4 -0.016,0.001 -0.024,0.002 l 0.01,0.006 c -0.03,-0.004 -0.06,-0.006 -0.09,-0.006 0,10e-4 0.014,-0.002 0.022,-0.004 -0.01,0.001 -0.029,-0.003 -0.033,-0.002 -0.046,0.009 -0.021,-0.006 0.084,-0.006 z m -10.9978,16.43363 c -0.012,0.0216 -0.037,0.10358 -0.051,0.21497 0.01,-0.042 0.016,-0.11957 0.016,-0.11937 -10e-5,2.6e-4 0.015,-0.0503 0.021,-0.0646 0.01,-0.0199 0.01,-0.0239 0.014,-0.031 z" /><path
         style="fill:#040403;stroke-width:2.70933"
         d="m -1873.418,-95.24893 c -2.0662,-0.83946 -4.2737,-3.11014 -5.027,-5.17097 -0.4821,-1.3188 -0.5292,-2.10644 -0.5292,-8.85588 0,-6.50273 0.059,-7.5785 0.4853,-8.80044 0.6456,-1.85211 2.6806,-4.05812 4.6238,-5.01233 1.3298,-0.65306 1.7987,-0.73888 4.019,-0.73567 2.2268,0.003 2.6796,0.0882 3.9688,0.74505 1.9776,1.00759 3.525,2.58509 4.3593,4.44417 l 0.696,1.55083 -0.08,8.13753 -0.08,8.13753 -0.7839,1.41508 c -2.3031,4.15809 -7.2702,5.92515 -11.6516,4.1451 z m 6.0324,-4.44819 c 0.5529,-0.30947 1.2673,-0.98392 1.5875,-1.49879 0.5624,-0.90428 0.5822,-1.17904 0.5822,-8.07987 0,-7.03896 -0.01,-7.15842 -0.6219,-8.14416 -1.7147,-2.75791 -6.3238,-2.72113 -8.0562,0.0643 -0.5521,0.88762 -0.5866,1.27414 -0.665,7.46086 -0.093,7.31236 0.041,8.23264 1.3935,9.58503 1.5351,1.53511 3.7183,1.76652 5.7799,0.61263 z m -52.8036,-14.70826 c -2.478,-0.82 -4.3148,-2.43672 -5.4446,-4.79227 -0.5848,-1.21927 -0.6982,-1.81984 -0.6994,-3.70417 0,-3.76926 0.1804,-4.06384 6.4522,-10.39685 6.4783,-6.54166 7.0778,-6.93335 10.612,-6.93335 1.9236,0 2.4656,0.10639 3.7464,0.73537 2.8027,1.37636 4.5843,3.71042 5.2344,6.85777 0.3634,1.75927 0.09,3.7297 -0.7736,5.56594 -0.8067,1.71638 -10.7921,11.53864 -12.555,12.34989 -1.8365,0.84516 -4.5779,0.97766 -6.5724,0.31767 z m 5.2517,-4.69066 c 0.561,-0.38068 3.0026,-2.71254 5.4258,-5.18192 5.2392,-5.33904 5.6884,-6.22187 4.499,-8.84103 -0.9295,-2.04679 -3.0825,-3.07615 -5.4895,-2.62458 -0.8433,0.15819 -1.7482,0.92674 -5.7067,4.84677 -4.9835,4.93492 -5.7631,6.02028 -5.7557,8.01237 0.013,3.49243 4.1648,5.73077 7.0271,3.78839 z m 90.2649,4.91879 c -2.1892,-0.55227 -3.2719,-1.40572 -8.3333,-6.56871 -6.0765,-6.19843 -6.5139,-6.89234 -6.533,-10.36265 -0.011,-2.02262 0.076,-2.43336 0.8501,-4.00642 1.6001,-3.25192 4.4814,-5.08928 8.001,-5.10213 3.7291,-0.0136 4.1478,0.24509 10.3621,6.40186 6.4479,6.38811 6.9468,7.162 6.9509,10.78119 0,1.72756 -0.1244,2.39002 -0.6874,3.60363 -1.4898,3.21154 -4.3354,5.18498 -7.7769,5.39333 -1.0105,0.0612 -2.2855,-0.002 -2.8335,-0.1401 z m 4.1137,-4.59094 c 2.3268,-0.9956 3.4583,-3.77632 2.4658,-6.06035 -0.4716,-1.08522 -9.8341,-10.39115 -10.8259,-10.7605 -3.8206,-1.42272 -7.4497,2.46455 -5.8578,6.27454 0.4904,1.1736 9.1308,10.00338 10.3068,10.53265 1.0349,0.46578 2.8396,0.47209 3.9111,0.0137 z m -54.6907,-9.70994 c -16.2219,-2.2333 -29.6731,-13.32712 -34.783,-28.68723 -1.601,-4.8127 -1.9841,-7.38434 -1.9903,-13.36145 0,-4.6087 0.081,-5.82165 0.5727,-8.06979 3.6505,-16.6994 15.2684,-28.87312 31.4565,-32.96149 7.7001,-1.94468 15.9888,-1.59602 23.6414,0.99446 12.665,4.28727 22.6883,14.36374 26.6662,26.80765 7.1497,22.36604 -4.6684,45.96371 -26.6941,53.30107 -4.6812,1.55941 -7.4801,2.03674 -12.5398,2.13849 -2.4739,0.0497 -5.3222,-0.023 -6.3296,-0.16171 z m 11.7535,-4.64241 c 9.5472,-1.58528 18.3088,-7.06614 24.3753,-15.24801 1.9712,-2.65861 4.7506,-8.26557 5.6373,-11.37259 1.1293,-3.95655 1.5592,-7.75437 1.3857,-12.24088 -0.2345,-6.06624 -1.4342,-10.65321 -4.1865,-16.00729 -5.095,-9.91132 -14.1053,-16.90005 -25.1679,-19.52105 -2.7112,-0.64235 -3.4425,-0.70365 -8.3939,-0.70365 -4.9369,0 -5.6876,0.0625 -8.3601,0.69603 -13.7329,3.25553 -24.1664,13.07709 -28.053,26.40783 -1.4989,5.14114 -1.8468,11.75177 -0.9076,17.24578 2.3726,13.878 12.2962,25.17247 25.9436,29.52737 2.1831,0.69661 5.5969,1.38117 8.7313,1.75082 1.5826,0.18665 6.3641,-0.0974 8.9958,-0.53436 z m -75.6708,-28.558 c -4.2539,-1.15844 -6.8827,-4.99077 -6.5391,-9.53315 0.2556,-3.38053 2.0538,-6.01494 5.1589,-7.5584 1.2282,-0.61046 1.3776,-0.62026 9.45,-0.62026 h 8.2021 l 1.6758,0.90858 c 4.6259,2.50804 6.1787,8.50307 3.3592,12.96946 -0.8885,1.40746 -2.8775,3.07153 -4.3221,3.61596 -1.7504,0.6597 -14.75,0.8264 -16.9848,0.21781 z m 15.7952,-4.64035 c 1.707,-0.82637 2.5588,-2.4127 2.4088,-4.48618 -0.1641,-2.26946 -1.3876,-3.73169 -3.5401,-4.23091 -1.3487,-0.3128 -11.8395,-0.3128 -13.1882,0 -2.201,0.51046 -3.3982,1.97576 -3.5246,4.31358 -0.116,2.14642 0.6004,3.50264 2.3045,4.36277 1.1292,0.56999 1.4606,0.59532 7.7867,0.59532 6.1674,0 6.6835,-0.0369 7.7529,-0.55458 z m 106.7678,4.65177 c -0.7669,-0.21168 -1.7555,-0.57163 -2.1969,-0.79989 -1.2952,-0.66978 -2.8922,-2.44468 -3.6457,-4.05191 -0.6038,-1.28791 -0.7006,-1.84158 -0.7003,-4.00789 2e-4,-2.2545 0.08,-2.67144 0.7757,-4.04561 0.9058,-1.78942 2.5909,-3.43928 4.3369,-4.2462 1.1836,-0.54702 1.5916,-0.57173 9.4392,-0.57173 h 8.202 l 1.3981,0.73664 c 1.8702,0.98535 3.4013,2.56693 4.2437,4.38358 0.5728,1.23529 0.6943,1.88424 0.7006,3.74332 0.01,1.91871 -0.1012,2.48207 -0.7334,3.83645 -0.9627,2.06233 -2.5046,3.6125 -4.5196,4.54368 l -1.6185,0.74799 -7.1438,0.0582 c -5.5787,0.0455 -7.4492,-0.0261 -8.538,-0.32665 z m 15.2015,-4.37861 c 4.2357,-1.60034 3.8118,-7.96738 -0.5985,-8.99025 -1.2316,-0.28564 -6.1572,-0.32215 -10.6767,-0.0791 -2.6654,0.14332 -3.3836,0.27227 -4.0521,0.7276 -1.7016,1.15895 -2.4919,3.09153 -2.0566,5.02898 0.3031,1.34897 0.9981,2.26233 2.2786,2.99456 0.9937,0.56819 1.2902,0.59113 7.697,0.59531 4.0758,0.003 6.9527,-0.10493 7.4083,-0.27706 z m -110.9348,-35.11135 c -1.8106,-0.64685 -2.6511,-1.35783 -7.9754,-6.74627 -5.5556,-5.6225 -6.028,-6.41763 -6.0111,-10.11617 0.01,-2.04534 0.1138,-2.59408 0.7408,-3.89 2.0835,-4.30631 7.6313,-6.32234 11.9535,-4.34385 1.3056,0.59765 2.4688,1.60658 6.6517,5.76939 3.0962,3.08136 5.3382,5.5388 5.7598,6.31351 2.4167,4.44021 0.688,9.99983 -3.8638,12.42609 -1.4224,0.75817 -1.9917,0.90546 -3.7904,0.98061 -1.5574,0.0651 -2.473,-0.0388 -3.4651,-0.39331 z m 5.1465,-4.41097 c 1.8456,-0.96439 2.9503,-3.2474 2.5732,-5.31798 -0.1664,-0.91368 -0.8416,-1.69828 -5.2655,-6.11894 -4.1404,-4.13746 -5.2768,-5.12999 -6.1735,-5.39205 -2.6123,-0.76345 -5.4806,1.0346 -5.8322,3.65604 -0.3256,2.42763 -0.1498,2.70545 5.0362,7.958 2.9223,2.95978 5.2201,5.06425 5.8637,5.37032 1.155,0.54926 2.5596,0.49179 3.7981,-0.15539 z m 74.0222,4.46135 c -2.6025,-0.83075 -4.4849,-2.5205 -5.6549,-5.07615 -0.9532,-2.08191 -1.0578,-4.07907 -0.3382,-6.45103 l 0.5905,-1.94606 5.4266,-5.4673 c 4.6299,-4.66465 5.665,-5.57575 7.0505,-6.20599 4.4008,-2.00177 9.9322,0.0638 11.9451,4.46048 1.2703,2.77476 1.0412,6.29606 -0.5726,8.80031 -0.3752,0.58209 -2.9006,3.26673 -5.6122,5.96589 -3.5765,3.56017 -5.2933,5.07868 -6.253,5.53086 -1.7,0.80096 -4.7301,0.98005 -6.5818,0.38899 z m 3.936,-4.10775 c 0.8505,-0.23213 1.9865,-1.20608 5.7849,-4.95946 5.7731,-5.70467 6.4198,-6.85982 5.3175,-9.49807 -0.5482,-1.31203 -1.1124,-1.90208 -2.3712,-2.48014 -1.3541,-0.62181 -2.6797,-0.62562 -3.885,-0.0111 -1.1157,0.56882 -9.988,9.54884 -10.4567,10.58363 -0.4888,1.07932 -0.4017,2.66379 0.2167,3.94134 0.6004,1.24013 1.2509,1.78041 2.8165,2.33917 1.2255,0.43738 1.2786,0.43913 2.5773,0.0847 z m -42.4308,-11.88861 c -2.8602,-0.58921 -5.1616,-2.36045 -6.4399,-4.95643 l -0.871,-1.76881 v -7.67894 c 0,-8.9707 0.1047,-9.51578 2.2871,-11.90363 1.6992,-1.8592 3.6259,-2.81669 6.0112,-2.98736 3.9232,-0.28071 7.2349,1.55295 9.0964,5.03659 0.5766,1.07903 0.5997,1.39457 0.6772,9.25465 l 0.08,8.13753 -0.6951,1.54897 c -1.7092,3.80852 -6.1566,6.13932 -10.1462,5.31743 z m 3.8224,-4.72549 c 1.2567,-0.57075 2.1126,-1.56125 2.5124,-2.90752 0.1802,-0.60676 0.2527,-3.37435 0.1984,-7.57095 -0.081,-6.27662 -0.1155,-6.66241 -0.668,-7.5507 -1.8685,-3.00419 -6.7311,-2.79542 -8.2559,0.35446 -0.5167,1.0673 -0.5546,1.58759 -0.5546,7.61225 0,3.55666 0.1162,6.87188 0.2583,7.36717 0.3336,1.16341 1.1953,2.08565 2.5198,2.69696 1.3445,0.62052 2.6208,0.61998 3.9896,-0.002 z"
         id="path20" /></g></g></svg>
