<?xml version="1.0" encoding="utf-8"?>
<!-- Generator: Adobe Illustrator 24.3.0, SVG Export Plug-In . SVG Version: 6.00 Build 0)  -->
<svg version="1.1" id="Layer_1" xmlns="http://www.w3.org/2000/svg" xmlns:xlink="http://www.w3.org/1999/xlink" x="0px" y="0px"
	 viewBox="0 0 100 100" style="enable-background:new 0 0 100 100;" xml:space="preserve">
<style type="text/css">
	.st0{fill:#F8D877;}
	.st1{fill:#F7CB35;}
	.st2{fill:#EEB22C;}
	.st3{fill:#040403;}
</style>
<g>
	<path id="path23" class="st0" d="M50,25.2c-3.3,0-3.7,0-5.5,0.5c-9,2.1-15.9,8.6-18.5,17.4c-0.1,0.5-0.3,1.1-0.4,1.6
		c0.2-0.6,0.5-1.2,0.8-1.8c0,0,0,0,0,0c3.2-6.4,8.5-11,15.2-13.2c2.8-0.9,4.2-1.2,7.6-1.3v0c3.7-0.1,6.2,0.2,9.4,1.3
		c6.6,2.2,11.7,6.7,15,13.4l0.7,1.5c-0.4-2-1.1-3.9-2.2-5.9c-3.4-6.5-9.3-11.1-16.6-12.9C53.8,25.2,53.3,25.2,50,25.2L50,25.2z
		 M25.7,44.6c-0.1,0.5-0.2,1.1-0.3,1.7c0,0,0,0,0,0C25.5,45.7,25.5,45.2,25.7,44.6z"/>
	<path id="path22" class="st1" d="M49.9,2.9c-1.1,0-2.1,0.6-2.6,1.6c-0.3,0.7-0.4,1-0.4,5c0,2.3,0.1,4.5,0.2,4.9
		c0.2,0.8,0.8,1.4,1.7,1.8c0.9,0.4,1.7,0.4,2.6,0c0.8-0.4,1.4-1,1.7-1.9c0.1-0.4,0.2-2.2,0.1-5c-0.1-4.1-0.1-4.4-0.4-5
		C52.1,3.3,51,2.9,49.9,2.9L49.9,2.9z M81.2,15.7c-0.4,0-0.8,0.1-1.2,0.3c-0.7,0.4-6.6,6.3-6.9,7c-0.3,0.7-0.3,1.8,0.1,2.6
		c0.4,0.8,0.8,1.2,1.9,1.5c0.8,0.3,0.8,0.3,1.7,0.1v0c0.6-0.2,1.3-0.8,3.8-3.3c3.8-3.8,4.2-4.5,3.5-6.3c-0.4-0.9-0.7-1.3-1.6-1.6
		C82.1,15.8,81.6,15.7,81.2,15.7L81.2,15.7z M19,15.7c-1.5-0.1-3,1-3.2,2.5c-0.2,1.6-0.1,1.8,3.3,5.2c1.9,1.9,3.4,3.3,3.9,3.5
		c0.8,0.4,1.7,0.3,2.5-0.1c1.2-0.6,1.9-2.1,1.7-3.5c-0.1-0.6-0.6-1.1-3.5-4c-2.7-2.7-3.5-3.4-4.1-3.6C19.4,15.8,19.2,15.7,19,15.7z
		 M49.2,28.3c-3.4,0.1-4.7,0.3-7.6,1.3c-6.7,2.2-12,6.8-15.2,13.2c0,0,0,0,0,0c-0.3,0.6-0.5,1.2-0.8,1.8c-0.6,3.1-0.7,6.7-0.2,9.7
		c0.2,1,0.4,2.1,0.7,3c0.2,0.3,0.4,0.6,0.5,0.9c0.6,0.8,1.2,1.5,1.4,1.8c2.6,3.9,6.1,7,10.1,8.9c2.8,1.4,5.3,2.1,9,2.6
		c0.2,0,0.6,0,1.2,0c0.6,0,1.3,0,2,0c4.2-0.1,8-1,11.4-2.7c5.1-2.6,8.9-6.3,11.6-11.5c0.2-0.4,0.4-0.8,0.6-1.1c0,0,0-0.1,0.1-0.1
		c0.6-2.3,0.8-4.6,0.7-7.3c-0.1-1.7-0.2-3.2-0.6-4.6l-0.7-1.5c-3.3-6.7-8.4-11.2-15-13.4C55.4,28.5,53,28.2,49.2,28.3L49.2,28.3z
		 M92,46.9c-1.3,0-2.8,0-4.3,0.1c-1.8,0.1-2.2,0.2-2.7,0.5c-1.1,0.8-1.6,2-1.4,3.3c0.2,0.9,0.7,1.5,1.5,2c0.7,0.4,0.8,0.4,5.1,0.4
		c2.7,0,4.6-0.1,4.9-0.2c2.8-1.1,2.5-5.2-0.4-5.9C94.3,46.9,93.3,46.9,92,46.9L92,46.9z M9.7,46.9c-1.9,0-3.9,0.1-4.3,0.2
		c-1.4,0.3-2.2,1.3-2.3,2.8c-0.1,1.4,0.4,2.3,1.5,2.9c0.7,0.4,1,0.4,5.1,0.4c4.1,0,4.4,0,5.1-0.4c1.1-0.5,1.7-1.6,1.6-3
		c-0.1-1.5-0.9-2.5-2.3-2.8C13.6,46.9,11.6,46.9,9.7,46.9L9.7,46.9z M76,72.8c-2.1-0.1-3.8,2.1-2.9,4.3c0.3,0.8,6,6.6,6.8,6.9
		c0.7,0.3,1.9,0.3,2.6,0c1.5-0.7,2.3-2.5,1.6-4c-0.3-0.7-6.5-6.8-7.1-7.1C76.7,72.9,76.4,72.8,76,72.8L76,72.8z M23.8,72.8
		c-0.2,0-0.4,0-0.6,0.1c-0.6,0.1-1.2,0.6-3.8,3.2c-3.3,3.2-3.8,4-3.8,5.3c0,2.3,2.7,3.8,4.6,2.5c0.4-0.3,2-1.8,3.6-3.4
		c3.4-3.5,3.7-4.1,3-5.8C26.3,73.4,25.2,72.8,23.8,72.8z M50,83.6c-1,0-2.1,0.5-2.7,1.4c-0.4,0.6-0.4,0.8-0.4,4.9
		c-0.1,4.8,0,5.4,0.9,6.3c1,1,2.4,1.2,3.8,0.4c0.4-0.2,0.8-0.6,1-1c0.4-0.6,0.4-0.8,0.4-5.3c0-4.6,0-4.7-0.4-5.4
		C52.1,84,51.1,83.6,50,83.6L50,83.6z"/>
	<path id="path106" class="st2" d="M74.2,56.3C74.1,56.4,74.1,56.4,74.2,56.3c-0.2,0.3-0.5,0.7-0.7,1.2c-2.7,5.2-6.5,8.9-11.6,11.5
		c-3.4,1.7-7.2,2.6-11.4,2.7c-0.7,0-1.4,0-2,0c-0.6,0-1,0-1.2,0c-3.6-0.5-6.2-1.3-9-2.6c-4-1.9-7.5-5-10.1-8.9
		c-0.3-0.4-0.8-1-1.4-1.8c-0.2-0.3-0.4-0.6-0.5-0.9c2.4,7.7,8.4,13.8,16.3,16.4l0.4,0.1c1.4,0.4,3.4,0.8,5.3,1
		c1,0.1,4.2-0.1,5.9-0.4c4.5-0.7,8.7-2.8,12.3-5.9c0,0,0,0,0,0c0,0,0-0.1,0-0.1c0-0.1,0,0,0,0l0-0.1c0,0.1,0.1,0.1,0.1,0.2
		c1.4-1.2,2.6-2.6,3.8-4.1c1.1-1.5,2.5-4.3,3.3-6.4l0,0c-0.1,0-0.1-0.1-0.1,0c0,0,0.1,0,0.1,0c0.1-0.4,0.3-0.8,0.4-1.1
		C74,56.8,74.1,56.6,74.2,56.3L74.2,56.3z M73.6,57.4L73.6,57.4L73.6,57.4C73.7,57.4,73.7,57.4,73.6,57.4L73.6,57.4
		C73.6,57.4,73.6,57.4,73.6,57.4C73.6,57.4,73.6,57.4,73.6,57.4C73.6,57.4,73.6,57.4,73.6,57.4C73.6,57.4,73.6,57.4,73.6,57.4
		L73.6,57.4z M66.4,68.3c0,0,0,0.1,0,0.1C66.4,68.4,66.4,68.3,66.4,68.3C66.4,68.3,66.4,68.3,66.4,68.3
		C66.4,68.3,66.4,68.3,66.4,68.3z"/>
	<path id="path20" class="st3" d="M47.7,99.5c-1.4-0.6-2.8-2-3.3-3.4c-0.3-0.9-0.3-1.4-0.3-5.8c0-4.3,0-5,0.3-5.8
		c0.4-1.2,1.8-2.7,3-3.3c0.9-0.4,1.2-0.5,2.6-0.5c1.5,0,1.8,0.1,2.6,0.5c1.3,0.7,2.3,1.7,2.9,2.9l0.5,1l-0.1,5.4l-0.1,5.4l-0.5,0.9
		C53.8,99.6,50.6,100.7,47.7,99.5L47.7,99.5z M51.7,96.6c0.4-0.2,0.8-0.6,1-1c0.4-0.6,0.4-0.8,0.4-5.3c0-4.6,0-4.7-0.4-5.4
		c-1.1-1.8-4.2-1.8-5.3,0c-0.4,0.6-0.4,0.8-0.4,4.9c-0.1,4.8,0,5.4,0.9,6.3C48.9,97.2,50.3,97.4,51.7,96.6z M16.9,86.9
		c-1.6-0.5-2.8-1.6-3.6-3.2c-0.4-0.8-0.5-1.2-0.5-2.4c0-2.5,0.1-2.7,4.2-6.8c4.3-4.3,4.7-4.6,7-4.6c1.3,0,1.6,0.1,2.5,0.5
		c1.8,0.9,3,2.4,3.4,4.5c0.2,1.2,0.1,2.5-0.5,3.7c-0.5,1.1-7.1,7.6-8.3,8.1C20,87.3,18.2,87.4,16.9,86.9L16.9,86.9z M20.3,83.8
		c0.4-0.3,2-1.8,3.6-3.4c3.4-3.5,3.7-4.1,3-5.8c-0.6-1.3-2-2-3.6-1.7c-0.6,0.1-1.2,0.6-3.8,3.2c-3.3,3.2-3.8,4-3.8,5.3
		C15.7,83.6,18.5,85.1,20.3,83.8z M79.8,87.1c-1.4-0.4-2.2-0.9-5.5-4.3c-4-4.1-4.3-4.5-4.3-6.8c0-1.3,0.1-1.6,0.6-2.6
		c1.1-2.1,3-3.4,5.3-3.4c2.5,0,2.7,0.2,6.8,4.2c4.2,4.2,4.6,4.7,4.6,7.1c0,1.1-0.1,1.6-0.5,2.4c-1,2.1-2.9,3.4-5.1,3.6
		C81,87.2,80.1,87.2,79.8,87.1L79.8,87.1z M82.5,84.1c1.5-0.7,2.3-2.5,1.6-4c-0.3-0.7-6.5-6.8-7.1-7.1c-2.5-0.9-4.9,1.6-3.9,4.1
		c0.3,0.8,6,6.6,6.8,6.9C80.6,84.4,81.8,84.4,82.5,84.1L82.5,84.1z M46.5,77.7c-10.7-1.5-19.5-8.8-22.9-18.9
		c-1.1-3.2-1.3-4.9-1.3-8.8c0-3,0.1-3.8,0.4-5.3c2.4-11,10.1-19,20.7-21.7c5.1-1.3,10.5-1.1,15.6,0.7c8.3,2.8,14.9,9.5,17.6,17.7
		c4.7,14.7-3.1,30.3-17.6,35.1c-3.1,1-4.9,1.3-8.3,1.4C49,77.8,47.1,77.8,46.5,77.7L46.5,77.7z M54.2,74.6c6.3-1,12.1-4.7,16.1-10
		c1.3-1.8,3.1-5.4,3.7-7.5c0.7-2.6,1-5.1,0.9-8.1c-0.2-4-0.9-7-2.8-10.5c-3.4-6.5-9.3-11.1-16.6-12.9c-1.8-0.4-2.3-0.5-5.5-0.5
		c-3.3,0-3.7,0-5.5,0.5c-9,2.1-15.9,8.6-18.5,17.4c-1,3.4-1.2,7.7-0.6,11.4c1.6,9.1,8.1,16.6,17.1,19.4c1.4,0.5,3.7,0.9,5.7,1.2
		C49.3,75.1,52.5,74.9,54.2,74.6L54.2,74.6z M4.4,55.8c-2.8-0.8-4.5-3.3-4.3-6.3c0.2-2.2,1.4-4,3.4-5c0.8-0.4,0.9-0.4,6.2-0.4h5.4
		l1.1,0.6c3,1.7,4.1,5.6,2.2,8.5c-0.6,0.9-1.9,2-2.8,2.4C14.4,56.1,5.9,56.2,4.4,55.8L4.4,55.8z M14.8,52.7c1.1-0.5,1.7-1.6,1.6-3
		c-0.1-1.5-0.9-2.5-2.3-2.8c-0.9-0.2-7.8-0.2-8.7,0c-1.4,0.3-2.2,1.3-2.3,2.8c-0.1,1.4,0.4,2.3,1.5,2.9c0.7,0.4,1,0.4,5.1,0.4
		C13.7,53.1,14.1,53.1,14.8,52.7z M85.1,55.8c-0.5-0.1-1.2-0.4-1.4-0.5c-0.9-0.4-1.9-1.6-2.4-2.7c-0.4-0.8-0.5-1.2-0.5-2.6
		c0-1.5,0.1-1.8,0.5-2.7c0.6-1.2,1.7-2.3,2.9-2.8c0.8-0.4,1-0.4,6.2-0.4h5.4l0.9,0.5c1.2,0.6,2.2,1.7,2.8,2.9
		c0.4,0.8,0.5,1.2,0.5,2.5c0,1.3-0.1,1.6-0.5,2.5c-0.6,1.4-1.6,2.4-3,3L95.4,56l-4.7,0C87,56.1,85.8,56,85.1,55.8L85.1,55.8z
		 M95.1,52.9c2.8-1.1,2.5-5.2-0.4-5.9c-0.8-0.2-4.1-0.2-7-0.1c-1.8,0.1-2.2,0.2-2.7,0.5c-1.1,0.8-1.6,2-1.4,3.3
		c0.2,0.9,0.7,1.5,1.5,2c0.7,0.4,0.8,0.4,5.1,0.4C92.9,53.1,94.8,53,95.1,52.9L95.1,52.9z M22.1,29.8c-1.2-0.4-1.7-0.9-5.3-4.4
		c-3.7-3.7-4-4.2-4-6.7c0-1.3,0.1-1.7,0.5-2.6c1.4-2.8,5-4.2,7.9-2.9c0.9,0.4,1.6,1.1,4.4,3.8c2,2,3.5,3.6,3.8,4.2
		c1.6,2.9,0.5,6.6-2.5,8.2c-0.9,0.5-1.3,0.6-2.5,0.6C23.3,30.1,22.7,30,22.1,29.8L22.1,29.8z M25.4,26.9c1.2-0.6,1.9-2.1,1.7-3.5
		c-0.1-0.6-0.6-1.1-3.5-4c-2.7-2.7-3.5-3.4-4.1-3.6c-1.7-0.5-3.6,0.7-3.8,2.4c-0.2,1.6-0.1,1.8,3.3,5.2c1.9,1.9,3.4,3.3,3.9,3.5
		C23.7,27.4,24.6,27.3,25.4,26.9L25.4,26.9z M74.2,29.8c-1.7-0.5-3-1.7-3.7-3.3c-0.6-1.4-0.7-2.7-0.2-4.2l0.4-1.3l3.6-3.6
		c3-3.1,3.7-3.7,4.6-4.1c2.9-1.3,6.5,0,7.9,2.9c0.8,1.8,0.7,4.1-0.4,5.8c-0.2,0.4-1.9,2.2-3.7,3.9c-2.4,2.3-3.5,3.3-4.1,3.6
		C77.4,30.1,75.4,30.2,74.2,29.8L74.2,29.8z M76.8,27.1c0.6-0.2,1.3-0.8,3.8-3.3c3.8-3.8,4.2-4.5,3.5-6.3c-0.4-0.9-0.7-1.3-1.6-1.6
		c-0.9-0.4-1.8-0.4-2.6,0c-0.7,0.4-6.6,6.3-6.9,7c-0.3,0.7-0.3,1.8,0.1,2.6c0.4,0.8,0.8,1.2,1.9,1.5C75.9,27.4,75.9,27.4,76.8,27.1
		L76.8,27.1z M48.8,19.3c-1.9-0.4-3.4-1.6-4.2-3.3L44,14.9V9.8c0-5.9,0.1-6.3,1.5-7.8c1.1-1.2,2.4-1.9,4-2c2.6-0.2,4.8,1,6,3.3
		c0.4,0.7,0.4,0.9,0.4,6.1l0.1,5.4l-0.5,1C54.4,18.3,51.5,19.8,48.8,19.3L48.8,19.3z M51.4,16.2c0.8-0.4,1.4-1,1.7-1.9
		c0.1-0.4,0.2-2.2,0.1-5c-0.1-4.1-0.1-4.4-0.4-5c-1.2-2-4.4-1.8-5.4,0.2c-0.3,0.7-0.4,1-0.4,5c0,2.3,0.1,4.5,0.2,4.9
		c0.2,0.8,0.8,1.4,1.7,1.8C49.6,16.6,50.5,16.6,51.4,16.2L51.4,16.2z"/>
</g>
</svg>
