<?xml version="1.0" encoding="utf-8"?>
<!-- Generator: Adobe Illustrator 24.3.0, SVG Export Plug-In . SVG Version: 6.00 Build 0)  -->
<svg version="1.1" id="Layer_1" xmlns="http://www.w3.org/2000/svg" xmlns:xlink="http://www.w3.org/1999/xlink" x="0px" y="0px"
	 viewBox="0 0 100 100" style="enable-background:new 0 0 100 100;" xml:space="preserve">
<style type="text/css">
	.st0{fill:#01ACF6;}
	.st1{fill:#6A6A6B;}
	.st2{fill:#010101;}
</style>
<g id="g251" transform="matrix(0.36909469,0,0,0.36909469,-1265.1922,-363.96488)">
	<path id="path61" class="st0" d="M3557.3,1063.9c-0.9,0-2.5,0.2-5.2,0.6c-29.4,3.9-54.5,23.5-65.4,51.1c-2.9,7.4-5.6,19.1-5.6,24.5
		v1.7l4.6,0c3.7,0,4.8,0.2,5.5,0.7c2.3,1.9,2.5,4.7,0.4,6.8l-1.5,1.5h-4.5h-4.5l0,1.4c0,2.8,1.3,10.4,2.6,15.2
		c8.2,31.3,35.1,55.4,67.2,60.2c6.2,0.9,7.6,0.9,7.9-0.3h0c0.1-0.5,0.3-2.5,0.3-4.4c0-3.2,0.1-3.5,1.2-4.6c2.5-2.4,7.3-1,7.4,2.1
		c0,0.7,0.1,1.8,0.1,2.5c0,0.7,0.1,2.2,0.2,3.4l0.1,2.1l3.5-0.3c13.8-1.2,27.7-6.4,40.3-15.2c4.7-3.3,14.2-12.6,17.6-17.2
		c3.9-5.2,7.7-12,10.1-17.9c3.2-7.9,6-19.3,6-25.1v-1.9h-4.1c-4.8,0-6.4-0.6-7.3-2.9c-0.8-1.9-0.5-3.6,1-5c1.1-1.1,1.3-1.1,5.9-1.1
		h4.8l-0.2-1.4c-1.4-10.6-2.6-16.4-5-23c-10.3-28.5-36.6-49.3-67.1-53.1c-5.8-0.7-5.6-0.8-5.6,1.8c-0.1,4.9-0.6,7.2-1.8,8.3
		c-2.2,1.9-5.8,0.9-6.9-1.8c-0.4-0.9-0.6-2.9-0.6-5.1C3558.6,1064.8,3558.8,1063.9,3557.3,1063.9L3557.3,1063.9z M3561.7,1088.7
		c1.2,0,2,0.6,6,4.8c3.6,3.8,4.6,5.1,4.6,6c0,0.9-1,2.3-4.4,6c-3.8,4.1-4.6,4.8-5.9,4.9c-0.8,0.1-1.7-0.1-2-0.4
		c-1.1-1.1-0.6-3.1,1.4-5.4l1.9-2.2l-3.3-0.1c-3.1-0.1-3.4-0.2-4-1.3c-0.6-1.1-0.6-1.3,0-2.4c0.6-1.1,0.9-1.2,4-1.3
		c1.8-0.1,3.3-0.2,3.3-0.4c0-0.1-1-1.3-2.1-2.6c-1.2-1.3-2.1-2.7-2.1-3.1C3559,1089.9,3560.3,1088.7,3561.7,1088.7z M3546.4,1100
		c0.6-0.1,0.9,0.1,1.4,0.3c1.3,0.7,1.8,3.3,0.8,4.1c-1,0.8-7.8,3.6-8.8,3.6c-0.5,0-1.2-0.4-1.6-0.8c-0.4-0.5-0.7-1.3-0.6-2
		c0.2-1.5,1.8-2.7,6-4.3C3545.1,1100.3,3545.9,1100,3546.4,1100z M3594.8,1109.3c2.4-0.2,4.9,1.7,4.9,4.2c0,2.1,0.3,1.8-14.3,16.8
		l-11.5,11.9l0.5,1.4c0.7,2.1,0.6,6.3-0.3,8.3c-2.3,5-7.4,7.7-12.8,6.6c-5.7-1.1-9.6-6.5-8.9-12.4c0.3-2.8,1.5-5,3.8-7.1
		c2.3-2.1,4.3-2.8,8.3-2.9l3.1,0l12.7-13c7-7.2,13.1-13.2,13.6-13.4C3594.1,1109.4,3594.5,1109.3,3594.8,1109.3z M3529.9,1109.7
		c0.4,0,0.7,0,1.1,0.1c1,0.2,1.8,1.9,1.5,3.1c-0.1,0.3-1.5,2-3.3,3.7c-3.4,3.4-4.6,3.9-5.9,2.4c-1.4-1.5-0.9-3,2.1-6.1
		C3527.7,1110.7,3528.8,1109.8,3529.9,1109.7L3529.9,1109.7z M3518.7,1124.8c0.7,0.1,1.3,0.5,1.9,1.2l0.8,1.1l-1.6,4
		c-0.9,2.2-1.8,4.3-2,4.5c-0.6,0.7-3,0.7-3.7,0c-0.3-0.3-0.5-1.1-0.5-1.9c0-1.6,2.2-7.2,3.3-8.4
		C3517.4,1124.9,3518.1,1124.7,3518.7,1124.8L3518.7,1124.8z M3513.8,1143.1c0.8,0,1.6,0.3,1.9,0.6c0.7,0.9,0.9,9.5,0.2,10.5
		c-0.7,1.1-2,1.3-3.2,0.7c-1.3-0.6-1.6-1.8-1.6-6.3C3511,1144.2,3511.6,1143.1,3513.8,1143.1z M3563.3,1144.1
		c-0.7,0.1-1.5,0.4-2.1,1.1c-2.4,2.4,1.1,6.4,4.3,4.7c0.4-0.2,1-1,1.2-1.6C3567.5,1145.8,3565.4,1143.9,3563.3,1144.1z
		 M3610.5,1160.1c1.4,0,2.5,1,2.5,2.4c0,1.1-2.5,7.5-3.3,8.3c-0.9,0.9-2.9,0.8-3.7-0.1c-0.9-1-0.9-1.9,0.1-3.8
		c0.4-0.9,1-2.4,1.3-3.3C3608.1,1160.9,3608.9,1160.1,3610.5,1160.1L3610.5,1160.1z M3517.3,1162c0.3,0.1,0.6,0.2,0.9,0.4
		c0.8,0.7,4,7.6,4,8.6c0,1.1-1.5,2.5-2.6,2.5c-0.5,0-1.3-0.5-1.9-1.1s-1.6-2.7-2.4-4.6c-1.3-3.2-1.3-3.6-0.8-4.6
		C3515.1,1162.3,3516.3,1161.8,3517.3,1162L3517.3,1162z M3601.3,1176.5c1.1,0,2.2,1,2.5,2.4c0.3,1.2-1.7,3.9-4.7,6.4
		c-2.1,1.8-3.8,2-4.7,0.6c-0.4-0.5-0.7-1.3-0.7-1.8C3593.7,1182.8,3600.1,1176.5,3601.3,1176.5z M3526.5,1178.2
		c0.7,0,1.5,0.4,2.3,1.1c4.2,3.5,5.4,4.9,5.4,6.4c0,1-0.3,1.6-0.8,1.9c-1.8,1-2.9,0.5-6.3-2.7c-3-2.9-3.3-3.3-3-4.4
		C3524.4,1178.9,3525.3,1178.2,3526.5,1178.2L3526.5,1178.2z M3586.4,1188.5c1.4,0,2.6,1.3,2.5,2.7c-0.2,1.6-1.3,2.5-5.4,4.2
		c-3.7,1.5-4.4,1.6-5.3,0.5c-0.8-0.9-0.9-3.2-0.2-3.8C3578.8,1191.4,3585.7,1188.5,3586.4,1188.5z M3542.3,1189.5
		c0.6,0.1,1.6,0.4,3.4,1.1c5,1.9,5.7,2.3,5.7,3.9c0,2.7-2,3.2-6.3,1.5c-4.8-1.8-5.3-2.2-5.3-3.9c0-1.1,0.3-1.7,1.1-2.2
		C3541.4,1189.6,3541.7,1189.4,3542.3,1189.5L3542.3,1189.5z M3564.6,1194c5,0,6,0.4,6,2.6c0,2.1-1.1,2.5-6.3,2.5
		c-3.3,0-4.9-0.2-5.1-0.5c-1.1-1.4-0.9-3.4,0.5-4.3C3559.9,1194.2,3562.1,1194,3564.6,1194z"/>
	<path id="path243" class="st1" d="M3636.5,1056.8l-1.5,1.7l-1.5,1.7l2.4,2.2l2.4,2.2l1.4-1.5l1.4-1.5l-2.4-2.4L3636.5,1056.8z"/>
	<path id="path242" class="st1" d="M3563.3,1054.9c17.1,0,31.3,3.7,45.6,12c22.5,13,37.9,33.9,43.7,59.4c1.6,6.9,2,11.5,2,20.4
		c0,9.2-0.7,14.5-2.8,22.8c-4.6,18-14.9,34.4-28.9,46.1c-12.3,10.3-26,17-41.6,20.3c-4.8,1-6.4,1.2-16.3,1.3c-8,0.1-11.9,0-14.8-0.5
		c-19.7-3.1-36.5-11.6-50.8-25.4c-13.7-13.3-21.9-28.5-25.9-48.1c-1-4.7-1.2-7.2-1.3-14.6c-0.3-12.4,0.9-20.6,4.5-31.5
		c1.9-5.7,6.6-15.6,9.8-20.5c12.8-19.6,32.4-33.6,54.7-39.1C3549.2,1055.5,3554.4,1054.9,3563.3,1054.9L3563.3,1054.9z
		 M3561.5,1044.3c-1.6,0-3.1,0.1-4.7,0.2c-32.6,2.2-61.7,19.4-79.2,46.7c-7.5,11.7-11.9,23.2-14.7,38.3c-0.9,5.1-1.3,21-0.7,27.8
		c0.9,8.7,3.9,20.5,7.5,29c9.7,22.8,28.7,42.1,51.7,52.4c9.5,4.3,21.9,7.7,31.6,8.7c5,0.5,14.8,0.5,19.9,0
		c29.5-2.8,57.2-19,74.2-43.6c15.7-22.6,21.5-51.3,15.9-78.4C3653,1077.2,3610.2,1043.3,3561.5,1044.3z"/>
	<path id="path240" class="st1" d="M3639.1,1040.9c-0.3,0-0.5,0.1-0.8,0.2c-0.6,0.3-1.3,1.2-1.5,1.8c-0.4,1.1-0.2,1.4,3,4.6
		c4.8,4.9,13.4,12.8,13.8,12.8c0.2,0,0.9-0.4,1.5-0.9c2.1-1.7,1.7-2.3-7.3-10.9C3641.5,1042.6,3640,1041.1,3639.1,1040.9z"/>
	<path id="path239" class="st1" d="M3555.2,1020.6v7.4v7.4l8.1,0l8.1,0v-7.4v-7.4h-8.1L3555.2,1020.6z"/>
	<path id="path60" class="st1" d="M3537.2,994.9l-0.7,1c-0.5,0.8-0.7,2.3-0.7,7.4c0,5.1,0.1,6.6,0.7,7.4l0.7,1h26
		c23.6,0,26-0.1,26.7-0.7c0.7-0.6,0.8-1.5,0.8-7.6c0-5.8-0.1-7-0.7-7.6c-0.7-0.7-2.1-0.8-26.7-0.8H3537.2z"/>
	<path id="path59" class="st2" d="M3556.9,1256.7c-5.2-0.4-15-2-20.4-3.3c-14.9-3.7-31.1-11.7-43.2-21.5c-4.6-3.7-13-12.2-16.6-16.8
		c-15.9-20.1-23.9-42.9-23.9-68.7c0-18.7,3.6-34,11.8-50.4c14.9-29.8,43.6-51.5,76.7-58.2l4.8-1v-8v-8h-4.6c-5.6,0-8.5-0.8-10.8-2.8
		c-3.1-2.8-3.4-4-3.5-14.4l-0.1-9.1l1.3-2.3c0.7-1.3,2-2.9,2.8-3.5c3.1-2.5,3.2-2.6,33.3-2.4c25.7,0.1,27.4,0.2,28.9,0.9
		c2.1,1.1,4.2,3.2,5.3,5.2c0.9,1.6,0.9,2.3,0.9,11.1c0,10.5-0.1,10.8-3.1,14c-2.4,2.5-5.1,3.3-11,3.3h-4.9v8.1v8.1l5.7,1.1
		c13,2.6,26.6,8.1,36.8,15c1.3,0.9,2.6,1.6,2.8,1.6c0.4,0,3.9-3.6,3.9-4c0-0.1-0.5-1.2-1.1-2.5c-2.2-4.6-1.2-9.4,2.6-12.8
		c3.8-3.3,8.9-4.3,12.7-2.3c2.3,1.2,19.9,18.8,20.7,20.6c0.4,0.9,0.7,2.7,0.7,4.1c0,4.3-2.7,8.3-7.4,10.7c-1.9,1-6.5,1-8.4,0
		l-1.4-0.7l-1.5,1.7l-1.5,1.7l2.6,3.1c13,15.4,21.8,34.6,25.1,54.5c0.4,2.7,0.8,8.1,0.9,15.2c0.2,9.7,0.1,11.7-0.7,17.3
		c-1.9,13.2-4.9,22.9-10.6,34.2c-5.2,10.3-11.3,19-19.1,27.1c-12.6,13.1-28.1,22.9-45,28.6C3585.5,1255.4,3569,1257.6,3556.9,1256.7
		L3556.9,1256.7z M3572.9,1247.5c29.5-2.8,57.2-19,74.2-43.6c15.7-22.6,21.5-51.3,15.9-78.4c-10.4-50-55.6-84.5-106.2-81
		c-32.6,2.2-61.7,19.4-79.2,46.7c-7.5,11.7-11.9,23.2-14.7,38.3c-0.9,5.1-1.3,21-0.7,27.8c0.9,8.7,3.9,20.5,7.5,29
		c9.7,22.8,28.7,42.1,51.7,52.4c9.5,4.3,21.9,7.7,31.6,8.7C3558,1248,3567.8,1248,3572.9,1247.5L3572.9,1247.5z M3550.2,1236.6
		c-19.7-3.1-36.5-11.6-50.8-25.4c-13.7-13.3-21.9-28.5-25.9-48.1c-1-4.7-1.2-7.2-1.3-14.6c-0.3-12.4,0.9-20.6,4.5-31.5
		c1.9-5.7,6.6-15.6,9.8-20.5c12.8-19.6,32.4-33.6,54.7-39.1c8.1-2,13.3-2.6,22.2-2.6c17.1,0,31.3,3.7,45.6,12
		c22.5,13,37.9,33.9,43.7,59.4c1.6,6.9,2,11.5,2,20.4c0,9.2-0.7,14.5-2.8,22.8c-4.6,18-14.9,34.4-28.9,46.1
		c-12.3,10.3-26,17-41.6,20.3c-4.8,1-6.4,1.2-16.3,1.3C3557,1237.2,3553.1,1237.1,3550.2,1236.6L3550.2,1236.6z M3558.7,1227.3
		c0.1-0.5,0.3-2.5,0.3-4.4c0-3.2,0.1-3.5,1.2-4.6c2.5-2.4,7.3-1,7.4,2.1c0,0.7,0.1,1.8,0.1,2.5s0.1,2.2,0.2,3.4l0.1,2.1l3.5-0.3
		c13.8-1.2,27.7-6.4,40.3-15.2c4.7-3.3,14.2-12.6,17.6-17.2c3.9-5.2,7.7-12,10.1-17.9c3.2-7.9,6-19.3,6-25.1v-1.9h-4.1
		c-4.8,0-6.4-0.6-7.3-2.9c-0.8-1.9-0.4-3.6,1-5c1.1-1.1,1.3-1.1,5.9-1.1h4.8l-0.2-1.4c-1.4-10.6-2.6-16.4-5-23
		c-10.3-28.5-36.6-49.3-67.1-53.1c-5.8-0.7-5.6-0.8-5.6,1.8c-0.1,4.9-0.6,7.2-1.8,8.3c-2.2,1.9-5.8,0.9-6.9-1.8
		c-0.4-0.9-0.6-2.9-0.6-5.1c0-4.3,0.6-4-6.5-3c-29.4,3.9-54.5,23.5-65.4,51.1c-2.9,7.4-5.6,19.1-5.6,24.5v1.7l4.6,0
		c3.7,0,4.8,0.2,5.5,0.7c2.3,1.9,2.5,4.7,0.4,6.8l-1.5,1.5h-4.5h-4.5l0,1.4c0,2.8,1.3,10.4,2.6,15.2c8.2,31.3,35.1,55.4,67.2,60.2
		C3557.1,1228.5,3558.4,1228.5,3558.7,1227.3L3558.7,1227.3z M3559.1,1198.6c-1.1-1.4-0.9-3.4,0.5-4.3c0.3-0.2,2.5-0.3,5-0.3
		c5,0,6,0.4,6,2.6c0,2.1-1.1,2.5-6.3,2.5C3561,1199.2,3559.4,1199,3559.1,1198.6z M3545,1196c-4.8-1.8-5.3-2.2-5.3-3.9
		c0-1.1,0.3-1.7,1.1-2.2c1-0.7,1.2-0.7,4.8,0.7c5,1.9,5.7,2.3,5.7,3.9C3551.3,1197.1,3549.3,1197.6,3545,1196z M3578.1,1195.8
		c-0.8-0.9-0.9-3.2-0.2-3.8c0.8-0.6,7.8-3.5,8.5-3.5c1.4,0,2.6,1.3,2.5,2.7c-0.2,1.6-1.3,2.5-5.4,4.2
		C3579.8,1196.8,3579.1,1196.9,3578.1,1195.8z M3527.1,1184.9c-3-2.9-3.3-3.3-3-4.4c0.6-2.5,2.5-3,4.7-1.2c4.2,3.5,5.4,4.9,5.4,6.4
		c0,1-0.3,1.6-0.8,1.9C3531.5,1188.6,3530.5,1188.1,3527.1,1184.9L3527.1,1184.9z M3594.4,1185.8c-0.4-0.5-0.7-1.3-0.7-1.8
		c0-1.2,6.4-7.5,7.6-7.5c1.1,0,2.2,1,2.5,2.4c0.3,1.2-1.7,3.9-4.7,6.4C3597,1187,3595.3,1187.2,3594.4,1185.8z M3517.7,1172.4
		c-0.5-0.6-1.6-2.7-2.4-4.6c-1.3-3.2-1.3-3.6-0.8-4.6c0.7-1.2,2.6-1.7,3.6-0.8c0.8,0.7,4,7.6,4,8.6c0,1.1-1.5,2.5-2.6,2.5
		C3519.1,1173.5,3518.3,1173,3517.7,1172.4L3517.7,1172.4z M3606,1170.5c-0.9-1-0.9-1.9,0.1-3.8c0.4-0.9,1-2.4,1.3-3.3
		c0.8-2.5,1.5-3.4,3.1-3.4c1.4,0,2.5,1,2.5,2.4c0,1.1-2.5,7.5-3.3,8.3C3608.8,1171.6,3606.8,1171.5,3606,1170.5z M3561.2,1158.5
		c-5.7-1.1-9.6-6.5-8.9-12.4c0.3-2.8,1.5-5,3.8-7.1c2.3-2.1,4.3-2.8,8.3-2.9l3.1,0l12.7-13c7-7.2,13.1-13.2,13.6-13.4
		c2.7-1,5.9,1.1,5.9,3.9c0,2.1,0.3,1.8-14.3,16.8l-11.5,11.9l0.5,1.4c0.7,2.1,0.6,6.3-0.3,8.3
		C3571.8,1156.9,3566.6,1159.5,3561.2,1158.5L3561.2,1158.5z M3565.4,1149.9c0.4-0.2,1-1,1.2-1.6c1.2-3.4-2.9-5.7-5.5-3.1
		C3558.7,1147.7,3562.3,1151.6,3565.4,1149.9z M3512.7,1154.9c-1.3-0.6-1.6-1.8-1.6-6.3c-0.1-4.4,0.5-5.6,2.7-5.6
		c0.8,0,1.6,0.3,1.9,0.6c0.7,0.9,0.9,9.5,0.2,10.5C3515.2,1155.2,3513.9,1155.5,3512.7,1154.9z M3514.1,1135.7
		c-0.3-0.3-0.5-1.1-0.5-1.9c0-1.6,2.2-7.2,3.3-8.4c1-1.1,2.6-0.9,3.7,0.5l0.8,1.1l-1.6,4c-0.9,2.2-1.8,4.3-2,4.5
		C3517.2,1136.4,3514.8,1136.4,3514.1,1135.7L3514.1,1135.7z M3523.3,1119.2c-1.4-1.5-0.9-3,2.1-6.1c3-3.1,3.9-3.6,5.5-3.2
		c1,0.2,1.8,1.9,1.5,3.1c-0.1,0.3-1.5,2-3.3,3.7C3525.9,1120.1,3524.7,1120.6,3523.3,1119.2z M3560,1110c-1.1-1.1-0.6-3.1,1.4-5.4
		l1.9-2.2l-3.3-0.1c-3.1-0.1-3.4-0.2-4-1.3c-0.6-1.1-0.6-1.3,0-2.4c0.6-1.1,0.9-1.2,4-1.3c1.8-0.1,3.3-0.2,3.3-0.4s-1-1.3-2.1-2.6
		c-1.2-1.3-2.1-2.7-2.1-3.1c0-1.4,1.3-2.6,2.7-2.6c1.2,0,2,0.6,6,4.8c3.6,3.8,4.6,5.1,4.6,6c0,0.9-1,2.3-4.4,6
		c-3.8,4.1-4.6,4.8-5.9,4.9C3561.2,1110.5,3560.3,1110.3,3560,1110L3560,1110z M3538.3,1107.1c-0.4-0.5-0.7-1.3-0.6-2
		c0.2-1.5,1.8-2.7,6-4.3c2.8-1.1,3.2-1.1,4.2-0.6c1.3,0.7,1.8,3.3,0.8,4.1c-1,0.8-7.8,3.6-8.8,3.6
		C3539.4,1108,3538.7,1107.6,3538.3,1107.1L3538.3,1107.1z M3638.8,1059.1l-2.4-2.4l-1.5,1.7l-1.5,1.7l2.4,2.2l2.4,2.2l1.4-1.5
		l1.4-1.5L3638.8,1059.1z M3655.1,1059.5c2.1-1.7,1.7-2.3-7.3-10.9c-8.4-8-8.4-8.1-9.5-7.4c-0.6,0.3-1.3,1.2-1.5,1.8
		c-0.4,1.1-0.2,1.4,3,4.6c4.8,4.9,13.4,12.8,13.8,12.8C3653.8,1060.4,3654.5,1060,3655.1,1059.5z M3571.4,1028v-7.4h-8.1h-8.1v7.4
		l0,7.4l8.1,0l8.1,0V1028z M3589.9,1010.9c0.7-0.6,0.8-1.5,0.8-7.6c0-5.8-0.1-7-0.7-7.6c-0.7-0.7-2.1-0.8-26.7-0.8h-26l-0.7,1
		c-0.5,0.8-0.7,2.3-0.7,7.4s0.1,6.6,0.7,7.4l0.7,1h26C3586.7,1011.6,3589.2,1011.5,3589.9,1010.9z"/>
</g>
</svg>
