<?xml version="1.0" encoding="utf-8"?>
<!-- Generator: Adobe Illustrator 24.3.0, SVG Export Plug-In . SVG Version: 6.00 Build 0)  -->
<svg version="1.1" id="Layer_1" xmlns="http://www.w3.org/2000/svg" xmlns:xlink="http://www.w3.org/1999/xlink" x="0px" y="0px"
	 viewBox="0 0 100 100" style="enable-background:new 0 0 100 100;" xml:space="preserve">
<style type="text/css">
	.st0{fill:#01ACF6;}
	.st1{fill:#6A6A6B;}
	.st2{fill:#F7F7F7;}
	.st3{fill:#010101;}
</style>
<g>
	<path id="path245" class="st0" d="M47.8,28.7c-0.3,0-0.9,0.1-1.9,0.2C35,30.4,25.8,37.6,21.7,47.8c-1.1,2.7-2.1,7-2.1,9.1v0.6
		l1.7,0c1.4,0,1.8,0.1,2,0.3c0.9,0.7,0.9,1.7,0.2,2.5L23,60.8h-1.7h-1.7l0,0.5c0,1,0.5,3.8,0.9,5.6c3,11.5,13,20.4,24.8,22.2
		c2.3,0.3,2.8,0.3,2.9-0.1h0c0.1-0.2,0.1-0.9,0.1-1.6c0-1.2,0-1.3,0.4-1.7c0.9-0.9,2.7-0.4,2.7,0.8c0,0.2,0,0.7,0,0.9
		c0,0.3,0,0.8,0.1,1.2l0,0.8l1.3-0.1c5.1-0.4,10.2-2.4,14.9-5.6c1.7-1.2,5.2-4.6,6.5-6.3c1.4-1.9,2.8-4.4,3.7-6.6
		c1.2-2.9,2.2-7.1,2.2-9.3v-0.7h-1.5c-1.8,0-2.4-0.2-2.7-1.1c-0.3-0.7-0.2-1.3,0.4-1.9c0.4-0.4,0.5-0.4,2.2-0.4h1.8l-0.1-0.5
		c-0.5-3.9-1-6.1-1.9-8.5c-3.8-10.5-13.5-18.2-24.8-19.6c-2.2-0.3-2.1-0.3-2.1,0.7c0,1.8-0.2,2.7-0.7,3.1c-0.8,0.7-2.1,0.3-2.6-0.7
		c-0.1-0.3-0.2-1.1-0.2-1.9C48.3,29.1,48.4,28.7,47.8,28.7L47.8,28.7z M49.4,37.9c0.4,0,0.7,0.2,2.2,1.8c1.3,1.4,1.7,1.9,1.7,2.2
		c0,0.3-0.4,0.8-1.6,2.2c-1.4,1.5-1.7,1.8-2.2,1.8c-0.3,0-0.6,0-0.7-0.2c-0.4-0.4-0.2-1.1,0.5-2l0.7-0.8l-1.2,0
		c-1.2,0-1.2-0.1-1.5-0.5c-0.2-0.4-0.2-0.5,0-0.9c0.2-0.4,0.3-0.4,1.5-0.5c0.7,0,1.2-0.1,1.2-0.1c0,0-0.4-0.5-0.8-1
		c-0.4-0.5-0.8-1-0.8-1.1C48.4,38.3,48.9,37.9,49.4,37.9z M43.8,42c0.2,0,0.3,0,0.5,0.1c0.5,0.3,0.7,1.2,0.3,1.5
		c-0.4,0.3-2.9,1.3-3.2,1.3c-0.2,0-0.4-0.1-0.6-0.3c-0.2-0.2-0.3-0.5-0.2-0.7c0.1-0.5,0.7-1,2.2-1.6C43.3,42.2,43.6,42.1,43.8,42z
		 M61.6,45.5c0.9-0.1,1.8,0.6,1.8,1.5c0,0.8,0.1,0.7-5.3,6.2l-4.2,4.4l0.2,0.5c0.3,0.8,0.2,2.3-0.1,3.1c-0.8,1.9-2.7,2.8-4.7,2.4
		c-2.1-0.4-3.5-2.4-3.3-4.6c0.1-1,0.6-1.8,1.4-2.6c0.9-0.8,1.6-1.1,3.1-1.1l1.1,0l4.7-4.8c2.6-2.6,4.8-4.9,5-4.9
		C61.4,45.5,61.5,45.5,61.6,45.5z M37.7,45.6c0.1,0,0.3,0,0.4,0c0.4,0.1,0.7,0.7,0.6,1.2c0,0.1-0.6,0.7-1.2,1.4
		c-1.2,1.3-1.7,1.4-2.2,0.9c-0.5-0.6-0.3-1.1,0.8-2.3C36.9,46,37.3,45.7,37.7,45.6L37.7,45.6z M33.6,51.2c0.2,0,0.5,0.2,0.7,0.5
		l0.3,0.4L34,53.5c-0.3,0.8-0.7,1.6-0.7,1.7c-0.2,0.3-1.1,0.3-1.4,0c-0.1-0.1-0.2-0.4-0.2-0.7c0-0.6,0.8-2.6,1.2-3.1
		C33.1,51.2,33.3,51.1,33.6,51.2L33.6,51.2z M31.7,57.9c0.3,0,0.6,0.1,0.7,0.2c0.3,0.3,0.3,3.5,0.1,3.9c-0.3,0.4-0.7,0.5-1.2,0.3
		c-0.5-0.2-0.6-0.7-0.6-2.3C30.7,58.4,30.9,57.9,31.7,57.9z M50,58.3c-0.3,0-0.5,0.2-0.8,0.4c-0.9,0.9,0.4,2.4,1.6,1.7
		c0.2-0.1,0.4-0.4,0.4-0.6C51.6,58.9,50.8,58.2,50,58.3z M67.4,64.2c0.5,0,0.9,0.4,0.9,0.9c0,0.4-0.9,2.8-1.2,3
		c-0.3,0.3-1.1,0.3-1.4-0.1c-0.3-0.4-0.3-0.7,0-1.4c0.2-0.3,0.4-0.9,0.5-1.2C66.6,64.5,66.8,64.2,67.4,64.2L67.4,64.2z M33,64.9
		c0.1,0,0.2,0.1,0.3,0.1c0.3,0.2,1.5,2.8,1.5,3.2c0,0.4-0.6,0.9-1,0.9c-0.2,0-0.5-0.2-0.7-0.4c-0.2-0.2-0.6-1-0.9-1.7
		c-0.5-1.2-0.5-1.3-0.3-1.7C32.2,65,32.6,64.9,33,64.9z M64,70.3c0.4,0,0.8,0.4,0.9,0.9c0.1,0.4-0.6,1.4-1.7,2.4
		c-0.8,0.6-1.4,0.7-1.7,0.2c-0.1-0.2-0.2-0.5-0.2-0.7C61.2,72.6,63.6,70.3,64,70.3z M36.4,70.9c0.3,0,0.5,0.1,0.8,0.4
		c1.5,1.3,2,1.8,2,2.4c0,0.4-0.1,0.6-0.3,0.7c-0.7,0.4-1.1,0.2-2.3-1c-1.1-1.1-1.2-1.2-1.1-1.6C35.7,71.2,36,70.9,36.4,70.9z
		 M58.6,74.7c0.5,0,1,0.5,0.9,1c-0.1,0.6-0.5,0.9-2,1.5c-1.4,0.6-1.6,0.6-2,0.2c-0.3-0.3-0.3-1.2-0.1-1.4
		C55.7,75.8,58.3,74.7,58.6,74.7z M42.3,75.1c0.2,0,0.6,0.2,1.2,0.4c1.8,0.7,2.1,0.9,2.1,1.4c0,1-0.7,1.2-2.3,0.6
		c-1.8-0.7-2-0.8-2-1.4c0-0.4,0.1-0.6,0.4-0.8C41.9,75.1,42,75,42.3,75.1z M50.5,76.7c1.8,0,2.2,0.2,2.2,1c0,0.8-0.4,0.9-2.3,0.9
		c-1.2,0-1.8-0.1-1.9-0.2c-0.4-0.5-0.3-1.2,0.2-1.6C48.7,76.8,49.6,76.7,50.5,76.7z"/>
	<path id="path246" class="st1" d="M77,26.1l-0.6,0.6l-0.6,0.6l0.9,0.8l0.9,0.8l0.5-0.6l0.5-0.6L77.9,27L77,26.1z"/>
	<path id="path247" class="st2" d="M50,25.4c6.3,0,11.6,1.4,16.8,4.4c8.3,4.8,14,12.5,16.1,21.9c0.6,2.6,0.7,4.2,0.7,7.5
		c0,3.4-0.3,5.3-1,8.4c-1.7,6.6-5.5,12.7-10.7,17c-4.5,3.8-9.6,6.3-15.4,7.5c-1.8,0.4-2.4,0.4-6,0.5c-3,0-4.4,0-5.5-0.2
		c-7.3-1.2-13.5-4.3-18.8-9.4c-5.1-4.9-8.1-10.5-9.5-17.8c-0.4-1.7-0.4-2.6-0.5-5.4c-0.1-4.6,0.3-7.6,1.6-11.6
		c0.7-2.1,2.4-5.8,3.6-7.6c4.7-7.2,12-12.4,20.2-14.4C44.8,25.6,46.7,25.4,50,25.4z M49.4,21.5c-0.6,0-1.2,0-1.7,0.1
		c-12,0.8-22.8,7.2-29.2,17.2c-2.8,4.3-4.4,8.6-5.4,14.1c-0.3,1.9-0.5,7.8-0.2,10.3c0.3,3.2,1.4,7.6,2.8,10.7
		c3.6,8.4,10.6,15.5,19.1,19.4c3.5,1.6,8.1,2.8,11.7,3.2c1.9,0.2,5.5,0.2,7.3,0c10.9-1,21.1-7,27.4-16.1c5.8-8.4,7.9-18.9,5.9-28.9
		C83.1,33.6,67.3,21.1,49.4,21.5L49.4,21.5z"/>
	<path id="path248" class="st1" d="M78,20.2c-0.1,0-0.2,0-0.3,0.1c-0.2,0.1-0.5,0.4-0.6,0.7c-0.1,0.4-0.1,0.5,1.1,1.7
		c1.8,1.8,4.9,4.7,5.1,4.7c0.1,0,0.3-0.1,0.6-0.3c0.8-0.6,0.6-0.8-2.7-4C78.9,20.8,78.3,20.3,78,20.2z"/>
	<path id="path249" class="st1" d="M47,12.7v2.7v2.7l3,0l3,0v-2.7v-2.7h-3L47,12.7z"/>
	<path id="path250" class="st1" d="M40.4,3.2l-0.2,0.4c-0.2,0.3-0.2,0.8-0.2,2.7s0,2.5,0.2,2.7l0.2,0.4H50c8.7,0,9.6,0,9.9-0.3
		c0.3-0.2,0.3-0.5,0.3-2.8c0-2.1,0-2.6-0.3-2.8c-0.2-0.3-0.8-0.3-9.9-0.3H40.4z"/>
	<path id="path251" class="st3" d="M47.6,99.9c-1.9-0.1-5.5-0.7-7.5-1.2c-5.5-1.4-11.5-4.3-15.9-8c-1.7-1.4-4.8-4.5-6.1-6.2
		c-5.9-7.4-8.8-15.8-8.8-25.4c0-6.9,1.3-12.5,4.4-18.6c5.5-11,16.1-19,28.3-21.5l1.8-0.4v-3v-3H42c-2.1,0-3.1-0.3-4-1
		c-1.1-1-1.3-1.5-1.3-5.3l0-3.4l0.5-0.8c0.3-0.5,0.7-1.1,1-1.3c1.1-0.9,1.2-0.9,12.3-0.9C59.9,0,60.5,0,61.1,0.3
		c0.8,0.4,1.5,1.2,2,1.9c0.3,0.6,0.3,0.8,0.3,4.1c0,3.9,0,4-1.2,5.2c-0.9,0.9-1.9,1.2-4.1,1.2h-1.8v3v3l2.1,0.4
		c4.8,1,9.8,3,13.6,5.5c0.5,0.3,1,0.6,1,0.6c0.1,0,1.5-1.3,1.5-1.5c0,0-0.2-0.4-0.4-0.9c-0.8-1.7-0.4-3.5,1-4.7
		c1.4-1.2,3.3-1.6,4.7-0.9c0.8,0.4,7.4,6.9,7.7,7.6c0.1,0.3,0.2,1,0.3,1.5c0,1.6-1,3-2.7,4c-0.7,0.4-2.4,0.4-3.1,0l-0.5-0.3
		l-0.6,0.6l-0.6,0.6l1,1.1c4.8,5.7,8,12.8,9.2,20.1c0.2,1,0.3,3,0.3,5.6c0.1,3.6,0,4.3-0.3,6.4c-0.7,4.9-1.8,8.4-3.9,12.6
		c-1.9,3.8-4.2,7-7.1,10c-4.6,4.8-10.4,8.5-16.6,10.6C58.2,99.4,52.1,100.2,47.6,99.9z M53.6,96.5c10.9-1,21.1-7,27.4-16.1
		c5.8-8.4,7.9-18.9,5.9-28.9C83,33,66.3,20.3,47.6,21.6c-12,0.8-22.8,7.2-29.2,17.2c-2.8,4.3-4.4,8.6-5.4,14.1
		c-0.3,1.9-0.5,7.8-0.2,10.3c0.3,3.2,1.4,7.6,2.8,10.7c3.6,8.4,10.6,15.5,19.1,19.4c3.5,1.6,8.1,2.8,11.7,3.2
		C48.1,96.7,51.7,96.7,53.6,96.5L53.6,96.5z M45.2,92.5c-7.3-1.2-13.5-4.3-18.8-9.4c-5.1-4.9-8.1-10.5-9.5-17.8
		c-0.4-1.7-0.4-2.6-0.5-5.4c-0.1-4.6,0.3-7.6,1.6-11.6c0.7-2.1,2.4-5.8,3.6-7.6c4.7-7.2,12-12.4,20.2-14.4c3-0.7,4.9-1,8.2-1
		c6.3,0,11.6,1.4,16.8,4.4c8.3,4.8,14,12.5,16.1,21.9c0.6,2.6,0.7,4.2,0.7,7.5c0,3.4-0.3,5.3-1,8.4c-1.7,6.6-5.5,12.7-10.7,17
		c-4.5,3.8-9.6,6.3-15.4,7.5c-1.8,0.4-2.4,0.4-6,0.5C47.7,92.7,46.2,92.6,45.2,92.5z M48.3,89c0.1-0.2,0.1-0.9,0.1-1.6
		c0-1.2,0-1.3,0.4-1.7c0.9-0.9,2.7-0.4,2.7,0.8c0,0.2,0,0.7,0,0.9c0,0.3,0,0.8,0.1,1.2l0,0.8l1.3-0.1c5.1-0.4,10.2-2.4,14.9-5.6
		c1.7-1.2,5.2-4.6,6.5-6.3c1.4-1.9,2.8-4.4,3.7-6.6c1.2-2.9,2.2-7.1,2.2-9.3v-0.7h-1.5c-1.8,0-2.4-0.2-2.7-1.1
		c-0.3-0.7-0.2-1.3,0.4-1.9c0.4-0.4,0.5-0.4,2.2-0.4h1.8l-0.1-0.5c-0.5-3.9-1-6.1-1.9-8.5c-3.8-10.5-13.5-18.2-24.8-19.6
		c-2.2-0.3-2.1-0.3-2.1,0.7c0,1.8-0.2,2.7-0.7,3.1c-0.8,0.7-2.1,0.3-2.6-0.7c-0.1-0.3-0.2-1.1-0.2-1.9c0-1.6,0.2-1.5-2.4-1.1
		C35,30.4,25.8,37.6,21.7,47.8c-1.1,2.7-2.1,7-2.1,9.1v0.6l1.7,0c1.4,0,1.8,0.1,2,0.3c0.9,0.7,0.9,1.7,0.2,2.5L23,60.8h-1.7h-1.7
		l0,0.5c0,1,0.5,3.8,0.9,5.6c3,11.5,13,20.4,24.8,22.2C47.7,89.5,48.2,89.5,48.3,89L48.3,89z M48.5,78.4c-0.4-0.5-0.3-1.2,0.2-1.6
		c0.1-0.1,0.9-0.1,1.8-0.1c1.8,0,2.2,0.2,2.2,1c0,0.8-0.4,0.9-2.3,0.9C49.2,78.6,48.6,78.6,48.5,78.4z M43.3,77.5
		c-1.8-0.7-2-0.8-2-1.4c0-0.4,0.1-0.6,0.4-0.8c0.4-0.3,0.5-0.2,1.8,0.3c1.8,0.7,2.1,0.9,2.1,1.4C45.6,77.9,44.9,78.1,43.3,77.5z
		 M55.5,77.4c-0.3-0.3-0.3-1.2-0.1-1.4c0.3-0.2,2.9-1.3,3.1-1.3c0.5,0,1,0.5,0.9,1c-0.1,0.6-0.5,0.9-2,1.5
		C56.1,77.8,55.8,77.8,55.5,77.4z M36.6,73.4c-1.1-1.1-1.2-1.2-1.1-1.6c0.2-0.9,0.9-1.1,1.7-0.4c1.5,1.3,2,1.8,2,2.4
		c0,0.4-0.1,0.6-0.3,0.7C38.3,74.7,37.9,74.6,36.6,73.4z M61.5,73.7c-0.1-0.2-0.2-0.5-0.2-0.7c0-0.4,2.3-2.8,2.8-2.8
		c0.4,0,0.8,0.4,0.9,0.9c0.1,0.4-0.6,1.4-1.7,2.4C62.4,74.1,61.8,74.2,61.5,73.7z M33.2,68.8c-0.2-0.2-0.6-1-0.9-1.7
		c-0.5-1.2-0.5-1.3-0.3-1.7c0.2-0.4,1-0.6,1.3-0.3c0.3,0.2,1.5,2.8,1.5,3.2c0,0.4-0.6,0.9-1,0.9C33.7,69.2,33.4,69,33.2,68.8z
		 M65.8,68.1c-0.3-0.4-0.3-0.7,0-1.4c0.2-0.3,0.4-0.9,0.5-1.2c0.3-0.9,0.6-1.2,1.1-1.2c0.5,0,0.9,0.4,0.9,0.9c0,0.4-0.9,2.8-1.2,3
		C66.8,68.5,66.1,68.4,65.8,68.1z M49.2,63.6c-2.1-0.4-3.5-2.4-3.3-4.6c0.1-1,0.6-1.8,1.4-2.6c0.9-0.8,1.6-1.1,3.1-1.1l1.1,0
		l4.7-4.8c2.6-2.6,4.8-4.9,5-4.9c1-0.4,2.2,0.4,2.2,1.5c0,0.8,0.1,0.7-5.3,6.2l-4.2,4.4l0.2,0.5c0.3,0.8,0.2,2.3-0.1,3.1
		C53.1,63,51.2,64,49.2,63.6L49.2,63.6z M50.8,60.5c0.2-0.1,0.4-0.4,0.4-0.6c0.4-1.2-1.1-2.1-2-1.1C48.3,59.6,49.6,61.1,50.8,60.5z
		 M31.3,62.3c-0.5-0.2-0.6-0.7-0.6-2.3c0-1.6,0.2-2.1,1-2.1c0.3,0,0.6,0.1,0.7,0.2c0.3,0.3,0.3,3.5,0.1,3.9
		C32.2,62.4,31.8,62.5,31.3,62.3z M31.9,55.2c-0.1-0.1-0.2-0.4-0.2-0.7c0-0.6,0.8-2.6,1.2-3.1c0.4-0.4,1-0.3,1.4,0.2l0.3,0.4
		L34,53.5c-0.3,0.8-0.7,1.6-0.7,1.7C33,55.5,32.1,55.5,31.9,55.2L31.9,55.2z M35.3,49.1c-0.5-0.6-0.3-1.1,0.8-2.3
		c1.1-1.2,1.4-1.3,2-1.2c0.4,0.1,0.7,0.7,0.6,1.2c0,0.1-0.6,0.7-1.2,1.4C36.2,49.5,35.7,49.7,35.3,49.1z M48.8,45.7
		c-0.4-0.4-0.2-1.1,0.5-2l0.7-0.8l-1.2,0c-1.2,0-1.2-0.1-1.5-0.5c-0.2-0.4-0.2-0.5,0-0.9c0.2-0.4,0.3-0.4,1.5-0.5
		c0.7,0,1.2-0.1,1.2-0.1c0,0-0.4-0.5-0.8-1c-0.4-0.5-0.8-1-0.8-1.1c0-0.5,0.5-1,1-1c0.4,0,0.7,0.2,2.2,1.8c1.3,1.4,1.7,1.9,1.7,2.2
		c0,0.3-0.4,0.8-1.6,2.2c-1.4,1.5-1.7,1.8-2.2,1.8C49.2,45.9,48.9,45.8,48.8,45.7L48.8,45.7z M40.8,44.7c-0.2-0.2-0.3-0.5-0.2-0.7
		c0.1-0.5,0.7-1,2.2-1.6c1-0.4,1.2-0.4,1.5-0.2c0.5,0.3,0.7,1.2,0.3,1.5c-0.4,0.3-2.9,1.3-3.2,1.3C41.2,45,40.9,44.8,40.8,44.7z
		 M77.9,27L77,26.1l-0.6,0.6l-0.6,0.6l0.9,0.8l0.9,0.8l0.5-0.6l0.5-0.6L77.9,27z M83.9,27.1c0.8-0.6,0.6-0.8-2.7-4
		c-3.1-3-3.1-3-3.5-2.7c-0.2,0.1-0.5,0.4-0.6,0.7c-0.1,0.4-0.1,0.5,1.1,1.7c1.8,1.8,4.9,4.7,5.1,4.7C83.4,27.4,83.7,27.3,83.9,27.1z
		 M53,15.5v-2.7h-3h-3l0,2.7l0,2.7l3,0l3,0V15.5z M59.8,9.2c0.3-0.2,0.3-0.5,0.3-2.8c0-2.1,0-2.6-0.3-2.8c-0.2-0.3-0.8-0.3-9.9-0.3
		h-9.6l-0.2,0.4c-0.2,0.3-0.2,0.8-0.2,2.7c0,1.9,0,2.5,0.2,2.7l0.2,0.4H50C58.7,9.4,59.6,9.4,59.8,9.2z"/>
</g>
</svg>
