<?xml version="1.0" encoding="UTF-8" standalone="no"?>
<!-- Created with Inkscape (http://www.inkscape.org/) -->

<svg
   width="270.93338mm"
   height="270.93332mm"
   viewBox="0 0 270.93338 270.93332"
   version="1.1"
   id="svg1"
   xml:space="preserve"
   xmlns="http://www.w3.org/2000/svg"
   xmlns:svg="http://www.w3.org/2000/svg"><defs
     id="defs1" /><g
     id="layer1"
     transform="translate(650.69299,305.95956)"><g
       id="g38"><path
         style="fill:none"
         d="m -650.69312,-170.4929 v -135.46666 h 135.46666 135.46666 v 135.46666 135.46666 h -135.46666 -135.46666 z"
         id="path58" /><path
         id="path13"
         style="fill:#1fabe9"
         d="m -491.19033,-153.33332 c -7.94333,-0.91066 -15.39229,-4.74115 -20.41851,-10.49986 -6.56809,-7.52526 -8.9241,-16.52435 -6.91892,-26.42762 2.69952,-13.33245 13.36644,-34.26334 27.84987,-54.64767 1.52507,-2.14643 2.86007,-3.90261 2.96665,-3.90261 0.25507,0 6.55205,8.82396 9.06301,12.7 12.47364,19.25492 20.55262,36.75845 22.28721,48.28646 0.49604,3.29667 0.49978,4.88184 0.019,8.07089 -2.11383,14.02205 -13.30489,24.66317 -27.79593,26.42999 -2.68506,0.32738 -4.13038,0.32541 -7.05241,-0.01 z m -8.06476,-14.35091 c 1.2591,-0.52608 2.0203,-1.61266 2.0203,-2.8839 0,-0.96364 -0.16842,-1.22547 -1.8407,-2.86167 -2.28556,-2.23623 -3.53843,-4.09953 -4.45202,-6.62114 -0.63778,-1.76036 -0.71073,-2.33619 -0.74006,-5.84204 -0.0366,-4.38021 -0.23623,-4.98662 -1.86528,-5.66728 -2.02874,-0.84766 -4.11598,0.53292 -4.48048,2.96356 -0.27308,1.82106 0.0413,7.14929 0.52956,8.97416 1.25126,4.67685 5.14185,10.28095 8.27031,11.91273 0.92609,0.48305 1.45094,0.4883 2.55837,0.0256 z" /><path
         style="fill:#1fabe9"
         d="m -553.19416,-156.99888 c -3.10981,-1.04273 -5.50046,-3.46917 -6.48108,-6.57808 -0.6712,-2.12797 -0.6712,-3.7694 0,-5.89738 0.69355,-2.19879 1.98391,-3.90634 3.97238,-5.25668 0.88573,-0.60149 1.72323,-1.39034 1.86112,-1.75301 0.1475,-0.38795 0.2507,-7.02405 0.2507,-16.1203 v -15.4609 h 3.43959 3.43958 l 0.009,15.54427 c 0.007,11.68783 0.0891,15.6864 0.33073,16.11716 0.17675,0.3151 1.05201,1.06008 1.94503,1.65553 2.479,1.65294 3.77981,3.67298 4.34941,6.75422 0.52473,2.83853 -0.61552,6.25552 -2.82466,8.46466 -2.67184,2.67184 -6.82518,3.69301 -10.29217,2.53051 z"
         id="path12" /><path
         id="path57"
         style="fill:#1fabe9"
         d="m -570.52437,-95.63533 c -2.33222,-0.35073 -4.40959,-1.18793 -7.84435,-3.16138 -3.39784,-1.95223 -4.46191,-2.22532 -5.59053,-1.43481 l -0.58804,0.41188 v -7.17122 -7.17122 l 0.99219,0.77605 c 1.73368,1.35602 6.10566,3.76701 8.25007,4.54962 2.92102,1.06604 6.05105,1.46469 8.56476,1.09082 2.87595,-0.42774 4.00678,-0.86767 9.34151,-3.63413 5.67941,-2.94521 7.15432,-3.3908 10.67296,-3.22446 2.98904,0.1413 4.10548,0.52909 8.61289,2.99162 4.253,2.32354 6.36104,3.20196 8.93643,3.7238 4.37236,0.88595 8.33032,0.0408 13.81773,-2.95059 5.93712,-3.23653 7.63545,-3.82696 11.00793,-3.82696 2.82182,0 4.93955,0.70817 9.49728,3.1759 4.53026,2.45285 6.07869,3.09352 8.68838,3.59487 2.46083,0.47274 4.18978,0.46568 6.52516,-0.0267 2.54652,-0.53686 4.2267,-1.24283 7.98484,-3.35507 4.51997,-2.54041 6.27012,-3.16265 9.34555,-3.32265 3.806,-0.19801 6.30183,0.61247 11.2923,3.66697 2.23981,1.37092 3.29336,1.5639 4.33472,0.79399 l 0.77696,-0.57444 v 7.28397 c 0,7.18345 -0.007,7.27695 -0.50813,6.77583 -0.67698,-0.67699 -5.1798,-3.31509 -7.23951,-4.24148 -2.64132,-1.18798 -5.03608,-1.68774 -7.99506,-1.66849 -3.5929,0.0234 -6.06096,0.71387 -9.89769,2.76908 -7.61606,4.07969 -9.52438,4.70067 -12.91101,4.20137 -2.50973,-0.37002 -3.91466,-0.92784 -7.9564,-3.15907 -5.36782,-2.96329 -8.00294,-3.78853 -12.0974,-3.78853 -4.04644,0 -6.99952,0.97744 -12.7629,4.2244 -3.66597,2.06533 -5.83681,2.75536 -8.66835,2.75536 -2.94247,0 -4.94379,-0.66864 -9.46076,-3.16083 -5.50979,-3.03997 -8.10052,-3.85582 -12.23507,-3.85296 -3.98021,0.003 -6.43007,0.80769 -12.30313,4.04233 -4.84683,2.66944 -7.41762,3.37317 -10.58333,2.8971 z m -1.00313,-17.03782 c -2.07576,-0.4708 -3.94019,-1.31558 -7.34946,-3.33008 -2.95567,-1.74646 -4.189,-1.99715 -5.14116,-1.04498 -0.52917,0.52916 -0.52917,0.52916 -0.52917,-6.793 v -7.32216 l 0.59532,0.54677 c 0.92613,0.85063 4.05981,2.69383 6.68073,3.92954 3.49129,1.64609 5.52699,2.06075 9.31521,1.89749 3.84567,-0.16574 4.94479,-0.52918 10.26949,-3.39568 5.1959,-2.79718 7.03788,-3.41505 10.18092,-3.41505 3.13739,0 5.13997,0.66352 9.97519,3.3051 4.1763,2.2816 5.54012,2.8399 8.36048,3.42246 2.65153,0.54769 4.35581,0.52267 6.9621,-0.10221 2.61038,-0.62585 4.27011,-1.34489 8.33798,-3.61225 3.95637,-2.2052 6.4276,-3.0131 9.21664,-3.0131 2.854,0 4.47248,0.42453 7.41844,1.94587 1.38245,0.71392 3.72299,1.92186 5.2012,2.68433 3.50095,1.8058 5.77842,2.38119 9.35088,2.36247 2.41567,-0.0127 3.10606,-0.12636 5.29167,-0.87143 1.38245,-0.47128 3.64463,-1.49206 5.02708,-2.2684 5.8053,-3.26007 7.4958,-3.85284 10.98778,-3.85284 3.22963,0 5.19687,0.71249 10.57576,3.83029 2.28117,1.32225 3.35916,1.44618 4.39844,0.50564 0.48428,-0.43826 0.49635,-0.27122 0.49635,6.86611 v 7.3153 l -1.19319,-0.91079 c -1.92226,-1.46729 -6.17797,-3.75825 -8.4641,-4.55644 -1.94567,-0.67932 -2.42659,-0.73854 -5.95312,-0.73305 -3.45996,0.005 -4.04418,0.0761 -5.95313,0.72041 -1.16416,0.39293 -3.84307,1.66763 -5.95312,2.83267 -4.9391,2.72707 -6.59623,3.29897 -9.525,3.28724 -2.92092,-0.0117 -3.99507,-0.38631 -10.19959,-3.55723 -6.10343,-3.11925 -7.67551,-3.55648 -12.11738,-3.37013 -3.81949,0.16024 -5.8747,0.84968 -11.29902,3.79034 -8.01581,4.34558 -10.97385,4.32096 -19.06002,-0.15861 -4.84391,-2.68343 -7.2615,-3.48259 -10.9966,-3.63507 -4.42973,-0.18083 -6.02924,0.26142 -11.98346,3.31329 -2.70025,1.38404 -5.55686,2.74123 -6.34801,3.01598 -1.97064,0.68436 -4.55278,0.83011 -6.57613,0.3712 z" /><path
         id="path7"
         style="fill:#020303"
         d="m -493.9275,-148.95069 c -15.54855,-2.72316 -27.56253,-14.83269 -29.78322,-30.0201 -0.43181,-2.95314 -0.16766,-9.15872 0.52963,-12.44251 3.09451,-14.57312 14.43746,-36.61957 29.71322,-57.75141 3.80655,-5.26581 4.51333,-5.99486 5.81178,-5.99486 1.22444,0 1.38946,0.15646 4.23941,4.0194 16.45855,22.30858 28.55762,45.66133 31.38688,60.58072 1.30908,6.90306 0.86221,12.43109 -1.53918,19.04048 -4.13009,11.36733 -15.31468,20.42314 -27.89161,22.58296 -2.93282,0.50365 -9.5519,0.49586 -12.46691,-0.0147 z m 9.78958,-4.37154 c 5.52232,-0.67331 11.52153,-3.01998 15.61042,-6.10623 6.64564,-5.01605 10.96351,-12.21766 12.18551,-20.32376 0.48075,-3.18905 0.47701,-4.77422 -0.019,-8.07089 -1.73459,-11.52801 -9.81357,-29.03154 -22.28721,-48.28646 -2.51096,-3.87604 -8.80794,-12.7 -9.06301,-12.7 -0.10658,0 -1.44158,1.75618 -2.96665,3.90261 -14.48343,20.38433 -25.15035,41.31522 -27.84987,54.64767 -2.00518,9.90327 0.35083,18.90236 6.91892,26.42762 4.08613,4.68161 9.64051,8.04737 15.90107,9.63549 4.26348,1.08152 7.72369,1.34289 11.56985,0.87395 z" /><path
         id="path3"
         style="fill:#020303"
         d="m -554.91395,-142.0644 c -9.73178,-2.08814 -17.00415,-9.00654 -19.47335,-18.52551 -0.54291,-2.09297 -0.68364,-3.27232 -0.69236,-5.80195 -0.0202,-5.87315 1.59103,-10.68971 5.10696,-15.26625 l 1.565,-2.03709 v -33.63064 c 0,-24.07648 0.0849,-33.98338 0.29877,-34.87229 0.16432,-0.6829 0.74154,-2.19414 1.2827,-3.3583 3.69558,-7.95005 11.91648,-12.06329 20.58853,-10.30126 5.33393,1.08377 10.0108,4.7081 12.52304,9.70468 1.91299,3.80476 1.8112,1.62271 1.81554,38.91829 l 0.004,33.55922 1.67917,2.09871 c 1.95323,2.44123 3.59579,5.60316 4.4583,8.58221 0.53213,1.83793 0.60667,2.65834 0.58784,6.47043 -0.0195,3.94121 -0.0904,4.59168 -0.72939,6.69087 -1.38901,4.563 -3.52365,8.02961 -6.97287,11.32374 -3.64478,3.48091 -8.23598,5.79433 -13.04597,6.5736 -2.35989,0.38233 -6.9187,0.31723 -8.99583,-0.12846 z m 8.50953,-4.46038 c 7.89505,-1.51904 14.2032,-7.42524 16.27383,-15.23687 0.62285,-2.34976 0.63054,-7.21051 0.0151,-9.525 -0.76619,-2.88126 -2.64517,-6.36275 -4.56035,-8.44969 l -1.71725,-1.87125 v -17.31005 -17.31005 l -3.99229,-0.0852 -3.99229,-0.0852 -0.63792,-0.74236 c -0.3556,-0.41382 -0.63792,-1.08059 -0.63792,-1.5066 0,-0.42601 0.28232,-1.09279 0.63792,-1.5066 l 0.63792,-0.74236 3.99229,-0.0852 3.99229,-0.0852 v -3.15593 -3.15594 h -3.85681 -3.85681 l -0.7734,-0.7734 c -0.81925,-0.81925 -0.93766,-1.40594 -0.5105,-2.52947 0.43189,-1.13594 1.66254,-1.45963 5.54944,-1.45963 h 3.44808 v -3.15019 -3.15019 l -3.78269,-0.091 c -4.34946,-0.10458 -5.06673,-0.36435 -5.36274,-1.9422 -0.20694,-1.10312 0.356,-2.14018 1.37128,-2.52619 0.36567,-0.13902 2.26444,-0.25277 4.2195,-0.25277 h 3.55465 v -3.2517 c 0,-4.89089 -0.93804,-7.75569 -3.46948,-10.5959 -7.3925,-8.29421 -21.37584,-4.66499 -23.66662,6.1424 -0.30755,1.45095 -0.37217,7.55843 -0.37597,35.53573 l -0.005,33.78365 -1.3995,1.60469 c -5.69895,6.53452 -6.78245,14.88976 -2.93109,22.60276 4.02268,8.0561 13.0965,12.5884 21.83596,10.9069 z m -5.73141,-5.45109 c -6.51019,-0.88716 -11.54121,-5.96438 -12.58662,-12.7022 -0.70471,-4.54201 1.43237,-10.04747 4.97884,-12.82629 l 1.35071,-1.05833 0.0197,-23.57838 c 0.0196,-23.43816 0.0229,-23.58252 0.56805,-24.27552 0.75523,-0.96012 2.52279,-0.99112 3.39791,-0.0596 0.58866,0.62661 0.59893,0.74904 0.59889,7.14375 l -4e-5,6.50622 h 5.15612 5.15612 l 0.7734,0.7734 0.7734,0.7734 v 16.18496 16.18497 l 1.94699,1.81827 c 3.08818,2.88402 4.65463,6.46494 4.66368,10.66118 0.0187,8.65209 -8.10105,15.63922 -16.79713,14.45418 z m 6.36819,-5.54165 c 5.03785,-2.48013 7.12891,-8.07757 4.89997,-13.11646 -0.78976,-1.78539 -1.77357,-2.92226 -3.55907,-4.11279 -0.89302,-0.59545 -1.76828,-1.34043 -1.94503,-1.65553 -0.24162,-0.43076 -0.32368,-4.42933 -0.33073,-16.11716 l -0.009,-15.54427 h -3.43958 -3.43959 v 15.4609 c 0,9.09625 -0.1032,15.73235 -0.2507,16.1203 -0.13789,0.36267 -0.97539,1.15152 -1.86112,1.75301 -1.98847,1.35034 -3.27883,3.05789 -3.97238,5.25668 -0.6712,2.12798 -0.6712,3.76941 0,5.89738 1.84632,5.8535 8.46588,8.73688 13.9076,6.05794 z" /><path
         id="path56"
         style="fill:#020303"
         d="m -570.95086,-90.86684 c -3.30077,-0.43068 -5.37688,-1.25099 -9.98934,-3.94698 -3.309,-1.93412 -3.9842,-2.64613 -3.77132,-3.97692 0.0815,-0.50937 0.40308,-1.13449 0.71467,-1.38915 1.06787,-0.87277 2.18399,-0.59543 5.66216,1.40697 4.03974,2.32569 6.6349,3.20041 9.53011,3.21218 2.73096,0.0111 4.5648,-0.60362 8.86354,-2.9712 5.87306,-3.23464 8.32292,-4.03957 12.30313,-4.04233 4.13455,-0.003 6.72528,0.81299 12.23507,3.85296 4.51697,2.49219 6.51829,3.16083 9.46076,3.16083 2.83154,0 5.00238,-0.69003 8.66835,-2.75536 5.76338,-3.24696 8.71646,-4.2244 12.7629,-4.2244 4.09446,0 6.72958,0.82524 12.0974,3.78853 4.04174,2.23123 5.44667,2.78905 7.9564,3.15907 3.38663,0.4993 5.29495,-0.12168 12.91101,-4.20137 3.83673,-2.05521 6.30479,-2.7457 9.89769,-2.76908 4.28546,-0.0279 7.14269,0.90889 12.49296,4.09597 2.99045,1.78136 3.67482,2.57658 3.3785,3.92572 -0.20659,0.94062 -1.28189,1.83599 -2.20493,1.83599 -0.37505,0 -2.1332,-0.83654 -3.907,-1.85898 -5.27772,-3.04212 -8.50688,-3.84683 -12.27308,-3.05846 -1.95005,0.4082 -3.61645,1.15756 -9.67732,4.35177 -3.58056,1.88702 -6.00226,2.54664 -9.24038,2.51685 -3.54122,-0.0326 -5.23012,-0.57111 -10.99166,-3.50492 -5.97434,-3.04216 -7.49913,-3.56339 -10.43959,-3.56865 -2.7323,-0.005 -5.01581,0.70095 -8.46667,2.61703 -6.54141,3.63211 -8.86991,4.44071 -12.83229,4.45616 -3.41934,0.0133 -5.76834,-0.6213 -9.50435,-2.56783 -6.4164,-3.34304 -7.65883,-3.90229 -9.56711,-4.30632 -3.8447,-0.81402 -6.45418,-0.15467 -12.67854,3.20356 -4.45508,2.40365 -6.42003,3.16659 -9.18538,3.56645 -1.99071,0.28785 -1.93677,0.28795 -4.20569,-0.008 z m -1.02872,-17.02896 c -2.5972,-0.50527 -5.03947,-1.48793 -8.02051,-3.2271 -4.50966,-2.63099 -5.10872,-3.29669 -4.53395,-5.03827 0.64471,-1.95349 2.15364,-1.91105 5.65708,0.15908 3.55599,2.10119 5.28445,2.86325 7.60428,3.35264 3.66912,0.77403 5.43294,0.29932 12.66932,-3.40974 5.95422,-3.05187 7.55373,-3.49412 11.98346,-3.31329 3.7351,0.15248 6.15269,0.95164 10.9966,3.63507 8.08617,4.47957 11.04421,4.50419 19.06002,0.15861 5.42432,-2.94066 7.47953,-3.6301 11.29902,-3.79034 4.44187,-0.18635 6.01395,0.25088 12.11738,3.37013 6.20452,3.17092 7.27867,3.54554 10.19959,3.55723 2.92877,0.0117 4.5859,-0.56017 9.525,-3.28724 2.11005,-1.16504 4.78896,-2.43974 5.95312,-2.83267 1.90895,-0.64432 2.49317,-0.71501 5.95313,-0.72041 3.52228,-0.005 4.0098,0.0544 5.95312,0.73082 2.34502,0.81629 7.32465,3.54626 8.80888,4.82927 0.80785,0.69833 0.95112,0.9847 0.92654,1.85192 -0.0219,0.77157 -0.21097,1.18231 -0.76286,1.65703 -0.99809,0.85852 -2.15247,0.67273 -4.41163,-0.71003 -5.00702,-3.06463 -7.49812,-3.87454 -11.30762,-3.67635 -3.07543,0.16 -4.82558,0.78224 -9.34555,3.32265 -6.22243,3.49727 -9.69534,4.30668 -14.51,3.38174 -2.60969,-0.50135 -4.15812,-1.14202 -8.68838,-3.59487 -4.55773,-2.46773 -6.67546,-3.1759 -9.49728,-3.1759 -3.37248,0 -5.07081,0.59043 -11.00793,3.82696 -5.48741,2.99137 -9.44537,3.83654 -13.81773,2.95059 -2.57539,-0.52184 -4.68343,-1.40026 -8.93643,-3.7238 -4.43401,-2.42243 -5.63684,-2.84657 -8.48188,-2.99087 -3.6199,-0.1836 -4.79615,0.17255 -11.0658,3.35048 -3.07326,1.55776 -6.24258,2.98024 -7.04295,3.16107 -2.26419,0.51157 -5.24059,0.59158 -7.27604,0.19559 z m 42.63861,-16.99129 c -2.63821,-0.56589 -4.1093,-1.17789 -8.18946,-3.40697 -4.83522,-2.64158 -6.8378,-3.3051 -9.97519,-3.3051 -3.14304,0 -4.98502,0.61787 -10.18092,3.41505 -5.3247,2.8665 -6.42382,3.22994 -10.26949,3.39568 -4.04408,0.17429 -5.94102,-0.26283 -10.10896,-2.32947 -3.73034,-1.84965 -5.92301,-3.28941 -6.44964,-4.23501 -0.45133,-0.81037 -0.24604,-1.88494 0.50324,-2.63423 0.94481,-0.9448 2.18576,-0.69061 5.13443,1.05172 3.6705,2.16885 5.36759,2.90016 7.8779,3.39471 3.05933,0.60272 5.3656,0.11716 9.33823,-1.96609 8.68928,-4.55664 10.04612,-4.99197 14.93057,-4.79026 3.9615,0.16359 5.96565,0.81394 11.06781,3.59155 5.02204,2.734 6.67864,3.31033 9.58808,3.3357 3.20451,0.028 4.29401,-0.36462 11.1125,-4.00404 4.23138,-2.25853 5.82189,-2.74228 9.58922,-2.91656 4.59995,-0.21279 7.53648,0.62253 12.90036,3.66962 3.44485,1.95694 5.38372,2.77974 7.40833,3.14391 3.44649,0.61991 6.07804,-0.0985 11.63255,-3.17556 1.92218,-1.06485 4.52629,-2.30501 5.78689,-2.75592 2.16244,-0.77348 2.50891,-0.81987 6.12848,-0.82042 3.30728,-5e-4 4.08834,0.0838 5.66259,0.61121 3.70482,1.2412 9.41876,4.59323 9.92884,5.82467 0.60976,1.47209 -0.22469,2.86472 -1.86643,3.1149 -0.72351,0.11025 -1.2939,-0.0965 -3.00938,-1.09087 -5.37889,-3.1178 -7.34613,-3.83029 -10.57576,-3.83029 -3.49198,0 -5.18248,0.59277 -10.98778,3.85284 -1.38245,0.77634 -3.64463,1.79712 -5.02708,2.2684 -2.18561,0.74507 -2.876,0.85877 -5.29167,0.87143 -3.57246,0.0187 -5.84993,-0.55667 -9.35088,-2.36247 -1.47821,-0.76247 -3.81875,-1.97041 -5.2012,-2.68433 -2.94596,-1.52134 -4.56444,-1.94587 -7.41844,-1.94587 -2.78904,0 -5.26027,0.8079 -9.21664,3.0131 -4.06787,2.26736 -5.7276,2.9864 -8.33798,3.61225 -2.50926,0.60162 -4.61342,0.6272 -7.13312,0.0867 z" /><path
         style="fill:#fdfdfd;fill-opacity:1;stroke:none;stroke-width:0.529164;stroke-linecap:round;stroke-linejoin:round;stroke-dasharray:none;stroke-opacity:1;paint-order:markers stroke fill"
         d="m -507.63773,-191.79656 c -1.45999,0.14462 -2.70213,1.37682 -2.97553,3.1998 -0.27307,1.82106 0.0414,7.14926 0.5297,8.97413 1.25124,4.67685 5.14183,10.28119 8.27029,11.91297 0.9261,0.48305 1.45055,0.48802 2.55799,0.0253 1.2591,-0.52608 2.02055,-1.6123 2.02055,-2.88354 0,-0.96364 -0.16844,-1.22564 -1.84074,-2.86184 -2.28555,-2.23623 -3.53832,-4.0997 -4.4519,-6.62131 -0.63778,-1.76036 -0.71067,-2.33617 -0.74001,-5.84202 -0.0366,-4.3802 -0.23646,-4.98669 -1.86553,-5.66735 -0.50718,-0.21192 -1.01814,-0.28437 -1.50482,-0.23616 z"
         id="path212" /><path
         id="path200"
         style="fill:#fdfdfd;fill-opacity:1;stroke:none;stroke-width:0.140008;stroke-linecap:round;stroke-linejoin:round;stroke-dasharray:none;stroke-opacity:1;paint-order:markers stroke fill"
         d="m -549.99537,-261.65172 c -6.10283,-0.0118 -12.10231,3.93878 -13.53405,10.6934 -0.30755,1.45095 -0.3719,7.558 -0.37568,35.5353 l -0.005,33.78399 -1.39938,1.60455 c -5.69897,6.53452 -6.78247,14.88975 -2.93111,22.60275 4.0227,8.0561 13.09642,12.58833 21.83588,10.90683 v 0 c 7.89503,-1.51904 14.2033,-7.42517 16.27393,-15.2368 0.62286,-2.34976 0.63043,-7.21051 0.0151,-9.525 -0.76619,-2.88126 -2.64526,-6.36267 -4.56044,-8.44961 l -1.7172,-1.8712 v -17.31006 -17.31005 l -3.99254,-0.0853 -3.992,-0.0853 -0.63821,-0.74208 c -0.3556,-0.41382 -0.63767,-1.08087 -0.63767,-1.50688 0,-0.42601 0.28207,-1.09256 0.63767,-1.50637 l 0.63821,-0.74259 3.992,-0.0853 3.99254,-0.0853 v -3.15588 -3.15588 h -3.85662 -3.85712 l -0.77309,-0.77308 c -0.81926,-0.81925 -0.93771,-1.40603 -0.51057,-2.52956 0.43191,-1.13594 1.66265,-1.45986 5.54953,-1.45986 h 3.44787 v -3.1502 -3.15019 l -3.78272,-0.0909 c -4.34946,-0.10458 -5.06646,-0.36415 -5.36247,-1.942 -0.20693,-1.10312 0.3557,-2.14045 1.37099,-2.52647 0.36565,-0.13902 2.2643,-0.25269 4.21936,-0.25269 h 3.55484 v -3.25148 c 0,-4.89089 -0.93813,-7.75605 -3.46956,-10.59626 -2.7722,-3.11033 -6.47102,-4.54352 -10.13272,-4.55062 z m -6.15569,34.49608 c 0.64569,-0.0113 1.30651,0.21379 1.74408,0.67955 0.58864,0.62661 0.59846,0.74904 0.5984,7.14375 v 6.50606 h 5.15628 5.15628 l 0.77306,0.7736 0.77362,0.77308 v 16.18506 16.18505 l 1.94715,1.8185 c 3.08819,2.88402 4.65423,6.4646 4.66328,10.66085 0.0188,8.65208 -8.10083,15.63945 -16.79689,14.45441 -6.51021,-0.88716 -11.54142,-5.96476 -12.58684,-12.70258 -0.70472,-4.54201 1.43256,-10.04727 4.97904,-12.82609 l 1.3508,-1.05834 0.0196,-23.5784 c 0.0196,-23.43816 0.0227,-23.58252 0.5679,-24.27552 0.37761,-0.48006 1.00849,-0.72765 1.65418,-0.73898 z" /></g></g></svg>
