<?xml version="1.0" encoding="UTF-8" standalone="no"?>
<!-- Created with Inkscape (http://www.inkscape.org/) -->

<svg
   width="270.93329mm"
   height="270.93332mm"
   viewBox="0 0 270.93329 270.93332"
   version="1.1"
   id="svg1"
   xml:space="preserve"
   xmlns="http://www.w3.org/2000/svg"
   xmlns:svg="http://www.w3.org/2000/svg"><defs
     id="defs1" /><g
     id="layer1"
     transform="translate(650.69304,305.95957)"><g
       id="g251"><path
         style="fill:none"
         d="m -379.7598,-170.4929 v -135.46666 h 135.46666 135.46666 V -170.4929 -35.02624 H -244.29314 -379.7598 Z"
         id="path62" /><path
         id="path61"
         style="fill:#01acf6"
         d="m -248.01174,-206.18638 c -0.57535,-0.0218 -1.55036,0.14049 -3.1967,0.35967 -18.16015,2.41761 -33.67539,14.52908 -40.42027,31.55259 -1.81479,4.58039 -3.46439,11.79737 -3.46439,15.1567 v 1.05988 l 2.84427,0.006 c 2.29464,0.005 2.95329,0.0942 3.40858,0.46302 1.45026,1.17475 1.5549,2.88874 0.2558,4.18785 l -0.89969,0.89917 h -2.80448 -2.80448 l 0.005,0.8599 c 0.01,1.70408 0.8044,6.43675 1.5782,9.39581 5.05417,19.32749 21.68315,34.21963 41.54371,37.20445 3.85231,0.57896 4.6686,0.55091 4.86069,-0.16588 h -5.2e-4 c 0.0877,-0.32742 0.16131,-1.5552 0.1633,-2.72852 0.003,-1.98972 0.0536,-2.18117 0.74569,-2.84427 1.52207,-1.45824 4.49559,-0.59734 4.5837,1.32705 0.0186,0.40713 0.0541,1.0972 0.0791,1.53376 0.0251,0.43656 0.0696,1.3746 0.0987,2.08462 l 0.0527,1.29088 2.18281,-0.18552 c 8.54233,-0.7272 17.12947,-3.97885 24.87393,-9.41906 2.90077,-2.03769 8.78601,-7.77557 10.90218,-10.62881 2.38207,-3.21174 4.76115,-7.40994 6.2513,-11.03188 2.00337,-4.86938 3.67936,-11.93953 3.67936,-15.52102 v -1.17151 h -2.52646 c -2.98387,0 -3.93909,-0.37286 -4.52065,-1.76475 -0.48656,-1.16451 -0.27826,-2.21513 0.61753,-3.11092 0.65097,-0.65097 0.81194,-0.68058 3.67109,-0.68058 h 2.99 l -0.11162,-0.85989 c -0.84984,-6.57352 -1.62702,-10.13118 -3.10834,-14.22291 -6.37628,-17.61266 -22.60571,-30.45086 -41.45483,-32.79283 -3.60712,-0.44819 -3.44262,-0.5007 -3.46852,1.11053 -0.0487,3.02788 -0.36834,4.47225 -1.13533,5.13199 -1.3318,1.14556 -3.58973,0.56312 -4.28708,-1.10588 -0.22529,-0.53918 -0.37621,-1.80496 -0.37621,-3.15743 0,-1.64821 0.15071,-2.19613 -0.80822,-2.23242 z m 2.74144,15.31586 c 0.7337,-0.004 1.21922,0.38666 3.68918,2.96984 2.24241,2.3452 2.84427,3.13314 2.84427,3.72226 0,0.58045 -0.61022,1.40842 -2.73317,3.71037 -2.34089,2.5383 -2.86289,2.97465 -3.63905,3.04167 -0.49839,0.043 -1.0543,-0.0699 -1.23558,-0.25115 -0.693,-0.69301 -0.37749,-1.89838 0.87126,-3.32589 l 1.20148,-1.37304 -2.05207,-0.0775 c -1.92785,-0.0728 -2.07622,-0.12152 -2.45773,-0.80512 -0.36502,-0.65407 -0.36502,-0.80113 0,-1.45521 0.3812,-0.68305 0.53106,-0.73257 2.44739,-0.80512 1.12273,-0.0425 2.04122,-0.14476 2.04122,-0.22737 0,-0.0826 -0.59532,-0.8012 -1.32292,-1.59732 -0.72761,-0.79611 -1.32291,-1.64959 -1.32291,-1.89653 0,-0.86259 0.78044,-1.62501 1.66863,-1.62987 z m -9.43973,6.97684 c 0.35039,-0.0466 0.5636,0.0324 0.87281,0.20515 0.77619,0.43358 1.09423,2.05892 0.49558,2.53318 -0.59714,0.47305 -4.83956,2.19573 -5.40742,2.19573 -0.29888,0 -0.74923,-0.22774 -1.00098,-0.50591 -0.26908,-0.29733 -0.4221,-0.81151 -0.37155,-1.24799 0.10621,-0.9172 1.13825,-1.64911 3.71554,-2.63395 0.85783,-0.32779 1.34563,-0.49966 1.69602,-0.54621 z m 29.90618,5.76967 c 1.50977,-0.1487 3.00033,1.03972 3.00033,2.58279 0,1.32635 0.18244,1.11133 -8.82065,10.39988 l -7.11067,7.33599 0.293,0.83922 c 0.45449,1.30377 0.34879,3.91857 -0.20774,5.14387 -1.40782,3.09957 -4.58888,4.73108 -7.92768,4.06642 -3.54982,-0.70667 -5.94109,-4.03332 -5.51077,-7.66671 0.20186,-1.70433 0.94843,-3.09361 2.36316,-4.39767 1.43746,-1.32499 2.68039,-1.75802 5.13147,-1.78697 l 1.89032,-0.0222 7.82692,-8.06152 c 4.30483,-4.43391 8.09758,-8.16208 8.42842,-8.28477 0.21218,-0.0787 0.42821,-0.12707 0.64389,-0.14831 z m -40.15259,0.26562 c 0.22244,-0.0231 0.44711,0.006 0.70229,0.0698 0.61276,0.1538 1.1106,1.15892 0.95601,1.93063 -0.0356,0.17796 -0.94966,1.21974 -2.03088,2.3151 -2.08212,2.10932 -2.83632,2.42006 -3.6618,1.50792 -0.86295,-0.95355 -0.55795,-1.82426 1.31982,-3.76928 1.39916,-1.44928 2.04727,-1.98496 2.71456,-2.05413 z m -6.87916,9.29193 c 0.41176,0.0605 0.82688,0.31616 1.15186,0.75345 l 0.51677,0.69556 -0.97875,2.47944 c -0.53832,1.36377 -1.10103,2.62826 -1.25057,2.81016 -0.34635,0.4213 -1.85433,0.43032 -2.27118,0.0134 -0.17463,-0.17463 -0.3173,-0.6981 -0.3173,-1.16324 0,-0.9893 1.33875,-4.42079 2.01745,-5.17074 0.31116,-0.34384 0.71995,-0.47856 1.13172,-0.41807 z m -3.03444,11.30267 c 0.48325,0 1.01669,0.16573 1.18494,0.36846 0.45647,0.55002 0.55468,5.86051 0.11989,6.48126 -0.45636,0.65155 -1.23434,0.83231 -1.98128,0.45992 -0.78097,-0.38935 -0.96709,-1.11206 -0.99942,-3.87729 -0.0316,-2.70702 0.32236,-3.43235 1.67587,-3.43235 z m 30.55059,0.66301 c -0.44863,0.0581 -0.90465,0.26799 -1.30328,0.66663 -1.51321,1.51321 0.69915,3.94928 2.64221,2.90938 0.26617,-0.14245 0.59917,-0.58973 0.74001,-0.99374 0.54535,-1.56439 -0.73306,-2.75658 -2.07894,-2.58227 z m 29.16307,9.83196 c 0.89159,0 1.55495,0.6271 1.55495,1.4702 0,0.70834 -1.55714,4.6355 -2.02262,5.10098 -0.54441,0.54442 -1.77253,0.49789 -2.30218,-0.0873 -0.56647,-0.62595 -0.55223,-1.16421 0.062,-2.37091 0.27483,-0.53991 0.64234,-1.45872 0.81649,-2.04174 0.46693,-1.56321 0.93031,-2.07119 1.89135,-2.07119 z m -57.57788,1.18908 c 0.20481,0.0339 0.39474,0.11173 0.54777,0.23874 0.4963,0.4119 2.49339,4.6665 2.49339,5.31182 0,0.65557 -0.92403,1.55081 -1.60042,1.55081 -0.29799,0 -0.81623,-0.2962 -1.15187,-0.65836 -0.33564,-0.36217 -0.99847,-1.64164 -1.47329,-2.84323 -0.78261,-1.98046 -0.82899,-2.24678 -0.49351,-2.84738 0.31227,-0.55906 1.06352,-0.85409 1.67793,-0.7524 z m 51.91001,8.95345 c 0.69791,0 1.34636,0.61291 1.56321,1.47692 0.18852,0.75112 -1.02456,2.39191 -2.91041,3.93722 -1.32689,1.08729 -2.32337,1.20585 -2.92437,0.34779 -0.22654,-0.32342 -0.41186,-0.83223 -0.41186,-1.13068 0,-0.74417 3.9309,-4.63125 4.68343,-4.63125 z m -46.20596,1.09606 c 0.42478,0.0269 0.90415,0.24162 1.39991,0.65319 2.58683,2.14753 3.34553,3.04265 3.34553,3.94808 0,0.61769 -0.15983,0.98428 -0.51159,1.17254 -1.11743,0.59802 -1.77298,0.31368 -3.86333,-1.67742 -1.86867,-1.77994 -2.03253,-2.01847 -1.865,-2.71198 0.23016,-0.9528 0.78651,-1.42924 1.49448,-1.38441 z m 37.0427,6.31228 c 0.85309,0 1.60219,0.81566 1.51825,1.65313 -0.10054,1.00318 -0.80744,1.54789 -3.34966,2.58227 -2.26664,0.92227 -2.71166,0.96388 -3.30523,0.30799 -0.5156,-0.56973 -0.5797,-1.98525 -0.10697,-2.35903 0.50041,-0.39567 4.79429,-2.18436 5.24361,-2.18436 z m -27.27792,0.63252 c 0.38718,0.0545 0.96918,0.26514 2.07274,0.67851 3.06403,1.14774 3.49126,1.43885 3.49126,2.38022 0,1.6715 -1.21769,1.97173 -3.86488,0.95239 -2.95479,-1.13779 -3.27887,-1.37441 -3.27887,-2.3952 0,-0.6873 0.16714,-1.02261 0.67593,-1.35599 0.32426,-0.21247 0.51663,-0.31441 0.90382,-0.25993 z m 13.7914,2.81119 c 3.07606,-0.004 3.67885,0.26255 3.67885,1.62936 0,1.27348 -0.67678,1.54151 -3.89124,1.54151 -2.02579,0 -3.00179,-0.10155 -3.17913,-0.33073 -0.68321,-0.88297 -0.54877,-2.07688 0.29714,-2.6417 0.16011,-0.10692 1.55259,-0.19621 3.09438,-0.19844 z" /><path
         style="fill:#6a6a6b"
         d="m -199.08449,-210.57733 -0.92966,1.05834 -0.92966,1.05833 1.51309,1.34514 1.51308,1.34513 0.87747,-0.94826 0.87747,-0.94826 -1.4609,-1.45521 z"
         id="path243" /><path
         id="path242"
         style="fill:#6a6a6b"
         d="m -244.2931,-211.75813 c 10.56874,0 19.35365,2.30311 28.18019,7.38766 13.9225,8.02009 23.43242,20.95427 26.97097,36.68251 0.96596,4.2935 1.24029,7.10956 1.22783,12.60027 -0.0129,5.66519 -0.41933,8.95521 -1.74201,14.09578 -2.85379,11.09117 -9.23485,21.28384 -17.83096,28.48198 -7.57854,6.34605 -16.07443,10.49213 -25.70024,12.541872 -2.97525,0.63356 -3.9654,0.712037 -10.04745,0.797367 -4.96579,0.0697 -7.37549,-0.0048 -9.12812,-0.283704 -12.17039,-1.934685 -22.58144,-7.140025 -31.41772,-15.708085 -8.47903,-8.22166 -13.51694,-17.60151 -15.97267,-29.73875 -0.58931,-2.91263 -0.729,-4.42227 -0.83251,-9.00772 -0.17335,-7.67927 0.53826,-12.70602 2.75126,-19.43809 1.16118,-3.53239 4.076,-9.6322 6.04976,-12.66021 7.88008,-12.08911 20.03949,-20.78592 33.76693,-24.1515 4.9944,-1.22449 8.21091,-1.59938 13.72474,-1.59938 z m -1.09192,-6.50762 c -0.96997,0.0215 -1.94375,0.0654 -2.92075,0.13229 -20.15109,1.37932 -38.14755,11.9882 -48.94895,28.85509 -4.63133,7.23204 -7.35602,14.32559 -9.09506,23.68021 -0.58193,3.13029 -0.81774,12.99637 -0.41031,17.16898 0.52595,5.3863 2.41618,12.64594 4.66432,17.9157 6.01839,14.1074 17.72583,25.99421 31.91691,32.405257 5.89001,2.66091 13.52308,4.752588 19.53576,5.353678 3.10217,0.31012 9.12632,0.323342 12.30313,0.02687 18.22895,-1.70144 35.33214,-11.741975 45.85663,-26.920835 9.69752,-13.98617 13.28726,-31.70152 9.81129,-48.41617 -6.22315,-29.92479 -32.64386,-50.86701 -62.71297,-50.20107 z" /><path
         style="fill:#6a6a6b"
         d="m -197.46288,-220.35916 c -0.17997,-0.0238 -0.31134,0.0486 -0.48524,0.14624 -0.38348,0.21525 -0.81249,0.71847 -0.95292,1.11777 -0.2381,0.67703 -0.11298,0.86984 1.84899,2.86029 2.96893,3.01203 8.25543,7.90649 8.54004,7.90649 0.13141,0 0.55296,-0.24668 0.93638,-0.54829 1.31351,-1.0332 1.06611,-1.40466 -4.48913,-6.74325 -3.88052,-3.7292 -4.85823,-4.66785 -5.39812,-4.73925 z"
         id="path240" /><path
         style="fill:#6a6a6b"
         d="m -249.32018,-232.93462 v 4.56406 4.56407 l 5.02708,0.0155 5.02708,0.016 v -4.58008 -4.57957 h -5.02708 z"
         id="path239" /><path
         style="fill:#6a6a6b"
         d="m -260.40271,-248.80962 -0.41186,0.58808 c -0.3285,0.46901 -0.41186,1.39432 -0.41186,4.5713 0,3.17698 0.0834,4.10228 0.41186,4.57129 l 0.41186,0.58808 h 16.03778 c 14.55186,0 16.08244,-0.0404 16.52147,-0.4377 0.43039,-0.38949 0.48369,-0.90634 0.48369,-4.67568 0,-3.57187 -0.0686,-4.31385 -0.4377,-4.72168 -0.41506,-0.45864 -1.27599,-0.48369 -16.52147,-0.48369 z"
         id="path60" /><path
         style="fill:#010101"
         d="m -248.26189,-87.06866 c -3.20559,-0.2467 -9.28961,-1.23683 -12.58973,-2.04888 -9.20885,-2.266 -19.20708,-7.25706 -26.66073,-13.30889 -2.83622,-2.30282 -8.03957,-7.56254 -10.27597,-10.38731 -9.85009,-12.44153 -14.74659,-26.52953 -14.76234,-42.47352 -0.0114,-11.52587 2.20429,-20.97778 7.29872,-31.13578 9.22057,-18.38529 26.92308,-31.8223 47.39891,-35.97793 l 2.97656,-0.60411 v -4.96474 -4.96475 h -2.86239 c -3.46556,0 -5.23801,-0.46423 -6.65288,-1.74248 -1.90908,-1.72473 -2.09613,-2.48603 -2.18247,-8.88268 l -0.0762,-5.64671 0.78486,-1.41699 c 0.43167,-0.77935 1.20557,-1.7657 1.71979,-2.1919 1.89475,-1.57044 1.97991,-1.57664 20.54782,-1.49369 15.89121,0.071 16.95487,0.10489 17.82566,0.56814 1.29266,0.68768 2.58988,1.96391 3.26433,3.21152 0.53704,0.99343 0.57212,1.41532 0.57212,6.87917 0,6.48863 -0.0457,6.69324 -1.93659,8.6668 -1.47194,1.53632 -3.17409,2.04882 -6.80458,2.04882 h -3.03278 v 4.97785 4.97785 l 3.50573,0.69641 c 8.01025,1.59123 16.40443,5.00275 22.73964,9.24173 0.82876,0.55453 1.61727,1.00825 1.75224,1.00825 0.23242,0 2.42947,-2.24398 2.42947,-2.48136 0,-0.0616 -0.2965,-0.74883 -0.65888,-1.52727 -1.33283,-2.86308 -0.72168,-5.812 1.63431,-7.88582 2.34527,-2.06439 5.49592,-2.63667 7.83533,-1.42321 1.39714,0.72471 12.32371,11.59333 12.81968,12.75168 0.22674,0.52957 0.41606,1.67963 0.42072,2.55569 0.0141,2.65054 -1.6811,5.10164 -4.58866,6.63476 -1.19738,0.63137 -4.02099,0.64651 -5.20036,0.0279 l -0.83472,-0.43784 -0.95182,1.05355 -0.95182,1.05355 1.6168,1.91679 c 8.00245,9.48728 13.46929,21.38509 15.48314,33.69691 0.27748,1.69636 0.47303,4.99613 0.55639,9.38837 0.11323,5.9665 0.0612,7.2371 -0.43717,10.67462 -1.18158,8.15008 -3.03309,14.13216 -6.53562,21.11599 -3.19114,6.36296 -6.97279,11.72811 -11.82207,16.77239 -7.75508,8.06693 -17.38235,14.17958 -27.82156,17.66478 -7.86617,2.62617 -18.06115,3.98815 -25.54286,3.41235 z m 9.92188,-5.65899 c 18.22895,-1.70144 35.33207,-11.74217 45.85656,-26.92103 9.69752,-13.98617 13.28755,-31.70148 9.81158,-48.41613 -6.42389,-30.89011 -34.36986,-52.20848 -65.63411,-50.06847 -20.15109,1.37932 -38.14757,11.98807 -48.94897,28.85496 -4.63133,7.23204 -7.35573,14.32559 -9.09477,23.68021 -0.58193,3.13029 -0.81767,12.99647 -0.41024,17.16908 0.52595,5.3863 2.41581,12.64581 4.66395,17.91557 6.01839,14.1074 17.72627,25.99428 31.91735,32.40533 5.89001,2.66091 13.52284,4.75273 19.53552,5.35382 3.10217,0.31012 9.12632,0.32317 12.30313,0.0267 z m -14.02292,-6.72688 c -12.17039,-1.93469 -22.58159,-7.13999 -31.41787,-15.70805 -8.47903,-8.22166 -13.51683,-17.60129 -15.97256,-29.73853 -0.58931,-2.91263 -0.72881,-4.42236 -0.83232,-9.00781 -0.17335,-7.67927 0.53812,-12.70625 2.75112,-19.43832 1.16118,-3.53239 4.07582,-9.63178 6.04958,-12.65979 7.88008,-12.08911 20.03983,-20.78632 33.76727,-24.1519 4.9944,-1.22449 8.21074,-1.59928 13.72457,-1.59928 10.56874,0 19.35359,2.30298 28.18013,7.38753 13.9225,8.02009 23.43252,20.95441 26.97107,36.68265 0.96596,4.2935 1.24038,7.10944 1.22792,12.60015 -0.0129,5.66519 -0.41952,8.95545 -1.7422,14.09602 -2.85379,11.09117 -9.23473,21.28368 -17.83084,28.48182 -7.57854,6.34605 -16.07459,10.49217 -25.7004,12.54191 -2.97525,0.63356 -3.96529,0.71214 -10.04734,0.79747 -4.96579,0.0697 -7.3755,-0.005 -9.12813,-0.28387 z m 5.2572,-5.75244 c 0.0877,-0.32742 0.16116,-1.5553 0.16315,-2.72862 0.003,-1.98972 0.0536,-2.18117 0.74569,-2.84427 1.52207,-1.45824 4.49537,-0.59747 4.58348,1.32692 0.0186,0.40713 0.0544,1.09743 0.0794,1.53399 0.0251,0.43656 0.0693,1.37467 0.0984,2.08469 l 0.0529,1.29093 2.18281,-0.18582 c 8.54233,-0.7272 17.12949,-3.97895 24.87395,-9.41916 2.90077,-2.03769 8.78614,-7.77524 10.90231,-10.62848 2.38207,-3.21174 4.76093,-7.40997 6.25108,-11.03191 2.00337,-4.86938 3.67943,-11.93957 3.67943,-15.52106 v -1.17148 h -2.52668 c -2.98387,0 -3.93906,-0.37288 -4.52062,-1.76477 -0.48656,-1.16451 -0.27792,-2.21493 0.61787,-3.11072 0.65097,-0.65097 0.8116,-0.68076 3.67075,-0.68076 h 2.99 l -0.11117,-0.85989 c -0.84984,-6.57352 -1.62748,-10.13132 -3.1088,-14.22305 -6.37628,-17.61266 -22.60529,-30.45068 -41.45441,-32.79265 -3.60712,-0.44819 -3.44295,-0.50074 -3.46885,1.11049 -0.0487,3.02788 -0.3681,4.47204 -1.13509,5.13178 -1.3318,1.14556 -3.59003,0.56304 -4.28738,-1.10596 -0.22529,-0.53918 -0.37603,-1.80496 -0.37603,-3.15743 0,-2.63714 0.38542,-2.45694 -4.00483,-1.87247 -18.16015,2.41761 -33.67553,14.52908 -40.42041,31.55259 -1.81479,4.58039 -3.46434,11.79719 -3.46434,15.15652 v 1.06007 l 2.84427,0.006 c 2.29464,0.005 2.95332,0.0942 3.40861,0.46302 1.45026,1.17475 1.55497,2.88865 0.25587,4.18776 l -0.89959,0.89958 h -2.80458 -2.80458 l 0.005,0.8599 c 0.01,1.70408 0.80465,6.43652 1.57845,9.39558 5.05417,19.32749 21.68323,34.2196 41.54379,37.20442 3.85231,0.57896 4.66823,0.55116 4.86032,-0.16563 z m 0.24023,-17.72708 c -0.68321,-0.88297 -0.54904,-2.07696 0.29687,-2.64178 0.16011,-0.10692 1.55259,-0.19621 3.09438,-0.19844 3.07606,-0.004 3.67903,0.26261 3.67903,1.62942 0,1.27348 -0.67658,1.54153 -3.89104,1.54153 -2.02579,0 -3.0019,-0.10155 -3.17924,-0.33073 z m -8.70093,-1.64032 c -2.95479,-1.13779 -3.27879,-1.37448 -3.27879,-2.39527 0,-0.6873 0.1672,-1.0227 0.67599,-1.35608 0.64853,-0.42493 0.76946,-0.40791 2.97657,0.41883 3.06403,1.14774 3.49119,1.43898 3.49119,2.38035 0,1.6715 -1.21777,1.97151 -3.86496,0.95217 z m 20.44243,-0.10031 c -0.5156,-0.56973 -0.57989,-1.9849 -0.10716,-2.35868 0.50041,-0.39567 4.79436,-2.18455 5.24368,-2.18455 0.85309,0 1.602,0.81544 1.51806,1.65291 -0.10054,1.00318 -0.80735,1.54814 -3.34957,2.58252 -2.26664,0.92227 -2.71144,0.96369 -3.30501,0.3078 z m -31.53575,-6.7594 c -1.86867,-1.77994 -2.03272,-2.01847 -1.86519,-2.71198 0.36827,-1.52449 1.57262,-1.82871 2.89465,-0.73119 2.58683,2.14753 3.34549,3.04289 3.34549,3.94832 0,0.61769 -0.16001,0.98429 -0.51177,1.17255 -1.11743,0.59802 -1.77283,0.3134 -3.86318,-1.6777 z m 41.56391,0.5698 c -0.22654,-0.32342 -0.41188,-0.83223 -0.41188,-1.13068 0,-0.74417 3.93078,-4.63128 4.68331,-4.63128 0.69791,0 1.34658,0.61268 1.56343,1.47669 0.18852,0.75112 -1.02444,2.39222 -2.91029,3.93753 -1.32689,1.08729 -2.32357,1.2058 -2.92457,0.34774 z m -47.34949,-8.27252 c -0.33564,-0.36217 -0.99875,-1.6416 -1.47357,-2.84319 -0.78261,-1.98046 -0.82872,-2.24665 -0.49324,-2.84725 0.41636,-0.74542 1.61333,-1.02168 2.22548,-0.51364 0.4963,0.4119 2.49352,4.66636 2.49352,5.31168 0,0.65557 -0.92374,1.55088 -1.60013,1.55088 -0.29799,0 -0.81642,-0.29632 -1.15206,-0.65848 z m 54.51924,-1.14829 c -0.56647,-0.62595 -0.55244,-1.16426 0.0618,-2.37096 0.27483,-0.53991 0.64217,-1.45866 0.81632,-2.04168 0.46693,-1.56321 0.93067,-2.07087 1.89171,-2.07087 0.89159,0 1.55478,0.62712 1.55478,1.47022 0,0.70834 -1.55724,4.63533 -2.02272,5.10081 -0.54441,0.54442 -1.77225,0.49773 -2.3019,-0.0875 z m -27.65113,-7.47067 c -3.54982,-0.70667 -5.94112,-4.03361 -5.5108,-7.667 0.20186,-1.70433 0.94834,-3.0935 2.36307,-4.39756 1.43746,-1.32499 2.68038,-1.75777 5.13146,-1.78672 l 1.89027,-0.0223 7.82697,-8.06166 c 4.30483,-4.43391 8.09764,-8.16205 8.42848,-8.28474 1.69742,-0.62954 3.64422,0.67103 3.64422,2.43454 0,1.32635 0.18239,1.11129 -8.8207,10.39984 l -7.11045,7.3359 0.29266,0.83952 c 0.45449,1.30377 0.34901,3.91818 -0.20752,5.14348 -1.40782,3.09957 -4.58886,4.73138 -7.92766,4.06672 z m 2.59656,-5.26906 c 0.26617,-0.14245 0.59918,-0.58955 0.74002,-0.99356 0.72713,-2.08586 -1.7876,-3.51025 -3.38214,-1.91571 -1.51321,1.51321 0.69906,3.94917 2.64212,2.90927 z m -32.56569,3.07054 c -0.78097,-0.38935 -0.96725,-1.11192 -0.99958,-3.87715 -0.0316,-2.70702 0.32252,-3.43231 1.67603,-3.43231 0.48325,0 1.0163,0.16587 1.18455,0.3686 0.45647,0.55002 0.55482,5.86053 0.12003,6.48128 -0.45636,0.65155 -1.23409,0.83197 -1.98103,0.45958 z m 0.87905,-11.86029 c -0.17463,-0.17463 -0.3175,-0.69807 -0.3175,-1.16321 0,-0.9893 1.33904,-4.42079 2.01774,-5.17074 0.62232,-0.68767 1.63324,-0.53916 2.2832,0.33541 l 0.51681,0.69541 -0.97875,2.47959 c -0.53832,1.36377 -1.10111,2.62841 -1.25065,2.81031 -0.34635,0.4213 -1.854,0.43008 -2.27085,0.0132 z m 5.67663,-10.22052 c -0.86295,-0.95355 -0.55809,-1.82434 1.31968,-3.76936 1.86555,-1.93238 2.39617,-2.24054 3.41688,-1.98436 0.61276,0.1538 1.11048,1.1592 0.95589,1.93091 -0.0356,0.17796 -0.94946,1.21975 -2.03068,2.31511 -2.08212,2.10932 -2.83629,2.41984 -3.66177,1.5077 z m 22.64588,-5.64238 c -0.693,-0.69301 -0.37711,-1.89833 0.87164,-3.32584 l 1.20124,-1.3732 -2.05195,-0.0775 c -1.92785,-0.0728 -2.0765,-0.12147 -2.45801,-0.80507 -0.36502,-0.65407 -0.36502,-0.80113 0,-1.45521 0.3812,-0.68305 0.53107,-0.73233 2.4474,-0.80488 1.12273,-0.0425 2.04133,-0.14487 2.04133,-0.22748 0,-0.0826 -0.59531,-0.80158 -1.32291,-1.5977 -0.72761,-0.79611 -1.32292,-1.64951 -1.32292,-1.89645 0,-0.86259 0.78046,-1.62481 1.66865,-1.62967 0.7337,-0.004 1.2192,0.38686 3.68916,2.97004 2.24241,2.3452 2.84427,3.13278 2.84427,3.7219 0,0.58045 -0.61004,1.40874 -2.73299,3.71069 -2.34089,2.5383 -2.86299,2.97467 -3.63915,3.04169 -0.49839,0.043 -1.05448,-0.0701 -1.23576,-0.25135 z m -13.4053,-1.78787 c -0.26908,-0.29733 -0.42228,-0.81174 -0.37173,-1.24822 0.10621,-0.9172 1.1387,-1.64901 3.71599,-2.63385 1.71566,-0.65559 1.95018,-0.68675 2.5686,-0.34131 0.77619,0.43358 1.09414,2.05925 0.49549,2.53351 -0.59714,0.47305 -4.83935,2.19564 -5.40721,2.19564 -0.29888,0 -0.74939,-0.2276 -1.00114,-0.50577 z m 62.12645,-29.65673 -1.46073,-1.45521 -0.92977,1.05834 -0.92976,1.05833 1.51317,1.34508 1.51316,1.34508 0.87733,-0.9482 0.87733,-0.94821 z m 10.04794,0.24538 c 1.31351,-1.0332 1.06615,-1.40478 -4.48909,-6.74337 -5.17403,-4.97226 -5.18787,-4.98306 -5.88349,-4.59262 -0.38348,0.21525 -0.81214,0.71806 -0.95257,1.11736 -0.2381,0.67703 -0.11338,0.87001 1.84859,2.86046 2.96893,3.01203 8.25588,7.90654 8.54049,7.90654 0.13141,0 0.55265,-0.24676 0.93607,-0.54837 z m -51.69035,-19.47812 v -4.57976 h -5.02709 -5.02708 l 7e-5,4.56407 7e-5,4.56406 5.02701,0.0157 5.02702,0.0157 z m 11.42239,-10.57389 c 0.43039,-0.38949 0.48386,-0.90618 0.48386,-4.67552 0,-3.57187 -0.0688,-4.31366 -0.43789,-4.72149 -0.41506,-0.45864 -1.27597,-0.48386 -16.52145,-0.48386 h -16.08357 l -0.41188,0.58804 c -0.3285,0.46901 -0.41188,1.39436 -0.41188,4.57134 0,3.17698 0.0834,4.10233 0.41188,4.57134 l 0.41188,0.58803 h 16.0376 c 14.55186,0 16.08242,-0.0406 16.52145,-0.43788 z"
         id="path59" /></g><g
       id="g215"><path
         style="fill:none"
         d="m -650.69312,-170.4929 v -135.46666 h 135.46666 135.46666 v 135.46666 135.46666 h -135.46666 -135.46666 z"
         id="path58" /><path
         style="fill:#1fabe9"
         d="m -570.52437,-95.63533 c -2.33222,-0.35073 -4.40959,-1.18793 -7.84435,-3.16138 -3.39784,-1.95223 -4.46191,-2.22532 -5.59053,-1.43481 l -0.58804,0.41188 v -7.17122 -7.17122 l 0.99219,0.77605 c 1.73368,1.35602 6.10566,3.76701 8.25007,4.54962 2.92102,1.06604 6.05105,1.46469 8.56476,1.09082 2.87595,-0.42774 4.00678,-0.86767 9.34151,-3.63413 5.67941,-2.94521 7.15432,-3.3908 10.67296,-3.22446 2.98904,0.1413 4.10548,0.52909 8.61289,2.99162 4.253,2.32354 6.36104,3.20196 8.93643,3.7238 4.37236,0.88595 8.33032,0.0408 13.81773,-2.95059 5.93712,-3.23653 7.63545,-3.82696 11.00793,-3.82696 2.82182,0 4.93955,0.70817 9.49728,3.1759 4.53026,2.45285 6.07869,3.09352 8.68838,3.59487 2.46083,0.47274 4.18978,0.46568 6.52516,-0.0267 2.54652,-0.53686 4.2267,-1.24283 7.98484,-3.35507 4.51997,-2.54041 6.27012,-3.16265 9.34555,-3.32265 3.806,-0.19801 6.30183,0.61247 11.2923,3.66697 2.23981,1.37092 3.29336,1.5639 4.33472,0.79399 l 0.77696,-0.57444 v 7.28397 c 0,7.18345 -0.007,7.27695 -0.50813,6.77583 -0.67698,-0.67699 -5.1798,-3.31509 -7.23951,-4.24148 -2.64132,-1.18798 -5.03608,-1.68774 -7.99506,-1.66849 -3.5929,0.0234 -6.06096,0.71387 -9.89769,2.76908 -7.61606,4.07969 -9.52438,4.70067 -12.91101,4.20137 -2.50973,-0.37002 -3.91466,-0.92784 -7.9564,-3.15907 -5.36782,-2.96329 -8.00294,-3.78853 -12.0974,-3.78853 -4.04644,0 -6.99952,0.97744 -12.7629,4.2244 -3.66597,2.06533 -5.83681,2.75536 -8.66835,2.75536 -2.94247,0 -4.94379,-0.66864 -9.46076,-3.16083 -5.50979,-3.03997 -8.10052,-3.85582 -12.23507,-3.85296 -3.98021,0.003 -6.43007,0.80769 -12.30313,4.04233 -4.84683,2.66944 -7.41762,3.37317 -10.58333,2.8971 z m -1.00313,-17.03782 c -2.07576,-0.4708 -3.94019,-1.31558 -7.34946,-3.33008 -2.95567,-1.74646 -4.189,-1.99715 -5.14116,-1.04498 -0.52917,0.52916 -0.52917,0.52916 -0.52917,-6.793 v -7.32216 l 0.59532,0.54677 c 0.92613,0.85063 4.05981,2.69383 6.68073,3.92954 3.49129,1.64609 5.52699,2.06075 9.31521,1.89749 3.84567,-0.16574 4.94479,-0.52918 10.26949,-3.39568 5.1959,-2.79718 7.03788,-3.41505 10.18092,-3.41505 3.13739,0 5.13997,0.66352 9.97519,3.3051 4.1763,2.2816 5.54012,2.8399 8.36048,3.42246 2.65153,0.54769 4.35581,0.52267 6.9621,-0.10221 2.61038,-0.62585 4.27011,-1.34489 8.33798,-3.61225 3.95637,-2.2052 6.4276,-3.0131 9.21664,-3.0131 2.854,0 4.47248,0.42453 7.41844,1.94587 1.38245,0.71392 3.72299,1.92186 5.2012,2.68433 3.50095,1.8058 5.77842,2.38119 9.35088,2.36247 2.41567,-0.0127 3.10606,-0.12636 5.29167,-0.87143 1.38245,-0.47128 3.64463,-1.49206 5.02708,-2.2684 5.8053,-3.26007 7.4958,-3.85284 10.98778,-3.85284 3.22963,0 5.19687,0.71249 10.57576,3.83029 2.28117,1.32225 3.35916,1.44618 4.39844,0.50564 0.48428,-0.43826 0.49635,-0.27122 0.49635,6.86611 v 7.3153 l -1.19319,-0.91079 c -1.92226,-1.46729 -6.17797,-3.75825 -8.4641,-4.55644 -1.94567,-0.67932 -2.42659,-0.73854 -5.95312,-0.73305 -3.45996,0.005 -4.04418,0.0761 -5.95313,0.72041 -1.16416,0.39293 -3.84307,1.66763 -5.95312,2.83267 -4.9391,2.72707 -6.59623,3.29897 -9.525,3.28724 -2.92092,-0.0117 -3.99507,-0.38631 -10.19959,-3.55723 -6.10343,-3.11925 -7.67551,-3.55648 -12.11738,-3.37013 -3.81949,0.16024 -5.8747,0.84968 -11.29902,3.79034 -8.01581,4.34558 -10.97385,4.32096 -19.06002,-0.15861 -4.84391,-2.68343 -7.2615,-3.48259 -10.9966,-3.63507 -4.42973,-0.18083 -6.02924,0.26142 -11.98346,3.31329 -2.70025,1.38404 -5.55686,2.74123 -6.34801,3.01598 -1.97064,0.68436 -4.55278,0.83011 -6.57613,0.3712 z m 18.33334,-40.62157 c -3.10981,-1.04273 -5.50046,-3.46917 -6.48108,-6.57808 -0.6712,-2.12797 -0.6712,-3.7694 0,-5.89738 0.69355,-2.19879 1.98391,-3.90634 3.97238,-5.25668 0.88573,-0.60149 1.72323,-1.39034 1.86112,-1.75301 0.1475,-0.38795 0.2507,-7.02405 0.2507,-16.1203 v -15.4609 h 3.43959 3.43958 l 0.009,15.54427 c 0.007,11.68783 0.0891,15.6864 0.33073,16.11716 0.17675,0.3151 1.05201,1.06008 1.94503,1.65553 2.479,1.65294 3.77981,3.67298 4.34941,6.75422 0.52473,2.83853 -0.61552,6.25552 -2.82466,8.46466 -2.67184,2.67184 -6.82518,3.69301 -10.29217,2.53051 z m 62.00383,-0.0386 c -7.94333,-0.91066 -15.39229,-4.74115 -20.41851,-10.49986 -6.56809,-7.52526 -8.9241,-16.52435 -6.91892,-26.42762 2.69952,-13.33245 13.36644,-34.26334 27.84987,-54.64767 1.52507,-2.14643 2.86007,-3.90261 2.96665,-3.90261 0.25507,0 6.55205,8.82396 9.06301,12.7 12.47364,19.25492 20.55262,36.75845 22.28721,48.28646 0.49604,3.29667 0.49978,4.88184 0.019,8.07089 -2.11383,14.02205 -13.30489,24.66317 -27.79593,26.42999 -2.68506,0.32738 -4.13038,0.32541 -7.05241,-0.01 z m -8.06476,-14.35091 c 1.2591,-0.52608 2.0203,-1.61266 2.0203,-2.8839 0,-0.96364 -0.16842,-1.22547 -1.8407,-2.86167 -2.28556,-2.23623 -3.53843,-4.09953 -4.45202,-6.62114 -0.63778,-1.76036 -0.71073,-2.33619 -0.74006,-5.84204 -0.0366,-4.38021 -0.23623,-4.98662 -1.86528,-5.66728 -2.02874,-0.84766 -4.11598,0.53292 -4.48048,2.96356 -0.27308,1.82106 0.0413,7.14929 0.52956,8.97416 1.25126,4.67685 5.14185,10.28095 8.27031,11.91273 0.92609,0.48305 1.45094,0.4883 2.55837,0.0256 z"
         id="path57" /><path
         style="fill:#020303"
         d="m -570.95086,-90.86684 c -3.30077,-0.43068 -5.37688,-1.25099 -9.98934,-3.94698 -3.309,-1.93412 -3.9842,-2.64613 -3.77132,-3.97692 0.0815,-0.50937 0.40308,-1.13449 0.71467,-1.38915 1.06787,-0.87277 2.18399,-0.59543 5.66216,1.40697 4.03974,2.32569 6.6349,3.20041 9.53011,3.21218 2.73096,0.0111 4.5648,-0.60362 8.86354,-2.9712 5.87306,-3.23464 8.32292,-4.03957 12.30313,-4.04233 4.13455,-0.003 6.72528,0.81299 12.23507,3.85296 4.51697,2.49219 6.51829,3.16083 9.46076,3.16083 2.83154,0 5.00238,-0.69003 8.66835,-2.75536 5.76338,-3.24696 8.71646,-4.2244 12.7629,-4.2244 4.09446,0 6.72958,0.82524 12.0974,3.78853 4.04174,2.23123 5.44667,2.78905 7.9564,3.15907 3.38663,0.4993 5.29495,-0.12168 12.91101,-4.20137 3.83673,-2.05521 6.30479,-2.7457 9.89769,-2.76908 4.28546,-0.0279 7.14269,0.90889 12.49296,4.09597 2.99045,1.78136 3.67482,2.57658 3.3785,3.92572 -0.20659,0.94062 -1.28189,1.83599 -2.20493,1.83599 -0.37505,0 -2.1332,-0.83654 -3.907,-1.85898 -5.27772,-3.04212 -8.50688,-3.84683 -12.27308,-3.05846 -1.95005,0.4082 -3.61645,1.15756 -9.67732,4.35177 -3.58056,1.88702 -6.00226,2.54664 -9.24038,2.51685 -3.54122,-0.0326 -5.23012,-0.57111 -10.99166,-3.50492 -5.97434,-3.04216 -7.49913,-3.56339 -10.43959,-3.56865 -2.7323,-0.005 -5.01581,0.70095 -8.46667,2.61703 -6.54141,3.63211 -8.86991,4.44071 -12.83229,4.45616 -3.41934,0.0133 -5.76834,-0.6213 -9.50435,-2.56783 -6.4164,-3.34304 -7.65883,-3.90229 -9.56711,-4.30632 -3.8447,-0.81402 -6.45418,-0.15467 -12.67854,3.20356 -4.45508,2.40365 -6.42003,3.16659 -9.18538,3.56645 -1.99071,0.28785 -1.93677,0.28795 -4.20569,-0.008 z m -1.02872,-17.02896 c -2.5972,-0.50527 -5.03947,-1.48793 -8.02051,-3.2271 -4.50966,-2.63099 -5.10872,-3.29669 -4.53395,-5.03827 0.64471,-1.95349 2.15364,-1.91105 5.65708,0.15908 3.55599,2.10119 5.28445,2.86325 7.60428,3.35264 3.66912,0.77403 5.43294,0.29932 12.66932,-3.40974 5.95422,-3.05187 7.55373,-3.49412 11.98346,-3.31329 3.7351,0.15248 6.15269,0.95164 10.9966,3.63507 8.08617,4.47957 11.04421,4.50419 19.06002,0.15861 5.42432,-2.94066 7.47953,-3.6301 11.29902,-3.79034 4.44187,-0.18635 6.01395,0.25088 12.11738,3.37013 6.20452,3.17092 7.27867,3.54554 10.19959,3.55723 2.92877,0.0117 4.5859,-0.56017 9.525,-3.28724 2.11005,-1.16504 4.78896,-2.43974 5.95312,-2.83267 1.90895,-0.64432 2.49317,-0.71501 5.95313,-0.72041 3.52228,-0.005 4.0098,0.0544 5.95312,0.73082 2.34502,0.81629 7.32465,3.54626 8.80888,4.82927 0.80785,0.69833 0.95112,0.9847 0.92654,1.85192 -0.0219,0.77157 -0.21097,1.18231 -0.76286,1.65703 -0.99809,0.85852 -2.15247,0.67273 -4.41163,-0.71003 -5.00702,-3.06463 -7.49812,-3.87454 -11.30762,-3.67635 -3.07543,0.16 -4.82558,0.78224 -9.34555,3.32265 -6.22243,3.49727 -9.69534,4.30668 -14.51,3.38174 -2.60969,-0.50135 -4.15812,-1.14202 -8.68838,-3.59487 -4.55773,-2.46773 -6.67546,-3.1759 -9.49728,-3.1759 -3.37248,0 -5.07081,0.59043 -11.00793,3.82696 -5.48741,2.99137 -9.44537,3.83654 -13.81773,2.95059 -2.57539,-0.52184 -4.68343,-1.40026 -8.93643,-3.7238 -4.43401,-2.42243 -5.63684,-2.84657 -8.48188,-2.99087 -3.6199,-0.1836 -4.79615,0.17255 -11.0658,3.35048 -3.07326,1.55776 -6.24258,2.98024 -7.04295,3.16107 -2.26419,0.51157 -5.24059,0.59158 -7.27604,0.19559 z m 42.63861,-16.99129 c -2.63821,-0.56589 -4.1093,-1.17789 -8.18946,-3.40697 -4.83522,-2.64158 -6.8378,-3.3051 -9.97519,-3.3051 -3.14304,0 -4.98502,0.61787 -10.18092,3.41505 -5.3247,2.8665 -6.42382,3.22994 -10.26949,3.39568 -4.04408,0.17429 -5.94102,-0.26283 -10.10896,-2.32947 -3.73034,-1.84965 -5.92301,-3.28941 -6.44964,-4.23501 -0.45133,-0.81037 -0.24604,-1.88494 0.50324,-2.63423 0.94481,-0.9448 2.18576,-0.69061 5.13443,1.05172 3.6705,2.16885 5.36759,2.90016 7.8779,3.39471 3.05933,0.60272 5.3656,0.11716 9.33823,-1.96609 8.68928,-4.55664 10.04612,-4.99197 14.93057,-4.79026 3.9615,0.16359 5.96565,0.81394 11.06781,3.59155 5.02204,2.734 6.67864,3.31033 9.58808,3.3357 3.20451,0.028 4.29401,-0.36462 11.1125,-4.00404 4.23138,-2.25853 5.82189,-2.74228 9.58922,-2.91656 4.59995,-0.21279 7.53648,0.62253 12.90036,3.66962 3.44485,1.95694 5.38372,2.77974 7.40833,3.14391 3.44649,0.61991 6.07804,-0.0985 11.63255,-3.17556 1.92218,-1.06485 4.52629,-2.30501 5.78689,-2.75592 2.16244,-0.77348 2.50891,-0.81987 6.12848,-0.82042 3.30728,-5e-4 4.08834,0.0838 5.66259,0.61121 3.70482,1.2412 9.41876,4.59323 9.92884,5.82467 0.60976,1.47209 -0.22469,2.86472 -1.86643,3.1149 -0.72351,0.11025 -1.2939,-0.0965 -3.00938,-1.09087 -5.37889,-3.1178 -7.34613,-3.83029 -10.57576,-3.83029 -3.49198,0 -5.18248,0.59277 -10.98778,3.85284 -1.38245,0.77634 -3.64463,1.79712 -5.02708,2.2684 -2.18561,0.74507 -2.876,0.85877 -5.29167,0.87143 -3.57246,0.0187 -5.84993,-0.55667 -9.35088,-2.36247 -1.47821,-0.76247 -3.81875,-1.97041 -5.2012,-2.68433 -2.94596,-1.52134 -4.56444,-1.94587 -7.41844,-1.94587 -2.78904,0 -5.26027,0.8079 -9.21664,3.0131 -4.06787,2.26736 -5.7276,2.9864 -8.33798,3.61225 -2.50926,0.60162 -4.61342,0.6272 -7.13312,0.0867 z m -25.57298,-13.47315 c -9.73178,-2.08814 -17.00415,-9.00654 -19.47335,-18.52551 -0.54291,-2.09297 -0.68364,-3.27232 -0.69236,-5.80195 -0.0202,-5.87315 1.59103,-10.68971 5.10696,-15.26625 l 1.565,-2.03709 v -33.63064 c 0,-24.07648 0.0849,-33.98338 0.29877,-34.87229 0.16432,-0.6829 0.74154,-2.19414 1.2827,-3.3583 3.69558,-7.95005 11.91648,-12.06329 20.58853,-10.30126 5.33393,1.08377 10.0108,4.7081 12.52304,9.70468 1.91299,3.80476 1.8112,1.62271 1.81554,38.91829 l 0.004,33.55922 1.67917,2.09871 c 1.95323,2.44123 3.59579,5.60316 4.4583,8.58221 0.53213,1.83793 0.60667,2.65834 0.58784,6.47043 -0.0195,3.94121 -0.0904,4.59168 -0.72939,6.69087 -1.38901,4.563 -3.52365,8.02961 -6.97287,11.32374 -3.64478,3.48091 -8.23598,5.79433 -13.04597,6.5736 -2.35989,0.38233 -6.9187,0.31723 -8.99583,-0.12846 z m 8.50953,-4.46038 c 7.89505,-1.51904 14.2032,-7.42524 16.27383,-15.23687 0.62285,-2.34976 0.63054,-7.21051 0.0151,-9.525 -0.76619,-2.88126 -2.64517,-6.36275 -4.56035,-8.44969 l -1.71725,-1.87125 v -17.31005 -17.31005 l -3.99229,-0.0852 -3.99229,-0.0852 -0.63792,-0.74236 c -0.3556,-0.41382 -0.63792,-1.08059 -0.63792,-1.5066 0,-0.42601 0.28232,-1.09279 0.63792,-1.5066 l 0.63792,-0.74236 3.99229,-0.0852 3.99229,-0.0852 v -3.15593 -3.15594 h -3.85681 -3.85681 l -0.7734,-0.7734 c -0.81925,-0.81925 -0.93766,-1.40594 -0.5105,-2.52947 0.43189,-1.13594 1.66254,-1.45963 5.54944,-1.45963 h 3.44808 v -3.15019 -3.15019 l -3.78269,-0.091 c -4.34946,-0.10458 -5.06673,-0.36435 -5.36274,-1.9422 -0.20694,-1.10312 0.356,-2.14018 1.37128,-2.52619 0.36567,-0.13902 2.26444,-0.25277 4.2195,-0.25277 h 3.55465 v -3.2517 c 0,-4.89089 -0.93804,-7.75569 -3.46948,-10.5959 -7.3925,-8.29421 -21.37584,-4.66499 -23.66662,6.1424 -0.30755,1.45095 -0.37217,7.55843 -0.37597,35.53573 l -0.005,33.78365 -1.3995,1.60469 c -5.69895,6.53452 -6.78245,14.88976 -2.93109,22.60276 4.02268,8.0561 13.0965,12.5884 21.83596,10.9069 z m -5.73141,-5.45109 c -6.51019,-0.88716 -11.54121,-5.96438 -12.58662,-12.7022 -0.70471,-4.54201 1.43237,-10.04747 4.97884,-12.82629 l 1.35071,-1.05833 0.0197,-23.57838 c 0.0196,-23.43816 0.0229,-23.58252 0.56805,-24.27552 0.75523,-0.96012 2.52279,-0.99112 3.39791,-0.0596 0.58866,0.62661 0.59893,0.74904 0.59889,7.14375 l -4e-5,6.50622 h 5.15612 5.15612 l 0.7734,0.7734 0.7734,0.7734 v 16.18496 16.18497 l 1.94699,1.81827 c 3.08818,2.88402 4.65463,6.46494 4.66368,10.66118 0.0187,8.65209 -8.10105,15.63922 -16.79713,14.45418 z m 6.36819,-5.54165 c 5.03785,-2.48013 7.12891,-8.07757 4.89997,-13.11646 -0.78976,-1.78539 -1.77357,-2.92226 -3.55907,-4.11279 -0.89302,-0.59545 -1.76828,-1.34043 -1.94503,-1.65553 -0.24162,-0.43076 -0.32368,-4.42933 -0.33073,-16.11716 l -0.009,-15.54427 h -3.43958 -3.43959 v 15.4609 c 0,9.09625 -0.1032,15.73235 -0.2507,16.1203 -0.13789,0.36267 -0.97539,1.15152 -1.86112,1.75301 -1.98847,1.35034 -3.27883,3.05789 -3.97238,5.25668 -0.6712,2.12798 -0.6712,3.76941 0,5.89738 1.84632,5.8535 8.46588,8.73688 13.9076,6.05794 z m 51.84014,4.86267 c -15.54855,-2.72316 -27.56253,-14.83269 -29.78322,-30.0201 -0.43181,-2.95314 -0.16766,-9.15872 0.52963,-12.44251 3.09451,-14.57312 14.43746,-36.61957 29.71322,-57.75141 3.80655,-5.26581 4.51333,-5.99486 5.81178,-5.99486 1.22444,0 1.38946,0.15646 4.23941,4.0194 16.45855,22.30858 28.55762,45.66133 31.38688,60.58072 1.30908,6.90306 0.86221,12.43109 -1.53918,19.04048 -4.13009,11.36733 -15.31468,20.42314 -27.89161,22.58296 -2.93282,0.50365 -9.5519,0.49586 -12.46691,-0.0147 z m 9.78958,-4.37154 c 5.52232,-0.67331 11.52153,-3.01998 15.61042,-6.10623 6.64564,-5.01605 10.96351,-12.21766 12.18551,-20.32376 0.48075,-3.18905 0.47701,-4.77422 -0.019,-8.07089 -1.73459,-11.52801 -9.81357,-29.03154 -22.28721,-48.28646 -2.51096,-3.87604 -8.80794,-12.7 -9.06301,-12.7 -0.10658,0 -1.44158,1.75618 -2.96665,3.90261 -14.48343,20.38433 -25.15035,41.31522 -27.84987,54.64767 -2.00518,9.90327 0.35083,18.90236 6.91892,26.42762 4.08613,4.68161 9.64051,8.04737 15.90107,9.63549 4.26348,1.08152 7.72369,1.34289 11.56985,0.87395 z"
         id="path56" /><path
         style="fill:#fdfdfd;fill-opacity:1;stroke:none;stroke-width:1.99999;stroke-linecap:round;stroke-linejoin:round;stroke-dasharray:none;stroke-opacity:1;paint-order:markers stroke fill"
         d="m -1918.6308,-724.9004 c -5.5181,0.54659 -10.2128,5.20375 -11.2461,12.09375 -1.0321,6.88275 0.1566,27.02082 2.002,33.91797 4.7291,17.67628 19.4337,38.85803 31.2578,45.02539 3.5002,1.8257 5.4824,1.84449 9.668,0.0957 4.7588,-1.98833 7.6367,-6.09375 7.6367,-10.89843 0,-3.64211 -0.6366,-4.63235 -6.9571,-10.81641 -8.6383,-8.45189 -13.3732,-15.4949 -16.8261,-25.02539 -2.4105,-6.65333 -2.686,-8.82962 -2.7969,-22.08008 -0.1383,-16.55512 -0.8937,-18.84735 -7.0508,-21.41992 -1.9169,-0.80094 -3.8481,-1.07478 -5.6875,-0.89258 z"
         transform="scale(0.26458333)"
         id="path212" /><path
         id="path200"
         style="fill:#fdfdfd;fill-opacity:1;stroke:none;stroke-width:0.529164;stroke-linecap:round;stroke-linejoin:round;stroke-dasharray:none;stroke-opacity:1;paint-order:markers stroke fill"
         d="m -2078.7227,-974.91993 c -23.0658,-0.0447 -45.741,14.88674 -51.1523,40.41601 -1.1624,5.48391 -1.4056,28.56567 -1.4199,134.30664 l -0.02,127.68751 -5.289,6.06445 c -21.5394,24.6974 -25.6345,56.27624 -11.0782,85.42773 15.2039,30.44826 49.4983,47.57794 82.5293,41.22266 v 0 c 29.8395,-5.74125 53.6818,-28.06362 61.5078,-57.58789 2.3541,-8.88098 2.3827,-27.25232 0.057,-36 -2.8958,-10.8898 -9.9978,-24.0479 -17.2363,-31.93555 l -6.4902,-7.07226 v -65.42383 -65.42383 l -15.0899,-0.32227 -15.0879,-0.32226 -2.4121,-2.80469 c -1.344,-1.56404 -2.4101,-4.0852 -2.4101,-5.69531 0,-1.61012 1.0661,-4.12936 2.4101,-5.69336 l 2.4121,-2.80664 15.0879,-0.32227 15.0899,-0.32226 v -11.92774 -11.92773 h -14.5762 -14.5781 l -2.9219,-2.92188 c -3.0964,-3.09638 -3.5441,-5.31413 -1.9297,-9.56055 1.6324,-4.29331 6.284,-5.51757 20.9746,-5.51757 h 13.0313 v -11.90625 -11.90625 l -14.2969,-0.34375 c -16.4389,-0.39527 -19.1488,-1.37632 -20.2676,-7.33985 -0.7821,-4.16927 1.3444,-8.08989 5.1817,-9.54883 1.382,-0.52543 8.558,-0.95507 15.9472,-0.95507 h 13.4356 v -12.28907 c 0,-18.48525 -3.5457,-29.31417 -13.1133,-40.04883 -10.4776,-11.75557 -24.4574,-17.17237 -38.2969,-17.19921 z m -23.2656,130.3789 c 2.4404,-0.0428 4.938,0.80801 6.5918,2.56836 2.2248,2.36829 2.2619,2.83102 2.2617,27 v 24.58985 h 19.4883 19.4883 l 2.9218,2.92383 2.9239,2.92187 v 61.17188 61.17187 l 7.3593,6.87305 c 11.6719,10.90023 17.5908,24.43316 17.625,40.29297 0.071,32.70081 -30.6173,59.10975 -63.4843,54.63086 -24.6055,-3.35305 -43.6211,-22.54399 -47.5723,-48.00977 -2.6635,-17.16665 5.4144,-37.97393 18.8184,-48.47656 l 5.1054,-4 0.074,-89.11524 c 0.074,-88.58517 0.086,-89.13078 2.1464,-91.75 1.4272,-1.8144 3.8116,-2.75016 6.252,-2.79297 z"
         transform="scale(0.26458333)" /></g></g></svg>
