<?xml version="1.0" encoding="utf-8"?>
<!-- Generator: Adobe Illustrator 24.3.0, SVG Export Plug-In . SVG Version: 6.00 Build 0)  -->
<svg version="1.1" id="Layer_1" xmlns="http://www.w3.org/2000/svg" xmlns:xlink="http://www.w3.org/1999/xlink" x="0px" y="0px"
	 viewBox="0 0 100 100" style="enable-background:new 0 0 100 100;" xml:space="preserve">
<style type="text/css">
	.st0{fill:#1FABE9;}
	.st1{fill:#020303;}
	.st2{fill:#FDFDFD;}
</style>
<g>
	<path id="path13" class="st0" d="M63.7,64.3c-4.5-0.5-8.8-2.7-11.6-6c-3.7-4.3-5.1-9.4-3.9-15c1.5-7.6,7.6-19.5,15.9-31.1
		c0.9-1.2,1.6-2.2,1.7-2.2c0.1,0,3.7,5,5.2,7.2c7.1,11,11.7,20.9,12.7,27.5c0.3,1.9,0.3,2.8,0,4.6c-1.2,8-7.6,14-15.8,15
		C66.2,64.5,65.4,64.5,63.7,64.3L63.7,64.3z M59.1,56.1c0.7-0.3,1.2-0.9,1.2-1.6c0-0.5-0.1-0.7-1-1.6c-1.3-1.3-2-2.3-2.5-3.8
		c-0.4-1-0.4-1.3-0.4-3.3c0-2.5-0.1-2.8-1.1-3.2c-1.2-0.5-2.3,0.3-2.6,1.7c-0.2,1,0,4.1,0.3,5.1c0.7,2.7,2.9,5.9,4.7,6.8
		C58.2,56.4,58.5,56.4,59.1,56.1L59.1,56.1z"/>
	<path id="path12" class="st0" d="M28.4,62.2c-1.8-0.6-3.1-2-3.7-3.7c-0.4-1.2-0.4-2.1,0-3.4c0.4-1.3,1.1-2.2,2.3-3
		c0.5-0.3,1-0.8,1.1-1c0.1-0.2,0.1-4,0.1-9.2v-8.8h2h2l0,8.9c0,6.7,0.1,8.9,0.2,9.2c0.1,0.2,0.6,0.6,1.1,0.9
		c1.4,0.9,2.2,2.1,2.5,3.8c0.3,1.6-0.4,3.6-1.6,4.8C32.7,62.3,30.4,62.9,28.4,62.2L28.4,62.2z"/>
	<path id="path57" class="st0" d="M18.5,97.2C17.2,97,16,96.5,14,95.4c-1.9-1.1-2.5-1.3-3.2-0.8l-0.3,0.2v-4.1v-4.1l0.6,0.4
		c1,0.8,3.5,2.1,4.7,2.6c1.7,0.6,3.4,0.8,4.9,0.6c1.6-0.2,2.3-0.5,5.3-2.1c3.2-1.7,4.1-1.9,6.1-1.8c1.7,0.1,2.3,0.3,4.9,1.7
		c2.4,1.3,3.6,1.8,5.1,2.1c2.5,0.5,4.7,0,7.9-1.7c3.4-1.8,4.3-2.2,6.3-2.2c1.6,0,2.8,0.4,5.4,1.8c2.6,1.4,3.5,1.8,4.9,2
		c1.4,0.3,2.4,0.3,3.7,0c1.5-0.3,2.4-0.7,4.5-1.9c2.6-1.4,3.6-1.8,5.3-1.9c2.2-0.1,3.6,0.3,6.4,2.1c1.3,0.8,1.9,0.9,2.5,0.5l0.4-0.3
		v4.1c0,4.1,0,4.1-0.3,3.9c-0.4-0.4-2.9-1.9-4.1-2.4c-1.5-0.7-2.9-1-4.6-1c-2,0-3.5,0.4-5.6,1.6c-4.3,2.3-5.4,2.7-7.4,2.4
		c-1.4-0.2-2.2-0.5-4.5-1.8c-3.1-1.7-4.6-2.2-6.9-2.2c-2.3,0-4,0.6-7.3,2.4c-2.1,1.2-3.3,1.6-4.9,1.6c-1.7,0-2.8-0.4-5.4-1.8
		c-3.1-1.7-4.6-2.2-7-2.2c-2.3,0-3.7,0.5-7,2.3C21.8,97,20.3,97.4,18.5,97.2L18.5,97.2z M17.9,87.5c-1.2-0.3-2.2-0.7-4.2-1.9
		c-1.7-1-2.4-1.1-2.9-0.6c-0.3,0.3-0.3,0.3-0.3-3.9v-4.2l0.3,0.3c0.5,0.5,2.3,1.5,3.8,2.2c2,0.9,3.1,1.2,5.3,1.1
		c2.2-0.1,2.8-0.3,5.8-1.9c3-1.6,4-1.9,5.8-1.9c1.8,0,2.9,0.4,5.7,1.9c2.4,1.3,3.2,1.6,4.8,1.9c1.5,0.3,2.5,0.3,4-0.1
		c1.5-0.4,2.4-0.8,4.7-2.1c2.3-1.3,3.7-1.7,5.2-1.7c1.6,0,2.5,0.2,4.2,1.1c0.8,0.4,2.1,1.1,3,1.5c2,1,3.3,1.4,5.3,1.3
		c1.4,0,1.8-0.1,3-0.5c0.8-0.3,2.1-0.8,2.9-1.3c3.3-1.9,4.3-2.2,6.3-2.2c1.8,0,3,0.4,6,2.2c1.3,0.8,1.9,0.8,2.5,0.3
		c0.3-0.2,0.3-0.2,0.3,3.9v4.2l-0.7-0.5c-1.1-0.8-3.5-2.1-4.8-2.6c-1.1-0.4-1.4-0.4-3.4-0.4c-2,0-2.3,0-3.4,0.4
		c-0.7,0.2-2.2,0.9-3.4,1.6c-2.8,1.6-3.8,1.9-5.4,1.9c-1.7,0-2.3-0.2-5.8-2c-3.5-1.8-4.4-2-6.9-1.9c-2.2,0.1-3.3,0.5-6.4,2.2
		c-4.6,2.5-6.2,2.5-10.9-0.1c-2.8-1.5-4.1-2-6.3-2.1c-2.5-0.1-3.4,0.1-6.8,1.9c-1.5,0.8-3.2,1.6-3.6,1.7
		C20.6,87.6,19.1,87.7,17.9,87.5L17.9,87.5z"/>
	<path id="path7" class="st1" d="M62.1,66.8c-8.9-1.6-15.7-8.4-17-17.1c-0.2-1.7-0.1-5.2,0.3-7.1c1.8-8.3,8.2-20.9,16.9-32.9
		c2.2-3,2.6-3.4,3.3-3.4c0.7,0,0.8,0.1,2.4,2.3c9.4,12.7,16.3,26,17.9,34.5c0.7,3.9,0.5,7.1-0.9,10.8c-2.4,6.5-8.7,11.6-15.9,12.9
		C67.6,67.1,63.8,67.1,62.1,66.8L62.1,66.8z M67.7,64.3c3.1-0.4,6.6-1.7,8.9-3.5c3.8-2.9,6.2-7,6.9-11.6c0.3-1.8,0.3-2.7,0-4.6
		c-1-6.6-5.6-16.5-12.7-27.5c-1.4-2.2-5-7.2-5.2-7.2c-0.1,0-0.8,1-1.7,2.2c-8.2,11.6-14.3,23.5-15.9,31.1c-1.1,5.6,0.2,10.8,3.9,15
		c2.3,2.7,5.5,4.6,9.1,5.5C63.5,64.4,65.5,64.6,67.7,64.3L67.7,64.3z"/>
	<path id="path3" class="st1" d="M27.4,70.7c-5.5-1.2-9.7-5.1-11.1-10.5c-0.3-1.2-0.4-1.9-0.4-3.3c0-3.3,0.9-6.1,2.9-8.7l0.9-1.2
		V27.9c0-13.7,0-19.4,0.2-19.9c0.1-0.4,0.4-1.2,0.7-1.9c2.1-4.5,6.8-6.9,11.7-5.9c3,0.6,5.7,2.7,7.1,5.5c1.1,2.2,1,0.9,1,22.2
		l0,19.1l1,1.2c1.1,1.4,2,3.2,2.5,4.9c0.3,1,0.3,1.5,0.3,3.7c0,2.2-0.1,2.6-0.4,3.8c-0.8,2.6-2,4.6-4,6.4c-2.1,2-4.7,3.3-7.4,3.7
		C31.2,71,28.6,71,27.4,70.7L27.4,70.7z M32.3,68.2c4.5-0.9,8.1-4.2,9.3-8.7c0.4-1.3,0.4-4.1,0-5.4c-0.4-1.6-1.5-3.6-2.6-4.8l-1-1.1
		v-9.9v-9.9l-2.3,0l-2.3,0L33,28c-0.2-0.2-0.4-0.6-0.4-0.9c0-0.2,0.2-0.6,0.4-0.9l0.4-0.4l2.3,0l2.3,0v-1.8v-1.8h-2.2h-2.2l-0.4-0.4
		c-0.5-0.5-0.5-0.8-0.3-1.4c0.2-0.6,0.9-0.8,3.2-0.8h2v-1.8v-1.8l-2.2-0.1c-2.5-0.1-2.9-0.2-3.1-1.1c-0.1-0.6,0.2-1.2,0.8-1.4
		c0.2-0.1,1.3-0.1,2.4-0.1h2v-1.9c0-2.8-0.5-4.4-2-6c-4.2-4.7-12.2-2.7-13.5,3.5c-0.2,0.8-0.2,4.3-0.2,20.2l0,19.2l-0.8,0.9
		c-3.2,3.7-3.9,8.5-1.7,12.9C22.1,66.6,27.3,69.1,32.3,68.2L32.3,68.2z M29,65.1c-3.7-0.5-6.6-3.4-7.2-7.2c-0.4-2.6,0.8-5.7,2.8-7.3
		l0.8-0.6l0-13.4c0-13.3,0-13.4,0.3-13.8c0.4-0.5,1.4-0.6,1.9,0C28,23,28,23.1,28,26.7l0,3.7H31h2.9l0.4,0.4l0.4,0.4v9.2v9.2l1.1,1
		c1.8,1.6,2.7,3.7,2.7,6.1C38.6,61.8,33.9,65.8,29,65.1L29,65.1z M32.6,61.9c2.9-1.4,4.1-4.6,2.8-7.5c-0.4-1-1-1.7-2-2.3
		c-0.5-0.3-1-0.8-1.1-0.9c-0.1-0.2-0.2-2.5-0.2-9.2l0-8.9h-2h-2v8.8c0,5.2-0.1,9-0.1,9.2c-0.1,0.2-0.6,0.7-1.1,1
		c-1.1,0.8-1.9,1.7-2.3,3c-0.4,1.2-0.4,2.1,0,3.4C25.7,61.8,29.5,63.4,32.6,61.9L32.6,61.9z"/>
	<path id="path56" class="st1" d="M18.3,99.9c-1.9-0.2-3.1-0.7-5.7-2.2c-1.9-1.1-2.3-1.5-2.1-2.3c0-0.3,0.2-0.6,0.4-0.8
		c0.6-0.5,1.2-0.3,3.2,0.8c2.3,1.3,3.8,1.8,5.4,1.8c1.6,0,2.6-0.3,5-1.7c3.3-1.8,4.7-2.3,7-2.3c2.4,0,3.8,0.5,7,2.2
		c2.6,1.4,3.7,1.8,5.4,1.8c1.6,0,2.8-0.4,4.9-1.6c3.3-1.8,5-2.4,7.3-2.4c2.3,0,3.8,0.5,6.9,2.2c2.3,1.3,3.1,1.6,4.5,1.8
		c1.9,0.3,3-0.1,7.4-2.4c2.2-1.2,3.6-1.6,5.6-1.6c2.4,0,4.1,0.5,7.1,2.3c1.7,1,2.1,1.5,1.9,2.2c-0.1,0.5-0.7,1-1.3,1
		c-0.2,0-1.2-0.5-2.2-1.1c-3-1.7-4.8-2.2-7-1.7c-1.1,0.2-2.1,0.7-5.5,2.5c-2,1.1-3.4,1.5-5.3,1.4c-2,0-3-0.3-6.3-2
		c-3.4-1.7-4.3-2-5.9-2c-1.6,0-2.9,0.4-4.8,1.5c-3.7,2.1-5.1,2.5-7.3,2.5c-1.9,0-3.3-0.4-5.4-1.5c-3.7-1.9-4.4-2.2-5.4-2.5
		c-2.2-0.5-3.7-0.1-7.2,1.8c-2.5,1.4-3.7,1.8-5.2,2C19.5,100,19.6,100,18.3,99.9L18.3,99.9z M17.7,90.2c-1.5-0.3-2.9-0.8-4.6-1.8
		c-2.6-1.5-2.9-1.9-2.6-2.9c0.4-1.1,1.2-1.1,3.2,0.1c2,1.2,3,1.6,4.3,1.9c2.1,0.4,3.1,0.2,7.2-1.9c3.4-1.7,4.3-2,6.8-1.9
		c2.1,0.1,3.5,0.5,6.3,2.1c4.6,2.6,6.3,2.6,10.9,0.1c3.1-1.7,4.3-2.1,6.4-2.2c2.5-0.1,3.4,0.1,6.9,1.9c3.5,1.8,4.1,2,5.8,2
		c1.7,0,2.6-0.3,5.4-1.9c1.2-0.7,2.7-1.4,3.4-1.6c1.1-0.4,1.4-0.4,3.4-0.4c2,0,2.3,0,3.4,0.4c1.3,0.5,4.2,2,5,2.7
		c0.5,0.4,0.5,0.6,0.5,1.1c0,0.4-0.1,0.7-0.4,0.9c-0.6,0.5-1.2,0.4-2.5-0.4c-2.9-1.7-4.3-2.2-6.4-2.1c-1.8,0.1-2.7,0.4-5.3,1.9
		c-3.5,2-5.5,2.5-8.3,1.9c-1.5-0.3-2.4-0.7-4.9-2c-2.6-1.4-3.8-1.8-5.4-1.8c-1.9,0-2.9,0.3-6.3,2.2c-3.1,1.7-5.4,2.2-7.9,1.7
		c-1.5-0.3-2.7-0.8-5.1-2.1c-2.5-1.4-3.2-1.6-4.8-1.7c-2.1-0.1-2.7,0.1-6.3,1.9c-1.7,0.9-3.6,1.7-4,1.8
		C20.5,90.4,18.8,90.4,17.7,90.2z M42,80.5c-1.5-0.3-2.3-0.7-4.7-1.9c-2.8-1.5-3.9-1.9-5.7-1.9c-1.8,0-2.8,0.4-5.8,1.9
		c-3,1.6-3.7,1.8-5.8,1.9c-2.3,0.1-3.4-0.1-5.8-1.3c-2.1-1.1-3.4-1.9-3.7-2.4c-0.3-0.5-0.1-1.1,0.3-1.5c0.5-0.5,1.2-0.4,2.9,0.6
		c2.1,1.2,3.1,1.7,4.5,1.9c1.7,0.3,3.1,0.1,5.3-1.1c4.9-2.6,5.7-2.8,8.5-2.7c2.3,0.1,3.4,0.5,6.3,2c2.9,1.6,3.8,1.9,5.5,1.9
		c1.8,0,2.4-0.2,6.3-2.3c2.4-1.3,3.3-1.6,5.5-1.7c2.6-0.1,4.3,0.4,7.3,2.1c2,1.1,3.1,1.6,4.2,1.8c2,0.4,3.5-0.1,6.6-1.8
		c1.1-0.6,2.6-1.3,3.3-1.6c1.2-0.4,1.4-0.5,3.5-0.5c1.9,0,2.3,0,3.2,0.3c2.1,0.7,5.4,2.6,5.7,3.3c0.3,0.8-0.1,1.6-1.1,1.8
		c-0.4,0.1-0.7-0.1-1.7-0.6c-3.1-1.8-4.2-2.2-6-2.2c-2,0-3,0.3-6.3,2.2c-0.8,0.4-2.1,1-2.9,1.3c-1.2,0.4-1.6,0.5-3,0.5
		c-2,0-3.3-0.3-5.3-1.3c-0.8-0.4-2.2-1.1-3-1.5c-1.7-0.9-2.6-1.1-4.2-1.1c-1.6,0-3,0.5-5.2,1.7c-2.3,1.3-3.3,1.7-4.7,2.1
		C44.6,80.8,43.4,80.8,42,80.5L42,80.5z"/>
	<path id="path212" class="st2" d="M54.3,42.4c-0.8,0.1-1.5,0.8-1.7,1.8c-0.2,1,0,4.1,0.3,5.1c0.7,2.7,2.9,5.9,4.7,6.8
		c0.5,0.3,0.8,0.3,1.5,0c0.7-0.3,1.2-0.9,1.2-1.6c0-0.5-0.1-0.7-1-1.6c-1.3-1.3-2-2.3-2.5-3.8c-0.4-1-0.4-1.3-0.4-3.3
		c0-2.5-0.1-2.8-1.1-3.2C54.9,42.4,54.6,42.4,54.3,42.4L54.3,42.4z"/>
	<path id="path200" class="st2" d="M30.2,2.6c-3.5,0-6.9,2.2-7.7,6.1c-0.2,0.8-0.2,4.3-0.2,20.2l0,19.2l-0.8,0.9
		c-3.2,3.7-3.9,8.5-1.7,12.9c2.3,4.6,7.5,7.2,12.4,6.2l0,0c4.5-0.9,8.1-4.2,9.3-8.7c0.4-1.3,0.4-4.1,0-5.4c-0.4-1.6-1.5-3.6-2.6-4.8
		l-1-1.1v-9.9v-9.9l-2.3,0l-2.3,0L33,28c-0.2-0.2-0.4-0.6-0.4-0.9s0.2-0.6,0.4-0.9l0.4-0.4l2.3,0l2.3,0v-1.8v-1.8h-2.2h-2.2
		l-0.4-0.4c-0.5-0.5-0.5-0.8-0.3-1.4c0.2-0.6,0.9-0.8,3.2-0.8h2v-1.8v-1.8l-2.2-0.1c-2.5-0.1-2.9-0.2-3.1-1.1
		c-0.1-0.6,0.2-1.2,0.8-1.4c0.2-0.1,1.3-0.1,2.4-0.1h2v-1.9c0-2.8-0.5-4.4-2-6C34.4,3.4,32.3,2.6,30.2,2.6L30.2,2.6z M26.7,22.3
		c0.4,0,0.7,0.1,1,0.4C28,23,28,23.1,28,26.7v3.7H31h2.9l0.4,0.4l0.4,0.4v9.2v9.2l1.1,1c1.8,1.6,2.7,3.7,2.7,6.1
		c0,4.9-4.6,8.9-9.6,8.2c-3.7-0.5-6.6-3.4-7.2-7.2c-0.4-2.6,0.8-5.7,2.8-7.3l0.8-0.6l0-13.4c0-13.3,0-13.4,0.3-13.8
		C26,22.4,26.3,22.3,26.7,22.3L26.7,22.3z"/>
</g>
</svg>
